<svg width="60" height="60" viewBox="0 0 60 60" fill="none" xmlns="http://www.w3.org/2000/svg">
<circle opacity="0.3" cx="30" cy="30" r="30" fill="white"/>
<path d="M30 13C20.6115 13 13 20.6115 13 30C13 39.3885 20.6115 47 30 47C39.3885 47 47 39.3885 47 30C47 20.6115 39.3885 13 30 13ZM32.1529 37.144C32.1529 37.4267 32.0972 37.7067 31.989 37.9679C31.8808 38.2291 31.7222 38.4664 31.5223 38.6663C31.3224 38.8662 31.0851 39.0248 30.8239 39.133C30.5627 39.2412 30.2827 39.2969 30 39.2969C29.7173 39.2969 29.4373 39.2412 29.1761 39.133C28.9149 39.0248 28.6776 38.8662 28.4777 38.6663C28.2778 38.4664 28.1192 38.2291 28.011 37.9679C27.9028 37.7067 27.8471 37.4267 27.8471 37.144V28.5318C27.8471 28.249 27.9028 27.9691 28.011 27.7079C28.1192 27.4467 28.2778 27.2093 28.4777 27.0094C28.6776 26.8095 28.9149 26.6509 29.1761 26.5427C29.4373 26.4346 29.7173 26.3789 30 26.3789C30.2827 26.3789 30.5627 26.4346 30.8239 26.5427C31.0851 26.6509 31.3224 26.8095 31.5223 27.0094C31.7222 27.2093 31.8808 27.4467 31.989 27.7079C32.0972 27.9691 32.1529 28.249 32.1529 28.5318V37.144ZM30 25.0089C29.5742 25.0089 29.158 24.8826 28.8039 24.6461C28.4499 24.4095 28.1739 24.0733 28.011 23.6799C27.848 23.2865 27.8054 22.8536 27.8885 22.436C27.9715 22.0184 28.1766 21.6348 28.4777 21.3337C28.7788 21.0326 29.1624 20.8276 29.58 20.7445C29.9976 20.6614 30.4305 20.7041 30.8239 20.867C31.2173 21.03 31.5535 21.3059 31.7901 21.6599C32.0266 22.014 32.1529 22.4302 32.1529 22.856C32.153 23.1388 32.0974 23.4188 31.9892 23.68C31.881 23.9412 31.7225 24.1786 31.5225 24.3785C31.3226 24.5785 31.0852 24.737 30.824 24.8452C30.5627 24.9534 30.2827 25.009 30 25.0089Z" fill="black"/>
</svg>
