<?xml version="1.0" encoding="UTF-8"?>
<svg version="1.1" xmlns="http://www.w3.org/2000/svg" width="128" height="128">
<path d="M0 0 C0.94625244 0.48210937 1.89250488 0.96421875 2.86743164 1.4609375 C3.87153076 1.98171875 4.87562988 2.5025 5.91015625 3.0390625 C8.0524382 4.13206686 10.19569436 5.22316356 12.33984375 6.3125 C13.43393555 6.86905273 14.52802734 7.42560547 15.65527344 7.99902344 C21.85109236 11.10878831 28.12293074 14.05971379 34.39624023 17.00927734 C39.39013573 19.37169953 44.21180844 21.86135577 48.97265625 24.6640625 C49.63265625 24.9940625 50.29265625 25.3240625 50.97265625 25.6640625 C50.97265625 49.0940625 50.97265625 72.5240625 50.97265625 96.6640625 C24.1658214 110.77292295 24.1658214 110.77292295 15.54296875 115.16381836 C13.97106695 115.96845875 12.40278994 116.78021292 10.83789062 117.59838867 C8.52145358 118.80815219 6.19415046 119.9941158 3.86328125 121.17578125 C3.17155823 121.54330002 2.47983521 121.91081879 1.76715088 122.28947449 C-2.92739266 124.62766944 -5.81093179 125.15403182 -11.02734375 123.6640625 C-15.19771584 121.921396 -19.22846894 119.93602889 -23.26953125 117.9140625 C-24.43364532 117.34075195 -25.5977594 116.76744141 -26.79714966 116.17675781 C-29.24923991 114.96877206 -31.69811299 113.75458722 -34.14453125 112.53515625 C-37.28461493 110.96997237 -40.42970311 109.41519968 -43.57687187 107.86431885 C-48.77581017 105.30182531 -53.97148802 102.73264048 -59.15966797 100.1484375 C-60.53697586 99.46346191 -60.53697586 99.46346191 -61.94210815 98.76464844 C-64.02734375 97.6640625 -64.02734375 97.6640625 -65.02734375 96.6640625 C-65.16909394 94.48837061 -65.23990889 92.30803883 -65.28369141 90.12817383 C-65.29829407 89.44516205 -65.31289673 88.76215027 -65.32794189 88.05844116 C-65.45409378 81.74673612 -65.52272074 75.43375534 -65.57578468 69.12105274 C-65.61153882 64.87851351 -65.66480189 60.63787187 -65.76123047 56.39624023 C-65.85414642 52.29703507 -65.90271915 48.19950848 -65.92017746 44.09930992 C-65.93426007 42.53824901 -65.96387559 40.9772463 -66.00947952 39.4167881 C-66.34786565 27.24055682 -66.34786565 27.24055682 -63.16897583 23.44546509 C-60.84794378 21.85752812 -58.62360991 20.73288703 -56.02734375 19.6640625 C-55.00205566 19.0978418 -53.97676758 18.53162109 -52.92041016 17.94824219 C-51.99921387 17.49868164 -51.07801758 17.04912109 -50.12890625 16.5859375 C-49.0812207 16.06918457 -48.03353516 15.55243164 -46.95410156 15.02001953 C-45.86452148 14.49005371 -44.77494141 13.96008789 -43.65234375 13.4140625 C-33.90580449 8.64077979 -33.90580449 8.64077979 -24.31640625 3.5625 C-23.45837402 3.09231445 -22.6003418 2.62212891 -21.71630859 2.13769531 C-20.13357568 1.26251847 -18.55783262 0.37453313 -16.99072266 -0.52832031 C-16.28608887 -0.91600586 -15.58145508 -1.30369141 -14.85546875 -1.703125 C-13.95683105 -2.21528564 -13.95683105 -2.21528564 -13.04003906 -2.73779297 C-8.38892197 -4.12003907 -4.11309847 -2.12441356 0 0 Z " fill="#000000" transform="translate(71.02734375,3.3359375)"/>
<path d="M0 0 C1.8125 1.125 1.8125 1.125 3 3 C3.1875 6.1875 3.1875 6.1875 3 9 C4.98 9 6.96 9 9 9 C10.98448539 13.28009773 11.67889487 17.54727084 12.25 22.1875 C12.353125 22.91130859 12.45625 23.63511719 12.5625 24.38085938 C12.79829984 26.24471838 12.90836283 28.12352069 13 30 C11 32 11 32 8.20263672 32.22705078 C7.04006348 32.21657715 5.87749023 32.20610352 4.6796875 32.1953125 C2.79443359 32.18564453 2.79443359 32.18564453 0.87109375 32.17578125 C-1.10697266 32.15064453 -1.10697266 32.15064453 -3.125 32.125 C-4.46483721 32.11496983 -5.80468152 32.10584404 -7.14453125 32.09765625 C-10.42986573 32.07402075 -13.71484465 32.04107234 -17 32 C-18.03185041 26.70316791 -17.81572538 22.4101495 -16.625 17.125 C-16.48578125 16.44953125 -16.3465625 15.7740625 -16.203125 15.078125 C-15.15529337 10.15529337 -15.15529337 10.15529337 -14 9 C-12.00041636 8.95919217 -9.99954746 8.95745644 -8 9 C-8.061875 7.88625 -8.12375 6.7725 -8.1875 5.625 C-8.125625 4.42875 -8.06375 3.2325 -8 2 C-4.76746204 -0.15502531 -3.74849077 -0.46856135 0 0 Z " fill="#FAFCFD" transform="translate(65,10)"/>
<path d="M0 0 C2.875 0.9375 2.875 0.9375 4.875 3.9375 C5.16210938 6.52539062 5.16210938 6.52539062 5.21875 9.59375 C5.24839844 10.69847656 5.27804688 11.80320312 5.30859375 12.94140625 C5.35286458 15.27213542 5.39713542 17.60286458 5.44140625 19.93359375 C5.47105469 21.03832031 5.50070313 22.14304687 5.53125 23.28125 C5.55928711 24.80008789 5.55928711 24.80008789 5.58789062 26.34960938 C5.70054367 29.17368308 5.70054367 29.17368308 7.875 31.9375 C8.38335292 35.8348724 8.20462183 37.44306726 6 40.75 C3.49355093 43.33016816 2.62038327 43.85467964 -0.9375 44.25 C-4.97711856 43.85395896 -6.42229155 42.94908942 -9.125 39.9375 C-10.3939654 35.65474179 -10.41923511 33.6411057 -8.6875 29.5 C-8.171875 28.654375 -7.65625 27.80875 -7.125 26.9375 C-9.435 26.9375 -11.745 26.9375 -14.125 26.9375 C-14.125 25.9475 -14.125 24.9575 -14.125 23.9375 C-11.815 23.9375 -9.505 23.9375 -7.125 23.9375 C-7.125 23.2775 -7.125 22.6175 -7.125 21.9375 C-9.435 21.9375 -11.745 21.9375 -14.125 21.9375 C-14.125 19.6275 -14.125 17.3175 -14.125 14.9375 C-11.815 14.9375 -9.505 14.9375 -7.125 14.9375 C-7.125 14.2775 -7.125 13.6175 -7.125 12.9375 C-9.435 12.9375 -11.745 12.9375 -14.125 12.9375 C-14.125 12.2775 -14.125 11.6175 -14.125 10.9375 C-11.815 10.9375 -9.505 10.9375 -7.125 10.9375 C-7.24875 9.32875 -7.24875 9.32875 -7.375 7.6875 C-7.125 3.9375 -7.125 3.9375 -5.5 1.4375 C-3.125 -0.0625 -3.125 -0.0625 0 0 Z " fill="#0777BB" transform="translate(35.125,57.0625)"/>
<path d="M0 0 C3.50286718 0.5650895 6.1344392 1.42440057 9.1875 3.22265625 C9.96303223 3.67511719 10.73856445 4.12757812 11.53759766 4.59375 C12.35019043 5.0784375 13.1627832 5.563125 14 6.0625 C14.83708496 6.55621094 15.67416992 7.04992187 16.53662109 7.55859375 C18.22807359 8.55901614 19.91739271 9.56305485 21.60449219 10.57080078 C23.76388053 11.85912725 25.93121046 13.13261766 28.1015625 14.40234375 C29.27669152 15.10046978 30.45121882 15.79961017 31.625 16.5 C32.64851563 17.1084375 33.67203125 17.716875 34.7265625 18.34375 C37 20 37 20 38 23 C36.5625 25.6875 36.5625 25.6875 35 28 C31.60906543 26.86968848 31.46191293 26.46191293 29 24 C29.33 23.34 29.66 22.68 30 22 C29.34 22 28.68 22 28 22 C28 22.66 28 23.32 28 24 C24.60906543 22.86968848 24.46191293 22.46191293 22 20 C22 19.34 22 18.68 22 18 C21.67 18.66 21.34 19.32 21 20 C18 19 18 19 17 18 C16.34 17.67 15.68 17.34 15 17 C15 16.01 15 15.02 15 14 C14.67 14.66 14.34 15.32 14 16 C11 15 11 15 10 14 C9.34 13.67 8.68 13.34 8 13 C8 12.01 8 11.02 8 10 C7.360625 10.185625 6.72125 10.37125 6.0625 10.5625 C5.381875 10.706875 4.70125 10.85125 4 11 C3.67 10.67 3.34 10.34 3 10 C2.34 9.67 1.68 9.34 1 9 C1.33 7.68 1.66 6.36 2 5 C1.34 5 0.68 5 0 5 C0 5.66 0 6.32 0 7 C-0.99 7 -1.98 7 -3 7 C-1.125 2.25 -1.125 2.25 0 0 Z " fill="#F0F7FB" transform="translate(76,68)"/>
<path d="M0 0 C2.875 0.9375 2.875 0.9375 4.875 3.9375 C5.16210938 6.52539062 5.16210938 6.52539062 5.21875 9.59375 C5.24839844 10.69847656 5.27804688 11.80320312 5.30859375 12.94140625 C5.35286458 15.27213542 5.39713542 17.60286458 5.44140625 19.93359375 C5.47105469 21.03832031 5.50070313 22.14304687 5.53125 23.28125 C5.55928711 24.80008789 5.55928711 24.80008789 5.58789062 26.34960938 C5.70054367 29.17368308 5.70054367 29.17368308 7.875 31.9375 C8.38335292 35.8348724 8.20462183 37.44306726 6 40.75 C3.49355093 43.33016816 2.62038327 43.85467964 -0.9375 44.25 C-4.97711856 43.85395896 -6.42229155 42.94908942 -9.125 39.9375 C-10.3939654 35.65474179 -10.41923511 33.6411057 -8.6875 29.5 C-8.171875 28.654375 -7.65625 27.80875 -7.125 26.9375 C-9.435 26.9375 -11.745 26.9375 -14.125 26.9375 C-14.125 25.9475 -14.125 24.9575 -14.125 23.9375 C-11.815 23.9375 -9.505 23.9375 -7.125 23.9375 C-7.125 23.2775 -7.125 22.6175 -7.125 21.9375 C-9.435 21.9375 -11.745 21.9375 -14.125 21.9375 C-14.125 19.6275 -14.125 17.3175 -14.125 14.9375 C-11.815 14.9375 -9.505 14.9375 -7.125 14.9375 C-7.125 14.2775 -7.125 13.6175 -7.125 12.9375 C-9.435 12.9375 -11.745 12.9375 -14.125 12.9375 C-14.125 12.2775 -14.125 11.6175 -14.125 10.9375 C-11.815 10.9375 -9.505 10.9375 -7.125 10.9375 C-7.24875 9.32875 -7.24875 9.32875 -7.375 7.6875 C-7.125 3.9375 -7.125 3.9375 -5.5 1.4375 C-3.125 -0.0625 -3.125 -0.0625 0 0 Z M-2.125 1.9375 C-4.79978917 4.61228917 -4.40325216 6.01436481 -4.46875 9.75 C-4.49839844 10.90757813 -4.52804688 12.06515625 -4.55859375 13.2578125 C-4.58050781 14.47210938 -4.60242188 15.68640625 -4.625 16.9375 C-4.66824008 19.33350925 -4.71989241 21.72938624 -4.78125 24.125 C-4.79994141 25.19105469 -4.81863281 26.25710937 -4.83789062 27.35546875 C-5.125 29.9375 -5.125 29.9375 -7.125 31.9375 C-7.62507794 35.39536015 -7.62507794 35.39536015 -7.125 38.9375 C-5.04808202 41.32210953 -3.71943084 41.8334746 -0.625 42.375 C1.98834204 42.08831067 1.98834204 42.08831067 4.25 40.375 C6.24114424 37.9130969 6.24114424 37.9130969 5.6875 34.25 C5.22080443 31.11053719 5.22080443 31.11053719 3.875 29.9375 C3.74125123 28.03548345 3.67148372 26.12889413 3.62890625 24.22265625 C3.59603516 23.06185547 3.56316406 21.90105469 3.52929688 20.70507812 C3.468198 18.23902368 3.41089385 15.77287224 3.35742188 13.30664062 C3.30618164 11.56350586 3.30618164 11.56350586 3.25390625 9.78515625 C3.2288501 8.71273682 3.20379395 7.64031738 3.17797852 6.53540039 C3.12863343 3.77750957 3.12863343 3.77750957 0.875 1.9375 C-0.115 1.9375 -1.105 1.9375 -2.125 1.9375 Z " fill="#E0EEF6" transform="translate(35.125,57.0625)"/>
<path d="M0 0 C0.33 0 0.66 0 1 0 C1.01458252 0.67579102 1.02916504 1.35158203 1.04418945 2.04785156 C1.11875411 5.11580522 1.21538655 8.18268076 1.3125 11.25 C1.33505859 12.31347656 1.35761719 13.37695312 1.38085938 14.47265625 C1.41630859 15.49746094 1.45175781 16.52226563 1.48828125 17.578125 C1.51446533 18.52075195 1.54064941 19.46337891 1.56762695 20.43457031 C2.06714457 23.39839363 3.13342617 24.69733357 5 27 C5.58490372 30.92721068 5.34594305 32.48108543 3.125 35.8125 C0.61855093 38.39266816 -0.25461673 38.91717964 -3.8125 39.3125 C-7.85211856 38.91645896 -9.29729155 38.01158942 -12 35 C-13.46511628 28.93023256 -13.46511628 28.93023256 -12 26 C-11.01 26.33 -10.02 26.66 -9 27 C-9.0928125 28.670625 -9.0928125 28.670625 -9.1875 30.375 C-9.125625 31.57125 -9.06375 32.7675 -9 34 C-5.76746204 36.15502531 -4.74849077 36.46856135 -1 36 C1.01951062 35.06402685 1.01951062 35.06402685 2 33 C1.9493338 28.65490784 1.9493338 28.65490784 0 25 C-0.08737645 23.14630389 -0.10698153 21.28932459 -0.09765625 19.43359375 C-0.09443359 18.30888672 -0.09121094 17.18417969 -0.08789062 16.02539062 C-0.07951172 14.84138672 -0.07113281 13.65738281 -0.0625 12.4375 C-0.05798828 11.24962891 -0.05347656 10.06175781 -0.04882812 8.83789062 C-0.03699675 5.89187774 -0.02051287 2.94596319 0 0 Z " fill="#F1F7FB" transform="translate(38,62)"/>
<path d="M0 0 C0.33 0 0.66 0 1 0 C1 8.25 1 16.5 1 25 C0.67 24.34 0.34 23.68 0 23 C-2.31 23 -4.62 23 -7 23 C-7 22.01 -7 21.02 -7 20 C-4.69 20 -2.38 20 0 20 C0 19.34 0 18.68 0 18 C-2.31 18 -4.62 18 -7 18 C-7 15.69 -7 13.38 -7 11 C-4.69 11 -2.38 11 0 11 C0 10.34 0 9.68 0 9 C-2.31 9 -4.62 9 -7 9 C-7 8.34 -7 7.68 -7 7 C-4.69 7 -2.38 7 0 7 C0 4.69 0 2.38 0 0 Z " fill="#98C6E3" transform="translate(28,61)"/>
<path d="M0 0 C0.66 0 1.32 0 2 0 C2.33 6.6 2.66 13.2 3 20 C3.66 20.33 4.32 20.66 5 21 C5.125 23.875 5.125 23.875 5 27 C4.34 27.66 3.68 28.32 3 29 C-1.55555556 28.44444444 -1.55555556 28.44444444 -3 27 C-3.1875 24.5625 -3.1875 24.5625 -3 22 C-2.34 21.34 -1.68 20.68 -1 20 C-0.63047951 17.87139338 -0.63047951 17.87139338 -0.5859375 15.4296875 C-0.54726563 14.53378906 -0.50859375 13.63789062 -0.46875 12.71484375 C-0.4378125 11.77769531 -0.406875 10.84054688 -0.375 9.875 C-0.33632813 8.93011719 -0.29765625 7.98523438 -0.2578125 7.01171875 C-0.16338654 4.67467625 -0.07781606 2.33764499 0 0 Z " fill="#F0F7FB" transform="translate(33,68)"/>
<path d="M0 0 C0.33 0 0.66 0 1 0 C1.01981934 0.77190674 1.03963867 1.54381348 1.06005859 2.33911133 C1.15521143 5.83058958 1.26493047 9.32146152 1.375 12.8125 C1.42140625 14.63491211 1.42140625 14.63491211 1.46875 16.49414062 C1.50742187 17.65751953 1.54609375 18.82089844 1.5859375 20.01953125 C1.6173584 21.09307861 1.6487793 22.16662598 1.68115234 23.27270508 C1.81592307 26.2160765 1.81592307 26.2160765 4 29 C4.125 31.6875 4.125 31.6875 4 34 C3.01 33.67 2.02 33.34 1 33 C1 31.35 1 29.7 1 28 C0.01 27.67 -0.98 27.34 -2 27 C-2 20.4 -2 13.8 -2 7 C-1.67 7 -1.34 7 -1 7 C-0.67 4.69 -0.34 2.38 0 0 Z " fill="#5CA6D3" transform="translate(37,61)"/>
<path d="M0 0 C2.64 0 5.28 0 8 0 C8 3.3 8 6.6 8 10 C5.36 8.68 2.72 7.36 0 6 C0 4.02 0 2.04 0 0 Z " fill="#F0F6FA" transform="translate(90,68)"/>
<path d="M0 0 C4.55555556 0.55555556 4.55555556 0.55555556 6 2 C6.04063832 3.66617115 6.042721 5.33388095 6 7 C3.36 7 0.72 7 -2 7 C-2.125 4.625 -2.125 4.625 -2 2 C-1.34 1.34 -0.68 0.68 0 0 Z " fill="#DEEDF6" transform="translate(92,60)"/>
<path d="M0 0 C3.96 1.98 3.96 1.98 8 4 C8 5.32 8 6.64 8 8 C5.36 8 2.72 8 0 8 C0 5.36 0 2.72 0 0 Z " fill="#F3F8FB" transform="translate(90,86)"/>
<path d="M0 0 C0.33 0 0.66 0 1 0 C1.02694851 1.95825873 1.04637218 3.91662226 1.0625 5.875 C1.07410156 6.96554688 1.08570313 8.05609375 1.09765625 9.1796875 C1 12 1 12 0 14 C-2.31 14 -4.62 14 -7 14 C-7 13.01 -7 12.02 -7 11 C-4.69 11 -2.38 11 0 11 C0 10.34 0 9.68 0 9 C-2.31 9 -4.62 9 -7 9 C-7 8.34 -7 7.68 -7 7 C-4.69 7 -2.38 7 0 7 C0 4.69 0 2.38 0 0 Z " fill="#AAD0E7" transform="translate(28,61)"/>
<path d="M0 0 C0.99 0.33 1.98 0.66 3 1 C3 2.65 3 4.3 3 6 C4.65 6.33 6.3 6.66 8 7 C9.32 5.35 10.64 3.7 12 2 C12.22111261 4.72705554 12.30361625 6.46420662 10.9375 8.875 C7.82785011 10.68060316 5.38260527 9.79952488 2 9 C0 7 0 7 -0.125 3.375 C-0.08375 2.26125 -0.0425 1.1475 0 0 Z " fill="#1E84C2" transform="translate(28,89)"/>
<path d="M0 0 C1.98 0 3.96 0 6 0 C5.34 1.98 4.68 3.96 4 6 C3.34 6 2.68 6 2 6 C1.34 4.02 0.68 2.04 0 0 Z " fill="#F5F9FC" transform="translate(91,96)"/>
<path d="M0 0 C0.99 0.33 1.98 0.66 3 1 C2.34 3.64 1.68 6.28 1 9 C-1 6 -1 6 -0.625 2.8125 C-0.41875 1.884375 -0.2125 0.95625 0 0 Z " fill="#CFE4F2" transform="translate(26,88)"/>
<path d="M0 0 C2.00720923 0.28674418 4.0085944 0.61866701 6 1 C6.33 2.32 6.66 3.64 7 5 C6.01 4.34 5.02 3.68 4 3 C1.35367713 3.3121764 1.35367713 3.3121764 -1 4 C-1 1 -1 1 0 0 Z " fill="#EBF4F9" transform="translate(32,57)"/>
<path d="M0 0 C1.98 0.495 1.98 0.495 4 1 C3.67 2.32 3.34 3.64 3 5 C1.68 4.67 0.36 4.34 -1 4 C-0.67 2.68 -0.34 1.36 0 0 Z " fill="#2D8CC6" transform="translate(61,13)"/>
</svg>
