<svg xmlns="http://www.w3.org/2000/svg" xmlns:xlink="http://www.w3.org/1999/xlink" width="127" height="127" viewBox="0 0 127 127">
  <defs>
    <clipPath id="clip-path">
      <rect id="Rectangle_5501" data-name="Rectangle 5501" width="127" height="127" transform="translate(242 319)" fill="#fff" stroke="#707070" stroke-width="1"/>
    </clipPath>
  </defs>
  <g id="ic-body-parameters" transform="translate(-242 -319)" clip-path="url(#clip-path)">
    <g id="Group_10091" data-name="Group 10091" transform="translate(254.453 320.184)">
      <path id="Path_4836" data-name="Path 4836" d="M140.972,108.11a81.282,81.282,0,0,0-2.618-21.721,40.076,40.076,0,0,1-1.386-11.257c.213-9.453.167-27.248-2.848-34.285a15.8,15.8,0,0,0-12.588-10.412c-10.1-1.71-20.514-11.034-20.514-11.034V9.4a63.567,63.567,0,0,0-22.167,0V19.4S68.438,28.726,58.337,30.435A15.8,15.8,0,0,0,45.749,40.848C42.733,47.885,42.688,65.68,42.9,75.133a40.062,40.062,0,0,1-1.386,11.256A81.294,81.294,0,0,0,38.9,108.11a63.267,63.267,0,0,0,13.821,13.938c1.261-9.691,2.025-22.167,2.343-28.077a33.09,33.09,0,0,1,.976-6.374c1.691-6.666,2.612-13.027,2.612-13.027a100.773,100.773,0,0,0,2.99,15.775,32.617,32.617,0,0,1-.138,17.349,48.138,48.138,0,0,0-1.3,6.039l-1.324,12.314a62.97,62.97,0,0,0,62.113,0l-1.324-12.314a48.136,48.136,0,0,0-1.3-6.039,32.617,32.617,0,0,1-.138-17.349,100.779,100.779,0,0,0,2.99-15.775s.921,6.361,2.612,13.027a33.09,33.09,0,0,1,.976,6.374c.316,5.911,1.082,18.386,2.343,28.077A63.268,63.268,0,0,0,140.972,108.11Z" transform="translate(-38.887 -8.422)" fill="#ffcac0"/>
      <g id="Group_10090" data-name="Group 10090" transform="translate(15.623 23.929)">
        <path id="Path_4837" data-name="Path 4837" d="M112.359,74.558a1.557,1.557,0,0,0-1.188-1.854l-.188-.041a1.718,1.718,0,0,1-.858-.475l-.139-.143a7.245,7.245,0,0,0-5.144-2.162h-2.495a1.557,1.557,0,0,0,0,3.115h2.495a4.111,4.111,0,0,1,2.92,1.226l.14.143a4.828,4.828,0,0,0,2.417,1.338l.188.041a1.557,1.557,0,0,0,1.855-1.188ZM106,110.653a7.164,7.164,0,0,0,2.4-1.5,1.324,1.324,0,0,0-1.743-1.986l-.076.06a5.253,5.253,0,0,1-1.567.71,11.62,11.62,0,0,1-1.963.4,14.15,14.15,0,0,1-2.035.078l-2.283-.067-2.286-.051-1.143-.023-.566-.013-.5-.032a12.974,12.974,0,0,1-10.927-7.5,16.148,16.148,0,0,1-.76-1.915c-.227-.665-.415-1.348-.589-2.037-.081-.346-.162-.693-.232-1.041s-.141-.718-.186-1.007l-.016-.107a1.239,1.239,0,0,0-2.458.09c-.039.473-.062.853-.06,1.274s.012.82.044,1.228a18.692,18.692,0,0,0,.339,2.437,16.888,16.888,0,0,0,.689,2.417,14.838,14.838,0,0,0,8.967,8.758,16.118,16.118,0,0,0,5.034.973l.642.012.577-.01,1.143-.023,2.286-.051,2.289-.067a15.335,15.335,0,0,0,2.518-.279A12.855,12.855,0,0,0,106,110.653Z" transform="translate(-79.014 -69.883)" fill="#e5837c"/>
        <path id="Path_4838" data-name="Path 4838" d="M116.214,105.37h1.346a1.557,1.557,0,0,0,0-3.115h-1.346a1.557,1.557,0,0,0,0,3.115Zm13.043,23.185a12.5,12.5,0,0,1-2.349-.123,10.536,10.536,0,0,1-2.246-.584l-.024-.009a1.36,1.36,0,0,0-1.075,2.5,13.323,13.323,0,0,0,2.794.959,15.488,15.488,0,0,0,2.9.373h.12a1.559,1.559,0,1,0-.12-3.115ZM139.8,75.784a1.568,1.568,0,0,0,.335-.036l.187-.041a4.82,4.82,0,0,0,2.419-1.338l.139-.142A4.109,4.109,0,0,1,145.8,73H148.3a1.557,1.557,0,1,0,0-3.115H145.8a7.241,7.241,0,0,0-5.144,2.162l-.139.142a1.713,1.713,0,0,1-.859.476l-.187.041a1.557,1.557,0,0,0,.332,3.079Zm31.759,18.932a1.231,1.231,0,0,0-2.453-.061l-.008.078q-.055.508-.138,1.012c-.054.35-.124.7-.195,1.049q-.22,1.043-.537,2.061a14.371,14.371,0,0,1-1.713,3.71c-.176.285-.394.545-.586.818s-.437.509-.651.766-.47.478-.7.719l-.762.656a12.954,12.954,0,0,1-7.408,2.807l-.5.025-.566.006-1.143.016-2.286.033-2.283.045a14.638,14.638,0,0,1-2.038-.1,10.7,10.7,0,0,1-1.958-.428,5.2,5.2,0,0,1-1.541-.733l-.07-.057a1.363,1.363,0,0,0-1.8,2.041,7.086,7.086,0,0,0,2.424,1.479,13.639,13.639,0,0,0,2.465.705,14.906,14.906,0,0,0,2.515.257l2.288.046,2.286.033,1.143.015.576,0,.638-.019a15.643,15.643,0,0,0,4.99-1,15.184,15.184,0,0,0,7.741-6.4,15.577,15.577,0,0,0,1.824-4.681A20.115,20.115,0,0,0,171.5,97.2c.039-.405.066-.811.08-1.22S171.583,95.137,171.562,94.716Z" transform="translate(-100.78 -69.884)" fill="#e5837c"/>
        <path id="Path_4839" data-name="Path 4839" d="M184.626,132.872h1.346a1.557,1.557,0,0,0,0-3.115h-1.346a1.557,1.557,0,1,0,0,3.115Zm-20.2-8.313c.064.956.142,1.912.286,2.869a1.282,1.282,0,0,0,2.534,0c.144-.956.222-1.912.286-2.869s.1-1.912.1-2.869.009-1.912-.047-2.869a20.685,20.685,0,0,0-.343-2.869,1.294,1.294,0,0,0-2.534,0,20.694,20.694,0,0,0-.343,2.869c-.055.956-.062,1.912-.047,2.869S164.372,123.6,164.429,124.559Zm1.553,53.482a1.557,1.557,0,0,0-1.557,1.557v1.334a1.557,1.557,0,1,0,3.115,0V179.6A1.557,1.557,0,0,0,165.983,178.041Zm7.95-22.029-.056.013a13.631,13.631,0,0,1-1.893.33,11.863,11.863,0,0,1-1.895.046,11.266,11.266,0,0,1-1.848-.254q-.445-.1-.88-.236l-.127-.045a13.492,13.492,0,0,1-.392-1.7,15.967,15.967,0,0,1-.243-2.555,17.313,17.313,0,0,1,.132-2.585c.053-.428.122-.856.2-1.278.045-.209.087-.42.139-.623s.11-.423.153-.569l.024-.081a1.321,1.321,0,0,0-2.513-.814q-.137.379-.247.767c-.073.245-.132.487-.195.731q-.174.731-.3,1.467a20.142,20.142,0,0,0-.278,2.976,18.922,18.922,0,0,0,.159,3.006,17.64,17.64,0,0,0,.481,2.442q-.1.306-.181.615-.15.538-.267,1.085a20.215,20.215,0,0,0-.364,2.2,17.67,17.67,0,0,0,.035,4.5l.084.566.119.564c.081.4.16.685.227,1.005.14.63.247,1.27.333,1.916a30.638,30.638,0,0,1,.237,3.958,1.4,1.4,0,0,0,2.8.022v-.022a33.523,33.523,0,0,0-.179-4.3q-.12-1.09-.334-2.167c-.068-.356-.165-.742-.21-1.017l-.087-.45-.058-.458a14.686,14.686,0,0,1,.047-3.751,17.291,17.291,0,0,1,.347-1.878c.034-.147.078-.29.117-.435.252.041.5.078.755.1a14.154,14.154,0,0,0,2.331.05,14.566,14.566,0,0,0,2.28-.319,16.129,16.129,0,0,0,2.183-.646,1.136,1.136,0,0,0-.641-2.175Z" transform="translate(-130.559 -97.386)" fill="#e5837c"/>
      </g>
    </g>
  </g>
</svg>
