<svg xmlns="http://www.w3.org/2000/svg" xmlns:xlink="http://www.w3.org/1999/xlink" width="128" height="128" viewBox="0 0 128 128">
  <defs>
    <clipPath id="clip-path">
      <rect id="Rectangle_5499" data-name="Rectangle 5499" width="128" height="128" transform="translate(242 319)" fill="#fff" stroke="#707070" stroke-width="1"/>
    </clipPath>
  </defs>
  <g id="ic-daily-intake" transform="translate(-242 -319)" clip-path="url(#clip-path)">
    <g id="Group_10086" data-name="Group 10086" transform="translate(246.265 319)">
      <path id="Path_4813" data-name="Path 4813" d="M74.352,375.466H25.592a8.533,8.533,0,0,1-8.533-8.533V358.4H82.548Z" transform="translate(-17.059 -268.8)" fill="#d3dcfb"/>
      <path id="Path_4814" data-name="Path 4814" d="M128,89.6v59.733H25.592a8.533,8.533,0,0,1-8.533-8.533V89.6L76.8,68.266Z" transform="translate(-17.059 -51.199)" fill="#ebf5fc"/>
      <g id="Group_10085" data-name="Group 10085" transform="translate(8.536 46.934)">
        <path id="Path_4815" data-name="Path 4815" d="M57.736,196.267H53.2a2,2,0,0,1-2-2v-4.533a2,2,0,0,1,2-2h4.533a2,2,0,0,1,2,2v4.533A2,2,0,0,1,57.736,196.267Zm17.067,0H70.27a2,2,0,0,1-2-2v-4.533a2,2,0,0,1,2-2H74.8a2,2,0,0,1,2,2v4.533A2,2,0,0,1,74.8,196.267Zm17.067,0H87.336a2,2,0,0,1-2-2v-4.533a2,2,0,0,1,2-2H91.87a2,2,0,0,1,2,2v4.533A2,2,0,0,1,91.87,196.267Zm17.067,0H104.4a2,2,0,0,1-2-2v-4.533a2,2,0,0,1,2-2h4.533a2,2,0,0,1,2,2v4.533A2,2,0,0,1,108.936,196.267Zm17.064,0h-4.533a2,2,0,0,1-2-2v-4.533a2,2,0,0,1,2-2H126a2,2,0,0,1,2,2v4.533A2,2,0,0,1,126,196.267Zm17.067,0h-4.533a2,2,0,0,1-2-2v-4.533a2,2,0,0,1,2-2h4.533a2,2,0,0,1,2,2v4.533A2,2,0,0,1,143.067,196.267ZM57.736,213.334H53.2a2,2,0,0,1-2-2V206.8a2,2,0,0,1,2-2h4.533a2,2,0,0,1,2,2v4.533A2,2,0,0,1,57.736,213.334Zm17.067,0H70.27a2,2,0,0,1-2-2V206.8a2,2,0,0,1,2-2H74.8a2,2,0,0,1,2,2v4.533A2,2,0,0,1,74.8,213.334Zm17.067,0H87.336a2,2,0,0,1-2-2V206.8a2,2,0,0,1,2-2H91.87a2,2,0,0,1,2,2v4.533A2,2,0,0,1,91.87,213.334Zm19.067,0v-6.4A2.133,2.133,0,0,0,108.8,204.8h-4.267a2.133,2.133,0,0,0-2.133,2.133V211.2a2.133,2.133,0,0,0,2.133,2.133ZM57.736,230.4H53.2a2,2,0,0,1-2-2v-4.533a2,2,0,0,1,2-2h4.533a2,2,0,0,1,2,2V228.4A2,2,0,0,1,57.736,230.4Zm17.067,0H70.27a2,2,0,0,1-2-2v-4.533a2,2,0,0,1,2-2H74.8a2,2,0,0,1,2,2V228.4A2,2,0,0,1,74.8,230.4Zm17.067,0H87.336a2,2,0,0,1-2-2v-4.533a2,2,0,0,1,2-2H91.87a2,2,0,0,1,2,2V228.4A2,2,0,0,1,91.87,230.4Z" transform="translate(-51.203 -187.734)" fill="#3c58a0"/>
      </g>
      <path id="Path_4816" data-name="Path 4816" d="M146.922,187.733h-4.413a2.056,2.056,0,0,0-.755.145,2.059,2.059,0,0,1,1.3,1.915v4.412a2.06,2.06,0,0,1-1.3,1.916,2.05,2.05,0,0,0,.755.145h4.413a2.06,2.06,0,0,0,2.061-2.06v-4.413a2.061,2.061,0,0,0-2.06-2.06Zm-17.067,0h-4.413a2.056,2.056,0,0,0-.755.145,2.059,2.059,0,0,1,1.3,1.915v4.412a2.06,2.06,0,0,1-1.3,1.916,2.05,2.05,0,0,0,.755.145h4.413a2.06,2.06,0,0,0,2.06-2.061v-4.412a2.06,2.06,0,0,0-2.06-2.06Zm-17.064,0h-4.412a2.056,2.056,0,0,0-.756.145,2.059,2.059,0,0,1,1.305,1.915v4.412a2.059,2.059,0,0,1-1.305,1.916,2.051,2.051,0,0,0,.756.145h4.412a2.06,2.06,0,0,0,2.061-2.06v-4.413a2.061,2.061,0,0,0-2.06-2.06Zm-17.067,0H91.312a2.056,2.056,0,0,0-.756.145,2.059,2.059,0,0,1,1.3,1.915v4.412a2.059,2.059,0,0,1-1.3,1.916,2.051,2.051,0,0,0,.756.145h4.413a2.06,2.06,0,0,0,2.061-2.06v-4.413a2.061,2.061,0,0,0-2.06-2.06Zm-17.067,0H74.245a2.056,2.056,0,0,0-.756.145,2.059,2.059,0,0,1,1.3,1.915v4.412a2.06,2.06,0,0,1-1.3,1.916,2.051,2.051,0,0,0,.756.145h4.413a2.06,2.06,0,0,0,2.061-2.06v-4.413a2.061,2.061,0,0,0-2.061-2.061Zm-17.067,0H57.179a2.056,2.056,0,0,0-.756.145,2.059,2.059,0,0,1,1.305,1.915v4.412a2.059,2.059,0,0,1-1.305,1.916,2.051,2.051,0,0,0,.756.145h4.413a2.06,2.06,0,0,0,2.06-2.06v-4.413a2.061,2.061,0,0,0-2.06-2.06Zm0,17.067H57.179a2.059,2.059,0,0,0-.756.145,2.06,2.06,0,0,1,1.305,1.916v4.413a2.059,2.059,0,0,1-1.305,1.915,2.05,2.05,0,0,0,.756.145h4.413a2.061,2.061,0,0,0,2.06-2.06V206.86a2.061,2.061,0,0,0-2.06-2.06Zm0,17.067H57.179a2.055,2.055,0,0,0-.756.145,2.06,2.06,0,0,1,1.305,1.915v4.413a2.06,2.06,0,0,1-1.305,1.915,2.05,2.05,0,0,0,.756.145h4.413a2.061,2.061,0,0,0,2.06-2.06v-4.413a2.061,2.061,0,0,0-2.06-2.061ZM78.658,204.8H74.245a2.059,2.059,0,0,0-.756.145,2.059,2.059,0,0,1,1.3,1.916v4.413a2.06,2.06,0,0,1-1.3,1.915,2.049,2.049,0,0,0,.756.145h4.413a2.061,2.061,0,0,0,2.061-2.06V206.86A2.061,2.061,0,0,0,78.658,204.8Zm0,17.067H74.245a2.055,2.055,0,0,0-.756.145,2.059,2.059,0,0,1,1.3,1.915v4.413a2.06,2.06,0,0,1-1.3,1.915,2.049,2.049,0,0,0,.756.145h4.413a2.061,2.061,0,0,0,2.061-2.06v-4.413a2.06,2.06,0,0,0-2.061-2.061ZM95.724,204.8H91.312a2.058,2.058,0,0,0-.756.145,2.06,2.06,0,0,1,1.3,1.916v4.413a2.059,2.059,0,0,1-1.3,1.915,2.049,2.049,0,0,0,.756.145h4.413a2.061,2.061,0,0,0,2.061-2.06V206.86a2.061,2.061,0,0,0-2.06-2.06Zm19.127,8.533V206.86a2.06,2.06,0,0,0-2.061-2.06h-4.412a2.059,2.059,0,0,0-.756.145,2.06,2.06,0,0,1,1.3,1.916v4.413a2.059,2.059,0,0,1-1.3,1.915,2.05,2.05,0,0,0,.756.145h6.473Zm-19.127,8.534H91.312a2.055,2.055,0,0,0-.756.145,2.059,2.059,0,0,1,1.3,1.915v4.413a2.06,2.06,0,0,1-1.3,1.915,2.049,2.049,0,0,0,.756.145h4.413a2.061,2.061,0,0,0,2.061-2.06v-4.413A2.061,2.061,0,0,0,95.724,221.867Z" transform="translate(-46.582 -140.8)" fill="#2a428c"/>
      <path id="Path_4817" data-name="Path 4817" d="M437.114,143.721v62.2h5.928V146.191Z" transform="translate(-332.1 -107.791)" fill="#d3dcfb"/>
      <path id="Path_4818" data-name="Path 4818" d="M128,64V42.667a8.533,8.533,0,0,0-8.533-8.533H25.592a8.533,8.533,0,0,0-8.533,8.533V64Z" transform="translate(-17.059 -25.6)" fill="#ff4155"/>
      <path id="Path_4819" data-name="Path 4819" d="M102.152,64.4H96.6a1.932,1.932,0,1,1,0-3.863h5.554a1.932,1.932,0,1,1,0,3.863Zm13.646,0h-5.554a1.932,1.932,0,1,1,0-3.863H115.8a1.932,1.932,0,0,1,0,3.863Zm35.424,0h-5.555a1.932,1.932,0,1,1,0-3.863h5.555a1.932,1.932,0,0,1,0,3.863Zm13.646,0h-5.554a1.932,1.932,0,1,1,0-3.863h5.554a1.932,1.932,0,1,1,0,3.863Z" transform="translate(-75.264 -45.406)" fill="#e80054"/>
      <path id="Path_4820" data-name="Path 4820" d="M130.126,16a5.333,5.333,0,0,1-10.667,0V5.333a5.333,5.333,0,1,1,10.666,0V16Zm49.07,0a5.333,5.333,0,0,1-10.667,0V5.333a5.333,5.333,0,0,1,10.667,0V16Z" transform="translate(-93.859)" fill="#ebf5fc"/>
      <path id="Path_4821" data-name="Path 4821" d="M180.984,0a5.308,5.308,0,0,0-2.959.9A5.327,5.327,0,0,1,180.4,5.334V16a5.327,5.327,0,0,1-2.375,4.437A5.332,5.332,0,0,0,186.317,16V5.333A5.333,5.333,0,0,0,180.984,0Zm-49.07,0a5.307,5.307,0,0,0-2.959.9,5.327,5.327,0,0,1,2.375,4.437V16a5.327,5.327,0,0,1-2.375,4.437A5.332,5.332,0,0,0,137.247,16V5.333A5.333,5.333,0,0,0,131.914,0Z" transform="translate(-100.981)" fill="#d3dcfb"/>
      <path id="Path_4822" data-name="Path 4822" d="M408.916,34.133H402.99a8.533,8.533,0,0,1,8.533,8.533V64h5.926V42.666A8.533,8.533,0,0,0,408.916,34.133Z" transform="translate(-306.507 -25.6)" fill="#e80054"/>
      <path id="Path_4823" data-name="Path 4823" d="M17.058,111.74H128V115.6H17.058Z" transform="translate(-17.058 -83.805)" fill="#e80054"/>
      <circle id="Ellipse_149" data-name="Ellipse 149" cx="32" cy="32" r="32" transform="translate(55.471 64)" fill="#4fabf7"/>
      <circle id="Ellipse_150" data-name="Ellipse 150" cx="23.467" cy="23.467" r="23.467" transform="translate(64.004 72.533)" fill="#ebf5fc"/>
      <path id="Path_4824" data-name="Path 4824" d="M361.148,331.07a1.932,1.932,0,0,1-1.932-1.932V318.471a1.932,1.932,0,0,1,3.863,0v10.667A1.932,1.932,0,0,1,361.148,331.07Zm10.667,4.267h-6.4a1.931,1.931,0,1,1,0-3.863h6.4a1.931,1.931,0,1,1,0,3.863Z" transform="translate(-273.676 -237.405)" fill="#3c58a0"/>
      <path id="Path_4825" data-name="Path 4825" d="M358.056,256c-1,0-1.986.048-2.962.138a32,32,0,0,1,0,63.725c.976.09,1.963.138,2.962.138a32,32,0,0,0,0-64Z" transform="translate(-270.585 -192)" fill="#1886ea"/>
      <path id="Path_4826" data-name="Path 4826" d="M358.063,290.133a23.672,23.672,0,0,0-2.96.185,23.469,23.469,0,0,1,0,46.563,23.468,23.468,0,1,0,2.96-46.748Z" transform="translate(-270.592 -217.6)" fill="#d3dcfb"/>
      <circle id="Ellipse_151" data-name="Ellipse 151" cx="4.267" cy="4.267" r="4.267" transform="translate(83.204 91.733)" fill="#ffdd40"/>
    </g>
  </g>
</svg>
