<svg xmlns="http://www.w3.org/2000/svg" xmlns:xlink="http://www.w3.org/1999/xlink" width="127" height="127" viewBox="0 0 127 127">
  <defs>
    <clipPath id="clip-path">
      <rect id="Rectangle_5500" data-name="Rectangle 5500" width="127" height="127" transform="translate(242 319)" fill="#fff" stroke="#707070" stroke-width="1"/>
    </clipPath>
  </defs>
  <g id="ic-macronutrients" transform="translate(-242 -319)" clip-path="url(#clip-path)">
    <g id="Group_10089" data-name="Group 10089" transform="translate(242.001 334.875)">
      <path id="Path_4827" data-name="Path 4827" d="M153.3,109.64c0,4.111-6.6,10.085-7.578,13.891A47.637,47.637,0,0,1,52.667,119.8C52.208,117.141,48,106.473,48,103.687c0-8.642,6.271-8.81,10.3-15.8a47.639,47.639,0,0,1,81.418-1.938C144.464,93.36,153.3,100.186,153.3,109.64Z" transform="translate(-36.094 -64)" fill="#dcf5f8"/>
      <path id="Path_4828" data-name="Path 4828" d="M243.969,112,240,151.687l39.687-3.969A35.719,35.719,0,0,0,243.969,112Z" transform="translate(-180.469 -100.094)" fill="#ffc344"/>
      <path id="Path_4829" data-name="Path 4829" d="M147.719,112a35.718,35.718,0,0,0-25.257,60.975l17.319-9.382,7.937-15.875Z" transform="translate(-84.219 -100.094)" fill="#e94444"/>
      <path id="Path_4830" data-name="Path 4830" d="M105.742,80a2.555,2.555,0,0,0-2.555,2.555v20.251a8.928,8.928,0,0,0,3.644,7.2,9.057,9.057,0,0,1,3.566,7.956l-2.948,41.271a3.833,3.833,0,0,0,3.823,4.106h7.642a3.833,3.833,0,0,0,3.823-4.106l-2.948-41.271a9.056,9.056,0,0,1,3.566-7.956,8.928,8.928,0,0,0,3.644-7.2V82.555A2.555,2.555,0,0,0,124.444,80h-3.522l-1.86,7.937L117.2,80h-4.217l-1.86,7.937L109.264,80ZM11.906,80A11.906,11.906,0,0,0,0,91.906v7.937A11.867,11.867,0,0,0,3.632,108.4a11.665,11.665,0,0,1,3.6,9.206L4.262,159.237a3.833,3.833,0,0,0,3.823,4.106h7.642a3.833,3.833,0,0,0,3.823-4.106l-2.973-41.629a11.665,11.665,0,0,1,3.6-9.206,11.867,11.867,0,0,0,3.632-8.559V91.906A11.906,11.906,0,0,0,11.906,80Z" transform="translate(0 -76.031)" fill="#b4d2e2"/>
      <path id="Path_4831" data-name="Path 4831" d="M154.177,281.257A35.718,35.718,0,0,0,215.152,256H179.434Z" transform="translate(-115.934 -208.375)" fill="#80d261"/>
      <path id="Path_4832" data-name="Path 4832" d="M284.517,146.455q0,1.1-.065,2.179l9.009-.9a35.719,35.719,0,0,0-35.144-35.714A35.734,35.734,0,0,1,284.517,146.455Z" transform="translate(-194.243 -100.108)" fill="#feb237"/>
      <path id="Path_4833" data-name="Path 4833" d="M253.9,256a35.719,35.719,0,0,1-35.7,34.441q-.288,0-.575,0A35.748,35.748,0,0,0,262.863,256Z" transform="translate(-163.645 -208.375)" fill="#68ca44"/>
      <g id="Group_10087" data-name="Group 10087" transform="translate(41.796 21.952)">
        <path id="Path_4834" data-name="Path 4834" d="M206.079,164.406a1.86,1.86,0,0,0-1.86,1.86,2.108,2.108,0,0,1-4.217,0v-7.937a2.108,2.108,0,0,1,4.217,0,1.86,1.86,0,1,0,3.721,0,5.829,5.829,0,0,0-11.658,0v7.938a5.829,5.829,0,0,0,11.658,0A1.86,1.86,0,0,0,206.079,164.406Zm-31.75-3.969H170.36a1.86,1.86,0,0,0-1.86,1.86v15.875a1.86,1.86,0,1,0,3.721,0V172.1h2.108a5.829,5.829,0,1,0,0-11.658Zm0,7.937h-2.108v-4.217h2.108a2.108,2.108,0,1,1,0,4.217Zm31.75,15.875h-7.937a1.86,1.86,0,0,0-1.86,1.86v15.875a1.86,1.86,0,1,0,3.721,0v-6.077h2.108a1.86,1.86,0,0,0,0-3.721H200V187.97h6.077a1.86,1.86,0,0,0,0-3.721Z" transform="translate(-168.5 -152.5)" fill="#dcf5f8"/>
      </g>
      <g id="Group_10088" data-name="Group 10088" transform="translate(109.264 3.969)">
        <path id="Path_4835" data-name="Path 4835" d="M448.438,99.844a1.86,1.86,0,0,0,3.721,0V80h-3.721Zm-4.217,0V80H440.5V99.844a1.86,1.86,0,0,0,3.721,0Z" transform="translate(-440.5 -80)" fill="#8abbd5"/>
      </g>
    </g>
  </g>
</svg>
