<svg id="ic-table" xmlns="http://www.w3.org/2000/svg" width="14.966" height="13.719" viewBox="0 0 14.966 13.719">
  <path id="Path_4841" data-name="Path 4841" d="M13.1,0H1.871A1.873,1.873,0,0,0,0,1.871v9.977a1.873,1.873,0,0,0,1.871,1.871H13.1a1.873,1.873,0,0,0,1.871-1.871V1.871A1.873,1.873,0,0,0,13.1,0Zm0,0" fill="#cfd8dc"/>
  <path id="Path_4842" data-name="Path 4842" d="M1.871,0H13.1a1.871,1.871,0,0,1,1.871,1.871V4.053H0V1.871A1.871,1.871,0,0,1,1.871,0Zm0,0" fill="#0779be"/>
  <g id="Group_10100" data-name="Group 10100" transform="translate(1.247 5.3)">
    <path id="Path_4843" data-name="Path 4843" d="M49.527,181.332H51.71v1.559H49.527Zm-3.43,0H48.28v1.559H46.1Zm-3.43,0H44.85v1.559H42.668Zm0,2.806H44.85V185.7H42.668Zm3.43,0H48.28V185.7H46.1Zm0,2.806H48.28V188.5H46.1Zm3.43,0H51.71V188.5H49.527Zm0-2.806H51.71V185.7H49.527Zm3.43,0H55.14V185.7H52.957Zm0-2.806H55.14v1.559H52.957ZM42.668,187.88v-.935H44.85V188.5H43.292A.625.625,0,0,1,42.668,187.88Zm11.848.624H52.957v-1.559H55.14v.935A.625.625,0,0,1,54.516,188.5Zm0,0" transform="translate(-42.668 -181.332)" fill="#fff"/>
  </g>
</svg>
