<svg id="Layer_x0020_1" xmlns="http://www.w3.org/2000/svg" width="391" height="391" viewBox="0 0 391 391">
  <rect id="Rectangle_7" data-name="Rectangle 7" width="194" height="194" transform="translate(196)" fill="#ccc"/>
  <path id="Path_1" data-name="Path 1" d="M195,195l112-78c16,23,24,50,24,78Z" fill="#32a0e2" fill-rule="evenodd" opacity="0.3"/>
  <g id="Group_21" data-name="Group 21">
    <path id="Path_2" data-name="Path 2" d="M196,0l8,17H187Zm-1,391V16h1V391Z"/>
  </g>
  <line id="Line_9" data-name="Line 9" y1="118" x2="165" transform="translate(195 77)" fill="none" stroke="#000" stroke-width="1.562"/>
  <g id="Group_38" data-name="Group 38">
    <path id="Path_3" data-name="Path 3" d="M312,125a135.085,135.085,0,0,1,20,70" fill="none" stroke="#32a0e2" stroke-width="3.905" fill-rule="evenodd"/>
    <g id="Group_22" data-name="Group 22">
      <path id="Path_4" data-name="Path 4" d="M315,129l3,4-2,1-2-4Zm-9-13,16,10-14,9Z" fill="#32a0e2"/>
    </g>
  </g>
  <g id="Group_45" data-name="Group 45">
    <path id="Path_5" data-name="Path 5" d="M326,114c15,24,22,52,22,80" fill="none" stroke="#004e7d" stroke-width="3.905" fill-rule="evenodd"/>
    <g id="Group_23" data-name="Group 23">
      <path id="Path_6" data-name="Path 6" d="M330,119l2,5-1,1-3-5Zm-10-13,17,10-15,9Z" fill="#004e7d"/>
    </g>
  </g>
  <text id="I" transform="translate(236 78)" font-size="66.12" font-family="ArialMT, Arial"><tspan x="0" y="0">I</tspan></text>
  <text id="angle" transform="translate(283 49)" fill="#004e7d" font-size="30.3" font-family="ArialMT, Arial"><tspan x="0" y="0">angle</tspan></text>
  <text id="reference" transform="translate(234 244)" fill="#32a0e2" font-size="30.3" font-family="ArialMT, Arial"><tspan x="0" y="0">reference</tspan></text>
  <text id="angle-2" data-name="angle" transform="translate(261 277)" fill="#32a0e2" font-size="30.3" font-family="ArialMT, Arial"><tspan x="0" y="0">angle</tspan></text>
  <g id="Group_24" data-name="Group 24">
    <path id="Path_7" data-name="Path 7" d="M374,196H0v-2H374Zm17-1-17,8V186Z"/>
  </g>
</svg>
