<?xml version="1.0" encoding="utf-8"?>
<!-- Generator: Adobe Illustrator 25.0.1, SVG Export Plug-In . SVG Version: 6.00 Build 0)  -->
<svg version="1.1" id="Layer_1" xmlns="http://www.w3.org/2000/svg" xmlns:xlink="http://www.w3.org/1999/xlink" x="0px" y="0px"
	 viewBox="0 0 100.6 100.6" style="enable-background:new 0 0 100.6 100.6;" xml:space="preserve">
<style type="text/css">
	.st0{fill-rule:evenodd;clip-rule:evenodd;fill:#FFF9F2;fill-opacity:0.7804;}
	.st1{fill:none;stroke:#1E5B80;stroke-width:1.4175;stroke-miterlimit:10;}
	.st2{font-family:'MyriadPro-Regular';}
	.st3{font-size:24.0034px;}
	.st4{fill:none;stroke:#000000;stroke-width:2.835;stroke-miterlimit:10;}
</style>
<g id="Layer_x0020_1">
	<g>
		<path class="st0" d="M50.3,0.7c27.4,0,49.6,22.2,49.6,49.6S77.7,99.9,50.3,99.9S0.7,77.7,0.7,50.3S22.9,0.7,50.3,0.7z M50.3,29.1
			c11.7,0,21.2,9.5,21.2,21.2S62,71.5,50.3,71.5S29.1,62,29.1,50.3S38.6,29.1,50.3,29.1z"/>
		<path id="_x31_" class="st1" d="M50.3,0.7c27.4,0,49.6,22.2,49.6,49.6S77.7,99.9,50.3,99.9S0.7,77.7,0.7,50.3S22.9,0.7,50.3,0.7z
			 M50.3,29.1c11.7,0,21.2,9.5,21.2,21.2S62,71.5,50.3,71.5S29.1,62,29.1,50.3S38.6,29.1,50.3,29.1z"/>
	</g>
	<text transform="matrix(1 0 0 1 37.3623 48.3223)" class="st2 st3">r</text>
	<text transform="matrix(1 0 0 1 74.2266 43.0918)" class="st2 st3">R</text>
	<polyline class="st4" points="29.1,52.8 50.3,50.8 81.7,12.2 	"/>
</g>
</svg>
