
<svg width="324" height="246" viewBox="0 0 324 246" fill="none" xmlns="http://www.w3.org/2000/svg">
<g opacity="0.2">
<path d="M72.6653 62.1057C68.6101 60.1984 61.9034 63.2995 59.7644 67.8371C55.6821 76.4988 68.8851 89.0433 73.686 87.697C79.0515 86.1923 80.1104 65.6071 72.6645 62.1057H72.6653Z" stroke="#30804D" stroke-width="2" stroke-miterlimit="10" stroke-linecap="round" stroke-dasharray="4 4"/>
<path d="M52.3808 81.7244C50.9332 80.8869 35.6029 72.0192 26.9266 79.0376C20.8343 83.9653 20.7764 94.4998 25.3544 100.42C34.4216 112.145 62.5376 106.888 65.4547 98.4978C67.4192 92.8477 58.1958 85.088 52.3808 81.7244Z" stroke="#30804D" stroke-width="2" stroke-miterlimit="10" stroke-linecap="round" stroke-dasharray="4 4"/>
<path d="M72.1079 226.515C109.425 217.253 151.826 207.823 217.667 209.429C254.49 210.328 262.834 198.901 290.741 184.693C315.615 172.031 327.832 146.851 320.329 132.58C312.754 118.173 289.681 123.909 270.786 102.463C262.181 92.6952 263.695 85.8491 258.727 75.0176C242.994 40.7206 184.027 13.9135 154.95 28.1006C116.535 46.8429 149.376 127.826 106.435 149.948C79.273 163.942 58.7429 137.078 31.9233 157.585C18.6345 167.747 2.38171 182 1.12484 197.477C1.12484 197.477 -0.635072 235.315 72.1079 226.515Z" stroke="#30804D" stroke-width="2" stroke-miterlimit="10" stroke-linecap="round" stroke-dasharray="4 4"/>
<path d="M278.279 184.373C278.279 184.373 271.519 193.335 264.758 205.632C258.663 216.721 254.028 231.662 253.004 244.137C250.133 244.001 246.98 243.874 243.571 243.753C223.38 243.036 194.232 242.588 161.821 242.588C124.974 242.588 92.3447 243.168 72.3001 244.062C71.61 244.092 70.9347 244.123 70.2747 244.155C45.2495 213.137 -5.14337 159.098 41.2318 136.868C41.2318 136.868 44.6291 135.833 49.7226 133.61C65.8434 126.574 98.9708 107.641 95.286 71.9437C95.286 71.9437 94.0306 65.2824 94.0306 56.0135C94.0306 34.3402 100.892 -1.58542 146.7 0.0542268C174.439 1.04858 199.987 15.1645 215.432 37.7589C230.582 59.9198 254.806 87.186 274.533 71.6196C279.087 68.0249 285.108 66.6933 290.729 68.2735C304.929 72.2619 321.06 92.9094 278.279 184.373Z" fill="#A2E0B7"/>
</g>
<path d="M271.472 150.967H266.008V147.866H271.472V142.344H274.564V147.866H280.028V150.967H274.564V156.419H271.472V150.967Z" fill="#A2E0B7" fill-opacity="0.27"/>
<path d="M75.0367 136.687L70.576 141.147L68.052 138.623L72.5127 134.163L68.0176 129.667L70.5416 127.143L75.0367 131.639L79.4973 127.178L82.0213 129.702L77.5607 134.163L81.9979 138.6L79.4739 141.124L75.0367 136.687Z" fill="#A2E0B7" fill-opacity="0.27"/>
<path d="M181.6 44.0439L180.12 40.8672L192.81 34.9539L194.291 38.1306L181.6 44.0439Z" fill="#A2E0B7" fill-opacity="0.27"/>
<path d="M183.237 35.8068C182.961 35.2157 182.911 34.6951 183.087 34.2456C183.263 33.7953 183.653 33.4294 184.258 33.1478C184.842 32.8758 185.366 32.8201 185.83 32.9799C186.295 33.1405 186.661 33.5094 186.93 34.0857C187.189 34.6416 187.232 35.1549 187.057 35.6257C186.883 36.0964 186.507 36.4667 185.93 36.7351C185.339 37.0108 184.809 37.0673 184.34 36.9045C183.87 36.7425 183.503 36.3765 183.237 35.806V35.8068Z" fill="#A2E0B7" fill-opacity="0.27"/>
<path d="M187.479 44.9121C187.204 44.3211 187.154 43.8004 187.33 43.3509C187.506 42.9007 187.896 42.5348 188.501 42.2532C189.085 41.9811 189.609 41.9254 190.073 42.0853C190.537 42.2459 190.904 42.6147 191.173 43.1911C191.432 43.7469 191.474 44.2602 191.3 44.731C191.125 45.2018 190.75 45.5721 190.173 45.8405C189.582 46.1162 189.052 46.1727 188.582 46.0099C188.113 45.8478 187.746 45.4819 187.479 44.9114V44.9121Z" fill="#A2E0B7" fill-opacity="0.27"/>
<path d="M32.7959 176.547L33.2285 173.069L47.1216 174.797L46.6889 178.275L32.7959 176.547Z" fill="#A2E0B7" fill-opacity="0.27"/>
<path d="M38.5572 170.436C38.6378 169.79 38.8718 169.322 39.2597 169.033C39.6476 168.745 40.1726 168.643 40.8348 168.725C41.4742 168.804 41.9479 169.036 42.2559 169.418C42.5639 169.801 42.679 170.307 42.6006 170.939C42.525 171.547 42.2882 172.005 41.89 172.311C41.4918 172.617 40.9771 172.731 40.3457 172.652C39.6989 172.572 39.2193 172.338 38.9077 171.951C38.596 171.565 38.4787 171.059 38.5564 170.436L38.5572 170.436Z" fill="#A2E0B7" fill-opacity="0.27"/>
<path d="M37.3169 180.405C37.3976 179.758 37.6315 179.29 38.0194 179.002C38.4074 178.714 38.9324 178.611 39.5946 178.693C40.234 178.772 40.7077 179.004 41.0157 179.386C41.3237 179.769 41.4388 180.276 41.3603 180.907C41.2848 181.516 41.048 181.973 40.6498 182.279C40.2516 182.585 39.7368 182.699 39.1055 182.621C38.4587 182.54 37.9791 182.306 37.6675 181.92C37.3558 181.533 37.2385 181.027 37.3162 180.404L37.3169 180.405Z" fill="#A2E0B7" fill-opacity="0.27"/>
<path d="M263.386 94.912H249.323V98.4817H263.386V94.912Z" fill="#A2E0B7" fill-opacity="0.27"/>
<path d="M116.559 31.5566V27.9869H130.578V31.5566H116.559ZM116.559 37.8644V34.2948H130.578V37.8644H116.559Z" fill="#A2E0B7" fill-opacity="0.27"/>
<path d="M219.949 221.382V87.8121C219.949 82.1423 215.353 77.546 209.683 77.546H113.959C108.289 77.546 103.692 82.1423 103.692 87.8121L103.692 221.382C103.692 227.052 108.289 231.648 113.959 231.648H209.683C215.353 231.648 219.949 227.052 219.949 221.382Z" fill="#30804D"/>
<path d="M219.406 221.549V87.6457C219.406 82.3809 215.138 78.1129 209.873 78.1129H113.769C108.504 78.1129 104.236 82.3809 104.236 87.6457L104.236 221.549C104.236 226.813 108.504 231.081 113.769 231.081H209.873C215.138 231.081 219.406 226.813 219.406 221.549Z" fill="#A2E0B7"/>
<path d="M218.318 221.881V87.3128C218.318 82.8579 214.706 79.2465 210.252 79.2465H113.39C108.935 79.2465 105.323 82.8579 105.323 87.3128L105.323 221.881C105.323 226.336 108.935 229.947 113.39 229.947H210.252C214.706 229.947 218.318 226.336 218.318 221.881Z" fill="#30804D"/>
<path d="M210.44 79.8133H113.2C109.15 79.8133 105.867 83.0964 105.867 87.1463V222.047C105.867 226.097 109.15 229.38 113.2 229.38H210.44C214.49 229.38 217.773 226.097 217.773 222.047V87.1463C217.773 83.0964 214.49 79.8133 210.44 79.8133Z" fill="#30804D"/>
<g opacity="0.2">
<path d="M128.551 164.672H118.529C117.314 164.672 116.329 165.657 116.329 166.872V174.332C116.329 175.547 117.314 176.532 118.529 176.532H128.551C129.766 176.532 130.751 175.547 130.751 174.332V166.872C130.751 165.657 129.766 164.672 128.551 164.672Z" fill="black"/>
<path d="M128.551 179.94H118.529C117.314 179.94 116.329 180.925 116.329 182.14V189.6C116.329 190.814 117.314 191.799 118.529 191.799H128.551C129.766 191.799 130.751 190.814 130.751 189.6V182.14C130.751 180.925 129.766 179.94 128.551 179.94Z" fill="black"/>
<path d="M128.551 195.207H118.529C117.314 195.207 116.329 196.192 116.329 197.407V204.867C116.329 206.082 117.314 207.067 118.529 207.067H128.551C129.766 207.067 130.751 206.082 130.751 204.867V197.407C130.751 196.192 129.766 195.207 128.551 195.207Z" fill="black"/>
<path d="M128.551 210.473H118.529C117.314 210.473 116.329 211.458 116.329 212.673V220.133C116.329 221.348 117.314 222.333 118.529 222.333H128.551C129.766 222.333 130.751 221.348 130.751 220.133V212.673C130.751 211.458 129.766 210.473 128.551 210.473Z" fill="black"/>
<path d="M128.551 149.393H118.529C117.314 149.393 116.329 150.378 116.329 151.593V159.052C116.329 160.267 117.314 161.252 118.529 161.252H128.551C129.766 161.252 130.751 160.267 130.751 159.052V151.593C130.751 150.378 129.766 149.393 128.551 149.393Z" fill="black"/>
<path d="M147.692 164.672H137.67C136.455 164.672 135.47 165.657 135.47 166.872V174.332C135.47 175.547 136.455 176.532 137.67 176.532H147.692C148.907 176.532 149.891 175.547 149.891 174.332V166.872C149.891 165.657 148.907 164.672 147.692 164.672Z" fill="black"/>
<path d="M147.692 179.94H137.67C136.455 179.94 135.47 180.925 135.47 182.14V189.6C135.47 190.814 136.455 191.799 137.67 191.799H147.692C148.907 191.799 149.891 190.814 149.891 189.6V182.14C149.891 180.925 148.907 179.94 147.692 179.94Z" fill="black"/>
<path d="M147.692 195.207H137.67C136.455 195.207 135.47 196.192 135.47 197.407V204.867C135.47 206.082 136.455 207.067 137.67 207.067H147.692C148.907 207.067 149.891 206.082 149.891 204.867V197.407C149.891 196.192 148.907 195.207 147.692 195.207Z" fill="black"/>
<path d="M147.692 210.473H137.67C136.455 210.473 135.47 211.458 135.47 212.673V220.133C135.47 221.348 136.455 222.333 137.67 222.333H147.692C148.907 222.333 149.891 221.348 149.891 220.133V212.673C149.891 211.458 148.907 210.473 147.692 210.473Z" fill="black"/>
<path d="M147.692 149.393H137.67C136.455 149.393 135.47 150.378 135.47 151.593V159.052C135.47 160.267 136.455 161.252 137.67 161.252H147.692C148.907 161.252 149.891 160.267 149.891 159.052V151.593C149.891 150.378 148.907 149.393 147.692 149.393Z" fill="black"/>
<path d="M166.832 164.672H156.81C155.595 164.672 154.61 165.657 154.61 166.872V174.332C154.61 175.547 155.595 176.532 156.81 176.532H166.832C168.047 176.532 169.032 175.547 169.032 174.332V166.872C169.032 165.657 168.047 164.672 166.832 164.672Z" fill="black"/>
<path d="M166.832 179.94H156.81C155.595 179.94 154.61 180.925 154.61 182.14V189.6C154.61 190.814 155.595 191.799 156.81 191.799H166.832C168.047 191.799 169.032 190.814 169.032 189.6V182.14C169.032 180.925 168.047 179.94 166.832 179.94Z" fill="black"/>
<path d="M166.832 195.207H156.81C155.595 195.207 154.61 196.192 154.61 197.407V204.867C154.61 206.082 155.595 207.067 156.81 207.067H166.832C168.047 207.067 169.032 206.082 169.032 204.867V197.407C169.032 196.192 168.047 195.207 166.832 195.207Z" fill="black"/>
<path d="M166.832 210.473H156.81C155.595 210.473 154.61 211.458 154.61 212.673V220.133C154.61 221.348 155.595 222.333 156.81 222.333H166.832C168.047 222.333 169.032 221.348 169.032 220.133V212.673C169.032 211.458 168.047 210.473 166.832 210.473Z" fill="black"/>
<path d="M166.832 149.393H156.81C155.595 149.393 154.61 150.378 154.61 151.593V159.052C154.61 160.267 155.595 161.252 156.81 161.252H166.832C168.047 161.252 169.032 160.267 169.032 159.052V151.593C169.032 150.378 168.047 149.393 166.832 149.393Z" fill="black"/>
<path d="M185.972 164.672H175.95C174.735 164.672 173.75 165.657 173.75 166.872V174.332C173.75 175.547 174.735 176.532 175.95 176.532H185.972C187.187 176.532 188.172 175.547 188.172 174.332V166.872C188.172 165.657 187.187 164.672 185.972 164.672Z" fill="black"/>
<path d="M185.972 179.94H175.95C174.735 179.94 173.75 180.925 173.75 182.14V189.6C173.75 190.814 174.735 191.799 175.95 191.799H185.972C187.187 191.799 188.172 190.814 188.172 189.6V182.14C188.172 180.925 187.187 179.94 185.972 179.94Z" fill="black"/>
<path d="M185.972 195.207H175.95C174.735 195.207 173.75 196.192 173.75 197.407V204.867C173.75 206.082 174.735 207.067 175.95 207.067H185.972C187.187 207.067 188.172 206.082 188.172 204.867V197.407C188.172 196.192 187.187 195.207 185.972 195.207Z" fill="black"/>
<path d="M185.972 210.473H175.95C174.735 210.473 173.75 211.458 173.75 212.673V220.133C173.75 221.348 174.735 222.333 175.95 222.333H185.972C187.187 222.333 188.172 221.348 188.172 220.133V212.673C188.172 211.458 187.187 210.473 185.972 210.473Z" fill="black"/>
<path d="M185.972 149.393H175.95C174.735 149.393 173.75 150.378 173.75 151.593V159.052C173.75 160.267 174.735 161.252 175.95 161.252H185.972C187.187 161.252 188.172 160.267 188.172 159.052V151.593C188.172 150.378 187.187 149.393 185.972 149.393Z" fill="black"/>
<path d="M205.112 164.672H195.091C193.876 164.672 192.891 165.657 192.891 166.872V174.332C192.891 175.547 193.876 176.532 195.091 176.532H205.112C206.327 176.532 207.312 175.547 207.312 174.332V166.872C207.312 165.657 206.327 164.672 205.112 164.672Z" fill="black"/>
<path d="M205.112 179.94H195.091C193.876 179.94 192.891 180.925 192.891 182.14V189.6C192.891 190.814 193.876 191.799 195.091 191.799H205.112C206.327 191.799 207.312 190.814 207.312 189.6V182.14C207.312 180.925 206.327 179.94 205.112 179.94Z" fill="black"/>
<path d="M205.682 195.207H194.522C193.621 195.207 192.891 195.937 192.891 196.839V220.703C192.891 221.604 193.621 222.335 194.522 222.335H205.682C206.583 222.335 207.313 221.604 207.313 220.703V196.839C207.313 195.937 206.583 195.207 205.682 195.207Z" fill="black"/>
<path d="M205.112 149.393H195.091C193.876 149.393 192.891 150.378 192.891 151.593V159.052C192.891 160.267 193.876 161.252 195.091 161.252H205.112C206.327 161.252 207.312 160.267 207.312 159.052V151.593C207.312 150.378 206.327 149.393 205.112 149.393Z" fill="black"/>
<path d="M185.972 134.113H175.95C174.735 134.113 173.75 135.098 173.75 136.313V143.773C173.75 144.988 174.735 145.973 175.95 145.973H185.972C187.187 145.973 188.172 144.988 188.172 143.773V136.313C188.172 135.098 187.187 134.113 185.972 134.113Z" fill="black"/>
<path d="M205.112 134.113H195.091C193.876 134.113 192.891 135.098 192.891 136.313V143.773C192.891 144.988 193.876 145.973 195.091 145.973H205.112C206.327 145.973 207.312 144.988 207.312 143.773V136.313C207.312 135.098 206.327 134.113 205.112 134.113Z" fill="black"/>
</g>
<path d="M128.551 164.672H118.529C117.314 164.672 116.329 165.657 116.329 166.872V174.332C116.329 175.547 117.314 176.532 118.529 176.532H128.551C129.766 176.532 130.751 175.547 130.751 174.332V166.872C130.751 165.657 129.766 164.672 128.551 164.672Z" fill="#F1FFF6"/>
<path d="M128.551 179.94H118.529C117.314 179.94 116.329 180.925 116.329 182.14V189.6C116.329 190.814 117.314 191.799 118.529 191.799H128.551C129.766 191.799 130.751 190.814 130.751 189.6V182.14C130.751 180.925 129.766 179.94 128.551 179.94Z" fill="#F1FFF6"/>
<path d="M128.551 195.207H118.529C117.314 195.207 116.329 196.192 116.329 197.407V204.867C116.329 206.082 117.314 207.067 118.529 207.067H128.551C129.766 207.067 130.751 206.082 130.751 204.867V197.407C130.751 196.192 129.766 195.207 128.551 195.207Z" fill="#F1FFF6"/>
<path d="M128.551 210.473H118.529C117.314 210.473 116.329 211.458 116.329 212.673V220.133C116.329 221.348 117.314 222.333 118.529 222.333H128.551C129.766 222.333 130.751 221.348 130.751 220.133V212.673C130.751 211.458 129.766 210.473 128.551 210.473Z" fill="#F1FFF6"/>
<path d="M128.551 149.393H118.529C117.314 149.393 116.329 150.378 116.329 151.593V159.052C116.329 160.267 117.314 161.252 118.529 161.252H128.551C129.766 161.252 130.751 160.267 130.751 159.052V151.593C130.751 150.378 129.766 149.393 128.551 149.393Z" fill="#F1FFF6"/>
<path d="M147.692 164.672H137.67C136.455 164.672 135.47 165.657 135.47 166.872V174.332C135.47 175.547 136.455 176.532 137.67 176.532H147.692C148.907 176.532 149.891 175.547 149.891 174.332V166.872C149.891 165.657 148.907 164.672 147.692 164.672Z" fill="#F1FFF6"/>
<path d="M147.692 179.94H137.67C136.455 179.94 135.47 180.925 135.47 182.14V189.6C135.47 190.814 136.455 191.799 137.67 191.799H147.692C148.907 191.799 149.891 190.814 149.891 189.6V182.14C149.891 180.925 148.907 179.94 147.692 179.94Z" fill="#F1FFF6"/>
<path d="M147.692 195.207H137.67C136.455 195.207 135.47 196.192 135.47 197.407V204.867C135.47 206.082 136.455 207.067 137.67 207.067H147.692C148.907 207.067 149.891 206.082 149.891 204.867V197.407C149.891 196.192 148.907 195.207 147.692 195.207Z" fill="#F1FFF6"/>
<path d="M147.692 210.473H137.67C136.455 210.473 135.47 211.458 135.47 212.673V220.133C135.47 221.348 136.455 222.333 137.67 222.333H147.692C148.907 222.333 149.891 221.348 149.891 220.133V212.673C149.891 211.458 148.907 210.473 147.692 210.473Z" fill="#F1FFF6"/>
<path d="M147.692 149.393H137.67C136.455 149.393 135.47 150.378 135.47 151.593V159.052C135.47 160.267 136.455 161.252 137.67 161.252H147.692C148.907 161.252 149.891 160.267 149.891 159.052V151.593C149.891 150.378 148.907 149.393 147.692 149.393Z" fill="#F1FFF6"/>
<path d="M166.832 164.672H156.81C155.595 164.672 154.61 165.657 154.61 166.872V174.332C154.61 175.547 155.595 176.532 156.81 176.532H166.832C168.047 176.532 169.032 175.547 169.032 174.332V166.872C169.032 165.657 168.047 164.672 166.832 164.672Z" fill="#F1FFF6"/>
<path d="M166.832 179.94H156.81C155.595 179.94 154.61 180.925 154.61 182.14V189.6C154.61 190.814 155.595 191.799 156.81 191.799H166.832C168.047 191.799 169.032 190.814 169.032 189.6V182.14C169.032 180.925 168.047 179.94 166.832 179.94Z" fill="#F1FFF6"/>
<path d="M166.832 195.207H156.81C155.595 195.207 154.61 196.192 154.61 197.407V204.867C154.61 206.082 155.595 207.067 156.81 207.067H166.832C168.047 207.067 169.032 206.082 169.032 204.867V197.407C169.032 196.192 168.047 195.207 166.832 195.207Z" fill="#F1FFF6"/>
<path d="M166.832 210.473H156.81C155.595 210.473 154.61 211.458 154.61 212.673V220.133C154.61 221.348 155.595 222.333 156.81 222.333H166.832C168.047 222.333 169.032 221.348 169.032 220.133V212.673C169.032 211.458 168.047 210.473 166.832 210.473Z" fill="#F1FFF6"/>
<path d="M166.832 149.393H156.81C155.595 149.393 154.61 150.378 154.61 151.593V159.052C154.61 160.267 155.595 161.252 156.81 161.252H166.832C168.047 161.252 169.032 160.267 169.032 159.052V151.593C169.032 150.378 168.047 149.393 166.832 149.393Z" fill="#F1FFF6"/>
<path d="M185.972 164.672H175.95C174.735 164.672 173.75 165.657 173.75 166.872V174.332C173.75 175.547 174.735 176.532 175.95 176.532H185.972C187.187 176.532 188.172 175.547 188.172 174.332V166.872C188.172 165.657 187.187 164.672 185.972 164.672Z" fill="#F1FFF6"/>
<path d="M185.972 179.94H175.95C174.735 179.94 173.75 180.925 173.75 182.14V189.6C173.75 190.814 174.735 191.799 175.95 191.799H185.972C187.187 191.799 188.172 190.814 188.172 189.6V182.14C188.172 180.925 187.187 179.94 185.972 179.94Z" fill="#F1FFF6"/>
<path d="M185.972 195.207H175.95C174.735 195.207 173.75 196.192 173.75 197.407V204.867C173.75 206.082 174.735 207.067 175.95 207.067H185.972C187.187 207.067 188.172 206.082 188.172 204.867V197.407C188.172 196.192 187.187 195.207 185.972 195.207Z" fill="#F1FFF6"/>
<path d="M185.972 210.473H175.95C174.735 210.473 173.75 211.458 173.75 212.673V220.133C173.75 221.348 174.735 222.333 175.95 222.333H185.972C187.187 222.333 188.172 221.348 188.172 220.133V212.673C188.172 211.458 187.187 210.473 185.972 210.473Z" fill="#F1FFF6"/>
<path d="M185.972 149.393H175.95C174.735 149.393 173.75 150.378 173.75 151.593V159.052C173.75 160.267 174.735 161.252 175.95 161.252H185.972C187.187 161.252 188.172 160.267 188.172 159.052V151.593C188.172 150.378 187.187 149.393 185.972 149.393Z" fill="#F1FFF6"/>
<path d="M205.112 164.672H195.091C193.876 164.672 192.891 165.657 192.891 166.872V174.332C192.891 175.547 193.876 176.532 195.091 176.532H205.112C206.327 176.532 207.312 175.547 207.312 174.332V166.872C207.312 165.657 206.327 164.672 205.112 164.672Z" fill="#F1FFF6"/>
<path d="M205.112 179.94H195.091C193.876 179.94 192.891 180.925 192.891 182.14V189.6C192.891 190.814 193.876 191.799 195.091 191.799H205.112C206.327 191.799 207.312 190.814 207.312 189.6V182.14C207.312 180.925 206.327 179.94 205.112 179.94Z" fill="#F1FFF6"/>
<path d="M205.682 195.207H194.522C193.621 195.207 192.891 195.937 192.891 196.839V220.703C192.891 221.604 193.621 222.335 194.522 222.335H205.682C206.583 222.335 207.313 221.604 207.313 220.703V196.839C207.313 195.937 206.583 195.207 205.682 195.207Z" fill="#F1FFF6"/>
<path d="M205.112 149.393H195.091C193.876 149.393 192.891 150.378 192.891 151.593V159.052C192.891 160.267 193.876 161.252 195.091 161.252H205.112C206.327 161.252 207.312 160.267 207.312 159.052V151.593C207.312 150.378 206.327 149.393 205.112 149.393Z" fill="#F1FFF6"/>
<path d="M185.972 134.113H175.95C174.735 134.113 173.75 135.098 173.75 136.313V143.773C173.75 144.988 174.735 145.973 175.95 145.973H185.972C187.187 145.973 188.172 144.988 188.172 143.773V136.313C188.172 135.098 187.187 134.113 185.972 134.113Z" fill="#F1FFF6"/>
<path d="M205.112 134.113H195.091C193.876 134.113 192.891 135.098 192.891 136.313V143.773C192.891 144.988 193.876 145.973 195.091 145.973H205.112C206.327 145.973 207.312 144.988 207.312 143.773V136.313C207.312 135.098 206.327 134.113 205.112 134.113Z" fill="#F6471E"/>
<path d="M143.931 203.66H142.865V200.74L142.875 200.26L142.893 199.736C142.715 199.913 142.592 200.029 142.523 200.084L141.943 200.55L141.429 199.908L143.055 198.614H143.932V203.661L143.931 203.66Z" fill="#30804D"/>
<path d="M179.18 186.244C179.18 185.245 179.391 184.502 179.814 184.014C180.236 183.526 180.868 183.282 181.71 183.282C181.998 183.282 182.223 183.3 182.387 183.334V184.187C182.182 184.141 181.98 184.118 181.78 184.118C181.414 184.118 181.115 184.173 180.884 184.284C180.653 184.395 180.48 184.557 180.365 184.774C180.25 184.99 180.183 185.297 180.161 185.695H180.206C180.434 185.305 180.799 185.109 181.3 185.109C181.751 185.109 182.105 185.25 182.36 185.533C182.615 185.816 182.743 186.207 182.743 186.707C182.743 187.245 182.591 187.672 182.287 187.986C181.984 188.299 181.563 188.456 181.024 188.456C180.651 188.456 180.326 188.37 180.048 188.197C179.771 188.025 179.557 187.773 179.407 187.441C179.256 187.11 179.181 186.711 179.181 186.244H179.18ZM181.002 187.604C181.23 187.604 181.405 187.528 181.527 187.375C181.648 187.221 181.709 187.004 181.709 186.721C181.709 186.474 181.652 186.281 181.538 186.139C181.425 185.998 181.252 185.927 181.022 185.927C180.806 185.927 180.621 185.998 180.469 186.138C180.315 186.278 180.239 186.441 180.239 186.627C180.239 186.901 180.311 187.133 180.455 187.321C180.598 187.51 180.781 187.604 181.002 187.604H181.002Z" fill="#30804D"/>
<path d="M141.464 173.122L143.358 168.981H140.87V168.083H144.491V168.753L142.582 173.122H141.464Z" fill="#30804D"/>
<path d="M161.824 168.012C162.308 168.012 162.697 168.122 162.993 168.341C163.288 168.561 163.436 168.858 163.436 169.23C163.436 169.488 163.365 169.717 163.222 169.919C163.079 170.12 162.85 170.3 162.532 170.459C162.91 170.661 163.18 170.873 163.345 171.093C163.509 171.313 163.592 171.553 163.592 171.816C163.592 172.23 163.43 172.563 163.105 172.815C162.781 173.067 162.353 173.193 161.824 173.193C161.296 173.193 160.838 173.076 160.523 172.841C160.207 172.606 160.05 172.274 160.05 171.844C160.05 171.556 160.126 171.3 160.279 171.077C160.433 170.854 160.678 170.657 161.016 170.487C160.729 170.305 160.521 170.111 160.395 169.904C160.268 169.697 160.205 169.471 160.205 169.224C160.205 168.863 160.355 168.571 160.654 168.347C160.953 168.124 161.343 168.012 161.824 168.012ZM161.038 171.781C161.038 171.979 161.106 172.133 161.244 172.244C161.382 172.355 161.571 172.41 161.81 172.41C162.075 172.41 162.273 172.352 162.404 172.239C162.536 172.125 162.601 171.975 162.601 171.789C162.601 171.635 162.536 171.49 162.406 171.355C162.276 171.22 162.065 171.077 161.772 170.925C161.282 171.151 161.037 171.437 161.037 171.781H161.038ZM161.818 168.792C161.636 168.792 161.489 168.839 161.378 168.932C161.266 169.026 161.211 169.15 161.211 169.307C161.211 169.445 161.255 169.569 161.343 169.678C161.432 169.787 161.593 169.9 161.825 170.015C162.05 169.909 162.208 169.801 162.298 169.691C162.388 169.58 162.433 169.452 162.433 169.308C162.433 169.149 162.376 169.023 162.261 168.932C162.146 168.84 161.998 168.794 161.819 168.794L161.818 168.792Z" fill="#30804D"/>
<path d="M182.742 170.228C182.742 171.222 182.533 171.965 182.114 172.454C181.695 172.944 181.061 173.19 180.212 173.19C179.913 173.19 179.686 173.174 179.532 173.141V172.286C179.726 172.334 179.928 172.358 180.139 172.358C180.495 172.358 180.789 172.306 181.019 172.201C181.249 172.097 181.425 171.932 181.547 171.708C181.669 171.484 181.739 171.175 181.757 170.781H181.716C181.583 170.997 181.429 171.149 181.254 171.236C181.078 171.324 180.86 171.368 180.598 171.368C180.159 171.368 179.812 171.227 179.559 170.945C179.306 170.663 179.179 170.271 179.179 169.769C179.179 169.229 179.332 168.801 179.64 168.487C179.947 168.173 180.365 168.015 180.894 168.015C181.267 168.015 181.593 168.102 181.873 168.278C182.152 168.453 182.367 168.706 182.516 169.039C182.666 169.371 182.741 169.768 182.741 170.228H182.742ZM180.916 168.872C180.696 168.872 180.523 168.948 180.399 169.1C180.275 169.251 180.212 169.47 180.212 169.755C180.212 169.999 180.269 170.192 180.382 170.335C180.495 170.478 180.666 170.549 180.896 170.549C181.112 170.549 181.298 170.478 181.452 170.337C181.606 170.196 181.683 170.033 181.683 169.849C181.683 169.575 181.611 169.344 181.467 169.155C181.323 168.967 181.14 168.872 180.916 168.872V168.872Z" fill="#30804D"/>
<path d="M144.444 216.409C144.444 217.29 144.299 217.942 144.011 218.366C143.722 218.789 143.277 219.001 142.677 219.001C142.076 219.001 141.655 218.783 141.36 218.346C141.064 217.908 140.916 217.263 140.916 216.409C140.916 215.555 141.06 214.862 141.347 214.44C141.635 214.018 142.078 213.806 142.676 213.806C143.274 213.806 143.698 214.027 143.996 214.469C144.294 214.911 144.443 215.558 144.443 216.409H144.444ZM141.976 216.409C141.976 217.028 142.029 217.471 142.136 217.74C142.243 218.008 142.423 218.142 142.677 218.142C142.93 218.142 143.105 218.006 143.215 217.735C143.326 217.463 143.381 217.021 143.381 216.41C143.381 215.798 143.325 215.346 143.213 215.076C143.102 214.805 142.923 214.67 142.677 214.67C142.43 214.67 142.246 214.805 142.138 215.076C142.03 215.346 141.976 215.791 141.976 216.41L141.976 216.409Z" fill="#30804D"/>
<path d="M199.598 209.287H197.817V208.277H199.598V206.477H200.605V208.277H202.386V209.287H200.605V211.063H199.598V209.287Z" fill="#30804D"/>
<path d="M200.107 171.431L198.654 172.884L197.832 172.062L199.285 170.609L197.821 169.144L198.643 168.322L200.107 169.787L201.561 168.333L202.383 169.155L200.929 170.609L202.375 172.054L201.553 172.876L200.107 171.431Z" fill="#30804D"/>
<path d="M160.892 216.404C160.892 216.106 160.972 215.882 161.131 215.729C161.29 215.576 161.522 215.501 161.827 215.501C162.132 215.501 162.348 215.579 162.509 215.735C162.671 215.89 162.75 216.114 162.75 216.404C162.75 216.693 162.669 216.904 162.506 217.065C162.344 217.226 162.117 217.306 161.827 217.306C161.536 217.306 161.299 217.228 161.137 217.07C160.974 216.913 160.892 216.69 160.892 216.404H160.892Z" fill="#30804D"/>
<path d="M197.821 155.894V154.752H202.382V155.894H197.821Z" fill="#30804D"/>
<path d="M199.438 153.687C199.438 153.474 199.495 153.313 199.608 153.205C199.722 153.096 199.888 153.042 200.106 153.042C200.323 153.042 200.478 153.098 200.593 153.209C200.708 153.321 200.766 153.48 200.766 153.687C200.766 153.895 200.708 154.044 200.591 154.159C200.474 154.275 200.313 154.332 200.106 154.332C199.898 154.332 199.729 154.275 199.613 154.163C199.496 154.051 199.438 153.892 199.438 153.687L199.438 153.687Z" fill="#30804D"/>
<path d="M199.438 156.959C199.438 156.747 199.495 156.586 199.608 156.477C199.722 156.369 199.888 156.315 200.106 156.315C200.323 156.315 200.478 156.37 200.593 156.482C200.708 156.593 200.766 156.752 200.766 156.96C200.766 157.167 200.708 157.317 200.591 157.432C200.474 157.547 200.313 157.605 200.106 157.605C199.898 157.605 199.729 157.548 199.613 157.436C199.496 157.324 199.438 157.165 199.438 156.96L199.438 156.959Z" fill="#30804D"/>
<path d="M163.592 203.696H160.064V202.954L161.33 201.674C161.705 201.29 161.951 201.024 162.066 200.875C162.181 200.727 162.264 200.589 162.314 200.463C162.365 200.336 162.39 200.205 162.39 200.069C162.39 199.866 162.335 199.715 162.223 199.616C162.112 199.517 161.963 199.468 161.776 199.468C161.58 199.468 161.39 199.513 161.206 199.603C161.022 199.693 160.83 199.821 160.63 199.986L160.05 199.299C160.298 199.087 160.504 198.937 160.668 198.85C160.831 198.763 161.01 198.695 161.203 198.648C161.397 198.601 161.613 198.577 161.852 198.577C162.168 198.577 162.446 198.634 162.687 198.75C162.929 198.865 163.116 199.026 163.25 199.233C163.383 199.44 163.45 199.677 163.45 199.944C163.45 200.177 163.409 200.394 163.328 200.598C163.246 200.802 163.119 201.011 162.948 201.224C162.776 201.439 162.474 201.744 162.041 202.139L161.392 202.75V202.798H163.591V203.696L163.592 203.696Z" fill="#30804D"/>
<path d="M182.559 199.744C182.559 200.059 182.464 200.327 182.272 200.548C182.082 200.769 181.813 200.921 181.468 201.004V201.024C181.875 201.075 182.184 201.199 182.393 201.395C182.602 201.592 182.707 201.857 182.707 202.191C182.707 202.676 182.531 203.055 182.179 203.325C181.827 203.595 181.324 203.73 180.67 203.73C180.122 203.73 179.637 203.639 179.214 203.457V202.55C179.41 202.649 179.625 202.729 179.859 202.791C180.094 202.853 180.326 202.884 180.557 202.884C180.909 202.884 181.169 202.824 181.337 202.704C181.505 202.585 181.589 202.393 181.589 202.128C181.589 201.891 181.492 201.723 181.299 201.624C181.106 201.525 180.798 201.476 180.375 201.476H179.992V200.658H180.382C180.773 200.658 181.059 200.606 181.24 200.504C181.42 200.402 181.511 200.226 181.511 199.978C181.511 199.596 181.272 199.405 180.793 199.405C180.628 199.405 180.459 199.433 180.287 199.488C180.116 199.543 179.926 199.639 179.716 199.775L179.223 199.039C179.683 198.708 180.232 198.542 180.869 198.542C181.391 198.542 181.804 198.648 182.106 198.86C182.409 199.071 182.56 199.366 182.56 199.743L182.559 199.744Z" fill="#30804D"/>
<path d="M144.582 187.347H143.975V188.393H142.932V187.347H140.779V186.605L142.991 183.347H143.975V186.519H144.582V187.348L144.582 187.347ZM142.932 186.518V185.662C142.932 185.519 142.938 185.313 142.95 185.041C142.962 184.77 142.971 184.612 142.978 184.568H142.95C142.865 184.757 142.762 184.941 142.643 185.121L141.718 186.518H142.933H142.932Z" fill="#30804D"/>
<path d="M161.909 185.134C162.396 185.134 162.785 185.272 163.074 185.545C163.363 185.819 163.507 186.194 163.507 186.67C163.507 187.234 163.333 187.667 162.986 187.971C162.638 188.275 162.141 188.427 161.495 188.427C160.933 188.427 160.48 188.336 160.135 188.154V187.232C160.317 187.329 160.529 187.408 160.77 187.468C161.011 187.529 161.241 187.56 161.457 187.56C162.108 187.56 162.434 187.293 162.434 186.759C162.434 186.226 162.096 185.997 161.422 185.997C161.301 185.997 161.166 186.009 161.018 186.033C160.871 186.057 160.751 186.083 160.659 186.11L160.235 185.882L160.424 183.311H163.162V184.215H161.36L161.267 185.205L161.388 185.181C161.528 185.149 161.702 185.133 161.909 185.133L161.909 185.134Z" fill="#30804D"/>
<path d="M202.393 185.288H197.811V186.451H202.393V185.288Z" fill="#30804D"/>
<path d="M178.678 215.958V214.795H183.245V215.958H178.678ZM178.678 218.013V216.85H183.245V218.013H178.678Z" fill="#30804D"/>
<path d="M122.698 218.929L122.332 217.728H120.492L120.126 218.929H118.974L120.755 213.862H122.063L123.851 218.929H122.698ZM122.077 216.83C121.739 215.742 121.548 215.126 121.506 214.984C121.463 214.841 121.432 214.729 121.414 214.646C121.338 214.94 121.121 215.669 120.761 216.831H122.076L122.077 216.83Z" fill="#30804D"/>
<path d="M126.629 214.7C126.226 214.7 125.915 214.851 125.693 215.154C125.473 215.457 125.362 215.879 125.362 216.419C125.362 217.544 125.784 218.107 126.628 218.107C126.982 218.107 127.411 218.018 127.916 217.842V218.739C127.502 218.912 127.039 218.998 126.529 218.998C125.795 218.998 125.233 218.775 124.844 218.33C124.456 217.885 124.261 217.246 124.261 216.413C124.261 215.888 124.357 215.428 124.548 215.034C124.739 214.639 125.014 214.337 125.371 214.126C125.729 213.916 126.149 213.81 126.63 213.81C127.111 213.81 127.612 213.929 128.107 214.166L127.762 215.035C127.574 214.946 127.384 214.867 127.192 214.801C127.002 214.734 126.814 214.7 126.63 214.7H126.629Z" fill="#30804D"/>
<path d="M122.972 169.589C122.972 170.119 122.869 170.516 122.665 170.782C122.46 171.047 122.16 171.181 121.764 171.181C121.368 171.181 121.09 171.044 120.884 170.771C120.677 170.499 120.573 170.105 120.573 169.589C120.573 168.538 120.969 168.012 121.764 168.012C122.152 168.012 122.451 168.148 122.66 168.421C122.868 168.694 122.972 169.083 122.972 169.589ZM121.443 169.596C121.443 169.889 121.469 170.106 121.521 170.25C121.573 170.394 121.656 170.466 121.771 170.466C121.992 170.466 122.102 170.176 122.102 169.596C122.102 169.016 121.992 168.733 121.771 168.733C121.656 168.733 121.572 168.803 121.521 168.946C121.469 169.087 121.443 169.304 121.443 169.596ZM125.347 168.084L122.548 173.13H121.72L124.519 168.084H125.347ZM126.507 171.605C126.507 172.132 126.405 172.528 126.2 172.794C125.995 173.06 125.695 173.193 125.299 173.193C124.903 173.193 124.626 173.056 124.419 172.784C124.212 172.511 124.108 172.118 124.108 171.605C124.108 170.554 124.505 170.028 125.299 170.028C125.687 170.028 125.986 170.164 126.195 170.437C126.403 170.71 126.507 171.099 126.507 171.605V171.605ZM124.978 171.611C124.978 171.904 125.004 172.121 125.056 172.265C125.108 172.409 125.191 172.481 125.306 172.481C125.527 172.481 125.638 172.191 125.638 171.611C125.638 171.031 125.527 170.748 125.306 170.748C125.191 170.748 125.107 170.818 125.056 170.961C125.004 171.102 124.978 171.319 124.978 171.611Z" fill="#30804D"/>
<path d="M120.533 157.848L119.318 153.889H119.287C119.331 154.694 119.353 155.231 119.353 155.5V157.848H118.396V152.801H119.853L121.047 156.66H121.068L122.334 152.801H123.791V157.848H122.793V155.459C122.793 155.346 122.795 155.217 122.798 155.069C122.802 154.922 122.818 154.531 122.845 153.896H122.815L121.513 157.848H120.533L120.533 157.848Z" fill="#30804D"/>
<path d="M127.205 153.62C126.803 153.62 126.491 153.771 126.27 154.074C126.049 154.376 125.938 154.798 125.938 155.339C125.938 156.463 126.36 157.027 127.204 157.027C127.559 157.027 127.988 156.938 128.492 156.76V157.658C128.078 157.83 127.615 157.917 127.105 157.917C126.371 157.917 125.809 157.694 125.42 157.249C125.032 156.804 124.837 156.164 124.837 155.331C124.837 154.807 124.933 154.347 125.124 153.953C125.315 153.558 125.59 153.255 125.948 153.045C126.305 152.834 126.725 152.729 127.206 152.729C127.687 152.729 128.189 152.847 128.684 153.084L128.338 153.954C128.15 153.865 127.96 153.786 127.768 153.719C127.578 153.653 127.39 153.619 127.206 153.619L127.205 153.62Z" fill="#30804D"/>
<path d="M139.468 157.846L138.253 153.887H138.222C138.266 154.692 138.288 155.23 138.288 155.499V157.846H137.332V152.8H138.788L139.982 156.658H140.003L141.269 152.8H142.726V157.846H141.728V155.458C141.728 155.345 141.73 155.215 141.734 155.068C141.737 154.92 141.753 154.53 141.78 153.895H141.75L140.448 157.847H139.468L139.468 157.846Z" fill="#30804D"/>
<path d="M145.067 155.91V157.846H143.998V152.8H145.468C146.153 152.8 146.661 152.924 146.99 153.175C147.319 153.424 147.484 153.803 147.484 154.312C147.484 154.609 147.402 154.873 147.239 155.104C147.075 155.335 146.844 155.516 146.545 155.647C147.305 156.782 147.799 157.515 148.029 157.846H146.842L145.637 155.909H145.067V155.91ZM145.067 155.04H145.413C145.751 155.04 146.001 154.984 146.162 154.871C146.323 154.758 146.403 154.581 146.403 154.339C146.403 154.097 146.321 153.929 146.156 153.828C145.991 153.727 145.736 153.676 145.391 153.676H145.067V155.039L145.067 155.04Z" fill="#30804D"/>
<path d="M159.911 157.846L158.696 153.887H158.665C158.709 154.692 158.73 155.23 158.73 155.499V157.846H157.774V152.8H159.23L160.425 156.658H160.445L161.712 152.8H163.168V157.846H162.171V155.458C162.171 155.345 162.172 155.215 162.176 155.068C162.18 154.92 162.195 154.53 162.223 153.895H162.192L160.89 157.847H159.91L159.911 157.846Z" fill="#30804D"/>
<path d="M164.014 156.383V155.52H165.868V156.383H164.014Z" fill="#30804D"/>
<path d="M178.217 157.846L177.002 153.887H176.971C177.015 154.692 177.036 155.23 177.036 155.499V157.846H176.08V152.8H177.536L178.731 156.658H178.751L180.018 152.8H181.474V157.846H180.477V155.458C180.477 155.345 180.478 155.215 180.482 155.068C180.486 154.92 180.501 154.53 180.529 153.895H180.498L179.197 157.847H178.216L178.217 157.846Z" fill="#30804D"/>
<path d="M183.75 155.734H182.414V154.978H183.75V153.631H184.506V154.978H185.842V155.734H184.506V157.062H183.75V155.734Z" fill="#30804D"/>
<path d="M120.518 186.281H119.182V185.525H120.518V184.178H121.274V185.525H122.61V186.281H121.274V187.609H120.518V186.281Z" fill="#30804D"/>
<path d="M125.799 183.347L123.918 188.393H122.962L124.843 183.347H125.799Z" fill="#30804D"/>
<path d="M126.044 186.93V186.067H127.898V186.93H126.044Z" fill="#30804D"/>
<path d="M123.985 199.433C123.582 199.433 123.27 199.584 123.049 199.887C122.828 200.19 122.717 200.611 122.717 201.152C122.717 202.277 123.14 202.84 123.984 202.84C124.338 202.84 124.767 202.751 125.271 202.574V203.471C124.857 203.644 124.394 203.73 123.884 203.73C123.15 203.73 122.588 203.507 122.2 203.062C121.811 202.617 121.617 201.978 121.617 201.145C121.617 200.62 121.712 200.16 121.903 199.766C122.094 199.371 122.369 199.069 122.727 198.858C123.085 198.648 123.504 198.542 123.985 198.542C124.466 198.542 124.968 198.661 125.463 198.898L125.117 199.767C124.929 199.678 124.739 199.599 124.548 199.533C124.357 199.466 124.169 199.432 123.985 199.432L123.985 199.433Z" fill="#30804D"/>
<path d="M198.711 140.041C198.711 140.812 198.519 141.405 198.137 141.819C197.755 142.233 197.207 142.44 196.493 142.44C195.78 142.44 195.231 142.233 194.849 141.819C194.467 141.404 194.276 140.81 194.276 140.035C194.276 139.26 194.467 138.667 194.851 138.259C195.234 137.849 195.784 137.646 196.499 137.646C197.215 137.646 197.763 137.852 198.142 138.264C198.521 138.676 198.711 139.268 198.711 140.041ZM195.311 140.041C195.311 140.562 195.41 140.953 195.608 141.217C195.805 141.48 196.1 141.612 196.493 141.612C197.282 141.612 197.675 141.088 197.675 140.041C197.675 138.994 197.284 138.468 196.5 138.468C196.107 138.468 195.811 138.6 195.611 138.864C195.412 139.129 195.312 139.521 195.312 140.041H195.311Z" fill="#F4F6FC"/>
<path d="M200.648 142.377H199.676V137.719H202.346V138.528H200.648V139.73H202.228V140.535H200.648V142.377Z" fill="#F4F6FC"/>
<path d="M204.229 142.377H203.258V137.719H205.928V138.528H204.229V139.73H205.81V140.535H204.229V142.377Z" fill="#F4F6FC"/>
<path d="M179.589 143.231L176.822 139.541C176.669 139.337 176.71 139.047 176.914 138.894C177.118 138.741 177.409 138.783 177.561 138.987L179.474 141.536L181.86 137.241H184.732C184.987 137.241 185.194 137.448 185.194 137.703C185.194 137.959 184.987 138.165 184.732 138.165H182.404L179.589 143.231Z" fill="#30804D"/>
<path d="M135.731 140.81C135.731 141.068 135.635 141.274 135.445 141.426C135.254 141.577 135.001 141.653 134.685 141.653C134.305 141.653 134.015 141.611 133.812 141.528V141.311C134.036 141.406 134.321 141.453 134.668 141.453C134.923 141.453 135.125 141.395 135.275 141.278C135.424 141.162 135.499 141.008 135.499 140.818C135.499 140.701 135.474 140.604 135.425 140.527C135.375 140.45 135.294 140.379 135.183 140.315C135.071 140.252 134.907 140.183 134.69 140.109C134.373 140 134.154 139.883 134.033 139.756C133.912 139.629 133.851 139.46 133.851 139.249C133.851 139.017 133.942 138.828 134.124 138.681C134.306 138.534 134.54 138.461 134.826 138.461C135.112 138.461 135.391 138.516 135.648 138.627L135.569 138.814C135.311 138.706 135.065 138.652 134.83 138.652C134.596 138.652 134.418 138.705 134.283 138.811C134.147 138.918 134.079 139.062 134.079 139.245C134.079 139.359 134.099 139.454 134.141 139.527C134.183 139.6 134.251 139.667 134.346 139.726C134.441 139.784 134.604 139.855 134.835 139.937C135.077 140.021 135.259 140.101 135.38 140.18C135.502 140.259 135.591 140.348 135.647 140.448C135.703 140.548 135.731 140.669 135.731 140.81V140.81Z" fill="#A2E0B7"/>
<path d="M136.387 141.61V138.504H136.604V141.406H138.084V141.61H136.387Z" fill="#A2E0B7"/>
<path d="M138.376 140.522V140.348H139.385V140.522H138.376Z" fill="#A2E0B7"/>
<path d="M141.821 140.048C141.821 140.593 141.738 140.997 141.572 141.259C141.405 141.521 141.154 141.652 140.816 141.652C140.479 141.652 140.246 141.517 140.077 141.247C139.909 140.978 139.824 140.578 139.824 140.048C139.824 139.519 139.906 139.107 140.07 138.847C140.233 138.586 140.482 138.456 140.816 138.456C141.151 138.456 141.393 138.591 141.564 138.86C141.736 139.13 141.821 139.526 141.821 140.049V140.048ZM140.054 140.048C140.054 140.53 140.117 140.886 140.243 141.116C140.369 141.346 140.56 141.461 140.816 141.461C141.072 141.461 141.279 141.343 141.402 141.104C141.524 140.867 141.586 140.515 141.586 140.048C141.586 139.582 141.524 139.241 141.402 139.003C141.279 138.766 141.084 138.646 140.816 138.646C140.549 138.646 140.354 138.765 140.234 139.003C140.114 139.241 140.054 139.589 140.054 140.048Z" fill="#A2E0B7"/>
<path d="M144.303 140.048C144.303 140.593 144.221 140.997 144.054 141.259C143.888 141.521 143.636 141.652 143.299 141.652C142.961 141.652 142.728 141.517 142.56 141.247C142.391 140.978 142.307 140.578 142.307 140.048C142.307 139.519 142.389 139.107 142.552 138.847C142.716 138.586 142.964 138.456 143.299 138.456C143.633 138.456 143.875 138.591 144.047 138.86C144.218 139.13 144.303 139.526 144.303 140.049V140.048ZM142.536 140.048C142.536 140.53 142.599 140.886 142.725 141.116C142.851 141.346 143.043 141.461 143.299 141.461C143.555 141.461 143.762 141.343 143.884 141.104C144.006 140.867 144.068 140.515 144.068 140.048C144.068 139.582 144.006 139.241 143.884 139.003C143.762 138.766 143.566 138.646 143.299 138.646C143.031 138.646 142.837 138.765 142.717 139.003C142.596 139.241 142.536 139.589 142.536 140.048Z" fill="#A2E0B7"/>
<path d="M146.787 140.048C146.787 140.593 146.704 140.997 146.537 141.259C146.371 141.521 146.12 141.652 145.782 141.652C145.445 141.652 145.212 141.517 145.043 141.247C144.874 140.978 144.79 140.578 144.79 140.048C144.79 139.519 144.872 139.107 145.036 138.847C145.199 138.586 145.448 138.456 145.782 138.456C146.117 138.456 146.359 138.591 146.53 138.86C146.702 139.13 146.787 139.526 146.787 140.049V140.048ZM145.02 140.048C145.02 140.53 145.083 140.886 145.209 141.116C145.335 141.346 145.526 141.461 145.782 141.461C146.038 141.461 146.245 141.343 146.367 141.104C146.49 140.867 146.551 140.515 146.551 140.048C146.551 139.582 146.49 139.241 146.367 139.003C146.245 138.766 146.05 138.646 145.782 138.646C145.515 138.646 145.32 138.765 145.2 139.003C145.08 139.241 145.02 139.589 145.02 140.048Z" fill="#A2E0B7"/>
<path d="M149.183 140.809C149.183 141.068 149.088 141.273 148.897 141.425C148.707 141.577 148.454 141.652 148.138 141.652C147.758 141.652 147.467 141.61 147.264 141.527V141.31C147.488 141.405 147.773 141.453 148.12 141.453C148.375 141.453 148.577 141.394 148.726 141.277C148.876 141.161 148.951 141.008 148.951 140.818C148.951 140.7 148.926 140.603 148.877 140.526C148.827 140.449 148.746 140.378 148.635 140.315C148.522 140.251 148.358 140.182 148.142 140.109C147.824 139.999 147.606 139.882 147.485 139.755C147.364 139.628 147.303 139.46 147.303 139.248C147.303 139.016 147.394 138.827 147.576 138.68C147.758 138.533 147.992 138.46 148.278 138.46C148.564 138.46 148.843 138.515 149.1 138.626L149.021 138.813C148.763 138.705 148.517 138.651 148.282 138.651C148.047 138.651 147.87 138.704 147.734 138.811C147.599 138.917 147.53 139.061 147.53 139.244C147.53 139.358 147.551 139.453 147.593 139.526C147.634 139.6 147.703 139.666 147.798 139.725C147.893 139.784 148.055 139.854 148.286 139.936C148.528 140.02 148.71 140.1 148.832 140.18C148.954 140.258 149.042 140.348 149.099 140.447C149.155 140.547 149.182 140.668 149.182 140.81L149.183 140.809Z" fill="#A2E0B7"/>
<path d="M149.839 141.61V138.504H150.056V141.406H151.536V141.61H149.839Z" fill="#A2E0B7"/>
<path d="M161.821 127.818C158.272 127.818 154.719 127.415 151.261 126.62C142.075 124.509 132.637 123.439 123.212 123.439H116.337C114.388 123.439 112.802 121.854 112.802 119.905V93.7797C112.802 91.8306 114.388 90.2452 116.337 90.2452H207.307C209.256 90.2452 210.841 91.8306 210.841 93.7797V119.905C210.841 121.854 209.256 123.439 207.307 123.439H200.431C191.005 123.439 181.569 124.51 172.382 126.62C168.923 127.415 165.37 127.818 161.822 127.818H161.821Z" fill="#30804D"/>
<path d="M116.336 123.167C114.534 123.167 113.074 121.707 113.074 119.905V93.7797C113.074 91.978 114.534 90.5173 116.336 90.5173H207.306C209.108 90.5173 210.568 91.978 210.568 93.7797V119.905C210.568 121.707 209.108 123.167 207.306 123.167H200.431C190.97 123.167 181.541 124.236 172.32 126.356C165.411 127.943 158.231 127.943 151.322 126.356C142.102 124.237 132.672 123.167 123.212 123.167H116.336Z" fill="#A2E0B7"/>
<path opacity="0.2" d="M207.849 118.762V94.9456H115.792V118.762H207.849Z" fill="black"/>
<path d="M207.306 95.4898H116.336V118.219H207.306V95.4898Z" fill="#F4F6FC"/>
<path d="M69.2688 175.056L73.2726 177.276L70.7918 183.107L76.4492 192.898C76.4492 192.898 77.885 193.028 79.5826 194.117C79.5826 194.452 79.246 194.682 78.9336 194.56L78.0163 194.203C78.0163 194.203 80.2359 196.031 80.0614 197.641C80.0614 197.641 79.6698 199.904 77.6679 199.468C77.6679 199.468 75.7533 199.642 74.1862 195.508L67.6152 184.167C67.2947 183.613 67.2053 182.955 67.3666 182.336L69.268 175.055L69.2688 175.056Z" fill="#DB965F"/>
<path d="M72.9053 241.078L76.7455 241.224L76.8555 238.301L76.8797 237.652L76.9399 236.071L73.0996 236.509L73.0512 237.652L73.0087 238.648L72.9053 241.078Z" fill="#DB965F"/>
<path d="M72.2208 242.736C72.0543 241.825 71.9612 240.201 72.9409 238.775C72.9409 238.775 75.0807 240.175 76.7797 238.348C76.7797 238.348 78.3636 238.579 82.3579 240.831C82.8059 241.084 83.2657 241.315 83.7343 241.526C84.3796 241.816 85.3923 242.354 85.8982 243.055C86.4196 243.777 86.053 244.798 85.1979 245.047C83.559 245.525 78.9554 246.415 72.9966 243.732C72.5896 243.549 72.3007 243.175 72.2201 242.736H72.2208Z" fill="#040C2B"/>
<path d="M72.4676 237.287H77.0859L80.5859 213.518L85.5357 190.015L85.7865 188.824L74.9975 188.526L73.4891 188.484C73.4891 188.484 71.35 191.692 73.0029 199.032L73.4891 211.087C73.4891 211.087 70.5244 219.836 72.4683 237.286L72.4676 237.287Z" fill="#040C2B"/>
<path opacity="0.15" d="M76.5696 237.287H77.0858L80.5858 213.518L85.5356 190.015L81.3162 189.062L77.6857 189.282C77.6857 194.636 77.1907 195.938 79.0606 203.254L80.3805 207.38L76.5688 237.286L76.5696 237.287Z" fill="black"/>
<path d="M74.9761 234.791L75.5319 235.165L78.1637 236.938L79.0048 235.688L79.7975 234.51L80.6921 233.18L80.786 233.041L81.0426 232.66L80.7699 232.531L77.5478 231.01L77.5367 231.027L76.3444 232.78L74.9761 234.791Z" fill="#DB965F"/>
<path d="M73.8086 237.146C77.4047 242.619 81.7868 244.301 83.3187 244.743C84.0689 244.958 84.8344 244.43 84.885 243.652C84.9444 242.742 84.3204 241.61 83.9024 240.962C83.6135 240.514 83.3458 240.052 83.0987 239.58C81.7252 236.962 80.7404 235.604 80.2213 234.976C79.9426 234.639 79.7974 234.512 79.7974 234.512C77.3775 235.12 76.3443 232.781 76.3443 232.781C75.1732 233.267 74.4282 234.156 73.9736 234.933C73.8606 235.125 73.766 235.31 73.6869 235.481C73.4375 236.02 73.4823 236.651 73.8086 237.147V237.146Z" fill="#040C2B"/>
<path d="M76.4902 230.312L77.1993 230.796L77.5374 231.026L80.6935 233.18L80.794 233.249L81.4899 233.724L90.7265 219.393L92.0134 217.383C92.9205 215.965 93.2299 214.246 92.8743 212.602L87.8263 189.262L86.8583 189.226L77.7229 188.886L77.687 189.841C77.5059 194.622 78.3491 199.386 80.1604 203.814L84.1371 213.539C84.338 214.309 84.2485 215.126 83.8863 215.835L79.3347 224.748L76.4924 230.313L76.4902 230.312Z" fill="#040C2B"/>
<path opacity="0.15" d="M73.0513 237.652H76.8798L76.9399 236.071L73.0997 236.509L73.0513 237.652Z" fill="black"/>
<path d="M77.5737 161.554L77.5825 166.219L82.8557 167.939C82.8557 167.939 84.0135 163.977 85.475 163.627C86.9365 163.276 85.4655 163.512 85.4655 163.512L79.0623 156.748L77.5737 161.555V161.554Z" fill="#C9885B"/>
<path d="M85.9314 155.529C85.9314 155.529 88.2794 161.08 86.3032 165.421C86.0854 165.9 85.5618 166.139 85.0734 165.977C83.7102 165.528 80.9215 164.07 78.5728 159.409C78.5728 159.409 82.7745 152.471 85.9314 155.529Z" fill="#DB965F"/>
<path d="M79.3245 161.314C79.3245 161.314 79.3392 163.067 77.5786 163.761C77.5786 163.761 75.8678 159.592 76.2799 156.435C76.2799 156.435 77.558 152.474 80.9312 153.625C80.9312 153.625 84.5009 151.713 86.3635 153.527C86.3635 153.527 87.9063 156.447 85.8091 156.773C85.8091 156.773 84.8829 155.923 83.8006 156.359C83.8006 156.359 84.3366 158.358 82.903 159.054L82.8906 161.639L82.4836 161.672L82.1052 160.238C82.1052 160.238 80.4296 157.522 79.3238 161.313L79.3245 161.314Z" fill="black"/>
<path d="M71.8901 169.424C71.8901 169.424 69.2245 169.356 68.2676 178.494L72.8807 180.191C72.8807 180.191 76.427 170.013 71.8908 169.423L71.8901 169.424Z" fill="#F4F6FC"/>
<path opacity="0.15" d="M70.8667 182.746L72.092 179.866L72.8261 180.136C72.8261 180.136 74.0382 176.658 74.1387 173.65L71.3008 175.213L71.248 176.128L71.0552 179.484L70.8674 182.746H70.8667Z" fill="black"/>
<path d="M77.4304 165.671L76.2088 166.47L76.0049 166.603L71.6623 169.443L71.3323 175.711L71.2729 176.842C71.2715 176.871 71.2715 176.899 71.2715 176.927L71.5054 188.5L71.5164 189.031C71.5259 189.515 71.8339 189.945 72.2908 190.106C75.3046 191.164 79.1046 191.164 82.3714 190.845H82.3743C85.0149 190.587 87.3072 190.119 88.5523 189.834C89.1236 189.704 89.5078 189.169 89.4514 188.587L88.6858 180.659C88.6807 180.609 88.6792 180.558 88.6807 180.507L89.0576 169.364C89.0649 169.149 88.6029 168.385 88.4064 168.3L84.9849 167.244L84.8338 167.179L83.4655 166.589L77.4312 165.671H77.4304Z" fill="#F4F6FC"/>
<path opacity="0.15" d="M88.6291 180.603C88.6247 180.553 88.6232 180.502 88.6246 180.452L88.8021 175.214L87.0723 174.743L89.3814 188.385L88.6291 180.603Z" fill="black"/>
<path d="M103.488 174.773L103.38 174.535L102.776 173.21L101.596 170.623L100.55 170.669L98.7222 170.749L89.5054 171.154L96.1916 176.355L103.488 174.773Z" fill="#DB965F"/>
<path d="M104.076 169.098L109.165 165.424C110.141 164.641 111.004 163.511 111.526 162.754C111.808 162.344 112.043 161.901 112.21 161.431C112.551 160.479 113.106 159.514 113.576 158.788C114.047 158.062 114.431 157.574 114.431 157.574C114.789 157.815 114.906 158.289 114.697 158.668L113.835 160.242L115.141 159.1C115.583 158.714 116.127 158.456 116.71 158.383C118.889 158.107 118.523 160.643 118.523 160.643C118.021 162.486 114.765 164.74 114.765 164.74L105.153 174.021C104.537 174.615 103.723 174.846 102.953 174.744C102.197 174.645 101.482 174.223 101.039 173.508L101.593 170.661L104.077 169.098H104.076Z" fill="#DB965F"/>
<path d="M88.7022 177.187L93.9606 176.965L98.1082 176.595L97.8119 170.299C91.5166 168.596 88.0811 168.1 87.4431 168.3C87.2129 168.371 86.7333 168.852 86.7333 168.852C85.5512 171.203 85.9186 174.036 87.6602 176.008L88.7022 177.187Z" fill="#F4F6FC"/>
<path d="M235.758 187.944H220.945L212.843 170.858H227.656L235.758 187.944Z" fill="#F4F6FC"/>
<path d="M217.662 174.711C217.752 174.901 217.784 175.042 217.76 175.135C217.736 175.229 217.652 175.275 217.511 175.275C217.369 175.275 217.249 175.228 217.133 175.132C217.016 175.036 216.914 174.895 216.827 174.711C216.736 174.519 216.703 174.378 216.728 174.285C216.753 174.193 216.835 174.147 216.976 174.147C217.116 174.147 217.24 174.195 217.357 174.291C217.474 174.388 217.575 174.527 217.663 174.711H217.662ZM216.972 174.711C217.047 174.871 217.124 174.986 217.202 175.059C217.28 175.132 217.366 175.168 217.46 175.168C217.555 175.168 217.608 175.132 217.616 175.058C217.624 174.983 217.59 174.868 217.515 174.711C217.441 174.553 217.364 174.438 217.287 174.365C217.209 174.291 217.122 174.255 217.027 174.255C216.932 174.255 216.881 174.291 216.872 174.363C216.863 174.436 216.896 174.552 216.972 174.711Z" fill="black"/>
<path d="M218.229 175.082L218.25 175.099C218.259 175.149 218.265 175.207 218.268 175.274C218.27 175.34 218.27 175.401 218.268 175.459H218.16C218.151 175.407 218.137 175.342 218.119 175.266C218.102 175.19 218.086 175.128 218.072 175.082H218.229Z" fill="black"/>
<path d="M219.107 174.711C219.198 174.901 219.23 175.042 219.206 175.135C219.181 175.229 219.098 175.275 218.956 175.275C218.815 175.275 218.694 175.228 218.578 175.132C218.461 175.036 218.359 174.895 218.272 174.711C218.181 174.519 218.148 174.378 218.173 174.285C218.198 174.193 218.28 174.147 218.421 174.147C218.562 174.147 218.685 174.195 218.802 174.291C218.919 174.388 219.021 174.527 219.108 174.711H219.107ZM218.417 174.711C218.493 174.871 218.57 174.986 218.648 175.059C218.725 175.132 218.811 175.168 218.906 175.168C219 175.168 219.053 175.132 219.061 175.058C219.069 174.983 219.035 174.868 218.961 174.711C218.886 174.553 218.81 174.438 218.732 174.365C218.654 174.291 218.568 174.255 218.472 174.255C218.377 174.255 218.326 174.291 218.317 174.363C218.308 174.436 218.341 174.552 218.417 174.711H218.417Z" fill="black"/>
<path d="M220.12 174.711C220.21 174.901 220.242 175.042 220.218 175.135C220.194 175.229 220.11 175.275 219.968 175.275C219.827 175.275 219.707 175.228 219.59 175.132C219.473 175.036 219.372 174.895 219.284 174.711C219.193 174.519 219.16 174.378 219.185 174.285C219.21 174.193 219.292 174.147 219.433 174.147C219.574 174.147 219.697 174.195 219.814 174.291C219.931 174.388 220.033 174.527 220.12 174.711H220.12ZM219.429 174.711C219.505 174.871 219.582 174.986 219.66 175.059C219.737 175.132 219.823 175.168 219.918 175.168C220.012 175.168 220.065 175.132 220.073 175.058C220.081 174.983 220.048 174.868 219.973 174.711C219.898 174.553 219.822 174.438 219.744 174.365C219.666 174.291 219.58 174.255 219.484 174.255C219.389 174.255 219.339 174.291 219.329 174.363C219.32 174.436 219.353 174.552 219.429 174.711H219.429Z" fill="black"/>
<path d="M221.131 174.711C221.221 174.901 221.254 175.042 221.229 175.135C221.205 175.229 221.122 175.275 220.98 175.275C220.839 175.275 220.718 175.228 220.602 175.132C220.485 175.036 220.383 174.895 220.296 174.711C220.205 174.519 220.172 174.378 220.197 174.285C220.222 174.193 220.304 174.147 220.445 174.147C220.586 174.147 220.709 174.195 220.826 174.291C220.943 174.388 221.045 174.527 221.132 174.711H221.131ZM220.441 174.711C220.517 174.871 220.594 174.986 220.671 175.059C220.749 175.132 220.835 175.168 220.93 175.168C221.024 175.168 221.077 175.132 221.085 175.058C221.093 174.983 221.059 174.868 220.985 174.711C220.91 174.553 220.834 174.438 220.756 174.365C220.678 174.291 220.592 174.255 220.496 174.255C220.401 174.255 220.35 174.291 220.341 174.363C220.332 174.436 220.365 174.552 220.44 174.711H220.441Z" fill="black"/>
<path d="M221.952 174.422C221.985 174.491 221.989 174.549 221.966 174.593C221.942 174.638 221.892 174.667 221.816 174.683L221.819 174.689C221.926 174.7 222.014 174.728 222.085 174.773C222.155 174.818 222.207 174.877 222.242 174.95C222.292 175.055 222.289 175.135 222.231 175.191C222.174 175.247 222.069 175.275 221.915 175.275C221.849 175.275 221.785 175.271 221.725 175.262C221.666 175.253 221.604 175.238 221.541 175.216L221.485 175.097C221.551 175.121 221.618 175.138 221.685 175.151C221.752 175.163 221.814 175.169 221.87 175.169C222.088 175.169 222.162 175.095 222.091 174.946C222.028 174.813 221.876 174.747 221.635 174.747H221.51L221.46 174.64H221.586C221.684 174.64 221.754 174.62 221.794 174.583C221.833 174.546 221.838 174.493 221.805 174.426C221.78 174.373 221.739 174.331 221.682 174.3C221.626 174.269 221.56 174.255 221.488 174.255C221.433 174.255 221.384 174.261 221.34 174.274C221.298 174.288 221.253 174.311 221.207 174.346L221.095 174.262C221.13 174.227 221.176 174.199 221.234 174.178C221.292 174.158 221.359 174.148 221.434 174.148C221.556 174.148 221.663 174.172 221.754 174.222C221.845 174.271 221.911 174.337 221.951 174.423L221.952 174.422Z" fill="black"/>
<path d="M223.235 174.667H223.59L223.639 174.77H223.284L223.436 175.09H223.315L223.164 174.77H222.809L222.76 174.667H223.114L222.962 174.346H223.082L223.235 174.667Z" fill="black"/>
<path d="M224.517 175.182C224.501 175.148 224.498 175.122 224.507 175.105C224.517 175.087 224.539 175.079 224.571 175.079C224.604 175.079 224.635 175.088 224.662 175.105C224.689 175.122 224.711 175.148 224.727 175.182C224.743 175.214 224.745 175.239 224.735 175.257C224.724 175.275 224.702 175.284 224.669 175.284C224.639 175.284 224.611 175.276 224.584 175.26C224.556 175.245 224.535 175.218 224.517 175.182Z" fill="black"/>
<path d="M224.988 175.182C224.971 175.148 224.969 175.122 224.978 175.105C224.988 175.087 225.009 175.079 225.042 175.079C225.074 175.079 225.106 175.088 225.133 175.105C225.16 175.122 225.182 175.148 225.198 175.182C225.213 175.214 225.216 175.239 225.205 175.257C225.194 175.275 225.173 175.284 225.139 175.284C225.11 175.284 225.082 175.276 225.054 175.26C225.027 175.245 225.006 175.218 224.988 175.182Z" fill="black"/>
<path d="M225.458 175.182C225.442 175.148 225.439 175.122 225.449 175.105C225.458 175.087 225.48 175.079 225.512 175.079C225.545 175.079 225.577 175.088 225.604 175.105C225.631 175.122 225.652 175.148 225.669 175.182C225.684 175.214 225.686 175.239 225.676 175.257C225.665 175.275 225.644 175.284 225.61 175.284C225.581 175.284 225.552 175.276 225.525 175.26C225.498 175.245 225.476 175.218 225.458 175.182Z" fill="black"/>
<path d="M225.93 175.182C225.913 175.148 225.91 175.122 225.92 175.105C225.93 175.087 225.951 175.079 225.984 175.079C226.016 175.079 226.048 175.088 226.075 175.105C226.102 175.122 226.124 175.148 226.14 175.182C226.155 175.214 226.158 175.239 226.147 175.257C226.136 175.275 226.115 175.284 226.081 175.284C226.052 175.284 226.024 175.276 225.996 175.26C225.97 175.245 225.947 175.218 225.93 175.182Z" fill="black"/>
<path d="M226.4 175.182C226.384 175.148 226.381 175.122 226.391 175.105C226.4 175.087 226.422 175.079 226.454 175.079C226.487 175.079 226.519 175.088 226.545 175.105C226.573 175.122 226.594 175.148 226.611 175.182C226.626 175.214 226.628 175.239 226.618 175.257C226.607 175.275 226.585 175.284 226.552 175.284C226.522 175.284 226.494 175.276 226.467 175.26C226.44 175.245 226.418 175.218 226.4 175.182Z" fill="black"/>
<path d="M226.871 175.182C226.855 175.148 226.852 175.122 226.861 175.105C226.871 175.087 226.893 175.079 226.925 175.079C226.958 175.079 226.989 175.088 227.016 175.105C227.044 175.122 227.065 175.148 227.081 175.182C227.097 175.214 227.099 175.239 227.089 175.257C227.078 175.275 227.056 175.284 227.023 175.284C226.993 175.284 226.965 175.276 226.938 175.26C226.911 175.245 226.889 175.218 226.871 175.182Z" fill="black"/>
<path d="M227.342 175.182C227.326 175.148 227.323 175.122 227.333 175.105C227.342 175.087 227.364 175.079 227.396 175.079C227.429 175.079 227.461 175.088 227.487 175.105C227.515 175.122 227.536 175.148 227.552 175.182C227.568 175.214 227.57 175.239 227.56 175.257C227.549 175.275 227.527 175.284 227.494 175.284C227.464 175.284 227.436 175.276 227.409 175.26C227.382 175.245 227.36 175.218 227.342 175.182Z" fill="black"/>
<path d="M243.443 157.964C243.443 157.964 244.213 159.162 244.151 161.93C244.151 161.93 244.38 164.431 243.23 166.684C243.23 166.684 244.556 164.643 244.561 162.113C244.561 162.113 245.082 158.697 243.443 157.964V157.964Z" fill="black"/>
<path d="M243.842 167.904L244.818 171.419L242.463 171.762L238.145 171.859L236.409 169.826C236.675 169.538 237.214 169.851 237.356 169.13C237.481 168.491 237.745 167.427 237.8 166.659C237.961 164.404 237.351 161.445 237.351 161.445L243.402 163.379C243.601 166.255 243.842 167.905 243.842 167.905V167.904Z" fill="#C9885B"/>
<path d="M245.789 159.573C245.789 159.573 245.718 166.235 238.492 165.948C238.18 165.935 237.881 165.822 237.637 165.629C236.589 164.795 234.137 162.05 236.627 155.853C236.627 155.853 242.723 149.955 245.789 159.572V159.573Z" fill="#DB965F"/>
<path d="M239.843 211.799L239.865 212.332L240.103 217.891C240.179 219.673 240.597 221.424 241.332 223.048L244.139 229.245C246.213 233.946 246.65 237.309 246.616 239.403C246.61 239.758 246.697 240.088 246.852 240.374C247.259 241.125 248.134 241.57 249.04 241.353C249.941 241.138 250.55 240.333 250.55 239.443C250.55 239.305 250.536 239.166 250.506 239.026L249.863 236.05C249.656 235.093 249.552 234.116 249.547 233.138C249.511 226.385 248.211 223.578 247.498 222.544C247.031 221.867 246.721 221.104 246.343 220.374C245.642 219.017 245.614 217.853 245.661 217.27C245.679 217.048 245.735 216.831 245.827 216.628L247.013 213.985C247.462 212.983 247.004 211.807 245.995 211.373L242.584 209.908C241.253 209.337 239.781 210.352 239.843 211.799V211.799Z" fill="#DB965F"/>
<path opacity="0.15" d="M239.865 212.332L240.103 217.891C240.178 219.673 240.596 221.424 241.332 223.048L244.139 229.245C246.213 233.946 246.65 237.309 246.616 239.403C246.61 239.758 246.697 240.088 246.852 240.374C248.624 235.586 242.408 222.371 242.408 222.371C241.236 220.333 242.408 213.154 242.408 213.154L239.865 212.332Z" fill="black"/>
<path d="M233.344 210.863L235.686 222.167L238.385 241.059L241.3 242.749L241.899 243.096C241.899 243.096 241.111 234.342 241.726 230.023C241.877 228.96 241.915 227.883 241.809 226.814C241.723 225.942 241.56 224.934 241.258 224.011C240.921 222.984 240.75 221.909 240.777 220.827L240.948 214.146L241.033 210.864H233.343L233.344 210.863Z" fill="#DB965F"/>
<path d="M241.695 239.472C241.695 239.472 242.798 242.474 242.302 244.418C242.218 244.746 241.93 244.979 241.592 244.995C240.529 245.046 238.07 245.197 236.936 245.528C236.936 245.528 233.652 245.768 232.199 245.215C231.856 245.084 231.644 244.735 231.691 244.372C231.763 243.799 232.055 242.907 233.122 242.473L238.182 239.498C238.182 239.498 241.276 241.484 241.696 239.471L241.695 239.472Z" fill="#040C2B"/>
<path d="M250.285 237.795C250.285 237.795 251.767 240.63 251.527 242.621C251.487 242.957 251.23 243.226 250.897 243.286C249.85 243.474 247.431 243.941 246.348 244.416C246.348 244.416 243.123 245.079 241.611 244.719C241.253 244.633 240.998 244.315 240.998 243.948C240.996 243.37 241.169 242.448 242.172 241.88L246.805 238.276C246.805 238.276 250.13 239.845 250.285 237.795V237.795Z" fill="#040C2B"/>
<path d="M229.773 186.976L231.996 188.119L233.134 188.703L233.338 188.809L233.31 188.248L233.267 187.393L233.166 185.335L232.851 178.956L232.752 176.969L230.741 176.384L230.003 184.458L229.857 186.06L229.773 186.976Z" fill="#DB965F"/>
<path d="M217.243 182.591C217.975 184.101 219.505 184.263 219.505 184.263L229.31 190.723C229.939 191.137 230.679 191.205 231.328 190.991C231.965 190.783 232.513 190.304 232.78 189.614L233.133 188.704L233.31 188.248L233.592 187.52L233.267 187.393L232.2 186.976L229.857 186.06L224.452 183.947C223.483 183.43 222.554 182.594 221.98 182.024C221.669 181.715 221.396 181.371 221.175 180.992C220.726 180.224 220.091 179.482 219.567 178.93C219.043 178.379 218.631 178.02 218.631 178.02C218.361 178.286 218.337 178.714 218.579 179.007L219.579 180.227L218.266 179.453C217.822 179.19 217.758 179.333 217.243 179.363C215.316 179.478 217.243 182.59 217.243 182.59V182.591Z" fill="#DB965F"/>
<path d="M233.466 189.712C234.787 190.747 238.265 190.625 238.265 190.625L249.912 192.119C250.659 192.215 251.353 191.95 251.842 191.474C252.323 191.007 252.606 190.335 252.542 189.598L252.459 188.626L252.417 188.139L252.351 187.361L252.003 187.389L250.861 187.483L248.353 187.691L242.57 188.168C241.472 188.129 240.27 187.786 239.505 187.527C239.09 187.386 238.692 187.197 238.328 186.954C237.588 186.461 236.69 186.073 235.978 185.808C235.265 185.544 234.738 185.402 234.738 185.402C234.612 185.76 234.779 186.155 235.125 186.312L236.559 186.968L235.04 186.85C234.525 186.809 234.006 186.914 233.558 187.168C231.877 188.118 233.466 189.712 233.466 189.712V189.712Z" fill="#DB965F"/>
<path d="M227.33 183.717L230.003 184.458L232.452 185.138L233.166 185.336L233.171 185.338L233.388 185.398L233.673 185.427L233.431 178.746L233.368 176.994L233.098 169.518C230.342 170.565 229.978 173.483 229.978 173.483L227.33 183.719V183.717Z" fill="#F4F6FC"/>
<path opacity="0.15" d="M231.327 190.991C231.965 190.783 232.513 190.304 232.78 189.614L233.133 188.704L233.337 188.809L233.309 188.248L233.591 187.52L233.266 187.393L233.165 185.335L233.387 185.397L233.672 185.426L233.422 178.541L233.225 177.017L232.77 181.117C232.77 181.117 232.865 181.406 232.451 185.137C232.387 185.714 232.304 186.328 232.199 186.976C232.138 187.345 232.071 187.727 231.995 188.119C231.819 189.022 231.6 189.981 231.327 190.991H231.327Z" fill="black"/>
<path d="M231.899 214.577C231.907 214.665 231.973 214.736 232.061 214.749C233.378 214.943 243.097 216.305 248.757 215.208C248.828 215.193 248.885 215.141 248.904 215.071C249.067 214.479 249.718 211.306 249.426 199.181C249.402 198.142 249.335 197.105 249.226 196.073C249.118 195.039 248.974 193.429 248.875 191.412C248.811 190.086 248.765 188.584 248.763 186.954L248.176 186.895L233.674 185.426L233.389 185.397L233.172 185.337C233.175 185.645 233.18 185.962 233.185 186.289C233.185 186.305 233.184 186.321 233.18 186.336C233.073 186.789 231.405 193.938 231.404 198.376V198.387C231.39 198.587 231.016 204.603 231.899 214.577H231.899Z" fill="#040C2B"/>
<path d="M233.098 169.517C233.188 169.482 233.281 169.45 233.375 169.421C233.447 169.398 233.519 169.377 233.592 169.357L233.694 169.323L234.324 169.113L237.457 168.62C237.457 168.62 238.693 168.099 241.363 168.36C242.771 168.497 242.99 168.425 244.096 168.49C244.103 168.49 246.368 169.076 246.375 169.076L248.924 169.988L249.611 170.224L250.497 170.529C250.497 170.529 250.529 170.547 250.587 170.593C250.15 171.584 249.471 173.366 249.012 175.685C248.67 177.422 248.452 179.46 248.556 181.691C248.578 182.155 248.613 182.627 248.664 183.107L248.765 185.954L248.8 186.959L248.762 186.955L248.176 186.896L233.673 185.427L233.388 185.398L233.171 185.338C233.105 180.354 233.161 177.844 233.179 177.18C233.181 177.128 233.203 177.082 233.236 177.049C233.27 177.016 233.317 176.995 233.368 176.994L233.112 169.905L233.098 169.518L233.098 169.517Z" fill="#F4F6FC"/>
<path opacity="0.15" d="M248.176 186.895C248.27 188.467 248.483 190.02 248.874 191.412C248.81 190.086 248.765 188.584 248.762 186.954L248.801 186.958L248.765 185.953C248.776 184.846 248.806 183.685 248.864 182.489C248.864 182.489 248.799 182.192 248.556 181.69C248.452 179.459 248.671 177.421 249.013 175.684L248.967 175.664C248.967 175.664 248.508 178.014 248.264 181.147C248.127 182.909 248.058 184.918 248.176 186.896L248.176 186.895Z" fill="black"/>
<path d="M251.72 175.111L252.382 187.434L248.971 188.197L248.817 180.051L251.72 175.111Z" fill="#DB965F"/>
<path d="M248.665 183.105L248.801 186.958L248.97 186.976L256.354 184.48L253.247 175.926C252.12 172.025 250.92 170.854 250.587 170.592C249.757 172.481 248.038 177.237 248.664 183.105H248.665Z" fill="#F4F6FC"/>
<path d="M239.099 155.237C239.099 155.237 242.404 150.33 245.919 154.496C245.993 154.584 246.38 154.985 246.44 155.082C246.787 155.647 248.783 156.969 246.049 163.348C246.049 163.348 244.356 166.537 246.895 168.555C246.895 168.555 238.759 172.721 240.972 161.852C242.338 155.141 239.099 155.238 239.099 155.238V155.237Z" fill="black"/>
<path d="M236.937 154.756C236.937 154.756 235.225 156.929 235.593 158.674L238.434 161.005C238.434 161.005 238.695 166.733 244.293 167.449C244.659 167.496 246.3 158.352 246.023 157.17C245.052 153.024 239.843 151.643 236.937 154.756Z" fill="black"/>
<path d="M238.389 158.668C238.389 158.668 237.458 163.981 235.695 166.003C235.695 166.003 238.587 162.845 238.47 158.42L238.389 158.668Z" fill="black"/>
<path d="M238.194 161.147C238.003 161.598 238.102 162.071 238.414 162.203C238.726 162.335 239.134 162.077 239.325 161.626C239.517 161.175 239.418 160.702 239.105 160.57C238.793 160.438 238.385 160.696 238.194 161.147Z" fill="#DB965F"/>
</svg>