<svg xmlns="http://www.w3.org/2000/svg" width="633.4" height="614.228" viewBox="0 0 633.4 614.228">
  <g id="cot_prop" transform="translate(-18.3 -1.872)">
    <g id="Group_272" data-name="Group 272">
      <path id="Path_656" data-name="Path 656" d="M329,606.2h-3.7m3.7,0h3.7" fill="none" stroke="#000" stroke-width="1"/>
      <g id="Group_244" data-name="Group 244" transform="translate(322.1 609.9)">
        <text id="_-6" data-name="-6" font-size="13.33" font-family="ArialMT, Arial"><tspan x="-11.853" y="0">-6</tspan></text>
      </g>
      <path id="Path_657" data-name="Path 657" d="M329,556.8h-3.7m3.7,0h3.7" fill="none" stroke="#000" stroke-width="1"/>
      <g id="Group_245" data-name="Group 245" transform="translate(322.1 560.5)">
        <text id="_-5" data-name="-5" font-size="13.33" font-family="ArialMT, Arial"><tspan x="-11.853" y="0">-5</tspan></text>
      </g>
      <path id="Path_658" data-name="Path 658" d="M329,507.5h-3.7m3.7,0h3.7" fill="none" stroke="#000" stroke-width="1"/>
      <g id="Group_246" data-name="Group 246" transform="translate(322.1 511.2)">
        <text id="_-4" data-name="-4" font-size="13.33" font-family="ArialMT, Arial"><tspan x="-11.853" y="0">-4</tspan></text>
      </g>
      <path id="Path_659" data-name="Path 659" d="M329,458.1h-3.7m3.7,0h3.7" fill="none" stroke="#000" stroke-width="1"/>
      <g id="Group_247" data-name="Group 247" transform="translate(322.1 461.8)">
        <text id="_-3" data-name="-3" font-size="13.33" font-family="ArialMT, Arial"><tspan x="-11.853" y="0">-3</tspan></text>
      </g>
      <path id="Path_660" data-name="Path 660" d="M329,408.7h-3.7m3.7,0h3.7" fill="none" stroke="#000" stroke-width="1"/>
      <g id="Group_248" data-name="Group 248" transform="translate(322.1 412.4)">
        <text id="_-2" data-name="-2" font-size="13.33" font-family="ArialMT, Arial"><tspan x="-11.853" y="0">-2</tspan></text>
      </g>
      <path id="Path_661" data-name="Path 661" d="M329,359.4h-3.7m3.7,0h3.7" fill="none" stroke="#000" stroke-width="1"/>
      <g id="Group_249" data-name="Group 249" transform="translate(322.1 363.1)">
        <text id="_-1" data-name="-1" font-size="13.33" font-family="ArialMT, Arial"><tspan x="-11.853" y="0">-1</tspan></text>
      </g>
      <path id="Path_662" data-name="Path 662" d="M329,260.6h-3.7m3.7,0h3.7" fill="none" stroke="#000" stroke-width="1"/>
      <g id="Group_250" data-name="Group 250" transform="translate(322.1 264.3)">
        <text id="_1" data-name="1" font-size="13.33" font-family="ArialMT, Arial"><tspan x="-7.414" y="0">1</tspan></text>
      </g>
      <path id="Path_663" data-name="Path 663" d="M329,211.3h-3.7m3.7,0h3.7" fill="none" stroke="#000" stroke-width="1"/>
      <g id="Group_251" data-name="Group 251" transform="translate(322.1 215)">
        <text id="_2" data-name="2" font-size="13.33" font-family="ArialMT, Arial"><tspan x="-7.414" y="0">2</tspan></text>
      </g>
      <path id="Path_664" data-name="Path 664" d="M329,161.9h-3.7m3.7,0h3.7" fill="none" stroke="#000" stroke-width="1"/>
      <g id="Group_252" data-name="Group 252" transform="translate(322.1 165.6)">
        <text id="_3" data-name="3" font-size="13.33" font-family="ArialMT, Arial"><tspan x="-7.414" y="0">3</tspan></text>
      </g>
      <path id="Path_665" data-name="Path 665" d="M329,112.5h-3.7m3.7,0h3.7" fill="none" stroke="#000" stroke-width="1"/>
      <g id="Group_253" data-name="Group 253" transform="translate(322.1 116.2)">
        <text id="_4" data-name="4" font-size="13.33" font-family="ArialMT, Arial"><tspan x="-7.414" y="0">4</tspan></text>
      </g>
      <path id="Path_666" data-name="Path 666" d="M329,63.2h-3.7m3.7,0h3.7" fill="none" stroke="#000" stroke-width="1"/>
      <g id="Group_254" data-name="Group 254" transform="translate(322.1 66.9)">
        <text id="_5" data-name="5" font-size="13.33" font-family="ArialMT, Arial"><tspan x="-7.414" y="0">5</tspan></text>
      </g>
      <path id="Path_667" data-name="Path 667" d="M329,13.8h-3.7m3.7,0h3.7" fill="none" stroke="#000" stroke-width="1"/>
      <g id="Group_255" data-name="Group 255" transform="translate(322.1 17.5)">
        <text id="_6" data-name="6" font-size="13.33" font-family="ArialMT, Arial"><tspan x="-7.414" y="0">6</tspan></text>
      </g>
      <path id="Path_668" data-name="Path 668" d="M35.3,310v3.7m0-3.7v-3.7" fill="none" stroke="#000" stroke-width="1"/>
      <g id="Group_256" data-name="Group 256" transform="translate(35.3 332.5)">
        <text id="_2π" data-name="–2π" font-size="13.33" font-family="ArialMT, Arial"><tspan x="-12.012" y="0">–2π</tspan></text>
      </g>
      <path id="Path_669" data-name="Path 669" d="M108.7,310v3.7m0-3.7v-3.7" fill="none" stroke="#000" stroke-width="1"/>
      <g id="Group_257" data-name="Group 257" transform="translate(108.7 332.5)">
        <text id="_3_2_π" data-name="–3/2 π" font-size="13.33" font-family="ArialMT, Arial"><tspan x="-19.422" y="0">–3/2 π</tspan></text>
      </g>
      <path id="Path_670" data-name="Path 670" d="M182.2,310v3.7m0-3.7v-3.7" fill="none" stroke="#000" stroke-width="1"/>
      <g id="Group_258" data-name="Group 258" transform="translate(182.2 332.5)">
        <text id="_π" data-name="–π" font-size="13.33" font-family="ArialMT, Arial"><tspan x="-8.305" y="0">–π</tspan></text>
      </g>
      <path id="Path_671" data-name="Path 671" d="M255.6,310v3.7m0-3.7v-3.7" fill="none" stroke="#000" stroke-width="1"/>
      <g id="Group_259" data-name="Group 259" transform="translate(255.6 332.5)">
        <text id="_1_2_π" data-name="–1/2 π" font-size="13.33" font-family="ArialMT, Arial"><tspan x="-19.422" y="0">–1/2 π</tspan></text>
      </g>
      <path id="Path_672" data-name="Path 672" d="M402.4,310v3.7m0-3.7v-3.7" fill="none" stroke="#000" stroke-width="1"/>
      <g id="Group_260" data-name="Group 260" transform="translate(402.4 332.5)">
        <text id="_1_2_π-2" data-name="1/2 π" font-size="13.33" font-family="ArialMT, Arial"><tspan x="-15.715" y="0">1/2 π</tspan></text>
      </g>
      <path id="Path_673" data-name="Path 673" d="M475.8,310v3.7m0-3.7v-3.7" fill="none" stroke="#000" stroke-width="1"/>
      <g id="Group_261" data-name="Group 261" transform="translate(475.8 332.5)">
        <text id="π" font-size="13.33" font-family="ArialMT, Arial"><tspan x="-4.598" y="0">π</tspan></text>
      </g>
      <path id="Path_674" data-name="Path 674" d="M549.3,310v3.7m0-3.7v-3.7" fill="none" stroke="#000" stroke-width="1"/>
      <g id="Group_262" data-name="Group 262" transform="translate(549.3 332.5)">
        <text id="_3_2_π-2" data-name="3/2 π" font-size="13.33" font-family="ArialMT, Arial"><tspan x="-15.715" y="0">3/2 π</tspan></text>
      </g>
      <path id="Path_675" data-name="Path 675" d="M622.7,310v3.7m0-3.7v-3.7" fill="none" stroke="#000" stroke-width="1"/>
      <g id="Group_263" data-name="Group 263" transform="translate(622.7 332.5)">
        <text id="_2π-2" data-name="2π" font-size="13.33" font-family="ArialMT, Arial"><tspan x="-8.305" y="0">2π</tspan></text>
      </g>
      <path id="Path_676" data-name="Path 676" d="M35.3,310v-3.7" fill="none" stroke="#000" stroke-width="1"/>
      <g id="Group_264" data-name="Group 264" transform="translate(35.3 288.2)">
        <g id="Group">
          <text id="_360_" data-name="–360 " font-size="13.33" font-family="ArialMT, Arial"><tspan x="-16.679" y="0">–360 </tspan></text>
          <text id="o" transform="translate(34 -6.667)" font-size="10.66" font-family="ArialMT, Arial"><tspan x="-2.964" y="0">o</tspan></text>
        </g>
      </g>
      <path id="Path_677" data-name="Path 677" d="M108.7,310v-3.7" fill="none" stroke="#000" stroke-width="1"/>
      <g id="Group_265" data-name="Group 265" transform="translate(108.7 288.2)">
        <g id="Group-2" data-name="Group">
          <text id="_270_" data-name="–270 " transform="translate(0 6.667)" font-size="13.33" font-family="ArialMT, Arial"><tspan x="-16.679" y="0">–270 </tspan></text>
          <text id="o-2" data-name="o" transform="translate(34)" font-size="10.66" font-family="ArialMT, Arial"><tspan x="-2.964" y="0">o</tspan></text>
        </g>
      </g>
      <path id="Path_678" data-name="Path 678" d="M182.2,310v-3.7" fill="none" stroke="#000" stroke-width="1"/>
      <g id="Group_266" data-name="Group 266" transform="translate(182.2 288.2)">
        <g id="Group-3" data-name="Group">
          <text id="_180_" data-name="–180 " transform="translate(0 6.667)" font-size="13.33" font-family="ArialMT, Arial"><tspan x="-16.679" y="0">–180 </tspan></text>
          <text id="o-3" data-name="o" transform="translate(34)" font-size="10.66" font-family="ArialMT, Arial"><tspan x="-2.964" y="0">o</tspan></text>
        </g>
      </g>
      <path id="Path_679" data-name="Path 679" d="M255.6,310v-3.7" fill="none" stroke="#000" stroke-width="1"/>
      <g id="Group_267" data-name="Group 267" transform="translate(255.6 288.2)">
        <g id="Group-4" data-name="Group">
          <text id="_90_" data-name="–90 " transform="translate(0 6.667)" font-size="13.33" font-family="ArialMT, Arial"><tspan x="-12.972" y="0">–90 </tspan></text>
          <text id="o-4" data-name="o" transform="translate(26)" font-size="10.66" font-family="ArialMT, Arial"><tspan x="-2.964" y="0">o</tspan></text>
        </g>
      </g>
      <path id="Path_680" data-name="Path 680" d="M402.4,310v-3.7" fill="none" stroke="#000" stroke-width="1"/>
      <g id="Group_268" data-name="Group 268" transform="translate(402.4 288.2)">
        <g id="Group-5" data-name="Group">
          <text id="_90_2" data-name="90 " transform="translate(0 6.667)" font-size="13.33" font-family="ArialMT, Arial"><tspan x="-9.265" y="0">90 </tspan></text>
          <text id="o-5" data-name="o" transform="translate(18)" font-size="10.66" font-family="ArialMT, Arial"><tspan x="-2.964" y="0">o</tspan></text>
        </g>
      </g>
      <path id="Path_681" data-name="Path 681" d="M475.8,310v-3.7" fill="none" stroke="#000" stroke-width="1"/>
      <g id="Group_269" data-name="Group 269" transform="translate(475.8 288.2)">
        <g id="Group-6" data-name="Group">
          <text id="_180_2" data-name="180 " transform="translate(0 6.667)" font-size="13.33" font-family="ArialMT, Arial"><tspan x="-12.972" y="0">180 </tspan></text>
          <text id="o-6" data-name="o" transform="translate(26)" font-size="10.66" font-family="ArialMT, Arial"><tspan x="-2.964" y="0">o</tspan></text>
        </g>
      </g>
      <path id="Path_682" data-name="Path 682" d="M549.3,310v-3.7" fill="none" stroke="#000" stroke-width="1"/>
      <g id="Group_270" data-name="Group 270" transform="translate(549.3 288.2)">
        <g id="Group-7" data-name="Group">
          <text id="_270_2" data-name="270 " transform="translate(0 6.667)" font-size="13.33" font-family="ArialMT, Arial"><tspan x="-12.972" y="0">270 </tspan></text>
          <text id="o-7" data-name="o" transform="translate(26)" font-size="10.66" font-family="ArialMT, Arial"><tspan x="-2.964" y="0">o</tspan></text>
        </g>
      </g>
      <path id="Path_683" data-name="Path 683" d="M622.7,310v-3.7" fill="none" stroke="#000" stroke-width="1"/>
      <g id="Group_271" data-name="Group 271" transform="translate(622.7 288.2)">
        <g id="Group-8" data-name="Group">
          <text id="_360_2" data-name="360 " transform="translate(0 6.667)" font-size="13.33" font-family="ArialMT, Arial"><tspan x="-12.972" y="0">360 </tspan></text>
          <text id="o-8" data-name="o" transform="translate(26)" font-size="10.66" font-family="ArialMT, Arial"><tspan x="-2.964" y="0">o</tspan></text>
        </g>
      </g>
    </g>
    <g id="Group_275" data-name="Group 275">
      <g id="Group_273" data-name="Group 273">
        <path id="Path_684" data-name="Path 684" d="M630.7,310v-3.4l6,3.4-6,3.4Z"/>
      </g>
      <path id="Path_685" data-name="Path 685" d="M630.7,310v-3.4l6,3.4-6,3.4V310M21.3,310H630.7" fill="none" stroke="#000" stroke-width="2"/>
      <g id="Group_274" data-name="Group 274">
        <path id="Path_686" data-name="Path 686" d="M329,9.9h-3.4l3.4-6,3.4,6Z"/>
      </g>
      <path id="Path_687" data-name="Path 687" d="M329,9.9h-3.4l3.4-6,3.4,6H329m0,606.2V9.9" fill="none" stroke="#000" stroke-width="2"/>
    </g>
    <g id="Group_276" data-name="Group 276">
      <path id="Path_688" data-name="Path 688" d="M35.3,606.2V13.8M182.2,606.2V13.8M475.8,606.2V13.8M622.7,606.2V13.8" fill="none" stroke="gray" stroke-width="1"/>
    </g>
    <g id="Group_277" data-name="Group 277">
      <path id="Path_689" data-name="Path 689" d="M21.3,469.6l.6,7.8.6,8.5.6,9.3.7,10.4.6,11.4.6,12.8.6,14.4.6,16.3.6,18.7.7,21.5.1,5.5M43.1,13.8l.4,16.1L44.1,50l.6,17.5.6,15.3.6,13.7.7,12.1.6,10.9.6,9.8.6,9,.6,8.1.6,7.5.7,6.9.6,6.3.6,5.9.6,5.4.6,5.1.6,4.8.6,4.5.7,4.1.6,4,.6,3.7.6,3.5.6,3.4.6,3.1.7,3,.6,2.9.6,2.7.6,2.6.6,2.5.6,2.4L62,233l.6,2.1.6,2.2.6,2,.6,1.9.6,1.9.7,1.8.6,1.8.6,1.7.6,1.6.6,1.6.6,1.5.6,1.5.7,1.5.6,1.4.6,1.3.6,1.4.6,1.3.6,1.2.7,1.3.6,1.2.6,1.1.6,1.2.6,1.1.6,1.1.7,1.1.6,1,.6,1.1.6,1,.6,1,.6.9.7,1,.6.9.6.9.6.9.6.9.6.9.6.9.7.8.6.9.6.8.6.8.6.8.6.8.7.8.6.8.6.7.6.8.6.7.6.8.7.7.6.8.6.7.6.7.6.7.6.7.7.7.6.7.6.7.6.7.6.7.6.6.7.7.6.7.6.7.6.6.6.7.6.7.6.6.7.7.6.6.6.7.6.6.6.7.6.6.7.7.6.6.6.7.6.6.6.7.6.6.7.7.6.6.6.7.6.7.6.6.6.7.7.6.6.7.6.7.6.6.6.7.6.7.6.7.7.7.6.7.6.7.6.7.6.7.6.7.7.7.6.7.6.8.6.7.6.7.6.8.7.7.6.8.6.8.6.8.6.8.6.8.7.8.6.8.6.9.6.8.6.9.6.9.6.9.7.9.6.9.6.9.6,1,.6,1,.6.9.7,1.1.6,1,.6,1,.6,1.1.6,1.1.6,1.1.7,1.2.6,1.2.6,1.2.6,1.2.6,1.3.6,1.3.7,1.3.6,1.4.6,1.4.6,1.4.6,1.5.6,1.6.6,1.6.7,1.6.6,1.7.6,1.8.6,1.8.6,1.9.6,1.9.7,2.1.6,2.1.6,2.2.6,2.3.6,2.4.6,2.5.7,2.6.6,2.7.6,2.9.6,3,.6,3.2.6,3.3.7,3.6.6,3.7.6,4,.6,4.2.6,4.5.6,4.8.6,5.1.7,5.5.6,6,.6,6.4.6,6.9.6,7.5.6,8.3.7,9,.6,9.9.6,11,.6,12.3.6,13.8.6,15.6.7,17.7.6,20.4.3,13.8M189.9,13.8l.2,7.9.6,21.2.6,18.4.6,16.1.7,14.2.6,12.7.6,11.3.6,10.2.6,9.3.6,8.4.6,7.7.7,7.1.6,6.5.6,6.1.6,5.6.6,5.2.6,4.9.7,4.5.6,4.3.6,4.1.6,3.8.6,3.6.6,3.3.7,3.3.6,3,.6,2.9.6,2.8.6,2.7.6,2.5.7,2.4.6,2.3.6,2.2.6,2.2.6,2,.6,2,.6,1.9.7,1.9.6,1.7.6,1.7.6,1.7.6,1.6.6,1.6.7,1.5.6,1.4.6,1.5.6,1.3.6,1.4.6,1.3.7,1.3.6,1.2.6,1.2.6,1.2.6,1.2.6,1.1.7,1.1.6,1.1.6,1,.6,1.1.6,1,.6,1,.6,1,.7.9.6,1,.6.9.6.9.6.9.6.9.7.9.6.8.6.9.6.8.6.8.6.8.7.8.6.8.6.8.6.8.6.7.6.8.7.7.6.8.6.7.6.7.6.7.6.7.6.8.7.7.6.7.6.6.6.7.6.7.6.7.7.7.6.6.6.7.6.7.6.6.6.7.7.7.6.6.6.7.6.6.6.7.6.6.7.7.6.6.6.7.6.6.6.7.6.6.7.7.6.7.6.6.6.7.6.6.6.7.6.6.7.7.6.7.6.6.6.7.6.7.6.7.7.6.6.7.6.7.6.7.6.7.6.7.7.7.6.7.6.8.6.7.6.7.6.8.7.7.6.8.6.7.6.8.6.8.6.8.6.8.7.8.6.8.6.9.6.8.6.9.6.8.7.9.6.9.6.9.6,1,.6.9.6,1,.7,1,.6,1,.6,1,.6,1.1.6,1,.6,1.1.7,1.1.6,1.2.6,1.1.6,1.2.6,1.2.6,1.3.6,1.3.7,1.3.6,1.4.6,1.4.6,1.4.6,1.5.6,1.5.7,1.6.6,1.6.6,1.7.6,1.7.6,1.8.6,1.9.7,1.9.6,2,.6,2.1.6,2.2.6,2.2.6,2.4.7,2.4.6,2.6.6,2.7.6,2.8.6,3,.6,3.1.6,3.3.7,3.5.6,3.6.6,3.9.6,4.1.6,4.4.6,4.7.7,5,.6,5.4.6,5.7.6,6.2.6,6.8.6,7.3.7,7.9.6,8.7.6,9.6.6,10.6.6,11.8.6,13.2.7,14.9.6,16.9.6,19.3.6,21.7M336.7,13.8l.6,21.7.6,19.3.6,16.9.7,14.9.6,13.2.6,11.8.6,10.6.6,9.6.6,8.7.7,7.9.6,7.3.6,6.8.6,6.2.6,5.7.6,5.4.7,5,.6,4.7.6,4.4.6,4.1.6,3.9.6,3.6.7,3.5.6,3.3.6,3.1.6,3,.6,2.8.6,2.7.6,2.6.7,2.4.6,2.4.6,2.2.6,2.2.6,2.1.6,2,.7,1.9.6,1.9.6,1.8.6,1.7.6,1.7.6,1.6.7,1.6.6,1.5.6,1.5.6,1.4.6,1.4.6,1.4.7,1.3.6,1.3.6,1.3.6,1.2.6,1.2.6,1.1.6,1.2.7,1.1.6,1.1.6,1,.6,1.1.6,1,.6,1,.7,1,.6,1,.6.9.6,1,.6.9.6.9.7.9.6.8.6.9.6.8.6.9.6.8.7.8.6.8.6.8.6.8.6.8.6.7.6.8.7.7.6.8.6.7.6.7.6.8.6.7.7.7.6.7.6.7.6.7.6.7.6.7.7.6.6.7.6.7.6.7.6.6.6.7.7.7.6.6.6.7.6.6.6.7.6.6.6.7.7.7.6.6.6.7.6.6.6.7.6.6.7.7.6.6.6.7.6.6.6.7.6.6.7.7.6.7.6.6.6.7.6.7.6.6.7.7.6.7.6.7.6.7.6.6.6.7.7.7.6.8.6.7.6.7.6.7.6.7.6.8.7.7.6.8.6.7.6.8.6.8.6.8.7.8.6.8.6.8.6.8.6.9.6.8.7.9.6.9.6.9.6.9.6.9.6,1,.7.9.6,1,.6,1,.6,1,.6,1.1.6,1,.6,1.1.7,1.1.6,1.1.6,1.2.6,1.2.6,1.2.6,1.2.7,1.3.6,1.3.6,1.4.6,1.3.6,1.5.6,1.4.7,1.5.6,1.6.6,1.6.6,1.7.6,1.7.6,1.7.7,1.9.6,1.9.6,2,.6,2,.6,2.2.6,2.2.6,2.3.7,2.4.6,2.5.6,2.7.6,2.8.6,2.9.6,3,.7,3.3.6,3.3.6,3.6.6,3.8.6,4.1.6,4.3.7,4.5.6,4.9.6,5.2.6,5.6.6,6.1.6,6.5.7,7.1.6,7.7.6,8.4.6,9.3.6,10.2.6,11.3.6,12.7.7,14.2.6,16.1.6,18.4.6,21.2.2,7.9" fill="none" stroke="#0975b7" stroke-width="2"/>
      <path id="Path_690" data-name="Path 690" d="M483.6,13.8l.3,13.8.6,20.4.7,17.7.6,15.6.6,13.8.6,12.3.6,11,.6,9.9.7,9,.6,8.3.6,7.5.6,6.9.6,6.4.6,6,.7,5.5.6,5.1.6,4.8.6,4.5.6,4.2.6,4,.6,3.7.7,3.6.6,3.3.6,3.2.6,3,.6,2.9.6,2.7.7,2.6.6,2.5.6,2.4.6,2.3.6,2.2.6,2.1.7,2.1.6,1.9.6,1.9.6,1.8.6,1.8.6,1.7.7,1.6.6,1.6.6,1.6.6,1.5.6,1.4.6,1.4.6,1.4.7,1.3.6,1.3.6,1.3.6,1.2.6,1.2.6,1.2.7,1.2.6,1.1.6,1.1.6,1.1.6,1,.6,1,.7,1.1.6.9.6,1,.6,1,.6.9.6.9.7.9.6.9.6.9.6.9.6.8.6.9.6.8.7.8.6.8.6.8.6.8.6.8.6.8.7.7.6.8.6.7.6.7.6.8.6.7.7.7.6.7.6.7.6.7.6.7.6.7.7.7.6.7.6.7.6.7.6.6.6.7.6.7.7.6.6.7.6.6.6.7.6.7.6.6.7.7.6.6.6.7.6.6.6.7.6.6.7.7.6.6.6.7.6.6.6.7.6.6.7.7.6.6.6.7.6.7.6.6.6.7.6.7.7.7.6.6.6.7.6.7.6.7.6.7.7.7.6.7.6.7.6.7.6.7.6.8.7.7.6.8.6.7.6.8.6.7.6.8.7.8.6.8.6.8.6.8.6.8.6.9.7.8.6.9.6.9.6.9.6.9.6.9.6.9.7,1,.6.9.6,1,.6,1,.6,1.1.6,1,.7,1.1.6,1.1.6,1.1.6,1.2.6,1.1.6,1.2.7,1.3.6,1.2.6,1.3.6,1.4.6,1.3.6,1.4.7,1.5.6,1.5.6,1.5.6,1.6.6,1.6.6,1.7.6,1.8.7,1.8.6,1.9.6,1.9.6,2,.6,2.2.6,2.1.7,2.3.6,2.4.6,2.5.6,2.6.6,2.7.6,2.9.7,3,.6,3.1.6,3.4.6,3.5.6,3.7.6,4,.7,4.1.6,4.5.6,4.8.6,5.1.6,5.4.6,5.9.6,6.3.7,6.9.6,7.5.6,8.1.6,9,.6,9.8.6,10.9.7,12.1.6,13.7.6,15.3.6,17.5.6,20.1.4,16.1M630.4,13.8l.1,5.5.7,21.5.6,18.7.6,16.3.6,14.4.6,12.8.6,11.4.7,10.4.6,9.3.6,8.5.6,7.8" fill="none" stroke="#0975b7" stroke-width="2"/>
    </g>
  </g>
</svg>
