<svg xmlns="http://www.w3.org/2000/svg" width="633.4" height="614.228" viewBox="0 0 633.4 614.228">
  <g id="cosec_prop" transform="translate(-18.3 -1.872)">
    <g id="Group_238" data-name="Group 238">
      <path id="Path_620" data-name="Path 620" d="M329,606.2h-3.7m3.7,0h3.7" fill="none" stroke="#000" stroke-width="1"/>
      <g id="Group_210" data-name="Group 210" transform="translate(322.1 609.9)">
        <text id="_-6" data-name="-6" font-size="13.33" font-family="ArialMT, Arial"><tspan x="-11.853" y="0">-6</tspan></text>
      </g>
      <path id="Path_621" data-name="Path 621" d="M329,556.8h-3.7m3.7,0h3.7" fill="none" stroke="#000" stroke-width="1"/>
      <g id="Group_211" data-name="Group 211" transform="translate(322.1 560.5)">
        <text id="_-5" data-name="-5" font-size="13.33" font-family="ArialMT, Arial"><tspan x="-11.853" y="0">-5</tspan></text>
      </g>
      <path id="Path_622" data-name="Path 622" d="M329,507.5h-3.7m3.7,0h3.7" fill="none" stroke="#000" stroke-width="1"/>
      <g id="Group_212" data-name="Group 212" transform="translate(322.1 511.2)">
        <text id="_-4" data-name="-4" font-size="13.33" font-family="ArialMT, Arial"><tspan x="-11.853" y="0">-4</tspan></text>
      </g>
      <path id="Path_623" data-name="Path 623" d="M329,458.1h-3.7m3.7,0h3.7" fill="none" stroke="#000" stroke-width="1"/>
      <g id="Group_213" data-name="Group 213" transform="translate(322.1 461.8)">
        <text id="_-3" data-name="-3" font-size="13.33" font-family="ArialMT, Arial"><tspan x="-11.853" y="0">-3</tspan></text>
      </g>
      <path id="Path_624" data-name="Path 624" d="M329,408.7h-3.7m3.7,0h3.7" fill="none" stroke="#000" stroke-width="1"/>
      <g id="Group_214" data-name="Group 214" transform="translate(322.1 412.4)">
        <text id="_-2" data-name="-2" font-size="13.33" font-family="ArialMT, Arial"><tspan x="-11.853" y="0">-2</tspan></text>
      </g>
      <path id="Path_625" data-name="Path 625" d="M329,359.4h-3.7m3.7,0h3.7" fill="none" stroke="#000" stroke-width="1"/>
      <g id="Group_215" data-name="Group 215" transform="translate(322.1 363.1)">
        <text id="_-1" data-name="-1" font-size="13.33" font-family="ArialMT, Arial"><tspan x="-11.853" y="0">-1</tspan></text>
      </g>
      <path id="Path_626" data-name="Path 626" d="M329,260.6h-3.7m3.7,0h3.7" fill="none" stroke="#000" stroke-width="1"/>
      <g id="Group_216" data-name="Group 216" transform="translate(322.1 264.3)">
        <text id="_1" data-name="1" font-size="13.33" font-family="ArialMT, Arial"><tspan x="-7.414" y="0">1</tspan></text>
      </g>
      <path id="Path_627" data-name="Path 627" d="M329,211.3h-3.7m3.7,0h3.7" fill="none" stroke="#000" stroke-width="1"/>
      <g id="Group_217" data-name="Group 217" transform="translate(322.1 215)">
        <text id="_2" data-name="2" font-size="13.33" font-family="ArialMT, Arial"><tspan x="-7.414" y="0">2</tspan></text>
      </g>
      <path id="Path_628" data-name="Path 628" d="M329,161.9h-3.7m3.7,0h3.7" fill="none" stroke="#000" stroke-width="1"/>
      <g id="Group_218" data-name="Group 218" transform="translate(322.1 165.6)">
        <text id="_3" data-name="3" font-size="13.33" font-family="ArialMT, Arial"><tspan x="-7.414" y="0">3</tspan></text>
      </g>
      <path id="Path_629" data-name="Path 629" d="M329,112.5h-3.7m3.7,0h3.7" fill="none" stroke="#000" stroke-width="1"/>
      <g id="Group_219" data-name="Group 219" transform="translate(322.1 116.2)">
        <text id="_4" data-name="4" font-size="13.33" font-family="ArialMT, Arial"><tspan x="-7.414" y="0">4</tspan></text>
      </g>
      <path id="Path_630" data-name="Path 630" d="M329,63.2h-3.7m3.7,0h3.7" fill="none" stroke="#000" stroke-width="1"/>
      <g id="Group_220" data-name="Group 220" transform="translate(322.1 66.9)">
        <text id="_5" data-name="5" font-size="13.33" font-family="ArialMT, Arial"><tspan x="-7.414" y="0">5</tspan></text>
      </g>
      <path id="Path_631" data-name="Path 631" d="M329,13.8h-3.7m3.7,0h3.7" fill="none" stroke="#000" stroke-width="1"/>
      <g id="Group_221" data-name="Group 221" transform="translate(322.1 17.5)">
        <text id="_6" data-name="6" font-size="13.33" font-family="ArialMT, Arial"><tspan x="-7.414" y="0">6</tspan></text>
      </g>
      <path id="Path_632" data-name="Path 632" d="M35.3,310v3.7m0-3.7v-3.7" fill="none" stroke="#000" stroke-width="1"/>
      <g id="Group_222" data-name="Group 222" transform="translate(35.3 332.5)">
        <text id="_2π" data-name="–2π" font-size="13.33" font-family="ArialMT, Arial"><tspan x="-12.012" y="0">–2π</tspan></text>
      </g>
      <path id="Path_633" data-name="Path 633" d="M108.7,310v3.7m0-3.7v-3.7" fill="none" stroke="#000" stroke-width="1"/>
      <g id="Group_223" data-name="Group 223" transform="translate(108.7 332.5)">
        <text id="_3_2_π" data-name="–3/2 π" font-size="13.33" font-family="ArialMT, Arial"><tspan x="-19.422" y="0">–3/2 π</tspan></text>
      </g>
      <path id="Path_634" data-name="Path 634" d="M182.2,310v3.7m0-3.7v-3.7" fill="none" stroke="#000" stroke-width="1"/>
      <g id="Group_224" data-name="Group 224" transform="translate(182.2 332.5)">
        <text id="_π" data-name="–π" font-size="13.33" font-family="ArialMT, Arial"><tspan x="-8.305" y="0">–π</tspan></text>
      </g>
      <path id="Path_635" data-name="Path 635" d="M255.6,310v3.7m0-3.7v-3.7" fill="none" stroke="#000" stroke-width="1"/>
      <g id="Group_225" data-name="Group 225" transform="translate(255.6 332.5)">
        <text id="_1_2_π" data-name="–1/2 π" font-size="13.33" font-family="ArialMT, Arial"><tspan x="-19.422" y="0">–1/2 π</tspan></text>
      </g>
      <path id="Path_636" data-name="Path 636" d="M375.7,310v3.7m0-3.7v-3.7" fill="none" stroke="#000" stroke-width="1"/>
      <path id="Path_637" data-name="Path 637" d="M402.4,310v3.7m0-3.7v-3.7" fill="none" stroke="#000" stroke-width="1"/>
      <g id="Group_226" data-name="Group 226" transform="translate(402.4 332.5)">
        <text id="_1_2_π-2" data-name="1/2 π" font-size="13.33" font-family="ArialMT, Arial"><tspan x="-15.715" y="0">1/2 π</tspan></text>
      </g>
      <path id="Path_638" data-name="Path 638" d="M475.8,310v3.7m0-3.7v-3.7" fill="none" stroke="#000" stroke-width="1"/>
      <g id="Group_227" data-name="Group 227" transform="translate(475.8 332.5)">
        <text id="π" font-size="13.33" font-family="ArialMT, Arial"><tspan x="-4.598" y="0">π</tspan></text>
      </g>
      <path id="Path_639" data-name="Path 639" d="M549.3,310v3.7m0-3.7v-3.7" fill="none" stroke="#000" stroke-width="1"/>
      <g id="Group_228" data-name="Group 228" transform="translate(549.3 332.5)">
        <text id="_3_2_π-2" data-name="3/2 π" font-size="13.33" font-family="ArialMT, Arial"><tspan x="-15.715" y="0">3/2 π</tspan></text>
      </g>
      <path id="Path_640" data-name="Path 640" d="M622.7,310v3.7m0-3.7v-3.7" fill="none" stroke="#000" stroke-width="1"/>
      <g id="Group_229" data-name="Group 229" transform="translate(622.7 332.5)">
        <text id="_2π-2" data-name="2π" font-size="13.33" font-family="ArialMT, Arial"><tspan x="-8.305" y="0">2π</tspan></text>
      </g>
      <path id="Path_641" data-name="Path 641" d="M35.3,310v-3.7" fill="none" stroke="#000" stroke-width="1"/>
      <g id="Group_230" data-name="Group 230" transform="translate(35.3 288.2)">
        <g id="Group">
          <text id="_360_" data-name="–360 " font-size="13.33" font-family="ArialMT, Arial"><tspan x="-16.679" y="0">–360 </tspan></text>
          <text id="o" transform="translate(34 -6.667)" font-size="10.66" font-family="ArialMT, Arial"><tspan x="-2.964" y="0">o</tspan></text>
        </g>
      </g>
      <path id="Path_642" data-name="Path 642" d="M108.7,310v-3.7" fill="none" stroke="#000" stroke-width="1"/>
      <g id="Group_231" data-name="Group 231" transform="translate(108.7 288.2)">
        <g id="Group-2" data-name="Group">
          <text id="_270_" data-name="–270 " transform="translate(0 6.667)" font-size="13.33" font-family="ArialMT, Arial"><tspan x="-16.679" y="0">–270 </tspan></text>
          <text id="o-2" data-name="o" transform="translate(34)" font-size="10.66" font-family="ArialMT, Arial"><tspan x="-2.964" y="0">o</tspan></text>
        </g>
      </g>
      <path id="Path_643" data-name="Path 643" d="M182.2,310v-3.7" fill="none" stroke="#000" stroke-width="1"/>
      <g id="Group_232" data-name="Group 232" transform="translate(182.2 288.2)">
        <g id="Group-3" data-name="Group">
          <text id="_180_" data-name="–180 " transform="translate(0 6.667)" font-size="13.33" font-family="ArialMT, Arial"><tspan x="-16.679" y="0">–180 </tspan></text>
          <text id="o-3" data-name="o" transform="translate(34)" font-size="10.66" font-family="ArialMT, Arial"><tspan x="-2.964" y="0">o</tspan></text>
        </g>
      </g>
      <path id="Path_644" data-name="Path 644" d="M255.6,310v-3.7" fill="none" stroke="#000" stroke-width="1"/>
      <g id="Group_233" data-name="Group 233" transform="translate(255.6 288.2)">
        <g id="Group-4" data-name="Group">
          <text id="_90_" data-name="–90 " transform="translate(0 6.667)" font-size="13.33" font-family="ArialMT, Arial"><tspan x="-12.972" y="0">–90 </tspan></text>
          <text id="o-4" data-name="o" transform="translate(26)" font-size="10.66" font-family="ArialMT, Arial"><tspan x="-2.964" y="0">o</tspan></text>
        </g>
      </g>
      <path id="Path_645" data-name="Path 645" d="M402.4,310v-3.7" fill="none" stroke="#000" stroke-width="1"/>
      <g id="Group_234" data-name="Group 234" transform="translate(402.4 288.2)">
        <g id="Group-5" data-name="Group">
          <text id="_90_2" data-name="90 " transform="translate(0 6.667)" font-size="13.33" font-family="ArialMT, Arial"><tspan x="-9.265" y="0">90 </tspan></text>
          <text id="o-5" data-name="o" transform="translate(18)" font-size="10.66" font-family="ArialMT, Arial"><tspan x="-2.964" y="0">o</tspan></text>
        </g>
      </g>
      <path id="Path_646" data-name="Path 646" d="M475.8,310v-3.7" fill="none" stroke="#000" stroke-width="1"/>
      <g id="Group_235" data-name="Group 235" transform="translate(475.8 288.2)">
        <g id="Group-6" data-name="Group">
          <text id="_180_2" data-name="180 " transform="translate(0 6.667)" font-size="13.33" font-family="ArialMT, Arial"><tspan x="-12.972" y="0">180 </tspan></text>
          <text id="o-6" data-name="o" transform="translate(26)" font-size="10.66" font-family="ArialMT, Arial"><tspan x="-2.964" y="0">o</tspan></text>
        </g>
      </g>
      <path id="Path_647" data-name="Path 647" d="M549.3,310v-3.7" fill="none" stroke="#000" stroke-width="1"/>
      <g id="Group_236" data-name="Group 236" transform="translate(549.3 288.2)">
        <g id="Group-7" data-name="Group">
          <text id="_270_2" data-name="270 " transform="translate(0 6.667)" font-size="13.33" font-family="ArialMT, Arial"><tspan x="-12.972" y="0">270 </tspan></text>
          <text id="o-7" data-name="o" transform="translate(26)" font-size="10.66" font-family="ArialMT, Arial"><tspan x="-2.964" y="0">o</tspan></text>
        </g>
      </g>
      <path id="Path_648" data-name="Path 648" d="M622.7,310v-3.7" fill="none" stroke="#000" stroke-width="1"/>
      <g id="Group_237" data-name="Group 237" transform="translate(622.7 288.2)">
        <g id="Group-8" data-name="Group">
          <text id="_360_2" data-name="360 " transform="translate(0 6.667)" font-size="13.33" font-family="ArialMT, Arial"><tspan x="-12.972" y="0">360 </tspan></text>
          <text id="o-8" data-name="o" transform="translate(26)" font-size="10.66" font-family="ArialMT, Arial"><tspan x="-2.964" y="0">o</tspan></text>
        </g>
      </g>
    </g>
    <g id="Group_241" data-name="Group 241">
      <g id="Group_239" data-name="Group 239">
        <path id="Path_649" data-name="Path 649" d="M630.7,310v-3.4l6,3.4-6,3.4Z"/>
      </g>
      <path id="Path_650" data-name="Path 650" d="M630.7,310v-3.4l6,3.4-6,3.4V310M21.3,310H630.7" fill="none" stroke="#000" stroke-width="2"/>
      <g id="Group_240" data-name="Group 240">
        <path id="Path_651" data-name="Path 651" d="M329,9.9h-3.4l3.4-6,3.4,6Z"/>
      </g>
      <path id="Path_652" data-name="Path 652" d="M329,9.9h-3.4l3.4-6,3.4,6H329m0,606.2V9.9" fill="none" stroke="#000" stroke-width="2"/>
    </g>
    <g id="Group_242" data-name="Group 242">
      <path id="Path_653" data-name="Path 653" d="M21.3,359.4H636.7M21.3,260.6H636.7M35.3,606.2V13.8M182.2,606.2V13.8M475.8,606.2V13.8M622.7,606.2V13.8" fill="none" stroke="gray" stroke-width="1"/>
    </g>
    <g id="Group_243" data-name="Group 243">
      <path id="Path_654" data-name="Path 654" d="M21.3,477.1l.6,7.4.6,8.2.6,9,.7,10,.6,11.1.6,12.5.6,14.1.6,15.9.6,18.4.7,21.2v1.3M43.2,13.8l.3,11.8.6,19.8.6,17.1.6,15,.6,13.3.7,11.8.6,10.6.6,9.5.6,8.6.6,7.8.6,7.2.7,6.5.6,6,.6,5.6.6,5.1.6,4.7.6,4.5.6,4.1.7,3.8.6,3.6.6,3.4.6,3.2.6,3,.6,2.8.7,2.7.6,2.5.6,2.3.6,2.3.6,2.1.6,2.1.7,1.9.6,1.8.6,1.8.6,1.6.6,1.6.6,1.6.7,1.4.6,1.4.6,1.3.6,1.3.6,1.2.6,1.2.6,1.1.7,1.1.6,1,.6,1,.6,1,.6.9.6.9.7.8.6.8.6.8.6.7.6.8.6.7.7.6.6.7.6.6.6.6.6.6.6.6.7.5.6.5.6.5.6.5.6.5.6.4.6.4.7.4.6.4.6.4.6.4.6.3.6.4.7.3.6.3.6.3.6.3.6.3.6.2.7.3.6.2.6.3.6.2.6.2.6.2.7.2.6.2.6.1.6.2.6.1.6.2.7.1.6.1.6.1.6.1.6.1.6.1.6.1h.7l.6.1h.6l.6.1h4.9l.7-.1h.6l.6-.1h.6l.6-.1.6-.1.7-.1.6-.1.6-.1.6-.1.6-.2.6-.1.6-.1.7-.2.6-.2.6-.1.6-.2.6-.2.6-.2.7-.3.6-.2.6-.2.6-.3.6-.2.6-.3.7-.3.6-.3.6-.3.6-.4.6-.3.6-.3.7-.4.6-.4.6-.4.6-.4.6-.4.6-.5.6-.5.7-.4.6-.5.6-.6.6-.5.6-.6.6-.5.7-.6.6-.7.6-.6.6-.7.6-.7.6-.7.7-.8.6-.8.6-.8.6-.8.6-.9.6-.9.7-1,.6-1,.6-1,.6-1.1.6-1.1.6-1.2.6-1.2.7-1.3.6-1.3.6-1.4.6-1.5.6-1.5.6-1.6.7-1.7.6-1.8.6-1.8.6-1.9.6-2.1.6-2.1.7-2.3.6-2.4.6-2.5.6-2.7.6-2.8.6-3,.7-3.2.6-3.4.6-3.7.6-3.8.6-4.2.6-4.5.6-4.7.7-5.2.6-5.6.6-6.1.6-6.6.6-7.2.6-7.9.7-8.7.6-9.6.6-10.7.6-11.9.6-13.5.6-15.2.7-17.4.6-20.1.2-9.5M190,606.2l.1-3.7.6-20.9.6-18.1.6-15.7.7-13.9.6-12.3.6-11,.6-9.9.6-8.9.6-8.1.6-7.4.7-6.8.6-6.2.6-5.7.6-5.2.6-4.9.6-4.6.7-4.2.6-3.9.6-3.7.6-3.5.6-3.2.6-3.1.7-2.9.6-2.7.6-2.6.6-2.4.6-2.3.6-2.2.7-2,.6-2,.6-1.9.6-1.7.6-1.7.6-1.7.6-1.5.7-1.5.6-1.4.6-1.3.6-1.3.6-1.3.6-1.2.7-1.1.6-1.1.6-1,.6-1,.6-1,.6-.9.7-.9.6-.9.6-.8.6-.8.6-.8.6-.7.7-.7.6-.7.6-.7.6-.6.6-.6.6-.6.6-.6.7-.5.6-.5.6-.5.6-.5.6-.5.6-.4.7-.5.6-.4.6-.4.6-.4.6-.4.6-.3.7-.4.6-.3.6-.3.6-.3.6-.3.6-.3.7-.3.6-.2.6-.3.6-.2.6-.2.6-.2.6-.2.7-.2.6-.2.6-.2.6-.1.6-.2.6-.1.7-.1.6-.2.6-.1.6-.1.6-.1.6-.1h.7l.6-.1.6-.1h.6l.6-.1h5l.6.1h.6l.6.1h.6l.6.1.6.1.7.1.6.1.6.1.6.1.6.1.6.1.7.2.6.1.6.2.6.2.6.2.6.2.7.2.6.2.6.2.6.2.6.3.6.2.7.3.6.3.6.3.6.3.6.3.6.4.6.3.7.4.6.4.6.4.6.4.6.4.6.4.7.5.6.5.6.5.6.5.6.5.6.6.7.5.6.6.6.6.6.7.6.6.6.7.7.8.6.7.6.8.6.8.6.8.6.9.6.9.7.9.6,1,.6,1,.6,1.1.6,1.1.6,1.2.7,1.2.6,1.2.6,1.3.6,1.4.6,1.5.6,1.5.7,1.5.6,1.7.6,1.7.6,1.8.6,1.9.6,2,.7,2.1.6,2.3.6,2.3.6,2.5.6,2.6.6,2.8.6,2.9.7,3.1.6,3.4.6,3.5.6,3.8.6,4,.6,4.4.7,4.6.6,5.1.6,5.4.6,5.9.6,6.4.6,6.9.7,7.7.6,8.4.6,9.2.6,10.3.6,11.4.6,12.9.7,14.5.6,16.6.6,19,.5,17.3M336.8,13.8l.5,17.3.6,19,.6,16.6.7,14.5.6,12.9.6,11.4.6,10.3.6,9.2.6,8.4.7,7.7.6,6.9.6,6.4.6,5.9.6,5.4.6,5.1.7,4.6.6,4.4.6,4,.6,3.8.6,3.5.6,3.4.7,3.1.6,2.9.6,2.8.6,2.6.6,2.5.6,2.3.6,2.3.7,2.1.6,2,.6,1.9.6,1.8.6,1.7.6,1.7.7,1.5.6,1.5.6,1.5.6,1.4.6,1.3.6,1.2.7,1.2.6,1.2.6,1.1.6,1.1.6,1,.6,1,.7.9.6.9.6.9.6.8.6.8.6.8.6.7.7.8.6.7.6.6.6.7.6.6.6.6.7.5.6.6.6.5.6.5.6.5.6.5.7.5.6.4.6.4.6.4.6.4.6.4.7.4.6.3.6.4.6.3.6.3.6.3.6.3.7.3.6.2.6.3.6.2.6.2.6.2.7.2.6.2.6.2.6.2.6.2.6.1.7.2.6.1.6.1.6.1.6.1.6.1.7.1.6.1.6.1h.6l.6.1h.6l.6.1h5l.6-.1h.6l.6-.1.6-.1h.7l.6-.1.6-.1.6-.1.6-.1.6-.2.7-.1.6-.1.6-.2.6-.1.6-.2.6-.2.7-.2.6-.2.6-.2.6-.2.6-.2.6-.3.6-.2.7-.3.6-.3.6-.3.6-.3.6-.3.6-.3.7-.4.6-.3.6-.4.6-.4.6-.4.6-.4.7-.5.6-.4.6-.5.6-.5.6-.5.6-.5.7-.5.6-.6.6-.6.6-.6.6-.6.6-.7.6-.7.7-.7.6-.7.6-.8.6-.8.6-.8.6-.9.7-.9.6-.9.6-1,.6-1,.6-1,.6-1.1.7-1.1.6-1.2.6-1.3.6-1.3.6-1.3.6-1.4.7-1.5.6-1.5.6-1.7.6-1.7.6-1.7.6-1.9.6-2,.7-2,.6-2.2.6-2.3.6-2.4.6-2.6.6-2.7.7-2.9.6-3.1.6-3.2.6-3.5.6-3.7.6-3.9.7-4.2.6-4.6.6-4.9.6-5.2.6-5.7.6-6.2.7-6.8.6-7.4.6-8.1.6-8.9.6-9.9.6-11,.6-12.3.7-13.9.6-15.7.6-18.1.6-20.9.1-3.7" fill="none" stroke="#0975b7" stroke-width="2"/>
      <path id="Path_655" data-name="Path 655" d="M483.7,606.2l.2-9.5.6-20.1.7-17.4.6-15.2.6-13.5.6-11.9.6-10.7.6-9.6.7-8.7.6-7.9.6-7.2.6-6.6.6-6.1.6-5.6.7-5.2.6-4.7.6-4.5.6-4.2.6-3.8.6-3.7.6-3.4.7-3.2.6-3,.6-2.8.6-2.7.6-2.5.6-2.4.7-2.3.6-2.1.6-2.1.6-1.9.6-1.8.6-1.8.7-1.7.6-1.6.6-1.5.6-1.5.6-1.4.6-1.3.7-1.3.6-1.2.6-1.2.6-1.1.6-1.1.6-1,.6-1,.7-1,.6-.9.6-.9.6-.8.6-.8.6-.8.7-.8.6-.7.6-.7.6-.7.6-.6.6-.7.7-.6.6-.5.6-.6.6-.5.6-.6.6-.5.7-.4.6-.5.6-.5.6-.4.6-.4.6-.4.6-.4.7-.4.6-.3.6-.3.6-.4.6-.3.6-.3.7-.3.6-.3.6-.2.6-.3.6-.2.6-.2.7-.3.6-.2.6-.2.6-.2.6-.1.6-.2.7-.2.6-.1.6-.1.6-.2.6-.1.6-.1.6-.1.7-.1.6-.1.6-.1h.6l.6-.1h.6l.7-.1h4.9l.6.1h.6l.6.1h.7l.6.1.6.1.6.1.6.1.6.1.6.1.7.1.6.2.6.1.6.2.6.1.6.2.7.2.6.2.6.2.6.2.6.3.6.2.7.3.6.2.6.3.6.3.6.3.6.3.7.3.6.4.6.3.6.4.6.4.6.4.7.4.6.4.6.4.6.5.6.5.6.5.6.5.7.5.6.6.6.6.6.6.6.6.6.7.7.6.6.7.6.8.6.7.6.8.6.8.7.8.6.9.6.9.6,1,.6,1,.6,1,.7,1.1.6,1.1.6,1.2.6,1.2.6,1.3.6,1.3.6,1.4.7,1.4.6,1.6.6,1.6.6,1.6.6,1.8.6,1.8.7,1.9.6,2.1.6,2.1.6,2.3.6,2.3.6,2.5.7,2.7.6,2.8.6,3,.6,3.2.6,3.4.6,3.6.7,3.8.6,4.1.6,4.5.6,4.7.6,5.1.6,5.6.6,6,.7,6.5.6,7.2.6,7.8.6,8.6.6,9.5.6,10.6.7,11.8.6,13.3.6,15,.6,17.1.6,19.8.3,11.8M630.5,13.8v1.3l.7,21.2.6,18.4.6,15.9.6,14.1.6,12.5.6,11.1.7,10,.6,9,.6,8.2.6,7.4" fill="none" stroke="#0975b7" stroke-width="2"/>
    </g>
  </g>
</svg>
