<svg xmlns="http://www.w3.org/2000/svg" viewBox="0 0 154 154"><defs><style>.cls-1{fill:#666;}.cls-2,.cls-6{fill:none;}.cls-2{stroke:#707070;}.cls-3{fill:#707070;}.cls-4,.cls-5{isolation:isolate;}.cls-5{font-size:16px;font-family:TimesNewRomanPSMT, Times New Roman;}.cls-6{stroke:#1e5b80;stroke-width:2px;}</style></defs><g id="Layer_2" data-name="Layer 2"><g id="Layer_1-2" data-name="Layer 1"><g id="ic-decagon_" data-name="ic-decagon "><path id="Path_5" data-name="Path 5" class="cls-1" d="M77,154a77,77,0,1,1,77-77A77,77,0,0,1,77,154ZM77,1a76,76,0,1,0,76,76h0A76.1,76.1,0,0,0,77,1Z"/><path id="Path_6" data-name="Path 6" class="cls-1" d="M77,147a70,70,0,1,1,70-70A70,70,0,0,1,77,147ZM77,7.9A69.1,69.1,0,1,0,146.1,77h0A69.17,69.17,0,0,0,77,7.9Z"/><g id="Group_9" data-name="Group 9"><line id="Line_1" data-name="Line 1" class="cls-2" x1="4.5" y1="98.5" x2="74.5" y2="77.5"/><line id="Line_2" data-name="Line 2" class="cls-2" x1="32.5" y1="138.5" x2="75.5" y2="77.5"/><line id="Line_3" data-name="Line 3" class="cls-2" x1="77.5" y1="75.5" x2="96.5" y2="61.5"/><line id="Line_4" data-name="Line 4" class="cls-2" x1="113.5" y1="48.5" x2="132.5" y2="34.5"/><line id="Line_5" data-name="Line 5" class="cls-2" x1="76.5" y1="75.5" x2="76.5" y2="52.5"/><line id="Line_6" data-name="Line 6" class="cls-2" x1="76.5" y1="32.5" x2="76.5" y2="2.5"/></g><g id="Ellipse_1" data-name="Ellipse 1"><circle class="cls-3" cx="76.5" cy="77" r="3"/><circle class="cls-2" cx="76.5" cy="77" r="2.5"/></g><g id="R-3" class="cls-4"><text class="cls-5" transform="translate(71.66 47.96)">R</text></g><g id="r-4" class="cls-4"><text class="cls-5" transform="translate(102.34 60.96)">r</text></g><g id="y-2" class="cls-4"><text class="cls-5" transform="translate(44 99.96)">y</text></g><g id="x-2" class="cls-4"><text class="cls-5" transform="translate(113 125.96)">x</text></g><g id="a-2" class="cls-4"><text class="cls-5" transform="translate(7.45 129.46)">a</text></g><path id="Polygon_1" data-name="Polygon 1" class="cls-6" d="M148,100.18l-27.12,37.5L77,152,33.12,137.68,6,100.18V53.82l27.12-37.5L77,2l43.88,14.32L148,53.82Z"/></g></g></g></svg>