<?xml version="1.0" encoding="utf-8"?>
<!-- Generator: Adobe Illustrator 26.0.1, SVG Export Plug-In . SVG Version: 6.00 Build 0)  -->
<svg version="1.1" id="Layer_1" xmlns="http://www.w3.org/2000/svg" xmlns:xlink="http://www.w3.org/1999/xlink" x="0px" y="0px"
	 viewBox="0 0 333.8 273.6" style="enable-background:new 0 0 333.8 273.6;" xml:space="preserve">
<style type="text/css">
	.st0{fill:none;stroke:#2B2A29;stroke-width:0.5669;stroke-miterlimit:10;stroke-dasharray:2.8346,2.8346;}
	.st1{fill-rule:evenodd;clip-rule:evenodd;fill:#A6CDA9;}
	.st2{fill-rule:evenodd;clip-rule:evenodd;fill:#AD9986;}
	.st3{fill-rule:evenodd;clip-rule:evenodd;fill:#8A8886;}
	.st4{fill-rule:evenodd;clip-rule:evenodd;fill:#59250E;}
	.st5{fill-rule:evenodd;clip-rule:evenodd;fill:#F0F1F0;}
	.st6{fill-rule:evenodd;clip-rule:evenodd;fill:#FEFEFE;}
	.st7{fill-rule:evenodd;clip-rule:evenodd;fill:#FFFFFF;}
	.st8{fill:#2B2A29;}
	.st9{fill-rule:evenodd;clip-rule:evenodd;fill:#006633;fill-opacity:0.251;}
	.st10{font-family:'MyriadPro-Regular';}
	.st11{font-size:6.9994px;}
	.st12{font-size:6.9997px;}
	.st13{font-size:9.9996px;}
	.st14{fill-rule:evenodd;clip-rule:evenodd;fill:#D38C6C;}
	.st15{fill:none;stroke:#2B2A29;stroke-width:0.5669;stroke-miterlimit:10;stroke-opacity:0.2;}
	.st16{fill:none;stroke:#4D4D4D;stroke-width:0.5669;stroke-linejoin:round;stroke-miterlimit:10;}
</style>
<g id="Layer_x0020_1">
	<line class="st0" x1="78.4" y1="31.4" x2="5.2" y2="31.4"/>
	<line class="st0" x1="31.9" y1="168.8" x2="85.7" y2="168.8"/>
	<path class="st1" d="M189.8,249.7l-21.2-8.6l-1,0.1l3.5-0.4c0,0-3.3-55.4-2.9-73.8c0.1-5.3,0-14.9-8.9-19.3c-0.5-0.3-0.7,1-1.3,0.7
		l-17.3,6.1l-1.6,13.6c2.3,1.4,3.9,1.8,5.2,3.7l11.2,70.5l0.9-0.1c-0.3,1.3-1.2,7-0.3,12.6l40.2,0.4
		C196.4,255.4,198,250.6,189.8,249.7z"/>
	<path class="st1" d="M166.9,156c-1.6-3.9-4.4-7.6-9.6-9.1c-9.5-2.8-48.8-9.5-48.8-9.5s0.4-10.6-2.4-31.2c-1-7.2,0.3-19.7-7.1-33
		c-0.7-1.2-1.3-2.5-2-3.7c0.3,0.3,0.4,0.4,0.4,0.4s-0.8-4.7-2.6-7.8c-0.2-0.4-0.7-0.8-1.3-1.2c0-0.3,0.1-0.6,0.1-1l0,0
		c0.1-0.9,0.3-1.7,0.5-2.5l0-0.1c0.1-0.3,0.1-0.5,0.2-0.8l0,0c1.1-3.5,1.1-3.5,1.1-3.5s6.3,0,6.9-0.3l0,0h0c2.2-1.1,1-3.6,1-4.1
		c0-0.4,1.1-1.6,1.1-1.6l-0.1-1.2l0.6-1l0.3-2.7c0,0,1.4-0.4,2.1-0.8s0.7-1.5,0.7-1.5l-3.1-5l0.3-3.9l-1.1-7.5
		c1.1-0.6,1.6-3.7,1.6-3.7s0.5-4.2-13-5.7c-13.5-1.6-19.5,2.3-20.7,5.3s-4.4,13.1-1,19.6s5.3,9.4,5.3,9.4s0,3-0.1,5.4
		c-0.8-0.3-1.3-0.4-1.3-0.4l-1.8,4.2c0,0-10.3,13.7-8,25.7c2.7,13.9,9.2,33.4,9.6,55.9l0,0c-0.8,4.3-4.4,29.2,14.4,28
		c18.9-1.2,39.2,0.5,48.8,1.5c0.9,0.1,1.9,0.3,2.8,0.7V156H166.9z"/>
	<polygon class="st2" points="206.8,131.6 281.7,131.6 281.7,113.7 206.8,113.7 	"/>
	<path class="st3" d="M174.2,125l-25.3,3.8c-0.5,0.1-0.9,0.5-0.9,1.1l0,0c0,0.7,0.5,1.2,1.1,1.1l25.4-2.2c1.1-0.1,1.9-1.2,1.6-2.3
		C176,125.5,175.1,124.8,174.2,125z"/>
	<polygon class="st3" points="172.9,128.7 175.4,131.1 176.6,131.1 175.1,128.6 	"/>
	<path class="st4" d="M133,137.9H172v5.2h53.6c7.8,0,14.1,8.4,14.1,16.2v78.5c0,5.6-4.5,10.1-9.9,10.1H220c0,3.3-0.1,4.7,0,8.2h61.9
		v-8.2h-12.3c-5.5,0-9.9-4.5-9.9-10.1v-78.5c0-7.9,6.3-16.2,14.1-16.2h8.1v-5.2h5.9V131H133V137.9z"/>
	<path class="st1" d="M152.5,119.6l-13.3,3.8l0.1-1.1l-1-0.1l-0.1,1.5l0,0l0.3-2.4l-34.8-7.3l-9.9-32.4c0,0-2.9-10.7-10.6-10.5
		c-7.4,0.1-9.6,8.6-9.7,12.2C73.1,93.9,86,126.2,86,126.2c2.1,3.6,2.9,4.6,6.9,4.9l44.4-0.1l0.3-2.2l-0.1,1h0.1l-0.1,0.6l1.1,0.1
		l0-0.6l0.5,0c0.4,0.3,0.9,0.4,1.3,0.6c0.8,0.3,1.6,0.4,2.3,0.4c0.5,0,1,0,1.4-0.1c0.4,0,0.7-0.1,1-0.2c0.1,0,0.3-0.1,0.4-0.1
		c0.1,0,0.1-0.1,0.1-0.1l8.9-4.9l2.7,0.3l4.9,0.8c0.3,0,0.5,0,0.7,0l0.1,0c0.2,0,0.4,0,0.6-0.1l0.1,0c0.6-0.1,0.9-0.4,1-0.6
		c0.1,0,0.3,0.1,0.4,0.1c0.7,0.1,1.3,0.2,1.6,0.2c0.3,0,0.5,0,0.7,0h0.1c0.2,0,0.3-0.1,0.5-0.1l0.1,0c0.1,0,0.3-0.1,0.3-0.2l0.1-0.1
		l0.1-0.1c0.4-0.5,0.4-1,0.4-1l-15.5-4.9C153.3,119.5,152.9,119.5,152.5,119.6z"/>
	<path class="st3" d="M243.7,70.2c-0.3-1.4-1.7-3.4-2.8-4.4l-2.7-2.4c4.7-15.2,6.6-41.9,6.6-41.9l-2.9-0.9l-26.6,83.2l2.9,0.9
		c9.3-13.5,15.3-27,19.3-39l2,1.7c0.8,0.7,2,2.3,2.2,3.3l13.5,35.5c0.2,1.3-0.2,2.7-1.1,3.7c-0.9,1.1-2.3,1.7-3.7,1.7h-28.8v2.1
		h28.8c2.1,0,4-0.9,5.4-2.4c1.4-1.5,1.9-3.5,1.6-5.5L243.7,70.2z"/>
	<polygon class="st5" points="107.7,35.3 214.7,94 235.3,31.3 108,31.8 	"/>
	<path class="st6" d="M82.4,28.3c-1.7,0-3,1.4-3,3c0,1.7,1.4,3,3,3c1.7,0,3-1.3,3-3C85.4,29.7,84.1,28.3,82.4,28.3z"/>
	<path class="st6" d="M82.4,46.9c-1.6,0-3,1.4-3,3c0,1.6,1.3,3,3,3c1.7,0,3-1.3,3-3C85.4,48.2,84,46.9,82.4,46.9z"/>
	<path class="st6" d="M82.4,150.4c-1.6,0-3,1.3-3,3c0,1.6,1.4,3,3,3c1.7,0,3-1.3,3-3C85.4,151.7,84,150.4,82.4,150.4z"/>
	<path class="st6" d="M82.4,77.6c-1.7,0-3,1.3-3,3c0,1.7,1.3,3,3,3c1.7,0,3-1.3,3-3C85.4,79,84,77.6,82.4,77.6z"/>
	<path class="st7" d="M154.2,159.6c-0.1-0.4-0.5-0.7-0.9-0.7l-69.9-5.7V31.4c0-0.6-0.4-1-1-1s-1,0.4-1,1v122.8c0,0.5,0.4,1,0.9,1
		l70.2,5.7l8.1,79.2c0.1,0.4,0.3,0.4,0.8,0.4c0.1,0,0.6-0.1,0.7-0.1c0.1-0.1,0.2,0.1,0.3-0.5L154.2,159.6z"/>
	<g>
		<path class="st8" d="M31.9,168.8l4.3,8.7h-8.7L31.9,168.8z M31.2,247.9v-70.8h1.4v70.8H31.2z M31.9,256.1l-4.3-8.7h8.7L31.9,256.1
			z"/>
	</g>
	<g>
		<path class="st8" d="M293.1,131.4l4.3,8.7h-8.6L293.1,131.4z M292.4,247.9V139.6h1.4v108.2H292.4z M293.1,256.1l-4.3-8.7h8.6
			L293.1,256.1z"/>
	</g>
	<path class="st9" d="M91,124.8h27.7c0-15.3-12.4-27.7-27.7-27.7c-1.5,0-2.9,0.1-4.3,0.3L91,124.8z"/>
	<text transform="matrix(1 0 0 1 90.7163 118.3838)" class="st8 st10 st11">90-110°</text>
	<text transform="matrix(1 0 0 1 128.9536 167.3394)" class="st8 st10 st12">90-110°</text>
	<text transform="matrix(1 0 0 1 38.2007 205.7251)" class="st8 st10 st13">Chair</text>
	<text transform="matrix(1 0 0 1 38.2007 216.8882)" class="st8 st10 st13">height</text>
	<rect y="256.1" class="st3" width="333.8" height="17.5"/>
	<path class="st6" d="M133.7,124.3l-42.9-0.6l-6.3-40.1c-0.2-0.6-1-1.7-1.6-1.6c-0.5,0.2-0.2,1.5,0,2l6.2,40.9
		c0.1,0.4,0.5,0.7,1,0.7l43.9-0.3c0.6,0,1.6,0.1,1.6-0.4S134.3,124.3,133.7,124.3z"/>
	<text transform="matrix(1 0 0 1 299.0376 191.854)" class="st8 st10 st13">Desk</text>
	<text transform="matrix(1 0 0 1 299.0376 203.0176)" class="st8 st10 st13">height</text>
	<g>
		<path class="st8" d="M5.2,31.5l4.3,8.7H0.9L5.2,31.5z M4.5,247.9V39.7h1.4v208.1H4.5z M5.2,256.1l-4.3-8.7h8.7L5.2,256.1z"/>
	</g>
	<line class="st0" x1="289.2" y1="131.4" x2="294.8" y2="131.4"/>
	<text transform="matrix(1 0 0 1 14.0195 120.3862)" class="st8 st10 st13">Monitor</text>
	<text transform="matrix(1 0 0 1 17.0605 131.5498)" class="st8 st10 st13">height</text>
	<text transform="matrix(1 0 0 1 6.7871 142.75)" class="st8 st10 st13">(Eye sight)</text>
	<path class="st14" d="M149.9,244.4c-0.8,0-1.5,0.1-2.2,0.4v-0.6V242c0-3-2-5.6-4.9-6.2l-34.2-7.9v-16.3c0-1.2-0.8-2.2-2-2.5v-23
		h34.5c2.7,0,2.6-3,2.6-5.7l-0.5-3.5c0-2.3-2.4-5.2-3.6-6.9c-0.2-0.3,0.7,0.9,0.4,0.6c-2-2.2-1.3-1.3-4.7-2.1
		c-1.3-0.3-2.7-0.4-4.1-0.4h-29.3l8.6-31.3l11.7,0.9c1,0.1,1.8-0.7,1.8-1.7l-0.1-2.5c0-0.9-0.7-1.7-1.6-1.7l-33.3,0.1
		c-0.9,0-1.7,0.8-1.7,1.7c0,0.9,0.7,1.6,1.5,1.7l10.1,0.7l-8.9,32.2h-1c-0.5,0-1.1,0-1.7,0.1h-0.1c-0.6,0-1.1,0.1-1.7,0.2h0
		c-0.6,0.1-1.2,0.2-1.8,0.4h-0.1c-0.6,0.1-1.2,0.3-1.9,0.5l0,0c-5.7,1.8-11,5.4-11,10.5v0.1h-2.9c-3.4,0-6.3-2.5-6.9-5.9
		c0.1-1.6,0.3-12.4-0.1-23.3c1.3,2.7,3.7,4.3,6.1,4c3.9-0.5,6.2-5.1,7.3-10.8l0,0c0-0.3,0.1-0.6,0.1-0.9l0-0.1
		c0-0.3,0.1-0.6,0.1-0.9l0-0.1c0-0.3,0.1-0.6,0.1-0.8v-0.2c0-0.3,0.1-0.5,0.1-0.8v-0.2c0-0.3,0-0.5,0.1-0.8c0-0.1,0-0.2,0-0.3
		c0-0.3,0-0.5,0-0.7c0-0.1,0-0.2,0-0.3c0-0.3,0-0.5,0-0.7c0-0.1,0-0.3,0-0.4c0-0.2,0-0.4,0-0.7c0-0.1,0-0.3,0-0.4c0-0.2,0-0.4,0-0.6
		c0-0.1,0-0.3,0-0.4c0-0.2,0-0.4,0-0.6c0-0.1,0-0.3,0-0.5c0-0.2,0-0.4,0-0.6c0-0.1,0-0.3,0-0.5c0-0.2,0-0.4,0-0.5c0-0.2,0-0.4,0-0.5
		c0-0.2,0-0.3,0-0.5c0-0.2,0-0.4,0-0.6c0-0.1,0-0.3,0-0.4c0-0.2,0-0.4-0.1-0.6c0-0.1,0-0.2,0-0.3c0-0.3-0.1-0.6-0.1-0.9l-0.9-8.9
		c-0.1-0.4-0.1-0.8-0.2-1.3c0-0.2,0-0.4-0.1-0.6c0-0.2,0-0.4-0.1-0.6c0-0.2,0-0.3-0.1-0.5c0-0.2-0.1-0.4-0.1-0.6c0-0.2,0-0.3,0-0.5
		c0-0.3-0.1-0.5-0.1-0.8l0-0.2c-0.1-1-0.3-2.1-0.5-3.3v-0.2c-0.1-0.4-0.1-0.7-0.2-1.1l0-0.2c-0.1-0.4-0.1-0.8-0.2-1.2v0
		c-1.7-9.9-4.6-21.9-9.3-25.7l0,0l0,0c-1.4-1.1-2.9-1.6-4.6-1c-3.3,0.4-5.5,4.3-4.9,8.7l3.7,31c-0.4-0.2-0.9-0.3-1.3-0.2
		c-1.1,0.2-1.7,1.3-1.6,2.3c0,0.1,2.3,12.1,2.9,25.1c0.6,12.5,0.2,25.8,0.2,26v0.2l0,0.1c0.8,5.5,5.4,9.5,10.8,9.5h3.7
		c0.9,1.3,2.4,2.2,4.1,2.2h19.1v23.1c-0.9,0.4-1.6,1.3-1.6,2.4v16.2L59,235.8c-2.9,0.6-4.9,3.2-4.9,6.2v2.3v0.6
		c-0.7-0.3-1.4-0.4-2.2-0.4c-3.3,0-5.9,2.7-5.9,6c0,3.3,2.6,6,5.9,6c3.3,0,5.9-2.7,5.9-6c0-0.2,0-0.3,0-0.5c1.2-0.9,2-2.4,2-4.1
		v-2.3l35.6-4.1c0.1,0,0.3,0,0.4,0h0.9v5.5c-0.7,0.5-1.1,1.4-1.1,2.4v6c0,1.7,1.1,3,2.6,3V255h5.5v1.5c1.4,0,2.6-1.3,2.6-3v-6
		c0-1-0.4-1.9-1.1-2.4v-5.5h0.9c0.1,0,0.3,0,0.4,0l35.5,4.1v2.3c0,1.7,0.8,3.2,2,4.1c0,0.1,0,0.3,0,0.5c0,3.3,2.7,6,5.9,6
		c3.3,0,5.9-2.7,5.9-6C155.8,247.2,153.2,244.4,149.9,244.4z"/>
	<path class="st15" d="M241.3,21.3c-8.2-4.6-16.9-7-25.7-7"/>
	<text transform="matrix(1 0 0 1 217.2593 8.0811)" class="st8 st10 st12">10-20°tilt</text>
	<polyline class="st16" points="215.2,5.8 215.6,103.2 242.3,19.6 245.3,10.6 	"/>
	<path class="st9" d="M152.3,161.1l-26.1-2.5c-1.4,14.4,9.2,27.3,23.6,28.7c1.8,0.1,3.5,0.1,5.3,0L152.3,161.1z"/>
</g>
</svg>
