<svg xmlns="http://www.w3.org/2000/svg" viewBox="0 0 154 154"><defs><style>.cls-1{fill:#666;}.cls-2,.cls-6{fill:none;}.cls-2{stroke:#707070;}.cls-3{fill:#707070;}.cls-4,.cls-5{isolation:isolate;}.cls-5{font-size:16px;font-family:TimesNewRomanPSMT, Times New Roman;}.cls-6{stroke:#1e5b80;stroke-width:2px;}</style></defs><g id="Layer_2" data-name="Layer 2"><g id="Layer_1-2" data-name="Layer 1"><g id="ic-dodecagon"><path id="Path_5-7" data-name="Path 5-7" class="cls-1" d="M77,154a77,77,0,1,1,77-77A77,77,0,0,1,77,154ZM77,1a76,76,0,1,0,76,76h0A76.1,76.1,0,0,0,77,1Z"/><path id="Path_6-7" data-name="Path 6-7" class="cls-1" d="M77,148.76C37.24,148.76,4.87,116.57,4.87,77S37.24,5.24,77,5.24,149.17,37.43,149.17,77,116.8,148.76,77,148.76ZM77,6.17C37.75,6.17,5.81,37.94,5.81,77S37.75,147.83,77,147.83,148.24,116.06,148.24,77,116.29,6.17,77,6.17Z"/><g id="Group_9-7" data-name="Group 9-7"><path id="Path_7" data-name="Path 7" class="cls-2" d="M11.66,114.09,74.5,77.5"/><line id="Line_2-6" data-name="Line 2-6" class="cls-2" x1="38.5" y1="144.5" x2="75.5" y2="77.5"/><line id="Line_3-6" data-name="Line 3-6" class="cls-2" x1="76.5" y1="76.5" x2="102.5" y2="69.5"/><line id="Line_8" data-name="Line 8" class="cls-2" x1="119.5" y1="64" x2="145.5" y2="57"/><line id="Line_5-7" data-name="Line 5-7" class="cls-2" x1="76.5" y1="75.5" x2="76.5" y2="52.5"/><line id="Line_6-7" data-name="Line 6-7" class="cls-2" x1="76.5" y1="32.5" x2="76.5" y2="2.5"/></g><g id="Ellipse_1-7" data-name="Ellipse 1-7"><circle class="cls-3" cx="76.5" cy="77" r="3"/><circle class="cls-2" cx="76.5" cy="77" r="2.5"/></g><g id="R-15" class="cls-4"><text class="cls-5" transform="translate(71.66 47.96)">R</text></g><g id="r-16" class="cls-4"><text class="cls-5" transform="translate(107.34 68.96)">r</text></g><g id="y-8" class="cls-4"><text class="cls-5" transform="translate(51 102.96)">y</text></g><g id="x-8" class="cls-4"><text class="cls-5" transform="translate(128 109.96)">x</text></g><g id="a-8" class="cls-4"><text class="cls-5" transform="translate(15.45 141.5)">a</text></g><path id="Polygon_1-7" data-name="Polygon 1-7" class="cls-6" d="M142.45,39.21,152.58,77l-10.13,37.79-27.66,27.66L77,152.58,39.21,142.45,11.55,114.79,1.42,77,11.55,39.21,39.21,11.55,77,1.42l37.79,10.13Z"/></g></g></g></svg>