<svg version="1.0" xmlns="http://www.w3.org/2000/svg" viewBox="0 0 400 300"><g transform="translate(-70, 485) scale(0.1,-0.1)" fill="#1e5b80" stroke="none"><path d="m 2212,4628 c -36,-18 -298,-452 -836,-1387 -429,-743 -419,-726 -411,-751 3,-10 29,-30 57,-44 42,-21 67,-26 125,-26 74,0 74,0 94,-35 29,-48 47,-56 153,-65 68,-6 103,-14 140,-34 42,-22 62,-26 132,-26 0,0 56.1174,-0.2236 79.9821,-11.3839 C 1754.2606,2244.7447 1775,2220 1775,2220 c 13,-21 22.8985,-37.6865 44,-50 16.0508,-6.4205 69,-10 129,-10 94,0 113,-3 135,-20 32,-25 64,-25 169,0 46,11 72.9777,20.2797 90.053,15.2649 15.1567,-4.4513 24,-11.3178 43.894,-30.6865 0,0 28.8635,-25.4586 47.6269,-33.265 C 2459.5312,2080.5141 2598,2088 2598,2088 c 138,3 191,0 239,-12 89,-23 101,-21 143,25 37,40 40,42 82,35 116,-18 125,-18 152,-1 22,15 41,17 112,12 110,-6 150,4 175,48 26,43 41,48 125,35 95,-13 90,-14 131,26 0,0 21.1866,20.7725 37.1161,26.625 26.997,9.9187 84.8839,2.375 84.8839,2.375 119,-9 162,3 198,58 0,0 22.1113,27.0221 36.1429,36.6429 C 4123.4588,2386.716 4215,2391 4215,2391 c 84,4 122,11 160,28 59,26 95,58 95,83 0,28 1,26 -492,878 -250,432 -508,879 -574,994 -82,143 -127.1422,220.7841 -153,235 -13.1969,7.2553 -15.8595,9.941 -42.5762,14.0045 -40.1487,6.1064 -187.5131,4.3169 -187.5131,4.3169 C 2756.4643,4624.4464 2674,4624 2435,4633 c -147,5 -206,4 -223,-5 z m 582,-28 c 241,0 395,-4 386,-10 -9,-4 -56,-17 -105,-27 -77.1037,-9.5805 -136.4464,-29.5623 -330.4464,-28.5623 -210,0 -252.5536,14.5623 -343.5536,34.5623 -129,27 -163,45 -72,37 35,-3 244,-6 465,-6 z m -450,-54 c 236,-54 469,-55 773,-4 116.0407,29.689 119.7587,34.9099 142.3315,10.5693 C 3270.5041,4538.2798 4395,2599 4423,2543 c 22,-43 14,-59 -47,-90 -45,-24 -65,-27 -176,-31 -98,-3 -128,-1 -137,9 -6,8 -60,147 -121,309 -147,394 -472,1223 -483,1234 -6,6 -9,5 -9,-3 0,-16 371,-1006 494,-1319 53,-134 96,-259 96,-277 0,-53 -18,-60 -146,-58 -62,1 -121,6 -132,12 -15,8 -31,57 -72,223 -79,320 -279,1051 -291,1063 -7,7 -9,2 -5,-15 27,-122 211,-845 262,-1031 63,-233 74,-292 54,-304 -14,-8 -193,4 -209,15 -7,4 -35,148 -67,341 -52,323 -72,414 -73,342 -1,-37 60,-464 90,-630 28,-157 28,-157 -108,-151 -74,3 -108,9 -119,20 -8,8 -19,46 -25,84 -5,38 -48,359 -95,714 -124,944 -164,1223 -175,1245 -6,14 -8,1 -4,-45 17,-186 244,-1925 261,-1995 3,-11 -1,-28 -9,-38 -13,-18 -16,-18 -101,-1 -71,14 -89,21 -96,38 -5,12 -13,93 -20,181 -21,300 -91,1000 -102,1010 -7,7 -8,-19 -4,-85 16,-224 58,-720 76,-900 11,-107 20,-218 20,-247 0,-72 -16,-80 -118,-58 -63,15 -104,16 -228,11 -133,-6 -153,-5 -168,9 -20,20 -20,7 4,172 34,228 141,1116 135,1121 -3,3 -7,3 -10,1 -2,-3 -38,-259 -79,-569 -42,-311 -78,-580 -80.7813,-598 -9.125,-33.0625 -22.4687,-52.9375 -53.2187,-62 -13.4289,-3.9577 -64,-10 -112,-22 -93,-23 -120,-20 -120,11 0,11 20,106 45,213 65,282 335,1559 335,1585 0,71 -202,-805 -345,-1492 -39,-190 -61,-274 -72,-282 -21,-16 -225,-18 -254,-3 -26,15 -24,55 7,137 32,88 214,651 214,666 0,43 -40,-57 -141,-356 0,0 -110.9368,-338.5784 -117,-342 -11.3921,-6.4289 -101,-9 -101,-9 -142,-12 -154,0 -102,103 48,94 152,343 146,349 -9,10 -20,-10 -104,-188 -46,-98 -94,-185 -109,-199 -24,-22 -31,-23 -106,-17 -95,8 -140,29 -144,69 -2,18 28,94 89,224 141,304 380,855 376,867 -2,6 -15,-11 -29,-39 -48,-95 -316,-680 -378,-825 -34,-80 -70,-154 -81,-165 -27,-27 -134,-33 -194,-11 -49,19 -62,43 -44,78 65,124 878,1523 1026,1767 149,244 161,261 181,261 9,0 66,-11 126,-24 z"></path></g></svg>