<svg version="1.0" xmlns="http://www.w3.org/2000/svg" viewBox="0 0 400 300"><g transform="translate(-70, 485) scale(0.1,-0.1)" fill="#1e5b80" stroke="none"><path d="M 2185,4595 C 2153,4564 1376.8683,2588.9852 1366.3675,2536 1362.3189,2514.734 1422,2467 1498,2432 c 79.3598,-27.3157 82.4128,-24.4746 267,-27 115.9891,-1.5869 201.8736,2.1556 222,-8 13.5502,-9.9718 16,-26 19,-47 9,-54 44,-86 123,-112 96.83,-17.5805 81.6314,-35.6269 545.3687,-31.0508 C 3166.3179,2208.3686 3243,2213 3327,2250 c 45,20 63,45 72,100 10,56 32,62 212,55 173,-8 243,1 321,41 56,28 88,67 88,106 0,25 -668,1885 -720,2004 -10,23 -21.1589,35.2141 -30.6843,43.3708 C 3245.9007,4616.4713 3019,4614 2730,4615 c -513,0 -525,0 -545,-20 z m 620,-17 c 353,-1 383,-2 313,-14 -267,-44 -527,-45 -763,-2 l -70,13 54.0179,5.1071 c 28.558,1.2143 56.6651,2.3431 66.5625,2.0172 C 2425.076,4582.5841 2591,4578 2805,4578 Z m -448,-50 c 171,-31 544,-31 753,0 121,19 146,20 158,8 11,-11 681,-1840 714,-1949 16,-52 0,-81 -59,-111 -89,-45 -122,-49 -340,-41 l -203,7 -9,37 c -5,20 -78,350 -161,733 -142,659 -168,769 -169,725 -1,-10 71,-367 159,-795 88,-428 160,-789 160,-803 0,-32 -23,-54 -80,-75 -37,-13 -115,-18 -440,-25 -632,-14 -800,11 -800,120 0,11 77,345 170,741 94,396 170,724 170,727 0,4 -4,3 -9,-3 -5,-5 -85,-313 -176,-684 -92,-371 -172,-680 -179,-687 -16,-18 -437.947,-26.915 -486,1.7649 C 1456.3687,2486.447 1400,2523 1400,2557 c 0,20 695,1773 767,1936 30,67 23,66 190,35 z"></path></g></svg>