<svg xmlns="http://www.w3.org/2000/svg" viewBox="0 0 154 154"><defs><style>.cls-1{fill:#666;}.cls-2,.cls-6{fill:none;}.cls-2{stroke:#707070;}.cls-3{fill:#707070;}.cls-4,.cls-5{isolation:isolate;}.cls-5{font-size:16px;font-family:TimesNewRomanPSMT, Times New Roman;}.cls-6{stroke:#1e5b80;stroke-width:2px;}</style></defs><g id="Layer_2" data-name="Layer 2"><g id="Layer_1-2" data-name="Layer 1"><g id="ic-heptagon"><path id="Path_5-3" data-name="Path 5-3" class="cls-1" d="M77,154a77,77,0,1,1,77-77A77,77,0,0,1,77,154ZM77,1a76,76,0,1,0,76,76h0A76.1,76.1,0,0,0,77,1Z"/><path id="Path_6-3" data-name="Path 6-3" class="cls-1" d="M77,143a66,66,0,1,1,66-66A66,66,0,0,1,77,143ZM77,11.85A65.15,65.15,0,1,0,142.15,77h0A65.23,65.23,0,0,0,77,11.85Z"/><g id="Group_9-3" data-name="Group 9-3"><line id="Line_1-3" data-name="Line 1-3" class="cls-2" x1="4.5" y1="93.5" x2="74.5" y2="77.5"/><line id="Line_2-3" data-name="Line 2-3" class="cls-2" x1="45.5" y1="143.5" x2="75.5" y2="77.5"/><line id="Line_3-3" data-name="Line 3-3" class="cls-2" x1="77.5" y1="75.5" x2="101.5" y2="70.5"/><line id="Line_7" data-name="Line 7" class="cls-2" x1="117.5" y1="66.5" x2="141.5" y2="61.5"/><line id="Line_5-3" data-name="Line 5-3" class="cls-2" x1="76.5" y1="75.5" x2="76.5" y2="52.5"/><line id="Line_6-3" data-name="Line 6-3" class="cls-2" x1="76.5" y1="32.5" x2="76.5" y2="2.5"/></g><g id="Ellipse_1-3" data-name="Ellipse 1-3"><circle class="cls-3" cx="76.5" cy="77" r="3"/><circle class="cls-2" cx="76.5" cy="77" r="2.5"/></g><g id="R-7" class="cls-4"><text class="cls-5" transform="translate(71.66 47.96)">R</text></g><g id="x-4" class="cls-4"><text class="cls-5" transform="translate(100 132.96)">x</text></g><g id="r-8" class="cls-4"><text class="cls-5" transform="translate(105.34 71)">r</text></g><g id="y-4" class="cls-4"><text class="cls-5" transform="translate(59 92)">y</text></g><g id="a-4" class="cls-4"><text class="cls-5" transform="translate(7.45 131.46)">a</text></g><path id="Polygon_1-3" data-name="Polygon 1-3" class="cls-6" d="M149.18,94l-40.54,50.58-64.83-.16L3.53,93.61,18.11,30.45l58.47-28,58.34,28.27Z"/></g></g></g></svg>