<svg xmlns="http://www.w3.org/2000/svg" viewBox="0 0 154 154.41"><defs><style>.cls-1{fill:#666;}.cls-2,.cls-6{fill:none;}.cls-2{stroke:#707070;}.cls-3{fill:#707070;}.cls-4,.cls-5{isolation:isolate;}.cls-5{font-size:16px;font-family:TimesNewRomanPSMT, Times New Roman;}.cls-6{stroke:#1e5b80;stroke-width:2px;}</style></defs><g id="Layer_2" data-name="Layer 2"><g id="Layer_1-2" data-name="Layer 1"><g id="ic-hexagon"><path id="Path_5-8" data-name="Path 5-8" class="cls-1" d="M77,154a77,77,0,1,1,77-77A77,77,0,0,1,77,154ZM77,1a76,76,0,1,0,76,76h0A76.1,76.1,0,0,0,77,1Z"/><path id="Path_6-8" data-name="Path 6-8" class="cls-1" d="M77,141.5A64.5,64.5,0,1,1,141.5,77,64.5,64.5,0,0,1,77,141.5ZM77,13.33A63.67,63.67,0,1,0,140.67,77,63.68,63.68,0,0,0,77,13.33Z"/><g id="Group_9-8" data-name="Group 9-8"><line id="Line_1-7" data-name="Line 1-7" class="cls-2" x1="12.7" y1="39.57" x2="75.7" y2="75.57"/><line id="Line_2-7" data-name="Line 2-7" class="cls-2" x1="11.7" y1="114.57" x2="75.5" y2="77.5"/><line id="Line_3-7" data-name="Line 3-7" class="cls-2" x1="77.5" y1="75.5" x2="101.7" y2="75.57"/><line id="Line_9" data-name="Line 9" class="cls-2" x1="118.5" y1="75.43" x2="142.7" y2="75.5"/><line id="Line_5-8" data-name="Line 5-8" class="cls-2" x1="76.5" y1="75.5" x2="76.5" y2="52.5"/><line id="Line_6-8" data-name="Line 6-8" class="cls-2" x1="76.5" y1="32.5" x2="76.5" y2="2.5"/></g><g id="Ellipse_1-8" data-name="Ellipse 1-8"><circle class="cls-3" cx="76.5" cy="77" r="3"/><circle class="cls-2" cx="76.5" cy="77" r="2.5"/></g><g id="R-17" class="cls-4"><text class="cls-5" transform="translate(71.66 47.96)">R</text></g><g id="x-9" class="cls-4"><text class="cls-5" transform="translate(123 107.96)">x</text></g><g id="r-18" class="cls-4"><text class="cls-5" transform="translate(107.34 79)">r</text></g><g id="y-9" class="cls-4"><text class="cls-5" transform="translate(55 79.5)">y</text></g><g id="a-9" class="cls-4"><text class="cls-5" transform="translate(28.45 149.5)">a</text></g><path id="Polygon_1-8" data-name="Polygon 1-8" class="cls-6" d="M142.39,114.75,77,152.5,11.62,114.75V39.25L77,1.5l65.39,37.75Z"/></g></g></g></svg>