<?xml version="1.0" encoding="utf-8"?>
<!-- Generator: Adobe Illustrator 25.0.1, SVG Export Plug-In . SVG Version: 6.00 Build 0)  -->
<svg version="1.1" id="Layer_1" xmlns="http://www.w3.org/2000/svg" xmlns:xlink="http://www.w3.org/1999/xlink" x="0px" y="0px"
	 viewBox="0 0 87.4 165.5" style="enable-background:new 0 0 87.4 165.5;" xml:space="preserve">
<style type="text/css">
	.st0{fill:none;stroke:#1E5B80;stroke-width:1.414;stroke-miterlimit:1.6726;}
	.st1{font-family:'MyriadPro-Regular';}
	.st2{font-size:23.9434px;}
</style>
<g id="Layer_x0020_1">
	<polygon class="st0" points="6.7,47 46.8,4.3 86.6,47 46.8,161.1 	"/>
	<text transform="matrix(1 0 0 1 8.3633 20.6343)" class="st1 st2">a</text>
	<text transform="matrix(1 0 0 1 1.6729 110.1211)" class="st1 st2">b</text>
	<g>
		<path d="M1.7,42.8l1.7-6.7l4.6,4.2L1.7,42.8z M37.6,4.7L5.9,38.6l-0.4-0.4L37.2,4.3L37.6,4.7z M41.4,0.1l-1.7,6.7l-4.6-4.2
			L41.4,0.1z"/>
	</g>
	<g>
		<path d="M0.8,50.7l5,5L0,57.9L0.8,50.7z M38.5,159.9L2.5,56.6l0.4-0.4l36.4,103.3L38.5,159.9z M41,165.3l-5-5l5.9-2.1L41,165.3z"
			/>
	</g>
</g>
</svg>
