<svg xmlns="http://www.w3.org/2000/svg" viewBox="0 0 154 154"><defs><style>.cls-1{fill:#666;}.cls-2,.cls-6{fill:none;}.cls-2{stroke:#707070;}.cls-3{fill:#707070;}.cls-4,.cls-5{isolation:isolate;}.cls-5{font-size:16px;font-family:TimesNewRomanPSMT, Times New Roman;}.cls-6{stroke:#1e5b80;stroke-width:2px;}</style></defs><g id="Layer_2" data-name="Layer 2"><g id="Layer_1-2" data-name="Layer 1"><g id="ic-nonagon"><path id="Path_5-9" data-name="Path 5-9" class="cls-1" d="M77,154a77,77,0,1,1,77-77A77,77,0,0,1,77,154ZM77,1a76,76,0,1,0,76,76h0A76.1,76.1,0,0,0,77,1Z"/><path id="Path_6-9" data-name="Path 6-9" class="cls-1" d="M77,149a70.55,70.55,0,1,1,70.54-70.55h0A70.62,70.62,0,0,1,77,149ZM77,8.82a69.64,69.64,0,1,0,69.63,69.64A69.64,69.64,0,0,0,77,8.82Z"/><g id="Group_9-9" data-name="Group 9-9"><line id="Line_1-8" data-name="Line 1-8" class="cls-2" x1="3.38" y1="64.57" x2="74.5" y2="77.5"/><line id="Line_2-8" data-name="Line 2-8" class="cls-2" x1="11.38" y1="115.57" x2="75.5" y2="77.5"/><line id="Line_3-8" data-name="Line 3-8" class="cls-2" x1="77.38" y1="77.57" x2="97.38" y2="63.57"/><line id="Line_10" data-name="Line 10" class="cls-2" x1="114.38" y1="52.5" x2="134.38" y2="38.5"/><line id="Line_5-9" data-name="Line 5-9" class="cls-2" x1="76.5" y1="75.5" x2="76.5" y2="52.5"/><line id="Line_6-9" data-name="Line 6-9" class="cls-2" x1="76.5" y1="32.5" x2="76.5" y2="2.5"/></g><g id="Ellipse_1-9" data-name="Ellipse 1-9"><circle class="cls-3" cx="76.5" cy="77" r="3"/><circle class="cls-2" cx="76.5" cy="77" r="2.5"/></g><g id="R-19" class="cls-4"><text class="cls-5" transform="translate(71.66 47.96)">R</text></g><g id="x-10" class="cls-4"><text class="cls-5" transform="translate(124 110.96)">x</text></g><g id="r-20" class="cls-4"><text class="cls-5" transform="translate(103.34 62)">r</text></g><g id="y-10" class="cls-4"><text class="cls-5" transform="translate(46 86)">y</text></g><g id="a-10" class="cls-4"><text class="cls-5" transform="translate(18.45 140.46)">a</text></g><path id="Polygon_1-9" data-name="Polygon 1-9" class="cls-6" d="M77,2.5l48.48,17.67,25.8,44.74-9,50.88L102.8,149H51.2L11.68,115.79l-9-50.88,25.8-44.74Z"/></g></g></g></svg>