<svg xmlns="http://www.w3.org/2000/svg" viewBox="0 0 156.06 154"><defs><style>.cls-1{fill:#666;}.cls-2,.cls-6{fill:none;}.cls-2{stroke:#707070;}.cls-3{fill:#707070;}.cls-4,.cls-5{isolation:isolate;}.cls-5{font-size:16px;font-family:TimesNewRomanPSMT, Times New Roman;}.cls-6{stroke:#1e5b80;stroke-width:2px;}</style></defs><g id="Layer_2" data-name="Layer 2"><g id="Layer_1-2" data-name="Layer 1"><g id="ic-octagon"><path id="Path_5-6" data-name="Path 5-6" class="cls-1" d="M79.06,154a77,77,0,1,1,77-77A77,77,0,0,1,79.06,154Zm0-153a76,76,0,1,0,76,76h0A76.1,76.1,0,0,0,79.06,1Z"/><path id="Path_6-6" data-name="Path 6-6" class="cls-1" d="M79.06,145.62A68.62,68.62,0,1,1,147.68,77,68.62,68.62,0,0,1,79.06,145.62Zm0-136.35A67.73,67.73,0,1,0,146.79,77,67.73,67.73,0,0,0,79.06,9.27Z"/><g id="Group_9-6" data-name="Group 9-6"><line id="Line_1-6" data-name="Line 1-6" class="cls-2" x1="3.55" y1="77.57" x2="76.56" y2="77.5"/><line id="Line_2-5" data-name="Line 2-5" class="cls-2" x1="26.55" y1="131.57" x2="77.56" y2="77.5"/><path id="Path_8" data-name="Path 8" class="cls-2" d="M79.56,75.5l21.8-9.11"/><path id="Path_9" data-name="Path 9" class="cls-2" d="M118.35,59l23-9.56"/><line id="Line_5-6" data-name="Line 5-6" class="cls-2" x1="78.56" y1="75.5" x2="78.56" y2="52.5"/><line id="Line_6-6" data-name="Line 6-6" class="cls-2" x1="78.56" y1="32.5" x2="78.56" y2="2.5"/></g><g id="Ellipse_1-6" data-name="Ellipse 1-6"><circle class="cls-3" cx="78.56" cy="77" r="3"/><circle class="cls-2" cx="78.56" cy="77" r="2.5"/></g><g id="R-13" class="cls-4"><text class="cls-5" transform="translate(73.73 47.96)">R</text></g><g id="x-7" class="cls-4"><text class="cls-5" transform="translate(115.06 124.96)">x</text></g><g id="r-14" class="cls-4"><text class="cls-5" transform="translate(106.4 67)">r</text></g><g id="y-7" class="cls-4"><text class="cls-5" transform="translate(55.06 89)">y</text></g><g id="a-7" class="cls-4"><text class="cls-5" transform="translate(0 120.46)">a</text></g><path id="Polygon_1-6" data-name="Polygon 1-6" class="cls-6" d="M132.39,23.64l22.07,53.29-22.07,53.29L79.1,152.3,25.81,130.22,3.74,76.93,25.81,23.64,79.1,1.57Z"/></g></g></g></svg>