<?xml version="1.0" encoding="utf-8"?>
<!-- Generator: Adobe Illustrator 25.0.1, SVG Export Plug-In . SVG Version: 6.00 Build 0)  -->
<svg version="1.1" id="Layer_1" xmlns="http://www.w3.org/2000/svg" xmlns:xlink="http://www.w3.org/1999/xlink" x="0px" y="0px"
	 viewBox="0 0 188 101.5" style="enable-background:new 0 0 188 101.5;" xml:space="preserve">
<style type="text/css">
	.st0{fill:none;stroke:#1E5B80;stroke-width:1.4172;stroke-miterlimit:10;}
	.st1{font-family:'MyriadPro-Regular';}
	.st2{font-size:23.9987px;}
</style>
<g id="Layer_x0020_1">
	<path class="st0" d="M55.5,1.5h131.2l-43.8,67.7H11.8L55.5,1.5z"/>
	<text transform="matrix(1 0 0 1 67.3701 101.2607)" class="st1 st2">b</text>
	<text transform="matrix(1 0 0 1 5.6514 32.6191)" class="st1 st2">a</text>
	<g>
		<path d="M11.8,77.7l6.2-3.1v6.1L11.8,77.7z M137.2,78H17.6v-0.6h119.6V78z M142.9,77.7l-6.1,3.1v-6.1L142.9,77.7z"/>
	</g>
	<g>
		<path d="M0,67.7l0.7-6.9L6,64.2L0,67.7z M40.9,5L3.4,62.9L3,62.7L40.4,4.8L40.9,5z M43.8,0L43,6.8l-5.2-3.3L43.8,0z"/>
	</g>
</g>
</svg>
