<svg xmlns="http://www.w3.org/2000/svg" viewBox="0 0 154 154"><defs><style>.cls-1{fill:#666;}.cls-2,.cls-6{fill:none;}.cls-2{stroke:#707070;}.cls-3{fill:#707070;}.cls-4,.cls-5{isolation:isolate;}.cls-5{font-size:16px;font-family:TimesNewRomanPSMT, Times New Roman;}.cls-6{stroke:#1e5b80;stroke-width:2px;}</style></defs><g id="Layer_2" data-name="Layer 2"><g id="Layer_1-2" data-name="Layer 1"><g id="ic-pentagon"><path id="Path_5-4" data-name="Path 5-4" class="cls-1" d="M77,154a77,77,0,1,1,77-77A77,77,0,0,1,77,154ZM77,1a76,76,0,1,0,76,76h0A76.1,76.1,0,0,0,77,1Z"/><path id="Path_6-4" data-name="Path 6-4" class="cls-1" d="M77,137.5a60.08,60.08,0,1,1,60.08-60.08A60.08,60.08,0,0,1,77,137.5ZM77,18.12a59.3,59.3,0,1,0,59.3,59.3h0A59.38,59.38,0,0,0,77,18.12Z"/><g id="Group_9-4" data-name="Group 9-4"><line id="Line_1-4" data-name="Line 1-4" class="cls-2" x1="5.5" y1="53.5" x2="75.5" y2="75.5"/><line id="Line_2-4" data-name="Line 2-4" class="cls-2" x1="33.5" y1="137.5" x2="75.5" y2="77.5"/><line id="Line_3-4" data-name="Line 3-4" class="cls-2" x1="77.5" y1="77.5" x2="90.5" y2="82.5"/><line id="Line_11" data-name="Line 11" class="cls-2" x1="105.5" y1="88.5" x2="134.5" y2="99.5"/><line id="Line_5-4" data-name="Line 5-4" class="cls-2" x1="76.5" y1="75.5" x2="76.5" y2="52.5"/><line id="Line_6-4" data-name="Line 6-4" class="cls-2" x1="76.5" y1="32.5" x2="76.5" y2="2.5"/></g><g id="Ellipse_1-4" data-name="Ellipse 1-4"><circle class="cls-3" cx="76.5" cy="77" r="3"/><circle class="cls-2" cx="76.5" cy="77" r="2.5"/></g><g id="R-9" class="cls-4"><text class="cls-5" transform="translate(71.66 47.96)">R</text></g><g id="x-5" class="cls-4"><text class="cls-5" transform="translate(104 122.96)">x</text></g><g id="r-10" class="cls-4"><text class="cls-5" transform="translate(96.34 88)">r</text></g><g id="y-5" class="cls-4"><text class="cls-5" transform="translate(57 86)">y</text></g><g id="a-5" class="cls-4"><text class="cls-5" transform="translate(7.45 103)">a</text></g><path id="Polygon_1-4" data-name="Polygon 1-4" class="cls-6" d="M77,2l71.65,52L121.28,138H32.72L5.35,54Z"/></g></g></g></svg>