<?xml version="1.0" encoding="utf-8"?>
<!-- Generator: Adobe Illustrator 25.0.1, SVG Export Plug-In . SVG Version: 6.00 Build 0)  -->
<svg version="1.1" id="Layer_1" xmlns="http://www.w3.org/2000/svg" xmlns:xlink="http://www.w3.org/1999/xlink" x="0px" y="0px"
	 viewBox="0 0 112 120.8" style="enable-background:new 0 0 112 120.8;" xml:space="preserve">
<style type="text/css">
	.st0{fill:none;stroke:#1E5B80;stroke-width:1.4171;stroke-miterlimit:1.8723;}
	.st1{font-family:'MyriadPro-Regular';}
	.st2{font-size:23.9969px;}
</style>
<g id="Layer_x0020_1">
	<polygon class="st0" points="56.2,6.6 68.4,9.4 80.6,12.2 90.4,20.1 100.2,28.1 105.8,39.3 111.4,50.6 111.4,63.2 111.4,75.8 
		105.8,87.5 100.2,98.8 90.4,106.7 80.6,114.2 68.4,117 56.2,119.8 43.6,117 31.4,114.2 21.6,106.7 11.7,98.8 6.1,87.5 1,75.8 
		1,63.2 1,50.6 6.1,39.3 11.7,28.1 21.6,20.1 31.4,12.2 43.6,9.4 	"/>
	<text transform="matrix(1 0 0 1 4.2583 12.6382)" class="st1 st2">a</text>
	<g>
		<path d="M7.1,22.9l2.8-6.6l3.7,5.1L7.1,22.9z M22,10.8l-10.3,8.4l-0.5-0.5L22,10.3V10.8z M26.7,7l-2.8,6.6l-4.2-5.1L26.7,7z"/>
	</g>
</g>
</svg>
