<svg xmlns="http://www.w3.org/2000/svg" viewBox="0 0 154 154.91"><defs><style>.cls-1{fill:#666;}.cls-2,.cls-6{fill:none;}.cls-2{stroke:#707070;}.cls-3{fill:#707070;}.cls-4,.cls-5{isolation:isolate;}.cls-5{font-size:16px;font-family:TimesNewRomanPSMT, Times New Roman;}.cls-6{stroke:#1e5b80;stroke-width:2px;}</style></defs><g id="Layer_2" data-name="Layer 2"><g id="Layer_1-2" data-name="Layer 1"><g id="ic-polygon"><path id="Path_5-10" data-name="Path 5-10" class="cls-1" d="M77,154a77,77,0,1,1,77-77A77,77,0,0,1,77,154ZM77,1a76,76,0,1,0,76,76h0A76.1,76.1,0,0,0,77,1Z"/><path id="Path_6-10" data-name="Path 6-10" class="cls-1" d="M77,141a63.53,63.53,0,1,1,63.53-63.53A63.52,63.52,0,0,1,77,141ZM77,14.72a62.71,62.71,0,1,0,62.71,62.7A62.71,62.71,0,0,0,77,14.72Z"/><g id="Group_9-10" data-name="Group 9-10"><line id="Line_1-9" data-name="Line 1-9" class="cls-2" x1="11.5" y1="39.5" x2="75.5" y2="75.5"/><line id="Line_2-9" data-name="Line 2-9" class="cls-2" x1="13.5" y1="114.5" x2="75.5" y2="77.5"/><line id="Line_3-9" data-name="Line 3-9" class="cls-2" x1="77.5" y1="77" x2="101.5" y2="77"/><line id="Line_12" data-name="Line 12" class="cls-2" x1="117.5" y1="77" x2="141.5" y2="77"/><line id="Line_5-10" data-name="Line 5-10" class="cls-2" x1="76.5" y1="75.5" x2="76.5" y2="52.5"/><line id="Line_6-10" data-name="Line 6-10" class="cls-2" x1="76.5" y1="32.5" x2="76.5" y2="2.5"/></g><g id="Ellipse_1-10" data-name="Ellipse 1-10"><circle class="cls-3" cx="76.5" cy="77" r="3"/><circle class="cls-2" cx="76.5" cy="77" r="2.5"/></g><g id="R-21" class="cls-4"><text class="cls-5" transform="translate(71.66 47.96)">R</text></g><g id="x-11" class="cls-4"><text class="cls-5" transform="translate(116 105.96)">x</text></g><g id="r-22" class="cls-4"><text class="cls-5" transform="translate(107.34 80)">r</text></g><g id="y-11" class="cls-4"><text class="cls-5" transform="translate(54 80)">y</text></g><g id="a-11" class="cls-4"><text class="cls-5" transform="translate(26.45 150)">a</text></g><path id="Polygon_1-10" data-name="Polygon 1-10" class="cls-6" d="M141.53,114.25,77,151.5,12.46,114.25V39.75L77,2.5l64.53,37.25Z"/></g></g></g></svg>