<svg version="1.0" xmlns="http://www.w3.org/2000/svg" viewBox="0 0 400 300"><g transform="translate(-70, 485) scale(0.1,-0.1)" fill="#1e5b80" stroke="none"><path d="m 2171,4595 c -15,-16 -272,-761 -669,-1935 -33,-100 -54.4836,-164.5842 -49,-184 10.5547,-26.453 141,-84 277,-129 223,-74 435,-109 792,-128 415,-23 877,29 1302,146 148,40 180,54 184,77 2,9 -88,276 -198,595 -111,318 -273,784 -360,1035 -88,251 -166,470 -175,487 -8,17 -17.8125,31.625 -37,42 -33.3438,10.25 -162,12 -536,13 -503,2 -513,1 -531,-19 z m 653,-15 c 198,0 357,-2 354,-5 -18,-18 -253,-50.7915 -418,-55.7915 -192,-6 -323,7.7915 -452,36.7915 -107,24 -87,38 45,31 61,-4 274,-7 471,-7 z m -484,-61 c 117.5,-21 118.375,-26.8273 355,-31.5773 246,0 364.25,23.8273 484,47.5773 38,10 54,10 66,1 20,-15 727,-2043 723,-2076 -3,-23 -13,-28 -133,-63 -410,-119 -886,-172 -1328,-149 -370,20 -627,67 -857,158 -144,57 -160,68 -160,100 0,24 651,1951 681,2017 15,33 6,33 169,-4 z"></path></g></svg>