<?xml version="1.0" encoding="utf-8"?>
<!-- Generator: Adobe Illustrator 25.0.1, SVG Export Plug-In . SVG Version: 6.00 Build 0)  -->
<svg version="1.1" id="Layer_1" xmlns="http://www.w3.org/2000/svg" xmlns:xlink="http://www.w3.org/1999/xlink" x="0px" y="0px"
	 viewBox="0 0 153.4 105.4" style="enable-background:new 0 0 153.4 105.4;" xml:space="preserve">
<style type="text/css">
	.st0{font-family:'MyriadPro-Regular';}
	.st1{font-size:23.9951px;}
	.st2{fill:none;stroke:#1E5B80;stroke-width:1.417;stroke-miterlimit:10;}
</style>
<g id="Layer_x0020_1">
	<text transform="matrix(1 0 0 1 82.2832 17.1992)" class="st0 st1">b</text>
	<text transform="matrix(1 0 0 1 -0.9053 73.1406)" class="st0 st1">a</text>
	<g>
		<path d="M15.9,30l3.1,6.2h-6.2L15.9,30z M15.7,98.1V35.8h0.5v62.4H15.7z M15.9,103.9l-3.1-6.2H19L15.9,103.9z"/>
	</g>
	<g>
		<path d="M25,20.9l6.2-3.1V24L25,20.9z M146.3,21.2H30.8v-0.5h115.5V21.2z M152.2,20.9l-6.2,3.1v-6.2L152.2,20.9z"/>
	</g>
	<polygon class="st2" points="25.5,30.6 25.5,104.6 152.7,104.6 152.7,30.6 	"/>
</g>
</svg>
