<?xml version="1.0" encoding="utf-8"?>
<!-- Generator: Adobe Illustrator 25.0.1, SVG Export Plug-In . SVG Version: 6.00 Build 0)  -->
<svg version="1.1" id="Layer_1" xmlns="http://www.w3.org/2000/svg" xmlns:xlink="http://www.w3.org/1999/xlink" x="0px" y="0px"
	 viewBox="0 0 140.7 117.5" style="enable-background:new 0 0 140.7 117.5;" xml:space="preserve">
<style type="text/css">
	.st0{fill:none;stroke:#1E5B80;stroke-width:1.8415;stroke-miterlimit:10;}
	.st1{font-family:'MyriadPro-Regular';}
	.st2{font-size:23.9993px;}
</style>
<g id="Layer_x0020_1">
	<polygon class="st0" points="41.9,0.7 129.9,0.7 89.1,88.6 1.1,88.6 	"/>
	<g>
		<path d="M1.1,97.2l6.2-3.1v6.2L1.1,97.2z M83.2,97.5H7v-0.6h76.2V97.5z M89.1,97.2l-6.2,3.1v-6.2L89.1,97.2z"/>
	</g>
	<text transform="matrix(1 0 0 1 38.2583 117.2285)" class="st1 st2">a</text>
	<g>
		<g>
			<path d="M99.7,89.8l-0.2-6.9l5.6,2.6L99.7,89.8z M138.3,7.3l-35.9,77.3l-0.5-0.2l35.9-77.4L138.3,7.3z M140.5,1.9l0.2,6.9
				l-5.6-2.6L140.5,1.9z"/>
		</g>
		<text transform="matrix(1 0 0 1 125.2461 53.832)" class="st1 st2">a</text>
	</g>
</g>
</svg>
