<svg id="Layer_1" data-name="Layer 1" xmlns="http://www.w3.org/2000/svg" viewBox="0 0 459.03 354.57"><defs><style>.cls-1{fill:#afdcec;}.cls-2{fill:#1f1f1f;}.cls-3{fill:none;stroke:#000;stroke-linecap:round;stroke-linejoin:round;}.cls-4{font-size:12.93px;}.cls-4,.cls-5,.cls-6,.cls-8,.cls-9{font-family:MicrosoftSansSerif, Microsoft Sans Serif;}.cls-5{font-size:14.82px;}.cls-6{font-size:24.19px;}.cls-7{fill:#2291d4;}.cls-8{font-size:18px;}.cls-8,.cls-9{fill:#f3fcff;}.cls-9{font-size:14.86px;}</style></defs><rect class="cls-1" x="88.17" y="57.51" width="333.3" height="232.53" rx="1.96"/><polygon class="cls-2" points="79.02 283.02 82.19 287.77 85.36 283.02 79.02 283.02"/><polygon class="cls-2" points="79.02 62.26 82.19 57.51 85.36 62.26 79.02 62.26"/><line class="cls-3" x1="82.19" y1="283.02" x2="82.19" y2="62.26"/><polygon points="219.21 291.57 214.98 294.74 219.21 297.91 219.21 291.57"/><polygon points="415.55 291.57 419.77 294.74 415.55 297.91 415.55 291.57"/><line class="cls-3" x1="219.21" y1="294.74" x2="415.55" y2="294.74"/><polygon points="92.53 291.57 88.3 294.74 92.53 297.91 92.53 291.57"/><polygon points="207.7 291.57 211.93 294.74 207.7 297.91 207.7 291.57"/><line class="cls-3" x1="92.53" y1="294.74" x2="207.7" y2="294.74"/><polygon points="217.64 163.36 214.47 159.13 211.3 163.36 217.64 163.36"/><polygon points="217.64 282.75 214.47 286.98 211.3 282.75 217.64 282.75"/><line class="cls-3" x1="214.47" y1="163.36" x2="214.47" y2="282.76"/><text class="cls-4" transform="translate(207.64 248.09) rotate(-90)">Length B</text><text class="cls-4" transform="translate(77.66 203.73) rotate(-90)">Length A</text><text class="cls-5" transform="translate(125.82 312.03)">Width A</text><text class="cls-5" transform="translate(294.16 312.03)">Width B</text><text class="cls-6" transform="translate(279.05 226.65)">Area B</text><text class="cls-6" transform="translate(109.9 170.09)">Area A</text><rect class="cls-7" x="214.47" y="57.51" width="207" height="97.47"/><text class="cls-8" transform="translate(247.38 94.92)">Area not included</text><text class="cls-9" transform="translate(239.85 118.05)"><tspan xml:space="preserve">(e.g.  bath,kitchrn units)</tspan></text></svg>