<?xml version="1.0" encoding="utf-8"?>
<!-- Generator: Adobe Illustrator 26.0.1, SVG Export Plug-In . SVG Version: 6.00 Build 0)  -->
<svg version="1.1" id="Layer_1" xmlns="http://www.w3.org/2000/svg" xmlns:xlink="http://www.w3.org/1999/xlink" x="0px" y="0px"
	 viewBox="0 0 140.2 135.6" style="enable-background:new 0 0 140.2 135.6;" xml:space="preserve">
<style type="text/css">
	.st0{fill-rule:evenodd;clip-rule:evenodd;fill:#0072B7;stroke:#000000;stroke-width:1.4174;stroke-miterlimit:10;}
	.st1{font-family:'MyriadPro-Regular';}
	.st2{font-size:24.0016px;}
	.st3{fill:#FFFFFF;}
</style>
<g id="Layer_x0020_1">
	<polygon class="st0" points="0.9,104.7 138.7,104.7 74.8,24.4 18.8,24.4 	"/>
	<g>
		<path d="M0.9,113.2l6.2-3.1v6.1L0.9,113.2z M132.9,113.5H6.8V113h126.1V113.5z M138.7,113.2l-6.2,3.1v-6.1L138.7,113.2z"/>
	</g>
	<g>
		<path d="M18.8,16l6.2-3.1V19L18.8,16z M69,16.2H24.7v-0.6H69V16.2z M74.8,16L68.6,19v-6.2L74.8,16z"/>
	</g>
	<text transform="matrix(1 0 0 1 63.1123 135.3652)" class="st1 st2">b</text>
	<text transform="matrix(1 0 0 1 39.6909 12.7339)" class="st1 st2">a</text>
	<g>
		<g>
			<path class="st3" d="M72,24.2l3.1,6.2h-6.2L72,24.2z M71.7,98.6V30h0.6v68.6H71.7z M72,104.5l-3.1-6.2h6.2L72,104.5z"/>
		</g>
		<text transform="matrix(1 0 0 1 55.9531 73.1802)" class="st3 st1 st2">h</text>
	</g>
</g>
</svg>
