<?xml version="1.0" encoding="utf-8"?>
<!-- Generator: Adobe Illustrator 26.0.1, SVG Export Plug-In . SVG Version: 6.00 Build 0)  -->
<svg version="1.1" id="Layer_1" xmlns="http://www.w3.org/2000/svg" xmlns:xlink="http://www.w3.org/1999/xlink" x="0px" y="0px"
	 viewBox="0 0 101.7 100.1" style="enable-background:new 0 0 101.7 100.1;" xml:space="preserve">
<style type="text/css">
	.st0{fill-rule:evenodd;clip-rule:evenodd;fill:#FF6600;stroke:#000000;stroke-width:1.417;stroke-miterlimit:10;}
	.st1{font-family:'MyriadPro-Regular';}
	.st2{font-size:23.9953px;}
	.st3{fill-rule:evenodd;clip-rule:evenodd;fill:#734F2A;stroke:#000000;stroke-width:0.5668;stroke-miterlimit:10;}
	.st4{fill-rule:evenodd;clip-rule:evenodd;fill:#0072B7;stroke:#000000;stroke-width:0.5668;stroke-miterlimit:10;}
</style>
<g id="Layer_x0020_1">
	<rect x="24.5" y="25.4" class="st0" width="76.5" height="74.1"/>
	<text transform="matrix(1 0 0 1 -0.8613 68.5332)" class="st1 st2">a</text>
	<g>
		<path d="M16,25.4l3.1,6.2h-6.2L16,25.4z M15.6,93.5V31.2h0.7v62.3H15.6z M16,99.5l-3.1-6.2h6.2L16,99.5z"/>
	</g>
	<g>
		<path d="M24.5,16.9l6.2-3.1V20L24.5,16.9z M95.3,17.1h-65v-0.4h65V17.1z M101,16.9L94.8,20v-6.2L101,16.9z"/>
	</g>
	<text transform="matrix(1 0 0 1 56.9917 12.6831)" class="st1 st2">a</text>
	<polygon class="st3" points="101,99.5 101,25.4 24.5,25.4 24.5,99.5 	"/>
	<polygon class="st4" points="101,99.5 101,25.4 24.5,25.4 24.5,99.5 	"/>
</g>
</svg>
