<?xml version="1.0" encoding="utf-8"?>
<!-- Generator: Adobe Illustrator 26.0.1, SVG Export Plug-In . SVG Version: 6.00 Build 0)  -->
<svg version="1.1" id="Layer_1" xmlns="http://www.w3.org/2000/svg" xmlns:xlink="http://www.w3.org/1999/xlink" x="0px" y="0px"
	 viewBox="0 0 152.9 104.1" style="enable-background:new 0 0 152.9 104.1;" xml:space="preserve">
<style type="text/css">
	.st0{fill:none;stroke:#000000;stroke-width:1.4174;stroke-miterlimit:10;}
	.st1{font-family:'MyriadPro-Regular';}
	.st2{font-size:24.0005px;}
	.st3{fill-rule:evenodd;clip-rule:evenodd;fill:#0072B7;stroke:#000000;stroke-width:0.5669;stroke-miterlimit:10;}
</style>
<g id="Layer_x0020_1">
	<rect x="24.9" y="29.4" class="st0" width="127.2" height="74.1"/>
	<text transform="matrix(1 0 0 1 82.3413 17.1753)" class="st1 st2">b</text>
	<text transform="matrix(1 0 0 1 -0.8994 73.1533)" class="st1 st2">a</text>
	<g>
		<path d="M15.9,30l3.1,6.1h-6.1L15.9,30z M15.6,98.1V35.8h0.6v62.3H15.6z M15.9,104l-3-6.2H19L15.9,104z"/>
	</g>
	<g>
		<path d="M24.9,20.9l6.2-3.1V24L24.9,20.9z M146.3,21.2H30.8v-0.5h115.5V21.2z M152.1,20.9L146,24v-6.2L152.1,20.9z"/>
	</g>
	<polygon class="st3" points="24.9,29.4 24.9,103.4 152.1,103.4 152.1,29.4 	"/>
</g>
</svg>
