<?xml version="1.0" encoding="utf-8"?>
<!-- Generator: Adobe Illustrator 26.0.1, SVG Export Plug-In . SVG Version: 6.00 Build 0)  -->
<svg version="1.1" id="Layer_1" xmlns="http://www.w3.org/2000/svg" xmlns:xlink="http://www.w3.org/1999/xlink" x="0px" y="0px"
	 viewBox="0 0 114.9 127.1" style="enable-background:new 0 0 114.9 127.1;" xml:space="preserve">
<style type="text/css">
	.st0{fill-rule:evenodd;clip-rule:evenodd;fill:#0072B7;stroke:#000000;stroke-width:1.4177;stroke-miterlimit:1.5121;}
	.st1{font-family:'MyriadPro-Regular';}
	.st2{font-size:24.0069px;}
</style>
<g id="Layer_x0020_1">
	<polygon class="st0" points="57.5,12.9 77.5,21.2 97.5,29.5 105.8,49.6 114.2,69.6 105.8,89.7 97.5,109.7 77.5,118 57.5,126.3 
		37.4,118 17.4,109.7 9.1,89.7 0.8,69.6 9.1,49.6 17.4,29.5 37.4,21.2 	"/>
	<text transform="matrix(1 0 0 1 23.4375 12.9131)" class="st1 st2">a</text>
	<g>
		<path d="M14.7,23.9l4.5-5.3l2.3,5.7L14.7,23.9z M49.5,9.9L20.4,22L20,21.2L49.5,9.1V9.9z M54.8,7.2l-4.5,5.3L48,6.9L54.8,7.2z"/>
	</g>
</g>
</svg>
