<?xml version="1.0" encoding="utf-8"?>
<!-- Generator: Adobe Illustrator 26.0.1, SVG Export Plug-In . SVG Version: 6.00 Build 0)  -->
<svg version="1.1" id="Layer_1" xmlns="http://www.w3.org/2000/svg" xmlns:xlink="http://www.w3.org/1999/xlink" x="0px" y="0px"
	 viewBox="0 0 100.6 100.6" style="enable-background:new 0 0 100.6 100.6;" xml:space="preserve">
<style type="text/css">
	.st0{font-family:'MyriadPro-Regular';}
	.st1{font-size:24.0314px;}
	.st2{fill-rule:evenodd;clip-rule:evenodd;fill:#0072B7;stroke:#000000;stroke-width:1.4192;stroke-miterlimit:1.1275;}
	.st3{fill:none;stroke:#000000;stroke-width:2.8384;stroke-miterlimit:1.1275;}
	.st4{fill:#FFFFFF;}
</style>
<g id="Layer_x0020_1">
	<text transform="matrix(1 0 0 1 37.208 49.6104)" class="st0 st1">r</text>
	<path class="st2" d="M50.5,0.8c27.3,0,49.6,22,49.6,49.6c0,27.3-22.3,49.6-49.6,49.6c-27.6,0-49.6-22.3-49.6-49.6
		C0.8,22.8,22.8,0.8,50.5,0.8z M50.5,29c11.6,0,21.1,9.6,21.1,21.4c0,11.6-9.6,21.1-21.1,21.1C38.6,71.6,29,62,29,50.5
		C29,38.6,38.6,29,50.5,29z"/>
	<polyline class="st3" points="29,51.9 50.2,49.6 81.5,11 	"/>
	<text transform="matrix(1 0 0 1 74.1338 42)" class="st4 st0 st1">R</text>
</g>
</svg>
