<?xml version="1.0" encoding="utf-8"?>
<!-- Generator: Adobe Illustrator 26.0.1, SVG Export Plug-In . SVG Version: 6.00 Build 0)  -->
<svg version="1.1" id="Layer_1" xmlns="http://www.w3.org/2000/svg" xmlns:xlink="http://www.w3.org/1999/xlink" x="0px" y="0px"
	 viewBox="0 0 177.5 100.7" style="enable-background:new 0 0 177.5 100.7;" xml:space="preserve">
<style type="text/css">
	.st0{fill:#0072B7;stroke:#000000;stroke-width:1.4171;stroke-miterlimit:10;}
	.st1{font-family:'MyriadPro-Regular';}
	.st2{font-size:23.9956px;}
	.st3{fill:#FFFFFF;}
</style>
<g id="Layer_x0020_1">
	<path class="st0" d="M45,0.7h131.2l-43.7,67.7H1.3L45,0.7z"/>
	<text transform="matrix(1 0 0 1 56.8867 100.4253)" class="st1 st2">b</text>
	<text transform="matrix(1 0 0 1 40.2617 39.4546)" class="st3 st1 st2">h</text>
	<g>
		<path d="M1.3,76.9l6.2-3.1V80L1.3,76.9z M126.6,77.2H7.2v-0.6h119.5V77.2z M132.5,76.9l-6.2,3.1v-6.2L132.5,76.9z"/>
	</g>
	<g>
		<path class="st3" d="M58,0.7L61,6.9h-6.2L58,0.7z M57.7,62.6v-56h0.6v56H57.7z M58,68.4l-3.1-6.2H61L58,68.4z"/>
	</g>
</g>
</svg>
