<svg xmlns="http://www.w3.org/2000/svg" width="4345" height="2834" viewBox="0 0 4345 2834">
  <g id="Group_1714" data-name="Group 1714" transform="translate(806 -5721)">
    <rect id="Rectangle_764" data-name="Rectangle 764" width="4345" height="1447" transform="translate(-806 7108)" fill="#2b9add" opacity="0.05"/>
    <line id="Line_70" data-name="Line 70" x2="2670" transform="translate(-805 7108)" fill="none" stroke="#000" stroke-width="30"/>
    <line id="Line_72" data-name="Line 72" y2="2774" transform="translate(1397 5721)" fill="none" stroke="#000" stroke-width="19" stroke-dasharray="60"/>
    <line id="Line_71" data-name="Line 71" x2="622" transform="translate(2917 7108)" fill="none" stroke="#000" stroke-width="30"/>
    <text id="n2" transform="translate(-567 7536)" font-size="373" font-family="ArialMT, Arial"><tspan x="0" y="0">n</tspan><tspan y="0" font-size="217.571" baseline-shift="-124.32089561960738">2</tspan></text>
    <text id="n1" transform="translate(-567 6807)" font-size="373" font-family="ArialMT, Arial"><tspan x="0" y="0">n</tspan><tspan y="0" font-size="217.571" baseline-shift="-124.32089561960738">1</tspan></text>
    <text id="interface" transform="translate(1967 7206)" font-size="221" font-family="ArialMT, Arial"><tspan x="0" y="0">interface</tspan></text>
    <text id="θ1" transform="translate(1074 6626)" font-size="270" font-family="ArialMT, Arial"><tspan x="0" y="0">θ</tspan><tspan y="0" font-size="157.491" baseline-shift="-89.99099846546754">1</tspan></text>
    <text id="θ2" transform="translate(1436 8125)" font-size="270" font-family="ArialMT, Arial"><tspan x="0" y="0">θ</tspan><tspan y="0" font-size="157.491" baseline-shift="-89.99099846546754">2</tspan></text>
    <g id="Subtraction_2" data-name="Subtraction 2" transform="translate(53 5232.909)" fill="#2b9add" opacity="0.37">
      <path d="M 1383.00048828125 3014.591064453125 C 1370.194946289062 3014.591064453125 1357.244995117188 3014.376220703125 1344.499755859375 3013.95263671875 L 1344.499755859375 1868.77783203125 L 1702.085083007812 2969.3125 C 1676.897216796875 2976.643798828125 1651.123413085938 2983.1787109375 1625.473876953125 2988.736572265625 C 1599.416748046875 2994.38330078125 1572.802612304688 2999.17041015625 1546.37060546875 3002.965087890625 C 1519.6728515625 3006.798095703125 1492.456298828125 3009.720458984375 1465.476806640625 3011.650634765625 C 1438.20751953125 3013.601806640625 1410.458374023438 3014.591064453125 1383.00048828125 3014.591064453125 Z" stroke="none"/>
      <path d="M 1383.00048828125 3014.091064453125 C 1410.446533203125 3014.091064453125 1438.183715820312 3013.102294921875 1465.441162109375 3011.15185546875 C 1492.408813476562 3009.222412109375 1519.613403320312 3006.301513671875 1546.299438476562 3002.47021484375 C 1572.719848632812 2998.677001953125 1599.322265625 2993.89208984375 1625.368041992188 2988.248046875 C 1650.839233398438 2982.728759765625 1676.429809570312 2976.246337890625 1701.450317382812 2968.976318359375 L 1344.999755859375 1871.934326171875 L 1344.999755859375 3013.468994140625 C 1357.583251953125 3013.8818359375 1370.362548828125 3014.091064453125 1383.00048828125 3014.091064453125 M 1383.00048828125 3015.091064453125 C 1370.029052734375 3015.091064453125 1356.907348632812 3014.870849609375 1343.999755859375 3014.436279296875 L 1343.999755859375 1865.620849609375 L 1702.719970703125 2969.648193359375 C 1677.359375 2977.042724609375 1651.40576171875 2983.629150390625 1625.579711914062 2989.225341796875 C 1599.51220703125 2994.874267578125 1572.886108398438 2999.66357421875 1546.441528320312 3003.4599609375 C 1519.732421875 3007.294677734375 1492.50390625 3010.21826171875 1465.512573242188 3012.1494140625 C 1438.231201171875 3014.101318359375 1410.470092773438 3015.091064453125 1383.00048828125 3015.091064453125 Z" stroke="none" fill="#707070"/>
    </g>
    <g id="Subtraction_1" data-name="Subtraction 1" transform="translate(-951.913 5506.683)" fill="#2b9add" opacity="0.37">
      <path d="M 2349.135498046875 1611.279541015625 L 2348.464111328125 1610.79541015625 L 2349.18408203125 1610.827392578125 L 2349.135498046875 1611.279541015625 Z M 2348.4130859375 1609.423095703125 L 1779.343994140625 906.681396484375 C 1798.361206054688 890.0072631835938 1818.292846679688 873.9273071289062 1838.592895507812 858.8818969726562 C 1859.087768554688 843.6920166015625 1880.462280273438 829.1834716796875 1902.12255859375 815.7589721679688 C 1923.890991210938 802.267822265625 1946.484130859375 789.5396728515625 1969.2744140625 777.9284057617188 C 1992.218994140625 766.23876953125 2015.930541992188 755.3919067382812 2039.750366210938 745.689208984375 C 2063.770263671875 735.9052124023438 2088.499755859375 727.0401611328125 2113.251953125 719.3402709960938 C 2138.24658203125 711.5650634765625 2163.893798828125 704.7824096679688 2189.481689453125 699.1807250976562 C 2215.353271484375 693.5167236328125 2241.818359375 688.9169921875 2268.1416015625 685.5092163085938 C 2294.6171875 682.08154296875 2321.61962890625 679.7730712890625 2348.412841796875 678.6466064453125 L 2348.4130859375 1609.423095703125 Z" stroke="none"/>
      <path d="M 2347.9130859375 1608.01123046875 L 2347.912841796875 679.1682739257812 C 2321.3056640625 680.3021240234375 2294.494873046875 682.6016235351562 2268.205810546875 686.0050659179688 C 2241.896728515625 689.4109497070312 2215.446044921875 694.0082397460938 2189.588623046875 699.6690673828125 C 2164.0146484375 705.267822265625 2138.38134765625 712.0467529296875 2113.400634765625 719.8176879882812 C 2088.66162109375 727.5133056640625 2063.945556640625 736.37353515625 2039.939086914062 746.1522827148438 C 2016.132202148438 755.8496704101562 1992.433471679688 766.6906127929688 1969.50146484375 778.3739013671875 C 1946.723510742188 789.9788818359375 1924.142578125 802.7000122070312 1902.385986328125 816.1840209960938 C 1880.7373046875 829.60107421875 1859.374389648438 844.1019287109375 1838.890502929688 859.28369140625 C 1818.729858398438 874.2257690429688 1798.933471679688 890.188232421875 1780.03515625 906.740478515625 L 2347.9130859375 1608.01123046875 M 2348.912841796875 1610.837524414062 L 2348.911865234375 1610.833740234375 L 1778.65283203125 906.6224975585938 C 1797.791870117188 889.8237915039062 1817.8583984375 873.6268310546875 1838.295043945312 858.4802856445312 C 1858.801513671875 843.2817993164062 1880.187622070312 828.7653198242188 1901.859252929688 815.3340454101562 C 1923.640380859375 801.8348388671875 1946.245849609375 789.0999145507812 1969.047485351562 777.4828491210938 C 1992.004760742188 765.7867431640625 2015.729248046875 754.9340209960938 2039.561767578125 745.2261352539062 C 2063.59326171875 735.4373168945312 2088.336181640625 726.5673217773438 2113.103515625 718.8628540039062 C 2138.112060546875 711.0833129882812 2163.7734375 704.2969970703125 2189.374755859375 698.6922607421875 C 2215.260498046875 693.0252075195312 2241.73974609375 688.4229736328125 2268.077392578125 685.0133056640625 C 2294.73876953125 681.5617065429688 2321.935791015625 679.2442626953125 2348.912841796875 678.1253051757812 L 2348.9130859375 1610.834716796875 L 2348.912841796875 1610.837524414062 Z M 2348.9130859375 1610.834716796875 L 2348.913330078125 1610.833129882812 L 2348.9130859375 1610.834716796875 Z" stroke="none" fill="#707070"/>
    </g>
    <line id="Line_73" data-name="Line 73" x2="1081" y2="1338" transform="translate(316 5770)" fill="none" stroke="#000" stroke-width="20"/>
    <line id="Line_74" data-name="Line 74" x2="468" y2="1434" transform="translate(1397 7099)" fill="none" stroke="#000" stroke-width="20"/>
    <path id="Polygon_1" data-name="Polygon 1" d="M84.627,0l84.627,146.214H0Z" transform="matrix(-0.777, 0.629, -0.629, -0.777, 871.408, 6322.061)"/>
    <path id="Polygon_2" data-name="Polygon 2" d="M84.627,0l84.627,146.214H0Z" transform="translate(1745.662 7891.257) rotate(160)"/>
  </g>
</svg>
