<?xml version="1.0" encoding="UTF-8"?>
<svg id="Layer_2" data-name="Layer 2" xmlns="http://www.w3.org/2000/svg" viewBox="0 0 547.99 547.99">
  <defs>
    <style>
      .cls-1 {
        fill: #009245;
      }

      .cls-2 {
        fill: #fff;
      }
    </style>
  </defs>
  <g id="Layer_1-2" data-name="Layer 1">
    <g>
      <circle class="cls-2" cx="274" cy="274" r="274"/>
      <path class="cls-1" d="M286,465.67h-23.96c-.82-.21-1.64-.56-2.47-.61-16.24-1.15-32.15-4.14-47.42-9.8-69.62-25.79-111.86-75.17-126.77-147.86-1.44-7.04-2.04-14.26-3.03-21.39,0-7.99,0-15.97,0-23.96,.22-1.09,.5-2.17,.66-3.26,1.28-8.62,2.04-17.35,3.89-25.84C109.9,127.29,216.48,61.57,321.26,88.28c99.07,25.26,160.62,123.22,140.61,223.8-15.29,76.87-77.59,137.51-154.85,150.65-6.97,1.19-14.02,1.97-21.03,2.94Zm-2.19-71.87c.02-.3,.05-.6,.07-.9-4.52-3.22-9.22-6.21-13.53-9.69-16.81-13.57-26.05-31.01-25.49-52.86,.53-20.82,9.03-38.83,20.97-55.43,3.09-4.3,5.02-4.44,9.19-.99,20.32,16.82,26.96,38.91,23.93,64.26-1.01,8.45-3.78,16.71-5.94,25-.71,2.72-3.02,3.79-5.61,2.77-2.58-1.01-3.36-3.17-2.28-5.84,.28-.69,.55-1.39,.8-2.09,4.79-13.49,6.84-27.31,4.56-41.55-2.19-13.67-8.52-25.09-19.13-34.42-6.26,8.75-11.03,18.01-14.26,28.02-7.06,21.88-4.87,42.08,11.3,59.57,8.34,9.02,18.63,15.35,29.5,20.78,1.19,.6,2.93,.55,4.3,.26,9.95-2.1,19.37-5.68,28.03-11.03,28.33-17.51,42.67-43.61,45.73-76.17,3.67-39.09-21.96-69.14-48.15-84.71-2.78-1.66-5.27-.74-6.48,2.14-4.04,9.53-6.78,19.38-4.68,29.82,.91,4.49,2.69,8.8,4.1,13.26-10.03-4.33-16.43-11.84-19.78-22.12-2.49-7.62-2.22-15.46-2.27-23.33-.14-21.18-8.4-38.47-25.53-51.15-10.36-7.67-22.28-11.58-35.01-12.88-1.89-.19-4.88,.77-5.67,2.15-.76,1.34,.47,4,1.19,5.94,.55,1.48,1.77,2.71,2.53,4.13,6.85,12.84,4.89,26.32-5.61,34-10.96,8.02-20.29,17.67-29.41,27.59-22.76,24.75-33.3,53.57-28.14,87.18,4.43,28.81,18.82,51.15,45.03,65.05,17.09,9.06,35.5,12.86,54.71,13.27,3.68,.08,7.36,.01,11.04,.01Z"/>
    </g>
  </g>
</svg>