<?xml version="1.0" encoding="UTF-8"?>
<svg id="Layer_2" data-name="Layer 2" xmlns="http://www.w3.org/2000/svg" viewBox="0 0 547.99 547.99">
  <defs>
    <style>
      .cls-1 {
        fill: #009245;
      }

      .cls-2 {
        fill: #fff;
      }
    </style>
  </defs>
  <g id="Layer_1-2" data-name="Layer 1">
    <g>
      <circle class="cls-2" cx="274" cy="274" r="274"/>
      <path class="cls-1" d="M163.61,174.01c-1.12-1.31-3.16-3.34-4.74-5.68-1.44-2.12-2.97-4.47-3.4-6.9-.66-3.74-2.1-6.21-6.09-6-3.73,.19-4.92,2.72-5.27,6.23-.25,2.51-1.35,4.95-2.2,7.38-2.05,5.9-4.4,11.71-6.21,17.68-3.05,10.11-5.34,20.42-11.87,29.18-2.98,3.99-.63,8.98,4.31,8.83,11.2-.35,17.99,5.6,23.42,14.35,3.4,5.48,8.1,7.16,14.92,7.15,8.61-.01,17.32,2.22,25.79,4.26,4.63,1.11,8.33,1.5,12.59-1.37,2.77-1.87,6.72-2.81,10.13-2.78,16.31,.16,26.23-6.3,30.56-21.97,1.58-5.73,4.04-6.94,9.45-6.81,15.05,.37,30.11,.13,44.9,.13,1.8,4.76,2.98,9.34,5.17,13.37,5.76,10.62,14.18,16.55,27.09,15.48,4.08-.34,8.38,2.29,12.63,3.36,2.62,.66,5.56,1.82,7.97,1.21,10.93-2.77,21.57-6.34,33.25-5,2.76,.32,6.35-2.78,8.86-5.07,2.6-2.37,4.27-5.73,6.49-8.54,4.06-5.13,9.51-7.17,15.97-7.61,2.53-.17,6.12-1.37,7.1-3.22,.94-1.79-.58-5.13-1.53-7.6-3.06-7.98-6.42-15.84-9.53-23.8-3.05-7.79-6.04-15.6-8.82-23.49-.68-1.94,.08-4.46-.8-6.24-.99-1.99-2.92-4.54-4.74-4.81-1.77-.26-5.66,2.08-5.63,3.22,.14,7.81-7.16,10.74-9.21,15.41-2.68-2.31-5.3-4.68-8.04-6.9-2.02-1.63-5.92-1.29-5.35-5.54,.5-3.8,.94-6.89,5.78-8.21,5.46-1.5,10.44-4.67,15.77-6.76,1.54-.6,4.1-.69,5.29,.19,15.66,11.69,31.38,23.32,46.61,35.56,7.08,5.69,13.9,12.06,19.42,19.22,3.99,5.16,5.61,12.14,8.36,18.27,1.01,2.25,2.03,4.52,3.37,6.58,3.52,5.4,3.15,8.96-2.73,11.1-6.49,2.37-10.44,7.02-14.73,11.87-17.81,20.12-38.94,34.8-66.05,39.54-1.87,.33-3.94,1.89-5.11,3.47-4.75,6.44-10.64,11.14-18.48,13.1-4.77,1.19-5.48,4.52-5.08,8.66,1.31,13.51,.61,26.85-3.24,39.96-3.97,13.5-11.86,24.79-21.99,33.88-4.81,4.31-12.6,5.74-19.3,7.42-34.97,8.75-69.63,7.82-103.69-4.59-2.71-.99-5.25-2.97-7.33-5.04-19.73-19.57-25.36-43.81-23.12-70.62,.62-7.42-.19-7.28-6.82-10.56-5.75-2.85-10.58-7.57-15.81-11.47-1.94-1.45-3.7-3.84-5.83-4.22-28.49-5.11-50.07-21.14-68.62-42.36-2.91-3.33-6.88-6.02-10.83-8.11-7.12-3.77-8.04-6.38-3.37-12.9,.82-1.15,2.01-2.34,2.18-3.62,2.19-16.96,13.5-27.78,25.83-37.57,13.76-10.93,28.7-20.43,41.92-31.94,7.35-6.4,13.15-7.52,20.88-2.31,2.2,1.48,4.75,2.76,7.32,3.3,4.4,.92,5.35,3.51,5.75,7.57,.44,4.5-3.04,4.55-5.34,6.19-2.83,2.02-5.45,4.33-8.16,6.51Zm110.43,131.79c10.49,11.31,23.31,16.13,38.28,15.47,16.77-.73,33.79-13.72,38-29.48,.52-1.95-.96-6.02-2.42-6.53-2.02-.71-5.14,.6-7.32,1.86-1.29,.74-1.63,3.08-2.47,4.65-5.53,10.29-13.66,16.8-25.64,18.01-16.17,1.63-27.83-5.93-33.19-21.22-.64-1.83-3.89-4.33-5.23-3.96-2.2,.6-5.11,3.1-5.44,5.16-1.03,6.47-4.64,10.78-9.65,14.21-17.3,11.85-39.41,6.24-49.03-12.37-.66-1.27-1.24-2.58-1.89-3.86-1.67-3.23-4.4-4.38-7.62-2.92-3.31,1.49-3.8,4.33-2.61,7.7,5.86,16.7,22.13,28.52,39.76,28.78,14.37,.21,26.59-4.8,36.48-15.52Zm-29.93-11.12c.02-.79,.04-1.58,.06-2.37-2.1-1.44-4.34-4.18-6.26-3.97-1.93,.21-4.57,3.19-4.91,5.28-.23,1.4,2.95,4.66,4.72,4.74,2.07,.1,4.26-2.35,6.39-3.69Zm72.34-.31c-.04-.81-.08-1.63-.12-2.44-2.18-1.32-4.59-3.93-6.46-3.59-1.94,.36-4.38,3.46-4.63,5.6-.16,1.37,3.23,4.43,5.04,4.43,2.06,0,4.11-2.55,6.17-4Zm-41.22,61.9h-2.37c-1.42,2.1-4.14,4.38-3.89,6.26,.26,1.94,3.25,4.51,5.36,4.86,1.35,.23,4.57-3.02,4.64-4.8,.08-2.06-2.38-4.21-3.74-6.33Z"/>
    </g>
  </g>
</svg>