<?xml version="1.0" encoding="UTF-8"?>
<svg id="Layer_2" data-name="Layer 2" xmlns="http://www.w3.org/2000/svg" viewBox="0 0 547.99 547.99">
  <defs>
    <style>
      .cls-1 {
        fill: #009245;
      }

      .cls-2 {
        fill: #fff;
      }
    </style>
  </defs>
  <g id="Layer_1-2" data-name="Layer 1">
    <g>
      <circle class="cls-2" cx="274" cy="274" r="274"/>
      <g>
        <path class="cls-1" d="M261.58,302.94c0,6.11,.05,12.22-.01,18.33-.09,8.96-6.82,14.28-15.54,12.11-20.77-5.16-41.64-10.01-62.24-15.81-24.12-6.79-41.32-29.68-41.88-54.74-.27-12.09-.15-24.19-.07-36.28,.06-8.48,6.91-13.85,15.16-11.83,20.31,4.99,40.65,9.86,60.85,15.26,25.4,6.8,43.09,29.8,43.68,56.12,.13,5.61,.02,11.22,.02,16.83,.01,0,.02,0,.03,0Z"/>
        <path class="cls-1" d="M261.58,422.63c0,6.11,.05,12.22-.01,18.33-.08,8.99-6.78,14.36-15.46,12.2-20.78-5.16-41.64-10.01-62.24-15.81-24.17-6.8-41.38-29.64-41.95-54.68-.28-12.21-.18-24.44-.06-36.66,.08-8.06,6.94-13.54,14.71-11.64,20.68,5.04,41.4,9.95,61.94,15.53,24.77,6.74,42.36,29.83,43.01,55.52,.14,5.73,.02,11.47,.02,17.21,.01,0,.03,0,.04,0Z"/>
        <path class="cls-1" d="M406.26,245.56c-1.08,10.49-.82,21.34-3.53,31.4-5.9,21.95-20.9,35.86-42.8,41.74-19.71,5.29-39.59,9.99-59.42,14.84-7.35,1.8-14.67-2.95-14.79-10.26-.24-14.45-.82-29.01,.62-43.33,2.52-25,20.31-44.32,44.92-50.61,19.42-4.96,38.88-9.72,58.34-14.5,8.94-2.2,15.61,3.07,15.68,12.3,.05,6.11,0,12.22,0,18.33,.32,.03,.64,.07,.96,.1Z"/>
        <path class="cls-1" d="M284.98,422.53c.61-9.06,.18-18.33,2.02-27.13,5.1-24.48,20.57-39.84,44.55-46.31,18.74-5.06,37.65-9.49,56.49-14.19,10.84-2.7,17.25,2.28,17.26,13.42,0,10.22,.02,20.45,0,30.67-.07,29.26-17.65,52.26-46,59.67-19.39,5.07-38.88,9.75-58.34,14.51-8.5,2.08-15.29-3.22-15.4-11.91-.08-6.23-.02-12.47-.02-18.7-.19-.01-.37-.02-.56-.04Z"/>
        <path class="cls-1" d="M225.62,166.05c.3-14.78,4.8-28.2,14.66-39.63,7.74-8.96,15.49-17.92,23.29-26.82,6.07-6.93,13.83-7,19.87-.12,7.98,9.08,15.94,18.18,23.76,27.4,18.97,22.38,19.04,56,.15,78.47-7.86,9.35-15.9,18.55-23.95,27.74-6.07,6.94-13.74,6.84-19.85-.18-7.94-9.12-15.88-18.23-23.71-27.45-9.59-11.29-13.95-24.52-14.23-39.41Z"/>
      </g>
    </g>
  </g>
</svg>