<svg xmlns="http://www.w3.org/2000/svg" viewBox="0 0 154 154"><defs><style>.cls-1{fill:#666;}.cls-2,.cls-6{fill:none;}.cls-2{stroke:#707070;}.cls-3{fill:#707070;}.cls-4,.cls-5{isolation:isolate;}.cls-5{font-size:16px;font-family:TimesNewRomanPSMT, Times New Roman;}.cls-6{stroke:#1e5b80;stroke-width:2px;}</style></defs><g id="Layer_2" data-name="Layer 2"><g id="Layer_1-2" data-name="Layer 1"><g id="ic-tetragon"><path id="Path_5-5" data-name="Path 5-5" class="cls-1" d="M77,154a77,77,0,1,1,77-77A77,77,0,0,1,77,154ZM77,1a76,76,0,1,0,76,76h0A76.1,76.1,0,0,0,77,1Z"/><path id="Path_6-5" data-name="Path 6-5" class="cls-1" d="M77,129.16A52.16,52.16,0,1,1,129.16,77h0A52.21,52.21,0,0,1,77,129.16ZM77,25.52A51.49,51.49,0,1,0,128.49,77,51.49,51.49,0,0,0,77,25.52Z"/><g id="Group_9-5" data-name="Group 9-5"><line id="Line_1-5" data-name="Line 1-5" class="cls-2" x1="1.5" y1="77.5" x2="75.5" y2="77.5"/><line id="Line_3-5" data-name="Line 3-5" class="cls-2" x1="77.5" y1="75.5" x2="88.5" y2="64.5"/><line id="Line_14" data-name="Line 14" class="cls-2" x1="102.5" y1="51.5" x2="113.5" y2="40.5"/><line id="Line_5-5" data-name="Line 5-5" class="cls-2" x1="76.5" y1="75.5" x2="76.5" y2="52.5"/><line id="Line_6-5" data-name="Line 6-5" class="cls-2" x1="76.5" y1="32.5" x2="76.5" y2="2.5"/></g><g id="Ellipse_1-5" data-name="Ellipse 1-5"><circle class="cls-3" cx="76.5" cy="77" r="3"/><circle class="cls-2" cx="76.5" cy="77" r="2.5"/></g><g id="R-11" class="cls-4"><text class="cls-5" transform="translate(71.66 47.96)">R</text></g><g id="x-6" class="cls-4"><text class="cls-5" transform="translate(132 80.96)">x</text></g><g id="r-12" class="cls-4"><text class="cls-5" transform="translate(93.34 60)">r</text></g><g id="y-6" class="cls-4"><text class="cls-5" transform="translate(62 70)">y</text></g><g id="a-6" class="cls-4"><text class="cls-5" transform="translate(27.45 123)">a</text></g><path id="Polygon_1-5" data-name="Polygon 1-5" class="cls-6" d="M77,2l75,75L77,152,2,77Z"/></g></g></g></svg>