<svg xmlns="http://www.w3.org/2000/svg" viewBox="0 0 154 154"><defs><style>.cls-1{fill:#666;}.cls-2,.cls-6{fill:none;}.cls-2{stroke:#707070;}.cls-3{fill:#707070;}.cls-4,.cls-5{isolation:isolate;}.cls-5{font-size:16px;font-family:TimesNewRomanPSMT, Times New Roman;}.cls-6{stroke:#1e5b80;stroke-miterlimit:4;stroke-width:2px;}</style></defs><g id="Layer_2" data-name="Layer 2"><g id="Layer_1-2" data-name="Layer 1"><g id="ic-tetradecagon"><path id="Path_5-11" data-name="Path 5-11" class="cls-1" d="M77,154a77,77,0,1,1,77-77A77,77,0,0,1,77,154ZM77,1a76,76,0,1,0,76,76h0A76.1,76.1,0,0,0,77,1Z"/><path id="Path_6-11" data-name="Path 6-11" class="cls-1" d="M77,148.76C37.24,148.76,4.87,116.57,4.87,77S37.24,5.24,77,5.24,149.17,37.43,149.17,77,116.8,148.76,77,148.76ZM77,6.17C37.75,6.17,5.81,37.94,5.81,77S37.75,147.83,77,147.83,148.24,116.06,148.24,77,116.29,6.17,77,6.17Z"/><g id="Group_9-11" data-name="Group 9-11"><path id="Path_7-2" data-name="Path 7-2" class="cls-2" d="M18.74,124.6,74.5,77.5"/><line id="Line_2-10" data-name="Line 2-10" class="cls-2" x1="45.5" y1="144.5" x2="75.5" y2="77.5"/><line id="Line_3-10" data-name="Line 3-10" class="cls-2" x1="76.5" y1="76.5" x2="101.5" y2="64.5"/><line id="Line_13" data-name="Line 13" class="cls-2" x1="116.5" y1="57.5" x2="141.5" y2="45.5"/><line id="Line_5-11" data-name="Line 5-11" class="cls-2" x1="76.5" y1="75.5" x2="76.5" y2="52.5"/><line id="Line_6-11" data-name="Line 6-11" class="cls-2" x1="76.5" y1="32.5" x2="76.5" y2="2.5"/></g><g id="Ellipse_1-11" data-name="Ellipse 1-11"><circle class="cls-3" cx="76.5" cy="77" r="3"/><circle class="cls-2" cx="76.5" cy="77" r="2.5"/></g><g id="R-23" class="cls-4"><text class="cls-5" transform="translate(71.66 47.96)">R</text></g><g id="r-24" class="cls-4"><text class="cls-5" transform="translate(107.34 63.96)">r</text></g><g id="y-12" class="cls-4"><text class="cls-5" transform="translate(48 108.96)">y</text></g><g id="x-12" class="cls-4"><text class="cls-5" transform="translate(124 116.96)">x</text></g><g id="a-12" class="cls-4"><text class="cls-5" transform="translate(19.19 144.5)">a</text></g><path id="Polygon_1-11" data-name="Polygon 1-11" class="cls-6" d="M135.07,29.76l14.75,29.89L150.15,93,136,123.15l-25.86,21L77.7,151.91l-32.56-7.1L18.88,124.29,4.13,94.4,3.8,61.07,18,30.9l25.86-21L76.25,2.14l32.56,7.1Z"/></g></g></g></svg>