<svg version="1.0" xmlns="http://www.w3.org/2000/svg" viewBox="0 0 400 300"><g transform="translate(-70, 485) scale(0.1,-0.1)" fill="#1e5b80" stroke="none"><path d="m 2192,4613 c -18,-17 -234,-414 -542,-997 -443,-839 -511,-973 -504,-995 16,-44 122,-105 246,-140 168,-48 167,-47 195,-107 42,-89 108,-101 347,-64 181,28 181,28 206,-20 46,-90 106,-100 390,-69 0,0 148.4528,17.7893 210,17.6336 61.5472,-0.1558 157,-12.6336 157,-12.6336 311,-37 362,-32 395,37 28,58 40,61 254,54 184,-7 234.0574,-6.3359 254,23 2.811,4.1351 11,22 25,38 21,25 37,32 98,42 211,34 337,97 337,167 0,32 -479,1060 -750,1608 -129,262 -197,389 -219,410 0,0 -10.8836,16.365 -35.4724,19.8984 -60.5396,8.6997 -519.6313,8.5197 -519.6313,8.5197 0,0 -482.3859,7.1279 -510.3055,3.5076 C 2204.452,4633.6445 2192,4613 2192,4613 Z m 902.4101,-9.4746 c 39.9759,-2 123.8482,-10.4194 123.8482,-10.4194 l -83.8896,-18.2627 C 2911.3687,4520.8433 2441,4531 2295,4591 l -30,12 c 0,0 75.4883,3.4707 88.1337,3.7816 18.2952,0.4496 116.0758,3.5363 130.8638,3.693 11.4011,0.1208 570.4367,-4.9492 610.4126,-6.9492 z M 2322,4551 c 124,-32 232,-43 410,-42 188,0 343,14 456,41 51,12 82,15 94,9 31,-16 490,-962 883,-1819 74,-161 73,-155 31,-195 -40,-38 -118,-66 -245,-90 -108,-20 -138,-19 -150,3 -5,9 -52,161 -104,337 -79,264 -304,995 -363,1178 -26,80 -34,52 -10,-35 49,-176 319,-1074 386,-1287 42,-131 70,-237 68,-255 -5,-50 -34,-59 -163,-49 -60,4 -158,8 -217,8 -58,0 -109,3 -112,6 -3,3 -24,122 -46,265 -84,539 -167,1025 -176,1034 -7,7 -9,0 -6,-22 22,-173 121,-831 158,-1054 27,-162 44,-291 41,-306 -14,-53 -118,-60 -357,-23 -119,18 -184,18 -335,0 -263,-33 -330,-30 -376,16 -26,26 -24,64 10,216 59,255 241,1130 240,1154 0,22 -1,23 -9,4 -11,-24 -161,-693 -230,-1020 -27,-131 -54,-243 -59,-248 -6,-6 -84,-21 -173,-33 -249,-35 -316,-31 -340,21 -10,21 -3,49 52,202 100,283 480,1426 476,1431 -3,2 -9,-5 -14,-15 -15,-27 -320,-904 -432,-1238 -111,-334 -84,-304 -235,-260 -195,57 -295,110 -295,155 0,24 1010.5794,1919.0768 1016.4216,1925.4746 4.9206,5.3885 9.7418,15.0508 32.5784,9.5254 9,-2 51,-13 93,-24 z"></path></g></svg>