<?xml version="1.0" encoding="utf-8"?>
<!-- Generator: Adobe Illustrator 25.0.1, SVG Export Plug-In . SVG Version: 6.00 Build 0)  -->
<svg version="1.1" id="Layer_1" xmlns="http://www.w3.org/2000/svg" xmlns:xlink="http://www.w3.org/1999/xlink" x="0px" y="0px"
	 viewBox="0 0 165.5 135.6" style="enable-background:new 0 0 165.5 135.6;" xml:space="preserve">
<style type="text/css">
	.st0{fill:none;stroke:#1E5B80;stroke-width:1.4173;stroke-miterlimit:10;}
	.st1{font-family:'MyriadPro-Regular';}
	.st2{font-size:23.9991px;}
</style>
<g id="Layer_x0020_1">
	<polygon class="st0" points="19.3,104.7 157.1,104.7 93.2,24.4 37.2,24.4 	"/>
	<g>
		<path d="M19.3,113.2l6.1-3.1v6.1L19.3,113.2z M151.2,113.5H25.1v-0.6h126.1V113.5z M157.1,113.2l-6.2,3.1v-6.1L157.1,113.2z"/>
	</g>
	<g>
		<path d="M37.2,15.9l6.2-3.1V19L37.2,15.9z M87.3,16.2H43v-0.6h44.3V16.2z M93.2,15.9L87,19v-6.2L93.2,15.9z"/>
	</g>
	<text transform="matrix(1 0 0 1 81.4873 135.3613)" class="st1 st2">c</text>
	<text transform="matrix(1 0 0 1 58.0811 12.7026)" class="st1 st2">a</text>
	<g>
		<path d="M101.6,19.6l6.3,2.9l-4.8,3.9L101.6,19.6z M161.6,95.4L105,24.3l0.4-0.3L162,95.1L161.6,95.4z M165.4,99.8l-6.3-2.9
			l4.9-3.9L165.4,99.8z"/>
	</g>
	<g>
		<path d="M25.3,22.5l1.7,6.7l-6-1.3L25.3,22.5z M8.3,97l15.4-68.8l0.6,0.1L8.9,97.1L8.3,97z M7.3,102.8l-1.7-6.7l6,1.4L7.3,102.8z"
			/>
	</g>
	<text transform="matrix(1 0 0 1 136.2607 55.8853)" class="st1 st2">b</text>
	<text transform="matrix(1 0 0 1 -0.7666 64.7363)" class="st1 st2">d</text>
</g>
</svg>
