<?xml version="1.0" encoding="utf-8"?>
<!-- Generator: Adobe Illustrator 25.0.1, SVG Export Plug-In . SVG Version: 6.00 Build 0)  -->
<svg version="1.1" id="Layer_1" xmlns="http://www.w3.org/2000/svg" xmlns:xlink="http://www.w3.org/1999/xlink" x="0px" y="0px"
	 viewBox="0 0 115.9 114.1" style="enable-background:new 0 0 115.9 114.1;" xml:space="preserve">
<style type="text/css">
	.st0{fill:none;stroke:#1E5B80;stroke-width:1.4172;stroke-miterlimit:10;}
	.st1{font-family:'MyriadPro-Regular';}
	.st2{font-size:24.0978px;}
	.st3{font-size:23.9986px;}
</style>
<g id="Layer_x0020_1">
	<polygon class="st0" points="108.1,84.9 16.6,84.9 40,6.1 	"/>
	<g transform="matrix(0.995869 0 0 1 3437.77 -3808.09)">
		<text transform="matrix(1 0 0 1 -3365.9551 3847.0623)" class="st1 st2">c</text>
	</g>
	<g id="_531935704">
		<text transform="matrix(1 0 0 1 54.6909 113.8555)" class="st1 st3">b</text>
		<g>
			<path d="M15.9,92.1l6.2-3.1v6.2L15.9,92.1z M101.6,92.4H21.8v-0.6h79.8V92.4z M107.5,92.1l-6.2,3.1V89L107.5,92.1z"/>
		</g>
	</g>
	<g>
		<text transform="matrix(1 0 0 1 -0.8564 47.7256)" class="st1 st3">a</text>
		<g>
			<path d="M8,81.2l-1.2-6.8l5.9,1.8L8,81.2z M30,8.1L10,75.7l-0.6-0.2L29.5,8L30,8.1z M31.4,2.5l1.2,6.8l-5.9-1.7L31.4,2.5z"/>
		</g>
	</g>
	<g>
		<path d="M47.8,0l6.4,2.6l-4.6,4L47.8,0z M111.9,74.5L51.4,4.6l0.4-0.4l60.4,69.9L111.9,74.5z M115.9,78.7l-6.4-2.7l4.6-4
			L115.9,78.7z"/>
	</g>
</g>
</svg>
