<svg xmlns="http://www.w3.org/2000/svg" viewBox="0 0 154.71 154.71"><defs><style>.cls-1{fill:#666;}.cls-2,.cls-6{fill:none;}.cls-2{stroke:#707070;}.cls-3{fill:#707070;}.cls-4,.cls-5{isolation:isolate;}.cls-5{font-size:16px;font-family:TimesNewRomanPSMT, Times New Roman;}.cls-6{stroke:#1e5b80;stroke-width:2px;}</style></defs><g id="Layer_2" data-name="Layer 2"><g id="Layer_1-2" data-name="Layer 1"><g id="ic-tridecagon"><path id="Path_5-12" data-name="Path 5-12" class="cls-1" d="M77.36,154.71a77.36,77.36,0,1,1,77.35-77.35h0A77.43,77.43,0,0,1,77.36,154.71ZM77.36,1a76.36,76.36,0,1,0,76.35,76.36h0A76.44,76.44,0,0,0,77.36,1Z"/><path id="Path_6-12" data-name="Path 6-12" class="cls-1" d="M76.86,149.87c-40,0-72.6-32.39-72.6-72.21s32.56-72.2,72.6-72.2,72.59,32.39,72.59,72.2S116.89,149.87,76.86,149.87Zm0-143.48c-39.52,0-71.67,32-71.67,71.27s32.15,71.28,71.67,71.28,71.66-32,71.66-71.28S116.37,6.39,76.86,6.39Z"/><g id="Group_9-12" data-name="Group 9-12"><path id="Path_7-3" data-name="Path 7-3" class="cls-2" d="M6.18,103.94l69-26.44"/><line id="Line_2-11" data-name="Line 2-11" class="cls-2" x1="26.21" y1="133.5" x2="76.21" y2="77.5"/><line id="Line_3-11" data-name="Line 3-11" class="cls-2" x1="77.21" y1="76.5" x2="104.21" y2="66.5"/><line id="Line_15" data-name="Line 15" class="cls-2" x1="118.21" y1="60.5" x2="145.21" y2="50.5"/><line id="Line_5-12" data-name="Line 5-12" class="cls-2" x1="77.21" y1="75.5" x2="77.21" y2="52.5"/><line id="Line_6-12" data-name="Line 6-12" class="cls-2" x1="77.21" y1="32.5" x2="77.21" y2="2.5"/></g><g id="Ellipse_1-12" data-name="Ellipse 1-12"><circle class="cls-3" cx="77.21" cy="77" r="3"/><circle class="cls-2" cx="77.21" cy="77" r="2.5"/></g><g id="R-25" class="cls-4"><text class="cls-5" transform="translate(72.38 47.96)">R</text></g><g id="r-26" class="cls-4"><text class="cls-5" transform="translate(109.05 65.96)">r</text></g><g id="y-13" class="cls-4"><text class="cls-5" transform="translate(44.71 98.96)">y</text></g><g id="x-13" class="cls-4"><text class="cls-5" transform="translate(134.21 100.96)">x</text></g><g id="a-13" class="cls-4"><text class="cls-5" transform="translate(6.04 129.5)">a</text></g><path id="Polygon_1-12" data-name="Polygon 1-12" class="cls-6" d="M139.57,35.36l12.34,33.8-4.85,35.75-21,29.51-32.23,16.5-36.13-.27L26,133.66,5.88,103.84,2,68,15.3,34.42l27.38-23.7L77.89,2.36l35,8.89Z"/></g></g></g></svg>