<svg xmlns="http://www.w3.org/2000/svg" viewBox="0 0 155 155"><defs><style>.cls-1{fill:#666;}.cls-2{fill:#1e5b80;}.cls-3,.cls-4,.cls-5{isolation:isolate;}.cls-4{font-size:16px;}.cls-4,.cls-5{font-family:TimesNewRomanPSMT, Times New Roman;}.cls-5{font-size:14px;}</style></defs><g id="Layer_2" data-name="Layer 2"><g id="Layer_1-2" data-name="Layer 1"><g id="ic-trigon"><g id="Group_5" data-name="Group 5"><g id="Group_1" data-name="Group 1"><path id="Path_1" data-name="Path 1" class="cls-1" d="M77.5,155A77.5,77.5,0,1,1,155,77.5,77.5,77.5,0,0,1,77.5,155Zm0-154A76.5,76.5,0,1,0,154,77.5,76.5,76.5,0,0,0,77.5,1Z"/></g><g id="Group_4" data-name="Group 4"><g id="Group_2" data-name="Group 2"><rect id="Rectangle_2" data-name="Rectangle 2" class="cls-1" x="76.9" y="3.8" width="1" height="41"/><rect id="Rectangle_3" data-name="Rectangle 3" class="cls-1" x="99.78" y="58.65" width="8.6" height="1" transform="translate(-15.19 69.43) rotate(-34.54)"/><path id="Path_2" data-name="Path 2" class="cls-1" d="M85.36,70.34l-5.85,4a3,3,0,0,0-2-1.32V64.5h-1v8.55A3,3,0,0,0,74,76.46a2.76,2.76,0,0,0,.25.8l-62,37.81.52.86L74.85,78.09a3,3,0,0,0,5.06-2.78l6-4.14Z"/></g><g id="Group_3" data-name="Group 3"><path id="Path_3" data-name="Path 3" class="cls-1" d="M77.5,115A37.5,37.5,0,1,1,115,77.5h0A37.54,37.54,0,0,1,77.5,115Zm0-74A36.5,36.5,0,1,0,114,77.5h0A36.54,36.54,0,0,0,77.5,41Z"/></g></g></g><g id="Group_6" data-name="Group 6"><path id="Path_4" data-name="Path 4" class="cls-2" d="M144.23,116.5H10.77L77.55.5Zm-130-2H140.77L77.55,4.5Z"/></g><g id="R" class="cls-3"><text class="cls-4" transform="translate(71.64 59.96)">R</text></g><g id="y" class="cls-3"><text class="cls-5" transform="translate(60.98 73.46)">y</text></g><g id="r-2" class="cls-3"><text class="cls-5" transform="translate(90.98 69.46)">r</text></g><g id="x" class="cls-3"><text class="cls-4" transform="translate(116.98 107.96)">x</text></g><g id="a" class="cls-3"><text class="cls-4" transform="translate(74.36 133.69)">a</text></g></g></g></g></svg>