<svg width="20" height="20" viewBox="0 0 20 20" fill="none" xmlns="http://www.w3.org/2000/svg">
<g clip-path="url(#clip0_1423_12725)">
<path d="M15 19.1667H5.00004C4.77903 19.1667 4.56707 19.0789 4.41079 18.9226C4.25451 18.7663 4.16671 18.5544 4.16671 18.3333C4.16671 18.1123 4.25451 17.9004 4.41079 17.7441C4.56707 17.5878 4.77903 17.5 5.00004 17.5H15C15.2211 17.5 15.433 17.5878 15.5893 17.7441C15.7456 17.9004 15.8334 18.1123 15.8334 18.3333C15.8334 18.5544 15.7456 18.7663 15.5893 18.9226C15.433 19.0789 15.2211 19.1667 15 19.1667ZM19.1667 5.00001V11.6667C19.1667 12.2139 19.0589 12.7557 18.8495 13.2612C18.6401 13.7667 18.3332 14.226 17.9463 14.613C17.5594 14.9999 17.1001 15.3068 16.5946 15.5162C16.089 15.7256 15.5472 15.8333 15 15.8333H5.00004C4.45287 15.8333 3.91105 15.7256 3.40553 15.5162C2.9 15.3068 2.44067 14.9999 2.05376 14.613C1.27236 13.8316 0.833374 12.7717 0.833374 11.6667V5.00001C0.833374 3.89494 1.27236 2.83513 2.05376 2.05373C2.83516 1.27233 3.89497 0.833344 5.00004 0.833344H15C15.5472 0.833344 16.089 0.941118 16.5946 1.15051C17.1001 1.35991 17.5594 1.66682 17.9463 2.05373C18.3332 2.44064 18.6401 2.89997 18.8495 3.4055C19.0589 3.91102 19.1667 4.45284 19.1667 5.00001ZM4.16671 6.66668C4.16671 6.88769 4.25451 7.09965 4.41079 7.25593C4.56707 7.41221 4.77903 7.50001 5.00004 7.50001H10C10.2211 7.50001 10.433 7.41221 10.5893 7.25593C10.7456 7.09965 10.8334 6.88769 10.8334 6.66668C10.8334 6.44566 10.7456 6.2337 10.5893 6.07742C10.433 5.92114 10.2211 5.83334 10 5.83334H5.00004C4.77903 5.83334 4.56707 5.92114 4.41079 6.07742C4.25451 6.2337 4.16671 6.44566 4.16671 6.66668ZM15.8334 10C15.8334 9.779 15.7456 9.56704 15.5893 9.41076C15.433 9.25447 15.2211 9.16668 15 9.16668H5.00004C4.77903 9.16668 4.56707 9.25447 4.41079 9.41076C4.25451 9.56704 4.16671 9.779 4.16671 10C4.16671 10.221 4.25451 10.433 4.41079 10.5893C4.56707 10.7455 4.77903 10.8333 5.00004 10.8333H15C15.2211 10.8333 15.433 10.7455 15.5893 10.5893C15.7456 10.433 15.8334 10.221 15.8334 10Z" fill="black"/>
</g>
<defs>
<clipPath id="clip0_1423_12725">
<rect width="20" height="20" fill="white"/>
</clipPath>
</defs>
</svg>
