<svg width="20" height="20" viewBox="0 0 20 20" fill="none" xmlns="http://www.w3.org/2000/svg">
<path fill-rule="evenodd" clip-rule="evenodd" d="M16.893 2.7176L16.9109 2.73553L17.2644 3.08908L17.2824 3.10701C17.5972 3.42176 17.8598 3.68447 18.0569 3.91664C18.2625 4.15877 18.4332 4.40848 18.5306 4.70848C18.6802 5.16875 18.6802 5.66454 18.5306 6.1248C18.4332 6.4248 18.2625 6.6745 18.0569 6.91665C17.8598 7.1488 17.5972 7.41152 17.2824 7.72627L17.2644 7.7442L16.9109 8.09775L16.893 8.11568C16.5783 8.43047 16.3155 8.69315 16.0833 8.89024C15.8412 9.09582 15.5915 9.2664 15.2915 9.3639C14.8313 9.51349 14.3354 9.51349 13.8752 9.3639C13.5752 9.2664 13.3255 9.09582 13.0833 8.89024C12.8512 8.69315 12.5884 8.4304 12.2737 8.11568L12.2558 8.09775L11.9023 7.7442L11.8843 7.72627C11.5695 7.41152 11.3068 7.1488 11.1098 6.91665C10.9042 6.6745 10.7335 6.4248 10.6361 6.1248C10.4865 5.66454 10.4865 5.16875 10.6361 4.70848C10.7335 4.40848 10.9042 4.15877 11.1098 3.91664C11.3068 3.68447 11.5695 3.42176 11.8843 3.10701L11.9023 3.08908L12.2558 2.73553L12.2737 2.7176C12.5884 2.40283 12.8512 2.14011 13.0833 1.94302C13.3255 1.73745 13.5752 1.56685 13.8752 1.46937C14.3354 1.31982 14.8313 1.31982 15.2915 1.46937C15.5915 1.56685 15.8412 1.73745 16.0833 1.94302C16.3155 2.14011 16.5783 2.40283 16.893 2.7176ZM5.14131 1.87494H5.16667H5.66667H5.69203C6.13716 1.87493 6.5087 1.87492 6.81223 1.89972C7.1288 1.92559 7.42601 1.98151 7.70707 2.12471C8.13827 2.34443 8.48883 2.695 8.70858 3.12621C8.85175 3.40726 8.90767 3.70448 8.93358 4.02105C8.95833 4.32457 8.95833 4.6961 8.95833 5.14121V5.1666V5.6666V5.69196C8.95833 6.13708 8.95833 6.50865 8.93358 6.81216C8.90767 7.12874 8.85175 7.42595 8.70858 7.707C8.48883 8.1382 8.13827 8.48882 7.70707 8.70849C7.42601 8.85174 7.1288 8.90765 6.81223 8.93349C6.5087 8.95832 6.13716 8.95832 5.69203 8.95824H5.66667H5.16667H5.14131C4.69618 8.95832 4.32464 8.95832 4.02111 8.93349C3.70454 8.90765 3.40733 8.85174 3.12628 8.70849C2.69507 8.48882 2.34449 8.1382 2.12478 7.707C1.98158 7.42595 1.92565 7.12874 1.89978 6.81216C1.87498 6.50865 1.87499 6.13711 1.875 5.692V5.6666V5.1666V5.14125C1.87499 4.69614 1.87498 4.32457 1.89978 4.02105C1.92565 3.70448 1.98158 3.40726 2.12478 3.12621C2.34449 2.695 2.69507 2.34443 3.12628 2.12471C3.40733 1.98151 3.70454 1.92559 4.02111 1.89972C4.32463 1.87492 4.69618 1.87493 5.14131 1.87494ZM5.16667 11.0416H5.14131C4.69618 11.0416 4.32463 11.0416 4.02111 11.0664C3.70454 11.0922 3.40733 11.1482 3.12628 11.2914C2.69507 11.5111 2.34449 11.8617 2.12478 12.2929C1.98158 12.5739 1.92565 12.8712 1.89978 13.1877C1.87498 13.4912 1.87499 13.8627 1.875 14.3079V14.3332V14.8332V14.8587C1.87499 15.3037 1.87498 15.6753 1.89978 15.9788C1.92565 16.2954 1.98158 16.5927 2.12478 16.8737C2.34449 17.3049 2.69507 17.6555 3.12628 17.8752C3.40733 18.0184 3.70454 18.0743 4.02111 18.1002C4.32463 18.125 4.69614 18.125 5.14124 18.1249H5.16667H5.66667H5.69203C6.13713 18.125 6.50872 18.125 6.81223 18.1002C7.1288 18.0743 7.42601 18.0184 7.70707 17.8752C8.13827 17.6555 8.48883 17.3049 8.70858 16.8737C8.85175 16.5927 8.90767 16.2954 8.93358 15.9788C8.95833 15.6753 8.95833 15.3037 8.95833 14.8587V14.8332V14.3332V14.3079C8.95833 13.8627 8.95833 13.4912 8.93358 13.1877C8.90767 12.8712 8.85175 12.5739 8.70858 12.2929C8.48883 11.8617 8.13827 11.5111 7.70707 11.2914C7.42601 11.1482 7.1288 11.0922 6.81223 11.0664C6.5087 11.0416 6.13716 11.0416 5.69203 11.0416H5.66667H5.16667ZM14.308 11.0416H14.3333H14.8333H14.8587C15.3038 11.0416 15.6753 11.0416 15.9789 11.0664C16.2955 11.0922 16.5927 11.1482 16.8738 11.2914C17.3049 11.5111 17.6555 11.8617 17.8753 12.2929C18.0184 12.5739 18.0743 12.8712 18.1003 13.1877C18.125 13.4912 18.125 13.8628 18.125 14.3079V14.3332V14.8332V14.8587C18.125 15.3037 18.125 15.6753 18.1003 15.9788C18.0743 16.2954 18.0184 16.5927 17.8753 16.8737C17.6555 17.3049 17.3049 17.6555 16.8738 17.8752C16.5927 18.0184 16.2955 18.0743 15.9789 18.1002C15.6754 18.125 15.3038 18.125 14.8588 18.1249H14.8333H14.3333H14.308C13.8629 18.125 13.4913 18.125 13.1878 18.1002C12.8712 18.0743 12.574 18.0184 12.2929 17.8752C11.8618 17.6555 11.5112 17.3049 11.2914 16.8737C11.1483 16.5927 11.0923 16.2954 11.0664 15.9788C11.0417 15.6753 11.0417 15.3037 11.0417 14.8587V14.8332V14.3332V14.3079C11.0417 13.8628 11.0417 13.4912 11.0664 13.1877C11.0923 12.8712 11.1483 12.5739 11.2914 12.2929C11.5112 11.8617 11.8618 11.5111 12.2929 11.2914C12.574 11.1482 12.8712 11.0922 13.1878 11.0664C13.4913 11.0416 13.8628 11.0416 14.308 11.0416Z" fill="#2845F5"/>
</svg>
