<svg width="20" height="20" viewBox="0 0 20 20" fill="none" xmlns="http://www.w3.org/2000/svg">
<path fill-rule="evenodd" clip-rule="evenodd" d="M17.0658 6.31522L12.5775 2.60418C11.0655 1.35415 8.93438 1.35415 7.42248 2.60418L2.9341 6.31522C2.12545 6.98382 1.66663 7.99753 1.66663 9.05524V14.8424C1.66663 16.7217 3.11175 18.3333 4.99996 18.3333H6.66663C7.5871 18.3333 8.33329 17.5872 8.33329 16.6667V13.9565C8.33329 12.9002 9.12671 12.1322 9.99996 12.1322C10.8732 12.1322 11.6666 12.9002 11.6666 13.9565V16.6667C11.6666 17.5872 12.4128 18.3333 13.3333 18.3333H15C16.8882 18.3333 18.3333 16.7217 18.3333 14.8424V9.05524C18.3333 7.99754 17.8745 6.98382 17.0658 6.31522Z" fill="#2845F5"/>
</svg>
