<svg width="22" height="24" viewBox="0 0 22 24" fill="none" xmlns="http://www.w3.org/2000/svg">
<path d="M22.0002 2.75851C22.0002 1.23481 20.7668 0 19.2449 0H7.72301C6.20112 0 4.96777 1.23481 4.96777 2.75851V16.3003C4.96777 17.824 6.20112 19.0588 7.72301 19.0588H19.2449C20.7668 19.0588 22.0002 17.824 22.0002 16.3003V2.75851ZM17.2411 14.5449H9.72682C9.31203 14.5449 8.97539 14.2079 8.97539 13.7926C8.97539 13.3773 9.31203 13.0402 9.72682 13.0402H17.2411C17.6559 13.0402 17.9925 13.3773 17.9925 13.7926C17.9925 14.2079 17.6559 14.5449 17.2411 14.5449ZM17.2411 11.5356H9.72682C9.31203 11.5356 8.97539 11.1986 8.97539 10.7833C8.97539 10.368 9.31203 10.031 9.72682 10.031H17.2411C17.6559 10.031 17.9925 10.368 17.9925 10.7833C17.9925 11.1986 17.6559 11.5356 17.2411 11.5356ZM17.2411 8.52632H9.72682C9.31203 8.52632 8.97539 8.18928 8.97539 7.77399C8.97539 7.35871 9.31203 7.02167 9.72682 7.02167H17.2411C17.6559 7.02167 17.9925 7.35871 17.9925 7.77399C17.9925 8.18928 17.6559 8.52632 17.2411 8.52632Z" fill="#1A1A1A"/>
<path d="M7.70006 20.4951C5.37116 20.4951 3.47744 18.5855 3.47744 16.2393V2.7208C3.47744 2.63468 3.49732 2.55457 3.50228 2.47046H2.73228C1.22505 2.47046 0 3.70515 0 5.22422V21.2461C0 22.7652 1.22505 23.9999 2.73228 23.9999H14.6549C16.1622 23.9999 17.3872 22.7652 17.3872 21.2461V20.4951H7.70006Z" fill="#1A1A1A"/>
</svg>
