<svg width="24" height="24" viewBox="0 0 24 24" fill="none" xmlns="http://www.w3.org/2000/svg">
<path d="M22.8281 10.8282C22.1812 10.8282 21.6562 11.3532 21.6562 12.0001C21.6562 17.3251 17.325 21.6564 12 21.6564C6.675 21.6564 2.34375 17.3251 2.34375 12.0001C2.34375 11.3532 1.81875 10.8282 1.17188 10.8282C0.525 10.8282 0 11.3532 0 12.0001C0 15.2064 1.24687 18.2204 3.51562 20.4845C5.78438 22.7532 8.79375 24.0001 12 24.0001C15.2063 24.0001 18.2203 22.7532 20.4844 20.4845C22.7531 18.2157 24 15.2064 24 12.0001C24 11.3532 23.475 10.8282 22.8281 10.8282Z" fill="#1A1A1A"/>
<path d="M10.3921 16.1063C10.8234 16.5375 11.3953 16.7719 12 16.7719C12.6093 16.7719 13.1812 16.5328 13.6078 16.1063L16.5562 13.1578C17.0156 12.6984 17.0156 11.9578 16.5562 11.4984C16.0968 11.0391 15.3562 11.0391 14.8968 11.4984L13.1718 13.2281V1.17188C13.1718 0.525 12.6468 0 12 0C11.3531 0 10.8281 0.525 10.8281 1.17188V13.2281L9.09839 11.4984C8.63901 11.0391 7.89839 11.0391 7.43901 11.4984C6.97964 11.9578 6.97964 12.6984 7.43901 13.1578L10.3921 16.1063Z" fill="#1A1A1A"/>
</svg>
