<svg width="18" height="18" viewBox="0 0 18 18" fill="none" xmlns="http://www.w3.org/2000/svg">
<path fill-rule="evenodd" clip-rule="evenodd" d="M16.0658 5.31522L11.5775 1.60418C10.0655 0.35415 7.93438 0.35415 6.42248 1.60418L1.9341 5.31522C1.12545 5.98382 0.666626 6.99753 0.666626 8.05524V13.8424C0.666626 15.7217 2.11175 17.3333 3.99996 17.3333H5.66663C6.5871 17.3333 7.33329 16.5872 7.33329 15.6667V12.9565C7.33329 11.9002 8.12671 11.1322 8.99996 11.1322C9.87321 11.1322 10.6666 11.9002 10.6666 12.9565V15.6667C10.6666 16.5872 11.4128 17.3333 12.3333 17.3333H14C15.8882 17.3333 17.3333 15.7217 17.3333 13.8424V8.05524C17.3333 6.99754 16.8745 5.98382 16.0658 5.31522Z" fill="black"/>
</svg>
