<svg width="26" height="26" viewBox="0 0 26 26" fill="none" xmlns="http://www.w3.org/2000/svg">
<path d="M21.5573 19.7545H21.5574C22.4969 19.7535 23.3976 19.3798 24.0619 18.7155C24.7263 18.0512 25.0999 17.1504 25.101 16.2109V16.2108V10.5382V10.5381C25.0999 9.59857 24.7263 8.69783 24.0619 8.0335C23.3976 7.36916 22.4969 6.99549 21.5574 6.99448H21.5573L4.44461 6.99448L4.44453 6.99448C3.50469 6.99524 2.60358 7.36893 1.93901 8.0335C1.27445 8.69806 0.900759 9.5992 0.9 10.539V10.5391L0.9 16.2117L0.9 16.2119C0.901265 17.1514 1.2752 18.052 1.93971 18.7162C2.60422 19.3803 3.50502 19.7537 4.44453 19.7545H4.44461H5.81542C6.00302 19.7545 6.18296 19.68 6.31563 19.5473C6.4483 19.4147 6.52279 19.2347 6.52279 19.0471C6.52279 18.8595 6.44829 18.6796 6.31563 18.5469C6.18297 18.4143 6.00303 18.3397 5.81542 18.3397H4.44461C3.87999 18.3397 3.33852 18.1154 2.93926 17.7162C2.54001 17.3169 2.31572 16.7754 2.31572 16.2108V10.5382C2.31572 9.97356 2.54001 9.43206 2.93926 9.03281C3.33852 8.63356 3.87999 8.40926 4.44461 8.40926H21.5573C22.1219 8.40926 22.6633 8.63356 23.0626 9.03281C23.4619 9.43206 23.6861 9.97356 23.6861 10.5382V16.2108C23.6861 16.7754 23.4619 17.3169 23.0626 17.7162C22.6633 18.1154 22.1219 18.3397 21.5573 18.3397H20.1864C19.9988 18.3397 19.8189 18.4143 19.6862 18.5469C19.5536 18.6796 19.4791 18.8595 19.4791 19.0471C19.4791 19.2347 19.5536 19.4147 19.6862 19.5473C19.8189 19.68 19.9988 19.7545 20.1864 19.7545H21.5573Z" fill="#1A1A1A" stroke="#1A1A1A" stroke-width="0.2"/>
<path d="M21.8185 15.7692L21.7478 15.6985L21.8185 15.7692C21.8842 15.7035 21.9363 15.6255 21.9719 15.5397C22.0074 15.4539 22.0257 15.3619 22.0257 15.269C22.0257 15.0814 21.9512 14.9015 21.8185 14.7688C21.6859 14.6362 21.506 14.5616 21.3183 14.5616H4.67845C4.49084 14.5616 4.3109 14.6361 4.17824 14.7688C4.04558 14.9015 3.97104 15.0814 3.97104 15.269C3.97104 15.4566 4.04558 15.6365 4.17824 15.7692C4.3109 15.9019 4.49084 15.9764 4.67845 15.9764H21.3183C21.4112 15.9764 21.5032 15.9581 21.589 15.9225C21.6749 15.887 21.7528 15.8349 21.8185 15.7692Z" fill="#1A1A1A" stroke="#1A1A1A" stroke-width="0.2"/>
<path d="M18.7669 25.0999H18.7669C19.3307 25.0994 19.8711 24.8752 20.2696 24.4765C20.6682 24.0778 20.8921 23.5373 20.8924 22.9735V22.9735V15.2651C20.8924 15.0775 20.8179 14.8976 20.6852 14.7649C20.5525 14.6323 20.3726 14.5577 20.185 14.5577H5.8149C5.62729 14.5577 5.44736 14.6323 5.31471 14.7649C5.18205 14.8976 5.10752 15.0775 5.10752 15.2651L5.10752 22.9735L5.10752 22.9735C5.10778 23.5373 5.33176 24.0778 5.73027 24.4765C6.12879 24.8752 6.66925 25.0994 7.23297 25.0999H7.23306H18.7669ZM6.52136 22.9744C6.52136 22.9744 6.52136 22.9743 6.52136 22.9743L6.52136 15.9762H19.4776V22.9743C19.4774 23.1628 19.4024 23.3435 19.2692 23.4767C19.1359 23.61 18.9552 23.685 18.7667 23.6852H7.23225C7.04377 23.685 6.86308 23.61 6.72981 23.4767C6.59657 23.3435 6.5216 23.1628 6.52136 22.9744Z" fill="#1A1A1A" stroke="#1A1A1A" stroke-width="0.2"/>
<path d="M11.1071 18.9991H14.8889C15.0765 18.9991 15.2564 18.9246 15.3891 18.7919C15.5217 18.6592 15.5963 18.4793 15.5963 18.2917C15.5963 18.1041 15.5217 17.9242 15.3891 17.7915C15.2564 17.6589 15.0765 17.5843 14.8889 17.5843H11.1071C10.9195 17.5843 10.7396 17.6589 10.6069 17.7915C10.4743 17.9242 10.3998 18.1041 10.3998 18.2917C10.3998 18.4793 10.4743 18.6592 10.6069 18.7919C10.7396 18.9246 10.9195 18.9991 11.1071 18.9991Z" fill="#1A1A1A" stroke="#1A1A1A" stroke-width="0.2"/>
<path d="M11.1071 22.0279H14.8889C15.0765 22.0279 15.2564 21.9534 15.3891 21.8207C15.5217 21.6881 15.5963 21.5081 15.5963 21.3205C15.5963 21.1329 15.5217 20.953 15.3891 20.8203C15.2564 20.6877 15.0765 20.6131 14.8889 20.6131H11.1071C10.9195 20.6131 10.7396 20.6877 10.6069 20.8203C10.4743 20.953 10.3998 21.1329 10.3998 21.3205C10.3998 21.5081 10.4743 21.6881 10.6069 21.8207C10.7396 21.9534 10.9195 22.0279 11.1071 22.0279Z" fill="#1A1A1A" stroke="#1A1A1A" stroke-width="0.2"/>
<path d="M4.68216 11.4392H6.95081C7.13842 11.4392 7.31835 11.3646 7.45101 11.232C7.58367 11.0993 7.6582 10.9194 7.6582 10.7318C7.6582 10.5442 7.58367 10.3642 7.45101 10.2316C7.31835 10.0989 7.13842 10.0244 6.95081 10.0244H4.67916C4.58626 10.0244 4.49428 10.0427 4.40846 10.0782C4.32263 10.1138 4.24465 10.1659 4.17896 10.2316C4.11328 10.2973 4.06117 10.3752 4.02562 10.4611C3.99007 10.5469 3.97178 10.6389 3.97178 10.7318L4.68216 11.4392ZM4.68216 11.4392C4.58908 11.4396 4.49683 11.4216 4.4107 11.3862C4.3245 11.3509 4.24614 11.2988 4.18011 11.2331C4.11408 11.1674 4.06169 11.0893 4.02594 11.0032C3.99018 10.9172 3.97178 10.8249 3.97178 10.7318L4.68195 11.4392H4.68216Z" fill="#1A1A1A" stroke="#1A1A1A" stroke-width="0.2"/>
<path d="M8.65049 0.9L8.65038 0.9C7.71087 0.901012 6.81013 1.27468 6.1458 1.93901C5.48147 2.60334 5.1078 3.50408 5.10679 4.44359V4.4437V7.70537C5.10679 7.89298 5.18131 8.0729 5.31397 8.20556C5.44663 8.33822 5.62656 8.41275 5.81417 8.41275H20.1843C20.3719 8.41275 20.5518 8.33822 20.6845 8.20556C20.8171 8.0729 20.8917 7.89298 20.8917 7.70537V4.4437V4.44359C20.8906 3.50408 20.517 2.60334 19.8526 1.93901C19.1883 1.27468 18.2876 0.901012 17.3481 0.9H17.348L8.65049 0.9ZM19.4778 4.4437V6.99798H6.52248V4.4437C6.52248 3.87907 6.74678 3.33757 7.14603 2.93832C7.54528 2.53907 8.08679 2.31477 8.65141 2.31477H17.3489C17.9135 2.31477 18.455 2.53907 18.8543 2.93832C19.2535 3.33757 19.4778 3.87907 19.4778 4.4437Z" fill="#1A1A1A" stroke="#1A1A1A" stroke-width="0.2"/>
</svg>
