<svg width="20" height="20" viewBox="0 0 20 20" fill="none" xmlns="http://www.w3.org/2000/svg">
<g clip-path="url(#clip0_1424_6632)">
<path d="M6.44373 8.82501C7.82444 8.82501 8.94373 7.70572 8.94373 6.32501C8.94373 4.9443 7.82444 3.82501 6.44373 3.82501C5.06301 3.82501 3.94373 4.9443 3.94373 6.32501C3.94373 7.70572 5.06301 8.82501 6.44373 8.82501Z" fill="black"/>
<path d="M6.44373 16.175C7.82444 16.175 8.94373 15.0557 8.94373 13.675C8.94373 12.2943 7.82444 11.175 6.44373 11.175C5.06301 11.175 3.94373 12.2943 3.94373 13.675C3.94373 15.0557 5.06301 16.175 6.44373 16.175Z" fill="black"/>
<path d="M13.5563 3.82501C12.8932 3.82501 12.2573 4.0884 11.7885 4.55725C11.3197 5.02609 11.0563 5.66197 11.0563 6.32501V13.675C11.0563 14.3381 11.3197 14.9739 11.7885 15.4428C12.2573 15.9116 12.8932 16.175 13.5563 16.175C14.2193 16.175 14.8552 15.9116 15.324 15.4428C15.7929 14.9739 16.0563 14.3381 16.0563 13.675V6.32501C16.0563 5.66197 15.7929 5.02609 15.324 4.55725C14.8552 4.0884 14.2193 3.82501 13.5563 3.82501ZM14.1813 11.6625H12.9313C12.7655 11.6625 12.6065 11.5967 12.4893 11.4795C12.3721 11.3622 12.3063 11.2033 12.3063 11.0375C12.3063 10.8718 12.3721 10.7128 12.4893 10.5956C12.6065 10.4784 12.7655 10.4125 12.9313 10.4125H14.1813C14.347 10.4125 14.506 10.4784 14.6232 10.5956C14.7404 10.7128 14.8063 10.8718 14.8063 11.0375C14.8063 11.2033 14.7404 11.3622 14.6232 11.4795C14.506 11.5967 14.347 11.6625 14.1813 11.6625ZM14.1813 9.58751H12.9313C12.7655 9.58751 12.6065 9.52166 12.4893 9.40445C12.3721 9.28724 12.3063 9.12827 12.3063 8.96251C12.3063 8.79675 12.3721 8.63778 12.4893 8.52057C12.6065 8.40336 12.7655 8.33751 12.9313 8.33751H14.1813C14.347 8.33751 14.506 8.40336 14.6232 8.52057C14.7404 8.63778 14.8063 8.79675 14.8063 8.96251C14.8063 9.12827 14.7404 9.28724 14.6232 9.40445C14.506 9.52166 14.347 9.58751 14.1813 9.58751Z" fill="black"/>
<path d="M16.725 0.625H3.275C2.57218 0.625 1.89814 0.904196 1.40117 1.40117C0.904196 1.89814 0.625 2.57218 0.625 3.275V16.725C0.625 17.4278 0.904196 18.1019 1.40117 18.5988C1.89814 19.0958 2.57218 19.375 3.275 19.375H16.725C17.4278 19.375 18.1019 19.0958 18.5988 18.5988C19.0958 18.1019 19.375 17.4278 19.375 16.725V3.275C19.375 2.57218 19.0958 1.89814 18.5988 1.40117C18.1019 0.904196 17.4278 0.625 16.725 0.625ZM18.125 16.725C18.1234 17.0958 17.9753 17.4509 17.7131 17.7131C17.4509 17.9753 17.0958 18.1234 16.725 18.125H3.275C2.9042 18.1234 2.54906 17.9753 2.28687 17.7131C2.02467 17.4509 1.87664 17.0958 1.875 16.725V3.275C1.87664 2.9042 2.02467 2.54906 2.28687 2.28687C2.54906 2.02467 2.9042 1.87664 3.275 1.875H16.725C17.0958 1.87664 17.4509 2.02467 17.7131 2.28687C17.9753 2.54906 18.1234 2.9042 18.125 3.275V16.725Z" fill="black"/>
</g>
<defs>
<clipPath id="clip0_1424_6632">
<rect width="20" height="20" fill="white"/>
</clipPath>
</defs>
</svg>
