<svg width="890" height="380" viewBox="0 0 890 380" fill="none" xmlns="http://www.w3.org/2000/svg">
<path d="M337.397 122.918C337.397 122.918 310.149 140.019 310.757 162.875C311.365 185.732 334.548 193.437 334.14 206.431C333.731 219.415 299.768 256.35 324.067 280.29C348.376 304.23 401.099 282.02 421.503 283.382C441.906 284.744 447.595 312.164 476.876 312.253C506.156 312.343 515.451 283.938 531.133 255.932C546.824 227.925 599.596 261.609 605.863 226.623C612.129 191.637 586.884 180.015 594.595 152.943C602.306 125.871 583.377 90.3783 548.318 75.2367C513.259 60.105 521.708 5.91138 472.96 19.7108C424.213 33.5103 348.177 29.3744 346.862 92.3468C346.394 114.676 337.377 122.899 337.377 122.899L337.397 122.918Z" fill="#D5D9F5"/>
<path d="M465.159 278.718C445.035 278.788 441.817 263.437 425.976 258.824C412.606 254.927 394.045 264.024 379.918 263.676C364.835 263.308 349.871 259.56 340.904 246.257C327.454 226.304 343.375 212.624 345.039 193.933C346.085 182.171 331.778 172.846 331.37 157.883C330.822 137.671 345.079 134.301 352.989 119.497C360.212 105.996 356.775 89.4527 366.708 75.7328C377.766 60.452 396.287 54.1389 413.801 49.7544C448.302 41.1149 481.737 28.2102 505.468 60.3228C517.603 76.7369 526.211 80.1967 541.444 93.5886C562.714 112.289 560.443 128.266 563.003 153.568C566.281 185.989 586.216 224.564 537.807 229.366C516.577 231.474 518.908 228.859 506.973 248.614C497.319 264.59 485.493 278.807 465.159 278.708V278.718Z" fill="#CACFEF"/>
<path d="M366.16 343.55C318.578 360.332 349.104 382.274 422.878 378.525C496.652 374.777 546.694 389.78 576.702 367.281C606.71 344.792 540.149 336.192 471.844 336.272C403.53 336.352 385.637 336.67 366.16 343.54V343.55Z" fill="url(#paint0_linear_1026_14697)"/>
<path d="M457.806 67.7891C404.276 67.7891 377.277 102.029 371.329 144.491C365.382 186.953 361.267 198.367 342.965 177.359C324.664 156.352 317.341 183.295 337.018 203.845C356.694 224.395 364.465 222.566 362.183 253.157C359.892 283.748 355.319 314.34 378.194 313.425C401.068 312.511 401.985 289.227 414.797 289.227C427.609 289.227 428.984 317.571 452.316 313.445C475.649 309.319 467.559 290.579 486.628 287.854C493.034 286.94 492.576 309.309 520.023 307.947C547.47 306.585 541.064 290.598 549.762 284.663C558.459 278.728 569.896 295.619 584.531 284.206C599.177 272.792 584.99 263.656 590.479 250.423C595.969 237.18 590.479 223.033 583.157 223.033C575.834 223.033 568.97 237.19 559.824 235.361C550.678 233.532 546.095 220.299 546.095 201.578C546.095 182.857 556.616 67.799 457.796 67.799L457.806 67.7891Z" fill="#5365EB"/>
<path d="M456.093 120.065C489.099 115.363 507.949 101.971 507.949 101.971L525.085 98.9583L447.076 68.2773C400.64 72.5723 376.859 104.963 371.32 144.492C370.682 149.006 370.075 153.172 369.467 156.99C371.529 156.025 373.432 155.17 374.847 154.086C381.014 149.384 393.337 109.805 393.337 109.805C393.337 109.805 423.076 124.768 456.083 120.065H456.093Z" fill="#3E51DD"/>
<path d="M355.02 187.312C351.832 186.347 347.917 183.047 342.965 177.36C324.664 156.362 317.341 183.295 337.018 203.845C340.256 207.226 343.175 210.009 345.775 212.415C349.023 209.691 354.98 202.593 355.02 187.312Z" fill="#3E51DD"/>
<path d="M414.837 57.1013C414.837 57.1013 415.694 55.272 407.036 44.0873C398.378 32.9026 394.144 25.2871 409.935 19.9184C425.736 14.5497 467.609 -11.7368 487.664 6.16865C507.719 24.0741 546.414 38.838 558.967 54.9539C571.521 71.0698 525.084 98.967 525.084 98.967L424.869 75.0963L414.827 57.1113L414.837 57.1013Z" fill="#081157"/>
<path d="M419.15 151.789C424.328 151.789 428.525 147.6 428.525 142.434C428.525 137.267 424.328 133.078 419.15 133.078C413.973 133.078 409.775 137.267 409.775 142.434C409.775 147.6 413.973 151.789 419.15 151.789Z" fill="#2B399F"/>
<path d="M473.039 151.789C478.217 151.789 482.414 147.6 482.414 142.434C482.414 137.267 478.217 133.078 473.039 133.078C467.861 133.078 463.664 137.267 463.664 142.434C463.664 147.6 467.861 151.789 473.039 151.789Z" fill="#2B399F"/>
<path d="M445.452 211.153C449.497 211.153 452.775 202.054 452.775 190.831C452.775 179.608 449.497 170.51 445.452 170.51C441.408 170.51 438.13 179.608 438.13 190.831C438.13 202.054 441.408 211.153 445.452 211.153Z" fill="#2B399F"/>
<path d="M415.474 70.3945C415.474 70.3945 386.602 77.7914 388.744 87.2064C390.886 96.6214 431.235 115.044 466.902 108.373C476.197 106.633 494.21 97.0688 494.21 97.0688L415.474 70.3945Z" fill="#081157"/>
<path d="M501.402 185.414C501.402 185.414 511.903 213.749 511.684 230.242C511.455 246.736 525.263 242.67 528.212 239.051C531.151 235.432 536.063 222.378 536.89 210.179L501.402 185.414Z" fill="#3246D4"/>
<path d="M501.402 185.035C501.402 185.035 517.173 205.188 517.173 221.681C517.173 238.175 532.944 233.91 535.953 215.169C538.962 196.429 533.702 185.035 533.702 185.035H501.402Z" fill="#5365EB"/>
<path d="M414.837 70.7121V57.1016C414.837 57.1016 431.624 68.4652 465.378 76.0211C487.625 81.002 510.549 84.7104 523.59 86.669C528.442 87.3947 530.733 93.0517 527.744 96.939C526.409 98.6789 524.277 99.6234 522.086 99.4345L494.021 97.0683C494.021 97.0683 433.258 91.8388 414.837 70.7121Z" fill="#091041"/>
<path d="M332.184 166.244L340.918 164.843L347.084 203.126C347.471 205.531 345.828 207.798 343.418 208.184C341.008 208.571 338.736 206.932 338.349 204.527L332.184 166.244Z" fill="#091041"/>
<path d="M306.471 173.901L267.388 126.041L289.475 68.3772L350.636 58.5645L389.72 106.425L367.633 164.088L306.471 173.901Z" fill="#CCD1F7"/>
<path d="M308.265 169.199L272.369 125.246L292.653 72.275L348.843 63.2676L384.739 107.221L364.455 160.192L308.265 169.199Z" fill="#D15E18"/>
<path d="M299.04 140.327L298.283 135.655C299.847 136.718 301.262 137.156 302.537 136.947C303.483 136.798 304.23 136.331 304.798 135.565C305.356 134.79 305.565 133.945 305.416 133.01C305.286 132.205 304.938 131.26 304.38 130.167C303.822 129.083 302.457 127.124 300.305 124.291C298.153 121.467 296.699 119.29 295.941 117.779C295.184 116.268 294.716 114.906 294.517 113.683C294.138 111.317 294.497 109.279 295.603 107.559C296.709 105.849 298.313 104.815 300.405 104.487C301.59 104.298 302.895 104.407 304.34 104.805L305.027 109.07C303.672 108.553 302.557 108.364 301.69 108.503C299.408 108.871 298.442 110.163 298.801 112.39C298.93 113.216 299.289 114.17 299.857 115.264C300.425 116.357 301.79 118.306 303.941 121.1C306.093 123.893 307.538 126.051 308.285 127.572C309.032 129.093 309.501 130.475 309.7 131.708C310.088 134.104 309.73 136.162 308.624 137.882C307.518 139.592 305.894 140.626 303.742 140.974C302.198 141.222 300.634 141.003 299.04 140.327Z" fill="#CCD1F7"/>
<path d="M318.238 138.17L313.257 107.23L307.847 108.095L307.17 103.88L322.522 101.414L323.2 105.629L317.79 106.494L322.772 137.434L318.238 138.16V138.17Z" fill="#CCD1F7"/>
<path d="M338.293 135.425C335.513 135.873 332.983 134.63 330.721 131.697C328.45 128.764 326.866 124.499 325.969 118.902C325.112 113.603 325.252 109.149 326.358 105.51C327.473 101.881 329.516 99.8232 332.485 99.3459C335.374 98.8787 337.934 100.191 340.186 103.273C342.437 106.355 343.992 110.56 344.839 115.869C345.745 121.526 345.556 126.09 344.271 129.56C342.985 133.039 340.993 134.988 338.293 135.425ZM333.112 103.571C331.618 103.81 330.672 105.222 330.263 107.807C329.865 110.391 330.004 113.831 330.701 118.146C331.419 122.61 332.385 125.961 333.591 128.207C334.796 130.454 336.161 131.449 337.665 131.21C339.11 130.981 340.046 129.579 340.495 127.024C340.933 124.459 340.804 121 340.106 116.645C339.389 112.211 338.422 108.87 337.197 106.614C335.972 104.357 334.607 103.343 333.112 103.581V103.571Z" fill="#CCD1F7"/>
<path d="M352.718 132.632L347.06 97.4771L351.852 96.7116C355.1 96.1946 357.819 96.642 360.011 98.0637C362.203 99.4854 363.548 101.712 364.036 104.745C364.534 107.847 364.036 110.431 362.562 112.489C361.077 114.557 358.806 115.83 355.727 116.327L354.771 116.476L357.251 131.896L352.718 132.622V132.632ZM354.093 112.271L354.89 112.142C358.576 111.545 360.101 109.238 359.453 105.212C358.875 101.593 356.474 100.181 352.27 100.957L354.093 112.261V112.271Z" fill="#CCD1F7"/>
<path d="M460.994 30.3882C460.994 30.3882 466.274 35.4387 472.312 33.0128L476.177 37.6259C476.177 37.6259 470.09 43.0741 470.618 48.4527C471.156 53.8313 474.095 61.1188 461.94 62.9481C453.173 64.2604 451.908 63.306 451.908 63.306C451.908 63.306 445.034 58.4643 442.722 53.9407C440.411 49.4171 446.249 45.8181 446.399 41.0758C446.548 36.3335 445.103 32.0186 445.103 32.0186L449.148 29.0957C449.148 29.0957 454.209 33.2813 460.984 30.3782L460.994 30.3882Z" fill="#0014B6"/>
<path d="M443.271 217.495C443.271 217.495 453.213 219.802 457.836 211.152C457.836 211.152 457.139 220.726 450.553 222.566C443.968 224.405 443.271 217.495 443.271 217.495Z" fill="#3246D4"/>
<path d="M558.978 54.9447C546.425 38.8288 507.719 24.065 487.674 6.15951C472.88 -7.05337 446.2 3.80326 426.882 12.5522C426.902 12.5522 464.063 0.462761 476.197 8.50581C488.332 16.5489 532.248 53.5429 545.139 58.5636C558.031 63.5843 541.174 87.6836 541.174 87.6836C553.209 78.1195 566.41 64.4691 558.988 54.9348L558.978 54.9447Z" fill="#222C79"/>
<path d="M536.89 210.178C536.89 210.178 536.621 194.559 533.712 185.751C530.793 176.952 526.051 170.51 526.051 170.51C526.051 170.51 537.418 198.526 536.89 210.168V210.178Z" fill="#001EF3"/>
<path d="M591.297 230.769L590.859 229.666C589.115 225.639 586.316 223.025 583.167 223.025C575.845 223.025 568.981 237.182 559.835 235.353C550.689 233.523 546.106 220.291 546.106 201.57C546.106 190.077 550.071 142.296 530.275 107.101L525.095 98.9688C525.095 98.9688 541.573 128.725 541.573 159.953C541.573 191.18 535.038 239.21 554.983 242.312C574.928 245.404 578.774 218.213 591.297 230.779V230.769Z" fill="#001EF3"/>
<path d="M549.771 284.665C558.469 278.729 570.145 295.621 584.79 284.207C592.083 278.521 592.452 273.401 591.455 268.052C589.463 279.306 576.82 280.559 562.045 276.055C547.271 271.551 541.393 278.918 537.019 292.449C532.635 305.98 509.313 296.128 494.538 285.937C479.763 275.747 476.854 287.12 459.061 296.038C441.267 304.956 437.013 285.072 419.17 281.454C401.327 277.835 389.381 301.874 374.198 300.642C363.09 299.747 362.014 269.106 362.233 252.691C362.223 252.85 362.213 253 362.193 253.159C359.902 283.75 355.329 314.342 378.203 313.427C401.078 312.512 401.994 289.228 414.806 289.228C427.618 289.228 428.993 317.573 452.326 313.447C475.659 309.321 467.569 290.58 486.637 287.856C493.044 286.941 492.585 309.311 520.033 307.949C547.48 306.577 541.074 290.6 549.771 284.665Z" fill="#3E51DD"/>
<path d="M161.406 283.997H13.9179L0 224.524L157.919 36.9688H243.19V221.044H281.905V283.997H243.19V343.042H161.396V283.997H161.406ZM161.406 221.482V134.221L88.7579 221.482H161.406Z" fill="url(#paint1_linear_1026_14697)"/>
<path d="M769.491 283.997H622.013L608.095 224.524L766.014 36.9688H851.285V221.044H890V283.997H851.285V343.042H769.491V283.997ZM769.491 221.482V134.221L696.833 221.482H769.491Z" fill="url(#paint2_linear_1026_14697)"/>
<defs>
<linearGradient id="paint0_linear_1026_14697" x1="463.715" y1="380.007" x2="463.715" y2="336.282" gradientUnits="userSpaceOnUse">
<stop stop-color="white"/>
<stop offset="0.01" stop-color="#FDFDFE"/>
<stop offset="0.27" stop-color="#DFE2F3"/>
<stop offset="0.52" stop-color="#CACEEC"/>
<stop offset="0.77" stop-color="#BDC2E7"/>
<stop offset="1" stop-color="#B9BFE6"/>
</linearGradient>
<linearGradient id="paint1_linear_1026_14697" x1="140.953" y1="36.9688" x2="140.953" y2="343.042" gradientUnits="userSpaceOnUse">
<stop stop-color="#C9CEEF"/>
<stop offset="0.23" stop-color="#BDC3E8"/>
<stop offset="0.46" stop-color="#B9BFE6"/>
<stop offset="1" stop-color="#B0B6DB"/>
</linearGradient>
<linearGradient id="paint2_linear_1026_14697" x1="749.047" y1="0.00451698" x2="749.047" y2="0.00451698" gradientUnits="userSpaceOnUse">
<stop stop-color="#C9CEEF"/>
<stop offset="0.23" stop-color="#BDC3E8"/>
<stop offset="0.46" stop-color="#B9BFE6"/>
<stop offset="1" stop-color="#B0B6DB"/>
</linearGradient>
</defs>
</svg>
