<svg width="512" height="512" viewBox="0 0 512 512" fill="none" xmlns="http://www.w3.org/2000/svg">
<g clip-path="url(#clip0_185_200)">
<rect width="512" height="512" fill="white"/>
<g clip-path="url(#clip1_185_200)">
<path d="M0 0V361H512V0H0Z" fill="#FF7F40"/>
<path d="M256 0H512V361H256V0Z" fill="#F25A3C"/>
<path d="M211 96.6992V235.299L349.6 165.999L211 96.6992ZM121 270.999H61V210.999H91V240.999H121V270.999Z" fill="#F3F5F9"/>
<path d="M451 271H391V241H421V211H451V271ZM451 121H421V91H391V61H451V121Z" fill="#D8E0F0"/>
<path d="M91 121H61V61H121V91H91V121Z" fill="#F3F5F9"/>
<path d="M349.6 165.999L256 212.799V119.199L349.6 165.999Z" fill="#D8E0F0"/>
<path d="M346 301H166C108.109 301 61 348.109 61 406C61 463.891 108.109 512 166 512C193.144 512 219.394 500.146 239.022 481H272.992C292.606 500.146 318.842 512 346 512C403.891 512 451 463.891 451 406C451 348.109 403.891 301 346 301Z" fill="#FFDF40"/>
<path d="M346 512C403.891 512 451 463.891 451 406C451 348.109 403.891 301 346 301H256V481H272.992C292.606 500.146 318.842 512 346 512Z" fill="#FFBE40"/>
<path d="M361 391H391V421H361V391ZM301 391H331V421H301V391ZM331 361H361V391H331V361ZM331 421H361V451H331V421Z" fill="#544473"/>
<path d="M181 391H211V421H181V391ZM151 361H181V391H151V361ZM121 391H151V421H121V391ZM151 421H181V451H151V421Z" fill="#67548C"/>
</g>
</g>
<defs>
<clipPath id="clip0_185_200">
<rect width="512" height="512" fill="white"/>
</clipPath>
<clipPath id="clip1_185_200">
<rect width="512" height="512" fill="white"/>
</clipPath>
</defs>
</svg>
