<svg width="512" height="512" viewBox="0 0 512 512" fill="none" xmlns="http://www.w3.org/2000/svg">
<path d="M412.295 455.338C412.295 455.338 406.956 477.763 403.753 479.898C401.618 482.033 401.618 498.051 411.228 499.119C420.839 500.187 431.517 498.051 431.517 498.051C431.517 498.051 447.535 499.119 450.738 502.322C452.874 505.526 459.281 507.661 463.552 506.594C463.552 506.594 476.366 516.205 481.705 509.798L476.366 502.322C476.366 502.322 460.349 491.644 458.213 487.373C456.078 483.103 437.924 470.288 437.924 470.288L438.992 453.202L412.295 455.338ZM79.1322 461.745C79.1322 461.745 72.7252 466.017 70.5899 470.288C69.5218 472.423 68.4546 476.695 68.4546 479.898C68.4546 484.17 65.2511 487.373 60.9794 488.44C58.8441 488.44 57.776 489.508 55.6406 489.508C50.3018 489.508 48.1655 488.44 48.1655 488.44C48.1655 488.44 43.8938 489.508 41.7585 494.847C38.555 500.186 31.0799 501.254 30.0127 501.254C30.0127 501.254 24.6739 504.458 21.4704 503.39C18.2669 502.321 17.1987 499.118 17.1987 496.983L22.5375 494.847C22.5375 494.847 25.741 490.576 28.9445 489.508C31.0799 488.44 46.0302 473.491 51.369 459.609C54.5725 453.202 69.5218 445.727 69.5218 445.727L79.1322 461.745ZM260.663 255.654L262.798 236.433C262.798 236.433 263.867 231.094 267.07 228.958C270.274 226.821 284.156 230.026 284.156 230.026L334.343 257.789L362.107 270.603L299.105 269.535L260.663 255.654Z" fill="#FFD15C"/>
<path d="M261.731 236.433C261.731 236.433 268.138 259.925 333.276 269.536C333.276 269.536 361.04 274.875 362.108 264.197C362.108 264.197 401.618 289.825 428.313 299.435C455.009 309.046 472.094 320.792 472.094 320.792C472.094 320.792 498.79 333.606 491.314 356.03C483.839 378.454 479.569 381.658 479.569 381.658C479.569 381.658 466.755 413.693 457.144 423.303C447.534 432.914 438.991 469.22 438.991 469.22C438.991 469.22 415.499 468.152 410.16 458.542C410.16 458.542 421.906 423.303 421.906 409.421C421.906 395.539 432.584 367.776 444.33 363.504C444.33 363.504 422.974 356.029 411.227 356.029C400.549 356.029 341.819 336.808 324.733 323.994C324.733 323.994 305.512 320.791 285.223 330.401C264.934 340.012 231.832 362.436 223.288 372.046C214.746 380.589 189.118 404.081 174.168 406.217C174.168 406.217 141.065 441.455 117.573 447.862C95.1487 454.269 81.2666 470.287 81.2666 470.287C81.2666 470.287 62.0457 460.676 62.0457 447.862C62.0457 447.862 101.556 419.031 103.691 412.624C106.895 405.149 128.251 390.199 141.065 385.928C153.879 381.656 174.168 359.231 177.371 351.757C180.575 344.282 208.338 304.773 236.102 284.484C245.713 277.009 252.12 265.263 252.12 252.449C252.12 249.246 253.188 246.042 254.255 243.907C256.392 238.569 259.596 236.433 261.731 236.433Z" fill="#425A6B"/>
<path d="M494.518 342.148C494.518 342.148 490.246 345.351 488.111 336.809C488.111 335.741 485.976 331.47 483.839 330.402C480.636 329.334 475.297 329.334 475.297 329.334C475.297 329.334 472.093 332.537 475.297 337.876C478.5 343.215 478.5 350.69 475.297 350.69H473.162L469.958 342.148C469.958 342.148 468.89 338.944 466.755 337.876C464.619 336.808 453.941 328.266 451.805 323.994C451.805 323.994 444.33 316.519 444.33 307.977C443.262 299.434 442.195 285.552 435.788 269.535C429.381 253.517 417.635 215.075 417.635 215.075L410.16 173.43L384.532 181.972L294.834 159.548C294.834 159.548 289.495 132.852 292.699 117.902C296.971 102.953 318.327 102.953 318.327 102.953C318.327 102.953 350.362 101.885 352.497 96.5462C354.632 92.2746 356.769 79.4606 355.701 71.9864V70.9183C359.972 68.783 388.804 51.6973 401.618 58.1043C401.618 58.1043 390.939 82.6641 395.211 92.2746C400.549 101.885 414.432 107.224 414.432 107.224C414.432 107.224 437.924 118.97 438.991 137.123C440.06 156.344 438.991 176.633 438.991 183.04C438.991 190.516 442.195 212.94 442.195 212.94C442.195 212.94 445.398 224.686 446.467 228.958C448.602 233.229 458.212 272.738 457.145 298.366C457.145 298.366 456.077 309.045 462.484 309.045C467.823 309.045 473.163 307.977 475.298 311.18C475.298 311.18 479.57 313.315 479.57 317.587L491.315 329.333C493.451 330.402 495.586 337.877 494.518 342.148Z" fill="#F5B54C"/>
<path d="M355.7 21.7987V23.9341C356.769 25.0022 356.769 26.0694 354.632 28.2057C352.497 29.2739 343.954 36.748 341.818 38.8844C340.75 38.8844 339.683 39.9525 339.683 41.0197V43.155C341.818 44.2232 342.887 44.2232 341.818 45.2904C340.75 46.3575 339.683 48.4938 338.615 48.4938C337.547 48.4938 337.547 50.6292 338.615 51.6973C338.615 51.6973 336.48 51.6973 336.48 53.8327C336.48 53.8327 337.548 60.2396 335.411 62.375C332.208 65.5785 332.208 71.9854 337.547 74.1208C337.547 74.1208 349.293 77.3243 354.632 77.3243C358.904 77.3243 386.667 78.3924 401.617 52.7645L367.446 7.91562C367.446 7.91762 356.768 8.98478 355.7 21.7987Z" fill="#FFD15C"/>
<path d="M425.109 58.1053C421.906 68.784 413.364 79.4616 405.888 82.6651C404.82 83.7332 402.685 83.7332 401.617 83.7332C400.549 83.7332 399.481 83.7332 398.413 82.6651C396.278 81.5969 395.21 79.4616 394.142 77.3263C393.073 76.2581 393.073 74.1228 394.142 73.0546C396.277 67.7158 399.48 53.8337 393.073 50.6302C386.666 47.4267 386.666 38.8844 386.666 38.8844C383.463 36.749 380.259 27.1386 380.259 27.1386C377.056 33.5456 373.853 45.2914 373.853 45.2914C370.649 42.0879 367.446 32.4774 367.446 32.4774C367.446 32.4774 366.377 23.9351 367.446 17.5281C367.446 17.5281 365.31 26.0704 365.31 30.3421C365.31 30.3421 361.039 25.0032 361.039 17.5281C361.039 17.5281 357.835 20.7316 357.835 22.8669V17.5281L356.767 25.0032C355.699 22.8679 355.699 19.6644 355.699 19.6644C355.699 15.3928 357.834 11.1221 359.97 8.98579C363.174 4.71413 367.446 1.51064 372.784 0.443477C393.073 -2.76001 413.362 12.1893 419.769 20.7326C427.245 30.3421 428.313 45.2914 425.109 58.1053Z" fill="#425A6B"/>
<path d="M382.396 27.1386L381.327 28.2067C380.259 29.2749 380.259 30.3421 379.192 31.4102C379.192 32.4784 378.124 32.4784 378.124 33.5456C378.124 34.6137 377.056 35.6809 377.056 35.6809C375.988 37.8162 375.988 39.9525 374.92 42.0879C373.852 43.156 373.852 44.2232 373.852 45.2914V48.4949C373.852 49.563 373.852 50.6302 374.92 50.6302C374.92 51.6983 375.989 51.6983 377.056 51.6983H379.191C378.123 51.6983 378.123 52.7665 377.056 51.6983C375.988 51.6983 374.92 50.6302 374.92 50.6302C373.852 49.562 373.852 48.4949 373.852 47.4267V44.2232C373.852 43.155 373.852 42.0879 374.92 41.0197C374.92 38.8844 375.989 36.7481 377.056 34.6127C377.056 33.5446 378.124 32.4774 378.124 31.4092C378.124 30.3411 379.192 29.2739 379.192 29.2739C380.26 28.2057 380.26 27.1386 381.327 26.0704C381.327 26.0704 381.327 25.0023 382.396 25.0023V27.1386ZM369.582 4.71414V6.84947C369.582 7.91663 368.513 8.9848 368.513 11.1211V17.5281C368.513 19.6634 368.513 21.7998 367.445 25.0033V37.8172C367.445 39.9525 367.445 41.0207 368.513 42.0889C368.513 41.0217 368.513 39.9535 367.445 37.8172V11.1211C367.445 8.9858 368.513 7.91763 368.513 6.84947V4.71414H369.582Z" fill="#425A6B"/>
<path d="M381.329 28.2057V29.2739C381.329 30.342 381.329 31.4092 382.397 32.4774C382.397 33.5455 383.465 35.6809 384.532 37.8162C384.532 39.9515 384.532 42.0879 385.6 43.155C386.668 45.2903 386.668 47.4267 387.736 48.4938L389.871 50.6292C390.939 50.6292 390.939 51.6973 392.006 51.6973C393.074 51.6973 395.21 52.7655 395.21 52.7655C394.142 52.7655 393.074 52.7655 392.006 51.6973C390.938 51.6973 390.938 51.6973 389.871 50.6292C388.803 50.6292 388.803 49.561 387.736 48.4938C386.667 47.4257 385.6 45.2903 384.532 43.155C383.464 41.0197 383.464 38.8834 382.397 37.8162C381.329 35.6809 381.329 34.6127 380.262 32.4774C380.262 31.4092 379.193 29.2739 379.193 29.2739C380.261 29.2739 380.261 28.2057 381.329 28.2057C380.261 28.2057 380.261 28.2057 381.329 28.2057ZM399.481 62.377C399.481 62.377 398.413 64.5123 398.413 66.6486C396.278 68.7839 395.21 71.9874 394.142 75.1909C394.142 76.2591 393.073 76.2591 393.073 77.3262C393.073 78.3934 392.005 78.3944 392.005 79.4616C390.937 80.5297 389.87 81.5969 389.87 82.6651C389.87 83.7332 388.802 84.8004 388.802 85.8686V86.9367V82.6651C388.802 81.5969 389.87 80.5297 390.937 78.3934C390.937 77.3252 392.005 77.3253 392.005 76.2581C392.005 75.1909 393.073 75.1899 393.073 74.1228C394.142 70.9193 395.209 67.7158 396.277 65.5805C397.345 63.4451 397.345 61.3088 397.345 61.3088L399.481 62.377ZM424.041 55.97V62.377C424.041 63.4451 422.973 64.5123 422.973 65.5805C422.973 65.5805 422.973 66.6486 421.905 66.6486C421.905 67.7168 421.905 67.7168 420.837 68.7839C420.837 69.8521 419.769 70.9193 418.701 71.9874C418.701 73.0556 417.633 73.0556 417.633 73.0556L416.565 74.1238C415.497 75.1919 414.43 76.2591 414.43 77.3272L413.362 78.3954L412.293 79.4636C411.225 80.5317 410.158 80.5317 410.158 81.5989L408.023 83.7342C406.955 84.8024 405.887 85.8696 405.887 86.9377V89.0731C405.887 89.0731 405.887 90.1412 406.956 90.1412C406.956 90.1412 406.956 89.0731 405.887 89.0731V84.8014C405.887 83.7332 406.956 82.6661 408.023 82.6661C409.091 81.5979 410.158 81.5979 410.158 80.5307L411.226 79.4626L412.294 78.3944L416.566 74.1228L417.634 73.0546L418.702 71.9864C419.771 70.9183 419.771 69.8511 420.838 68.7829C420.838 67.7148 420.838 67.7148 421.906 67.7148C421.906 67.7148 421.906 66.6466 422.974 66.6466C422.974 65.5784 424.042 64.5113 424.042 63.4431V57.0361L424.041 55.97Z" fill="#425A6B"/>
<path d="M398.413 282.35C398.413 282.35 396.278 273.807 392.006 270.604C387.735 268.469 383.464 260.993 381.328 255.655C379.192 249.248 365.31 243.909 364.242 243.909C359.97 244.977 357.835 256.723 363.174 263.13C368.513 269.537 368.513 273.808 365.309 282.351C362.106 290.893 365.309 311.182 365.309 311.182C365.309 315.454 370.648 315.454 370.648 311.182L371.716 315.454C372.784 319.725 374.92 319.725 374.92 319.725C377.055 319.725 378.123 318.657 378.123 318.657C378.123 318.657 378.123 321.861 381.327 321.861C384.53 321.861 384.53 316.522 384.53 316.522C384.53 319.725 389.869 319.725 389.869 316.522C392.004 310.115 394.141 295.166 394.141 295.166C395.209 299.437 398.412 298.369 398.412 298.369L399.48 290.894C400.549 289.826 401.616 287.691 401.616 287.691C399.481 287.689 398.413 282.35 398.413 282.35Z" fill="#F5B54C"/>
<path d="M373.853 234.297C373.853 234.297 377.057 242.84 367.446 242.84C367.446 242.84 369.582 273.806 357.836 273.806C347.157 273.806 338.615 270.603 321.529 264.196C305.512 257.789 270.274 242.84 267.07 228.958C267.07 228.958 268.138 224.686 270.274 224.686C270.274 224.686 272.409 218.279 277.749 218.279C277.749 218.279 277.749 210.804 283.088 204.397C288.426 197.99 290.563 178.769 290.563 178.769C290.563 178.769 286.291 164.887 299.105 156.344C299.105 156.344 300.173 147.802 300.173 142.462C300.173 141.394 300.173 139.259 301.241 138.191C303.377 134.987 306.58 129.648 309.784 127.512C315.122 125.377 325.801 104.019 325.801 104.019C330.073 101.884 333.276 101.884 337.547 102.951C337.547 102.951 323.665 121.104 322.598 124.307C321.529 126.443 316.191 141.393 327.936 146.732C339.682 152.071 355.7 153.139 366.378 146.732C375.989 140.325 383.464 126.443 383.464 126.443C383.464 126.443 395.21 102.95 404.82 104.018H405.888C409.092 104.018 410.16 105.087 411.227 107.222C408.024 108.29 401.617 111.494 399.481 115.764C396.278 122.171 388.803 138.189 390.939 145.664C393.074 154.206 401.618 165.953 408.025 168.088L413.364 178.767C411.227 176.635 373.853 226.822 373.853 234.297Z" fill="#E8EAE8"/>
<path d="M405.888 85.8686C404.82 89.0721 404.82 93.3437 406.956 96.5472C408.025 99.7507 411.228 104.022 414.432 105.09C409.093 104.021 404.821 102.954 399.482 102.954C397.347 102.954 396.279 102.954 394.143 101.886C393.075 100.818 392.008 98.6825 393.075 97.6144C393.075 95.479 394.143 94.4109 395.211 93.3427C396.279 91.2074 397.346 89.0711 399.482 88.0039C399.481 84.8014 402.685 84.8014 405.888 85.8686Z" fill="#425A6B"/>
<path d="M405.888 86.9367C403.753 85.8686 400.55 85.8686 398.413 86.9367C397.345 85.8686 397.345 83.7332 398.413 82.6651C400.549 81.5969 403.752 81.5969 405.888 82.6651C406.957 83.7332 406.957 85.8686 405.888 86.9367Z" fill="#F26F5A"/>
</svg>
