<svg width="512" height="512" viewBox="0 0 512 512" fill="none" xmlns="http://www.w3.org/2000/svg">
<g clip-path="url(#clip0_185_233)">
<rect width="512" height="512" fill="white"/>
<path d="M448 88V296C448 309.28 437.28 320 424 320H88C74.72 320 64 309.28 64 296V88C64 74.8 74.8 64 88 64H424C437.2 64 448 74.8 448 88Z" fill="#0A5078"/>
<path d="M400 312V320H112V312C112 294.32 126.32 280 144 280V272C144 267.6 147.6 264 152 264H184C188.4 264 192 267.6 192 272V280H208V272C208 267.6 211.6 264 216 264H296C300.4 264 304 267.6 304 272V280H320V272C320 267.6 323.6 264 328 264H360C364.4 264 368 267.6 368 272V280C385.68 280 400 294.32 400 312Z" fill="#00143C"/>
<path d="M432 88V296C432 300.4 428.4 304 424 304H88C83.6 304 80 300.4 80 296V88C80 83.68 83.68 80 88 80H424C428.32 80 432 83.68 432 88Z" fill="#F0F0F0"/>
<path d="M314.64 192.823L202.616 231.551C201.411 231.968 200.123 232.091 198.861 231.91C197.599 231.728 196.398 231.248 195.359 230.508C194.321 229.768 193.474 228.791 192.889 227.657C192.305 226.524 192 225.267 192 223.991V143.943C192 142.655 192.312 141.385 192.909 140.243C193.505 139.1 194.369 138.119 195.426 137.382C196.483 136.645 197.703 136.174 198.982 136.01C200.26 135.846 201.559 135.994 202.768 136.439L314.8 177.783C321.84 180.343 321.68 190.423 314.64 192.823ZM398.96 303.999H113.04C116.56 290.159 129.12 279.999 144 279.999V271.999C144 267.599 147.6 263.999 152 263.999H184C188.4 263.999 192 267.599 192 271.999V279.999H208V271.999C208 267.599 211.6 263.999 216 263.999H296C300.4 263.999 304 267.599 304 271.999V279.999H320V271.999C320 267.599 323.6 263.999 328 263.999H360C364.4 263.999 368 267.599 368 271.999V279.999C382.88 279.999 395.44 290.159 398.96 303.999Z" fill="#D2D2D2"/>
<path d="M400 320V401.52C400.006 407.626 398.808 413.673 396.475 419.315C394.141 424.957 390.718 430.083 386.4 434.4C382.083 438.718 376.957 442.141 371.315 444.475C365.673 446.808 359.626 448.006 353.52 448C333.52 448 315.76 435.2 309.44 416.24L305.84 405.44C304.72 402.24 301.68 400 298.24 400H213.76C210.32 400 207.28 402.24 206.16 405.44L202.56 416.24C199.061 426.701 191.956 435.577 182.515 441.281C173.073 446.985 161.911 449.145 151.023 447.375C140.135 445.606 130.231 440.021 123.083 431.621C115.934 423.22 112.005 412.551 112 401.52V320C112 302.32 126.32 288 144 288H368C385.68 288 400 302.32 400 320Z" fill="#FAB400"/>
<path d="M280 384C280 390.16 277.68 395.76 273.84 400H238.16C235.06 396.555 233.025 392.284 232.302 387.706C231.579 383.128 232.199 378.438 234.087 374.205C235.975 369.972 239.05 366.377 242.939 363.856C246.828 361.335 251.365 359.996 256 360C269.28 360 280 370.72 280 384ZM184 344C186.122 344 188.157 343.157 189.657 341.657C191.157 340.157 192 338.122 192 336C192 333.878 191.157 331.843 189.657 330.343C188.157 328.843 186.122 328 184 328C179.584 328 176 324.416 176 320C176 317.878 175.157 315.843 173.657 314.343C172.157 312.843 170.122 312 168 312C165.878 312 163.843 312.843 162.343 314.343C160.843 315.843 160 317.878 160 320C160 324.416 156.416 328 152 328C149.878 328 147.843 328.843 146.343 330.343C144.843 331.843 144 333.878 144 336C144 338.122 144.843 340.157 146.343 341.657C147.843 343.157 149.878 344 152 344C156.416 344 160 347.584 160 352C160 354.122 160.843 356.157 162.343 357.657C163.843 359.157 165.878 360 168 360C170.122 360 172.157 359.157 173.657 357.657C175.157 356.157 176 354.122 176 352C176 349.878 176.843 347.843 178.343 346.343C179.843 344.843 181.878 344 184 344Z" fill="#DC9600"/>
<path d="M344 360C348.418 360 352 356.418 352 352C352 347.582 348.418 344 344 344C339.582 344 336 347.582 336 352C336 356.418 339.582 360 344 360Z" fill="#DC9600"/>
<path d="M344 328C348.418 328 352 324.418 352 320C352 315.582 348.418 312 344 312C339.582 312 336 315.582 336 320C336 324.418 339.582 328 344 328Z" fill="#DC9600"/>
<path d="M328 344C332.418 344 336 340.418 336 336C336 331.582 332.418 328 328 328C323.582 328 320 331.582 320 336C320 340.418 323.582 344 328 344Z" fill="#DC9600"/>
<path d="M360 344C364.418 344 368 340.418 368 336C368 331.582 364.418 328 360 328C355.582 328 352 331.582 352 336C352 340.418 355.582 344 360 344Z" fill="#DC9600"/>
<path d="M240 348H224C222.939 348 221.922 347.579 221.172 346.828C220.421 346.078 220 345.061 220 344C220 342.939 220.421 341.922 221.172 341.172C221.922 340.421 222.939 340 224 340H240C241.061 340 242.078 340.421 242.828 341.172C243.579 341.922 244 342.939 244 344C244 345.061 243.579 346.078 242.828 346.828C242.078 347.579 241.061 348 240 348ZM288 348H272C270.939 348 269.922 347.579 269.172 346.828C268.421 346.078 268 345.061 268 344C268 342.939 268.421 341.922 269.172 341.172C269.922 340.421 270.939 340 272 340H288C289.061 340 290.078 340.421 290.828 341.172C291.579 341.922 292 342.939 292 344C292 345.061 291.579 346.078 290.828 346.828C290.078 347.579 289.061 348 288 348Z" fill="#DC9600"/>
<path d="M256 416C269.255 416 280 405.255 280 392C280 378.745 269.255 368 256 368C242.745 368 232 378.745 232 392C232 405.255 242.745 416 256 416Z" fill="#00143C"/>
<path d="M240 356H224C222.939 356 221.922 355.579 221.172 354.828C220.421 354.078 220 353.061 220 352C220 350.939 220.421 349.922 221.172 349.172C221.922 348.421 222.939 348 224 348H240C241.061 348 242.078 348.421 242.828 349.172C243.579 349.922 244 350.939 244 352C244 353.061 243.579 354.078 242.828 354.828C242.078 355.579 241.061 356 240 356ZM288 356H272C270.939 356 269.922 355.579 269.172 354.828C268.421 354.078 268 353.061 268 352C268 350.939 268.421 349.922 269.172 349.172C269.922 348.421 270.939 348 272 348H288C289.061 348 290.078 348.421 290.828 349.172C291.579 349.922 292 350.939 292 352C292 353.061 291.579 354.078 290.828 354.828C290.078 355.579 289.061 356 288 356ZM184 336C181.878 336 179.843 335.157 178.343 333.657C176.843 332.157 176 330.122 176 328C176 325.878 175.157 323.843 173.657 322.343C172.157 320.843 170.122 320 168 320C165.878 320 163.843 320.843 162.343 322.343C160.843 323.843 160 325.878 160 328C160 330.122 159.157 332.157 157.657 333.657C156.157 335.157 154.122 336 152 336C149.878 336 147.843 336.843 146.343 338.343C144.843 339.843 144 341.878 144 344C144 346.122 144.843 348.157 146.343 349.657C147.843 351.157 149.878 352 152 352C154.122 352 156.157 352.843 157.657 354.343C159.157 355.843 160 357.878 160 360C160 362.122 160.843 364.157 162.343 365.657C163.843 367.157 165.878 368 168 368C170.122 368 172.157 367.157 173.657 365.657C175.157 364.157 176 362.122 176 360C176 357.878 176.843 355.843 178.343 354.343C179.843 352.843 181.878 352 184 352C186.122 352 188.157 351.157 189.657 349.657C191.157 348.157 192 346.122 192 344C192 341.878 191.157 339.843 189.657 338.343C188.157 336.843 186.122 336 184 336ZM184 272H152C149.878 272 147.843 272.843 146.343 274.343C144.843 275.843 144 277.878 144 280V288H192V280C192 277.878 191.157 275.843 189.657 274.343C188.157 272.843 186.122 272 184 272ZM360 272H328C325.878 272 323.843 272.843 322.343 274.343C320.843 275.843 320 277.878 320 280V288H368V280C368 277.878 367.157 275.843 365.657 274.343C364.157 272.843 362.122 272 360 272Z" fill="#00143C"/>
<path d="M344 368C348.418 368 352 364.418 352 360C352 355.582 348.418 352 344 352C339.582 352 336 355.582 336 360C336 364.418 339.582 368 344 368Z" fill="#00143C"/>
<path d="M344 336C348.418 336 352 332.418 352 328C352 323.582 348.418 320 344 320C339.582 320 336 323.582 336 328C336 332.418 339.582 336 344 336Z" fill="#00143C"/>
<path d="M328 352C332.418 352 336 348.418 336 344C336 339.582 332.418 336 328 336C323.582 336 320 339.582 320 344C320 348.418 323.582 352 328 352Z" fill="#00143C"/>
<path d="M360 352C364.418 352 368 348.418 368 344C368 339.582 364.418 336 360 336C355.582 336 352 339.582 352 344C352 348.418 355.582 352 360 352Z" fill="#00143C"/>
<path d="M296 304H216C213.878 304 211.843 303.157 210.343 301.657C208.843 300.157 208 298.122 208 296V280C208 277.878 208.843 275.843 210.343 274.343C211.843 272.843 213.878 272 216 272H296C298.122 272 300.157 272.843 301.657 274.343C303.157 275.843 304 277.878 304 280V296C304 298.122 303.157 300.157 301.657 301.657C300.157 303.157 298.122 304 296 304Z" fill="#00143C"/>
<path d="M314.64 200.823L202.616 239.551C201.411 239.968 200.123 240.091 198.861 239.91C197.599 239.728 196.398 239.248 195.359 238.508C194.321 237.768 193.474 236.791 192.889 235.657C192.305 234.524 192 233.267 192 231.991V151.943C192 150.655 192.312 149.385 192.908 148.243C193.505 147.1 194.369 146.119 195.426 145.382C196.483 144.645 197.703 144.174 198.981 144.01C200.26 143.846 201.559 143.994 202.768 144.439L314.8 185.783C321.84 188.343 321.68 198.423 314.64 200.823Z" fill="#C80A50"/>
</g>
<defs>
<clipPath id="clip0_185_233">
<rect width="512" height="512" fill="white"/>
</clipPath>
</defs>
</svg>
