<svg width="512" height="512" viewBox="0 0 512 512" fill="none" xmlns="http://www.w3.org/2000/svg">
<g clip-path="url(#clip0_185_145)">
<rect width="512" height="512" fill="white"/>
<g clip-path="url(#clip1_185_145)">
<path d="M91.3091 158.26H111.27V194.602H91.3091V158.26Z" fill="#D19A6E"/>
<path d="M362.82 265.522L287.445 325.822C281.289 330.747 276.039 336.709 271.933 343.439L207.75 448.643L238.447 448.378L307.779 355.847L397.399 297.277L409.395 250.703L362.82 265.522Z" fill="#5D5360"/>
<path d="M210.396 444.672L208.014 468.753H229.978C232.224 468.753 234.378 467.86 235.966 466.272C237.554 464.684 238.446 462.531 238.446 460.285V448.377L210.396 444.672Z" fill="#F4DBB3"/>
<path d="M427.668 277.412L425.119 265.516L389.636 260.582L338.201 337.247C335.428 341.13 333.804 345.715 333.516 350.478C333.228 355.241 334.286 359.989 336.571 364.178L379.756 443.35L397.99 445.677L413.628 434.882L371.288 350.202L420.791 300.699C423.79 297.7 425.99 293.998 427.191 289.93C428.393 285.863 428.557 281.559 427.668 277.412Z" fill="#6F6571"/>
<path d="M489.41 69.168L473.14 69.247L439.032 113.099L267.594 186.572C263.378 188.379 258.838 189.311 254.251 189.311H201.927V214.715H260.052C266.423 214.715 272.753 213.688 278.797 211.673L320.479 197.779L395.983 265.523H425.119L405.159 172.375L454.828 143.992C461.127 140.393 466.396 135.235 470.128 129.014L495.341 86.992L489.41 69.168Z" fill="#FF9A9F"/>
<path d="M321.112 197.631L320.48 197.778L362.82 265.522H395.984L346.388 206.093C343.372 202.48 339.412 199.775 334.949 198.281C330.486 196.787 325.696 196.562 321.112 197.631Z" fill="#FF8086"/>
<path d="M151.12 392.541L125.716 375.605L86.3401 430.733C85.4455 431.986 84.9092 433.459 84.7889 434.993C84.6685 436.528 84.9687 438.066 85.6571 439.442L95.6321 459.392C97.0386 462.206 99.2007 464.572 101.876 466.225C104.552 467.879 107.635 468.755 110.78 468.754H119.979C122.673 468.754 124.472 465.976 123.37 463.518L111.957 438.058L151.12 392.541Z" fill="#D19A6E"/>
<path d="M90.3531 206.246L83.2201 270.777L108.78 273.99L125.716 265.522L151.12 206.246H90.3531Z" fill="#FFD064"/>
<path d="M115.131 208.893L82.6471 211.35L74.9081 265.523L89.7501 269.233C97.3981 250.802 114.312 210.121 115.131 208.893Z" fill="#FFC250"/>
<path d="M210.396 443.349L125.716 324.797L66.4401 307.861L192.082 462.497C193.67 464.452 195.674 466.027 197.948 467.11C200.221 468.192 202.708 468.753 205.226 468.753H229.494C234.227 468.753 236.235 462.728 232.449 459.889L210.396 443.349Z" fill="#E2A975"/>
<path d="M125.716 265.521H74.9081L8.09811 286.766C8.09811 286.766 2.36511 294.667 5.76911 297.526C13.2961 303.849 13.4021 310.153 21.9611 315.105C30.4411 320.011 42.9551 316.804 52.2821 320.2C61.4461 323.537 68.8001 334.254 78.6261 335.975C88.1821 337.649 98.7451 330.646 108.781 330.646C118.815 330.646 129.375 338.689 138.929 337.015C148.754 335.294 156.108 324.578 165.273 321.242C174.599 317.847 182.78 323.309 191.259 318.403C195.261 316.088 198.107 312.113 200.771 307.888L200.874 299.636L125.716 265.521Z" fill="#FFE07D"/>
<path d="M108.78 170.257C122.81 170.257 134.184 158.883 134.184 144.853C134.184 130.823 122.81 119.449 108.78 119.449C94.7499 119.449 83.3761 130.823 83.3761 144.853C83.3761 158.883 94.7499 170.257 108.78 170.257Z" fill="#E2A975"/>
<path d="M75.4791 136.819C84.8326 136.819 92.4151 129.237 92.4151 119.883C92.4151 110.53 84.8326 102.947 75.4791 102.947C66.1256 102.947 58.5431 110.53 58.5431 119.883C58.5431 129.237 66.1256 136.819 75.4791 136.819Z" fill="#966A5B"/>
<path d="M101.668 116.957C107.873 115.218 113.388 115.201 118.499 116.885C119.943 117.366 121.228 118.233 122.215 119.392C123.203 120.55 123.855 121.957 124.102 123.459C124.634 126.686 123.357 129.896 120.761 131.848L110.398 139.611C105.867 143.008 101.887 147.085 98.601 151.698L91.447 161.733C91.0522 162.286 90.5296 162.737 89.9236 163.046C89.3176 163.354 88.6461 163.512 87.966 163.507C87.2874 163.502 86.6197 163.335 86.0194 163.018C85.4191 162.702 84.9038 162.245 84.517 161.688C79.001 153.721 77.666 143.615 80.959 134.646C84.04 126.227 91.595 119.778 101.668 116.957Z" fill="#785353"/>
<path d="M87.6101 214.715H201.928V189.311H87.6101C80.5951 189.311 74.9081 194.998 74.9081 202.013C74.9081 209.028 80.5951 214.715 87.6101 214.715Z" fill="#E2A975"/>
<path d="M315.43 125.487L329.953 159.728C332.692 166.186 340.148 169.201 346.606 166.462C353.064 163.723 356.079 156.267 353.34 149.809L338.817 115.568L315.43 125.487Z" fill="#9F6E50"/>
<path d="M495.341 86.9917L510.216 62.2007C511.652 59.8071 512.247 57.0022 511.906 54.2319C511.565 51.4615 510.308 48.8846 508.334 46.9107C503.01 41.5867 494.225 42.1337 489.604 48.0767L473.14 69.2457L495.341 86.9917Z" fill="#B57F5F"/>
<path d="M323.176 145.001C337.206 145.001 348.58 133.628 348.58 119.597C348.58 105.567 337.206 94.1934 323.176 94.1934C309.146 94.1934 297.772 105.567 297.772 119.597C297.772 133.628 309.146 145.001 323.176 145.001Z" fill="#B57F5F"/>
<path d="M295.653 108.926C300.278 96.9918 311.899 89.3828 324.587 89.9888C333.687 90.4328 342.162 95.7208 347.811 104.504C351.634 110.445 353.236 116.24 352.698 122.22C352.579 123.525 352.196 124.792 351.571 125.944C350.945 127.095 350.092 128.107 349.062 128.918C347.188 130.37 344.907 131.049 342.583 130.853C342.349 130.833 342.117 130.805 341.885 130.769L337.052 130.013C332.606 129.298 328.571 127.248 325.395 124.075L318.545 117.231C315.736 114.421 311.862 113.124 307.903 113.628L300.149 114.65C298.679 114.858 297.187 114.242 296.266 113.069C295.813 112.491 295.518 111.805 295.411 111.078C295.303 110.352 295.387 109.61 295.653 108.926Z" fill="#643C3E"/>
<path d="M201.928 214.715C208.943 214.715 214.63 209.028 214.63 202.013C214.63 194.997 208.943 189.311 201.928 189.311C194.913 189.311 189.226 194.997 189.226 202.013C189.226 209.028 194.913 214.715 201.928 214.715Z" fill="#B57F5F"/>
<path d="M372.335 465.186L413.628 454.993V434.881L379.756 443.349L368.113 454.992C364.351 458.754 367.015 465.186 372.335 465.186Z" fill="#F5EBCD"/>
<path d="M368.113 454.993L364.546 458.56C360.784 462.322 363.449 468.753 368.769 468.753H405.161C407.407 468.753 409.561 467.861 411.149 466.273C412.737 464.685 413.629 462.531 413.629 460.285V454.992L368.113 454.993Z" fill="#F4DBB3"/>
<path d="M201.48 299.915L200.871 299.638C199.319 301.462 197.601 303.048 195.588 304.213C187.109 309.119 174.597 305.667 165.271 309.062C156.107 312.398 148.752 323.115 138.927 324.835C129.373 326.509 118.813 318.977 108.779 318.977C98.7431 318.977 88.1811 326.508 78.6241 324.834C68.7991 323.113 61.4451 312.396 52.2801 309.059C42.9531 305.663 30.4391 309.113 21.9591 304.207C15.7731 300.627 12.3531 293.076 8.09706 286.768L4.25106 287.991C-0.413941 289.474 -1.50594 295.535 2.30806 298.603C2.41706 298.691 2.52506 298.78 2.63306 298.87C10.1601 305.193 13.4011 317.779 21.9601 322.732C30.4401 327.638 42.9541 324.188 52.2811 327.584C61.4451 330.921 68.7991 341.638 78.6251 343.359C88.1811 345.033 98.7441 337.502 108.78 337.502C118.814 337.502 129.374 345.034 138.928 343.36C148.753 341.639 156.107 330.923 165.272 327.587C174.598 324.192 187.11 327.644 195.589 322.738C199.614 320.409 202.47 316.401 205.147 312.149C207.883 307.802 206.156 302.038 201.48 299.915Z" fill="#FFF0AF"/>
</g>
</g>
<defs>
<clipPath id="clip0_185_145">
<rect width="512" height="512" fill="white"/>
</clipPath>
<clipPath id="clip1_185_145">
<rect width="512" height="512" fill="white"/>
</clipPath>
</defs>
</svg>
