<svg width="512" height="512" viewBox="0 0 512 512" fill="none" xmlns="http://www.w3.org/2000/svg">
<path d="M397 31.451C397 33.7522 395.192 35.7978 392.609 35.7978H118.791C116.467 35.7978 114.4 34.0079 114.4 31.7067C114.4 30.4282 114.917 29.4054 115.692 28.6383C116.467 27.8713 117.5 27.3599 118.791 27.3599H392.609C394.933 27.3599 397 29.1497 397 31.451Z" fill="#D1654B"/>
<path d="M266.549 241.118C266.549 241.374 266.549 241.885 266.549 242.141C266.033 244.442 264.483 246.744 264.483 246.744C263.708 245.209 263.191 244.187 262.933 243.675C262.675 243.42 262.675 243.42 262.675 243.164C262.416 242.908 262.416 242.908 262.416 242.908C262.416 242.908 256.733 243.164 253.375 242.141C248.984 242.908 243.817 244.442 239.426 245.721C239.168 245.721 238.651 245.976 238.393 245.976C234.776 246.999 232.193 248.022 231.935 248.022C231.16 248.022 230.902 248.022 227.543 246.232C226.252 246.744 225.219 247.255 224.185 247.511C219.277 249.045 216.177 249.045 214.369 248.789C213.078 248.533 212.561 248.278 212.561 248.278C212.561 248.278 211.786 246.999 211.011 245.976C210.753 245.721 210.753 245.209 210.494 244.954C210.236 244.187 210.753 242.652 213.594 238.817C213.594 237.539 213.853 236.004 213.853 234.726C213.853 233.703 213.853 232.68 213.853 231.658C213.594 227.822 213.336 223.987 212.561 220.407C212.303 219.384 212.303 218.361 212.044 217.339C211.269 213.503 210.236 209.668 209.203 206.088C208.944 205.065 208.686 204.043 208.428 203.02C207.136 199.184 206.103 195.349 205.07 192.025C204.811 191.002 204.553 189.979 204.295 188.957C203.778 186.911 203.261 184.866 203.003 182.82C202.745 181.286 202.487 179.752 202.487 178.218C202.487 177.195 202.487 176.172 202.487 175.149C202.487 171.569 202.745 167.734 203.003 164.666C203.003 163.643 203.261 162.62 203.52 161.597C204.295 155.716 205.328 151.625 205.328 151.625C205.328 152.392 205.328 152.904 205.328 153.671C205.328 153.927 205.328 153.927 205.328 154.182C205.328 154.438 205.328 154.438 205.328 154.438C205.328 154.438 205.328 154.438 205.328 154.694C205.328 154.694 205.328 154.694 205.328 154.949C205.328 154.949 205.328 154.949 205.328 155.205C205.328 155.205 205.328 155.205 205.328 155.461C205.328 155.461 205.328 155.461 205.328 155.716C205.328 155.972 205.328 155.972 205.328 155.972V156.228C205.328 156.484 205.328 156.739 205.586 156.995C205.586 156.995 205.586 156.995 205.586 157.251C205.586 157.251 205.586 157.251 205.586 157.506V157.762V158.018V158.273V158.529V158.785V159.04V159.296V159.552V159.808C205.586 160.063 205.845 160.063 205.845 160.319C205.845 160.319 205.845 160.575 206.103 160.575V160.83C206.103 160.83 206.103 161.086 206.361 161.086C206.361 161.086 206.361 161.342 206.62 161.342C206.62 161.342 206.62 161.597 206.878 161.597C206.878 161.597 206.878 161.853 207.136 161.853C207.136 161.853 207.136 162.109 207.395 162.109L207.653 162.364C207.653 162.364 207.653 162.62 207.911 162.62C207.911 162.62 207.911 162.876 208.17 162.876C208.17 162.876 208.17 163.132 208.428 163.132C208.428 163.132 208.428 163.132 208.686 163.387L208.944 163.643C208.944 163.643 208.944 163.643 209.203 163.899C209.461 164.154 209.461 164.154 209.719 164.154C209.719 164.154 209.978 164.154 209.978 164.41C210.236 164.41 210.236 164.666 210.236 164.666C210.236 164.666 210.494 164.666 210.494 164.921C210.494 164.921 210.753 164.921 210.753 165.177C210.753 165.177 210.753 165.177 211.011 165.177C211.011 165.177 211.269 165.177 211.269 165.433C211.269 165.433 211.528 165.433 211.528 165.688C211.786 165.688 211.786 165.944 212.044 165.944H212.303C212.303 165.944 212.303 165.944 212.561 165.944C212.819 165.944 212.819 165.944 212.819 165.944C213.078 165.944 213.078 165.944 213.078 166.2C213.336 166.456 213.594 166.456 214.111 166.711C214.111 166.711 214.111 166.711 214.369 166.711C214.627 166.711 214.627 166.711 214.627 166.711H214.886H215.144C215.402 166.711 215.402 166.711 215.661 166.711H215.919H216.177C216.436 166.711 216.436 166.711 216.436 166.711H216.694H216.952C217.211 166.711 217.469 166.711 217.727 166.711C217.727 166.711 217.727 166.711 217.986 166.711C218.244 166.711 218.244 166.711 218.244 166.711C218.502 166.711 218.502 166.711 218.502 166.711H218.761H219.019C222.119 166.711 224.96 165.433 226.252 163.132C226.252 162.876 226.51 162.876 226.51 162.62C226.51 162.364 226.768 162.364 226.768 162.109C227.027 161.597 227.285 161.342 227.285 160.83C227.543 160.319 227.543 160.063 227.802 159.552C227.802 159.552 227.802 159.296 228.06 159.296C228.06 159.04 228.318 158.785 228.318 158.529C228.318 158.273 228.577 158.273 228.577 158.018C228.577 158.018 228.577 158.018 228.577 157.762C228.835 157.506 228.835 156.995 229.093 156.739C229.093 156.483 229.352 156.484 229.352 156.228C229.352 155.972 229.61 155.972 229.61 155.716C229.61 155.716 229.61 155.716 229.61 155.461C229.868 155.205 229.868 154.694 230.127 154.438C230.385 153.927 230.643 153.159 230.902 152.648C230.902 152.392 231.16 152.137 231.16 151.881C231.418 151.37 231.418 151.114 231.676 150.603C232.193 149.324 232.71 148.046 232.968 146.767C233.226 146.256 233.226 146 233.485 145.489C233.485 145.233 233.485 145.233 233.743 144.977V144.722C233.743 144.466 233.743 144.466 234.001 144.21C234.001 143.954 234.26 143.699 234.26 143.443C234.26 143.187 234.518 142.932 234.518 142.676C234.518 142.42 234.776 142.165 234.776 141.909C235.035 140.886 235.551 139.863 235.81 138.585C235.81 138.329 235.81 138.329 236.068 138.074C236.068 137.818 236.326 137.306 236.326 137.051C236.326 136.795 236.585 136.539 236.585 136.284C236.585 135.772 236.843 135.517 236.843 135.005V134.749C237.101 134.238 237.101 133.727 237.359 133.215C239.168 134.494 240.976 136.539 242.784 139.096C243.301 139.863 243.817 140.63 244.592 141.653C245.626 143.187 246.917 144.977 247.95 147.023L248.209 147.279C249.242 149.068 250.275 151.114 251.309 152.904C251.825 153.671 252.084 154.694 252.6 155.716C254.408 159.552 256.217 163.387 257.767 167.734C257.767 167.99 258.025 167.99 258.025 168.245C258.283 169.013 258.542 170.035 259.058 171.058C260.091 174.638 260.866 179.24 261.641 184.098C261.9 185.121 261.9 186.144 261.9 187.167C262.416 191.002 262.675 194.838 262.933 198.673C262.933 199.696 263.191 200.719 263.191 201.741C263.45 205.321 263.45 208.645 263.708 211.969C263.708 212.992 263.708 214.015 263.708 215.037C263.708 218.617 263.966 221.941 263.966 224.754C263.966 225.777 263.966 226.799 263.966 227.822C263.966 232.425 263.966 234.982 263.966 234.982C263.966 234.982 266.291 236.26 267.583 238.05C266.291 239.584 266.549 240.351 266.549 241.118Z" fill="#FCEBE6"/>
<path d="M243.043 142.164C240.718 143.699 238.651 144.977 236.068 145.744C234.518 146.255 232.968 146.767 231.418 147.023C231.677 146.511 231.677 146.255 231.935 145.744C231.935 145.488 231.935 145.488 232.193 145.233V144.977C232.193 144.721 232.193 144.721 232.451 144.466C232.451 144.21 232.71 143.954 232.71 143.699C235.551 142.931 238.393 141.653 241.234 139.607C241.751 140.63 242.268 141.397 243.043 142.164Z" fill="#3D8AAA"/>
<path d="M250.792 156.227C244.851 159.807 237.876 160.062 231.418 160.574C229.61 160.574 227.802 160.83 225.735 160.83C223.669 161.085 221.602 161.341 219.794 161.852C217.211 162.619 214.369 162.875 211.528 163.386C210.753 163.386 209.978 163.642 208.944 163.642C206.62 163.898 204.553 164.409 202.487 164.921C202.487 163.898 202.745 162.875 203.003 161.852C204.295 161.597 205.586 161.341 206.878 161.085C208.428 160.83 209.719 160.574 211.269 160.318C213.853 159.807 216.694 159.551 219.277 158.784C221.86 158.017 224.702 157.761 227.285 157.506C228.577 157.506 229.868 157.25 231.418 157.25C237.876 156.994 244.334 156.483 249.759 153.159C250.017 154.437 250.534 155.46 250.792 156.227Z" fill="#3D8AAA"/>
<path d="M257.25 171.569C255.7 172.08 254.15 172.591 252.342 173.103C248.467 173.87 243.817 173.87 239.426 173.614C233.485 173.614 227.285 173.358 222.119 175.404C217.211 177.194 212.303 177.705 207.653 177.961C205.586 178.217 203.778 178.472 201.97 178.728C201.97 177.705 201.97 176.682 201.97 175.66C203.778 175.404 205.586 175.148 207.395 174.893C211.786 174.381 216.436 173.87 221.085 172.336C226.768 170.29 233.226 170.29 239.426 170.546C245.626 170.546 251.825 170.801 256.217 168.756C256.475 169.779 256.992 170.546 257.25 171.569Z" fill="#3D8AAA"/>
<path d="M260.091 187.677C259.833 187.677 259.575 187.677 259.575 187.677C255.958 187.933 251.825 187.677 247.434 187.166C239.684 186.655 230.901 185.888 224.444 188.7C217.727 191.768 210.753 191.769 205.07 192.024H204.811C204.553 191.001 204.295 189.979 204.036 188.956C204.295 188.956 204.811 188.956 205.07 188.956C210.494 188.7 216.952 188.444 223.152 185.888C230.127 182.819 239.426 183.586 247.434 184.098C251.825 184.353 256.217 184.865 259.575 184.609C259.833 185.632 259.833 186.655 260.091 187.677Z" fill="#3D8AAA"/>
<path d="M261.383 202.252C259.575 201.997 257.767 201.741 255.7 201.485C246.142 199.951 234.26 198.417 226.51 202.252C220.569 205.321 214.369 206.088 208.945 206.088C208.686 205.065 208.428 204.042 208.17 203.019C213.336 203.019 219.277 202.508 225.219 199.44C229.093 197.394 234.001 196.627 240.201 196.627C245.626 196.627 251.309 197.65 256.217 198.417C258.025 198.673 259.575 198.928 261.383 199.184C261.125 200.207 261.383 201.229 261.383 202.252Z" fill="#3D8AAA"/>
<path d="M261.9 215.804C250.792 213.502 236.843 210.945 228.835 215.804C224.185 218.361 219.019 219.895 213.078 220.406C212.819 220.406 212.819 220.406 212.561 220.406C212.303 219.383 212.303 218.361 212.044 217.338C216.952 217.082 222.119 216.059 227.285 213.247C236.326 207.877 250.534 210.434 261.9 212.735C261.9 213.758 261.9 214.781 261.9 215.804Z" fill="#3D8AAA"/>
<path d="M262.158 228.589C251.05 226.032 238.393 224.498 230.901 229.356C225.993 232.68 220.052 234.47 213.852 234.726C213.852 233.703 213.852 232.68 213.852 231.657C218.76 231.402 224.185 230.123 229.352 226.799C232.193 225.009 235.809 223.731 240.459 223.475C244.076 223.219 248.467 223.22 253.117 223.987C256.217 224.498 259.316 225.009 262.158 225.776C262.158 226.544 262.158 227.566 262.158 228.589Z" fill="#3D8AAA"/>
<path d="M266.549 241.117C266.549 241.373 266.549 241.885 266.549 242.14C251.05 238.049 239.426 238.305 233.226 242.652C229.093 245.464 224.702 247.254 219.794 248.277C217.986 248.533 216.177 248.788 214.369 248.788C213.078 248.533 212.561 248.277 212.561 248.277C212.561 248.277 211.786 246.998 211.011 245.976C218.761 246.487 225.477 244.441 231.418 240.35C235.551 237.538 241.234 236.259 248.725 236.259C253.633 236.515 259.575 237.282 265.774 238.816C266.291 239.583 266.549 240.35 266.549 241.117Z" fill="#3D8AAA"/>
<path d="M224.702 9.71608L224.185 9.97177C223.927 9.97177 223.41 9.97177 223.152 9.97177C223.152 9.71607 223.152 9.71608 222.894 9.46039L221.602 5.62497L221.344 4.60219C220.569 3.32372 219.535 2.55664 218.244 2.55664H220.31C220.569 2.55664 221.085 2.55664 221.344 2.55664C222.635 2.81233 223.41 3.57941 223.927 4.85788L224.702 7.15913L225.218 8.69329C225.477 8.94899 225.218 9.71608 224.702 9.71608Z" fill="#F4A68C"/>
<path d="M226.252 7.92589C225.993 8.18158 225.735 8.43727 225.477 8.69297L224.96 7.15881L223.927 4.60186C223.41 3.32339 222.377 2.55631 221.344 2.30061L222.894 2.04492C223.668 2.04492 224.702 2.55631 224.96 3.32339L226.51 6.64742C226.51 7.1588 226.51 7.4145 226.252 7.92589Z" fill="#F4A68C"/>
<path d="M226.768 18.4084C225.218 14.8287 220.569 12.0161 217.986 10.9933C216.952 10.4819 216.177 9.71482 215.661 8.43635L215.402 7.41356C215.402 7.15787 215.661 6.64648 215.919 6.64648H218.76L220.052 9.97051C220.569 10.4819 221.085 10.7376 221.86 10.7376C222.119 10.7376 222.377 10.7376 222.377 10.7376C222.894 10.4819 223.152 10.2262 223.152 9.71482C223.41 9.71482 223.927 9.71482 224.185 9.71482L224.702 9.45913C224.702 9.45913 224.702 9.45913 224.96 9.45913C225.477 10.9933 226.51 14.3173 226.768 18.4084Z" fill="#F4A68C"/>
<path d="M292.381 39.8881C292.381 39.8881 292.381 38.6096 292.381 37.0754C292.381 34.0071 293.414 30.9388 295.223 28.3818C298.322 24.035 303.489 18.1541 305.555 15.3414C306.072 14.5743 307.105 14.5743 307.88 15.3414C308.397 15.8528 308.397 16.6199 308.139 17.387L300.647 28.3818L309.43 16.6199C309.947 16.1085 310.722 15.8528 311.497 16.3642C312.013 16.8756 312.272 17.6427 311.755 18.1541L304.78 29.1489L311.755 19.9439C312.272 19.4325 313.047 19.1768 313.563 19.6882C314.08 19.9439 314.338 20.711 313.821 21.4781L307.105 32.2172L313.047 23.5236C313.563 23.0123 314.338 22.7566 314.855 23.2679C315.371 23.7793 315.63 24.2907 315.113 25.0578C312.788 28.8932 306.33 40.6551 301.939 45.5133L292.381 39.8881Z" fill="#F29981"/>
<path d="M245.626 116.85C245.626 117.106 245.626 117.362 245.367 117.618C245.109 118.385 244.334 119.919 243.042 121.453C242.526 122.22 242.009 122.476 241.234 122.731C240.459 122.987 239.426 123.243 238.393 123.499C236.584 124.01 234.776 124.521 232.968 124.777C230.385 125.288 227.802 125.8 225.735 126.055C223.927 126.311 222.119 126.055 220.31 125.288L215.661 122.987L215.144 122.731C215.402 122.22 215.661 121.453 215.402 120.686C215.402 119.152 214.627 117.618 213.078 116.083C213.594 115.828 214.627 114.805 213.852 112.759V112.504C213.852 112.504 213.852 112.504 213.852 112.248C213.852 112.248 213.852 112.248 213.852 111.992C213.852 111.737 213.594 111.737 213.594 111.481C213.594 111.481 213.594 111.225 213.336 111.225C213.336 111.225 213.336 111.225 213.336 110.969C213.078 110.458 212.561 109.691 212.303 109.18C212.303 109.18 212.303 109.18 212.044 108.924C212.044 108.924 212.044 108.924 211.786 108.668C211.786 108.668 211.786 108.668 211.528 108.413C211.528 108.413 211.528 108.413 211.269 108.157C211.269 108.157 211.269 108.157 211.269 107.901C211.269 107.901 211.269 107.645 211.011 107.645C211.011 107.39 210.753 107.39 210.753 107.134C210.753 107.134 210.753 107.134 210.494 106.878C210.494 106.623 210.236 106.623 210.236 106.367C210.236 106.367 210.236 106.367 210.236 106.111C209.719 105.344 209.461 104.577 209.719 103.81V103.554C209.719 103.299 209.978 103.043 209.978 103.043C209.978 103.043 209.978 102.787 210.236 102.787C210.494 102.276 210.753 101.765 211.011 101.509C211.011 101.253 211.269 101.253 211.269 100.997C211.269 100.742 211.528 100.742 211.528 100.486C211.528 100.23 211.786 99.9746 212.044 99.7189C212.044 99.7189 212.044 99.4633 212.303 99.4633C212.303 99.2076 212.561 99.2076 212.561 98.9519C212.819 98.6962 212.819 98.4405 213.078 98.1848C213.594 97.4177 214.111 96.6506 214.627 95.8835C214.886 95.6278 214.886 95.6278 215.144 95.3721C215.661 94.6051 216.177 94.0937 216.952 93.3266C217.211 93.0709 217.211 93.0709 217.469 92.8152C217.727 92.5595 217.986 92.0481 218.502 91.7924C218.761 91.5367 219.019 91.281 219.019 91.281L219.277 91.0254C219.535 90.7697 219.794 90.7696 219.794 90.514C221.085 89.4912 222.377 88.4684 223.669 87.4456C223.669 87.4456 223.927 87.4456 223.927 87.1899C224.444 87.7013 224.96 88.2127 225.477 88.7241C226.252 89.4912 226.768 90.0026 227.543 90.514C227.802 90.7696 228.06 91.0254 228.06 91.0254C235.551 98.4405 239.684 104.066 242.267 107.901C244.592 111.481 245.367 113.782 245.884 114.805C245.626 116.339 245.626 116.595 245.626 116.85Z" fill="#F4A68C"/>
<path d="M210.494 134.239C210.494 130.659 210.494 125.801 210.494 123.756C212.044 124.267 213.594 124.011 214.627 122.988C214.886 122.733 214.886 122.733 214.886 122.477L215.402 122.733C213.853 126.824 212.044 130.659 210.494 134.239Z" fill="#F4A68C"/>
<path d="M223.927 101.509C224.96 102.277 225.735 103.044 225.477 103.299C225.218 103.555 224.185 103.299 223.152 102.532C222.119 101.765 221.344 100.998 221.602 100.742C221.602 100.487 222.635 100.742 223.927 101.509Z" fill="#6B2F1C"/>
<path d="M246.142 81.5652C246.142 84.1221 244.076 98.9524 242.009 108.924C241.234 111.993 240.718 115.317 239.943 118.385C239.426 120.175 239.168 121.965 238.651 123.755C238.134 125.545 237.618 127.59 237.101 129.38C236.584 130.914 236.326 132.448 235.81 133.727C235.551 134.238 235.551 134.75 235.293 135.261C235.293 135.261 235.293 135.261 235.293 135.517C235.035 136.028 235.035 136.284 235.035 136.795C235.035 137.051 234.776 137.306 234.776 137.562C234.776 137.818 234.518 138.329 234.518 138.585C234.518 138.841 234.518 138.841 234.26 139.096C234.001 140.119 233.485 141.142 233.226 142.42C233.226 142.676 232.968 142.932 232.968 143.187C232.71 143.699 232.71 144.21 232.451 144.722C232.451 144.977 232.451 144.977 232.193 145.233V145.489C232.193 145.744 232.193 145.744 231.935 146C231.418 147.79 230.643 149.324 230.127 151.114C230.127 151.37 229.868 151.625 229.868 151.881C229.868 152.137 229.868 152.137 229.61 152.392C229.352 152.648 229.352 152.904 229.352 153.16C229.093 153.671 228.835 154.438 228.577 154.949C228.318 155.205 228.318 155.716 228.06 155.972C228.06 155.972 228.06 155.972 228.06 156.228C228.06 156.484 227.802 156.484 227.802 156.739C227.802 156.995 227.543 156.995 227.543 157.251C227.285 157.762 227.285 158.018 227.027 158.529C227.027 158.785 226.768 158.785 226.768 159.041C226.768 159.296 226.51 159.552 226.51 159.808C226.51 159.808 226.51 160.063 226.252 160.063C225.993 160.83 225.477 161.597 225.219 162.62C225.219 162.876 224.96 162.876 224.96 163.132C224.96 163.387 224.702 163.387 224.702 163.643C223.41 165.944 220.569 167.223 217.469 167.223H217.211H216.952H216.694C216.436 167.223 216.436 167.223 216.436 167.223C216.177 167.223 216.177 167.223 215.919 167.223C215.661 167.223 215.402 167.223 215.144 167.223H214.886H214.627H214.369C214.111 167.223 214.111 167.223 214.111 167.223H213.852C213.594 167.223 213.594 167.223 213.336 167.223H213.078H212.819H212.561C212.303 167.223 212.303 167.223 212.303 167.223C212.044 167.223 211.786 166.967 211.269 166.711C211.269 166.711 211.269 166.711 211.011 166.711C210.753 166.711 210.753 166.711 210.753 166.711C210.494 166.711 210.494 166.711 210.494 166.456H210.236C209.978 166.456 209.978 166.2 209.719 166.2C209.719 166.2 209.719 166.2 209.461 166.2C209.461 166.2 209.203 166.2 209.203 165.944C209.203 165.944 208.944 165.944 208.944 165.689C208.944 165.689 208.686 165.689 208.686 165.433C208.686 165.433 208.428 165.433 208.428 165.177C208.428 165.177 208.169 165.177 208.169 164.921C208.169 164.921 207.911 164.921 207.911 164.666L207.653 164.41L207.395 164.154L207.136 163.899C207.136 163.899 207.136 163.899 206.878 163.643C206.878 163.643 206.878 163.643 206.62 163.387C206.62 163.387 206.62 163.132 206.361 163.132C206.361 163.132 206.361 162.876 206.103 162.876C206.103 162.876 206.103 162.876 205.845 162.62L205.586 162.365C205.586 162.365 205.586 162.109 205.328 162.109C205.328 162.109 205.328 161.853 205.07 161.853C205.07 161.853 205.07 161.597 204.811 161.597C204.811 161.597 204.811 161.342 204.553 161.342C204.553 161.342 204.553 161.086 204.295 161.086C204.295 161.086 204.295 160.83 204.036 160.83C204.036 160.575 203.778 160.575 203.778 160.319V160.063V159.808V159.552V159.296V159.041V158.785V158.529V158.273V158.018C203.778 158.018 203.778 158.018 203.778 157.762C203.778 157.762 203.778 157.762 203.778 157.506C203.778 157.251 203.778 156.995 203.52 156.739V156.484V156.228C203.52 155.972 203.52 155.972 203.52 155.972C203.52 155.972 203.52 155.972 203.52 155.716C203.52 155.716 203.52 155.716 203.52 155.461C203.52 155.461 203.52 155.461 203.52 155.205C203.52 155.205 203.52 155.205 203.52 154.949C203.52 154.949 203.52 154.949 203.52 154.694C203.52 154.438 203.52 154.438 203.52 154.182C203.52 153.671 203.52 152.904 203.52 152.137C204.036 147.79 206.361 141.653 209.461 134.238C211.011 130.658 212.561 126.823 214.369 122.988C214.627 122.221 215.144 121.453 215.402 120.686C218.761 113.271 222.119 105.6 224.444 98.441V98.1853C225.218 96.1397 225.993 94.0942 226.51 92.0486C227.543 88.4689 228.318 85.4006 228.318 82.5879C222.635 66.7349 221.86 45.2566 215.144 21.477L225.735 18.4087C225.735 18.4087 225.993 18.9201 226.252 19.6872C230.127 28.1251 246.142 77.2183 246.142 81.5652Z" fill="#F7B69A"/>
<path d="M226.768 18.4095L216.177 21.4778C216.177 21.4778 214.369 15.3412 212.303 10.9944C211.786 9.71592 211.528 8.69314 211.269 7.67036C210.753 5.11342 212.561 2.81218 214.886 2.55648L216.952 2.30078H217.469C217.727 2.30078 217.986 2.30078 217.986 2.30078C219.277 2.30078 220.569 3.06787 221.085 4.34634L221.344 5.36911L222.635 9.20453C222.635 9.46022 222.894 9.46022 222.894 9.71592C222.894 10.2273 222.635 10.483 222.119 10.7387C221.86 10.7387 221.602 10.7387 221.602 10.7387C220.827 10.7387 220.31 10.483 219.794 9.97161L218.502 6.64758H215.661C215.402 6.64758 215.144 6.90328 215.144 7.41466L215.402 8.43745C215.661 9.46022 216.436 10.483 217.727 10.9944C220.569 12.2729 225.218 14.8298 226.768 18.4095Z" fill="#F7B69A"/>
<path d="M214.886 122.733C214.886 122.988 214.627 122.988 214.627 123.244C213.852 124.267 212.302 124.267 210.494 124.011C209.461 123.755 208.169 122.988 206.878 122.221C206.619 121.965 206.619 121.965 206.361 121.71C203.52 119.153 202.486 115.829 204.036 114.039C205.586 112.249 209.203 113.016 212.044 115.573C212.302 115.829 212.561 116.084 212.819 116.34C214.111 117.874 214.886 119.409 215.144 120.943C215.402 121.454 215.144 122.221 214.886 122.733Z" fill="#F4A68C"/>
<path d="M213.852 122.733C213.594 122.477 213.594 122.477 213.852 122.733C214.369 121.71 214.369 120.687 214.111 119.664C213.852 118.386 212.819 117.107 211.786 116.084C210.753 115.062 209.203 114.295 208.169 114.039C206.878 113.783 205.845 114.039 205.328 114.55H205.07V114.295C205.845 113.528 206.878 113.272 208.169 113.528C209.461 113.783 210.753 114.55 212.044 115.573C213.336 116.596 214.111 117.874 214.369 119.153C214.627 120.687 214.627 121.965 213.852 122.733Z" fill="#F28879"/>
<path d="M208.169 118.385C208.169 117.874 208.169 117.618 208.686 117.362C209.978 116.595 212.819 117.106 212.819 117.106C212.819 117.106 213.077 117.106 212.819 117.362C212.819 117.362 212.819 117.618 212.561 117.362C212.561 117.362 209.719 116.851 208.428 117.618C208.686 117.618 208.428 117.874 208.169 118.385Z" fill="#F28879"/>
<path d="M223.41 87.9588C223.41 88.2145 223.41 88.2145 223.41 87.9588C214.627 93.8398 211.011 101.255 209.719 104.323C209.461 105.09 209.461 106.113 210.236 106.88C211.269 108.159 213.336 110.716 213.852 112.505C214.369 114.551 213.594 115.574 213.077 116.085C212.819 115.829 212.561 115.574 212.302 115.318C209.461 112.761 205.845 111.994 204.295 113.784C202.745 115.574 203.778 119.153 206.619 121.455C206.878 121.71 206.878 121.71 207.136 121.966C204.295 122.222 197.578 119.665 193.187 114.04C188.796 108.414 185.954 98.1866 195.77 87.1917C203.778 77.9867 213.852 80.7994 220.827 84.8905C221.86 85.4019 222.635 86.1689 223.41 86.6803C223.927 86.936 223.927 87.7031 223.41 87.9588Z" fill="#DB704F"/>
<path d="M225.735 98.441V98.6968C224.444 97.4183 223.669 96.6512 223.41 96.6512V96.3955H223.669C223.669 96.3955 224.444 97.1626 225.735 98.441Z" fill="#F28879"/>
<path d="M217.727 103.3C217.469 103.3 217.211 103.044 217.211 102.789C217.986 99.209 220.569 97.1634 220.827 97.1634C221.085 96.9078 221.344 97.1634 221.344 97.1634C221.602 97.4191 221.344 97.6748 221.344 97.6748C221.344 97.6748 218.76 99.7204 217.986 102.789C218.244 103.3 217.986 103.3 217.727 103.3Z" fill="#A24029"/>
<path d="M227.543 91.7933C227.802 92.049 227.802 92.3047 227.543 92.5604C226.768 93.0718 225.735 93.8389 224.702 94.8617C224.443 95.1174 224.443 95.1174 224.185 95.1174C223.927 94.8617 223.927 94.606 223.927 94.3503C224.96 93.0718 225.993 92.3047 227.027 91.7933C227.285 91.5376 227.543 91.5376 227.543 91.7933Z" fill="#A24029"/>
<path d="M222.119 184.354C216.952 185.377 211.528 181.797 208.17 175.916C207.136 174.126 206.361 172.081 205.586 169.779C205.328 169.268 205.328 168.501 205.07 167.99C204.295 164.41 204.295 160.83 204.811 157.506V157.762V158.018V158.273C204.811 158.529 205.07 158.785 205.07 158.785C205.07 159.04 205.328 159.296 205.328 159.552V159.807C205.328 159.807 205.328 160.063 205.586 160.063C205.586 160.063 205.586 160.319 205.845 160.319C205.845 160.319 205.845 160.574 206.103 160.574C206.103 160.574 206.103 160.83 206.361 160.83C206.361 161.086 206.62 161.086 206.62 161.342C206.878 161.597 206.878 161.597 206.878 161.853C206.878 161.853 206.878 162.109 207.136 162.109C207.136 162.109 207.136 162.109 207.136 162.364C207.136 162.364 207.136 162.364 207.136 162.62C207.395 162.876 207.395 162.876 207.395 162.876L207.653 163.131L207.911 163.387C207.911 163.387 207.911 163.387 208.17 163.643C208.17 163.643 208.17 163.643 208.428 163.899C208.686 164.154 208.686 164.154 208.686 164.154C208.686 164.154 208.686 164.154 208.945 164.41C208.945 164.41 208.945 164.41 209.203 164.666C209.203 164.666 209.203 164.666 209.461 164.921C209.461 164.921 209.461 164.921 209.719 164.921C209.719 164.921 209.719 164.921 209.978 164.921C210.494 165.177 210.494 165.177 210.494 165.433C210.494 165.433 210.494 165.433 210.753 165.433C210.753 165.433 211.011 165.433 211.011 165.688C211.011 165.688 211.011 165.688 211.269 165.688C211.528 165.688 211.528 165.688 211.528 165.688C211.786 165.688 211.786 165.688 211.786 165.944C212.044 165.944 212.044 166.2 212.303 166.2C212.303 166.2 212.303 166.2 212.561 166.2C212.561 166.2 212.819 166.2 212.819 166.455C212.819 166.455 212.819 166.455 213.078 166.455H213.336C213.336 166.455 213.336 166.455 213.594 166.455C213.594 166.455 213.594 166.455 213.853 166.455H214.111H214.369H214.628H214.886H215.144C215.144 166.455 215.144 166.455 215.402 166.455C215.661 166.455 215.661 166.455 215.661 166.455H215.919H216.177H216.436H216.694C216.694 166.455 216.694 166.455 216.952 166.455C216.952 166.455 216.952 166.455 217.211 166.455C217.469 166.455 217.469 166.455 217.469 166.455C217.727 166.455 217.727 166.455 217.727 166.455H217.986H218.244C218.761 166.455 219.019 166.455 219.277 166.455H219.536H219.794H220.052H220.311C220.569 166.455 220.569 166.455 220.827 166.455H221.085H221.344C221.602 166.455 221.602 166.455 221.86 166.2H222.119H222.377C223.669 165.688 224.702 164.666 225.477 163.643C225.477 163.387 225.735 163.387 225.735 163.131C225.735 162.876 225.993 162.876 225.993 162.62C226.252 161.853 226.768 161.086 227.027 160.063C227.027 160.063 227.027 159.807 227.285 159.807C227.285 159.552 227.543 159.296 227.543 159.04C227.543 158.785 227.802 158.785 227.802 158.529C228.06 158.018 228.06 157.762 228.318 157.25C228.318 156.995 228.577 156.995 228.577 156.739C228.577 156.483 228.835 156.483 228.835 156.228C228.835 156.228 228.835 156.228 228.835 155.972C229.093 155.716 229.093 155.205 229.352 154.949C229.61 155.461 229.868 155.716 229.868 156.228C229.868 156.228 229.868 156.228 229.868 156.483C230.902 158.529 231.418 160.574 231.935 162.876C233.485 173.104 229.352 182.82 222.119 184.354Z" fill="#F4A68C"/>
<path d="M222.119 184.355C216.694 185.378 211.011 181.542 207.653 174.894C211.269 180.775 216.436 184.099 221.602 183.076C228.835 181.542 233.226 171.57 230.902 160.831V160.575C231.16 161.342 231.16 161.854 231.418 162.621C233.485 173.104 229.352 182.821 222.119 184.355Z" fill="#F28879"/>
<path d="M238.134 155.717C234.776 157.507 232.451 155.461 229.868 151.881L229.61 151.626C231.418 147.023 232.968 141.909 234.776 136.795C235.035 137.051 235.293 137.307 235.81 137.563C237.101 138.585 238.393 140.119 239.426 141.909C242.526 147.535 242.526 153.416 238.134 155.717Z" fill="#F4A68C"/>
<path d="M228.835 244.186C228.835 243.931 243.817 221.941 246.917 213.759C246.917 213.759 246.917 213.759 247.176 213.759C247.176 213.759 247.176 213.759 247.176 214.014C244.076 222.197 229.093 243.931 228.835 244.186Z" fill="#AD8A82"/>
<path d="M224.444 247.767C224.185 247.767 224.185 247.767 224.444 247.767C224.185 247.511 224.185 247.511 224.444 247.767C224.444 247.511 228.318 246.488 230.127 244.698C230.127 244.698 230.127 244.698 230.385 244.698C230.385 244.698 230.385 244.698 230.385 244.954C228.318 246.744 224.444 247.767 224.444 247.767Z" fill="#AD8A82"/>
<path d="M230.902 243.676C230.902 243.42 230.902 243.42 230.902 243.676C230.902 243.42 239.943 234.471 243.043 228.59C243.043 228.59 243.043 228.59 243.301 228.59C243.301 228.59 243.301 228.59 243.301 228.846C240.201 234.471 231.16 243.42 230.902 243.676C231.16 243.676 231.16 243.42 230.902 243.676Z" fill="#AD8A82"/>
<path d="M266.033 239.329C263.708 236.005 259.575 234.982 259.575 234.982C259.575 234.726 263.708 235.749 266.033 239.329C266.033 239.073 266.033 239.073 266.033 239.329Z" fill="#AD8A82"/>
<path d="M213.336 243.676C213.336 243.42 213.336 243.42 213.336 243.676C214.369 236.26 213.336 226.288 213.336 226.033C213.594 226.033 214.369 236.005 213.336 243.676Z" fill="#AD8A82"/>
<path d="M325.963 342.885C321.313 362.317 307.364 396.069 307.364 396.069C307.364 396.069 309.43 400.672 309.689 402.206C309.43 403.484 303.231 420.616 302.456 422.406C301.164 423.428 298.581 423.428 298.581 423.428L298.839 422.15L294.706 420.36C294.706 420.36 289.281 422.661 286.698 421.894C286.182 421.894 285.665 421.383 284.89 421.127C283.857 420.616 282.824 419.849 281.79 419.082C280.757 418.314 279.465 417.292 278.432 416.525C276.366 414.735 274.557 412.945 274.557 412.178C274.557 410.644 276.366 404.251 278.949 401.694C281.532 395.046 289.798 357.459 290.573 344.419C283.857 336.492 272.749 329.844 255.183 311.179C253.634 309.644 252.084 307.855 250.534 306.32C250.275 306.065 250.017 305.553 249.5 305.298C248.467 304.275 247.692 303.508 246.917 302.485C246.659 302.229 246.659 302.229 246.401 301.974C245.884 301.206 245.109 300.695 244.592 299.928C244.334 299.672 244.076 299.417 244.076 299.161C242.526 297.371 240.976 295.837 239.426 294.047L239.168 293.791C237.618 292.257 236.326 290.723 235.035 289.189C234.776 288.933 234.518 288.677 234.518 288.422C234.26 288.166 234.001 287.91 234.001 287.655C233.226 286.632 232.451 285.865 231.677 285.098C231.418 284.842 231.418 284.842 231.16 284.586C231.16 284.331 230.902 284.331 230.902 284.075C229.61 282.541 228.577 280.495 227.802 278.45C225.219 269.756 224.444 259.273 224.185 252.369C224.185 252.113 224.185 251.602 224.185 251.346C224.185 249.812 224.185 248.533 224.185 247.511C225.219 247.255 226.51 246.744 227.543 246.232C230.902 247.766 231.16 248.022 231.935 248.022C232.193 248.022 233.485 247.766 235.035 246.999C236.326 246.744 237.876 246.232 239.426 245.721C243.559 244.442 248.726 242.908 253.375 242.141C256.733 243.164 262.416 242.908 262.416 242.908C262.416 242.908 262.416 242.908 262.416 243.164C262.416 243.42 262.675 243.42 262.675 243.42C262.933 243.675 262.933 243.931 263.191 244.187C263.191 244.442 263.45 244.698 263.45 244.954C263.708 245.465 263.966 245.977 264.225 246.488C267.841 253.392 311.755 309.9 324.154 331.634C326.221 335.214 326.738 339.049 325.963 342.885Z" fill="#D8A471"/>
<path d="M237.101 440.816C237.101 440.816 238.651 446.697 238.393 448.231C237.618 449.254 234.26 453.345 232.968 453.089H232.71C231.16 452.578 228.06 451.043 228.06 451.043C228.06 451.043 219.019 451.555 217.211 451.299C215.919 450.532 214.111 449.765 214.111 449.765V452.578C209.203 449.765 208.944 445.93 208.944 444.14C209.203 442.861 210.753 440.816 210.753 440.816C210.753 440.816 209.978 440.304 209.719 439.026C209.719 438.77 209.719 438.514 209.719 438.003C210.753 432.889 215.919 403.996 216.952 388.91C216.952 358.738 212.044 297.883 212.044 297.883C212.044 297.883 212.044 297.627 211.786 297.116C211.269 293.28 208.944 278.194 209.461 269.245C210.236 263.875 211.269 256.716 212.044 252.369C212.044 252.113 212.044 251.602 212.303 251.346C212.303 250.835 212.303 250.579 212.561 250.324C212.819 249.045 212.819 248.278 212.819 248.278C212.819 248.278 216.177 250.324 224.702 247.767C224.702 248.789 224.702 250.068 224.702 251.602C224.702 251.858 224.702 252.369 224.702 252.625C224.96 259.529 225.477 270.012 228.318 278.706C228.835 280.751 229.868 282.541 231.418 284.331C231.418 284.587 231.676 284.587 231.676 284.842C231.935 285.098 231.935 285.098 232.193 285.354C232.968 286.121 233.743 287.144 234.518 287.911C234.776 288.166 235.035 288.422 235.035 288.678C235.293 288.933 235.551 289.189 235.551 289.445C236.843 290.979 238.134 292.513 239.684 294.047L239.943 294.303C241.493 295.837 243.042 297.627 244.592 299.417C244.851 299.673 245.109 299.928 245.109 300.184C245.626 300.695 246.401 301.462 246.917 302.229C247.176 302.485 247.176 302.485 247.434 302.741C248.209 303.764 249.242 304.531 250.017 305.553C250.275 305.809 250.534 306.321 251.05 306.576C252.6 308.11 254.15 309.9 255.7 311.434C257.508 390.444 237.101 440.816 237.101 440.816Z" fill="#D8A471"/>
<path opacity="0.65" d="M237.101 440.816C250.275 358.227 245.884 312.969 244.076 305.042C242.268 302.23 234.001 287.655 234.001 287.655C239.426 293.792 247.176 301.974 255.442 310.668C257.508 390.444 237.101 440.816 237.101 440.816Z" fill="#D3895F"/>
<path d="M208.686 444.14C208.686 443.884 208.686 443.884 208.686 444.14C209.978 440.304 212.303 438.003 212.303 438.003C212.303 438.003 212.303 438.003 212.561 438.003C212.561 438.003 212.561 438.003 212.561 438.259C212.561 438.003 210.236 440.304 208.686 444.14Z" fill="#D8744C"/>
<path d="M240.201 511.643L207.653 490.676V487.096C207.653 485.818 208.17 484.539 208.944 483.261C209.719 481.982 211.011 480.448 212.561 478.658C213.336 471.499 214.111 452.322 214.111 452.322V449.509C214.111 449.509 215.919 450.276 217.211 451.043C219.019 451.555 228.06 450.788 228.06 450.788C228.06 450.788 231.16 452.578 232.71 452.833L227.027 481.727C227.027 481.727 243.559 502.694 244.851 506.529C245.626 508.83 244.334 510.364 243.301 511.387C242.268 512.154 240.976 512.154 240.201 511.643Z" fill="#A25739"/>
<path d="M228.835 456.158C229.61 456.158 231.16 456.413 232.193 456.413C232.71 456.413 233.226 457.18 233.226 457.692C232.451 462.806 228.577 480.704 228.577 480.704C228.577 480.704 237.36 494.768 238.393 496.813C236.068 495.279 228.577 486.33 225.735 483.006C224.96 482.239 224.702 481.216 224.96 479.937C225.477 475.59 226.768 464.34 228.06 456.925C227.802 456.669 228.318 456.158 228.835 456.158Z" fill="#B25E40"/>
<path d="M217.211 451.043L211.269 448.231C211.269 448.231 211.269 448.231 211.269 447.975C211.269 447.975 211.269 447.975 211.528 447.975L217.211 451.043Z" fill="#D8744C"/>
<path d="M235.293 299.673C235.293 299.673 224.96 299.673 217.986 298.906C216.177 298.65 214.628 297.883 213.336 296.86C212.044 295.582 211.269 294.047 211.011 292.513C210.494 287.399 209.461 281.518 209.461 281.263C209.461 281.263 210.494 287.399 211.011 292.513C211.528 295.837 214.111 298.65 217.727 298.906C224.96 299.417 235.293 299.673 235.293 299.673Z" fill="#D8744C"/>
<path d="M298.581 422.15C292.64 419.593 289.023 416.525 289.023 416.525C289.023 416.525 289.023 416.525 289.023 416.269C289.023 416.269 289.023 416.269 289.281 416.269C289.281 416.525 292.898 419.337 298.581 422.15C298.839 422.15 298.839 421.894 298.581 422.15C298.839 422.15 298.839 422.15 298.581 422.15Z" fill="#D8744C"/>
<path d="M310.722 479.937C309.947 481.471 307.88 481.727 306.589 480.96L271.199 461.015L270.683 455.134C270.683 454.112 270.941 452.833 271.458 451.81C272.491 450.276 274.299 447.719 276.107 445.674C277.399 435.19 278.174 416.013 278.174 416.013C281.015 418.57 284.89 421.127 286.44 421.638C289.023 422.406 294.448 420.104 294.448 420.104L298.581 421.894L298.323 423.173C298.323 423.173 294.448 438.514 293.415 451.299C297.031 460.504 305.297 468.942 309.947 473.033C311.755 475.079 312.013 477.635 310.722 479.937Z" fill="#A25739"/>
<path d="M308.139 406.297L309.43 402.206C308.655 398.626 304.522 390.444 304.522 390.444C304.522 390.444 304.522 390.444 304.522 390.188C304.522 390.188 304.522 390.188 304.781 390.188C304.781 390.188 309.172 398.37 309.689 401.95C309.689 402.206 308.397 406.297 308.139 406.297C308.397 406.297 308.397 406.297 308.139 406.297Z" fill="#D8744C"/>
<path d="M291.348 405.274C291.348 405.018 294.706 392.489 298.064 377.659C294.706 392.489 291.606 405.018 291.348 405.274Z" fill="#D8744C"/>
<path d="M307.105 342.117C307.364 338.538 307.622 335.725 307.622 333.935C297.289 318.593 257.25 272.057 256.733 271.546C256.733 271.546 256.733 271.546 256.733 271.29C256.733 271.29 256.733 271.29 256.992 271.29C257.508 271.801 297.548 318.338 307.88 333.679C307.622 335.981 307.622 338.538 307.105 342.117Z" fill="#D8744C"/>
<path d="M263.191 244.442C261.641 245.209 259.833 245.976 257.767 246.488C257.508 246.488 256.992 246.743 256.733 246.743C251.309 248.278 245.109 249.556 239.168 250.323C238.909 250.323 238.393 250.323 238.134 250.323C232.968 250.835 228.06 251.346 224.185 251.346C220.827 251.346 217.986 251.346 215.919 251.346C215.661 251.346 215.144 251.346 214.886 251.346C213.594 251.346 212.561 251.346 212.044 251.09C212.044 250.579 212.044 250.323 212.303 250.067C212.561 248.789 212.561 248.022 212.561 248.022C212.561 248.022 212.561 248.022 212.819 248.022C213.078 248.022 213.336 248.278 213.594 248.278C213.594 248.278 213.594 248.278 213.853 248.278C214.111 248.278 214.111 248.278 214.111 248.278H214.369H214.627C214.886 248.278 214.886 248.278 215.144 248.278H215.402C215.661 248.278 215.919 248.278 215.919 248.278C216.177 248.278 216.436 248.278 216.436 248.278H216.694C218.502 248.278 221.085 248.022 224.702 246.999C225.735 246.743 227.027 246.232 228.06 245.721C231.418 247.255 231.676 247.511 232.451 247.511C232.71 247.511 234.776 246.743 237.876 245.976C238.134 245.976 238.393 245.721 238.909 245.721C239.426 245.721 239.684 245.465 240.201 245.465C244.334 244.186 249.5 242.652 254.15 241.885C254.667 242.141 255.442 242.141 256.217 242.397C256.475 242.397 256.992 242.397 257.508 242.652C260.35 242.908 263.191 242.908 263.191 242.908C263.191 242.908 263.191 242.908 263.191 243.164C263.191 243.419 263.45 243.419 263.45 243.419C262.933 243.931 262.933 244.187 263.191 244.442Z" fill="#D8744C"/>
<path d="M257.767 246.488C257.508 246.488 256.992 246.744 256.733 246.744C256.733 245.21 255.958 243.676 255.442 242.653C255.7 242.653 256.217 242.653 256.733 242.909C256.992 243.931 257.508 245.21 257.767 246.488Z" fill="#D3895F"/>
<path d="M239.168 250.323C238.909 250.323 238.393 250.323 238.134 250.323C238.393 248.789 237.876 247.255 237.359 246.232C237.618 246.232 237.876 245.977 238.393 245.977C238.909 247.255 239.168 248.789 239.168 250.323Z" fill="#D3895F"/>
<path d="M215.919 251.346C215.661 251.346 215.144 251.346 214.886 251.346C214.886 250.324 214.886 249.557 214.886 248.79C215.144 248.79 215.402 248.79 215.919 248.79C215.661 249.812 215.661 250.579 215.919 251.346Z" fill="#D3895F"/>
<path d="M263.45 245.21C256.475 249.045 246.659 250.835 237.618 251.858C232.71 252.369 228.06 252.625 224.185 252.625C217.986 252.625 213.078 252.625 211.786 252.369C211.786 252.113 211.786 251.602 212.044 251.346C212.561 251.346 213.594 251.346 214.886 251.602C215.144 251.602 215.661 251.602 215.919 251.602C218.244 251.602 221.086 251.602 224.185 251.602C228.06 251.602 232.968 251.346 238.135 250.579C238.393 250.579 238.909 250.579 239.168 250.579C245.109 249.812 251.309 248.789 256.733 246.999C256.992 246.999 257.508 246.744 257.767 246.744C259.833 246.232 261.641 245.465 263.191 244.698C263.191 244.698 263.45 244.954 263.45 245.21Z" fill="#D3895F"/>
<path d="M302.456 45.2568C302.456 45.2568 295.998 86.9349 283.34 107.135C270.424 122.988 254.15 139.608 247.692 146C247.176 146.512 246.659 147.023 246.401 147.279C242.784 140.886 239.168 136.028 235.81 133.471C235.81 133.216 235.81 132.96 236.068 132.704C236.068 132.449 236.068 132.449 236.326 132.193C236.326 131.937 236.326 131.681 236.584 131.681C236.584 131.426 236.584 131.17 236.843 130.914C236.843 130.659 237.101 130.147 237.101 129.892C237.101 129.636 237.359 129.38 237.359 129.124V128.869C237.876 127.079 238.393 125.033 238.909 123.244C239.943 122.988 240.976 122.732 241.751 122.476C242.526 122.221 243.042 121.709 243.559 121.198C244.851 119.408 245.367 118.13 245.884 117.363C245.884 117.107 246.142 116.851 246.142 116.595C246.142 116.595 264.999 102.532 269.907 96.1399C272.749 83.6109 283.082 74.1502 292.898 39.8872L302.456 45.2568Z" fill="#F4A68C"/>
<path d="M292.381 39.8871C292.381 39.8871 293.673 34.7732 295.481 31.4492C295.739 30.9378 296.514 30.4264 297.031 30.1707C299.356 29.6594 301.422 29.148 302.456 28.8923C303.23 28.6366 303.747 28.8923 304.264 29.6594L306.847 32.9834C307.105 33.2391 307.105 33.7505 306.847 33.7505C306.072 34.5175 305.039 34.2619 304.264 33.7505L302.456 31.9606L298.581 33.7505C298.581 33.7505 303.489 39.12 302.197 45.2567L292.381 39.8871Z" fill="#F4A68C"/>
<path d="M255.183 310.923C253.375 309.134 251.825 307.599 250.534 306.065C250.275 305.81 250.017 305.554 249.759 305.298C248.726 304.275 247.951 303.253 246.917 302.486L246.401 301.974C245.884 301.207 245.109 300.696 244.592 299.929C244.334 299.673 244.334 299.673 244.076 299.417L243.817 299.162C242.009 297.372 240.459 295.582 239.168 294.048L238.909 293.792C237.36 292.258 236.068 290.724 234.776 289.189C234.518 288.934 234.26 288.678 234.26 288.422C234.001 288.167 233.743 287.911 233.743 287.655C232.968 286.633 232.193 285.865 231.418 285.098L231.16 284.843L230.902 284.587C230.902 284.331 230.643 284.331 230.643 284.076C229.352 282.541 228.318 280.496 227.543 278.45C225.219 270.524 224.444 261.063 224.185 254.415C224.444 260.807 225.219 270.268 227.543 278.195C228.06 280.24 229.093 282.03 230.643 283.82C230.643 284.076 230.902 284.076 230.902 284.331L231.16 284.587L231.418 284.843C232.193 285.61 232.71 286.377 233.743 287.4C234.001 287.655 234.26 287.911 234.26 288.167C234.518 288.422 234.776 288.678 234.776 288.934C236.068 290.212 237.36 291.746 238.909 293.536L239.168 293.792C240.718 295.326 242.268 297.116 243.817 298.906L244.076 299.162C244.334 299.417 244.334 299.417 244.592 299.673C245.109 300.184 245.884 300.951 246.401 301.718L246.917 302.23C247.692 303.253 248.726 304.02 249.5 305.042C249.759 305.298 250.017 305.81 250.534 306.065C252.084 307.344 253.634 309.134 255.183 310.923Z" fill="#D8744C"/>
<path d="M280.498 106.879C279.465 102.532 271.457 96.9069 269.391 96.6512C268.616 97.9297 268.358 97.9297 268.099 98.1854H267.841V97.9297C267.841 97.9297 268.358 97.4183 269.132 96.3955C269.132 96.3955 269.132 96.3955 269.391 96.3955C270.424 96.3955 273.007 97.9297 275.332 99.9752C276.624 100.998 279.982 103.811 280.498 106.879C280.498 106.623 280.498 106.623 280.498 106.879Z" fill="#F28879"/>
<path d="M237.101 84.1229C234.001 84.1229 230.901 83.6116 229.61 82.5888C228.835 80.5432 226.768 73.1281 226.768 72.8724V72.6167H227.027C227.027 72.6167 228.835 80.0318 229.61 82.0774C231.676 83.3559 238.651 84.1229 242.784 82.5888H243.042V82.8445C241.234 83.8672 239.168 84.1229 237.101 84.1229Z" fill="#F28879"/>
<path d="M211.269 105.6C214.111 109.947 214.369 112.248 214.369 112.248L213.594 112.759C213.594 112.759 213.594 112.759 213.594 112.504C213.594 112.504 213.594 112.504 213.594 112.248C213.594 112.248 213.594 112.248 213.594 111.992C213.594 111.737 213.336 111.737 213.336 111.481C213.336 111.481 213.336 111.225 213.077 111.225C213.077 111.225 213.077 111.225 213.077 110.969C212.819 110.458 212.303 109.691 212.044 109.18C212.044 109.18 212.044 109.18 211.786 108.924C211.786 108.924 211.786 108.924 211.528 108.668C211.528 108.668 211.528 108.668 211.269 108.413C211.269 108.413 211.269 108.413 211.011 108.157C211.011 108.157 211.011 108.157 211.011 107.901C211.011 107.901 211.011 107.645 210.753 107.645C210.753 107.39 210.494 107.39 210.494 107.134C210.494 107.134 210.494 107.134 210.236 106.878C210.236 106.623 209.978 106.623 209.978 106.367C209.978 106.367 209.978 106.367 209.978 106.111C209.461 105.344 209.203 104.577 209.461 103.81V103.554C209.461 103.299 209.719 103.043 209.719 103.043C209.719 103.043 209.719 102.787 209.978 102.787C210.236 102.276 210.494 101.765 210.753 101.509C210.753 101.253 211.011 101.253 211.011 100.997C211.011 100.742 211.269 100.742 211.269 100.486C211.269 100.23 211.528 99.9746 211.786 99.7189C211.786 99.7189 211.786 99.4633 212.044 99.4633C212.044 99.2076 212.303 99.2076 212.303 98.9519C212.561 98.6962 212.561 98.4405 212.819 98.1848C213.336 97.4177 213.852 96.6506 214.369 95.8835C214.627 95.6278 214.627 95.6278 214.886 95.3721C215.402 94.6051 215.919 94.0937 216.694 93.3266C216.952 93.0709 216.952 93.0709 217.211 92.8152C217.469 92.5595 217.727 92.0481 218.244 91.7924C218.502 91.5367 218.76 91.281 218.76 91.281L219.019 91.0254C219.277 90.7697 219.535 90.7696 219.535 90.514C220.827 89.4912 222.119 88.4684 223.41 87.4456C223.41 87.4456 223.669 87.4456 223.669 87.1899C224.185 87.7013 224.702 88.2127 225.218 88.7241C219.019 92.8152 213.077 102.02 211.269 105.6Z" fill="#F28879"/>
<path d="M239.168 123.755C238.909 123.5 239.168 123.5 239.168 123.5C239.943 123.244 240.718 122.988 241.234 122.733C242.009 122.477 242.526 121.966 243.042 121.454C244.076 119.664 244.851 118.386 245.367 117.619C245.367 117.363 245.626 117.107 245.626 117.107C245.626 116.852 245.626 116.596 245.626 116.34C245.367 115.318 244.592 113.783 243.301 111.226V110.971H243.559C245.109 113.528 245.626 115.062 245.884 116.085C245.884 116.34 245.884 116.852 245.884 117.107C245.884 117.363 245.884 117.619 245.626 117.874C245.109 118.642 244.592 120.176 243.301 121.71C242.784 122.477 242.267 122.988 241.493 123.244C240.718 123.244 239.943 123.5 239.168 123.755Z" fill="#F28879"/>
<path d="M235.81 137.563C235.81 137.563 232.71 147.79 229.868 151.881L229.61 151.626C231.418 147.023 232.968 141.909 234.776 136.795C235.035 137.051 235.551 137.307 235.81 137.563Z" fill="#F28879"/>
<path d="M247.692 146C247.176 146.512 246.659 147.023 246.401 147.279C242.784 140.886 239.168 136.028 235.81 133.471C235.81 133.215 235.81 132.96 236.068 132.704C238.134 134.75 244.592 140.375 247.692 146Z" fill="#F28879"/>
<path d="M229.093 155.972C228.835 156.228 228.835 156.739 228.577 156.995C228.577 156.995 228.577 156.995 228.577 157.251C228.577 157.506 228.318 157.506 228.318 157.762C228.318 158.018 228.06 158.018 228.06 158.273C227.802 158.785 227.802 159.04 227.543 159.552C227.543 159.808 227.285 159.808 227.285 160.063C227.285 160.319 227.027 160.575 227.027 160.83C227.027 160.83 227.027 161.086 226.768 161.086C226.51 161.853 225.993 162.62 225.735 163.643C225.735 163.899 225.477 163.899 225.477 164.154C225.477 164.41 225.218 164.41 225.218 164.666C223.927 166.967 221.085 168.245 217.986 168.245H217.727H217.469H217.211C216.952 168.245 216.952 168.245 216.952 168.245C216.694 168.245 216.694 168.245 216.436 168.245C216.177 168.245 215.919 168.245 215.661 168.245H215.402H215.144H214.886C214.627 168.245 214.627 168.245 214.627 168.245H214.369C214.111 168.245 214.111 168.245 213.852 168.245H213.594H213.336H213.078C212.819 168.245 212.819 168.245 212.819 168.245C212.561 168.245 212.303 167.99 211.786 167.734C211.786 167.734 211.786 167.734 211.528 167.734C211.269 167.734 211.269 167.734 211.269 167.734C211.011 167.734 211.011 167.734 211.011 167.478H210.753C210.494 167.478 210.494 167.223 210.236 167.223C210.236 167.223 210.236 167.223 209.978 167.223C209.978 167.223 209.719 167.223 209.719 166.967C209.719 166.967 209.461 166.967 209.461 166.711C209.461 166.711 209.203 166.711 209.203 166.456C209.203 166.456 208.944 166.456 208.944 166.2C208.944 166.2 208.686 166.2 208.686 165.944C208.686 165.944 208.428 165.944 208.428 165.689L208.169 165.433L207.911 165.177L207.653 164.921C207.653 164.921 207.653 164.921 207.395 164.666C207.395 164.666 207.395 164.666 207.136 164.41C207.136 164.41 207.136 164.154 206.878 164.154C206.878 164.154 206.878 163.899 206.62 163.899C206.62 163.899 206.62 163.899 206.361 163.643L206.103 163.387C206.103 163.387 206.103 163.132 205.845 163.132C205.845 163.132 205.845 162.876 205.586 162.876C205.586 162.876 205.586 162.62 205.328 162.62C205.328 162.62 205.328 162.365 205.07 162.365V162.109C205.07 162.109 205.07 161.853 204.811 161.853C204.811 161.597 204.553 161.597 204.553 161.342V161.086C204.553 161.086 204.553 161.342 204.811 161.342C204.811 161.342 204.811 161.342 204.811 161.597C204.811 161.597 204.811 161.853 205.07 161.853C205.07 161.853 205.07 162.109 205.328 162.109C205.328 162.109 205.328 162.365 205.586 162.365C205.845 162.62 205.845 162.876 206.103 162.876C206.103 163.132 206.361 163.132 206.361 163.132L206.62 163.387L206.878 163.643L207.136 163.899C207.136 163.899 207.136 163.899 207.395 164.154C207.653 164.41 207.653 164.41 207.653 164.41C207.653 164.41 207.653 164.41 207.911 164.666C207.911 164.666 208.169 164.666 208.169 164.921C208.169 164.921 208.428 164.921 208.428 165.177C209.203 165.689 209.203 165.689 209.461 165.689C209.461 165.689 209.461 165.689 209.719 165.689C209.719 165.689 209.978 165.689 209.978 165.944C209.978 165.944 209.978 165.944 210.236 165.944C210.494 165.944 210.494 165.944 210.494 165.944C210.753 165.944 210.753 165.944 210.753 166.2C211.011 166.2 211.011 166.456 211.269 166.456C211.269 166.456 211.269 166.456 211.528 166.456C211.528 166.456 211.786 166.456 211.786 166.711C211.786 166.711 211.786 166.711 212.044 166.711C212.303 166.711 212.303 166.711 212.303 166.711H212.561H212.819H213.078H213.336H213.594H213.852C214.111 166.711 214.369 166.711 214.369 166.711H214.627H214.886H215.144H215.402C215.402 166.711 215.402 166.711 215.661 166.711C215.661 166.711 215.661 166.711 215.919 166.711C216.177 166.711 216.177 166.711 216.177 166.711C216.436 166.711 216.436 166.711 216.436 166.711H216.694H216.952C217.469 166.711 217.727 166.711 217.986 166.711H218.244H218.502H218.761H219.019C219.277 166.711 219.277 166.711 219.535 166.711H219.794H220.052C220.31 166.711 220.31 166.711 220.569 166.456H220.827H221.085C222.377 165.944 223.41 164.921 224.185 163.899C224.185 163.643 224.444 163.643 224.444 163.387C224.444 163.132 224.702 163.132 224.702 162.876C224.96 162.109 225.477 161.342 225.735 160.319C225.735 160.319 225.735 160.063 225.993 160.063C225.993 159.808 226.252 159.552 226.252 159.296C226.252 159.04 226.51 159.04 226.51 158.785C226.768 158.273 226.768 158.018 227.027 157.506C227.027 157.251 227.285 157.251 227.285 156.995C227.285 156.739 227.543 156.739 227.543 156.484C227.543 156.484 227.543 156.484 227.543 156.228C227.802 155.972 227.802 155.461 228.06 155.205C228.835 155.205 228.835 155.461 229.093 155.972Z" fill="#F28879"/>
<path d="M295.739 425.218C296.514 425.218 298.064 425.474 299.098 425.474C299.614 425.474 300.131 426.241 300.131 426.752C299.356 431.866 294.706 450.276 294.706 450.276C294.706 450.276 301.939 463.317 302.714 465.362C300.389 463.828 294.706 455.902 291.865 452.578C291.09 451.81 290.831 450.788 291.09 449.509C291.606 445.162 293.673 433.4 294.964 425.73C294.706 425.73 295.223 425.218 295.739 425.218Z" fill="#B25E40"/>
<path opacity="0.25" d="M238.651 246.233C235.035 247.256 232.452 248.279 232.193 248.279C231.418 248.279 231.16 248.279 227.802 246.489C226.51 247 225.477 247.511 224.444 247.767C219.536 249.301 216.436 249.301 214.628 249.046C213.336 248.79 212.819 248.534 212.819 248.534C212.819 248.534 212.044 247.256 211.269 246.233C211.011 245.977 211.011 245.466 210.753 245.21C210.494 244.443 211.011 242.909 213.853 239.074C213.853 237.795 214.111 236.261 214.111 234.982C214.111 233.96 214.111 232.937 214.111 231.914C213.853 228.079 213.594 224.243 212.819 220.664C212.561 219.641 212.561 218.618 212.303 217.595C211.528 213.76 210.494 209.924 209.461 206.345C209.203 205.322 208.945 204.299 208.686 203.276C207.395 199.441 206.361 195.606 205.328 192.282C205.07 191.259 204.811 190.236 204.553 189.213C204.037 187.168 203.52 185.122 203.262 183.077C203.003 181.542 202.745 180.008 202.745 178.474C202.745 177.451 202.745 176.428 202.745 175.406C202.745 171.826 203.003 167.991 203.262 164.922C203.262 163.899 203.52 162.877 203.778 161.854C204.553 155.973 205.586 151.882 205.586 151.882C205.586 152.649 205.586 153.16 205.586 153.927C205.586 154.183 205.586 154.183 205.586 154.439C205.586 154.694 205.586 154.694 205.586 154.694C205.586 154.694 205.586 154.694 205.586 154.95C205.586 154.95 205.586 154.95 205.586 155.206C205.586 155.206 205.586 155.206 205.586 155.462C205.586 155.462 205.586 155.462 205.586 155.717C205.586 155.717 205.586 155.717 205.586 155.973C205.586 156.229 205.586 156.229 205.586 156.229V156.484C205.586 156.74 205.586 156.996 205.845 157.251C205.845 157.251 205.845 157.251 205.845 157.507C205.845 157.507 205.845 157.507 205.845 157.763C205.328 160.831 205.328 164.411 206.103 168.246C206.361 169.013 206.361 169.525 206.62 170.036C207.136 172.337 208.17 174.383 209.203 176.173C213.078 185.378 221.344 202.254 230.902 210.436C239.684 218.618 240.718 233.704 238.651 246.233Z" fill="#AD8A82"/>
<path d="M205.586 169.524C205.586 169.524 206.62 172.081 208.17 175.661C207.136 173.871 206.103 171.826 205.586 169.524Z" fill="#3D8AAA"/>
<path d="M226.768 18.6652C224.96 15.0855 220.569 12.5285 217.986 11.2501C216.952 10.7387 216.177 9.71591 215.661 8.69314L215.144 7.41466C215.144 7.15897 215.144 6.90328 215.144 6.64758C215.402 6.39189 215.402 6.39189 215.661 6.39189H218.502C218.502 6.39189 218.761 6.39189 218.761 6.64758L220.052 9.97161C220.31 10.483 221.085 10.7387 221.602 10.7387C221.86 10.7387 221.86 10.7387 222.119 10.7387C222.377 10.7387 222.635 10.2273 222.635 9.97161C222.635 9.71591 222.635 9.71592 222.635 9.46023L221.085 4.60203C220.569 3.57926 219.277 2.81217 217.986 2.81217C217.727 2.81217 217.727 2.81217 217.469 2.81217H216.952C216.952 2.81217 216.694 2.81218 216.694 2.55648C216.694 2.55648 216.694 2.30078 216.952 2.30078H217.469C217.727 2.30078 217.986 2.30078 217.986 2.30078C219.277 2.30078 220.569 3.06787 221.344 4.34634L222.894 9.20453C222.894 9.46022 223.152 9.71592 223.152 9.71592C223.152 10.2273 222.894 10.7387 222.119 10.9944C221.86 10.9944 221.602 10.9944 221.602 10.9944C220.827 10.9944 220.31 10.7387 219.794 9.97161L218.502 6.64758H215.661C215.661 6.64758 215.402 6.64759 215.402 6.90328V7.15897L215.661 8.18176C215.919 9.20453 216.694 9.97161 217.727 10.483C220.31 11.7615 224.96 14.3184 226.51 18.1538C227.027 18.4095 227.027 18.6652 226.768 18.6652Z" fill="#31293B"/>
<path d="M302.456 45.5133C302.197 45.2576 302.197 45.2576 302.456 45.5133C303.23 39.3767 298.581 34.0071 298.581 34.0071C298.581 34.0071 298.581 34.0071 298.581 33.7514C298.581 33.7514 298.581 33.7514 298.581 33.4957L302.456 31.7058H302.714L304.522 33.4957C305.297 34.0071 306.33 34.2628 306.847 33.4957C307.105 33.24 307.105 32.9843 306.847 32.9843L304.264 29.6603C303.747 29.1489 303.23 28.8932 302.714 29.1489C301.422 29.4046 299.356 29.916 297.289 30.4274C296.773 30.6831 295.998 30.9388 295.739 31.7058C293.931 35.0299 292.639 40.1438 292.639 40.1438L292.381 40.3994L292.123 40.1438C292.123 40.1438 293.414 34.7742 295.223 31.4501C295.481 30.6831 296.256 30.1717 297.031 30.1717C299.097 29.6603 301.164 29.1489 302.456 28.8932C303.23 28.6375 304.005 29.1489 304.522 29.6603L307.105 32.9843C307.364 33.24 307.364 33.7514 307.105 34.2628C306.33 35.0299 305.039 35.0299 304.264 34.2628L302.456 32.7286L299.097 34.5185C299.872 34.7742 303.489 39.6324 302.456 45.5133Z" fill="#31293B"/>
<path d="M302.972 345.697C297.031 345.697 292.898 344.162 292.64 344.162C292.64 344.162 292.64 344.162 292.64 343.907C292.64 343.907 292.64 343.907 292.898 343.907C292.898 344.162 297.031 345.697 302.972 345.697C308.655 345.441 316.663 344.162 323.638 337.77C323.638 337.77 323.638 337.77 323.896 337.77C323.896 337.77 323.896 337.77 323.896 338.026C320.796 340.838 317.18 342.884 313.305 344.162C309.947 345.185 306.589 345.697 302.972 345.697Z" fill="#D8744C"/>
<path d="M210.494 134.495C210.236 134.495 210.236 134.239 210.236 134.239C215.919 123.5 227.285 92.3054 227.285 92.0497C227.285 92.0497 227.543 91.794 227.543 92.0497C227.543 92.0497 227.802 92.3054 227.543 92.3054C227.802 92.5611 216.436 123.756 210.494 134.495C210.753 134.495 210.753 134.495 210.494 134.495Z" fill="#31293B"/>
<path d="M217.727 166.966C215.661 166.966 213.594 166.455 211.011 165.432C206.361 163.387 204.036 159.296 204.295 153.67C204.553 149.324 206.103 145.488 206.103 145.488C206.103 145.488 206.361 145.232 206.361 145.488C206.361 145.488 206.62 145.744 206.361 145.744C206.361 145.744 204.811 149.579 204.553 153.926C204.295 159.551 206.62 163.387 211.011 165.432C214.886 167.222 218.244 167.478 220.827 166.199C223.669 164.921 224.702 162.62 224.702 162.364C236.584 136.027 241.492 109.435 241.492 109.18C241.492 109.18 241.492 108.924 241.751 108.924C241.751 108.924 242.009 108.924 242.009 109.18C242.009 109.435 237.101 136.027 225.218 162.364C225.218 162.364 224.185 164.921 221.085 166.199C220.31 166.711 219.019 166.966 217.727 166.966Z" fill="#31293B"/>
<path d="M220.569 251.858C215.402 251.858 212.044 251.602 212.044 251.602C212.044 251.602 211.786 251.602 211.786 251.346C211.786 251.346 211.786 251.091 212.044 251.091C212.303 251.091 237.101 253.648 262.933 244.443L262.416 243.42C261.383 243.42 255.442 243.675 253.633 242.653C252.6 242.908 240.976 245.465 232.451 248.278C230.643 248.022 228.577 246.999 228.06 246.744C227.027 247.255 218.244 250.835 212.819 248.534C212.819 248.534 212.561 248.278 212.819 248.278C212.819 248.278 213.078 248.022 213.078 248.278C218.761 250.579 228.06 246.488 228.06 246.488C228.06 246.488 228.06 246.488 228.318 246.488C228.318 246.488 230.643 248.022 232.71 248.022C241.751 244.954 253.892 242.397 254.15 242.397C254.15 242.397 254.15 242.397 254.408 242.397C256.217 243.42 263.191 243.164 263.191 243.164H263.45L264.225 244.443C264.225 244.443 264.225 244.443 264.225 244.698C250.534 249.556 237.359 251.091 228.577 251.602C224.96 251.858 222.635 251.858 220.569 251.858Z" fill="#31293B"/>
<path d="M225.477 8.69297C225.218 8.69297 225.218 8.69297 225.477 8.69297C223.669 3.32339 221.344 2.55631 221.344 2.55631L221.085 2.30061L221.344 2.04492C221.344 2.30062 223.927 3.06769 225.477 8.69297Z" fill="#31293B"/>
<path d="M223.669 10.2266C223.152 10.2266 222.894 9.97085 222.894 9.97085V9.71516H223.152C223.152 9.71516 223.669 9.97086 224.702 9.45947H224.96V9.71516C224.444 9.97086 224.185 10.2266 223.669 10.2266Z" fill="#31293B"/>
<path d="M306.072 27.3596H305.814H305.555L304.522 29.1495L304.78 29.4052L306.072 27.3596ZM301.422 27.3596H301.164L300.389 28.3824L300.647 28.6381L301.422 27.3596ZM295.998 27.3596C295.739 27.871 295.481 28.1267 295.223 28.6381C293.673 30.6836 292.64 33.2406 292.381 35.7975H292.123C292.123 36.3089 292.123 36.8203 292.123 37.3317C292.123 38.0988 292.123 38.6101 292.123 39.3772C292.123 39.6329 291.865 39.8886 291.865 39.8886C291.865 40.1443 291.865 40.1443 291.865 40.1443C285.923 60.3442 279.982 72.1061 275.591 80.544C272.749 86.425 270.166 90.7718 269.133 95.8856C269.133 95.8856 268.874 95.8856 268.874 96.1413C268.616 96.6527 268.099 97.1641 267.583 97.6755L267.324 97.9312C261.641 104.068 248.209 114.296 245.626 116.341C245.626 116.085 245.626 116.085 245.626 115.83C245.367 114.807 244.592 113.017 243.042 110.716L242.784 110.46C242.526 109.949 242.268 109.693 242.009 109.182V108.926C242.009 108.67 242.009 108.67 242.009 108.67C244.076 98.6983 246.142 84.3794 246.142 81.5668C246.142 78.4984 238.134 53.4404 232.451 35.7975H232.193C231.16 32.7292 230.127 29.9166 229.352 27.3596H229.093C229.868 29.9166 230.902 32.7292 231.935 35.7975C237.876 53.6961 245.626 78.7541 245.626 81.8225C245.626 84.3794 243.559 99.2097 241.493 108.926V109.182H241.751V109.437C241.751 109.437 241.751 109.693 242.009 109.693C242.268 110.205 242.526 110.46 242.784 110.972L243.042 111.227C244.592 113.784 245.109 115.318 245.367 116.341C245.367 116.597 245.367 116.853 245.367 117.108V117.62L245.626 117.364H245.884C247.434 116.085 262.158 105.091 268.099 98.4426C268.616 97.9312 268.874 97.4198 269.133 96.9084H269.391V96.6527C270.682 91.7945 273.007 87.192 275.849 81.3111C280.24 72.6175 286.44 60.8555 292.123 40.6557V40.4H291.865V40.1443C291.865 39.8886 291.865 39.8886 291.865 39.8886C291.865 39.6329 291.865 39.3772 291.865 39.1215C291.865 38.6102 291.865 38.0988 291.865 37.5874C291.865 37.076 291.865 36.8203 291.865 36.3089C292.123 33.4963 293.156 30.9393 294.706 28.8938C295.481 28.1267 295.739 27.871 295.998 27.3596C296.256 27.3596 296.256 27.3596 295.998 27.3596ZM309.947 27.1039L307.105 31.9621L307.364 32.2178L310.722 27.6153L310.98 27.3596H309.947V27.1039ZM305.814 27.1039L304.522 29.1495L304.78 29.4052L306.33 27.3596L306.589 27.1039H305.814ZM301.164 27.1039L300.389 28.3824L300.647 28.6381L301.422 27.6153L301.681 27.3596H301.164V27.1039ZM292.381 39.8886C292.381 39.3772 292.381 39.3772 292.64 39.3772C292.64 39.1215 292.64 38.8658 292.64 38.6101C292.64 38.0988 292.64 37.5874 292.64 37.076C292.64 36.5646 292.64 36.3089 292.64 35.7975C292.64 35.5418 292.381 35.5418 292.381 35.5418H292.123C292.123 36.0532 292.123 36.5646 292.123 37.076C292.123 37.8431 292.123 38.3545 292.123 39.1215C292.123 39.3772 291.865 39.6329 291.865 39.6329C291.865 39.8886 291.865 39.8886 291.865 39.8886C285.923 60.0885 279.982 71.8504 275.591 80.2883C272.749 86.1693 270.166 90.5161 269.133 95.6299C269.133 95.6299 268.874 95.6299 268.874 95.8856C268.616 96.397 268.099 96.9084 267.583 97.4198L267.324 97.6755C261.641 103.812 248.209 114.04 245.626 116.085C245.626 115.83 245.626 115.83 245.626 115.574C245.367 114.551 244.592 112.761 243.042 110.46L242.784 110.205C242.526 109.693 242.268 109.437 242.009 108.926V108.67C242.009 108.415 242.009 108.415 242.009 108.415C244.076 98.4426 246.142 84.1237 246.142 81.3111C246.142 78.2427 238.134 53.1847 232.451 35.5418H231.935C237.618 53.1847 245.626 78.2427 245.626 81.3111C245.626 83.868 243.559 98.6983 241.493 108.415V108.67H241.751V108.926C241.751 108.926 241.751 109.182 242.009 109.182C242.268 109.693 242.526 109.949 242.784 110.46L243.042 110.716C244.592 113.273 245.109 114.807 245.367 115.83C245.367 116.085 245.367 116.341 245.367 116.597V117.108L245.626 116.853H245.884C247.434 115.574 262.158 104.579 268.099 97.9312C268.616 97.4198 268.874 96.9084 269.133 96.397H269.391V96.1413C270.682 91.2832 273.007 86.6807 275.849 80.7997C280.24 72.1061 286.44 60.3442 292.123 40.1443L292.381 39.8886ZM227.543 19.6888C227.285 19.1774 227.285 18.9217 227.285 18.666V18.4103C227.285 18.1546 227.027 18.1546 227.027 17.8989C226.768 14.3192 225.735 11.5066 225.219 9.9724V9.71671C225.477 9.46102 225.477 9.20532 225.477 8.94963H224.96C224.96 9.20532 224.96 9.46102 224.702 9.46102V9.71671H224.444V9.9724C224.96 11.2509 225.735 14.0635 226.252 17.6432C226.252 17.8989 226.252 17.8989 226.252 18.1546C226.51 18.4103 226.51 18.666 226.51 18.666H226.252V18.9217C226.252 19.1774 226.51 19.4331 226.51 19.9445C227.027 21.4786 227.802 24.0356 228.835 27.3596H229.352C228.835 23.7799 228.06 21.223 227.543 19.6888ZM309.947 27.1039L307.105 31.9621L307.364 32.2178L310.722 27.6153L310.98 27.3596H309.947V27.1039ZM305.555 27.3596L304.522 29.1495L304.78 29.4052L306.33 27.3596L306.589 27.1039L305.555 27.3596ZM301.164 27.3596L300.389 28.3824L300.647 28.6381L301.422 27.6153L301.681 27.3596H301.164ZM292.381 39.8886C292.381 39.3772 292.381 39.3772 292.64 39.3772C292.64 39.1215 292.64 38.8658 292.64 38.6101C292.64 38.0988 292.64 37.5874 292.64 37.076C292.64 36.5646 292.64 36.3089 292.64 35.7975H292.123C292.123 36.3089 292.123 36.5646 292.123 37.076C292.123 37.8431 292.123 38.3545 292.123 39.1215C292.123 39.3772 291.865 39.6329 291.865 39.6329C291.865 39.8886 291.865 39.8886 291.865 39.8886C285.923 60.0885 279.982 71.8504 275.591 80.2883C272.749 86.1693 270.166 90.5161 269.133 95.6299C269.133 95.6299 268.874 95.6299 268.874 95.8856C268.616 96.397 268.099 96.9084 267.583 97.4198L267.324 97.6755C261.641 103.812 248.209 114.04 245.626 116.085C245.626 115.83 245.626 115.83 245.626 115.574C245.367 114.551 244.592 112.761 243.042 110.46L242.784 110.205C242.526 109.693 242.268 109.437 242.009 108.926V108.67C242.009 108.415 242.009 108.415 242.009 108.415C244.076 98.4426 246.142 84.1237 246.142 81.3111C246.142 78.2427 238.134 53.1847 232.451 35.5418H231.935C237.618 53.1847 245.626 78.2427 245.626 81.3111C245.626 83.868 243.559 98.6983 241.493 108.415V108.67H241.751V108.926C241.751 108.926 241.751 109.182 242.009 109.182C242.268 109.693 242.526 109.949 242.784 110.46L243.042 110.716C244.592 113.273 245.109 114.807 245.367 115.83C245.367 116.085 245.367 116.341 245.367 116.597V117.108L245.626 116.853H245.884C247.434 115.574 262.158 104.579 268.099 97.9312C268.616 97.4198 268.874 96.9084 269.133 96.397H269.391V96.1413C270.682 91.2832 273.007 86.6807 275.849 80.7997C280.24 72.1061 286.44 60.3442 292.123 40.1443L292.381 39.8886ZM324.413 331.891C316.663 318.084 296.514 290.725 281.79 270.78C273.007 258.763 266.033 249.558 264.483 246.745C264.741 246.234 266.291 244.444 266.549 242.143C266.549 241.887 266.549 241.376 266.549 241.12C266.549 240.609 266.291 239.841 266.033 239.33V239.074C265.258 237.796 263.966 236.517 262.158 235.75C262.158 234.983 262.158 232.426 262.158 228.591C262.158 227.568 262.158 226.545 262.158 225.523C262.158 222.199 262.158 218.875 261.9 215.806C261.9 214.783 261.9 213.761 261.9 212.738C261.641 209.158 261.641 205.578 261.383 202.51C261.383 201.487 261.383 200.465 261.125 199.442C260.866 195.351 260.35 191.26 260.091 187.936C259.833 186.913 259.833 185.89 259.833 184.867C259.058 179.498 258.283 175.151 257.25 171.827C256.992 170.804 256.733 169.781 256.217 169.014C256.217 168.758 255.958 168.758 255.958 168.503C254.408 164.412 252.6 160.321 250.792 156.485C250.275 155.462 250.017 154.695 249.5 153.673C248.467 151.627 247.434 149.581 246.401 148.047C246.401 148.047 246.401 147.792 246.142 147.792C246.401 147.536 246.917 147.024 247.434 146.513L248.467 145.49C255.7 138.075 270.941 122.734 283.082 107.392C288.248 99.2097 292.898 86.6807 297.031 70.3162C300.131 58.0429 301.939 47.5594 302.197 45.7696L302.456 45.5139V45.2582C304.264 42.957 306.589 39.6329 308.655 36.3089C310.463 33.2406 312.272 30.4279 313.563 28.1267C314.08 27.1039 314.597 26.3368 315.113 25.5698C315.63 24.8027 315.372 24.0356 314.597 23.5242C314.855 22.5014 314.338 22.5014 314.08 22.5014C313.563 22.5014 313.305 22.7571 313.047 23.0128L312.013 24.2913L314.08 21.2229C314.597 20.4559 314.338 19.6888 313.563 19.1774C312.788 18.666 312.013 18.9217 311.497 19.4331L307.105 25.3141L311.755 17.8989C312.272 17.1318 312.013 16.3648 311.238 15.8534C310.98 15.5977 310.722 15.5977 310.205 15.5977C309.689 15.5977 309.172 15.8534 308.914 16.1091L305.039 21.2229L308.139 17.3875C308.655 16.6205 308.397 15.8534 307.88 15.0863C307.622 14.8306 307.105 14.8306 306.847 14.8306C306.33 14.8306 305.814 15.0863 305.555 15.342C303.747 17.6432 299.097 23.0128 295.998 27.1039C295.739 27.3596 295.481 27.6153 295.223 28.1267C293.673 30.1722 292.64 32.7292 292.381 35.5418C292.381 36.3089 292.381 36.5646 292.381 37.076C292.381 37.8431 292.381 38.3545 292.381 39.1215C292.381 39.3772 292.123 39.6329 292.123 39.6329C292.123 39.8886 292.123 39.8886 292.123 39.8886C286.182 60.0885 280.24 71.8504 275.849 80.2883C273.007 86.1693 270.424 90.5161 269.391 95.6299C269.391 95.6299 269.133 95.6299 269.133 95.8856C268.874 96.397 268.358 96.9084 267.841 97.4198L267.583 97.6755C261.9 103.812 248.467 114.04 245.884 116.085C245.884 115.83 245.884 115.83 245.884 115.574C245.626 114.551 244.851 112.761 243.301 110.46L243.042 110.205C242.784 109.693 242.526 109.437 242.268 108.926V108.67C242.268 108.415 242.268 108.415 242.268 108.415C244.334 98.4426 246.401 84.1237 246.401 81.3111C246.401 78.2427 238.393 53.1847 232.71 35.5418C231.676 32.2178 230.643 29.4052 229.868 27.1039C228.577 23.5242 227.802 20.9673 227.285 19.4331C227.027 18.9217 227.027 18.666 227.027 18.4103V18.1546C227.027 17.8989 226.768 17.8989 226.768 17.6432C226.51 14.0635 225.477 11.2509 224.96 9.71671V9.46102C225.219 9.20533 225.219 8.94962 225.219 8.69393C225.735 8.18254 225.993 7.92685 225.993 7.67116C226.252 7.15977 226.252 6.90407 225.993 6.64838L225.477 4.34714L224.96 3.32436C224.702 2.55727 223.669 2.04588 222.635 2.04588H221.602C221.344 2.04588 221.344 2.04588 221.344 1.79019C221.085 1.79019 221.085 1.79019 220.827 1.79019C220.569 1.79019 220.31 1.79019 220.052 1.79019H219.019C218.761 1.79019 218.502 1.79019 218.244 1.53449C217.986 1.53449 217.727 1.53449 217.469 1.53449H216.952C216.952 1.53449 216.694 1.5345 216.694 1.79019L214.886 2.04588C213.594 2.04588 212.561 2.81297 211.786 3.83575C211.786 3.83575 211.786 4.09144 211.528 4.09144C211.011 5.11421 210.753 6.13699 211.011 7.41546C211.011 7.67115 211.269 7.92685 211.269 8.18255C211.528 9.20533 211.786 9.97241 212.044 10.7395C214.111 15.0863 215.919 21.2229 215.919 21.2229C216.436 23.0128 216.952 25.0584 217.469 26.8482C218.244 29.9166 218.761 32.7292 219.536 35.2861C221.085 42.1899 222.119 48.5822 223.152 54.4632C224.185 60.8555 225.219 66.7365 226.51 72.3618C226.51 72.6175 226.51 72.6175 226.51 72.6175C226.51 72.6175 228.318 80.0326 229.352 82.3339C229.352 82.3339 229.352 82.3339 229.352 82.5895C229.093 85.1465 228.577 87.9591 227.543 91.2832C227.285 91.2832 227.285 91.0275 227.027 91.0275C226.252 90.2604 225.735 89.749 225.219 89.2376C224.702 88.7262 224.185 88.2148 223.669 87.7034C223.927 87.4477 223.927 87.192 223.927 86.9363C223.927 86.6806 223.669 86.425 223.41 86.1693C222.635 85.6579 221.602 84.8908 220.827 84.3794C213.853 80.2883 203.778 77.22 195.512 86.6806C191.121 91.7945 188.796 96.9084 188.796 102.278C188.796 106.369 190.346 110.46 192.929 113.784C197.32 119.409 203.778 121.966 206.878 121.711C207.911 122.478 209.203 123.245 210.236 123.501C210.236 127.592 210.236 130.916 210.236 133.217C210.236 133.473 210.236 133.473 209.978 133.473V133.728C208.17 138.075 206.878 141.399 206.103 144.212C206.103 144.212 205.845 144.212 205.845 144.468C205.845 144.468 204.295 148.303 204.036 152.65C203.778 154.184 203.003 157.252 202.487 161.343C202.228 162.366 202.228 163.389 201.97 164.412C201.453 168.247 201.453 171.827 201.453 175.151C201.453 176.174 201.453 177.196 201.453 178.219C201.453 179.753 201.712 181.287 201.97 182.822C202.228 184.612 202.745 186.657 203.261 188.958C203.52 189.981 203.778 190.748 204.036 192.027C204.553 194.072 205.328 196.118 205.845 198.163C206.361 199.697 206.878 201.232 207.395 203.021C207.653 204.3 207.911 205.067 208.17 206.09C209.461 210.181 210.236 213.761 211.011 217.34C211.269 218.363 211.528 219.386 211.528 220.409C211.786 222.199 212.044 223.988 212.303 225.778V226.034C212.303 226.29 212.819 232.426 212.819 238.819C209.719 243.165 209.461 244.444 209.719 245.211C209.719 245.467 209.978 245.722 210.236 246.234C210.753 247.001 211.269 247.768 211.528 248.279C211.528 248.535 211.528 248.535 211.528 248.791L211.269 251.092C211.011 251.092 211.011 251.348 211.011 251.348C211.011 251.603 211.011 251.603 211.269 251.603V251.859V252.37C210.753 256.462 209.461 263.877 208.686 269.246C208.428 272.315 208.686 276.15 209.203 281.264V281.52C209.203 281.52 209.203 282.287 209.461 283.565C209.978 289.702 211.011 295.071 211.269 297.117C211.269 297.373 211.269 297.628 211.269 297.628C211.269 297.884 211.269 297.884 211.269 297.884C211.269 298.651 216.177 358.995 216.177 388.655C215.144 403.486 209.978 432.635 208.944 437.493C208.944 437.749 208.944 438.26 208.944 438.516C209.203 439.539 209.719 440.05 209.978 440.306C209.203 441.328 208.686 442.607 208.17 443.63V443.885C208.428 446.187 209.203 449.511 213.336 452.068C213.336 453.602 212.561 471.5 211.786 478.148C210.236 479.938 208.944 481.728 208.17 482.751C207.395 483.774 206.878 485.308 206.878 486.586V490.166L239.426 511.389C239.943 511.644 240.459 511.9 240.976 511.9C241.493 511.9 242.267 511.644 242.784 511.389C244.076 510.366 245.109 508.832 244.334 506.275C243.817 504.996 241.751 501.672 237.876 496.303C237.359 495.28 234.776 490.933 232.71 487.609C230.643 484.285 228.577 480.961 228.318 480.45C228.577 479.171 232.193 462.551 232.968 457.693C232.968 456.926 232.71 456.159 231.935 456.159L232.451 453.09C232.451 453.09 232.451 453.09 232.71 453.09C234.26 453.346 237.618 449.255 238.393 448.232C238.651 446.698 237.359 441.328 237.101 440.561C237.618 439.539 242.526 427.01 247.176 405.531C251.567 385.076 256.733 352.091 255.442 311.18C263.708 319.874 270.683 326.01 276.882 331.38C277.657 331.891 278.174 332.658 278.949 333.17C283.857 337.261 287.473 340.585 290.573 343.909C290.056 353.37 285.407 376.126 281.79 390.19H281.532C281.532 390.19 281.532 390.19 281.274 390.445L278.69 401.185C276.107 403.997 274.299 410.134 274.299 411.924C274.299 412.946 276.624 414.992 278.174 416.27C278.174 417.805 277.399 435.703 276.107 445.675C274.299 447.721 272.491 450.022 271.457 451.556C270.941 452.579 270.424 453.602 270.682 454.88L271.199 461.017L306.589 480.961C308.139 481.728 310.205 481.472 310.98 479.938C312.272 477.637 312.013 474.824 309.947 473.29C308.139 471.5 305.297 468.943 302.456 465.619C301.681 463.574 295.223 451.812 294.448 450.533C294.706 449.255 298.839 431.868 299.872 427.01C299.872 426.243 299.614 425.475 298.839 425.475C298.581 425.475 298.323 425.475 298.064 425.475C298.323 424.708 298.323 423.941 298.581 423.941C298.839 423.941 299.356 423.941 299.872 423.686C300.647 423.686 301.681 423.43 302.197 422.919C302.972 421.384 306.33 412.179 308.139 406.81C308.139 406.81 308.397 406.81 308.397 406.554L309.689 402.463C309.689 402.463 309.689 402.463 309.689 402.207C309.43 400.929 308.655 398.628 307.364 396.071C308.139 394.281 315.63 375.871 321.313 358.995C323.121 353.37 324.929 347.744 325.963 343.142C326.996 339.051 326.479 335.215 324.413 331.891ZM325.704 342.886C321.313 361.296 308.397 392.747 307.364 395.815V396.071C308.655 398.883 309.43 401.185 309.689 402.463L308.139 406.043L307.88 406.298C306.072 411.668 302.714 420.873 301.939 422.407C301.422 422.918 300.389 423.174 299.614 423.174C298.839 423.174 298.323 423.43 298.323 423.43H298.064V423.686C298.064 423.686 297.806 424.453 297.548 425.731V425.987H297.806C298.323 425.987 298.581 425.987 298.839 426.243C299.356 426.243 299.614 426.754 299.614 427.265C298.839 432.379 294.189 450.789 294.189 450.789C294.189 451.045 300.131 462.04 301.939 465.364C301.939 465.364 301.939 465.619 302.197 465.619C302.197 465.619 302.197 465.875 302.456 465.875C305.297 469.199 308.139 472.012 309.947 473.546C311.755 475.08 312.013 477.893 310.722 479.938C309.947 481.217 308.139 481.728 306.847 480.961L271.716 461.017L271.199 455.136C271.199 454.113 271.457 452.835 271.974 452.068C273.007 450.278 274.816 447.977 276.624 446.187C277.915 436.215 278.69 418.316 278.949 416.526V416.27C276.107 413.714 275.074 412.435 275.074 411.924C275.074 410.39 276.624 404.509 279.207 401.696L279.465 401.44L280.24 398.628H280.499C283.857 387.377 290.573 355.671 291.348 344.165C288.248 340.585 284.373 337.261 279.724 333.17C278.949 332.658 278.432 332.147 277.657 331.38C271.457 326.01 264.483 319.874 255.958 310.924L255.7 310.669H255.442V310.924C256.733 352.091 251.567 385.076 247.176 405.531C243.042 424.453 238.651 436.47 237.618 439.794C237.359 440.306 237.359 440.561 237.359 440.561C237.359 440.817 238.909 446.442 238.651 447.977C237.876 449.255 234.518 452.835 233.485 452.579H233.226H232.968V452.835L232.193 456.414V456.67H232.451H232.71C233.226 456.67 233.485 457.182 233.485 457.693C232.71 462.807 228.835 480.45 228.835 480.45C228.835 480.705 231.16 484.285 233.485 487.865C235.551 491.445 237.101 494.001 238.134 495.28C238.393 495.536 238.393 496.047 238.651 496.047C238.651 496.303 238.651 496.303 238.909 496.303C242.784 501.672 244.851 504.996 245.367 506.275C246.142 508.32 244.851 509.855 243.817 510.877C243.042 511.389 242.009 511.644 241.234 511.133L207.653 490.422V487.098C207.653 485.819 208.17 484.541 208.944 483.518C209.719 482.495 211.011 480.705 212.561 478.916C213.336 472.012 214.111 452.579 214.111 452.323C209.203 449.255 208.944 445.42 208.944 443.885V443.63C209.461 442.607 209.978 441.584 210.494 440.306V440.05C210.236 439.794 209.719 439.283 209.461 438.26C209.461 438.004 209.461 437.749 209.461 437.493C210.494 432.379 215.661 403.486 216.694 388.4C216.694 358.484 211.786 298.14 211.786 297.373C211.786 297.373 211.786 297.117 211.528 296.606C211.528 295.838 211.269 294.816 211.011 293.282C210.494 290.725 210.236 286.889 209.719 283.054C209.461 282.031 209.461 281.264 209.461 281.008V280.753C208.944 275.894 208.944 271.803 208.944 268.735C209.719 263.365 211.011 255.95 211.528 251.859V251.348C211.528 251.092 211.528 251.092 211.528 250.836V250.581V250.325L212.044 247.768V247.512C211.528 246.745 211.011 245.978 210.753 245.211C210.494 244.7 210.236 244.444 210.236 244.188C209.978 243.421 210.753 241.631 213.078 238.563C213.078 238.563 213.078 238.307 213.336 238.307C213.336 236.773 213.336 235.239 213.336 233.96C213.336 232.938 213.336 231.915 213.336 230.892C213.336 228.08 213.078 225.778 213.078 225.267V225.011C212.819 223.221 212.561 221.431 212.303 219.642C212.044 218.619 212.044 217.596 211.786 216.573C211.011 213.249 210.236 209.67 208.944 205.323C208.686 204.3 208.428 203.533 208.17 202.254C207.653 200.465 207.136 198.93 206.62 197.396C205.845 195.351 205.328 193.305 204.811 191.26C204.553 190.237 204.295 189.214 204.036 188.191C203.52 185.89 203.003 183.844 202.745 182.055C202.487 180.776 202.228 179.242 202.228 177.452C202.228 176.429 202.228 175.407 202.228 174.384C202.228 171.06 202.487 167.48 202.745 163.9C203.003 162.878 203.003 161.599 203.261 160.832C203.778 157.508 204.295 154.951 204.553 153.161C204.553 152.905 204.811 152.394 204.811 152.138C204.811 151.627 204.811 151.371 204.811 150.86C205.328 147.024 206.361 143.956 206.361 143.956H206.62V143.7C207.653 140.888 208.944 137.308 210.753 132.961V132.706H210.494V132.45V132.194C210.494 131.939 210.494 131.939 210.494 131.683C210.494 129.382 210.494 126.058 210.494 122.222V121.966H210.236C208.944 121.711 207.911 120.944 206.878 120.177C206.62 120.177 206.62 120.177 206.62 120.177C203.778 120.177 197.32 117.62 193.187 112.25C190.862 109.182 184.146 98.6983 195.77 85.4022C203.778 76.1972 213.594 79.0098 220.569 83.3566C221.344 83.868 222.377 84.3794 223.152 85.1465C223.41 85.4022 223.41 85.4022 223.41 85.6579C223.41 85.9136 223.41 86.1693 223.152 86.1693V86.425C223.669 86.9363 224.185 87.4477 224.702 87.9591C225.219 88.4705 225.993 89.2376 226.768 89.749C227.285 89.749 227.285 89.749 227.285 90.0047C227.285 90.0047 227.285 90.0047 227.285 90.2604C227.285 90.5161 227.543 90.5161 227.543 90.5161H227.802V90.2604C228.835 86.6807 229.352 83.6123 229.61 81.0554C228.835 79.0098 227.285 72.8732 226.768 71.5947L227.027 71.8504V71.339C225.735 65.7137 224.702 59.8328 223.669 53.1847C222.635 47.3038 221.602 40.9114 220.052 34.2633C219.536 31.195 218.761 28.6381 217.986 25.8254C217.469 23.7799 216.952 21.7343 216.436 19.9445C216.436 19.9445 214.627 13.8078 212.561 9.20532C212.303 8.43824 212.044 7.92685 211.786 7.15977C211.528 6.64838 211.528 6.39269 211.528 5.8813C211.269 4.85852 211.528 3.58005 212.303 2.81297C213.078 1.79019 214.111 1.2788 215.144 1.2788L217.211 1.02311V0.767414H217.727C217.986 0.767414 218.244 0.767414 218.244 0.767414H218.502H218.761C219.019 0.767414 219.019 0.767414 219.277 0.767414H219.794H220.569C220.827 0.767414 221.085 0.767414 221.344 0.767414H221.602V0.511719C221.602 0.511719 221.86 0.51172 221.86 0.767414C222.119 0.767414 222.119 0.767414 222.119 0.767414H222.894C223.669 0.767414 224.444 1.02311 224.702 1.79019L225.219 2.55728L226.252 5.11422C226.252 5.36991 226.252 5.6256 226.252 5.8813C226.252 6.13699 225.993 6.39269 225.735 6.39269H225.477V6.64838H225.219C225.219 7.15977 225.219 7.41546 224.96 7.41546V7.67116H224.702V7.92685C225.219 9.20532 225.993 12.018 226.51 15.5977C226.51 15.8534 226.51 15.8534 226.51 16.1091C226.768 16.3648 226.768 16.6205 226.768 16.6205H226.51V16.8761C226.51 17.1318 226.768 17.3875 226.768 17.8989C227.285 19.4331 228.06 21.99 229.093 25.3141C229.868 28.1267 230.902 30.9393 231.935 33.752C237.876 51.6506 245.626 76.7086 245.626 79.7769C245.626 82.3339 243.559 97.1641 241.493 106.88V107.136H241.751V107.392C241.751 107.392 241.751 107.648 242.009 107.648C242.268 108.159 242.526 108.415 242.784 108.926L243.042 109.182C244.592 111.739 245.109 113.273 245.367 114.296C245.367 114.551 245.367 114.807 245.367 115.063V115.574L245.626 115.318H245.884C247.434 114.04 262.158 103.045 268.099 96.397C268.616 95.8856 268.874 95.3743 269.133 94.8629H269.391V94.6072C270.682 89.749 273.007 85.1465 275.849 79.2655C280.24 70.5719 286.44 58.81 292.123 38.6101V38.3545H291.865V38.0988C291.865 37.8431 291.865 37.8431 291.865 37.8431C291.865 37.5874 291.865 37.3317 291.865 37.076C291.865 36.5646 291.865 36.0532 291.865 35.5418C291.865 35.0304 291.865 34.7747 291.865 34.2633C292.123 31.4507 293.156 28.8938 294.706 26.8482C294.964 26.5925 295.223 26.0811 295.481 25.5698C298.581 21.4786 302.972 16.1091 304.78 14.0635C305.039 13.8078 305.297 13.5521 305.814 13.5521C306.072 13.5521 306.589 13.8078 306.847 14.0635C307.364 14.5749 307.364 15.342 307.105 15.8534L300.389 25.8254V28.3824L300.647 28.6381L301.422 27.6153L301.681 27.3596L309.43 16.8761C309.689 16.6205 309.947 16.3648 310.463 16.3648C310.722 16.3648 310.98 16.3648 311.238 16.6205C311.755 16.8761 311.755 17.6432 311.497 18.1546L305.814 27.3596H305.555L304.522 29.1495L304.78 29.4052L306.33 27.3596L306.589 27.1039L312.013 19.9445C312.272 19.4331 313.047 19.4331 313.563 19.6888C314.08 19.9445 314.08 20.7116 313.822 21.2229L310.205 27.1039L309.947 27.3596L307.105 31.9621L307.364 32.2178L310.722 27.6153L310.98 27.3596L313.563 23.5242C313.822 23.2685 314.08 23.0128 314.338 23.0128C314.597 23.0128 314.855 23.0128 315.113 23.2685C315.63 23.5242 315.63 24.2913 315.372 24.8027C315.113 25.3141 314.597 26.3368 314.08 27.3596C314.08 27.3596 314.08 27.3596 314.08 27.6153C312.788 29.9165 310.98 32.9849 309.172 35.7975C307.105 39.1215 305.039 42.1899 303.231 44.4911L302.972 44.7468C302.972 45.0025 302.972 45.0025 302.972 45.2582H302.714V45.5139C302.456 47.3038 295.998 87.4477 283.598 107.136C270.941 122.222 255.7 137.564 248.467 144.979L247.434 146.002C246.917 146.513 246.401 147.024 246.142 147.28L245.884 147.536L246.142 147.792C247.176 149.581 248.209 151.371 249.242 153.417C249.759 154.184 250.017 155.207 250.534 156.229C252.342 160.065 254.15 164.156 255.7 168.247C255.7 168.503 255.7 168.503 255.958 168.758C256.217 169.526 256.475 170.548 256.992 171.571C258.025 174.895 258.8 179.498 259.575 184.612C259.575 185.379 259.833 186.401 259.833 187.68C260.35 191.26 260.608 195.095 260.866 199.186C260.866 200.209 261.125 201.232 261.125 202.254C261.383 205.578 261.383 208.902 261.641 212.482C261.641 213.505 261.641 214.528 261.641 215.551C261.641 218.619 261.9 221.943 261.9 225.267C261.9 226.29 261.9 227.312 261.9 228.335C261.9 232.171 261.9 234.728 261.9 235.495C263.45 236.517 264.741 237.54 265.516 238.563L265.774 238.819V239.074C266.291 239.586 266.291 240.353 266.291 240.864C266.291 241.12 266.291 241.376 266.291 241.887C266.033 243.933 264.483 245.978 264.225 246.234L263.966 246.49C265.516 249.046 272.491 258.763 281.274 270.78C295.998 290.725 316.146 318.084 323.896 331.891C325.188 334.193 325.704 336.75 325.704 339.051C326.221 340.585 325.963 341.608 325.704 342.886ZM227.543 19.6888C227.285 19.1774 227.285 18.9217 227.285 18.666V18.4103C227.285 18.1546 227.027 18.1546 227.027 17.8989C226.768 14.3192 225.735 11.5066 225.219 9.9724V9.71671C225.477 9.46102 225.477 9.20532 225.477 8.94963H224.96C224.96 9.20532 224.96 9.46102 224.702 9.46102V9.71671H224.444V9.9724C224.96 11.2509 225.735 14.0635 226.252 17.6432C226.252 17.8989 226.252 17.8989 226.252 18.1546C226.51 18.4103 226.51 18.666 226.51 18.666H226.252V18.9217C226.252 19.1774 226.51 19.4331 226.51 19.9445C227.027 21.4786 227.802 24.0356 228.835 27.3596H229.352C228.835 23.7799 228.06 21.223 227.543 19.6888ZM292.381 39.8886V39.6329C292.381 39.3772 292.381 39.3772 292.381 39.3772C292.381 39.1215 292.381 38.8658 292.381 38.6101C292.381 38.0988 292.381 37.5874 292.381 37.076C292.381 36.5646 292.381 36.3089 292.381 35.7975H291.865C291.865 36.3089 291.865 36.5646 291.865 37.076C291.865 37.8431 291.865 38.3545 291.865 39.1215C291.865 39.3772 291.606 39.6329 291.606 39.6329C291.606 39.8886 291.606 39.8886 291.606 39.8886C285.665 60.0885 279.724 71.8504 275.332 80.2883C272.491 86.1693 269.908 90.5161 268.874 95.6299C268.874 95.6299 268.616 95.6299 268.616 95.8856C268.358 96.397 267.841 96.9084 267.324 97.4198L267.066 97.6755C261.383 103.812 247.95 114.04 245.367 116.085C245.367 115.83 245.367 115.83 245.367 115.574C245.109 114.551 244.334 112.761 242.784 110.46L242.526 110.205C242.268 109.693 242.009 109.437 241.751 108.926V108.67C241.751 108.415 241.751 108.415 241.751 108.415C243.817 98.4426 245.884 84.1237 245.884 81.3111C245.884 78.2427 237.876 53.1847 232.193 35.5418H231.676C237.359 53.1847 245.367 78.2427 245.367 81.3111C245.367 83.868 243.301 98.6983 241.234 108.415V108.67H241.493V108.926C241.493 108.926 241.493 109.182 241.751 109.182C242.009 109.693 242.268 109.949 242.526 110.46L242.784 110.716C244.334 113.273 244.851 114.807 245.109 115.83C245.109 116.085 245.109 116.341 245.109 116.597V117.108L245.367 116.853H245.626C247.176 115.574 261.9 104.579 267.841 97.9312C268.358 97.4198 268.616 96.9084 268.874 96.397H269.133V96.1413C270.424 91.2832 272.749 86.6807 275.591 80.7997C280.499 72.3618 286.44 60.5998 292.381 39.8886ZM301.164 27.1039L300.389 28.3824L300.647 28.6381L301.422 27.6153L301.681 27.3596H301.164V27.1039ZM305.814 27.1039L304.522 29.1495L304.78 29.4052L306.33 27.3596L306.589 27.1039H305.814ZM309.947 27.1039L307.105 31.9621L307.364 32.2178L310.722 27.6153L310.98 27.3596H309.947V27.1039ZM292.381 39.8886C292.381 39.3772 292.381 39.3772 292.64 39.3772C292.64 39.1215 292.64 38.8658 292.64 38.6101C292.64 38.0988 292.64 37.5874 292.64 37.076C292.64 36.5646 292.64 36.3089 292.64 35.7975C292.64 35.5418 292.381 35.5418 292.381 35.5418H292.123C292.123 36.0532 292.123 36.5646 292.123 37.076C292.123 37.8431 292.123 38.3545 292.123 39.1215C292.123 39.3772 291.865 39.6329 291.865 39.6329C291.865 39.8886 291.865 39.8886 291.865 39.8886C285.923 60.0885 279.982 71.8504 275.591 80.2883C272.749 86.1693 270.166 90.5161 269.133 95.6299C269.133 95.6299 268.874 95.6299 268.874 95.8856C268.616 96.397 268.099 96.9084 267.583 97.4198L267.324 97.6755C261.641 103.812 248.209 114.04 245.626 116.085C245.626 115.83 245.626 115.83 245.626 115.574C245.367 114.551 244.592 112.761 243.042 110.46L242.784 110.205C242.526 109.693 242.268 109.437 242.009 108.926V108.67C242.009 108.415 242.009 108.415 242.009 108.415C244.076 98.4426 246.142 84.1237 246.142 81.3111C246.142 78.2427 238.134 53.1847 232.451 35.5418H231.935C237.618 53.1847 245.626 78.2427 245.626 81.3111C245.626 83.868 243.559 98.6983 241.493 108.415V108.67H241.751V108.926C241.751 108.926 241.751 109.182 242.009 109.182C242.268 109.693 242.526 109.949 242.784 110.46L243.042 110.716C244.592 113.273 245.109 114.807 245.367 115.83C245.367 116.085 245.367 116.341 245.367 116.597V117.108L245.626 116.853H245.884C247.434 115.574 262.158 104.579 268.099 97.9312C268.616 97.4198 268.874 96.9084 269.133 96.397H269.391V96.1413C270.682 91.2832 273.007 86.6807 275.849 80.7997C280.24 72.1061 286.44 60.3442 292.123 40.1443L292.381 39.8886ZM301.164 27.1039L300.389 28.3824L300.647 28.6381L301.422 27.6153L301.681 27.3596H301.164V27.1039ZM305.814 27.1039L304.522 29.1495L304.78 29.4052L306.33 27.3596L306.589 27.1039H305.814ZM309.947 27.1039L307.105 31.9621L307.364 32.2178L310.722 27.6153L310.98 27.3596H309.947V27.1039Z" fill="#31293B"/>
<path d="M257.767 33.2406C256.475 33.2406 255.442 32.2178 255.442 30.9393V4.34715C255.442 3.06868 256.475 2.0459 257.767 2.0459C259.058 2.0459 260.092 3.06868 260.092 4.34715V30.6836C260.092 31.9621 259.058 33.2406 257.767 33.2406Z" fill="#D1654B"/>
<path d="M196.287 33.2406C194.995 33.2406 193.962 32.2178 193.962 30.9393L192.412 4.60284C192.412 3.32437 193.445 2.0459 194.737 2.0459C196.029 2.0459 197.32 3.06868 197.32 4.34715L198.612 30.6836C198.87 31.9621 197.837 32.9849 196.287 33.2406Z" fill="#D1654B"/>
<path d="M134.807 33.2405C133.516 33.2405 132.482 32.4734 132.482 31.1949L129.899 4.85842C129.641 3.57995 130.674 2.30149 131.966 2.04579C133.257 1.7901 134.549 2.81287 134.807 4.09134L137.39 30.4278C137.649 31.7063 136.615 32.9848 135.324 33.2405C135.065 32.9848 135.065 33.2405 134.807 33.2405Z" fill="#D1654B"/>
<path d="M318.988 33.2406C320.28 33.2406 321.313 32.2178 321.313 30.9393L322.604 4.60284C322.604 3.32437 321.571 2.0459 320.28 2.0459C318.988 2.0459 317.696 3.06868 317.696 4.34715L316.405 30.6836C316.663 31.9621 317.438 32.9849 318.988 33.2406Z" fill="#D1654B"/>
<path d="M380.468 33.2405C381.759 33.2405 382.792 32.4734 382.792 31.1949L385.376 4.85842C385.634 3.57995 384.601 2.30149 383.309 2.04579C382.017 1.7901 380.726 2.81287 380.468 4.09134L377.884 30.4278C377.626 31.7063 378.659 32.9848 379.951 33.2405C380.209 32.9848 380.468 33.2405 380.468 33.2405Z" fill="#D1654B"/>
<path d="M397 4.3468C397 5.62527 396.483 6.64804 395.708 7.41513C394.933 8.18221 393.9 8.6936 392.609 8.6936H118.791C116.725 8.6936 114.658 7.15944 114.4 5.11388V4.85818V4.60249V4.3468C114.4 3.06833 114.917 2.04555 115.692 1.27847C116.467 0.511388 117.5 0 118.791 0H392.609C394.933 0.255694 397 2.04556 397 4.3468Z" fill="#DD805F"/>
<path d="M397 4.34717C397 5.62564 396.483 6.64841 395.708 7.41549C394.933 8.18257 393.9 8.69396 392.609 8.69396H118.791C116.725 8.69396 114.917 7.1598 114.658 5.11425V4.85855V4.60286V4.34717H397Z" fill="#D1654B"/>
<path d="M292.123 35.7974C292.123 36.0531 232.71 36.0531 232.71 36.0531C232.71 35.7974 292.123 35.7974 292.123 35.7974Z" fill="#31293B"/>
<path d="M397 31.4506C397 33.7518 394.933 35.7974 392.609 35.7974H308.914H392.35C394.934 35.7974 396.742 33.7518 397 31.4506C396.742 29.1493 394.933 27.3595 392.609 27.3595H383.309C383.309 27.1038 385.117 8.69377 385.117 8.69377H392.609C393.642 8.69377 394.675 8.18238 395.45 7.41529C396.225 6.64821 396.742 5.62544 396.742 4.60266C396.742 2.30141 394.933 0.511555 392.609 0.511555H118.791C117.758 0.511555 116.725 1.02294 115.95 1.79003C115.175 2.55711 114.658 3.57989 114.658 4.60266V4.85835V5.11405V5.36974C114.917 7.4153 116.725 8.94947 118.791 8.94947H130.157L131.966 27.6151C131.966 27.8708 118.533 27.8708 118.533 27.8708C117.5 27.8708 116.467 28.3822 115.692 29.1493C114.917 29.9164 114.4 30.9392 114.4 32.2176C114.4 34.5189 116.467 36.3087 118.791 36.3087H219.535C219.535 36.5644 118.791 36.5644 118.791 36.5644C116.467 36.5644 114.4 34.5189 114.4 32.2176C114.4 30.9392 114.917 29.9164 115.692 28.8936C116.467 28.1265 117.758 27.6151 118.791 27.6151H131.966L130.157 9.20516H118.791C116.725 9.20516 114.658 7.67099 114.4 5.36974V5.11405V4.85835V4.60266C114.4 3.32419 114.917 2.30141 115.692 1.53433C116.467 0.767248 117.758 0.255859 118.791 0.255859H392.609C394.933 0.255859 397 2.30141 397 4.60266C397 5.88113 396.483 6.90391 395.708 7.671C394.933 8.43808 393.642 8.94947 392.609 8.94947H385.376L383.567 27.3595H392.867C395.192 27.1038 397 29.1493 397 31.4506Z" fill="#31293B"/>
<path d="M234.776 355.415C234.518 355.415 234.518 355.415 234.26 355.415C241.234 355.415 247.692 354.392 253.375 351.835H253.634V352.091C247.951 354.392 241.493 355.415 234.776 355.415Z" fill="#D8744C"/>
<path d="M229.868 355.16C229.61 355.16 229.352 355.16 229.093 355.16C229.093 355.16 229.093 355.16 229.352 355.16C229.352 354.904 229.61 354.904 229.868 355.16Z" fill="#D8744C"/>
<path d="M228.06 355.159C221.602 354.392 217.211 352.858 216.952 352.858C216.952 352.858 216.952 352.858 216.952 352.602C216.952 352.602 216.952 352.602 217.211 352.602C217.211 352.602 221.602 354.136 228.06 355.159C228.06 354.903 228.06 354.903 228.06 355.159Z" fill="#D8744C"/>
</svg>
