<svg width="512" height="512" viewBox="0 0 512 512" fill="none" xmlns="http://www.w3.org/2000/svg">
<path d="M220.9 218.4L193 253H140.7C95.3 253 52.2 273.1 23 308V382H447V139H387C322.5 139 261.5 168.2 220.9 218.4Z" fill="#68A1D6"/>
<path d="M140.7 253C120 253 99.9 257 81.2 265H447V253H193H140.7Z" fill="#9AD2FC"/>
<path d="M125 446C159.794 446 188 417.794 188 383C188 348.206 159.794 320 125 320C90.2061 320 62 348.206 62 383C62 417.794 90.2061 446 125 446Z" fill="#323D2C"/>
<path d="M118.8 320.3C89 323.2 65.2 347 62.3 376.8C69.4 383.1 78.7 387 89 387C111.1 387 129 369.1 129 347C129 336.7 125.1 327.4 118.8 320.3Z" fill="#485143"/>
<path d="M125 415C142.673 415 157 400.673 157 383C157 365.327 142.673 351 125 351C107.327 351 93 365.327 93 383C93 400.673 107.327 415 125 415Z" fill="#1C2617"/>
<path d="M5 357H62V409H5V357Z" fill="#9AD2FC"/>
<path d="M5 374H62V409H5V374Z" fill="#3179AF"/>
<path d="M188 357H387V409H188V357Z" fill="#9AD2FC"/>
<path d="M188 374H387V409H188V374Z" fill="#3179AF"/>
<path d="M422 164H371.8C326 164 282.6 184.5 253.5 219.8L226 253H422V164Z" fill="#323D2C"/>
<path d="M407.5 164H358.5L260.5 253H309.5L407.5 164Z" fill="#485143"/>
<path d="M273 227H239C231.8 227 226 232.8 226 240V253H273C280.2 253 286 247.2 286 240C286 232.8 280.2 227 273 227Z" fill="#3179AF"/>
<path d="M273 227H251.5C247.9 227 245 229.9 245 233.5C245 237.1 247.9 240 251.5 240H286C286 232.8 280.2 227 273 227Z" fill="#68A1D6"/>
<path d="M83 284H74.4C54.6 284 35.8 292.8 23 308H59C72.3 308 83 297.3 83 284Z" fill="#F8D707"/>
<path d="M399 382V352H382.2C380.6 345 378 339.2 374.6 333.6L386.5 321.7L365.3 300.5L353.4 312.4C347.8 309 341.6 306.4 335 304.8V288H305V304.8C298.4 306.4 292.2 309 286.6 312.4L274.7 300.5L253.5 321.7L265.4 333.6C262 339.2 259.4 345 257.8 352H241V382H257.8C259.4 389 262 394.8 265.4 400.4L253.5 412.3L274.7 433.5L286.6 421.6C292.2 425 298.4 427.6 305 429.2V446H335V429.2C341.6 427.6 347.8 425 353.4 421.6L365.3 433.5L386.5 412.3L374.6 400.4C378 394.8 380.6 389 382.2 382H399ZM320 402C300.7 402 285 386.3 285 367C285 347.7 300.7 332 320 332C339.3 332 355 347.7 355 367C355 386.3 339.3 402 320 402Z" fill="#C4C1AB"/>
<path d="M507 145.3V83.9L472 66V109.4L447 122.2L422 109.4V66L387 83.9V145.3L422 163.2V348.8L387 366.7V428.1L422 446V402.6L447 389.8L472 402.6V446L507 428.1V366.7L472 348.8V163.2L507 145.3Z" fill="#F8D707"/>
<path d="M430 390L405 402.6V437.3L422 446V402.6L447 390H430ZM405 74.7V109.4L430 122H447L422 109.4V66L405 74.7ZM507 145.3V83.9L490 75.2V145.3L455 163.2V348.8L490 366.7V436.8L507 428.1V366.7L472 348.8V163.2L507 145.3Z" fill="#FFFA5A"/>
<path d="M317.8 332.1C318.6 328.7 319 325.2 319 321.5C319 308.6 313.6 297 305 288.7V304.8C298.4 306.4 292.2 309 286.6 312.4L274.7 300.5L253.5 321.7L265.4 333.6C262 339.2 259.4 345 257.8 352H241V353.3C249.3 361.7 260.8 367 273.5 367C277.5 367 281.4 366.5 285 365.5C285.8 347.6 300 333.2 317.8 332.1Z" fill="#EBEADF"/>
</svg>
