<svg width="512" height="512" viewBox="0 0 512 512" fill="none" xmlns="http://www.w3.org/2000/svg">
<path d="M9.19383 247.469H145.548C147.808 247.469 149.976 246.571 151.574 244.973C153.172 243.375 154.07 241.207 154.07 238.947C154.07 236.687 153.172 234.519 151.574 232.921C149.976 231.323 147.808 230.425 145.548 230.425H9.19383C6.93362 230.425 4.76598 231.323 3.16777 232.921C1.56956 234.519 0.671692 236.687 0.671692 238.947C0.671692 241.207 1.56956 243.375 3.16777 244.973C4.76598 246.571 6.93362 247.469 9.19383 247.469Z" fill="#BE281E"/>
<path d="M9.19383 247.469H34.7602C37.0205 247.469 39.1881 246.571 40.7863 244.973C42.3845 243.375 43.2824 241.207 43.2824 238.947C43.2824 236.687 42.3845 234.519 40.7863 232.921C39.1881 231.323 37.0205 230.425 34.7602 230.425H9.19383C6.93362 230.425 4.76598 231.323 3.16777 232.921C1.56956 234.519 0.671692 236.687 0.671692 238.947C0.671692 241.207 1.56956 243.375 3.16777 244.973C4.76598 246.571 6.93362 247.469 9.19383 247.469Z" fill="#F04B37"/>
<path d="M26.2381 247.469H51.8045L77.3709 315.646H51.8045L26.2381 247.469ZM85.8931 247.469H111.459L137.026 315.646H111.459L85.8931 247.469Z" fill="#463C4B"/>
<path d="M51.8045 400.867H119.982V298.601C119.982 289.188 127.612 281.557 137.026 281.557H68.8488C59.435 281.557 51.8045 289.188 51.8045 298.601V400.867Z" fill="#555A6E"/>
<path d="M477.911 434.956H460.867C442.041 434.956 426.779 419.694 426.779 400.867C426.779 382.041 442.041 366.779 460.867 366.779H477.911C496.738 366.779 512 382.041 512 400.867C512 419.695 496.738 434.956 477.911 434.956Z" fill="#463C4B"/>
<path d="M460.867 434.956C479.694 434.956 494.956 419.694 494.956 400.867C494.956 382.041 479.694 366.779 460.867 366.779C442.041 366.779 426.779 382.041 426.779 400.867C426.779 419.694 442.041 434.956 460.867 434.956Z" fill="#555A6E"/>
<path d="M503.478 400.867H401.212C398.952 400.867 396.784 401.765 395.186 403.363C393.588 404.961 392.69 407.129 392.69 409.389C392.69 411.65 393.588 413.817 395.186 415.415C396.784 417.014 398.952 417.911 401.212 417.911H503.478C505.738 417.911 507.906 417.014 509.504 415.415C511.102 413.817 512 411.65 512 409.389C512 407.129 511.102 404.961 509.504 403.363C507.906 401.765 505.738 400.867 503.478 400.867Z" fill="#D73228"/>
<path d="M426.779 400.867H401.212C398.952 400.867 396.784 401.765 395.186 403.363C393.588 404.961 392.69 407.129 392.69 409.389C392.69 411.65 393.588 413.817 395.186 415.415C396.784 417.014 398.952 417.911 401.212 417.911H426.779C429.039 417.911 431.206 417.014 432.805 415.415C434.403 413.817 435.301 411.65 435.301 409.389C435.301 407.129 434.403 404.961 432.805 403.363C431.206 401.765 429.039 400.867 426.779 400.867Z" fill="#F04B37"/>
<path d="M487.09 379.141L264.858 315.646H119.982V400.867H503.478C503.478 390.779 496.79 381.913 487.09 379.141Z" fill="#FF6955"/>
<path d="M410.391 379.141L188.159 315.646H119.982V400.867H426.779C426.779 390.779 420.091 381.913 410.391 379.141Z" fill="#D73228"/>
<path d="M375.646 434.956H358.601C339.775 434.956 324.513 419.694 324.513 400.867C324.513 382.041 339.775 366.778 358.601 366.778H375.646C394.472 366.778 409.734 382.041 409.734 400.867C409.734 419.695 394.472 434.956 375.646 434.956ZM85.8931 434.956H51.8045C23.5643 434.956 0.671692 412.063 0.671692 383.823C0.671692 355.583 23.5643 332.69 51.8045 332.69H85.8931C114.133 332.69 137.026 355.583 137.026 383.823C137.026 412.063 114.133 434.956 85.8931 434.956Z" fill="#463C4B"/>
<path d="M51.8045 434.956C80.0444 434.956 102.937 412.063 102.937 383.823C102.937 355.583 80.0444 332.69 51.8045 332.69C23.5646 332.69 0.671692 355.583 0.671692 383.823C0.671692 412.063 23.5646 434.956 51.8045 434.956Z" fill="#555A6E"/>
<path d="M51.8045 417.911C70.6311 417.911 85.893 402.65 85.893 383.823C85.893 364.996 70.6311 349.734 51.8045 349.734C32.9779 349.734 17.7159 364.996 17.7159 383.823C17.7159 402.65 32.9779 417.911 51.8045 417.911Z" fill="#463C4B"/>
<path d="M51.8045 400.867C61.2178 400.867 68.8488 393.236 68.8488 383.823C68.8488 374.41 61.2178 366.779 51.8045 366.779C42.3912 366.779 34.7603 374.41 34.7603 383.823C34.7603 393.236 42.3912 400.867 51.8045 400.867Z" fill="#8CAAC8"/>
<path d="M358.601 434.956C377.428 434.956 392.69 419.694 392.69 400.867C392.69 382.041 377.428 366.779 358.601 366.779C339.775 366.779 324.513 382.041 324.513 400.867C324.513 419.694 339.775 434.956 358.601 434.956Z" fill="#555A6E"/>
<path d="M358.601 417.911C368.015 417.911 375.646 410.28 375.646 400.867C375.646 391.454 368.015 383.823 358.601 383.823C349.188 383.823 341.557 391.454 341.557 400.867C341.557 410.28 349.188 417.911 358.601 417.911Z" fill="#D7E6F0"/>
<path d="M137.026 281.557C127.612 281.557 119.982 289.188 119.982 298.601V315.646H154.07V298.601C154.07 289.189 146.44 281.557 137.026 281.557Z" fill="#463C4B"/>
<path d="M162.592 264.513C143.766 264.513 128.504 279.775 128.504 298.601C128.504 308.015 136.134 315.646 145.548 315.646H196.681V298.601C196.681 279.775 181.419 264.513 162.592 264.513Z" fill="#AAC3D7"/>
<path d="M182.478 300.023C181.348 300.023 180.264 299.574 179.465 298.775C178.666 297.976 178.217 296.892 178.217 295.762C178.217 287.147 171.207 280.137 162.592 280.137C161.462 280.137 160.378 279.688 159.579 278.889C158.78 278.09 158.331 277.006 158.331 275.876C158.331 274.746 158.78 273.662 159.579 272.863C160.378 272.064 161.462 271.615 162.592 271.615C175.907 271.615 186.739 282.447 186.739 295.762C186.739 296.892 186.29 297.976 185.491 298.775C184.692 299.574 183.608 300.023 182.478 300.023Z" fill="#D7E6F0"/>
<path d="M175.375 281.557H192.109C195.11 286.736 196.687 292.616 196.681 298.601V307.124H175.375C168.316 307.124 162.592 301.4 162.592 294.34C162.592 287.281 168.316 281.557 175.375 281.557Z" fill="#463C4B"/>
<path d="M9.19383 452H503.478C505.738 452 507.906 451.102 509.504 449.504C511.102 447.906 512 445.738 512 443.478C512 441.218 511.102 439.05 509.504 437.452C507.906 435.854 505.738 434.956 503.478 434.956H9.19383C6.93362 434.956 4.76598 435.854 3.16777 437.452C1.56956 439.05 0.671692 441.218 0.671692 443.478C0.671692 445.738 1.56956 447.906 3.16777 449.504C4.76598 451.102 6.93362 452 9.19383 452Z" fill="#D73228"/>
<path d="M43.2824 426.434C43.2824 424.173 42.3845 422.006 40.7863 420.408C39.1881 418.809 37.0205 417.911 34.7602 417.911C34.7602 408.498 27.1297 400.867 17.716 400.867C8.3022 400.867 0.671692 408.498 0.671692 417.911C0.671692 427.325 8.3022 434.956 17.716 434.956H51.8045L43.2824 426.434Z" fill="#AAC3D7"/>
<path d="M226.508 200.597C225.378 199.467 224.743 197.934 224.743 196.336C224.743 194.738 225.378 193.205 226.508 192.075L345.818 72.7649C346.948 71.6349 348.481 71 350.079 71C351.678 71 353.21 71.6349 354.34 72.7649L358.601 77.026L235.03 200.597C234.471 201.157 233.807 201.601 233.076 201.904C232.345 202.207 231.561 202.363 230.769 202.363C229.978 202.363 229.194 202.207 228.463 201.904C227.732 201.601 227.068 201.157 226.508 200.597Z" fill="#555A6E"/>
<path d="M368.301 203.682L417.08 154.902C418.354 153.629 419.364 152.117 420.053 150.453C420.743 148.789 421.098 147.005 421.098 145.204C421.098 143.403 420.743 141.619 420.053 139.955C419.364 138.291 418.354 136.779 417.08 135.506L358.601 77.0259L290.424 145.203L348.902 203.681C350.176 204.955 351.688 205.965 353.352 206.655C355.016 207.344 356.8 207.699 358.601 207.7C360.403 207.7 362.186 207.345 363.851 206.656C365.515 205.966 367.027 204.956 368.301 203.682Z" fill="#555A6E"/>
<path d="M313.099 122.505L335.828 99.7759L358.546 122.495L335.818 145.224L313.099 122.505ZM358.543 167.96L381.273 145.231L403.991 167.95L381.262 190.679L358.543 167.96ZM313.093 167.946L335.811 145.227L358.541 167.956L335.822 190.674L313.093 167.946ZM358.548 122.5L381.267 99.7823L403.997 122.511L381.278 145.23L358.548 122.5Z" fill="#D7E6F0"/>
<path d="M286.163 200.597C287.293 199.467 287.928 197.934 287.928 196.336C287.928 194.738 287.293 193.205 286.163 192.075L166.853 72.7649C165.723 71.6349 164.191 71 162.592 71C160.994 71 159.461 71.6349 158.331 72.7649L154.07 77.026L277.641 200.597C278.201 201.157 278.865 201.601 279.596 201.904C280.327 202.207 281.111 202.363 281.902 202.363C282.694 202.363 283.477 202.207 284.208 201.904C284.94 201.601 285.604 201.157 286.163 200.597Z" fill="#555A6E"/>
<path d="M144.371 203.682L95.5913 154.902C94.3177 153.629 93.3074 152.117 92.6182 150.453C91.9289 148.789 91.5742 147.005 91.5742 145.204C91.5742 143.403 91.9289 141.619 92.6182 139.955C93.3074 138.291 94.3177 136.779 95.5913 135.506L154.07 77.0259L222.247 145.203L163.769 203.681C162.496 204.955 160.984 205.965 159.32 206.655C157.656 207.344 155.872 207.699 154.07 207.7C152.269 207.7 150.485 207.345 148.821 206.656C147.157 205.966 145.645 204.956 144.371 203.682Z" fill="#555A6E"/>
<path d="M154.038 122.477L176.756 99.7587L199.486 122.487L176.767 145.206L154.038 122.477ZM108.583 167.923L131.302 145.204L154.032 167.934L131.313 190.652L108.583 167.923ZM154.033 167.938L176.762 145.208L199.481 167.927L176.752 190.657L154.033 167.938ZM108.589 122.483L131.318 99.7534L154.036 122.472L131.308 145.202L108.589 122.483Z" fill="#D7E6F0"/>
</svg>
