<svg width="512" height="512" viewBox="0 0 512 512" fill="none" xmlns="http://www.w3.org/2000/svg">
<g clip-path="url(#clip0_169_997)">
<path d="M156.903 379.871H181.677V412.903H156.903V379.871Z" fill="#446AA9"/>
<path d="M285.977 27.7473C291.814 30.305 296.776 34.5128 300.253 39.8533C303.73 45.1937 305.571 51.434 305.548 57.8066V82.9112C302.493 82.6634 299.437 82.5808 296.382 82.5808H280.774V57.8066C280.774 55.6165 279.904 53.516 278.355 51.9673C276.807 50.4186 274.706 49.5486 272.516 49.5486H239.484C237.294 49.5486 235.193 50.4186 233.644 51.9673C232.096 53.516 231.226 55.6165 231.226 57.8066V82.5808H215.618C212.563 82.5808 209.507 82.6634 206.452 82.9112V57.8066C206.429 51.434 208.27 45.1937 211.747 39.8533C215.224 34.5128 220.186 30.305 226.023 27.7473C230.229 25.7543 234.83 24.738 239.484 24.7744H272.516C277.17 24.738 281.771 25.7543 285.977 27.7473Z" fill="#DD933C"/>
<path d="M140.387 0L151.288 98.3536C141.738 103.33 132.836 109.459 124.779 116.604L123.871 115.613V8.25807C123.871 6.06789 124.741 3.96742 126.29 2.41873C127.838 0.870043 129.939 0 132.129 0H140.387ZM388.129 8.25807V115.613L387.221 116.604C379.164 109.459 370.261 103.33 360.712 98.3536L371.613 0H379.871C382.061 0 384.161 0.870043 385.71 2.41873C387.259 3.96742 388.129 6.06789 388.129 8.25807Z" fill="#365587"/>
<path d="M223.794 7.34968L226.023 27.7471C220.186 30.3048 215.224 34.5126 211.747 39.8531C208.27 45.1936 206.429 51.4338 206.452 57.8065V82.911C187.172 84.063 168.363 89.3285 151.288 98.3535L140.387 2.07254e-06H215.535C217.574 -0.00143705 219.542 0.746634 221.064 2.10185C222.587 3.45707 223.558 5.32483 223.794 7.34968ZM371.613 2.07254e-06L360.712 98.3535C343.637 89.3285 324.828 84.063 305.548 82.911V57.8065C305.571 51.4338 303.73 45.1936 300.253 39.8531C296.776 34.5126 291.814 30.3048 285.977 27.7471L288.206 7.34968C288.441 5.32483 289.413 3.45707 290.935 2.10185C292.458 0.746634 294.426 -0.00143705 296.465 2.07254e-06H371.613Z" fill="#446AA9"/>
<path d="M239.484 132.129H272.516V181.677H239.484V132.129Z" fill="#DD933C"/>
<path d="M156.903 379.871V412.903H181.677V379.871H379.871V462.452C379.858 466.828 378.113 471.021 375.019 474.116C371.924 477.211 367.731 478.955 363.355 478.968H148.645C144.269 478.955 140.075 477.211 136.981 474.116C133.886 471.021 132.142 466.828 132.129 462.452V379.871H156.903Z" fill="#C56532"/>
<path d="M379.871 346.839V379.871H132.129V346.839C132.142 342.463 133.886 338.269 136.981 335.175C140.075 332.08 144.269 330.336 148.645 330.323H363.355C367.731 330.336 371.924 332.08 375.019 335.175C378.114 338.269 379.858 342.463 379.871 346.839ZM206.452 82.9114C209.507 82.6636 212.563 82.5811 215.618 82.5811H296.382C299.437 82.5811 302.493 82.6636 305.548 82.9114C324.828 84.0634 343.637 89.3289 360.712 98.354C370.262 103.33 379.164 109.46 387.221 116.604C403.05 131.222 415.7 148.943 424.381 168.663C433.062 188.383 437.588 209.68 437.677 231.226V330.323H412.903V231.226C412.903 204.944 402.463 179.738 383.878 161.154C365.294 142.57 340.089 132.129 313.806 132.129H198.193C171.911 132.129 146.706 142.57 128.121 161.154C109.537 179.738 99.0967 204.944 99.0967 231.226V330.323H74.3225V231.226C74.412 209.68 78.9383 188.383 87.6192 168.663C96.3001 148.943 108.95 131.222 124.779 116.604C132.836 109.46 141.738 103.33 151.288 98.354C168.363 89.3289 187.172 84.0634 206.452 82.9114Z" fill="#F2A142"/>
<path d="M412.903 379.871V512H99.0967V231.226C99.0967 204.944 109.537 179.738 128.121 161.154C146.706 142.569 171.911 132.129 198.193 132.129H239.484V181.677H272.516V132.129H313.806C340.088 132.129 365.294 142.569 383.878 161.154C402.463 179.738 412.903 204.944 412.903 231.226V379.871ZM379.871 462.451V346.839C379.858 342.462 378.114 338.269 375.019 335.174C371.924 332.08 367.731 330.336 363.355 330.322H148.645C144.269 330.336 140.075 332.08 136.981 335.174C133.886 338.269 132.142 342.462 132.129 346.839V462.451C132.142 466.828 133.886 471.021 136.981 474.116C140.075 477.21 144.269 478.955 148.645 478.968H363.355C367.731 478.955 371.924 477.21 375.019 474.116C378.114 471.021 379.858 466.828 379.871 462.451Z" fill="#446AA9"/>
<path d="M412.903 379.871V512H421.161C429.922 512 438.324 508.52 444.518 502.325C450.713 496.13 454.193 487.729 454.193 478.968V379.871H412.903Z" fill="#DD933C"/>
<path d="M412.903 330.322H454.193V379.871H412.903V330.322Z" fill="#446AA9"/>
<path d="M57.8064 478.968C57.8064 487.729 61.2866 496.13 67.4813 502.325C73.6761 508.52 82.078 512 90.8387 512H99.0967V379.871H57.8064V478.968Z" fill="#DD933C"/>
<path d="M57.8064 330.322H99.0967V379.871H57.8064V330.322Z" fill="#446AA9"/>
<path d="M442.17 478.968H441.443C438.254 478.968 435.196 477.701 432.941 475.446C430.686 473.191 429.419 470.133 429.419 466.944V379.871H412.903V512H421.161C429.922 512 438.324 508.52 444.518 502.325C450.713 496.13 454.193 487.729 454.193 478.968V466.944C454.193 470.133 452.927 473.191 450.672 475.446C448.417 477.701 445.359 478.968 442.17 478.968Z" fill="#BD731C"/>
<path d="M412.903 330.322V379.871H454.193V363.355H445.935C441.555 363.355 437.354 361.614 434.257 358.517C431.159 355.42 429.419 351.219 429.419 346.838V330.322H412.903Z" fill="#234275"/>
<path d="M69.8301 478.968H70.5568C72.1358 478.968 73.6993 478.657 75.1581 478.053C76.6169 477.448 77.9424 476.563 79.0589 475.446C80.1754 474.33 81.0611 473.004 81.6653 471.545C82.2696 470.087 82.5806 468.523 82.5806 466.944V379.871H99.0967V512H90.8387C82.078 512 73.6761 508.52 67.4813 502.325C61.2866 496.13 57.8064 487.729 57.8064 478.968V466.944C57.8064 470.133 59.0732 473.191 61.3281 475.446C63.583 477.701 66.6412 478.968 69.8301 478.968Z" fill="#BD731C"/>
<path d="M99.0967 330.322V379.871H57.8064V363.355H66.0645C70.4448 363.355 74.6457 361.614 77.7431 358.517C80.8405 355.42 82.5806 351.219 82.5806 346.838V330.322H99.0967Z" fill="#234275"/>
<path d="M412.697 146.862C411.664 158.78 406.123 169.856 397.205 177.83C407.461 193.75 412.911 212.288 412.903 231.226V330.323H437.677V231.226C437.072 201.373 428.444 172.232 412.697 146.862ZM99.3032 146.862C83.5562 172.232 74.9276 201.373 74.3225 231.226V330.323H99.0967V231.226C99.0863 212.289 104.534 193.751 114.787 177.83C105.872 169.855 100.334 158.779 99.3032 146.862Z" fill="#DD933C"/>
<path d="M421.161 297.29V231.226C421.161 202.753 409.851 175.447 389.718 155.314C369.585 135.181 342.279 123.871 313.806 123.871H198.193C169.721 123.871 142.415 135.181 122.282 155.314C102.149 175.447 90.8386 202.753 90.8386 231.226V297.29C90.8386 301.67 89.0985 305.871 86.0012 308.969C82.9038 312.066 78.7029 313.806 74.3225 313.806V330.322H99.0967V231.226C99.0967 204.943 109.537 179.738 128.121 161.154C146.706 142.569 171.911 132.129 198.193 132.129H313.806C340.089 132.129 365.294 142.569 383.878 161.154C402.463 179.738 412.903 204.943 412.903 231.226V330.322H437.677V313.806C433.297 313.806 429.096 312.066 425.999 308.969C422.901 305.871 421.161 301.67 421.161 297.29ZM297.29 66.0642C295.1 66.0642 293 65.1942 291.451 63.6455C289.902 62.0968 289.032 59.9963 289.032 57.8062C289.032 53.4258 287.292 49.2249 284.195 46.1275C281.097 43.0301 276.896 41.29 272.516 41.29H239.484C235.103 41.29 230.903 43.0301 227.805 46.1275C224.708 49.2249 222.968 53.4258 222.968 57.8062C222.968 59.9963 222.098 62.0968 220.549 63.6455C219 65.1942 216.9 66.0642 214.71 66.0642H206.452V82.9107C209.507 82.6629 212.563 82.5804 215.618 82.5804H231.226V57.8062C231.226 55.616 232.096 53.5155 233.644 51.9668C235.193 50.4181 237.294 49.5481 239.484 49.5481H272.516C274.706 49.5481 276.807 50.4181 278.355 51.9668C279.904 53.5155 280.774 55.616 280.774 57.8062V82.5804H296.382C299.437 82.5804 302.493 82.6629 305.548 82.9107V66.0642H297.29Z" fill="#B0582A"/>
<path d="M140.387 0H132.129C129.939 0 127.838 0.870043 126.29 2.41873C124.741 3.96742 123.871 6.06789 123.871 8.25807V24.7742H124.589C126.655 24.7656 128.649 25.5318 130.178 26.9214C131.707 28.3111 132.659 30.2233 132.847 32.2808L139.495 105.464C143.312 102.891 147.259 100.518 151.321 98.3536L148.992 77.6258L140.387 0ZM379.871 0H371.613L363.008 77.6258L360.712 98.3536C364.774 100.518 368.721 102.891 372.538 105.464L379.144 32.2808C379.332 30.2233 380.284 28.3111 381.813 26.9214C383.342 25.5318 385.336 24.7656 387.402 24.7742H388.129V8.25807C388.129 6.06789 387.259 3.96742 385.71 2.41873C384.161 0.870043 382.061 0 379.871 0Z" fill="#234275"/>
<path d="M189.935 57.8067V66.0647C175.585 66.749 161.581 70.7034 148.992 77.626L151.288 98.3373C168.364 89.3179 187.174 84.0581 206.452 82.9112V57.8067C206.429 51.434 208.27 45.1938 211.747 39.8533C215.224 34.5129 220.186 30.305 226.023 27.7473L225.701 24.7744H222.968C214.207 24.7744 205.805 28.2546 199.61 34.4493C193.416 40.6441 189.935 49.046 189.935 57.8067ZM322.064 66.0647V57.8067C322.064 49.046 318.584 40.6441 312.39 34.4493C306.195 28.2546 297.793 24.7744 289.032 24.7744H286.299L285.977 27.7473C291.814 30.305 296.776 34.5129 300.253 39.8533C303.73 45.1938 305.571 51.434 305.548 57.8067V82.9112C324.828 84.0632 343.637 89.3287 360.712 98.3538L363.008 77.6426C350.421 70.7142 336.416 66.7541 322.064 66.0647Z" fill="#365587"/>
<path d="M239.484 132.129V181.677H272.516V132.129H264.258V165.161C264.258 167.351 263.388 169.452 261.839 171.001C260.291 172.549 258.19 173.419 256 173.419C253.81 173.419 251.709 172.549 250.161 171.001C248.612 169.452 247.742 167.351 247.742 165.161V132.129H239.484Z" fill="#B0582A"/>
<path d="M363.355 478.967H148.645C144.269 478.954 140.075 477.21 136.981 474.115C133.886 471.021 132.142 466.828 132.129 462.451V478.967C132.129 483.348 133.869 487.549 136.966 490.646C140.064 493.743 144.265 495.483 148.645 495.483H363.355C367.735 495.483 371.936 493.743 375.033 490.646C378.131 487.549 379.871 483.348 379.871 478.967V462.451C379.858 466.828 378.113 471.021 375.019 474.115C371.924 477.21 367.731 478.954 363.355 478.967Z" fill="#192F54"/>
<path d="M363.355 330.322C367.731 330.336 371.924 332.08 375.019 335.174C378.114 338.269 379.858 342.462 379.871 346.839V478.968C379.871 483.348 378.131 487.549 375.033 490.646C371.936 493.744 367.735 495.484 363.355 495.484H148.645C144.265 495.484 140.064 493.744 136.966 490.646C133.869 487.549 132.129 483.348 132.129 478.968V346.839C132.142 342.462 133.886 338.269 136.981 335.174C140.075 332.08 144.269 330.336 148.645 330.322C135.504 330.322 122.901 325.102 113.609 315.81C104.317 306.518 99.0967 293.915 99.0967 280.774V512H412.903V280.774C412.903 293.915 407.683 306.518 398.391 315.81C389.099 325.102 376.496 330.322 363.355 330.322ZM272.516 181.677V189.935H231.226V132.129H239.484V181.677H272.516Z" fill="#365587"/>
<path d="M198.193 148.645H239.484V132.129H198.193C171.911 132.129 146.706 142.569 128.121 161.154C109.537 179.738 99.0967 204.944 99.0967 231.226V280.774C99.0948 287.735 100.565 294.617 103.412 300.969C106.258 307.321 110.416 312.999 115.613 317.63V231.226C115.613 209.324 124.313 188.319 139.8 172.832C155.287 157.345 176.292 148.645 198.193 148.645ZM313.806 132.129H272.516V148.645H313.806C335.708 148.645 356.713 157.345 372.2 172.832C387.687 188.319 396.387 209.324 396.387 231.226V317.63C401.583 312.999 405.741 307.321 408.588 300.969C411.434 294.617 412.905 287.735 412.903 280.774V231.226C412.903 204.944 402.463 179.738 383.878 161.154C365.294 142.569 340.088 132.129 313.806 132.129Z" fill="#365587"/>
<path d="M363.355 330.322H355.097C357.287 330.322 359.387 331.192 360.936 332.741C362.485 334.29 363.355 336.39 363.355 338.58V346.838C363.355 351.219 361.615 355.42 358.517 358.517C355.42 361.614 351.219 363.355 346.839 363.355H165.161C160.781 363.355 156.58 361.614 153.483 358.517C150.385 355.42 148.645 351.219 148.645 346.838V338.58C148.645 336.39 149.515 334.29 151.064 332.741C152.612 331.192 154.713 330.322 156.903 330.322H148.645C144.269 330.335 140.075 332.08 136.981 335.174C133.886 338.269 132.142 342.462 132.129 346.838V379.871H379.871V346.838C379.858 342.462 378.113 338.269 375.019 335.174C371.924 332.08 367.731 330.335 363.355 330.322Z" fill="#BD731C"/>
<path d="M355.097 462.452H156.903C150.333 462.452 144.031 459.842 139.385 455.196C134.739 450.55 132.129 444.248 132.129 437.678V462.452C132.142 466.828 133.886 471.022 136.981 474.116C140.075 477.211 144.269 478.955 148.645 478.968H363.355C367.731 478.955 371.924 477.211 375.019 474.116C378.113 471.022 379.858 466.828 379.871 462.452V437.678C379.871 444.248 377.261 450.55 372.615 455.196C367.969 459.842 361.667 462.452 355.097 462.452Z" fill="#B0582A"/>
<path d="M181.677 379.871H379.871V388.129H181.677V379.871ZM181.677 412.903V421.161H148.645V388.129H132.129V379.871H156.903V412.903H181.677Z" fill="#994D25"/>
<path d="M156.903 379.871V412.903H181.677V379.871H173.419V404.645H165.161V379.871H156.903Z" fill="#234275"/>
<path d="M293.161 90.8389H218.839C211.997 90.8389 206.452 96.3848 206.452 103.226C206.452 110.067 211.997 115.613 218.839 115.613H293.161C300.002 115.613 305.548 110.067 305.548 103.226C305.548 96.3848 300.002 90.8389 293.161 90.8389Z" fill="#FFBE4F"/>
</g>
<defs>
<clipPath id="clip0_169_997">
<rect width="512" height="512" fill="white"/>
</clipPath>
</defs>
</svg>
