<svg width="512" height="512" viewBox="0 0 512 512" fill="none" xmlns="http://www.w3.org/2000/svg">
<g clip-path="url(#clip0_169_1091)">
<g clip-path="url(#clip1_169_1091)">
<path d="M118.117 63.561L112.881 96.941L81.102 100.576L17.541 61.689C21.8435 47.0658 29.7464 33.7559 40.5257 22.9784C51.305 12.2008 64.6162 4.30016 79.24 0L118.117 63.561Z" fill="#EAEAEA"/>
<path d="M109.106 399.216C109.106 399.216 222.153 339.608 291.993 339.608L312.033 359.648C242.193 359.648 129.146 419.256 129.146 419.256L109.106 399.216Z" fill="#FEC755"/>
<path d="M113.384 403.494C113.384 403.494 172.992 290.447 172.992 220.607L152.952 200.567C152.952 270.407 93.344 383.454 93.344 383.454L113.384 403.494Z" fill="#FEC755"/>
<path d="M129.15 419.255L98.089 450.306L86.879 461.527L64.479 483.927L53.258 495.148L40.884 507.511C34.909 513.497 25.211 513.497 19.225 507.511L5.08496 493.371C-0.901041 487.385 -0.901041 477.698 5.08496 471.712L17.459 459.338L28.68 448.128L51.08 425.728L62.29 414.507L93.341 383.456L129.15 419.255Z" fill="#38ABF9"/>
<path d="M18.545 485.173L106.803 396.915L93.343 383.455L5.08499 471.713C-0.896007 477.694 -0.896007 487.391 5.08499 493.371L18.545 506.831C12.565 500.85 12.565 491.153 18.545 485.173Z" fill="#2BA0E2"/>
<path d="M64.479 483.927L53.258 495.147L17.459 459.338L28.68 448.127L64.479 483.927ZM98.089 450.306L86.878 461.527L51.079 425.728L62.289 414.507L98.089 450.306Z" fill="#3B4C5B"/>
<path d="M496.091 186.993C494.802 185.704 493.053 184.98 491.23 184.98C489.407 184.98 487.659 185.704 486.37 186.993L483.922 189.441C483.731 189.183 483.523 188.94 483.298 188.712L459.603 165.017L483.974 140.646L484.811 141.483C485.449 142.122 486.206 142.629 487.04 142.975C487.875 143.32 488.769 143.498 489.672 143.497C491.032 143.497 492.361 143.095 493.492 142.339C494.623 141.584 495.504 140.51 496.025 139.254C496.545 137.998 496.681 136.615 496.416 135.282C496.15 133.948 495.495 132.723 494.533 131.762L493.696 130.925L495.714 128.907C496.986 127.614 497.696 125.871 497.689 124.058C497.682 122.244 496.958 120.507 495.676 119.224C494.393 117.942 492.656 117.218 490.842 117.211C489.028 117.204 487.285 117.913 485.993 119.186L483.975 121.204L459.597 96.8258L477.95 78.4728C479.222 77.1802 479.932 75.4372 479.925 73.6235C479.918 71.8099 479.194 70.0725 477.912 68.7901C476.629 67.5076 474.892 66.7839 473.078 66.7768C471.264 66.7696 469.521 67.4795 468.229 68.7518L449.876 87.1048L425.499 62.7278L443.86 44.3668C445.132 43.0742 445.842 41.3312 445.835 39.5175C445.828 37.7039 445.104 35.9665 443.822 34.6841C442.539 33.4016 440.802 32.6779 438.988 32.6708C437.174 32.6636 435.431 33.3735 434.139 34.6458L415.777 53.0068L391.399 28.6288L393.424 26.6038C394.696 25.3112 395.406 23.5682 395.399 21.7545C395.392 19.9409 394.668 18.2035 393.386 16.9211C392.103 15.6386 390.366 14.9149 388.552 14.9078C386.739 14.9006 384.995 15.6105 383.703 16.8828L381.678 18.9078L374.278 11.5078C372.985 10.2355 371.242 9.5256 369.429 9.53277C367.615 9.53994 365.878 10.2636 364.595 11.5461C363.313 12.8285 362.589 14.5659 362.582 16.3795C362.575 18.1932 363.285 19.9362 364.557 21.2288L371.957 28.6288L347.586 52.9998L323.892 29.3058C323.664 29.0808 323.42 28.8722 323.163 28.6818L325.611 26.2338C326.883 24.9412 327.593 23.1982 327.586 21.3845C327.579 19.5709 326.855 17.8335 325.573 16.5511C324.29 15.2686 322.553 14.5449 320.739 14.5378C318.925 14.5306 317.183 15.2405 315.89 16.5128L279.394 53.0078L276.211 49.8248C274.918 48.5525 273.175 47.8426 271.362 47.8498C269.548 47.8569 267.811 48.5806 266.528 49.8631C265.246 51.1455 264.522 52.8829 264.515 54.6965C264.508 56.5102 265.218 58.2532 266.49 59.5458L269.673 62.7288L245.295 87.1068L238.278 80.0898C237.641 79.4432 236.883 78.929 236.047 78.5768C235.211 78.2246 234.313 78.0415 233.406 78.0379C232.499 78.0343 231.6 78.2103 230.761 78.5559C229.922 78.9014 229.16 79.4096 228.518 80.0512C227.877 80.6927 227.369 81.4549 227.023 82.2938C226.677 83.1327 226.501 84.0317 226.505 84.939C226.509 85.8463 226.692 86.7439 227.044 87.58C227.396 88.4162 227.91 89.1743 228.557 89.8108L235.574 96.8278L211.196 121.206L208.802 118.812C207.509 117.539 205.766 116.83 203.953 116.837C202.139 116.844 200.402 117.568 199.119 118.85C197.837 120.133 197.113 121.87 197.106 123.684C197.099 125.497 197.809 127.24 199.081 128.533L201.475 130.927L176.513 155.888C175.327 155.538 174.069 155.514 172.871 155.819C171.672 156.124 170.578 156.746 169.704 157.62C168.829 158.494 168.206 159.588 167.902 160.786C167.597 161.985 167.621 163.243 167.972 164.429L166.882 165.519C165.92 166.48 165.265 167.705 164.999 169.039C164.734 170.372 164.87 171.755 165.39 173.011C165.91 174.267 166.792 175.341 167.923 176.096C169.054 176.852 170.383 177.254 171.743 177.254C172.646 177.255 173.54 177.077 174.374 176.732C175.209 176.386 175.966 175.879 176.604 175.24L177.103 174.741L201.475 199.111L177.097 223.489L169.697 216.089C168.404 214.816 166.661 214.107 164.848 214.114C163.034 214.121 161.297 214.845 160.014 216.127C158.732 217.41 158.008 219.147 158.001 220.961C157.994 222.774 158.704 224.517 159.976 225.81L167.376 233.21L164.727 235.859C163.765 236.82 163.11 238.045 162.844 239.379C162.579 240.712 162.715 242.095 163.235 243.351C163.755 244.607 164.637 245.681 165.768 246.436C166.899 247.192 168.228 247.594 169.588 247.594C170.491 247.595 171.385 247.417 172.219 247.072C173.054 246.726 173.811 246.219 174.449 245.58L177.098 242.931L201.476 267.309L186.322 282.463C185.36 283.424 184.705 284.649 184.439 285.983C184.174 287.316 184.31 288.699 184.83 289.955C185.35 291.211 186.232 292.285 187.363 293.04C188.494 293.796 189.823 294.198 191.183 294.198C192.086 294.199 192.98 294.021 193.814 293.676C194.649 293.33 195.406 292.823 196.044 292.184L211.198 277.03L235.576 301.409L220.429 316.556C219.467 317.517 218.812 318.742 218.546 320.076C218.281 321.409 218.417 322.792 218.937 324.048C219.457 325.304 220.339 326.378 221.47 327.133C222.601 327.889 223.93 328.291 225.29 328.291C226.193 328.292 227.087 328.114 227.921 327.769C228.756 327.423 229.513 326.916 230.151 326.277L245.298 311.13L269.676 335.508L267.034 338.15C266.072 339.111 265.417 340.336 265.151 341.67C264.886 343.003 265.022 344.386 265.542 345.642C266.062 346.898 266.944 347.972 268.075 348.727C269.206 349.483 270.535 349.885 271.895 349.885C272.798 349.886 273.692 349.708 274.526 349.363C275.361 349.017 276.118 348.51 276.756 347.871L280.429 344.198C280.709 344.232 280.99 344.256 281.271 344.256C283.031 344.256 284.79 343.584 286.132 342.242C286.871 341.503 287.431 340.605 287.77 339.616C288.109 338.628 288.217 337.575 288.087 336.538L313.496 311.129L337.867 335.5L337.368 335.999C336.406 336.96 335.751 338.185 335.485 339.519C335.22 340.852 335.356 342.235 335.876 343.491C336.396 344.747 337.278 345.821 338.409 346.576C339.54 347.332 340.869 347.734 342.229 347.734C343.132 347.735 344.026 347.557 344.86 347.212C345.695 346.866 346.452 346.359 347.09 345.72L348.18 344.63C348.815 344.817 349.471 344.91 350.127 344.91C351.887 344.91 353.646 344.238 354.988 342.896C355.863 342.022 356.485 340.928 356.79 339.73C357.095 338.532 357.071 337.273 356.72 336.088L381.681 311.127L384.075 313.521C384.713 314.16 385.47 314.667 386.304 315.013C387.139 315.358 388.033 315.536 388.936 315.535C390.296 315.535 391.625 315.133 392.756 314.377C393.887 313.622 394.768 312.548 395.289 311.292C395.809 310.036 395.945 308.653 395.68 307.32C395.414 305.986 394.759 304.761 393.797 303.8L391.403 301.406L415.781 277.028L422.798 284.045C423.436 284.684 424.193 285.191 425.027 285.537C425.862 285.882 426.756 286.06 427.659 286.059C429.019 286.059 430.348 285.657 431.479 284.901C432.61 284.146 433.491 283.072 434.012 281.816C434.532 280.56 434.668 279.177 434.403 277.844C434.137 276.51 433.482 275.285 432.52 274.324L425.503 267.307L449.881 242.929L453.064 246.112C454.406 247.454 456.166 248.126 457.925 248.126C459.684 248.126 461.444 247.454 462.786 246.112C463.424 245.474 463.931 244.716 464.276 243.882C464.622 243.048 464.8 242.154 464.8 241.251C464.8 240.349 464.622 239.455 464.276 238.621C463.931 237.787 463.424 237.029 462.786 236.391L459.603 233.208L496.099 196.712C497.385 195.421 498.107 193.673 498.105 191.851C498.104 190.028 497.379 188.281 496.091 186.993ZM474.252 130.926L449.881 155.297L425.503 130.919L449.874 106.548L474.252 130.926ZM323.205 165.018L347.583 140.64L371.961 165.018L347.583 189.395L323.205 165.018ZM337.861 199.118L313.483 223.496L289.105 199.118L313.483 174.74L337.861 199.118ZM357.304 130.919L381.682 106.541L406.06 130.919L381.682 155.297L357.304 130.919ZM347.582 121.198L323.204 96.8198L347.582 72.4418L371.96 96.8198L347.582 121.198ZM337.861 130.919L313.483 155.297L289.105 130.919L313.483 106.541L337.861 130.919ZM303.762 165.018L279.384 189.396L255.006 165.018L279.384 140.64L303.762 165.018ZM269.662 199.118L245.291 223.489L220.913 199.111L245.284 174.74L269.662 199.118ZM279.383 208.84L303.761 233.218L279.39 257.589L255.012 233.211L279.383 208.84ZM313.483 242.94L337.861 267.318L313.49 291.689L289.112 267.311L313.483 242.94ZM323.204 233.218L347.582 208.84L371.96 233.218L347.582 257.596L323.204 233.218ZM357.305 199.118L381.683 174.741L406.061 199.119L381.683 223.497L357.305 199.118ZM391.403 165.018L415.781 140.64L440.159 165.018L415.781 189.396L391.403 165.018ZM440.152 96.8268L415.781 121.198L391.403 96.8198L415.774 72.4488L440.152 96.8268ZM381.675 38.3488L406.053 62.7268L381.682 87.0978L357.304 62.7198L381.675 38.3488ZM313.543 38.2968C313.733 38.5498 313.936 38.7948 314.167 39.0258L337.861 62.7198L313.483 87.0978L289.112 62.7268L313.543 38.2968ZM279.391 72.4478L303.762 96.8188L279.384 121.197L255.013 96.8258L279.391 72.4478ZM245.291 106.548L269.662 130.919L245.284 155.297L220.913 130.926L245.291 106.548ZM186.821 165.018L211.192 140.647L235.563 165.018L211.192 189.389L186.821 165.018ZM186.813 233.21L211.191 208.832L235.569 233.21L211.191 257.588L186.813 233.21ZM220.913 267.31L245.291 242.932L269.669 267.31L245.291 291.688L220.913 267.31ZM279.391 325.788L255.013 301.411L279.391 277.033L303.769 301.411L279.391 325.788ZM347.582 325.78L323.211 301.409L347.582 277.038L371.953 301.409L347.582 325.78ZM381.675 291.688L357.304 267.317L381.682 242.939L406.053 267.31L381.675 291.688ZM415.774 257.589L391.403 233.218L415.781 208.84L440.152 233.211L415.774 257.589ZM425.504 199.118L449.882 174.74L473.577 198.435C473.807 198.666 474.053 198.868 474.306 199.059L449.876 223.489L425.504 199.118Z" fill="#CCCCCC"/>
<path d="M468.432 44.1632C404.11 -20.1588 290.917 -11.2538 215.617 64.0572C140.307 139.357 131.402 252.55 195.724 316.872C260.046 381.194 373.239 372.289 448.549 296.989C523.849 221.678 532.754 108.486 468.432 44.1632ZM430.602 279.042C365.307 344.326 267.999 353.252 213.671 298.925C159.354 244.608 168.269 147.289 233.564 82.0052C298.848 16.7102 396.167 7.79519 450.484 62.1122C504.813 116.439 495.887 213.747 430.602 279.042Z" fill="#FEC755"/>
<path d="M142.336 110.517C141.028 113.727 139.085 116.641 136.625 119.083C134.197 121.517 131.312 123.448 128.136 124.764C124.96 126.08 121.555 126.755 118.117 126.75C114.679 126.753 111.275 126.077 108.099 124.761C104.923 123.445 102.038 121.516 99.609 119.083L81.101 100.575L118.116 63.5601L136.624 82.0681C144.324 89.7571 146.228 101.041 142.336 110.517Z" fill="#E21E43"/>
<path d="M142.336 110.517C139.181 111.809 135.804 112.474 132.395 112.474C128.957 112.477 125.553 111.801 122.377 110.485C119.201 109.169 116.316 107.24 113.887 104.807L95.3789 86.299L118.117 63.561L136.625 82.069C144.324 89.757 146.228 101.041 142.336 110.517Z" fill="#FC3552"/>
<path d="M95.379 86.2991L81.102 100.576L17.541 61.6891C21.0171 49.874 26.8527 38.8863 34.695 29.3901L95.379 86.2991Z" fill="#CCCCCC"/>
</g>
</g>
<defs>
<clipPath id="clip0_169_1091">
<rect width="512" height="512" fill="white"/>
</clipPath>
<clipPath id="clip1_169_1091">
<rect width="512" height="512" fill="white"/>
</clipPath>
</defs>
</svg>
