<svg width="512" height="512" viewBox="0 0 512 512" fill="none" xmlns="http://www.w3.org/2000/svg">
<g clip-path="url(#clip0_185_178)">
<rect width="512" height="512" fill="white"/>
<path d="M350.16 207.52L392 88.0004C409.527 87.6974 426.494 94.1746 439.36 106.08C447.311 113.593 453.609 122.681 457.851 132.764C462.094 142.846 464.188 153.703 464 164.64V169.6C464 185.92 456 202.16 424 226.64C415.619 233.464 408.521 241.726 403.04 251.04C383.301 283.59 376.667 322.424 384.48 359.68L398.56 431.36C399.506 436.263 399.695 441.281 399.12 446.24C398.56 450.64 397.76 456.72 397.04 463.2C395.745 474.387 390.4 484.713 382.014 492.229C373.628 499.745 362.781 503.932 351.52 504H350.56C341.512 503.968 332.694 501.147 325.307 495.922C317.92 490.697 312.323 483.321 309.28 474.8L272 376H296C296 376 336 304 336 248L350.16 207.52Z" fill="#FF8088"/>
<path d="M392 88.0002L350.16 207.52C313.949 198.793 281.164 179.462 256 152V144C256 144 324.8 75.2002 372.72 72.1602C376.974 79.6369 383.84 85.2782 392 88.0002Z" fill="#FFD0C4"/>
<path d="M368 54.72C367.987 60.8506 369.617 66.8726 372.72 72.16C324.8 75.2 256 144 256 144V96C256 96 296 40 368 40V54.72Z" fill="#FF8088"/>
<path d="M368 32V40C296 40 256 96 256 96V32H368Z" fill="#FFD0C4"/>
<path d="M256 8H368V32H256V8ZM350.16 207.52L336 248C305.877 238.876 278.423 222.568 256 200.48V152C281.164 179.462 313.949 198.793 350.16 207.52Z" fill="#FF8088"/>
<path d="M336 248C336 304 296 376 296 376H272L256 256V200.48C278.423 222.568 305.877 238.876 336 248ZM112 8H224C224 8 221.2 21.12 217.52 39.04C194.64 35.52 118.8 24 112 24V8Z" fill="#FFD0C4"/>
<path d="M195.76 194.96L200 136L208 192L216 376V384.4C216.003 400.098 214.068 415.736 210.24 430.96L206.16 447.52C202.228 463.182 193.323 477.147 180.781 487.318C168.239 497.49 152.736 503.32 136.6 503.933C120.463 504.546 104.563 499.909 91.2854 490.718C78.0077 481.528 68.0687 468.279 62.96 452.96L57.84 437.52C51.3419 417.962 48.0198 397.489 48 376.88V368L64 248C64 248 64 368 128 368C192 368 192 248 192 248L195.76 194.96ZM217.52 39.04C215.44 48.8 213.2 60 210.96 71.28L106.56 56.4C109.267 45.7692 111.087 34.932 112 24C118.8 24 194.64 35.52 217.52 39.04Z" fill="#FF8088"/>
<path d="M106.56 56.4004L210.96 71.2804C209.84 76.9604 208.72 82.6404 207.68 88.2404L148.72 122.88C131.44 96.0804 112 67.6804 105.92 58.8004C106.16 58.0004 106.32 57.2004 106.56 56.4004Z" fill="#FFD0C4"/>
<path d="M168.96 153.44L139.12 170.24L72 208L69.36 207.68L74.88 166.32L119.36 140.08L148.72 122.88L207.68 88.2402C204.223 104.003 201.659 119.948 200 136L168.96 153.44Z" fill="#FF8088"/>
<path d="M200 136L195.76 194.96C188.72 185.52 179.2 168.8 168.96 153.44L200 136Z" fill="#FFD0C4"/>
<path d="M195.76 194.959L192 247.999C180.8 233.039 159.04 200.559 139.12 170.239L168.96 153.439C179.2 168.799 188.72 185.519 195.76 194.959Z" fill="#FF8088"/>
<path d="M192 248C192 248 192 368 128 368C64 368 64 248 64 248L69.36 207.68L72 208L139.12 170.24C159.04 200.56 180.8 233.04 192 248Z" fill="#FFD0C4"/>
<path d="M148.72 122.88L119.36 140.08C105.76 119.2 96 104 96 104L93.52 103.12C93.68 102.56 93.92 102 94.08 101.44C98.64 87.8398 102.88 72.3998 105.92 58.7998C112 67.6798 131.44 96.0798 148.72 122.88Z" fill="#FF8088"/>
<path d="M119.36 140.079L74.88 166.319L75.84 159.279C78.48 139.599 87.04 121.759 93.52 103.119L96 103.999C96 103.999 105.76 119.199 119.36 140.079Z" fill="#FFD0C4"/>
<path d="M120 472C24 464 64 264 64 264L64.336 257.6C64 251.64 64 248 64 248L48 368V376.88C48.0198 397.489 51.3419 417.962 57.84 437.52L62.96 452.96C68.064 468.283 78.0013 481.538 91.2797 490.732C104.558 499.927 120.461 504.566 136.6 503.953C152.74 503.34 168.245 497.508 180.788 487.332C193.33 477.156 202.233 463.187 206.16 447.52L210.24 430.96C214.068 415.736 216.003 400.098 216 384.4V376L214 329.912C208.736 382.656 189.6 477.8 120 472Z" fill="#FF5C67"/>
<path d="M210.656 8H112V24C117.168 24 162.208 30.656 193.6 35.392C199.086 26.1389 204.773 17.0061 210.656 8Z" fill="#FFE5DE"/>
<path d="M193.6 35.392C162.208 30.656 117.168 24 112 24C111.087 34.932 109.267 45.7692 106.56 56.4L176.16 66.32C181.715 55.867 187.53 45.5545 193.6 35.392Z" fill="#FF9EA4"/>
<path d="M150.44 121.872C157.889 102.856 166.475 84.3052 176.152 66.3204L106.552 56.4004C106.312 57.2004 106.152 58.0004 105.912 58.8004C111.992 67.6804 131.432 96.0804 148.712 122.88L150.44 121.872Z" fill="#FFE5DE"/>
<path d="M136.592 171.663C139.369 154.608 144.013 137.911 150.44 121.871L148.72 122.879L119.36 140.079L74.88 166.319L69.36 207.679L72 207.999L136.592 171.663Z" fill="#FF9EA4"/>
<path d="M64.536 260.801L64.728 263.449L64.784 264.113C64.896 265.521 65.024 267.001 65.168 268.537L65.376 270.689L65.576 272.545L65.752 274.145C101.128 328.225 128.664 242.145 136 176.065C136.16 174.641 136.384 173.177 136.592 171.729L72 208.001L69.36 207.681L64 248.001C64 248.001 64 251.641 64.336 257.601L64.496 260.217L64.536 260.801Z" fill="#FFE5DE"/>
<path d="M119.36 140.08L148.72 122.88C131.44 96.0798 112 67.6798 105.92 58.7998C102.88 72.3998 98.64 87.8398 94.08 101.44C93.92 102 93.68 102.56 93.52 103.12L96 104C96 104 105.76 119.2 119.36 140.08Z" fill="#FF9EA4"/>
<path d="M96 103.999L93.52 103.119C87.04 121.759 78.48 139.599 75.84 159.279L74.88 166.319L119.36 140.079C105.76 119.199 96 103.999 96 103.999Z" fill="#FFE5DE"/>
<path d="M344 280C345.062 242.126 359.137 205.772 383.856 177.056C385.209 175.419 386.086 173.44 386.39 171.338C386.694 169.235 386.413 167.089 385.579 165.135C384.745 163.181 383.389 161.495 381.659 160.26C379.93 159.026 377.895 158.291 375.776 158.136C373.08 157.928 370.416 157.584 367.776 157.152L350.176 207.552L336 248C336 304 296 376 296 376H272L308.568 472.92C377.72 466.4 344 346.192 344 280Z" fill="#FF9EA4"/>
<path d="M350.16 207.519L367.76 157.119C353.269 154.687 339.585 148.776 327.881 139.893C316.176 131.01 306.801 119.421 300.56 106.119C284.885 117.746 269.999 130.401 256 143.999V151.999C281.164 179.461 313.949 198.792 350.16 207.519Z" fill="#FFE5DE"/>
<path d="M292 72.0882L291.568 63.4482C277.994 72.2579 265.975 83.2578 256 96.0002V144C270 130.413 284.886 117.769 300.56 106.152C295.507 95.4664 292.599 83.8933 292 72.0882Z" fill="#FF9EA4"/>
<path d="M291.576 63.448L290 32H256V96C265.977 83.2569 277.999 72.2569 291.576 63.448Z" fill="#FFE5DE"/>
<path d="M288.8 8H256V32H290L288.8 8ZM350.16 207.52C313.949 198.793 281.164 179.462 256 152V200.48C278.423 222.568 305.877 238.876 336 248L350.16 207.52Z" fill="#FF9EA4"/>
<path d="M336 248C305.877 238.876 278.423 222.568 256 200.48V256L272 376H296C296 376 336 304 336 248Z" fill="#FFE5DE"/>
<path d="M446.904 114.256C444.376 139.816 436 185.6 408 208C368 240 360 288 360 320C360 352 384 416 376 456C374.722 462.789 371.714 469.133 367.265 474.418C362.817 479.703 357.08 483.751 350.609 486.168C344.137 488.586 337.152 489.292 330.328 488.219C323.504 487.145 317.072 484.328 311.656 480.04C315.31 487.225 320.876 493.263 327.739 497.49C334.603 501.717 342.499 503.97 350.56 504H351.52C362.781 503.932 373.628 499.745 382.014 492.228C390.4 484.712 395.745 474.386 397.04 463.2C397.76 456.72 398.56 450.64 399.12 446.24C399.695 441.28 399.506 436.262 398.56 431.36L384.48 359.68C376.667 322.423 383.301 283.59 403.04 251.04C408.521 241.726 415.619 233.463 424 226.64C456 202.16 464 185.92 464 169.6V164.64C464.164 146.395 458.137 128.633 446.904 114.256Z" fill="#FF5C67"/>
</g>
<defs>
<clipPath id="clip0_185_178">
<rect width="512" height="512" fill="white"/>
</clipPath>
</defs>
</svg>
