<svg width="512" height="512" viewBox="0 0 512 512" fill="none" xmlns="http://www.w3.org/2000/svg">
<g clip-path="url(#clip0_169_1138)">
<g clip-path="url(#clip1_169_1138)">
<path d="M512 256C512 347.332 464.172 427.494 392.196 472.804C390.792 473.688 385.912 470.976 384.49 471.833C378.334 475.543 372.025 478.992 365.579 482.17C363.912 482.992 365.7 487.379 364.013 488.165C331.195 503.46 294.596 512 256.002 512C205.374 512 158.178 497.303 118.449 471.943C116.307 470.576 116.462 464.854 114.365 463.426C109.227 459.927 104.217 456.242 99.3459 452.38C97.7019 451.076 93.7979 454.076 92.1869 452.733C35.8529 405.773 0.00292969 335.073 0.00292969 256C0.00292969 114.615 114.618 0 256.002 0C397.386 0 512 114.615 512 256Z" fill="#00E294"/>
<path d="M469.96 224.922C469.96 337.835 378.426 429.369 265.514 429.369C152.602 429.369 61.0691 337.835 61.0691 224.922C61.0691 112.009 152.602 20.4751 265.514 20.4751C378.426 20.4751 469.96 112.009 469.96 224.922Z" fill="#00F3A7"/>
<path d="M492.694 232.705C490.253 239.071 484.185 242.98 477.752 242.98C475.847 242.98 473.91 242.637 472.026 241.915L408.908 217.71C408.323 217.486 407.751 217.228 407.196 216.937C405.54 216.316 403.998 215.425 402.633 214.299L349.79 170.78C342.97 165.163 341.993 155.079 347.611 148.258C353.228 141.437 363.31 140.461 370.133 146.079L421.24 188.168L483.483 212.038C491.735 215.2 495.859 224.454 492.694 232.705Z" fill="#6E61B7"/>
<path d="M300.012 168.461L224.754 209.468C222.422 210.734 219.81 211.397 217.157 211.397C211.471 211.397 205.964 208.358 203.069 203.004C198.866 195.231 201.76 185.523 209.533 181.319L284.791 140.312C292.561 136.11 302.273 139.002 306.475 146.776C310.678 154.549 307.784 164.258 300.012 168.461Z" fill="#54469D"/>
<path d="M226.939 61.8001L218.013 124.336C213.724 154.386 186.738 175.599 156.876 173.108C127.51 167.145 107.536 139.229 111.826 109.179L120.752 46.6431C121.682 40.0773 123.751 33.7244 126.868 27.8711C150.055 -15.6209 216.225 -6.17587 226.318 42.0661C227.674 48.5576 227.884 55.2362 226.939 61.8001Z" fill="#FFF261"/>
<path d="M172.428 416.638L118.278 471.834C109.188 466.022 100.474 459.641 92.187 452.732L144.89 398.962L143.039 330.318C142.801 321.485 149.768 314.131 158.601 313.893C158.748 313.889 158.895 313.887 159.04 313.887C167.678 313.887 174.792 320.769 175.026 329.456L177.061 404.94C177.12 407.102 176.739 409.253 175.943 411.264C175.147 413.274 173.951 415.103 172.428 416.638Z" fill="#FFBD86"/>
<path d="M231.568 296.174L211.242 493.657C210.394 501.89 203.445 508.02 195.346 508.02C194.798 508.02 194.245 507.992 193.689 507.935C184.898 507.03 178.506 499.171 179.411 490.381L199.737 292.898C200.642 284.107 208.512 277.717 217.291 278.62C226.081 279.525 232.472 287.384 231.568 296.174Z" fill="#FED2A4"/>
<path d="M246.057 503.73C246.057 504.816 245.843 505.891 245.428 506.895C245.012 507.898 244.403 508.81 243.635 509.578C242.867 510.345 241.955 510.955 240.952 511.37C239.949 511.786 238.873 512 237.787 512H182.851C181.284 512 179.782 511.377 178.674 510.27C177.566 509.162 176.944 507.659 176.944 506.093L179.86 486.009H228.335C238.122 486.009 246.057 493.943 246.057 503.73Z" fill="#FF4FB8"/>
<path d="M316.081 208.43C313.307 213.254 308.258 215.953 303.065 215.953C300.528 215.953 297.957 215.309 295.599 213.953L252.696 189.273C247.149 186.082 240.435 186.284 234.775 189.271C233.268 190.066 231.644 190.499 229.951 190.499H140.155C134.822 190.499 130.171 186.199 127.715 179.827C126.214 175.932 123.256 172.772 119.577 170.799L65.2179 141.645C58.0979 137.827 54.9079 129.069 58.3899 121.779C62.1059 113.998 71.5139 110.98 79.0239 115.007L125.558 139.964C132.664 143.775 141.106 144.309 148.582 141.288C153.907 139.136 159.82 137.938 166.048 137.938H204.058C211.768 137.938 232.213 142.882 235.428 144.73L310.558 187.948C317.739 192.079 320.212 201.249 316.081 208.43Z" fill="#FFBD86"/>
<path d="M73.062 139.115C71.4462 139.893 69.6761 140.297 67.883 140.297C65.6189 140.298 63.4006 139.659 61.4844 138.453C59.5682 137.247 58.0323 135.524 57.054 133.482L24.408 65.392C24.2248 65.5248 24.033 65.6454 23.834 65.753L14.057 71.022C12.8925 71.6192 11.5404 71.7362 10.2906 71.3478C9.04093 70.9594 7.99325 70.0966 7.37241 68.9446C6.75157 67.7926 6.60704 66.4431 6.96985 65.1857C7.33265 63.9283 8.17386 62.8632 9.31299 62.219L10.827 61.403L8.67599 60.782C2.30799 58.945 -1.36501 52.294 0.47299 45.926C2.30899 39.557 8.95999 35.886 15.328 37.722L36.189 43.741C37.8146 44.2101 39.3227 45.0176 40.6142 46.1106C41.9058 47.2036 42.9516 48.5573 43.683 50.083L78.693 123.106C81.56 129.083 79.039 136.25 73.062 139.115Z" fill="#FED2A4"/>
<path d="M377.914 176.61C375.954 182.586 374.38 188.681 373.593 194.92L365.534 258.766L359.952 301.236H298.158L292.574 258.766L284.66 196.066C283.843 189.596 282.128 183.295 279.965 177.142C278.923 174.179 278.332 170.789 278.332 167.189C278.332 162.643 279.443 158.272 281.437 154.973C288.401 143.45 301.708 135.661 316.98 135.661H340.719C355.991 135.661 369.298 143.45 376.262 154.973C378.256 158.272 379.367 162.642 379.367 167.189C379.366 170.576 378.843 173.776 377.914 176.61Z" fill="#6354B2"/>
<path d="M317.544 258.766L323.127 301.236H285.34L279.756 258.766L271.842 196.066C271.025 189.596 269.311 183.295 267.147 177.142C266.105 174.179 265.513 170.789 265.513 167.189C265.513 162.643 266.624 158.272 268.618 154.973C275.582 143.45 288.889 135.661 304.161 135.661H340.717C340.923 135.661 341.128 135.663 341.332 135.666C326.318 135.872 313.274 143.606 306.404 154.973C304.41 158.272 303.299 162.643 303.299 167.189C303.299 170.79 303.891 174.179 304.933 177.142C307.097 183.294 308.812 189.595 309.629 196.066L317.544 258.766Z" fill="#54469D"/>
<path d="M369.437 59.8951C369.28 60.6 369.107 61.3015 368.92 61.9991L363.034 83.9681C359.341 97.7511 350.257 108.793 338.306 115.798V135.669C346.605 137.592 352.858 146.095 352.858 156.295C352.858 160.841 351.393 165.212 348.766 168.511C343.063 175.67 334.131 181.388 323.356 184.692C312.581 181.388 303.649 175.67 297.946 168.511C295.318 165.212 293.853 160.841 293.853 156.295C293.853 146.096 300.106 137.592 308.405 135.669V124.185C306.969 124.223 305.523 124.215 304.069 124.158C286.097 114.7 274.051 97.8211 271.757 79.4541L268.665 78.9451C264.102 78.1941 261.923 72.9061 264.631 69.1581L274.133 56.0071L278.985 37.8991C279.173 37.1981 279.375 36.5051 279.59 35.8191C295.5 -14.9079 381.022 8.00815 369.437 59.8951Z" fill="#EA9B58"/>
<path d="M373.428 73.4279V79.3859C373.428 85.9109 368.139 91.1999 361.614 91.1999H360.504C355.678 102.246 347.147 111.056 336.553 116.786C330.581 120.017 323.242 119.033 318.254 114.427C303.021 100.36 295.754 79.7799 301.089 59.8699L306.976 37.9009C307.163 37.2033 307.364 36.5098 307.581 35.8209C312.143 21.2739 322.431 12.7829 334.511 9.29492C356.569 15.0739 375.258 33.8279 369.438 59.8959C369.28 60.6007 369.108 61.3022 368.922 61.9999L368.443 63.7869C369.985 64.8776 371.243 66.3225 372.11 68.0002C372.977 69.6778 373.43 71.5393 373.428 73.4279Z" fill="#F6A96C"/>
<path d="M336.93 22.8968C336.93 35.2938 326.88 45.3438 314.483 45.3438C309.731 45.3515 305.1 43.8438 301.263 41.0398C298.405 42.495 295.243 43.2514 292.036 43.2468C280.797 43.2468 271.686 34.1358 271.686 22.8958C271.686 11.6558 280.797 2.54478 292.036 2.54478C295.358 2.54478 298.493 3.34078 301.263 4.75178C305.1 1.94802 309.731 0.44037 314.483 0.447781C326.881 0.449781 336.93 10.4998 336.93 22.8968Z" fill="#A44F3E"/>
<path d="M381.824 43.2479C381.824 55.6449 371.774 65.6949 359.377 65.6949C348.65 65.6949 339.68 58.1699 337.459 48.1099C327.936 45.5119 320.935 36.7999 320.935 26.4529C320.935 14.0559 330.985 4.00586 343.382 4.00586C354.109 4.00586 363.079 11.5309 365.3 21.5909C374.823 24.1889 381.824 32.9009 381.824 43.2479Z" fill="#BB5D4C"/>
<path d="M222.394 183.596C222.394 188.387 220.758 192.749 218.079 196.017L205.616 249.468H147.038L133.778 192.596C132.442 189.937 131.68 186.866 131.68 183.596C131.68 175.205 136.698 168.129 143.55 165.942C143.856 162.701 144.581 159.683 145.657 157.249C150.754 145.726 160.495 137.937 171.674 137.937H182.4C193.579 137.937 203.32 145.726 208.417 157.249C209.494 159.683 210.218 162.7 210.524 165.941C217.377 168.129 222.394 175.205 222.394 183.596Z" fill="#FF4FB8"/>
<path d="M238.427 183.596C238.427 188.387 236.791 192.749 234.112 196.017L221.649 249.468H177.336L164.076 192.596C162.74 189.937 161.978 186.866 161.978 183.596C161.978 175.205 166.996 168.129 173.848 165.942C174.154 162.701 174.879 159.683 175.955 157.249C180.781 146.339 189.771 138.776 200.203 138.003C210.635 138.776 219.624 146.339 224.45 157.25C225.527 159.684 226.251 162.701 226.557 165.942C233.409 168.129 238.427 175.205 238.427 183.596Z" fill="#FF73C6"/>
<path d="M503.475 256.7C501.493 258.047 499.151 258.767 496.755 258.766C494.792 258.769 492.859 258.29 491.125 257.37C489.391 256.451 487.909 255.121 486.81 253.495L472.512 232.389C468.794 226.902 470.23 219.441 475.716 215.724C477.316 214.638 479.156 213.956 481.077 213.735C482.999 213.514 484.945 213.762 486.75 214.457L497.051 216.323C498.187 216.528 499.217 217.119 499.966 217.997C500.716 218.875 501.138 219.985 501.162 221.139C501.186 222.293 500.81 223.42 500.098 224.328C499.386 225.237 498.381 225.871 497.255 226.123L506.68 240.036C510.397 245.522 508.961 252.983 503.475 256.7Z" fill="#EA9B58"/>
<path d="M231.653 305.383C186.588 302.808 144.262 414.098 111.246 393.205C77.644 371.941 144.274 237.611 144.274 237.611H224.413C224.414 237.611 247.083 306.265 231.653 305.383Z" fill="#FF4FB8"/>
<path d="M137.132 388.346C128.008 395.5 119.347 398.331 111.246 393.205C77.644 371.941 144.274 237.611 144.274 237.611H175.072C175.072 237.611 116.029 356.645 137.132 388.346Z" fill="#FF2AAA"/>
<path d="M206.02 124.658C204.449 125.567 202.664 126.043 200.849 126.035C200.328 126.033 199.806 126.026 199.285 126.012V144.277C199.285 151.769 193.212 157.842 185.72 157.842H182.949C175.457 157.842 169.384 151.769 169.384 144.277V117.625C159.604 111.892 151.744 103.456 147.187 93.0259H146.076C139.551 93.0259 134.262 87.7369 134.262 81.2119V75.2539C134.262 71.2729 136.231 67.7529 139.247 65.6119L138.768 63.8249C138.581 63.1274 138.409 62.4259 138.252 61.7209C126.667 9.83392 212.189 -13.0811 228.1 37.6469C228.315 38.3329 228.517 39.0269 228.704 39.7269L234.591 61.6959C241.123 86.0739 228.764 111.457 206.02 124.658Z" fill="#FFBD86"/>
<path d="M239.024 80.7729L235.932 81.2819C233.994 96.7999 225.094 111.256 211.54 121.071C196.244 114.587 184.318 102.112 179.945 85.7949L174.058 63.826C173.871 63.1282 173.699 62.4267 173.541 61.722C168.063 37.188 184.297 19.1309 204.616 12.2729C215.182 16.3069 223.976 24.5049 228.098 37.6469C228.313 38.3329 228.515 39.027 228.703 39.727L233.555 57.8349L243.057 70.986C245.766 74.734 243.587 80.0219 239.024 80.7729Z" fill="#FED2A4"/>
<path d="M186.754 28.279C186.754 38.626 179.753 47.337 170.23 49.936C168.008 59.995 159.039 67.521 148.311 67.521C135.914 67.521 125.864 57.471 125.864 45.074C125.864 34.727 132.865 26.016 142.388 23.417C144.609 13.358 153.579 5.83203 164.306 5.83203C176.704 5.83203 186.754 15.882 186.754 28.279Z" fill="#FFF261"/>
<path d="M236.002 23.659C236.002 35.486 226.414 45.074 214.587 45.074C211.229 45.074 208.052 44.301 205.224 42.924C201.377 45.4971 196.851 46.8673 192.222 46.86C179.282 46.86 168.792 36.37 168.792 23.43C168.792 10.49 179.282 0 192.222 0C197.204 0 201.823 1.555 205.619 4.206C208.43 2.90856 211.491 2.23872 214.587 2.243C226.415 2.243 236.002 11.831 236.002 23.659Z" fill="#FFFF8E"/>
<path d="M392.196 472.804C383.133 478.51 373.72 483.641 364.013 488.165L314.068 411.48C308.516 409.322 303.981 404.718 302.141 398.569L279.828 320.77C279.828 320.77 272.376 295.729 272.069 292.926C271.943 291.975 271.886 291.017 271.899 290.058C271.874 287.16 272.278 284.274 273.097 281.494L279.757 258.766H365.534L372.194 281.494C377.689 300.248 363.628 319.021 344.085 319.021H335.547C328.227 319.021 322.945 326.031 324.963 333.067L340.459 387.097C341.204 389.587 341.441 392.109 341.23 394.55L392.196 472.804Z" fill="#463B85"/>
<path d="M370.362 303.974L346.85 398.124C345.767 402.459 318.411 502.16 318.411 502.16C318.221 502.979 317.97 503.768 317.666 504.525C308.959 506.677 300.145 508.369 291.26 509.593C287.662 505.822 285.975 500.369 287.243 494.913C287.243 494.913 306.943 392.835 308.042 388.434L331.554 294.284C334.231 283.567 345.087 277.051 355.804 279.725C366.52 282.4 373.038 293.257 370.362 303.974Z" fill="#6354B2"/>
<path d="M322.825 486.009V506.093C322.825 507.659 322.203 509.162 321.095 510.27C319.987 511.377 318.485 512 316.918 512H261.982C259.789 512 257.685 511.128 256.134 509.578C254.583 508.027 253.712 505.923 253.712 503.73C253.712 493.943 261.646 486.009 271.433 486.009H322.825Z" fill="#00A4FB"/>
</g>
</g>
<defs>
<clipPath id="clip0_169_1138">
<rect width="512" height="512" fill="white"/>
</clipPath>
<clipPath id="clip1_169_1138">
<rect width="512" height="512" fill="white"/>
</clipPath>
</defs>
</svg>
