<svg width="512" height="512" viewBox="0 0 512 512" fill="none" xmlns="http://www.w3.org/2000/svg">
<g clip-path="url(#clip0_169_1232)">
<g clip-path="url(#clip1_169_1232)">
<path d="M256 508.318C395.352 508.318 508.319 395.352 508.319 256C508.319 116.648 395.352 3.68115 256 3.68115C116.648 3.68115 3.6814 116.648 3.6814 256C3.6814 395.352 116.648 508.318 256 508.318Z" fill="url(#paint0_linear_169_1232)"/>
<path d="M3.6814 256C3.6814 395.352 116.649 508.319 256 508.319C395.351 508.319 508.319 395.352 508.319 256C508.319 241.995 507.159 228.263 504.965 214.878H7.0355C4.80407 228.472 3.68234 242.225 3.6814 256Z" fill="url(#paint1_linear_169_1232)"/>
<path d="M343.854 371.24C346.207 369.179 345.956 365.467 343.373 363.703C337.659 359.798 331.346 356.081 324.452 352.575C288.723 334.404 238.891 322.919 180.344 319.363C106.37 314.867 52.7721 293.25 21.0392 255.11C14.1764 246.86 8.86362 238.45 4.75658 230.243C3.91831 228.568 1.4085 229.019 1.22679 230.883C0.409292 239.23 -0.00012634 247.613 2.92444e-08 256C2.92444e-08 302.524 12.4165 346.142 34.1102 383.735C53.1647 416.753 87.295 438.315 125.247 441.899C134.366 442.759 143.52 443.189 152.679 443.188C225.819 443.188 292.728 416.015 343.854 371.24Z" fill="url(#paint2_linear_169_1232)"/>
<path d="M343.854 371.24C346.207 369.179 345.956 365.467 343.373 363.703C337.659 359.798 331.346 356.081 324.452 352.575C288.723 334.404 238.891 322.919 180.344 319.363C106.37 314.867 52.7721 293.25 21.0392 255.11C14.1764 246.86 8.86362 238.45 4.75658 230.243C3.91831 228.568 1.4085 229.019 1.22679 230.883C0.409292 239.23 -0.00012634 247.613 2.92444e-08 256C2.92444e-08 302.524 12.4165 346.142 34.1102 383.735C53.1647 416.753 87.295 438.315 125.247 441.899C134.366 442.759 143.52 443.189 152.679 443.188C225.819 443.188 292.728 416.015 343.854 371.24Z" fill="url(#paint3_linear_169_1232)"/>
<path d="M341.981 244.142C360.339 262.496 378.01 281.527 394.957 301.193C397.081 303.658 400.993 303.328 402.655 300.53C408.021 291.497 412.891 282.178 417.245 272.616C417.556 271.924 417.697 271.167 417.656 270.409C417.615 269.651 417.393 268.914 417.009 268.26C415.179 265.105 413.436 261.9 411.784 258.648C392.685 221.094 380.643 169.217 376.962 108.626C375.661 87.2247 372.888 67.6844 368.661 50.0365C364.331 31.9578 350.839 17.4231 333.112 11.8272C308.777 4.1462 282.874 0 256 0C194.101 0 137.337 21.9728 93.0725 58.5387C91.136 60.1389 91.5175 63.1989 93.7883 64.2731C178.024 104.133 264.165 166.326 341.981 244.142Z" fill="url(#paint4_linear_169_1232)"/>
<path d="M388.42 322.246C389.038 321.384 389.349 320.341 389.305 319.282C389.261 318.223 388.864 317.209 388.177 316.402C370.364 295.434 351.378 274.835 331.331 254.788C253.016 176.472 166.292 114.313 81.9109 75.3484C78.8891 73.9529 75.3162 74.6406 72.9881 77.0199C50.4912 100.019 32.2901 127.236 19.6919 157.379C7.66993 186.143 11.7198 219.358 31.1788 243.715C31.7108 244.381 32.254 245.045 32.8081 245.708C61.8094 280.383 111.756 300.106 181.258 304.329C241.849 308.01 293.725 320.052 331.279 339.151C340.429 343.804 348.682 348.84 356.011 354.213C357.938 355.625 360.601 355.365 362.255 353.64C371.697 343.798 380.44 333.307 388.42 322.246Z" fill="url(#paint5_linear_169_1232)"/>
<path d="M443.191 152.677C443.191 185.675 437.666 217.407 427.47 246.997C427.303 247.478 426.99 247.894 426.575 248.189C426.161 248.484 425.664 248.642 425.156 248.641C424.695 248.643 424.243 248.514 423.852 248.269C423.462 248.024 423.149 247.674 422.949 247.258C406.086 211.894 395.4 163.808 391.992 107.711C390.464 82.5677 386.946 59.7837 381.489 39.4071C380.712 36.5078 383.873 34.1636 386.455 35.6956C397.389 42.1872 407.825 49.483 417.676 57.5229C426.469 64.6969 432.723 74.5343 435.348 85.5744C440.568 107.56 443.201 130.08 443.191 152.677Z" fill="url(#paint6_linear_169_1232)"/>
<path d="M458.247 152.679C458.247 192.452 450.694 231.063 436.277 266.881C435.684 268.353 435.842 270.032 436.745 271.338C451.013 292.003 467.764 304.716 485.933 308.468C489.489 309.205 493.109 309.595 496.74 309.634C502.436 309.694 507.265 305.518 508.237 299.907C510.745 285.406 512.003 270.716 512 256C512 195.73 491.161 140.333 456.308 96.5974C455.233 95.2481 453.07 96.233 453.375 97.9306C456.623 115.999 458.253 134.321 458.247 152.679Z" fill="url(#paint7_linear_169_1232)"/>
<path d="M497.397 324.704C492.554 324.704 487.714 324.211 482.888 323.216C463.679 319.25 446.069 307.471 430.914 288.676C429.625 287.077 427.132 287.351 426.213 289.189C421.487 298.631 416.271 307.82 410.585 316.718C410.266 317.215 410.113 317.799 410.148 318.388C410.182 318.977 410.402 319.54 410.776 319.996C430.127 343.592 448.005 367.61 464.261 391.805C466.408 395 471.117 394.878 473.158 391.617C485.225 372.341 494.656 351.536 501.2 329.757C501.956 327.241 500.077 324.704 497.45 324.705L497.397 324.704Z" fill="url(#paint8_linear_169_1232)"/>
<path d="M497.397 324.704C492.554 324.704 487.714 324.211 482.888 323.216C463.679 319.25 446.069 307.471 430.914 288.676C429.625 287.077 427.132 287.351 426.213 289.189C421.487 298.631 416.271 307.82 410.585 316.718C410.266 317.215 410.113 317.799 410.148 318.388C410.182 318.977 410.402 319.54 410.776 319.996C430.127 343.592 448.005 367.61 464.261 391.805C466.408 395 471.117 394.878 473.158 391.617C485.225 372.341 494.656 351.536 501.2 329.757C501.956 327.241 500.077 324.704 497.45 324.705L497.397 324.704Z" fill="url(#paint9_linear_169_1232)"/>
<path d="M457.225 408.411C440.85 383.427 422.688 358.591 402.915 334.18C401.758 332.752 399.568 332.813 398.471 334.289C390.537 344.976 381.921 355.14 372.677 364.717C372.169 365.244 371.887 365.948 371.89 366.68C371.893 367.412 372.182 368.114 372.694 368.637C384.91 381.268 392.752 395.278 395.844 410.259C400.366 432.156 394.513 454.366 379.303 475.57C377.92 477.496 380.113 479.963 382.175 478.792C411.083 462.383 436.476 440.504 456.965 414.57C457.648 413.701 458.041 412.638 458.088 411.533C458.134 410.428 457.832 409.336 457.225 408.411Z" fill="url(#paint10_linear_169_1232)"/>
<path d="M457.225 408.411C440.85 383.427 422.688 358.591 402.915 334.18C401.758 332.752 399.568 332.813 398.471 334.289C390.537 344.976 381.921 355.14 372.677 364.717C372.169 365.244 371.887 365.948 371.89 366.68C371.893 367.412 372.182 368.114 372.694 368.637C384.91 381.268 392.752 395.278 395.844 410.259C400.366 432.156 394.513 454.366 379.303 475.57C377.92 477.496 380.113 479.963 382.175 478.792C411.083 462.383 436.476 440.504 456.965 414.57C457.648 413.701 458.041 412.638 458.088 411.533C458.134 410.428 457.832 409.336 457.225 408.411Z" fill="url(#paint11_linear_169_1232)"/>
<path d="M302.038 507.864C327.113 503.304 349.748 489.696 365.148 469.388L365.392 469.066C379.567 450.241 384.85 431.479 381.099 413.303C378.703 401.702 372.649 390.679 363.209 380.51C361.448 378.614 358.484 378.543 356.559 380.272C300.442 430.668 228.685 458.248 152.681 458.248C135.43 458.253 118.208 456.814 101.196 453.945C98.6293 453.511 97.2007 456.803 99.2577 458.399C142.569 491.992 196.944 512 256 512C271.718 512 287.104 510.579 302.038 507.864Z" fill="url(#paint12_linear_169_1232)"/>
<path d="M302.038 507.864C327.113 503.304 349.748 489.696 365.148 469.388L365.392 469.066C379.567 450.241 384.85 431.479 381.099 413.303C378.703 401.702 372.649 390.679 363.209 380.51C361.448 378.614 358.484 378.543 356.559 380.272C300.442 430.668 228.685 458.248 152.681 458.248C135.43 458.253 118.208 456.814 101.196 453.945C98.6293 453.511 97.2007 456.803 99.2577 458.399C142.569 491.992 196.944 512 256 512C271.718 512 287.104 510.579 302.038 507.864Z" fill="url(#paint13_linear_169_1232)"/>
</g>
</g>
<defs>
<linearGradient id="paint0_linear_169_1232" x1="220.56" y1="200.746" x2="348.058" y2="399.522" gradientUnits="userSpaceOnUse">
<stop stop-color="#5A5A5A"/>
<stop offset="1" stop-color="#444444"/>
</linearGradient>
<linearGradient id="paint1_linear_169_1232" x1="256" y1="278.086" x2="256" y2="465.204" gradientUnits="userSpaceOnUse">
<stop stop-color="#433F43" stop-opacity="0"/>
<stop offset="1" stop-color="#1A1A1A"/>
</linearGradient>
<linearGradient id="paint2_linear_169_1232" x1="63.2551" y1="250.972" x2="226.141" y2="413.859" gradientUnits="userSpaceOnUse">
<stop stop-color="#FE9738"/>
<stop offset="1" stop-color="#EF4424"/>
</linearGradient>
<linearGradient id="paint3_linear_169_1232" x1="172.738" y1="357.396" x2="172.738" y2="444.568" gradientUnits="userSpaceOnUse">
<stop stop-color="#EF4424" stop-opacity="0"/>
<stop offset="1" stop-color="#883F2E"/>
</linearGradient>
<linearGradient id="paint4_linear_169_1232" x1="215.726" y1="36.2586" x2="450.674" y2="271.207" gradientUnits="userSpaceOnUse">
<stop stop-color="#FE9738"/>
<stop offset="1" stop-color="#EF4424"/>
</linearGradient>
<linearGradient id="paint5_linear_169_1232" x1="50.5735" y1="119.089" x2="327.772" y2="396.288" gradientUnits="userSpaceOnUse">
<stop stop-color="#FE9738"/>
<stop offset="1" stop-color="#EF4424"/>
</linearGradient>
<linearGradient id="paint6_linear_169_1232" x1="366.394" y1="109.538" x2="445.704" y2="172.785" gradientUnits="userSpaceOnUse">
<stop stop-color="#FE9738"/>
<stop offset="1" stop-color="#EF4424"/>
</linearGradient>
<linearGradient id="paint7_linear_169_1232" x1="409.441" y1="139.81" x2="503.81" y2="253.253" gradientUnits="userSpaceOnUse">
<stop stop-color="#FE9738"/>
<stop offset="1" stop-color="#EF4424"/>
</linearGradient>
<linearGradient id="paint8_linear_169_1232" x1="397.25" y1="248.433" x2="474.552" y2="348.826" gradientUnits="userSpaceOnUse">
<stop stop-color="#FE9738"/>
<stop offset="1" stop-color="#EF4424"/>
</linearGradient>
<linearGradient id="paint9_linear_169_1232" x1="438.55" y1="293.266" x2="481.719" y2="368.56" gradientUnits="userSpaceOnUse">
<stop stop-color="#EF4424" stop-opacity="0"/>
<stop offset="1" stop-color="#883F2E"/>
</linearGradient>
<linearGradient id="paint10_linear_169_1232" x1="317.261" y1="310.024" x2="394.563" y2="410.416" gradientUnits="userSpaceOnUse">
<stop stop-color="#FE9738"/>
<stop offset="1" stop-color="#EF4424"/>
</linearGradient>
<linearGradient id="paint11_linear_169_1232" x1="414.992" y1="358.734" x2="414.992" y2="450.514" gradientUnits="userSpaceOnUse">
<stop stop-color="#EF4424" stop-opacity="0"/>
<stop offset="1" stop-color="#883F2E"/>
</linearGradient>
<linearGradient id="paint12_linear_169_1232" x1="201.537" y1="389.772" x2="303.137" y2="491.372" gradientUnits="userSpaceOnUse">
<stop stop-color="#FE9738"/>
<stop offset="1" stop-color="#EF4424"/>
</linearGradient>
<linearGradient id="paint13_linear_169_1232" x1="240.272" y1="406.922" x2="240.272" y2="493.387" gradientUnits="userSpaceOnUse">
<stop stop-color="#EF4424" stop-opacity="0"/>
<stop offset="1" stop-color="#883F2E"/>
</linearGradient>
<clipPath id="clip0_169_1232">
<rect width="512" height="512" fill="white"/>
</clipPath>
<clipPath id="clip1_169_1232">
<rect width="512" height="512" fill="white"/>
</clipPath>
</defs>
</svg>
