<svg width="512" height="512" viewBox="0 0 512 512" fill="none" xmlns="http://www.w3.org/2000/svg">
<g clip-path="url(#clip0_169_1185)">
<g clip-path="url(#clip1_169_1185)">
<path d="M256 512C397.385 512 512 397.385 512 256C512 114.615 397.385 0 256 0C114.615 0 0 114.615 0 256C0 397.385 114.615 512 256 512Z" fill="#D35933"/>
<path d="M499.486 335.22L434.974 270.708L356.59 297.647L184.363 125.421L144.234 166.931V222.399L99.393 209.718L144.234 254.557V279.273L140.707 287.813L76.769 297.948L147.427 368.606L144.234 379.153V393.839L105.55 403.462L209.951 507.863C225.146 510.619 240.557 512.003 256 512C369.733 512 466.125 437.826 499.486 335.22Z" fill="#B54324"/>
<path d="M173.684 380.552H153.859V179.286C153.859 177 152.951 174.807 151.334 173.191C149.717 171.574 147.525 170.666 145.239 170.666C142.953 170.666 140.76 171.574 139.144 173.191C137.527 174.807 136.619 177 136.619 179.286V380.552H116.794C108.94 380.552 102.572 386.92 102.572 394.774C102.572 402.628 108.94 408.996 116.794 408.996H173.683C181.537 408.996 187.905 402.628 187.905 394.774C187.906 386.92 181.538 380.552 173.684 380.552Z" fill="white"/>
<path d="M398.222 380.552H378.397V284.444C378.397 282.158 377.489 279.966 375.872 278.349C374.256 276.732 372.063 275.824 369.777 275.824C367.491 275.824 365.298 276.732 363.682 278.349C362.065 279.966 361.157 282.158 361.157 284.444V380.552H341.332C333.478 380.552 327.11 386.92 327.11 394.774C327.11 402.628 333.478 408.996 341.332 408.996H398.221C406.075 408.996 412.443 402.628 412.443 394.774C412.444 386.92 406.076 380.552 398.222 380.552Z" fill="#D0D1D3"/>
<path d="M421.926 303.407H90.0738C79.6008 303.407 71.1108 294.917 71.1108 284.444C71.1108 273.971 79.6008 265.481 90.0738 265.481H421.926C432.399 265.481 440.889 273.971 440.889 284.444C440.889 294.917 432.399 303.407 421.926 303.407Z" fill="#FEE187"/>
<path d="M421.926 265.481H255.857V303.407H421.926C432.399 303.407 440.889 294.917 440.889 284.444C440.889 273.971 432.399 265.481 421.926 265.481Z" fill="#FFC61B"/>
<path d="M145.239 231.009C178.403 231.009 205.288 204.124 205.288 170.96C205.288 137.796 178.403 110.911 145.239 110.911C112.075 110.911 85.1899 137.796 85.1899 170.96C85.1899 204.124 112.075 231.009 145.239 231.009Z" fill="#3F3B3B"/>
<path d="M145.239 110.904C145.094 110.904 144.953 110.914 144.808 110.914V230.991C144.953 230.993 145.094 231.001 145.239 231.001C178.403 231.001 205.288 204.117 205.288 170.952C205.288 137.79 178.404 110.904 145.239 110.904Z" fill="#272525"/>
<path d="M145.239 219C171.771 219 193.279 197.492 193.279 170.96C193.279 144.428 171.771 122.92 145.239 122.92C118.707 122.92 97.1992 144.428 97.1992 170.96C97.1992 197.492 118.707 219 145.239 219Z" fill="#808183"/>
<path d="M145.239 122.914C145.094 122.914 144.953 122.924 144.808 122.924V218.982C144.953 218.984 145.094 218.992 145.239 218.992C171.77 218.992 193.279 197.485 193.279 170.954C193.279 144.423 171.77 122.914 145.239 122.914Z" fill="#59595B"/>
<path d="M145.239 187.944C154.619 187.944 162.223 180.34 162.223 170.96C162.223 161.58 154.619 153.976 145.239 153.976C135.859 153.976 128.255 161.58 128.255 170.96C128.255 180.34 135.859 187.944 145.239 187.944Z" fill="#3F3B3B"/>
<path d="M157.248 158.944C153.823 155.517 149.297 153.877 144.808 153.99V187.918C149.297 188.032 153.822 186.391 157.248 182.963C163.881 176.331 163.881 165.578 157.248 158.944Z" fill="#272525"/>
<path d="M145.239 177.511C148.857 177.511 151.79 174.578 151.79 170.96C151.79 167.342 148.857 164.409 145.239 164.409C141.621 164.409 138.688 167.342 138.688 170.96C138.688 174.578 141.621 177.511 145.239 177.511Z" fill="#FFEDB5"/>
</g>
</g>
<defs>
<clipPath id="clip0_169_1185">
<rect width="512" height="512" fill="white"/>
</clipPath>
<clipPath id="clip1_169_1185">
<rect width="512" height="512" fill="white"/>
</clipPath>
</defs>
</svg>
