<svg width="512" height="512" viewBox="0 0 512 512" fill="none" xmlns="http://www.w3.org/2000/svg">
<g clip-path="url(#clip0_169_1279)">
<path d="M118.586 469.82C170.824 469.82 213.171 427.473 213.171 375.235C213.171 322.998 170.824 280.65 118.586 280.65C66.3481 280.65 24.001 322.998 24.001 375.235C24.001 427.473 66.3481 469.82 118.586 469.82Z" fill="#EAEAE8"/>
<path d="M393.414 469.82C445.652 469.82 487.999 427.473 487.999 375.235C487.999 322.998 445.652 280.65 393.414 280.65C341.176 280.65 298.829 322.998 298.829 375.235C298.829 427.473 341.176 469.82 393.414 469.82Z" fill="#EAEAE8"/>
<path d="M118.586 407.116C136.193 407.116 150.467 392.842 150.467 375.235C150.467 357.628 136.193 343.354 118.586 343.354C100.979 343.354 86.7051 357.628 86.7051 375.235C86.7051 392.842 100.979 407.116 118.586 407.116Z" fill="#D5D5D3"/>
<path d="M393.414 399.235C406.669 399.235 417.414 388.49 417.414 375.235C417.414 361.981 406.669 351.235 393.414 351.235C380.159 351.235 369.414 361.981 369.414 375.235C369.414 388.49 380.159 399.235 393.414 399.235Z" fill="#D5D5D3"/>
<path d="M118.586 477.821C98.2964 477.821 78.4624 471.805 61.5921 460.533C44.7218 449.26 31.5729 433.239 23.8083 414.494C16.0436 395.749 14.0119 375.122 17.9701 355.222C21.9283 335.322 31.6986 317.043 46.0455 302.696C60.3923 288.349 78.6714 278.579 98.5712 274.62C118.471 270.662 139.098 272.693 157.843 280.458C176.588 288.222 192.61 301.371 203.882 318.241C215.154 335.111 221.171 354.945 221.171 375.235C221.141 402.433 210.323 428.509 191.091 447.741C171.86 466.973 145.784 477.791 118.586 477.821ZM118.586 288.65C101.461 288.65 84.7202 293.728 70.4811 303.242C56.2419 312.756 45.1438 326.279 38.5902 342.101C32.0366 357.922 30.3218 375.332 33.6627 392.128C37.0037 408.924 45.2502 424.352 57.3595 436.462C69.4688 448.571 84.8971 456.817 101.693 460.158C118.489 463.499 135.899 461.784 151.721 455.231C167.542 448.677 181.065 437.579 190.579 423.34C200.093 409.101 205.171 392.36 205.171 375.235C205.145 352.279 196.014 330.271 179.782 314.039C163.55 297.807 141.542 288.676 118.586 288.65ZM393.414 477.821C373.124 477.821 353.29 471.804 336.42 460.532C319.55 449.26 306.401 433.238 298.637 414.493C290.872 395.748 288.841 375.121 292.799 355.221C296.758 335.322 306.528 317.043 320.875 302.696C335.222 288.349 353.501 278.578 373.401 274.62C393.3 270.662 413.927 272.693 432.672 280.458C451.417 288.222 467.439 301.371 478.711 318.241C489.984 335.111 496 354.945 496 375.235C495.97 402.433 485.152 428.509 465.92 447.741C446.688 466.973 420.612 477.791 393.414 477.821ZM393.414 288.65C376.289 288.65 359.548 293.728 345.309 303.242C331.07 312.757 319.972 326.28 313.419 342.101C306.865 357.923 305.151 375.332 308.492 392.128C311.833 408.924 320.08 424.353 332.189 436.462C344.298 448.571 359.726 456.818 376.523 460.158C393.319 463.499 410.728 461.784 426.55 455.231C442.371 448.677 455.894 437.579 465.408 423.34C474.922 409.101 480 392.36 480 375.235C479.974 352.279 470.843 330.271 454.611 314.038C438.378 297.806 416.37 288.676 393.414 288.65Z" fill="#484A50"/>
<path d="M424.32 196.99C423.574 195.988 422.605 195.173 421.488 194.613C420.372 194.052 419.139 193.76 417.89 193.76H382.68C381.763 193.757 380.853 193.913 379.99 194.22L331.72 204.252C329.719 204.972 328.086 206.458 327.18 208.382C326.274 210.306 326.169 212.511 326.889 214.512L334.88 237.16C320.32 239.23 285.94 244.27 203.86 256.5L187.39 213.84H170.23L189.58 263.94L110.96 372.22C110.125 373.366 109.61 374.714 109.467 376.124C109.325 377.535 109.559 378.958 110.147 380.248C110.735 381.538 111.656 382.649 112.814 383.466C113.973 384.284 115.327 384.779 116.74 384.9L245.42 396.06C245.65 396.08 245.88 396.09 246.11 396.09C247.404 396.09 248.678 395.776 249.824 395.175C250.97 394.574 251.954 393.704 252.69 392.64L343.55 261.11L385.89 377.96C386.451 379.507 387.475 380.843 388.822 381.788C390.169 382.732 391.775 383.24 393.42 383.24C394.347 383.237 395.267 383.074 396.14 382.76C398.134 382.035 399.758 380.548 400.658 378.627C401.558 376.706 401.659 374.506 400.94 372.51L344.67 216.622L384.06 209.76H407.1L403.62 221.22C403.315 222.226 403.21 223.281 403.313 224.327C403.415 225.372 403.723 226.387 404.218 227.314C404.713 228.241 405.386 229.061 406.197 229.728C407.009 230.395 407.945 230.895 408.95 231.2C409.955 231.506 411.011 231.61 412.056 231.507C413.102 231.405 414.117 231.097 415.044 230.602C415.971 230.107 416.791 229.435 417.457 228.623C418.124 227.811 418.625 226.876 418.93 225.87L425.55 204.08C425.911 202.884 425.988 201.621 425.774 200.39C425.561 199.159 425.063 197.995 424.32 196.99ZM132.22 370.18L196.45 281.71L234.03 379.01L132.22 370.18ZM248.12 371.1L209.77 271.79C250.69 265.7 302.24 258.06 328.9 254.18L248.12 371.1Z" fill="#71AE60"/>
<path d="M186.407 194.577H130.629C124.001 194.577 118.629 199.95 118.629 206.577C118.629 213.205 124.001 218.577 130.629 218.577H186.407C193.034 218.577 198.407 213.205 198.407 206.577C198.407 199.95 193.034 194.577 186.407 194.577Z" fill="#5B5E65"/>
<path d="M237.99 426.711C257.872 426.711 273.99 410.593 273.99 390.711C273.99 370.829 257.872 354.711 237.99 354.711C218.108 354.711 201.99 370.829 201.99 390.711C201.99 410.593 218.108 426.711 237.99 426.711Z" fill="#D5D5D3"/>
<path d="M309.146 102.959C312.663 108.952 314.988 115.569 315.993 122.444L330.45 116.2C330.763 116.825 333.091 122.883 335.276 128.615C335.686 129.69 336.37 130.638 337.26 131.367C338.15 132.095 339.214 132.579 340.349 132.769C341.483 132.96 342.647 132.851 343.726 132.453C344.805 132.055 345.761 131.382 346.5 130.5L355.37 119.92H365.085L366.818 100.772L376.249 92.9651C376.249 92.9651 372.49 44.8751 332.921 54.9791C307.376 61.5021 312.586 87.9201 312.586 87.9201L301.586 93.9952C304.621 96.5076 307.182 99.5435 309.146 102.959Z" fill="#FCD3C4"/>
<path d="M315.993 122.444L330.45 116.2L313.977 113.82C314.875 116.638 315.549 119.521 315.993 122.444Z" fill="#FFC7B5"/>
<path d="M348.665 89.6002C354.365 88.1102 364.902 84.9912 374.188 82.1922C370.438 68.6662 360.173 48.0222 332.921 54.9812C307.376 61.5042 312.586 87.9222 312.586 87.9222L317.135 90.4792C320.334 92.2803 323.87 93.4004 327.522 93.7688C331.175 94.1373 334.863 93.7462 338.357 92.6202C341.764 91.5178 345.202 90.5107 348.665 89.6002Z" fill="#484A50"/>
<path d="M361.028 50.1362C336.338 31.6562 298.1 36.2582 298.1 36.2582C298.1 36.2582 307.735 49.2452 307.735 62.7582C307.735 67.2582 304.335 76.1172 304.335 76.1172C304.335 76.1172 318.4 85.0822 330.455 89.7322C345.455 95.5162 359.897 89.2442 359.897 89.2442L378.723 98.3322C378.723 98.3322 387.482 69.9362 361.028 50.1362Z" fill="#E44D44"/>
<path d="M217.95 175.709L289.194 235.727C291.607 237.76 293.358 240.467 294.222 243.501C295.086 246.535 295.023 249.758 294.043 252.757L257.173 365.514L274.305 373.034C276.629 374.054 278.498 375.892 279.556 378.198C280.614 380.504 280.789 383.119 280.047 385.546L274.747 402.879C274.52 403.623 274.008 404.246 273.323 404.613C272.638 404.98 271.835 405.062 271.09 404.839L228.659 392.163C226.655 391.729 224.761 390.891 223.092 389.699C221.424 388.507 220.016 386.987 218.955 385.233C217.895 383.478 217.203 381.525 216.924 379.494C216.644 377.462 216.782 375.395 217.329 373.419L246.891 266.684C246.891 266.684 233.006 259.016 215.168 248.157L213.168 246.937C184.727 229.529 147.454 204.668 139.775 189.675C127.023 164.775 163.457 131.988 163.457 131.988C163.457 131.988 184.517 99.2171 213.168 90.0881C247.729 79.0771 298.826 90.0881 298.826 90.0881C306.765 93.1251 316.481 107.088 318.302 124.701C320.123 142.314 317.99 152.801 317.99 152.801L328.625 188.46L379.633 226.716L400.316 221.905C401.793 221.562 403.332 221.598 404.79 222.011C406.249 222.424 407.579 223.199 408.656 224.265L412.333 227.901C413.813 229.364 414.656 231.351 414.679 233.431C414.702 235.511 413.904 237.517 412.457 239.012L401.4 250.449C399.794 252.111 397.749 253.285 395.503 253.833C393.258 254.382 390.902 254.283 388.71 253.549L371.774 247.876L303.732 207.287L283.627 164.727L217.95 175.709Z" fill="#FCD3C4"/>
<path d="M220.65 361.436L217.331 373.419C216.784 375.395 216.646 377.462 216.925 379.494C217.205 381.525 217.896 383.478 218.957 385.233C220.018 386.987 221.426 388.507 223.094 389.699C224.763 390.891 226.657 391.729 228.661 392.163L271.092 404.839C271.837 405.062 272.64 404.98 273.325 404.613C274.01 404.246 274.522 403.623 274.749 402.879L280.049 385.546C280.791 383.119 280.616 380.505 279.558 378.198C278.499 375.892 276.631 374.054 274.307 373.034L257.175 365.514L238.914 366.262L220.65 361.436ZM217.95 175.709L283.627 164.725L289.137 176.389L322.977 169.511L317.993 152.8C317.993 152.8 320.127 142.309 318.305 124.7C316.483 107.091 306.768 93.1241 298.829 90.0871C298.829 90.0871 247.729 79.0761 213.171 90.0871C184.52 99.2161 163.46 131.987 163.46 131.987C163.46 131.987 162.748 132.628 161.56 133.797L214.727 176.341L217.95 175.709Z" fill="#E44D44"/>
<path d="M163.46 131.988C163.46 131.988 127.026 164.779 139.778 189.675C146.748 203.284 178.104 225.025 205.103 241.942L245.341 198.784L217.95 175.709L163.46 131.988Z" fill="#484A50"/>
</g>
<defs>
<clipPath id="clip0_169_1279">
<rect width="512" height="512" fill="white"/>
</clipPath>
</defs>
</svg>
