<svg width="512" height="512" viewBox="0 0 512 512" fill="none" xmlns="http://www.w3.org/2000/svg">
<g clip-path="url(#clip0_170_4187)">
<g clip-path="url(#clip1_170_4187)">
<path d="M8.18599 503.814C-2.92541 492.703 -2.69551 474.617 8.69498 463.792L493.557 3.00473C497.851 -1.0752 504.613 -0.988865 508.802 3.19849C512.99 7.38685 513.075 14.1503 508.995 18.443L48.2083 503.305C37.383 514.696 19.2974 514.925 8.18599 503.814Z" fill="url(#paint0_linear_170_4187)"/>
<path d="M168.353 336.786L235.425 248.32L8.69488 463.792C-2.69562 474.617 -2.92652 492.702 8.18589 503.814C19.2983 514.925 37.3829 514.695 48.2082 503.305L263.68 276.576L175.213 343.648C170.677 347.088 164.912 341.323 168.353 336.786Z" fill="url(#paint1_linear_170_4187)"/>
<path d="M96.3974 425.602L127.074 394.925C128.383 393.595 129.113 391.802 129.106 389.937C129.099 388.071 128.354 386.284 127.035 384.965C125.716 383.645 123.929 382.901 122.063 382.894C120.198 382.886 118.405 383.617 117.075 384.926L86.3983 415.602C85.0895 416.932 84.3592 418.725 84.3665 420.591C84.3738 422.456 85.1182 424.243 86.4374 425.562C87.7566 426.882 89.5437 427.626 91.4094 427.633C93.275 427.641 95.0679 426.91 96.3974 425.602ZM147.524 374.475C148.833 373.145 149.563 371.352 149.556 369.487C149.549 367.621 148.804 365.834 147.485 364.515C146.166 363.196 144.379 362.451 142.513 362.444C140.647 362.437 138.855 363.167 137.525 364.476L131.859 370.142C130.55 371.471 129.82 373.264 129.827 375.13C129.834 376.996 130.579 378.783 131.898 380.102C133.217 381.421 135.004 382.165 136.87 382.173C138.736 382.18 140.528 381.45 141.858 380.141L147.524 374.475Z" fill="white"/>
<path d="M55.5699 481.6C56.8994 482.909 58.6923 483.639 60.5579 483.632C62.4236 483.625 64.2107 482.88 65.5299 481.561C66.8491 480.242 67.5935 478.455 67.6008 476.589C67.6081 474.724 66.8778 472.931 65.569 471.601L40.3986 446.431C39.0691 445.122 37.2762 444.392 35.4106 444.399C33.5449 444.406 31.7578 445.151 30.4386 446.47C29.1194 447.789 28.375 449.576 28.3677 451.442C28.3604 453.307 29.0907 455.1 30.3996 456.43L55.5699 481.6Z" fill="url(#paint2_linear_170_4187)"/>
<path d="M207.838 335.336L267.354 272.709L239.291 244.646L176.664 304.162L207.838 335.336Z" fill="url(#paint3_linear_170_4187)"/>
<path d="M503.814 503.814C514.925 492.703 514.695 474.617 503.305 463.792L18.4429 3.00462C14.1502 -1.07532 7.38673 -0.989987 3.19837 3.19837C-0.989987 7.38673 -1.07532 14.1502 3.00462 18.4429L463.792 503.305C474.617 514.695 492.703 514.925 503.814 503.814Z" fill="url(#paint4_linear_170_4187)"/>
<path d="M343.647 336.786L276.575 248.32L503.304 463.792C514.694 474.617 514.925 492.702 503.813 503.814C492.7 514.925 474.616 514.695 463.791 503.305L248.32 276.575L336.786 343.647C341.323 347.088 347.088 341.323 343.647 336.786Z" fill="url(#paint5_linear_170_4187)"/>
<path d="M415.602 425.602L384.926 394.925C383.617 393.595 382.886 391.802 382.894 389.937C382.901 388.071 383.645 386.284 384.965 384.965C386.284 383.645 388.071 382.901 389.937 382.894C391.802 382.886 393.595 383.617 394.925 384.926L425.602 415.602C426.91 416.932 427.641 418.725 427.633 420.591C427.626 422.456 426.882 424.243 425.562 425.562C424.243 426.882 422.456 427.626 420.591 427.633C418.725 427.641 416.932 426.91 415.602 425.602ZM364.476 374.475C363.167 373.145 362.437 371.352 362.444 369.487C362.451 367.621 363.196 365.834 364.515 364.515C365.834 363.196 367.621 362.451 369.487 362.444C371.352 362.437 373.145 363.167 374.475 364.476L380.141 370.142C381.45 371.471 382.18 373.264 382.173 375.13C382.165 376.996 381.421 378.783 380.102 380.102C378.783 381.421 376.996 382.165 375.13 382.173C373.264 382.18 371.471 381.45 370.142 380.141L364.476 374.475Z" fill="white"/>
<path d="M456.43 481.6C455.1 482.909 453.307 483.639 451.442 483.632C449.576 483.625 447.789 482.88 446.47 481.561C445.151 480.242 444.406 478.455 444.399 476.589C444.392 474.724 445.122 472.931 446.431 471.601L471.601 446.431C472.931 445.122 474.724 444.392 476.589 444.399C478.455 444.406 480.242 445.151 481.561 446.47C482.88 447.789 483.625 449.576 483.632 451.442C483.639 453.307 482.909 455.1 481.6 456.43L456.43 481.6Z" fill="url(#paint6_linear_170_4187)"/>
<path d="M503.814 503.814C514.925 492.703 514.696 474.617 503.305 463.792L382.356 348.848L348.848 382.356L463.792 503.305C474.617 514.696 492.703 514.925 503.814 503.814Z" fill="url(#paint7_linear_170_4187)"/>
<path d="M305.251 509.165C362.634 509.165 409.152 462.647 409.152 405.264C409.152 347.881 362.634 301.363 305.251 301.363C247.868 301.363 201.35 347.881 201.35 405.264C201.35 462.647 247.868 509.165 305.251 509.165Z" fill="url(#paint8_linear_170_4187)"/>
<path d="M201.35 405.264C201.35 462.647 247.868 509.165 305.251 509.165C362.634 509.165 409.152 462.647 409.152 405.264C409.152 399.716 408.712 394.269 407.874 388.956H202.628C201.777 394.35 201.35 399.803 201.35 405.264Z" fill="url(#paint9_linear_170_4187)"/>
<path d="M305.251 462.37C336.79 462.37 362.357 436.803 362.357 405.264C362.357 373.725 336.79 348.158 305.251 348.158C273.713 348.158 248.145 373.725 248.145 405.264C248.145 436.803 273.713 462.37 305.251 462.37Z" fill="url(#paint10_linear_170_4187)"/>
<path d="M313.788 418.854V417.042C313.788 410.652 309.876 409.411 304.632 409.411C301.389 409.411 300.34 406.55 300.34 403.689C300.34 400.828 301.389 397.967 304.632 397.967C308.255 397.967 312.071 397.49 312.071 389.764C312.071 384.233 308.923 382.898 305.013 382.898C300.34 382.898 297.956 384.042 297.956 387.762C297.956 391.004 296.525 393.198 290.994 393.198C284.126 393.198 283.268 391.767 283.268 387.19C283.268 379.751 288.608 370.118 305.013 370.118C317.126 370.118 326.283 374.505 326.283 387.38C326.283 394.343 323.707 400.829 318.939 403.021C324.565 405.12 328.667 409.317 328.667 417.042V418.854C328.667 434.495 317.89 440.409 304.537 440.409C288.132 440.409 281.838 430.394 281.838 422.384C281.838 418.092 283.651 416.948 288.895 416.948C294.999 416.948 296.526 418.282 296.526 421.906C296.526 426.388 300.723 427.438 305.014 427.438C311.498 427.438 313.788 425.053 313.788 418.854Z" fill="url(#paint11_linear_170_4187)"/>
</g>
</g>
<defs>
<linearGradient id="paint0_linear_170_4187" x1="251.968" y1="246.981" x2="268.901" y2="263.914" gradientUnits="userSpaceOnUse">
<stop stop-color="#F89580"/>
<stop offset="1" stop-color="#C4573A"/>
</linearGradient>
<linearGradient id="paint1_linear_170_4187" x1="116.487" y1="370.749" x2="135.897" y2="390.158" gradientUnits="userSpaceOnUse">
<stop stop-color="#5A5A5A"/>
<stop offset="1" stop-color="#444444"/>
</linearGradient>
<linearGradient id="paint2_linear_170_4187" x1="30.5137" y1="446.491" x2="65.6826" y2="481.66" gradientUnits="userSpaceOnUse">
<stop stop-color="#FEF0AE"/>
<stop offset="1" stop-color="#FAC600"/>
</linearGradient>
<linearGradient id="paint3_linear_170_4187" x1="211.827" y1="300.172" x2="249.982" y2="262.017" gradientUnits="userSpaceOnUse">
<stop stop-color="#433F43" stop-opacity="0"/>
<stop offset="1" stop-color="#1A1A1A"/>
</linearGradient>
<linearGradient id="paint4_linear_170_4187" x1="260.032" y1="246.981" x2="243.099" y2="263.914" gradientUnits="userSpaceOnUse">
<stop stop-color="#F89580"/>
<stop offset="1" stop-color="#C4573A"/>
</linearGradient>
<linearGradient id="paint5_linear_170_4187" x1="395.513" y1="370.749" x2="376.103" y2="390.158" gradientUnits="userSpaceOnUse">
<stop stop-color="#5A5A5A"/>
<stop offset="1" stop-color="#444444"/>
</linearGradient>
<linearGradient id="paint6_linear_170_4187" x1="481.364" y1="446.528" x2="446.194" y2="481.698" gradientUnits="userSpaceOnUse">
<stop stop-color="#FEF0AE"/>
<stop offset="1" stop-color="#FAC600"/>
</linearGradient>
<linearGradient id="paint7_linear_170_4187" x1="449.644" y1="432.138" x2="396.102" y2="426.784" gradientUnits="userSpaceOnUse">
<stop stop-color="#433F43" stop-opacity="0"/>
<stop offset="1" stop-color="#1A1A1A"/>
</linearGradient>
<linearGradient id="paint8_linear_170_4187" x1="272.252" y1="372.265" x2="355.267" y2="455.28" gradientUnits="userSpaceOnUse">
<stop stop-color="#FD4755"/>
<stop offset="1" stop-color="#A72B2B"/>
</linearGradient>
<linearGradient id="paint9_linear_170_4187" x1="305.251" y1="431.017" x2="305.251" y2="497.28" gradientUnits="userSpaceOnUse">
<stop stop-color="#A72B2B" stop-opacity="0"/>
<stop offset="0.169" stop-color="#9E2A28" stop-opacity="0.169"/>
<stop offset="0.446" stop-color="#852820" stop-opacity="0.446"/>
<stop offset="0.795" stop-color="#5D2414" stop-opacity="0.795"/>
<stop offset="1" stop-color="#42210B"/>
</linearGradient>
<linearGradient id="paint10_linear_170_4187" x1="276.78" y1="370.766" x2="326.164" y2="430.604" gradientUnits="userSpaceOnUse">
<stop stop-color="#EAF6FF"/>
<stop offset="1" stop-color="#B3DAFE"/>
</linearGradient>
<linearGradient id="paint11_linear_170_4187" x1="286.887" y1="395.309" x2="323.53" y2="415.388" gradientUnits="userSpaceOnUse">
<stop stop-color="#5A5A5A"/>
<stop offset="1" stop-color="#444444"/>
</linearGradient>
<clipPath id="clip0_170_4187">
<rect width="512" height="512" fill="white"/>
</clipPath>
<clipPath id="clip1_170_4187">
<rect width="512" height="512" fill="white"/>
</clipPath>
</defs>
</svg>
