<svg width="512" height="512" viewBox="0 0 512 512" fill="none" xmlns="http://www.w3.org/2000/svg">
<g clip-path="url(#clip0_169_1373)">
<path d="M288 227.905H256C255.015 227.905 254.04 227.711 253.13 227.334C252.22 226.957 251.393 226.405 250.696 225.708C250 225.012 249.447 224.185 249.071 223.275C248.694 222.365 248.5 221.39 248.5 220.405V185.28C248.5 181.137 251.857 177.78 256 177.78C260.143 177.78 263.5 181.137 263.5 185.28V212.905H288C292.143 212.905 295.5 216.262 295.5 220.405C295.5 224.548 292.143 227.905 288 227.905Z" fill="#FED402"/>
<path d="M112 227.905V339.905H224C224 322.232 238.327 307.905 256 307.905C273.673 307.905 288 322.232 288 339.905H400V227.905H112Z" fill="#FB2B3A"/>
<path d="M400 451.905C461.856 451.905 512 401.761 512 339.905C512 278.049 461.856 227.905 400 227.905C338.144 227.905 288 278.049 288 339.905C288 401.761 338.144 451.905 400 451.905Z" fill="#D3E1F5"/>
<path d="M112 451.905C173.856 451.905 224 401.761 224 339.905C224 278.049 173.856 227.905 112 227.905C50.1441 227.905 0 278.049 0 339.905C0 401.761 50.1441 451.905 112 451.905Z" fill="#D3E1F5"/>
<path d="M305.115 66.562L351.428 101.609C354.818 104.175 353.663 109.532 349.517 110.472L292.93 123.303L305.115 66.562Z" fill="#FED402"/>
<path d="M317.823 92.0947C317.823 73.6727 302.256 58.8867 283.559 60.1727C267.589 61.2717 254.731 74.3427 253.871 90.3267C253.766 92.2656 253.834 94.21 254.076 96.1367C255.085 104.142 252.486 112.176 246.781 117.882L155.535 209.128C154.597 210.065 154.071 211.337 154.071 212.663C154.071 213.989 154.597 215.261 155.535 216.199L159.697 220.361C168.378 229.042 181.98 230.389 192.194 223.579L235.605 194.638C238.758 192.536 242.582 191.606 246.325 192.194C260.971 194.498 276.478 190.007 287.763 178.722C300.163 166.322 304.36 148.826 300.355 132.976C298.879 127.135 300.841 120.991 305.578 117.269C313.035 111.411 317.823 102.312 317.823 92.0947Z" fill="#26A6FE"/>
<path d="M283.559 60.1728C283.177 60.1988 282.797 60.2328 282.419 60.2718C285.372 65.221 286.927 70.8786 286.918 76.6418C286.918 86.8598 282.129 95.9578 274.674 101.817C269.937 105.539 267.975 111.683 269.451 117.524C273.456 133.374 269.259 150.87 256.859 163.27C245.573 174.556 230.066 179.046 215.421 176.742C211.678 176.153 207.854 177.084 204.701 179.186L161.29 208.127C159.117 209.578 156.736 210.689 154.228 211.422C154.012 212.263 154.019 213.146 154.248 213.983C154.477 214.821 154.92 215.584 155.534 216.198L159.699 220.362C168.38 229.043 181.981 230.39 192.196 223.58L235.607 194.639C238.76 192.537 242.584 191.607 246.327 192.195C260.973 194.499 276.48 190.008 287.765 178.723C300.165 166.323 304.362 148.827 300.357 132.977C298.881 127.136 300.843 120.992 305.58 117.27C313.036 111.411 317.825 102.313 317.825 92.0948C317.823 73.6728 302.256 58.8858 283.559 60.1728Z" fill="#0593FC"/>
<path d="M427.242 264.663L368 307.905L324.758 367.147C330.103 381.908 339.669 394.647 351.997 403.908L416 355.905L464.003 291.902C454.742 279.574 442.003 270.009 427.242 264.663Z" fill="#0573CE"/>
<path d="M256 275.905C269.255 275.905 280 265.16 280 251.905C280 238.65 269.255 227.905 256 227.905C242.745 227.905 232 238.65 232 251.905C232 265.16 242.745 275.905 256 275.905Z" fill="#FD4755"/>
<path d="M256 275.905C269.255 275.905 280 265.16 280 251.905C280 238.65 269.255 227.905 256 227.905C242.745 227.905 232 238.65 232 251.905C232 265.16 242.745 275.905 256 275.905Z" fill="#0055A3"/>
<path d="M139.242 264.663L80.0001 307.905L36.7581 367.147C42.1031 381.908 51.6691 394.647 63.9971 403.908L128 355.905L176.003 291.902C166.742 279.574 154.003 270.009 139.242 264.663Z" fill="#0573CE"/>
<path d="M63.9971 403.908C77.3681 413.952 93.9891 419.905 112 419.905C156.183 419.905 192 384.088 192 339.905C192 321.894 186.048 305.273 176.003 291.902L63.9971 403.908ZM112 259.905C67.8171 259.905 32 295.722 32 339.905C31.9897 349.193 33.5998 358.412 36.758 367.147L139.241 264.664C130.739 261.584 121.566 259.905 112 259.905ZM351.997 403.908C365.368 413.952 381.989 419.905 400 419.905C444.183 419.905 480 384.088 480 339.905C480 321.894 474.048 305.273 464.003 291.902L351.997 403.908ZM400 259.905C355.817 259.905 320 295.722 320 339.905C319.99 349.193 321.6 358.412 324.758 367.147L427.241 264.664C418.739 261.584 409.566 259.905 400 259.905Z" fill="#0055A3"/>
<path d="M438.793 319.301C438.793 321.513 438.703 323.703 438.527 325.869L464.003 291.901C454.742 279.573 442.003 270.008 427.242 264.662L421.116 269.134C432.163 282.833 438.793 300.265 438.793 319.301ZM345.155 398.145C347.327 400.191 349.611 402.116 351.997 403.909L358.143 399.299C353.79 399.265 349.446 398.879 345.155 398.145ZM150.793 319.301C150.793 321.513 150.703 323.703 150.527 325.869L176.003 291.901C166.742 279.573 154.003 270.008 139.242 264.662L133.116 269.134C144.163 282.833 150.793 300.265 150.793 319.301ZM57.156 398.146C59.3275 400.192 61.6114 402.116 63.997 403.908L70.143 399.298C65.79 399.265 61.4468 398.88 57.156 398.146Z" fill="#0067C5"/>
<path d="M176.003 291.902L150.764 317.141C150.783 317.859 150.793 318.579 150.793 319.301C150.793 363.484 114.976 399.301 70.793 399.301C70.071 399.301 69.35 399.291 68.633 399.272L63.998 403.907C77.369 413.952 93.99 419.904 112.001 419.904C156.184 419.904 192.001 384.087 192.001 339.904C192 321.894 186.048 305.273 176.003 291.902ZM133.848 270.057L139.242 264.663C134.823 263.063 130.271 261.858 125.639 261.063C128.598 263.85 131.342 266.856 133.848 270.057ZM464.003 291.902L438.764 317.141C438.783 317.859 438.793 318.579 438.793 319.301C438.793 363.484 402.976 399.301 358.793 399.301C358.071 399.301 357.351 399.291 356.633 399.272L351.997 403.908C365.368 413.953 381.989 419.905 400 419.905C444.183 419.905 480 384.088 480 339.905C480 321.894 474.048 305.273 464.003 291.902ZM421.848 270.057L427.242 264.663C422.823 263.063 418.271 261.858 413.639 261.063C416.598 263.85 419.342 266.856 421.848 270.057Z" fill="#004281"/>
<path d="M106.775 419.737L191.832 334.681C191.442 328.587 190.353 322.558 188.586 316.712L88.806 416.491C94.6517 418.257 100.681 419.346 106.775 419.737ZM394.775 419.737L479.832 334.681C479.442 328.587 478.353 322.558 476.586 316.712L376.806 416.491C382.652 418.257 388.681 419.346 394.775 419.737Z" fill="#0067C5"/>
</g>
<defs>
<clipPath id="clip0_169_1373">
<rect width="512" height="512" fill="white"/>
</clipPath>
</defs>
</svg>
