<svg width="512" height="512" viewBox="0 0 512 512" fill="none" xmlns="http://www.w3.org/2000/svg">
<g clip-path="url(#clip0_169_1655)">
<g clip-path="url(#clip1_169_1655)">
<path d="M102.405 30.5131C95.7267 32.1831 91.0406 38.1722 91.0406 45.0552C91.0406 51.9383 95.7277 57.9283 102.405 59.5974L226.006 90.0436V0.0668945L102.405 30.5131Z" fill="#FF0059"/>
<path d="M213.294 97.0868L63.3324 338.024C61.9116 340.292 61.1241 342.9 61.0519 345.576C60.9796 348.251 61.6251 350.898 62.9214 353.24C64.2202 355.582 66.1218 357.534 68.4291 358.894C70.7364 360.253 73.3654 360.971 76.0435 360.972H226.005L233.957 92.3267C226.914 87.9187 217.673 90.0577 213.294 97.0868Z" fill="#FCBF29"/>
<path d="M435.95 360.972H226.005C222.858 360.973 219.791 359.983 217.239 358.143C214.686 356.303 212.778 353.706 211.785 350.721C209.735 344.6 211.844 337.863 216.999 333.982C248.821 310.081 270.994 241.087 270.994 195.014C270.994 155.591 250.682 115.992 216.678 89.0746C214.095 87.0347 212.256 84.2016 211.443 81.0125C210.631 77.8233 210.89 74.4554 212.182 71.4285C214.847 65.1904 221.335 61.4854 228.042 62.4654C346.033 78.8825 433.506 205.504 446.876 312.497L450.831 344.116C451.095 346.226 450.908 348.368 450.281 350.4C449.655 352.433 448.604 354.309 447.199 355.905C445.789 357.498 444.058 358.773 442.119 359.646C440.18 360.52 438.077 360.972 435.95 360.972Z" fill="#D9D9D9"/>
<path d="M241.001 15.062V405.96C241.001 414.357 234.404 420.956 226.005 420.956C217.606 420.956 211.009 414.357 211.009 405.96V15.062C211.009 6.66297 217.606 0.065918 226.005 0.065918C234.404 0.065918 241.001 6.66397 241.001 15.062Z" fill="#883F2E"/>
<path d="M226.005 420.956V0.065918C234.404 0.065918 241.001 6.66297 241.001 15.062V405.96C241.001 414.357 234.404 420.956 226.005 420.956Z" fill="#6D3326"/>
<path d="M479.44 412.257L445.848 483.74C445.848 484.04 445.848 484.04 445.548 484.339C435.951 472.643 421.554 466.945 405.959 466.945C388.864 466.945 372.969 473.242 363.371 487.639C362.17 489.438 360.371 490.337 358.871 491.538L333.379 491.836C331.579 490.637 329.78 489.438 328.579 487.638C318.981 473.241 303.086 466.943 285.99 466.943C274.893 466.943 264.695 469.642 255.998 475.041C251.2 478.341 247 482.539 243.402 487.639C241.902 489.738 239.803 491.238 237.704 492.737H214.609C212.51 491.538 210.109 490.037 208.611 487.639C199.014 473.242 183.118 466.945 166.022 466.945C148.926 466.945 133.032 473.242 123.434 487.639C121.634 490.337 119.235 492.437 116.236 493.637L95.8387 493.935C93.1407 492.435 90.4397 490.336 88.6406 487.638C81.4426 476.84 69.3455 470.543 57.0494 468.142L31.5552 412.255C29.1552 407.757 29.7552 402.359 32.4562 397.86C35.1542 393.661 39.9543 390.963 45.0523 390.963H465.943C471.041 390.963 475.841 393.661 478.539 397.86C481.24 402.362 481.839 407.76 479.44 412.257Z" fill="#FF0059"/>
<path d="M479.44 412.257L445.849 483.74C445.849 484.04 445.849 484.04 445.549 484.339C435.951 472.643 421.554 466.945 405.959 466.945C388.864 466.945 372.969 473.242 363.371 487.639C362.17 489.438 360.371 490.337 358.871 491.538L333.379 491.836C331.579 490.637 329.78 489.438 328.579 487.638C318.981 473.241 303.086 466.943 285.99 466.943C274.893 466.943 264.695 469.642 255.998 475.041C251.2 478.341 247 482.539 243.402 487.639C241.902 489.738 239.803 491.238 237.704 492.737H226.007V390.962H465.945C471.043 390.962 475.843 393.66 478.541 397.859C481.24 402.362 481.839 407.76 479.44 412.257Z" fill="#E50048"/>
<path d="M509.531 489.139C499.934 503.534 484.039 511.933 466.943 511.933C449.847 511.933 432.952 503.534 423.355 489.139C415.557 477.141 396.361 477.141 388.563 489.139C378.966 503.534 363.071 511.933 345.975 511.933C328.879 511.933 312.984 503.534 303.386 489.139C295.588 477.141 276.392 477.141 268.594 489.139C264.995 494.237 260.796 498.736 255.998 502.036C247.301 508.635 237.103 511.934 226.006 511.934C208.911 511.934 193.015 503.535 183.417 489.14C175.619 477.142 156.423 477.142 148.625 489.14C139.028 503.535 123.133 511.934 106.037 511.934C88.9407 511.934 72.0465 503.535 62.4495 489.14C54.6514 477.142 35.4552 477.142 27.6572 489.14C22.8591 496.037 13.5621 497.837 6.66302 493.339C-0.234033 488.839 -2.03405 479.542 2.46499 472.645C12.0621 458.248 27.9572 451.951 45.0533 451.951C62.1495 451.951 79.0436 458.248 88.6407 472.645C96.4387 484.341 115.635 484.341 123.433 472.645C133.03 458.248 148.925 451.951 166.021 451.951C183.117 451.951 199.012 458.248 208.61 472.645C212.509 478.343 219.408 481.342 226.006 481.342C232.604 481.342 239.502 478.344 243.402 472.645C247.001 467.545 251.2 463.348 255.998 460.047C264.695 454.648 274.893 451.95 285.99 451.95C303.085 451.95 318.98 458.247 328.579 472.644C336.377 484.34 355.573 484.34 363.371 472.644C372.968 458.247 388.863 451.95 405.959 451.95C423.055 451.95 438.949 458.247 448.548 472.644C456.346 484.34 476.541 484.34 484.339 472.644C489.137 465.745 498.434 463.945 505.333 468.445C512.231 472.944 514.031 482.242 509.531 489.139Z" fill="#1DE8F1"/>
<path d="M509.531 489.139C499.934 503.534 484.039 511.933 466.943 511.933C449.846 511.933 432.952 503.534 423.355 489.139C415.557 477.14 396.361 477.14 388.563 489.139C378.966 503.534 363.071 511.933 345.975 511.933C328.879 511.933 312.984 503.534 303.386 489.139C295.588 477.14 276.392 477.14 268.594 489.139C264.995 494.237 260.796 498.736 255.998 502.036C247.301 508.635 237.103 511.934 226.006 511.934V481.34C232.603 481.34 239.502 478.342 243.402 472.643C247.001 467.543 251.2 463.346 255.998 460.045C264.695 454.646 274.893 451.948 285.99 451.948C303.085 451.948 318.98 458.245 328.579 472.642C336.377 484.338 355.573 484.338 363.371 472.642C372.968 458.245 388.863 451.948 405.959 451.948C423.055 451.948 438.949 458.245 448.547 472.642C456.346 484.338 476.541 484.338 484.339 472.642C489.137 465.743 498.434 463.943 505.333 468.443C512.231 472.943 514.031 482.241 509.531 489.139Z" fill="#15B7BE"/>
</g>
</g>
<defs>
<clipPath id="clip0_169_1655">
<rect width="512" height="512" fill="white"/>
</clipPath>
<clipPath id="clip1_169_1655">
<rect width="512" height="512" fill="white"/>
</clipPath>
</defs>
</svg>
