<svg width="512" height="512" viewBox="0 0 512 512" fill="none" xmlns="http://www.w3.org/2000/svg">
<g clip-path="url(#clip0_169_1514)">
<g clip-path="url(#clip1_169_1514)">
<path d="M512 338.677L404.686 215.213H107.314L0 338.677V512H512V338.677Z" fill="#BBCBCA"/>
<path d="M512 412.448L406.626 265.697H105.374L0 412.448V512H512V412.448Z" fill="#8D9C9B"/>
<path d="M398.869 301.899L512 512H0L113.131 301.899H398.869Z" fill="#FFCD58"/>
<path d="M354.488 335.521H354.49C363.296 335.521 371.921 334.318 380.127 331.947C409.707 323.403 414.123 269.532 414.123 238.179C414.123 199.888 400.132 171.618 390.873 152.912C383.341 137.694 379.68 124.96 379.68 113.984C379.68 100.821 388.211 80.4191 388.211 80.4191C391.869 72.6301 396.88 61.9621 396.88 51.9481C396.88 28.6531 377.929 9.70312 354.636 9.70312C331.342 9.70312 312.391 28.6541 312.391 51.9481C312.391 60.5451 316.194 69.6621 319.25 76.9881C319.624 77.8841 327.866 102.234 327.866 113.984C327.866 126.605 322.302 143.958 317.131 154.741C311.601 166.276 303.596 185.222 299.24 200.657L304.176 303.671C309.876 319.198 318.256 328.705 329.084 331.93C337.081 334.313 345.629 335.521 354.488 335.521Z" fill="#E2F3F7"/>
<path opacity="0.5" d="M319.415 244.39C318.396 244.39 317.387 244.189 316.446 243.8C315.505 243.41 314.65 242.838 313.929 242.118C313.209 241.397 312.637 240.542 312.248 239.601C311.858 238.66 311.657 237.651 311.657 236.632C311.657 204.887 321.47 182.479 333.324 158.528C334.248 156.704 335.856 155.319 337.796 154.674C339.736 154.028 341.853 154.175 343.686 155.083C345.518 155.99 346.919 157.584 347.582 159.518C348.246 161.452 348.119 163.57 347.229 165.411C336.256 187.581 327.172 208.243 327.172 236.633C327.172 237.652 326.971 238.66 326.582 239.602C326.192 240.543 325.62 241.398 324.9 242.118C324.18 242.838 323.325 243.41 322.383 243.8C321.442 244.189 320.434 244.39 319.415 244.39ZM337.137 58.8141C335.079 58.8141 333.106 57.9968 331.651 56.5418C330.196 55.0869 329.379 53.1137 329.379 51.0561C329.379 38.9601 339.219 29.1201 351.314 29.1201C353.372 29.1201 355.345 29.9375 356.8 31.3924C358.255 32.8473 359.072 34.8206 359.072 36.8781C359.072 38.9357 358.255 40.9089 356.8 42.3639C355.345 43.8188 353.372 44.6361 351.314 44.6361C349.612 44.638 347.98 45.315 346.777 46.5186C345.573 47.7222 344.897 49.3541 344.895 51.0561C344.895 52.0749 344.694 53.0837 344.304 54.025C343.915 54.9662 343.343 55.8215 342.623 56.5418C341.902 57.2622 341.047 57.8337 340.106 58.2236C339.165 58.6134 338.156 58.8141 337.137 58.8141Z" fill="white"/>
<path d="M323.511 90.748H384.434C382.921 95.367 381.328 100.954 380.423 106.263H327.097C326.272 101.293 324.889 95.705 323.511 90.748ZM327.791 116.542H379.785C380.025 121.366 380.907 126.508 382.516 132.057H325.233C326.582 126.72 327.532 121.365 327.791 116.542Z" fill="#EB5764"/>
<path opacity="0.1" d="M390.873 152.912C383.341 137.694 379.68 124.96 379.68 113.984C379.68 100.821 388.211 80.4191 388.211 80.4191C391.869 72.6301 396.88 61.9621 396.88 51.9481C396.88 28.6531 377.929 9.70312 354.636 9.70312C352.746 9.70312 350.888 9.84012 349.063 10.0821C364.283 16.4851 372.008 30.9761 372.008 47.0131C372.008 56.8921 369.318 67.4181 365.937 75.1021C365.937 75.1021 358.054 95.2311 358.054 108.218C358.054 119.047 362.462 131.177 368.397 146.625C376.889 168.728 382.123 192.972 382.123 230.75C382.123 261.683 381.921 314.833 354.588 323.262C347.005 325.601 339.035 326.788 330.899 326.788H330.897C326.524 326.788 322.238 326.437 318.063 325.762C321.392 328.671 325.068 330.734 329.082 331.93C337.08 334.313 345.628 335.521 354.487 335.521H354.489C363.295 335.521 371.92 334.318 380.126 331.947C409.706 323.403 414.122 269.532 414.122 238.179C414.123 199.888 400.132 171.618 390.873 152.912Z" fill="black"/>
<path d="M159.116 335.521H159.113C150.308 335.521 141.683 334.318 133.477 331.947C103.897 323.403 99.481 269.532 99.481 238.179C99.481 199.888 113.472 171.618 122.731 152.912C130.263 137.694 133.924 124.96 133.924 113.984C133.924 100.821 125.393 80.4191 125.393 80.4191C121.735 72.6301 116.724 61.9621 116.724 51.9481C116.724 28.6531 135.675 9.70312 158.968 9.70312C182.263 9.70312 201.213 28.6541 201.213 51.9481C201.213 60.5451 197.41 69.6621 194.354 76.9881C193.98 77.8841 185.738 102.234 185.738 113.984C185.738 126.605 191.302 143.958 196.473 154.741C202.003 166.276 210.008 185.222 214.364 200.657L209.43 303.67C203.73 319.197 195.349 328.704 184.522 331.929C176.524 334.313 167.975 335.521 159.116 335.521Z" fill="#E2F3F7"/>
<path opacity="0.5" d="M125.475 244.39C124.456 244.39 123.447 244.189 122.506 243.8C121.565 243.41 120.71 242.838 119.989 242.118C119.269 241.397 118.697 240.542 118.308 239.601C117.918 238.66 117.717 237.651 117.717 236.632C117.717 204.887 127.53 182.479 139.384 158.528C140.308 156.704 141.916 155.319 143.856 154.674C145.796 154.028 147.913 154.175 149.746 155.083C151.578 155.99 152.979 157.584 153.642 159.518C154.306 161.452 154.179 163.57 153.289 165.411C142.316 187.581 133.232 208.243 133.232 236.633C133.232 237.652 133.032 238.661 132.642 239.602C132.252 240.543 131.681 241.398 130.96 242.118C130.24 242.839 129.385 243.41 128.444 243.8C127.502 244.19 126.494 244.39 125.475 244.39ZM143.198 58.8141C142.179 58.8141 141.17 58.6134 140.229 58.2236C139.288 57.8337 138.433 57.2622 137.712 56.5418C136.992 55.8215 136.42 54.9662 136.031 54.025C135.641 53.0837 135.44 52.0749 135.44 51.0561C135.44 38.9601 145.28 29.1201 157.375 29.1201C159.433 29.1201 161.406 29.9375 162.861 31.3924C164.316 32.8473 165.133 34.8206 165.133 36.8781C165.133 38.9357 164.316 40.9089 162.861 42.3639C161.406 43.8188 159.433 44.6361 157.375 44.6361C153.835 44.6361 150.955 47.5161 150.955 51.0561C150.955 52.0749 150.755 53.0837 150.365 54.0249C149.975 54.9661 149.404 55.8214 148.683 56.5418C147.963 57.2622 147.108 57.8337 146.167 58.2236C145.226 58.6134 144.217 58.8141 143.198 58.8141Z" fill="white"/>
<path d="M190.093 90.748H129.17C130.683 95.367 132.276 100.954 133.181 106.263H186.507C187.332 101.293 188.715 95.705 190.093 90.748ZM185.814 116.542H133.82C133.58 121.366 132.698 126.508 131.089 132.057H188.372C187.022 126.72 186.072 121.365 185.814 116.542Z" fill="#EB5764"/>
<path opacity="0.1" d="M196.474 154.741C191.304 143.959 185.739 126.606 185.739 113.984C185.739 102.234 193.98 77.8841 194.355 76.9881C197.411 69.6621 201.214 60.5451 201.214 51.9481C201.214 28.6531 182.263 9.70312 158.969 9.70312C157.164 9.70312 155.39 9.83012 153.644 10.0511C167.2 15.6591 178.919 31.0631 178.919 49.1861C178.919 59.0051 174.818 69.4681 171.823 77.1061C171.823 77.1061 164.84 97.1141 164.84 110.022C164.84 120.786 167.837 133.274 174.002 148.197C181.58 166.542 187.215 194.265 187.215 231.815C187.215 262.562 187.479 315.391 163.267 323.769C156.55 326.094 149.49 327.274 142.283 327.274H142.281C135.03 327.274 128.033 326.089 121.486 323.753C120.779 323.495 120.087 323.199 119.413 322.866C123.316 327.177 127.958 330.354 133.479 331.948C141.685 334.319 150.31 335.522 159.115 335.522H159.118C167.977 335.522 176.525 334.314 184.523 331.931C195.351 328.706 203.731 319.198 209.431 303.672L214.367 200.658C210.009 185.222 202.005 166.276 196.474 154.741Z" fill="black"/>
<path d="M297.309 162.574C291.449 150.352 285.14 130.664 285.14 116.317C285.14 102.966 290.182 86.788 294.905 74.333C298.04 66.067 302.545 56.02 302.545 46.545C302.545 20.88 281.665 0 256 0C230.334 0 209.455 20.88 209.455 46.545C209.455 57.59 215.035 69.474 219.11 78.151C219.11 78.151 228.799 101.421 228.799 116.317C228.799 128.815 224.648 143.277 216.11 160.529C205.737 181.487 190.061 213.16 190.061 256C190.061 275.693 191.616 303.866 199.026 326.248L200.78 331.547L310.993 331.967L312.781 326.666C320.351 304.198 321.94 275.836 321.94 255.999C321.939 217.182 309.773 188.562 297.309 162.574Z" fill="#E2F3F7"/>
<path opacity="0.5" d="M217.212 259.879C215.154 259.879 213.181 259.062 211.726 257.607C210.271 256.152 209.454 254.179 209.454 252.121C209.454 217.539 220.158 193.099 233.088 166.973C233.54 166.06 234.167 165.245 234.934 164.574C235.701 163.904 236.593 163.391 237.558 163.065C238.523 162.739 239.543 162.606 240.559 162.674C241.576 162.742 242.569 163.01 243.482 163.462C244.395 163.914 245.21 164.541 245.881 165.308C246.551 166.075 247.064 166.967 247.39 167.932C247.716 168.897 247.849 169.917 247.781 170.933C247.713 171.95 247.445 172.943 246.993 173.856C234.943 198.202 224.968 220.895 224.968 252.121C224.968 253.14 224.768 254.149 224.378 255.09C223.989 256.031 223.417 256.886 222.697 257.607C221.977 258.327 221.122 258.899 220.181 259.288C219.239 259.678 218.231 259.879 217.212 259.879ZM236.606 50.4241C235.587 50.4241 234.578 50.2234 233.637 49.8335C232.696 49.4436 231.841 48.8722 231.12 48.1518C230.4 47.4314 229.828 46.5762 229.439 45.6349C229.049 44.6937 228.848 43.6849 228.848 42.6661C228.848 29.8341 239.288 19.3931 252.121 19.3931C254.179 19.3931 256.152 20.2104 257.607 21.6653C259.062 23.1202 259.879 25.0935 259.879 27.1511C259.879 29.2086 259.062 31.1819 257.607 32.6368C256.152 34.0917 254.179 34.9091 252.121 34.9091C247.844 34.9091 244.363 38.3891 244.363 42.6671C244.363 43.6858 244.163 44.6945 243.773 45.6357C243.383 46.5769 242.812 47.4321 242.091 48.1524C241.371 48.8727 240.516 49.4441 239.575 49.8339C238.633 50.2236 237.625 50.4242 236.606 50.4241Z" fill="white"/>
<path d="M227.795 106.667H285.894C286.625 101.561 287.835 96.2939 289.29 91.1519H223.796C225.305 95.8869 226.831 101.374 227.795 106.667ZM225.903 135.677H287.842C286.548 130.348 285.627 125.041 285.293 120.162H228.642C228.327 125.027 227.419 130.185 225.903 135.677Z" fill="#EB5764"/>
<path opacity="0.1" d="M297.309 162.574C291.449 150.352 285.14 130.664 285.14 116.317C285.14 102.966 290.182 86.788 294.905 74.333C298.04 66.067 302.545 56.02 302.545 46.545C302.545 20.88 281.665 0 256 0C253.787 0 251.612 0.166 249.481 0.466C265.124 7.289 276.288 24.817 276.288 45.319C276.288 55.07 272.291 65.411 269.509 73.919C265.318 86.737 260.845 103.388 260.845 117.129C260.845 131.895 266.442 152.158 271.642 164.737C282.701 191.484 293.496 220.94 293.496 260.892C293.496 280.801 292.141 309.037 285.846 331.872L310.993 331.968L312.781 326.667C320.351 304.199 321.94 275.837 321.94 256C321.939 217.182 309.773 188.562 297.309 162.574Z" fill="black"/>
<path d="M256 512C198.253 512 151.273 465.019 151.273 407.273C151.273 349.527 198.253 302.545 256 302.545C313.746 302.545 360.727 349.526 360.727 407.272C360.727 465.018 313.746 512 256 512Z" fill="#DF485A"/>
<path d="M243.394 323.879C204.362 323.879 172.606 355.635 172.606 394.667C172.606 433.699 204.362 465.455 243.394 465.455C282.426 465.455 314.182 433.699 314.182 394.667C314.182 355.635 282.426 323.879 243.394 323.879Z" fill="#EB5764"/>
<path opacity="0.5" d="M182.303 415.03C180.245 415.03 178.272 414.213 176.817 412.758C175.362 411.303 174.545 409.329 174.545 407.272C174.545 362.357 211.086 325.817 256 325.817C258.058 325.817 260.031 326.634 261.486 328.089C262.941 329.544 263.758 331.517 263.758 333.575C263.758 335.632 262.941 337.606 261.486 339.061C260.031 340.516 258.058 341.333 256 341.333C219.641 341.333 190.061 370.913 190.061 407.272C190.061 409.329 189.244 411.303 187.789 412.758C186.334 414.213 184.361 415.03 182.303 415.03Z" fill="white"/>
<path d="M252.669 430.15C246.696 430.16 240.95 427.862 236.63 423.737C227.334 414.892 226.966 400.133 235.811 390.835C237.989 388.555 240.606 386.738 243.504 385.496C246.402 384.253 249.522 383.61 252.675 383.604C258.648 383.594 264.395 385.892 268.715 390.017C278.01 398.862 278.378 413.621 269.535 422.918C267.357 425.198 264.739 427.015 261.841 428.257C258.943 429.5 255.823 430.144 252.669 430.15Z" fill="#8D9C9B"/>
<path opacity="0.1" d="M245.273 427.578C237.333 420.024 237.019 407.418 244.573 399.477C246.433 397.529 248.668 395.978 251.143 394.917C253.618 393.855 256.283 393.306 258.976 393.301C262.222 393.295 265.419 394.088 268.286 395.609C271.153 397.13 273.601 399.333 275.416 402.024C274.45 397.435 272.113 393.247 268.713 390.017C264.393 385.892 258.646 383.594 252.673 383.604C249.52 383.61 246.4 384.253 243.502 385.496C240.604 386.738 237.987 388.555 235.809 390.835C226.964 400.132 227.332 414.892 236.628 423.737C239.747 426.709 243.633 428.751 247.849 429.634C246.935 429.021 246.074 428.333 245.273 427.578Z" fill="black"/>
<path d="M308.967 446.561C302.994 446.571 297.248 444.274 292.928 440.148C283.632 431.303 283.264 416.544 292.109 407.246C294.287 404.966 296.904 403.15 299.802 401.907C302.7 400.664 305.82 400.021 308.973 400.015C314.946 400.005 320.693 402.303 325.013 406.428C334.308 415.273 334.676 430.032 325.833 439.33C323.655 441.61 321.037 443.426 318.139 444.669C315.24 445.912 312.121 446.555 308.967 446.561Z" fill="#8D9C9B"/>
<path opacity="0.1" d="M301.572 443.989C293.632 436.435 293.318 423.829 300.872 415.888C302.732 413.941 304.967 412.389 307.442 411.328C309.917 410.267 312.582 409.717 315.275 409.712C318.521 409.706 321.718 410.499 324.585 412.02C327.452 413.541 329.9 415.744 331.715 418.435C330.749 413.846 328.412 409.658 325.012 406.428C320.692 402.303 314.945 400.005 308.972 400.015C305.819 400.021 302.699 400.664 299.801 401.907C296.903 403.15 294.286 404.966 292.108 407.246C283.263 416.543 283.631 431.303 292.927 440.148C296.046 443.12 299.932 445.162 304.148 446.045C303.234 445.432 302.373 444.744 301.572 443.989Z" fill="black"/>
<path d="M263.66 486.155C257.687 486.165 251.941 483.867 247.621 479.742C238.325 470.897 237.957 456.138 246.802 446.84C248.98 444.559 251.597 442.743 254.495 441.501C257.393 440.258 260.513 439.614 263.666 439.609C269.64 439.599 275.386 441.896 279.706 446.022C289.001 454.867 289.369 469.626 280.526 478.924C278.348 481.204 275.731 483.02 272.832 484.263C269.934 485.506 266.814 486.149 263.66 486.155Z" fill="#8D9C9B"/>
<path opacity="0.1" d="M256.265 483.584C248.325 476.03 248.011 463.424 255.565 455.483C257.425 453.535 259.66 451.984 262.135 450.923C264.61 449.861 267.275 449.312 269.968 449.307C273.214 449.301 276.411 450.093 279.278 451.615C282.145 453.136 284.593 455.339 286.408 458.03C285.442 453.441 283.105 449.253 279.705 446.023C275.385 441.898 269.638 439.6 263.665 439.61C260.512 439.615 257.392 440.259 254.494 441.502C251.596 442.744 248.979 444.56 246.801 446.841C237.956 456.138 238.324 470.898 247.62 479.743C250.739 482.715 254.625 484.757 258.841 485.64C257.927 485.026 257.066 484.339 256.265 483.584Z" fill="black"/>
</g>
</g>
<defs>
<clipPath id="clip0_169_1514">
<rect width="512" height="512" fill="white"/>
</clipPath>
<clipPath id="clip1_169_1514">
<rect width="512" height="512" fill="white"/>
</clipPath>
</defs>
</svg>
