<svg width="512" height="512" viewBox="0 0 512 512" fill="none" xmlns="http://www.w3.org/2000/svg">
<g clip-path="url(#clip0_169_1796)">
<path d="M253.754 315.506L191.529 253.281C179.032 240.784 158.771 240.784 146.274 253.281L134.96 264.594L129.303 258.937C119.93 249.564 104.734 249.564 95.362 258.937L67.078 287.221C54.581 299.718 54.581 319.979 67.078 332.476L163.245 428.643C170.419 428.643 177.522 427.23 184.15 424.485C190.778 421.74 196.8 417.716 201.872 412.643L253.754 360.761C266.251 348.264 266.251 328.003 253.754 315.506Z" fill="#464646"/>
<path d="M123.647 456.927L38.794 372.074C38.0511 371.331 37.4618 370.449 37.0597 369.479C36.6577 368.508 36.4507 367.468 36.4507 366.417C36.4507 365.366 36.6577 364.326 37.0597 363.355C37.4618 362.385 38.0511 361.503 38.794 360.76L67.078 332.476L163.245 428.643L134.961 456.927C134.218 457.67 133.336 458.26 132.366 458.662C131.395 459.064 130.355 459.271 129.304 459.271C128.253 459.271 127.213 459.064 126.242 458.662C125.272 458.26 124.39 457.67 123.647 456.927Z" fill="#323232"/>
<path d="M78.392 411.673L38.794 372.075C38.0511 371.332 37.4618 370.45 37.0597 369.48C36.6577 368.509 36.4507 367.469 36.4507 366.418C36.4507 365.367 36.6577 364.327 37.0597 363.356C37.4618 362.386 38.0511 361.504 38.794 360.761L55.765 343.79L101.02 389.045L78.392 411.673Z" fill="#464646"/>
<path d="M98.191 295.707C98.5624 296.078 99.0034 296.373 99.4887 296.574C99.974 296.775 100.494 296.879 101.02 296.879C101.545 296.879 102.065 296.775 102.55 296.574C103.036 296.373 103.477 296.078 103.848 295.707L134.961 264.594L129.304 258.937L98.191 290.05C97.8196 290.421 97.5249 290.862 97.3239 291.348C97.1228 291.833 97.0194 292.353 97.0194 292.879C97.0194 293.404 97.1228 293.924 97.3239 294.409C97.5249 294.895 97.8196 295.336 98.191 295.707Z" fill="#323232"/>
<path d="M123.647 317.849C122.065 317.849 120.518 317.379 119.203 316.5C117.888 315.621 116.862 314.372 116.257 312.91C115.651 311.449 115.493 309.841 115.801 308.289C116.11 306.737 116.871 305.312 117.99 304.193L157.588 264.595C159.091 263.109 161.121 262.279 163.235 262.286C165.348 262.292 167.373 263.134 168.867 264.629C170.362 266.123 171.204 268.148 171.211 270.261C171.217 272.374 170.387 274.404 168.902 275.908L129.304 315.506C128.562 316.25 127.68 316.84 126.709 317.242C125.738 317.644 124.698 317.85 123.647 317.849Z" fill="#58595B"/>
<path d="M63.307 373.96L89.706 400.359L101.02 389.045L74.621 362.646C73.1207 361.146 71.0858 360.303 68.964 360.303C66.8422 360.303 64.8073 361.146 63.307 362.646C61.8067 364.146 60.9638 366.181 60.9638 368.303C60.9638 370.425 61.8067 372.46 63.307 373.96Z" fill="#D7E6F0"/>
<path d="M89.706 400.359L121.762 432.415C122.505 433.158 123.387 433.747 124.357 434.149C125.328 434.551 126.368 434.758 127.419 434.758C128.47 434.758 129.51 434.551 130.481 434.149C131.451 433.747 132.333 433.158 133.076 432.415C133.819 431.672 134.408 430.79 134.81 429.819C135.212 428.849 135.419 427.809 135.419 426.758C135.419 425.707 135.212 424.667 134.81 423.696C134.408 422.726 133.819 421.844 133.076 421.101L101.02 389.045L89.706 400.359Z" fill="#8CAAC8"/>
<path d="M123.691 456.961L100.901 479.751L16.061 394.911L38.851 372.121L123.691 456.961Z" fill="#FAB991"/>
<path d="M123.698 456.964L100.908 479.754L55.66 434.506L78.45 411.716L123.698 456.964Z" fill="#F0915A"/>
<path d="M444.922 287.222L416.638 258.938C407.265 249.565 392.069 249.565 382.697 258.938L377.04 264.595L365.726 253.282C353.229 240.785 332.968 240.785 320.471 253.282L258.246 315.507C245.749 328.004 245.749 348.265 258.246 360.762L310.128 412.644C315.2 417.717 321.222 421.74 327.85 424.486C334.478 427.231 341.581 428.644 348.755 428.644L444.922 332.477C457.418 319.98 457.418 299.719 444.922 287.222Z" fill="#F04B37"/>
<path d="M388.353 317.849C387.302 317.85 386.261 317.644 385.291 317.242C384.32 316.84 383.438 316.25 382.696 315.506L343.098 275.908C342.348 275.166 341.752 274.284 341.344 273.312C340.936 272.339 340.724 271.295 340.721 270.241C340.718 269.186 340.923 268.141 341.325 267.166C341.727 266.191 342.318 265.305 343.064 264.56C343.81 263.814 344.696 263.223 345.671 262.821C346.646 262.419 347.691 262.214 348.745 262.217C349.8 262.22 350.844 262.432 351.816 262.84C352.789 263.248 353.671 263.844 354.412 264.595L394.01 304.193C395.129 305.312 395.89 306.737 396.199 308.289C396.507 309.84 396.349 311.449 395.743 312.91C395.138 314.372 394.112 315.621 392.797 316.5C391.482 317.379 389.935 317.849 388.353 317.849Z" fill="#FF6955"/>
<path d="M388.353 456.927L473.206 372.074C473.949 371.331 474.538 370.449 474.94 369.479C475.342 368.508 475.549 367.468 475.549 366.417C475.549 365.366 475.342 364.326 474.94 363.355C474.538 362.385 473.949 361.503 473.206 360.76L444.922 332.476L348.755 428.643L377.039 456.927C377.782 457.67 378.664 458.26 379.634 458.662C380.605 459.064 381.645 459.271 382.696 459.271C383.747 459.271 384.787 459.064 385.758 458.662C386.728 458.26 387.61 457.67 388.353 456.927Z" fill="#BE281E"/>
<path d="M433.608 411.673L473.206 372.075C473.949 371.332 474.538 370.45 474.94 369.48C475.342 368.509 475.549 367.469 475.549 366.418C475.549 365.367 475.342 364.327 474.94 363.356C474.538 362.386 473.949 361.504 473.206 360.761L456.235 343.79L410.98 389.045L433.608 411.673Z" fill="#F04B37"/>
<path d="M413.809 295.707C413.438 296.078 412.997 296.373 412.511 296.574C412.026 296.775 411.506 296.879 410.98 296.879C410.455 296.879 409.935 296.775 409.45 296.574C408.964 296.373 408.523 296.078 408.152 295.707L377.039 264.594L382.696 258.937L413.809 290.05C414.18 290.421 414.475 290.862 414.676 291.348C414.877 291.833 414.981 292.353 414.981 292.879C414.981 293.404 414.877 293.924 414.676 294.409C414.475 294.895 414.18 295.336 413.809 295.707Z" fill="#BE281E"/>
<path d="M448.693 373.96L422.294 400.359L410.98 389.045L437.379 362.646C438.879 361.146 440.914 360.303 443.036 360.303C445.158 360.303 447.193 361.146 448.693 362.646C450.193 364.146 451.036 366.181 451.036 368.303C451.036 370.425 450.193 372.46 448.693 373.96Z" fill="#D7E6F0"/>
<path d="M422.294 400.359L390.238 432.415C389.495 433.158 388.613 433.747 387.643 434.149C386.672 434.551 385.632 434.758 384.581 434.758C383.53 434.758 382.49 434.551 381.519 434.149C380.549 433.747 379.667 433.158 378.924 432.415C378.181 431.672 377.592 430.79 377.19 429.819C376.788 428.849 376.581 427.809 376.581 426.758C376.581 425.707 376.788 424.667 377.19 423.696C377.592 422.726 378.181 421.844 378.924 421.101L410.98 389.045L422.294 400.359Z" fill="#8CAAC8"/>
<path d="M473.2 371.99L495.99 394.78L411.15 479.62L388.36 456.83L473.2 371.99Z" fill="#FAB991"/>
<path d="M433.609 411.585L456.399 434.375L411.151 479.623L388.361 456.833L433.609 411.585Z" fill="#F0915A"/>
<path d="M282.697 87.7208H256V36.2808C256 31.6428 249.428 30.7218 248.154 35.1818L225.457 114.622C224.727 117.177 226.646 119.721 229.303 119.721H256V171.161C256 175.799 262.572 176.72 263.846 172.26L286.543 92.8198C287.273 90.2648 285.355 87.7208 282.697 87.7208ZM399.088 186.266L380.21 167.388L416.583 131.015C419.863 127.735 415.867 122.437 411.812 124.69L339.59 164.813C337.267 166.104 336.825 169.259 338.704 171.138L357.582 190.016L321.209 226.389C317.929 229.669 321.925 234.967 325.98 232.714L398.202 192.591C400.525 191.301 400.967 188.145 399.088 186.266ZM145.027 154.168L126.149 173.046L89.776 136.673C86.496 133.393 81.198 137.389 83.451 141.444L123.574 213.666C124.865 215.989 128.02 216.431 129.899 214.552L148.777 195.674L185.15 232.047C188.43 235.327 193.728 231.331 191.475 227.276L151.352 155.054C150.061 152.73 146.906 152.288 145.027 154.168ZM240 239.721H224C221.878 239.721 219.843 238.878 218.343 237.378C216.843 235.877 216 233.843 216 231.721C216 229.599 216.843 227.564 218.343 226.064C219.843 224.564 221.878 223.721 224 223.721H240C242.122 223.721 244.157 224.564 245.657 226.064C247.157 227.564 248 229.599 248 231.721C248 233.843 247.157 235.877 245.657 237.378C244.157 238.878 242.122 239.721 240 239.721ZM288 239.721H272C269.878 239.721 267.843 238.878 266.343 237.378C264.843 235.877 264 233.843 264 231.721C264 229.599 264.843 227.564 266.343 226.064C267.843 224.564 269.878 223.721 272 223.721H288C290.122 223.721 292.157 224.564 293.657 226.064C295.157 227.564 296 229.599 296 231.721C296 233.843 295.157 235.877 293.657 237.378C292.157 238.878 290.122 239.721 288 239.721ZM256 271.721C253.878 271.721 251.843 270.878 250.343 269.378C248.843 267.877 248 265.843 248 263.721V247.721C248 245.599 248.843 243.564 250.343 242.064C251.843 240.564 253.878 239.721 256 239.721C258.122 239.721 260.157 240.564 261.657 242.064C263.157 243.564 264 245.599 264 247.721V263.721C264 265.843 263.157 267.877 261.657 269.378C260.157 270.878 258.122 271.721 256 271.721ZM256 223.721C253.878 223.721 251.843 222.878 250.343 221.378C248.843 219.877 248 217.843 248 215.721V199.721C248 197.599 248.843 195.564 250.343 194.064C251.843 192.564 253.878 191.721 256 191.721C258.122 191.721 260.157 192.564 261.657 194.064C263.157 195.564 264 197.599 264 199.721V215.721C264 217.843 263.157 219.877 261.657 221.378C260.157 222.878 258.122 223.721 256 223.721Z" fill="#F58721"/>
</g>
<defs>
<clipPath id="clip0_169_1796">
<rect width="512" height="512" fill="white"/>
</clipPath>
</defs>
</svg>
