<svg width="512" height="512" viewBox="0 0 512 512" fill="none" xmlns="http://www.w3.org/2000/svg">
<g clip-path="url(#clip0_169_1467)">
<g clip-path="url(#clip1_169_1467)">
<path d="M30.5611 63.7397L48.4478 45.8525L377.772 375.165L359.885 393.052L30.5611 63.7397Z" fill="#F4DC64"/>
<path d="M30.5645 63.7329L39.5078 54.7893L368.832 384.102L359.888 393.045L30.5645 63.7329Z" fill="#E5C74C"/>
<path d="M91.655 79.872L64.582 106.935L44.051 86.403L4.028 46.37C-1.339 41.013 -1.339 32.318 4.028 26.961L11.672 19.307C17.039 13.94 25.734 13.94 31.091 19.307L71.124 59.34L82.054 70.27L91.655 79.872Z" fill="#11B3C2"/>
<path d="M82.054 70.2698L54.981 97.3328L44.051 86.4028L71.124 59.3398L82.054 70.2698Z" fill="#1193AD"/>
<path d="M4.025 46.3761L64.583 106.934L75.883 95.6341L15.325 35.0771C13.0651 32.8208 11.6633 29.8466 11.3616 26.6674C11.0598 23.4882 11.8769 20.3033 13.672 17.6621C12.9525 18.142 12.2831 18.6931 11.674 19.3071L4.026 26.9551C-1.342 32.3231 -1.342 41.0091 4.025 46.3761Z" fill="#1193AD"/>
<path d="M412.332 491.966L476.683 427.615C484.525 419.773 482.356 406.55 472.42 401.624L389.078 360.303C386.038 358.796 382.601 358.28 379.252 358.829C375.903 359.379 372.811 360.965 370.411 363.364L348.081 385.694C345.681 388.094 344.095 391.186 343.546 394.535C342.997 397.884 343.512 401.321 345.02 404.361L386.341 487.703C391.267 497.639 404.49 499.808 412.332 491.966Z" fill="#F9653D"/>
<path d="M412.327 491.966L423.627 480.666C415.788 488.505 402.567 486.344 397.638 476.4L356.317 393.059C354.812 390.019 354.299 386.584 354.849 383.237C355.399 379.89 356.984 376.8 359.382 374.401L348.082 385.701C345.684 388.1 344.099 391.19 343.549 394.537C342.999 397.884 343.512 401.319 345.017 404.359L386.338 487.7C391.267 497.644 404.488 499.805 412.327 491.966ZM430.285 435.407C429.27 435.408 428.265 435.209 427.327 434.82C426.389 434.432 425.538 433.862 424.821 433.143L397.279 405.6C396.562 404.882 395.993 404.031 395.604 403.093C395.216 402.156 395.016 401.151 395.016 400.136C395.017 399.122 395.217 398.117 395.605 397.179C395.993 396.242 396.562 395.39 397.28 394.673C397.998 393.955 398.849 393.386 399.787 392.998C400.724 392.61 401.729 392.41 402.744 392.41C403.758 392.41 404.763 392.61 405.701 392.999C406.638 393.387 407.49 393.956 408.207 394.674L435.749 422.217C436.83 423.297 437.566 424.674 437.864 426.173C438.163 427.672 438.01 429.226 437.425 430.638C436.84 432.05 435.849 433.256 434.578 434.105C433.307 434.954 431.813 435.407 430.285 435.407Z" fill="#EF5330"/>
<path d="M412.397 453.294C411.382 453.295 410.377 453.096 409.439 452.707C408.501 452.319 407.65 451.749 406.933 451.03L379.391 423.487C378.674 422.769 378.104 421.918 377.716 420.98C377.328 420.043 377.128 419.038 377.128 418.023C377.129 417.009 377.328 416.004 377.717 415.066C378.105 414.129 378.674 413.277 379.392 412.56C380.11 411.842 380.961 411.273 381.899 410.885C382.836 410.497 383.841 410.297 384.856 410.297C385.87 410.297 386.875 410.497 387.812 410.886C388.75 411.274 389.602 411.843 390.319 412.561L417.861 440.104C418.578 440.821 419.148 441.673 419.536 442.611C419.924 443.548 420.124 444.553 420.124 445.568C420.124 446.582 419.924 447.587 419.535 448.524C419.147 449.462 418.578 450.314 417.86 451.031C417.143 451.749 416.292 452.319 415.354 452.708C414.417 453.096 413.412 453.295 412.397 453.294Z" fill="#EF5330"/>
<path d="M223.17 264.067C221.642 264.066 220.149 263.612 218.879 262.763C217.608 261.914 216.618 260.707 216.034 259.296C215.449 257.884 215.296 256.331 215.593 254.832C215.891 253.334 216.626 251.957 217.706 250.876L235.593 232.989C237.042 231.54 239.008 230.727 241.057 230.727C243.106 230.727 245.071 231.54 246.521 232.989C247.97 234.438 248.784 236.404 248.784 238.453C248.784 240.502 247.97 242.467 246.521 243.917L228.634 261.804C227.917 262.522 227.065 263.092 226.128 263.48C225.19 263.869 224.185 264.068 223.17 264.067ZM207.24 248.137C205.712 248.136 204.219 247.682 202.949 246.833C201.678 245.984 200.688 244.777 200.104 243.366C199.519 241.954 199.366 240.401 199.663 238.902C199.961 237.404 200.696 236.027 201.776 234.946L219.663 217.059C221.112 215.61 223.078 214.797 225.127 214.797C227.176 214.797 229.141 215.61 230.591 217.059C232.04 218.508 232.854 220.474 232.854 222.523C232.854 224.572 232.04 226.537 230.591 227.987L212.704 245.874C211.987 246.592 211.136 247.162 210.198 247.551C209.26 247.939 208.255 248.138 207.24 248.137ZM191.311 232.207C189.783 232.206 188.29 231.752 187.02 230.903C185.749 230.054 184.759 228.847 184.175 227.436C183.59 226.024 183.437 224.471 183.734 222.972C184.032 221.474 184.767 220.097 185.847 219.016L203.734 201.129C205.183 199.68 207.149 198.867 209.198 198.867C211.247 198.867 213.212 199.68 214.662 201.129C216.111 202.578 216.925 204.544 216.925 206.593C216.925 208.642 216.111 210.607 214.662 212.057L196.775 229.944C196.058 230.662 195.206 231.232 194.269 231.62C193.331 232.009 192.326 232.208 191.311 232.207Z" fill="#F9653D"/>
<path d="M152.113 393.054L134.226 375.166L463.55 45.8542L481.436 63.7415L152.113 393.054Z" fill="#F4DC64"/>
<path d="M152.114 393.049L143.171 384.105L472.495 54.7929L481.438 63.7366L152.114 393.049Z" fill="#E5C74C"/>
<path d="M507.972 46.37L467.949 86.403L447.418 106.935L420.345 79.872L429.956 70.271L440.876 59.341L480.909 19.308C486.266 13.941 494.961 13.941 500.328 19.308L507.972 26.962C513.339 32.318 513.339 41.013 507.972 46.37Z" fill="#11B3C2"/>
<path d="M440.876 59.3398L467.949 86.4028L457.019 97.3328L429.956 70.2698L440.876 59.3398Z" fill="#1193AD"/>
<path d="M507.975 46.3761L447.417 106.934L436.117 95.6341L496.675 35.0761C498.935 32.8198 500.337 29.8456 500.638 26.6664C500.94 23.4872 500.123 20.3024 498.328 17.6611C499.047 18.141 499.717 18.6921 500.326 19.3061L507.974 26.9541C513.342 32.3231 513.342 41.0091 507.975 46.3761Z" fill="#1193AD"/>
<path d="M99.668 491.966L35.317 427.615C27.475 419.773 29.644 406.55 39.58 401.624L122.922 360.303C125.962 358.796 129.399 358.28 132.748 358.829C136.097 359.379 139.189 360.965 141.589 363.364L163.919 385.694C166.319 388.094 167.905 391.186 168.454 394.535C169.003 397.884 168.488 401.321 166.98 404.361L125.659 487.703C120.733 497.639 107.51 499.808 99.668 491.966Z" fill="#F9653D"/>
<path d="M99.673 491.966L88.373 480.666C96.212 488.505 109.433 486.344 114.362 476.4L155.683 393.059C157.188 390.019 157.701 386.584 157.151 383.237C156.601 379.89 155.016 376.8 152.618 374.401L163.918 385.701C166.316 388.1 167.901 391.19 168.451 394.537C169.001 397.884 168.488 401.319 166.983 404.359L125.662 487.7C120.733 497.644 107.512 499.805 99.673 491.966ZM81.715 435.407C80.1866 435.407 78.6926 434.954 77.4217 434.105C76.1508 433.256 75.1603 432.05 74.5754 430.638C73.9905 429.226 73.8375 427.672 74.1357 426.173C74.434 424.674 75.1701 423.297 76.251 422.217L103.793 394.674C105.247 393.25 107.204 392.458 109.239 392.469C111.274 392.479 113.223 393.292 114.662 394.731C116.101 396.17 116.914 398.118 116.925 400.153C116.936 402.188 116.144 404.145 114.721 405.6L87.179 433.143C86.4623 433.862 85.6106 434.432 84.6729 434.82C83.7352 435.209 82.73 435.408 81.715 435.407Z" fill="#EF5330"/>
<path d="M99.603 453.294C98.0747 453.294 96.5806 452.841 95.3098 451.992C94.0389 451.143 93.0484 449.937 92.4635 448.525C91.8785 447.113 91.7255 445.559 92.0238 444.06C92.3221 442.561 93.0582 441.184 94.139 440.104L121.681 412.561C123.135 411.137 125.092 410.345 127.127 410.356C129.162 410.366 131.111 411.179 132.55 412.618C133.989 414.057 134.802 416.005 134.813 418.04C134.824 420.075 134.032 422.032 132.609 423.487L105.067 451.03C104.35 451.749 103.499 452.319 102.561 452.707C101.623 453.096 100.618 453.295 99.603 453.294Z" fill="#EF5330"/>
<path d="M288.83 264.067C287.815 264.068 286.81 263.869 285.872 263.48C284.935 263.092 284.083 262.522 283.366 261.804L265.479 243.917C264.03 242.467 263.216 240.502 263.216 238.453C263.216 236.404 264.03 234.438 265.479 232.989C266.928 231.54 268.894 230.727 270.943 230.727C272.992 230.727 274.957 231.54 276.407 232.989L294.294 250.876C295.374 251.957 296.109 253.334 296.406 254.832C296.704 256.331 296.551 257.884 295.966 259.296C295.381 260.707 294.391 261.914 293.121 262.763C291.851 263.612 290.358 264.066 288.83 264.067ZM304.76 248.137C303.745 248.138 302.74 247.939 301.802 247.55C300.865 247.162 300.013 246.592 299.296 245.874L281.409 227.987C279.96 226.537 279.146 224.572 279.146 222.523C279.146 220.474 279.96 218.508 281.409 217.059C282.858 215.61 284.824 214.797 286.873 214.797C288.922 214.797 290.887 215.61 292.337 217.059L310.224 234.946C311.304 236.027 312.039 237.404 312.336 238.902C312.634 240.401 312.481 241.954 311.896 243.366C311.311 244.777 310.322 245.984 309.051 246.833C307.781 247.682 306.288 248.136 304.76 248.137ZM320.689 232.207C319.674 232.208 318.669 232.009 317.731 231.62C316.794 231.232 315.942 230.662 315.225 229.944L297.338 212.057C295.889 210.607 295.075 208.642 295.075 206.593C295.075 204.544 295.889 202.578 297.338 201.129C298.787 199.68 300.753 198.867 302.802 198.867C304.851 198.867 306.816 199.68 308.266 201.129L326.153 219.016C327.233 220.097 327.968 221.474 328.265 222.972C328.563 224.471 328.41 226.024 327.825 227.436C327.24 228.847 326.25 230.054 324.98 230.903C323.71 231.752 322.217 232.206 320.689 232.207Z" fill="#F9653D"/>
<path d="M256 180.889C280.582 180.889 300.509 160.962 300.509 136.38C300.509 111.798 280.582 91.8711 256 91.8711C231.418 91.8711 211.491 111.798 211.491 136.38C211.491 160.962 231.418 180.889 256 180.889Z" fill="#EF5330"/>
<path d="M300.508 136.382C300.508 160.961 280.583 180.886 256.004 180.886C252.528 180.886 249.152 180.486 245.907 179.737C265.632 175.163 280.324 157.485 280.324 136.381C280.324 115.268 265.632 97.5902 245.907 93.0152C249.218 92.2508 252.606 91.8654 256.004 91.8662C280.583 91.8682 300.508 111.793 300.508 136.382Z" fill="#EA4428"/>
<path d="M241.057 147.165C240.042 147.165 239.038 146.965 238.1 146.577C237.163 146.189 236.311 145.62 235.594 144.902C234.876 144.185 234.307 143.333 233.919 142.396C233.531 141.458 233.331 140.454 233.331 139.439V128.952C233.331 127.937 233.531 126.933 233.919 125.995C234.307 125.058 234.877 124.206 235.594 123.489C236.311 122.772 237.163 122.202 238.1 121.814C239.038 121.426 240.042 121.226 241.057 121.226C242.072 121.226 243.076 121.426 244.014 121.814C244.951 122.202 245.803 122.772 246.52 123.489C247.238 124.206 247.807 125.058 248.195 125.995C248.583 126.933 248.783 127.937 248.783 128.952V139.439C248.783 140.454 248.583 141.458 248.195 142.396C247.807 143.333 247.238 144.185 246.52 144.902C245.803 145.62 244.951 146.189 244.014 146.577C243.076 146.965 242.072 147.165 241.057 147.165Z" fill="#F9653D"/>
</g>
</g>
<defs>
<clipPath id="clip0_169_1467">
<rect width="512" height="512" fill="white"/>
</clipPath>
<clipPath id="clip1_169_1467">
<rect width="512" height="512" fill="white"/>
</clipPath>
</defs>
</svg>
