<svg width="512" height="512" viewBox="0 0 512 512" fill="none" xmlns="http://www.w3.org/2000/svg">
<g clip-path="url(#clip0_169_1702)">
<path d="M90 406C99.81 406 108.149 399.72 111.228 390.962C111.649 390.985 112.073 391 112.5 391C124.926 391 135 380.926 135 368.5V338.5H45V368.5C45 380.926 55.074 391 67.5 391C67.927 391 68.351 390.985 68.772 390.962C71.851 399.72 80.19 406 90 406Z" fill="#FFD9D4"/>
<path d="M67.5 361C67.927 361 68.351 360.985 68.772 360.962C71.851 369.72 80.19 376 90 376C99.81 376 108.149 369.72 111.228 360.962C111.649 360.985 112.073 361 112.5 361C124.926 361 135 350.926 135 338.5V256H45V338.5C45 350.926 55.074 361 67.5 361Z" fill="#FFF0D3"/>
<path d="M192.5 211C192.5 190.322 175.678 173.5 155 173.5H15C13.0109 173.5 11.1032 174.29 9.6967 175.697C8.29018 177.103 7.5 179.011 7.5 181C7.5 182.989 8.29018 184.897 9.6967 186.303C11.1032 187.71 13.0109 188.5 15 188.5H155C167.407 188.5 177.5 198.593 177.5 211V256H192.5V211Z" fill="#FF8D7E"/>
<path d="M177.5 256V301C177.5 313.407 167.407 323.5 155 323.5H15C13.0109 323.5 11.1032 324.29 9.6967 325.697C8.29018 327.103 7.5 329.011 7.5 331C7.5 332.989 8.29018 334.897 9.6967 336.303C11.1032 337.71 13.0109 338.5 15 338.5H155C175.678 338.5 192.5 321.678 192.5 301V256H177.5Z" fill="#FF6753"/>
<path d="M285 293.5H481.592L489.882 318.37C490.511 320.257 491.864 321.817 493.643 322.707C495.422 323.596 497.482 323.743 499.369 323.114C501.256 322.485 502.816 321.132 503.706 319.353C504.595 317.574 504.742 315.514 504.113 313.627L494.113 283.629C493.615 282.136 492.66 280.837 491.383 279.917C490.106 278.996 488.572 278.501 486.998 278.501H285V293.5Z" fill="#FFB4A9"/>
<path d="M285 218.5H481.592L489.882 193.63C490.511 191.743 491.864 190.183 493.643 189.293C495.422 188.403 497.482 188.257 499.369 188.886C501.256 189.515 502.816 190.868 503.706 192.647C504.595 194.426 504.742 196.486 504.113 198.373L494.113 228.371C493.615 229.864 492.66 231.163 491.383 232.083C490.106 233.004 488.572 233.499 486.998 233.499H285V218.5Z" fill="#FF8D7E"/>
<path d="M74.547 270.092L135 256C135 280.853 114.853 301 90 301L74.547 270.092Z" fill="#FF6753"/>
<path d="M90 271C84.571 271 79.366 270.679 74.547 270.092L54.001 228.997C62.211 218.07 75.279 211 90 211C114.853 211 135 231.147 135 256C135 264.284 114.853 271 90 271Z" fill="#FF8D7E"/>
<path d="M45 256L84.832 270.899C88.2606 280.564 90.0085 290.745 90 301C65.147 301 45 280.853 45 256Z" fill="#FFD9D4"/>
<path d="M45.0001 256C44.9851 246.26 48.1454 236.78 54.0021 228.997C68.0221 239.529 78.8581 254.063 84.8331 270.898C62.4151 270.044 45.0001 263.701 45.0001 256Z" fill="#FFF0D3"/>
<path d="M255 301L195 241L327.429 271H415C423.284 271 430 277.716 430 286C430 293.636 424.29 299.925 416.91 300.865L302.343 315.494C299.797 315.826 297.232 315.995 294.665 316C279.454 316 265.575 310.329 255 301Z" fill="#B3B3B3"/>
<path d="M195 271L255 211C265.575 201.671 279.454 196 294.665 196C297.268 196 299.827 196.184 302.343 196.506L416.911 211.135C424.291 212.076 430 218.365 430 226C430 234.284 423.284 241 415 241H327.429C329.088 245.693 330 250.739 330 256C330 261.261 329.088 266.307 327.429 271H195Z" fill="#CCCCCC"/>
<path d="M255 271V301H225L195 241L255 271Z" fill="#FF6753"/>
<path d="M255 271V211H225L195 271H255Z" fill="#FF8D7E"/>
<path d="M165 281V251L225 271V301H185C173.954 301 165 292.046 165 281Z" fill="#CCCCCC"/>
<path d="M165 251V231C165 219.954 173.954 211 185 211H225V271H185C173.954 271 165 262.046 165 251Z" fill="#EBEBEB"/>
</g>
<defs>
<clipPath id="clip0_169_1702">
<rect width="512" height="512" fill="white"/>
</clipPath>
</defs>
</svg>
