<svg width="512" height="512" viewBox="0 0 512 512" fill="none" xmlns="http://www.w3.org/2000/svg">
<g clip-path="url(#clip0_169_1561)">
<path d="M392 136H408.528C413.033 136 417.425 137.417 421.08 140.052C424.735 142.686 427.468 146.404 428.893 150.678L432 160H456L445.933 180.134C444.15 183.7 441.41 186.698 438.018 188.794C434.627 190.89 430.72 192 426.733 192C423.401 192 420.114 191.224 417.133 189.734C414.152 188.244 411.56 186.08 409.56 183.414L392 160V136Z" fill="#D18D28"/>
<path d="M344 136L336 160L344 168V184H392V160L364.277 136H344Z" fill="#FDC9A6"/>
<path d="M304 224H264L248 216L232 224V248H248L256 256H344V232H312L304 224Z" fill="#F6BB92"/>
<path d="M221.408 283.354C220.011 283.491 218.603 283.257 217.324 282.678C216.046 282.098 214.942 281.192 214.125 280.051C213.308 278.909 212.805 277.573 212.667 276.176C212.53 274.779 212.762 273.371 213.341 272.092L311.785 68.6729C312.66 66.7397 314.268 65.2334 316.253 64.4853C318.239 63.7373 320.441 63.8087 322.374 64.6839C324.307 65.5591 325.813 67.1664 326.562 69.1523C327.31 71.1381 327.238 73.3397 326.363 75.2729L227.919 278.689C227.339 279.97 226.432 281.076 225.289 281.895C224.146 282.714 222.808 283.217 221.408 283.354Z" fill="#683B0D"/>
<path d="M344 184L331.362 213.488C328.171 220.934 327.688 229.263 329.996 237.029C332.305 244.794 337.259 251.506 344 256V296H400V208L392 184H344Z" fill="#FF6268"/>
<path d="M328 200L288 168V144H256L248 168L312 232H344L328 200Z" fill="#FDC9A6"/>
<path d="M344 232L369.079 211.937C370.958 210.435 372.498 208.553 373.6 206.415C374.702 204.276 375.34 201.93 375.473 199.528C375.606 197.126 375.231 194.724 374.372 192.477C373.513 190.23 372.19 188.189 370.489 186.489C367.578 183.577 363.715 181.813 359.608 181.522C355.501 181.23 351.427 182.429 348.134 184.9L328 200L344 232Z" fill="#D8595A"/>
<path d="M392 136L392.914 167.142L361.142 136H392Z" fill="#C38325"/>
<path d="M392 176C390.949 176.001 389.909 175.795 388.938 175.393C387.967 174.991 387.085 174.401 386.343 173.657L349.66 136.975C348.917 136.232 348.328 135.35 347.926 134.379C347.524 133.408 347.317 132.368 347.317 131.317C347.317 130.267 347.524 129.226 347.926 128.255C348.328 127.285 348.917 126.403 349.66 125.66C350.403 124.917 351.285 124.328 352.256 123.925C353.226 123.523 354.267 123.316 355.318 123.316C356.368 123.316 357.409 123.523 358.379 123.925C359.35 124.328 360.232 124.917 360.975 125.66L397.657 162.343C398.776 163.462 399.538 164.887 399.847 166.439C400.155 167.991 399.997 169.599 399.391 171.061C398.786 172.523 397.76 173.773 396.445 174.652C395.129 175.531 393.582 176 392 176Z" fill="#D8595A"/>
<path d="M360 104C368.487 104 376.626 107.371 382.627 113.373C388.629 119.374 392 127.513 392 136H328C328 127.513 331.371 119.374 337.373 113.373C343.374 107.371 351.513 104 360 104Z" fill="#FF6268"/>
<path d="M176 128L168 152L176 160V176H224V128H176Z" fill="#F6BB92"/>
<path d="M176 176V296H232V192L224 176H176Z" fill="#0296E5"/>
<path d="M136 216H96L80 208L56 216L64 240H80L88 248H176V224H144L136 216Z" fill="#E6AF89"/>
<path d="M44.4891 313.953C43.0949 314.089 41.6895 313.857 40.4132 313.28C39.137 312.702 38.0347 311.8 37.2167 310.663C36.3986 309.526 35.8935 308.194 35.7518 306.8C35.61 305.407 35.8367 304 36.4091 302.722L146.8 69.2368C147.213 68.2542 147.819 67.364 148.581 66.6186C149.343 65.8732 150.246 65.2876 151.237 64.8962C152.229 64.5048 153.289 64.3155 154.354 64.3394C155.42 64.3633 156.47 64.6 157.443 65.0355C158.416 65.471 159.292 66.0965 160.02 66.8754C160.748 67.6542 161.313 68.5707 161.681 69.5709C162.05 70.5711 162.215 71.6349 162.167 72.6997C162.118 73.7646 161.858 74.8091 161.4 75.7718L51.0141 309.257C50.4376 310.546 49.5303 311.659 48.3843 312.484C47.2382 313.309 45.8943 313.816 44.4891 313.953Z" fill="#683B0D"/>
<path d="M160 192L120 160V136H88L80 160L144 224H176L160 192Z" fill="#F6BB92"/>
<path d="M176 224L201.079 203.937C202.958 202.435 204.498 200.553 205.6 198.415C206.702 196.276 207.34 193.93 207.473 191.528C207.606 189.126 207.231 186.724 206.372 184.477C205.513 182.23 204.19 180.189 202.489 178.489C199.578 175.577 195.715 173.813 191.608 173.522C187.501 173.23 183.427 174.429 180.134 176.9L160 192L176 224Z" fill="#0276B4"/>
<path d="M488 384H24C21.8783 384 19.8434 383.157 18.3431 381.657C16.8429 380.157 16 378.122 16 376C16 373.878 16.8429 371.843 18.3431 370.343C19.8434 368.843 21.8783 368 24 368H488C490.122 368 492.157 368.843 493.657 370.343C495.157 371.843 496 373.878 496 376C496 378.122 495.157 380.157 493.657 381.657C492.157 383.157 490.122 384 488 384ZM440 416H392C389.878 416 387.843 415.157 386.343 413.657C384.843 412.157 384 410.122 384 408C384 405.878 384.843 403.843 386.343 402.343C387.843 400.843 389.878 400 392 400H440C442.122 400 444.157 400.843 445.657 402.343C447.157 403.843 448 405.878 448 408C448 410.122 447.157 412.157 445.657 413.657C444.157 415.157 442.122 416 440 416ZM360 416H344C341.878 416 339.843 415.157 338.343 413.657C336.843 412.157 336 410.122 336 408C336 405.878 336.843 403.843 338.343 402.343C339.843 400.843 341.878 400 344 400H360C362.122 400 364.157 400.843 365.657 402.343C367.157 403.843 368 405.878 368 408C368 410.122 367.157 412.157 365.657 413.657C364.157 415.157 362.122 416 360 416Z" fill="#0BAFEA"/>
<path d="M312 416H232C229.878 416 227.843 415.157 226.343 413.657C224.843 412.157 224 410.122 224 408C224 405.878 224.843 403.843 226.343 402.343C227.843 400.843 229.878 400 232 400H312C314.122 400 316.157 400.843 317.657 402.343C319.157 403.843 320 405.878 320 408C320 410.122 319.157 412.157 317.657 413.657C316.157 415.157 314.122 416 312 416ZM400 448H304C301.878 448 299.843 447.157 298.343 445.657C296.843 444.157 296 442.122 296 440C296 437.878 296.843 435.843 298.343 434.343C299.843 432.843 301.878 432 304 432H400C402.122 432 404.157 432.843 405.657 434.343C407.157 435.843 408 437.878 408 440C408 442.122 407.157 444.157 405.657 445.657C404.157 447.157 402.122 448 400 448Z" fill="#0A9ACD"/>
<path d="M200 416H192C189.878 416 187.843 415.157 186.343 413.657C184.843 412.157 184 410.122 184 408C184 405.878 184.843 403.843 186.343 402.343C187.843 400.843 189.878 400 192 400H200C202.122 400 204.157 400.843 205.657 402.343C207.157 403.843 208 405.878 208 408C208 410.122 207.157 412.157 205.657 413.657C204.157 415.157 202.122 416 200 416Z" fill="#0BAFEA"/>
<path d="M160 416H112C109.878 416 107.843 415.157 106.343 413.657C104.843 412.157 104 410.122 104 408C104 405.878 104.843 403.843 106.343 402.343C107.843 400.843 109.878 400 112 400H160C162.122 400 164.157 400.843 165.657 402.343C167.157 403.843 168 405.878 168 408C168 410.122 167.157 412.157 165.657 413.657C164.157 415.157 162.122 416 160 416Z" fill="#0A9ACD"/>
<path d="M80 416H56C53.8783 416 51.8434 415.157 50.3431 413.657C48.8429 412.157 48 410.122 48 408C48 405.878 48.8429 403.843 50.3431 402.343C51.8434 400.843 53.8783 400 56 400H80C82.1217 400 84.1566 400.843 85.6569 402.343C87.1571 403.843 88 405.878 88 408C88 410.122 87.1571 412.157 85.6569 413.657C84.1566 415.157 82.1217 416 80 416ZM120 448H88C85.8783 448 83.8434 447.157 82.3431 445.657C80.8429 444.157 80 442.122 80 440C80 437.878 80.8429 435.843 82.3431 434.343C83.8434 432.843 85.8783 432 88 432H120C122.122 432 124.157 432.843 125.657 434.343C127.157 435.843 128 437.878 128 440C128 442.122 127.157 444.157 125.657 445.657C124.157 447.157 122.122 448 120 448Z" fill="#0BAFEA"/>
<path d="M168 448H152C149.878 448 147.843 447.157 146.343 445.657C144.843 444.157 144 442.122 144 440C144 437.878 144.843 435.843 146.343 434.343C147.843 432.843 149.878 432 152 432H168C170.122 432 172.157 432.843 173.657 434.343C175.157 435.843 176 437.878 176 440C176 442.122 175.157 444.157 173.657 445.657C172.157 447.157 170.122 448 168 448Z" fill="#0A9ACD"/>
<path d="M272 448H200C197.878 448 195.843 447.157 194.343 445.657C192.843 444.157 192 442.122 192 440C192 437.878 192.843 435.843 194.343 434.343C195.843 432.843 197.878 432 200 432H272C274.122 432 276.157 432.843 277.657 434.343C279.157 435.843 280 437.878 280 440C280 442.122 279.157 444.157 277.657 445.657C276.157 447.157 274.122 448 272 448Z" fill="#0BAFEA"/>
<path d="M224 128V160L192 128H224Z" fill="#48351B"/>
<path d="M224 168C222.949 168.001 221.909 167.795 220.938 167.393C219.967 166.991 219.085 166.401 218.343 165.657L180.909 128.224C179.409 126.723 178.566 124.688 178.566 122.566C178.566 120.444 179.409 118.409 180.909 116.909C182.41 115.408 184.445 114.565 186.567 114.565C188.689 114.565 190.724 115.408 192.224 116.909L229.657 154.343C230.776 155.462 231.538 156.887 231.847 158.439C232.155 159.991 231.997 161.6 231.391 163.061C230.786 164.523 229.76 165.773 228.445 166.652C227.129 167.531 225.582 168 224 168Z" fill="#0276B4"/>
<path d="M192 96C200.487 96 208.626 99.3714 214.627 105.373C220.629 111.374 224 119.513 224 128H160C160 119.513 163.371 111.374 169.373 105.373C175.374 99.3714 183.513 96 192 96Z" fill="#0296E5"/>
<path d="M469.355 338.17C423.847 362.993 372.838 376 321 376H191C139.162 376 88.1531 362.993 42.645 338.17C37.0025 335.092 32.2933 330.551 29.0123 325.025C25.7314 319.498 24 313.189 24 306.762V305.889C24 300.335 25.2931 294.857 27.7771 289.889C30.261 284.921 33.8675 280.599 38.311 277.267C43.6263 273.28 49.9468 270.853 56.5642 270.256C63.1815 269.659 69.8343 270.917 75.777 273.889C104.859 288.43 136.928 296 169.443 296H342.557C375.072 296 407.141 288.43 436.223 273.889C442.166 270.917 448.818 269.659 455.436 270.256C462.053 270.853 468.374 273.28 473.689 277.267C478.132 280.599 481.739 284.921 484.223 289.889C486.707 294.857 488 300.335 488 305.889V306.762C488 313.189 486.269 319.498 482.988 325.025C479.707 330.551 474.998 335.092 469.355 338.17Z" fill="#FD7422"/>
<path d="M254.1 348.194C231.043 348.196 208.002 346.989 185.072 344.578C129.938 338.836 76.5415 321.968 28.115 294.993C26.2795 293.953 24.9294 292.229 24.3585 290.198C23.7876 288.167 24.0422 285.993 25.0668 284.148C26.0914 282.304 27.8031 280.939 29.8293 280.351C31.8554 279.762 34.0319 279.998 35.885 281.007C82.432 306.934 133.756 323.148 186.75 328.666C232.767 333.5 279.171 333.366 325.16 328.266L327.499 328.005C373.937 322.872 419.094 309.537 460.871 288.62L476.422 280.845C477.363 280.365 478.389 280.077 479.442 279.996C480.494 279.915 481.553 280.043 482.556 280.373C483.558 280.703 484.486 281.228 485.285 281.918C486.084 282.608 486.739 283.45 487.211 284.394C487.683 285.338 487.964 286.367 488.037 287.42C488.11 288.473 487.973 289.531 487.635 290.531C487.298 291.531 486.765 292.455 486.069 293.249C485.373 294.042 484.526 294.69 483.578 295.155L468.027 302.931C424.563 324.693 377.582 338.567 329.269 343.908L326.93 344.169C302.746 346.853 278.432 348.196 254.1 348.194Z" fill="#DC651E"/>
</g>
<defs>
<clipPath id="clip0_169_1561">
<rect width="512" height="512" fill="white"/>
</clipPath>
</defs>
</svg>
