<svg width="512" height="512" viewBox="0 0 512 512" fill="none" xmlns="http://www.w3.org/2000/svg">
<g clip-path="url(#clip0_169_1749)">
<path d="M158.133 108.875H353.867V256.898H158.133V108.875Z" fill="#F0AA57"/>
<path d="M322.962 108.875H353.867V256.898H322.962V108.875Z" fill="#E19C4B"/>
<path d="M366.232 125.134H145.768C144.129 125.134 142.558 124.483 141.399 123.324C140.24 122.165 139.589 120.594 139.589 118.955V55.136C139.589 53.4973 140.24 51.9258 141.399 50.7671C142.558 49.6084 144.129 48.9573 145.768 48.957H366.231C367.87 48.9573 369.441 49.6084 370.6 50.7671C371.759 51.9258 372.41 53.4973 372.41 55.136V118.955C372.41 119.766 372.251 120.57 371.94 121.32C371.63 122.069 371.175 122.75 370.601 123.324C370.027 123.898 369.346 124.353 368.597 124.664C367.847 124.974 367.043 125.134 366.232 125.134Z" fill="#E19C4B"/>
<path d="M366.229 48.958H335.324C336.135 48.9576 336.939 49.1171 337.689 49.4272C338.438 49.7374 339.12 50.1922 339.694 50.7657C340.268 51.3392 340.723 52.0202 341.034 52.7697C341.345 53.5192 341.505 54.3226 341.505 55.134V118.958C341.505 119.769 341.345 120.573 341.034 121.322C340.723 122.072 340.268 122.753 339.694 123.326C339.12 123.9 338.438 124.355 337.689 124.665C336.939 124.975 336.135 125.134 335.324 125.134H366.229C367.04 125.134 367.844 124.975 368.594 124.665C369.343 124.355 370.025 123.9 370.599 123.326C371.173 122.753 371.628 122.072 371.939 121.322C372.25 120.573 372.41 119.769 372.41 118.958V55.134C372.41 54.3226 372.25 53.5192 371.939 52.7697C371.628 52.0202 371.173 51.3392 370.599 50.7657C370.025 50.1922 369.343 49.7374 368.594 49.4272C367.844 49.1171 367.04 48.9576 366.229 48.958Z" fill="#D8903A"/>
<path d="M274.045 209.676H237.955C225.447 209.676 215.308 199.537 215.308 187.029C215.308 174.521 225.447 164.382 237.955 164.382H274.045C286.553 164.382 296.692 174.521 296.692 187.029C296.692 199.536 286.553 209.676 274.045 209.676Z" fill="#43809F"/>
<path d="M496.559 483.5H15.441C6.913 483.5 0 476.587 0 468.059C0 459.531 6.913 452.618 15.441 452.618H496.559C505.087 452.618 512 459.531 512 468.059C512 476.587 505.087 483.5 496.559 483.5Z" fill="#FFD54F"/>
<path d="M496.547 452.618H465.642C474.176 452.618 481.095 459.531 481.095 468.059C481.095 476.587 474.176 483.5 465.642 483.5H496.547C505.081 483.5 512 476.587 512 468.059C512 459.531 505.081 452.618 496.547 452.618Z" fill="#FFC328"/>
<path d="M458.327 160.346H427.422V108.875H458.327V160.346Z" fill="#E8916F"/>
<path d="M411.649 259.439H473.46V170.364C473.46 153.302 459.628 139.47 442.566 139.47H442.543C425.481 139.47 411.649 153.302 411.649 170.364V259.439Z" fill="#80DEEA"/>
<path d="M442.554 139.47C437.128 139.464 431.797 140.893 427.101 143.612C436.336 148.952 442.554 158.924 442.554 170.353V259.439H473.459V170.353C473.46 153.297 459.623 139.47 442.554 139.47Z" fill="#4DD0E1"/>
<path d="M473.46 259.436V262.648C473.459 272.245 470.086 281.536 463.931 288.898C457.775 296.26 454.402 305.551 454.402 315.148V438H423.497V336.704C423.497 321.766 421.905 306.87 418.748 292.269L411.65 259.437H473.46V259.436Z" fill="#5297BA"/>
<path d="M442.543 117.029H442.566C459.628 117.029 473.46 103.197 473.46 86.1349V69.688C473.46 52.6259 459.628 38.7939 442.566 38.7939H442.543C425.481 38.7939 411.649 52.6259 411.649 69.688V86.1359C411.649 103.198 425.48 117.029 442.543 117.029Z" fill="#EBAD88"/>
<path d="M403.921 452.618H450.282C451.374 452.618 452.422 452.184 453.195 451.411C453.967 450.639 454.401 449.591 454.401 448.499V419.677H420.397C409.022 419.677 399.801 428.898 399.801 440.273V448.499C399.802 449.591 400.236 450.639 401.008 451.411C401.781 452.183 402.829 452.618 403.921 452.618Z" fill="#BE652B"/>
<path d="M483.145 50.619L483.106 85.126C483.096 93.652 476.177 100.558 467.644 100.558C459.105 100.558 452.182 93.641 452.182 85.108C452.182 76.943 445.558 70.324 437.386 70.324H428.75C409.875 70.324 394.574 55.034 394.574 36.174C394.574 35.1658 394.773 34.1676 395.159 33.2364C395.546 32.3051 396.111 31.459 396.825 30.7464C397.538 30.0338 398.384 29.4687 399.316 29.0832C400.247 28.6978 401.246 28.4996 402.254 28.5H461.034C473.255 28.5 483.159 38.407 483.145 50.619Z" fill="#D67B42"/>
<path d="M461.034 28.5H430.129C442.35 28.5 452.253 38.407 452.24 50.619L452.2 85.127C452.2 85.182 452.192 85.236 452.192 85.291C452.291 93.739 459.167 100.559 467.644 100.559C476.176 100.559 483.096 93.653 483.106 85.127L483.145 50.62C483.159 38.407 473.256 28.5 461.034 28.5Z" fill="#BE652B"/>
<path d="M53.667 108.875H84.572V160.346H53.667V108.875Z" fill="#E8916F"/>
<path d="M100.345 259.439H38.5339V170.364C38.5339 153.302 52.3659 139.47 69.4279 139.47H69.4509C86.5129 139.47 100.345 153.302 100.345 170.364V259.439Z" fill="#F48FB1"/>
<path d="M69.4401 139.47C64.0139 139.464 58.6826 140.893 53.9871 143.612C63.2221 148.952 69.4401 158.924 69.4401 170.353V259.439H100.345V170.353C100.345 153.297 86.5081 139.47 69.4401 139.47Z" fill="#F06292"/>
<path d="M38.5339 259.436V262.648C38.5347 272.245 41.9074 281.536 48.0629 288.898C54.2189 296.26 57.5917 305.551 57.5919 315.148V438H88.4969V336.704C88.497 321.766 90.0889 306.87 93.2459 292.269L100.344 259.437H38.5339V259.436Z" fill="#5297BA"/>
<path d="M69.4509 117.029H69.4279C52.3659 117.029 38.5339 103.197 38.5339 86.1349V69.688C38.5339 52.6259 52.3659 38.7939 69.4279 38.7939H69.4509C86.5129 38.7939 100.345 52.6259 100.345 69.688V86.1359C100.345 103.198 86.5129 117.029 69.4509 117.029Z" fill="#EBAD88"/>
<path d="M108.073 452.618H61.712C60.6196 452.618 59.5719 452.184 58.7994 451.411C58.027 450.639 57.593 449.591 57.593 448.499V419.677H91.597C102.972 419.677 112.193 428.898 112.193 440.273V448.499C112.192 449.591 111.758 450.639 110.986 451.411C110.213 452.183 109.165 452.618 108.073 452.618Z" fill="#BE652B"/>
<path d="M28.855 62.359L28.882 91.279C28.895 105.505 40.44 117.03 54.676 117.03C55.3502 117.03 56.0178 116.898 56.6407 116.64C57.2636 116.382 57.8297 116.004 58.3065 115.528C58.7834 115.051 59.1616 114.485 59.4198 113.862C59.6779 113.24 59.8109 112.572 59.811 111.898V85.424C59.811 77.085 66.577 70.324 74.922 70.324H105.487C112.076 70.324 117.418 64.986 117.418 58.402C117.418 41.888 104.02 28.5 87.494 28.5H62.708C43.999 28.5 28.838 43.664 28.855 62.359Z" fill="#D67B42"/>
<path d="M87.495 28.5H62.708C61.653 28.5 60.612 28.555 59.582 28.649C74.704 30.149 86.514 42.897 86.514 58.402C86.514 64.986 82.745 70.324 76.156 70.324H105.488C112.077 70.324 117.419 64.986 117.419 58.402C117.419 41.888 104.022 28.5 87.495 28.5Z" fill="#BE652B"/>
<path d="M168.9 240.848H100.345V175.787C100.345 167.259 93.426 160.346 84.892 160.346C76.358 160.346 69.439 167.259 69.439 175.787V256.289C69.439 264.817 76.358 271.73 84.892 271.73H168.9C177.434 271.73 184.353 264.817 184.353 256.289C184.353 247.761 177.435 240.848 168.9 240.848Z" fill="#EBAD88"/>
<path d="M100.345 203.296V175.787C100.345 167.259 93.426 160.346 84.892 160.346C76.358 160.346 69.439 167.259 69.439 175.787V203.296H100.345Z" fill="#5297BA"/>
<path d="M343.093 240.848H411.648V175.787C411.648 167.259 418.567 160.346 427.101 160.346C435.635 160.346 442.554 167.259 442.554 175.787V256.289C442.554 264.817 435.635 271.73 427.101 271.73H343.093C334.559 271.73 327.64 264.817 327.64 256.289C327.641 247.761 334.559 240.848 343.093 240.848Z" fill="#EBAD88"/>
<path d="M411.649 203.296V175.787C411.649 167.259 418.568 160.346 427.102 160.346C435.636 160.346 442.555 167.259 442.555 175.787V203.296H411.649Z" fill="#5297BA"/>
</g>
<defs>
<clipPath id="clip0_169_1749">
<rect width="512" height="512" fill="white"/>
</clipPath>
</defs>
</svg>
