<svg width="512" height="512" viewBox="0 0 512 512" fill="none" xmlns="http://www.w3.org/2000/svg">
<g clip-path="url(#clip0_169_1608)">
<g clip-path="url(#clip1_169_1608)">
<path d="M332.296 385.13L256 428.999L179.679 385.002L192.365 448.369L183.811 490.183C206.632 497.21 230.873 501 256 501C281.127 501 305.368 497.21 328.19 490.184L319.636 448.37L332.296 385.13Z" fill="#FE0364"/>
<path d="M179.679 385.003L192.365 448.37L183.811 490.184C192.277 492.789 200.88 494.931 209.579 496.599L219.864 448.37L210.766 402.923L179.679 385.003Z" fill="#C20148"/>
<path d="M256 404.603L174.143 357.343L179.891 386.058L256 430L332.109 386.058L337.857 357.343L256 404.603Z" fill="#FD3581"/>
<path d="M174.143 357.343L179.891 386.058L210.982 404.009L205.234 375.294L174.143 357.343Z" fill="#FE0364"/>
<path d="M126.758 270.049C119.058 270.049 111.104 263.1 110.07 255.47L99.299 176H63.979L75.387 260.171C78.798 285.336 101.363 305.049 126.758 305.049H164.694L157.687 270.049H126.758ZM412.701 176L401.929 255.471C400.896 263.1 392.942 270.049 385.241 270.049H354.312L347.305 305.049H385.241C410.637 305.049 433.201 285.336 436.612 260.171L448.022 176H412.701Z" fill="#F78157"/>
<path d="M92.655 261.321L81.092 176H63.979L75.387 260.171C78.798 285.336 101.363 305.049 126.758 305.049H133.494C112.648 300.515 95.585 282.935 92.655 261.321Z" fill="#F46B38"/>
<path d="M351.385 264.795H290.367V265.795L285.129 286.604C284.57 288.823 282.166 290.697 279.878 290.697H232.122C229.834 290.697 227.43 288.823 226.871 286.604L221.633 265.795V264.795H160.615C157.865 264.795 156.056 267.001 156.596 269.698L174.141 357.342L256 404.603L337.858 357.342L355.403 269.698C355.943 267.001 354.135 264.795 351.385 264.795Z" fill="white"/>
<path d="M205.234 375.294L184.095 269.698C183.555 267.001 185.364 264.795 188.114 264.795H160.615C157.865 264.795 156.056 267.001 156.596 269.698L174.141 357.342L205.234 375.294Z" fill="#C7E7FF"/>
<path d="M239.195 68.497H272.805C280.655 68.497 288.139 70.089 294.955 72.962C297.335 68.1163 298.569 62.7885 298.562 57.39C298.562 37.844 282.717 21.999 263.172 21.999H248.825C229.279 21.999 213.433 37.844 213.433 57.39C213.433 62.979 214.733 68.263 217.04 72.962C224.052 70.008 231.586 68.4898 239.195 68.497Z" fill="#C5573A"/>
<path d="M236.804 68.558C235.607 64.9566 234.998 61.186 235 57.391C235 39.063 248.932 23.991 266.783 22.183C265.584 22.0612 264.379 22.0005 263.174 22.001H248.827C229.281 22.001 213.435 37.846 213.435 57.392C213.435 62.981 214.735 68.265 217.042 72.964C223.312 70.3238 230.006 68.8314 236.804 68.558Z" fill="#A94B30"/>
<path d="M185.846 161.758H191.779V156.561L191.774 148.832C191.773 146.904 192.523 145.091 193.886 143.727C195.249 142.363 197.062 141.612 198.99 141.612H242.855C254.335 141.612 265.196 136.509 272.651 127.612C273.328 126.803 274.174 126.153 275.129 125.707C276.085 125.261 277.127 125.03 278.181 125.031C280.322 125.031 282.337 125.971 283.711 127.612C291.063 136.384 301.77 141.486 313.087 141.611C317.021 141.654 320.222 144.89 320.222 148.825V161.758H326.155C327.87 161.758 329.505 162.098 331.009 162.699V125.699C331.009 93.5551 304.95 67.4971 272.807 67.4971H239.197C207.052 67.4971 180.994 93.5561 180.994 125.699V162.699C182.537 162.079 184.184 161.759 185.846 161.758Z" fill="#C5573A"/>
<path d="M239.195 67.4971C207.05 67.4971 180.992 93.5561 180.992 125.699V162.699C182.535 162.079 184.183 161.76 185.846 161.758H191.779L191.774 148.832C191.773 146.904 192.523 145.091 193.886 143.727C195.249 142.363 197.062 141.612 198.99 141.612H208V125.698C208 93.5541 234.059 67.4961 266.203 67.4961L239.195 67.4971Z" fill="#A94B30"/>
<path d="M275.265 251.755C269.18 253.672 262.71 254.711 256 254.711C249.29 254.711 242.82 253.673 236.735 251.755V264.795H220.35L225.902 286.848C226.573 289.515 229.373 291.697 232.123 291.697H279.879C282.629 291.697 285.429 289.515 286.1 286.848L291.652 264.795H275.266L275.265 251.755Z" fill="#F78157"/>
<path d="M236.735 251.755V264.795H220.35L225.902 286.848C226.573 289.515 229.373 291.697 232.123 291.697H243.155L239.092 275.83C238.979 275.387 238.97 274.925 239.064 274.478C239.158 274.031 239.353 273.612 239.635 273.253C239.915 272.892 240.273 272.6 240.684 272.4C241.094 272.199 241.545 272.096 242.001 272.097H252.387C253.183 272.097 253.946 271.781 254.508 271.218C255.071 270.656 255.387 269.893 255.387 269.097V254.695C249.058 254.644 242.773 253.653 236.735 251.755Z" fill="#F46B38"/>
<path d="M191.778 190.49V160.758H185.845C178.074 160.758 171.714 167.116 171.714 174.888V191.268C171.714 199.04 178.073 205.398 185.845 205.398H193.543C192.373 200.515 191.781 195.511 191.778 190.49Z" fill="#FA9775"/>
<path d="M326.154 160.758H320.221V190.49C320.221 195.623 319.598 200.61 318.455 205.398H326.153C333.925 205.398 340.283 199.04 340.283 191.268V174.888C340.284 167.116 333.926 160.758 326.154 160.758Z" fill="#F78157"/>
<path d="M256 255.711C220.036 255.711 190.778 226.453 190.778 190.49V156.561L190.773 148.832C190.773 147.753 190.985 146.684 191.398 145.687C191.811 144.69 192.416 143.784 193.179 143.021C193.941 142.257 194.847 141.652 195.844 141.239C196.841 140.825 197.91 140.612 198.989 140.612H242.854C254.038 140.612 264.619 135.639 271.883 126.969C272.654 126.049 273.618 125.31 274.706 124.802C275.794 124.295 276.979 124.032 278.18 124.032C279.38 124.032 280.566 124.294 281.654 124.802C282.742 125.309 283.705 126.049 284.477 126.968C291.641 135.515 302.072 140.487 313.097 140.609C315.26 140.633 317.326 141.508 318.847 143.046C320.368 144.584 321.221 146.66 321.221 148.823V190.488C321.222 226.454 291.964 255.711 256 255.711Z" fill="#FA9775"/>
<path d="M207.005 190.49V156.561L207 148.832C207 147.753 207.212 146.684 207.625 145.687C208.037 144.69 208.643 143.784 209.406 143.02C210.168 142.257 211.074 141.651 212.071 141.238C213.068 140.825 214.137 140.612 215.216 140.612H198.989C197.91 140.612 196.841 140.824 195.844 141.237C194.846 141.65 193.94 142.256 193.177 143.019C192.414 143.782 191.809 144.689 191.397 145.686C190.984 146.684 190.772 147.752 190.773 148.832L190.778 156.561V190.49C190.778 226.453 220.036 255.711 256 255.711C258.749 255.711 261.453 255.52 264.113 255.188C231.967 251.18 207.005 223.705 207.005 190.49Z" fill="#F78157"/>
<path d="M261.813 203.355H255.188C248.295 203.355 242.688 197.748 242.688 190.855V179.086C242.688 174.944 246.045 171.586 250.188 171.586C254.331 171.586 257.688 174.944 257.688 179.086V188.355H261.813C263.802 188.355 265.71 189.145 267.116 190.552C268.523 191.958 269.313 193.866 269.313 195.855C269.313 197.844 268.523 199.752 267.116 201.158C265.71 202.565 263.802 203.355 261.813 203.355Z" fill="#EB6000"/>
<path d="M256 239.551C243.971 239.551 234.185 229.765 234.185 217.735C234.185 216.893 234.519 216.086 235.114 215.491C235.709 214.896 236.517 214.562 237.358 214.562H274.643C275.485 214.562 276.292 214.896 276.887 215.491C277.482 216.086 277.816 216.893 277.816 217.735C277.815 229.765 268.029 239.551 256 239.551Z" fill="#F46700"/>
<path d="M250.369 217.735C250.369 216.893 250.703 216.086 251.298 215.491C251.893 214.896 252.701 214.562 253.542 214.562H237.357C236.516 214.562 235.708 214.896 235.113 215.491C234.518 216.086 234.184 216.893 234.184 217.735C234.184 229.765 243.97 239.551 255.999 239.551C258.858 239.551 261.587 238.993 264.091 237.988C256.06 234.768 250.369 226.906 250.369 217.735Z" fill="#EB6000"/>
<path d="M287.943 156.546C283.464 156.546 279.8 160.21 279.8 164.689V176.585C279.8 181.064 283.463 184.729 287.943 184.729H290.443C294.923 184.729 298.588 181.065 298.588 176.585V164.69C298.588 160.211 294.923 156.547 290.443 156.547L287.943 156.546ZM221.557 156.546C217.078 156.546 213.412 160.21 213.412 164.689V176.585C213.412 181.064 217.077 184.729 221.557 184.729H224.057C228.537 184.729 232.2 181.065 232.2 176.585V164.69C232.2 160.211 228.537 156.547 224.057 156.547L221.557 156.546Z" fill="#C5573A"/>
<path d="M457.217 312.787C457.777 313.351 458.091 314.113 458.091 314.908C458.091 315.703 457.777 316.465 457.217 317.029L442.121 332.125C441.557 332.686 440.795 333 440 333C439.205 333 438.443 332.686 437.879 332.125L422.783 317.029C422.223 316.465 421.909 315.703 421.909 314.908C421.909 314.113 422.223 313.351 422.783 312.787L437.879 297.691C438.443 297.131 439.205 296.816 440 296.816C440.795 296.816 441.557 297.131 442.121 297.691L457.217 312.787ZM75.879 301.541C76.439 302.105 76.7533 302.867 76.7533 303.662C76.7533 304.457 76.439 305.219 75.879 305.783L62.783 318.879C62.2192 319.439 61.4567 319.753 60.662 319.753C59.8674 319.753 59.1049 319.439 58.541 318.879L45.445 305.783C44.8851 305.219 44.5708 304.457 44.5708 303.662C44.5708 302.867 44.8851 302.105 45.445 301.541L58.541 288.445C59.1049 287.885 59.8674 287.571 60.662 287.571C61.4567 287.571 62.2192 287.885 62.783 288.445L75.879 301.541ZM380.555 353.217C381.115 353.781 381.429 354.543 381.429 355.338C381.429 356.133 381.115 356.895 380.555 357.459L370.459 367.555C369.895 368.116 369.133 368.43 368.338 368.43C367.543 368.43 366.781 368.116 366.217 367.555L356.121 357.459C355.561 356.895 355.247 356.133 355.247 355.338C355.247 354.543 355.561 353.781 356.121 353.217L366.217 343.121C366.781 342.561 367.543 342.246 368.338 342.246C369.133 342.246 369.895 342.561 370.459 343.121L380.555 353.217ZM372.879 211.217C373.439 211.781 373.753 212.543 373.753 213.338C373.753 214.133 373.439 214.895 372.879 215.459L363.783 224.555C363.219 225.116 362.457 225.43 361.662 225.43C360.867 225.43 360.105 225.116 359.541 224.555L350.445 215.459C349.885 214.895 349.571 214.133 349.571 213.338C349.571 212.543 349.885 211.781 350.445 211.217L359.541 202.121C360.105 201.561 360.867 201.246 361.662 201.246C362.457 201.246 363.219 201.561 363.783 202.121L372.879 211.217ZM124.125 359.787C124.685 360.351 124.999 361.113 124.999 361.908C124.999 362.703 124.685 363.465 124.125 364.029L115.029 373.125C114.465 373.686 113.703 374 112.908 374C112.113 374 111.351 373.686 110.787 373.125L101.691 364.029C101.131 363.465 100.817 362.703 100.817 361.908C100.817 361.113 101.131 360.351 101.691 359.787L110.787 350.691C111.351 350.131 112.113 349.816 112.908 349.816C113.703 349.816 114.465 350.131 115.029 350.691L124.125 359.787ZM158.555 207.217C159.115 207.781 159.429 208.543 159.429 209.338C159.429 210.133 159.115 210.895 158.555 211.459L149.459 220.555C148.895 221.116 148.133 221.43 147.338 221.43C146.543 221.43 145.781 221.116 145.217 220.555L136.121 211.459C135.561 210.895 135.247 210.133 135.247 209.338C135.247 208.543 135.561 207.781 136.121 207.217L145.217 198.121C145.781 197.561 146.543 197.246 147.338 197.246C148.133 197.246 148.895 197.561 149.459 198.121L158.555 207.217Z" fill="#0078C8"/>
<path d="M86.636 200.44C88.216 200.44 90.559 199.886 92.749 197.253C95.531 193.907 97.814 187.206 98.499 176.82C103.756 188.332 109.753 195.024 115.546 195.028H115.551C118.168 195.028 120.454 193.623 121.828 191.172C124.407 186.568 123.865 178.449 120.618 168.153C128.091 175.478 134.891 179.606 140.074 179.607C143.481 179.607 146.132 177.789 147.163 174.745C148.933 169.526 145.525 161.488 138.093 152.15C144.866 155.075 150.788 156.643 155.433 156.644H155.436C163.582 156.644 164.932 151.658 165.151 150.129C165.983 144.345 159.775 137.502 148.594 130.934C149.665 130.974 150.71 130.995 151.731 130.995C159.372 130.995 169.148 129.841 172.323 124.343C173.615 122.104 173.583 119.477 172.233 117.139C169.581 112.546 162.001 109.15 150.891 107.324C163.461 102.994 170.804 97.3152 170.55 91.2462C170.446 88.7962 168.888 83.0982 156.666 83.0982C153.953 83.0982 149.912 83.3932 144.414 84.5312C153.771 76.6142 158.553 69.2222 157.276 63.6972C156.457 60.1552 153.416 58.0412 149.139 58.0412C144.838 58.0412 138.32 60.2822 130.004 65.6812C135.353 55.8142 137.364 47.6832 135.237 42.8242C134.038 40.0902 131.556 38.4562 128.597 38.4562C123.188 38.4562 116.596 43.8672 109.901 53.2362C111.151 43.2902 110.419 35.5932 107.541 31.3772C105.985 29.0992 103.79 27.8452 101.356 27.8452C95.122 27.8452 89.952 35.6192 86.634 48.6732C83.316 35.6202 78.146 27.8452 71.91 27.8452C69.476 27.8452 67.281 29.0992 65.726 31.3772C62.846 35.5932 62.115 43.2892 63.365 53.2362C56.67 43.8662 50.079 38.4562 44.67 38.4562C41.71 38.4562 39.228 40.0902 38.028 42.8252C35.9 47.6832 37.913 55.8142 43.261 65.6812C34.945 60.2812 28.429 58.0412 24.128 58.0412C19.85 58.0412 16.808 60.1552 15.988 63.6972C14.711 69.2212 19.494 76.6132 28.85 84.5292C23.353 83.3932 19.312 83.0972 16.599 83.0972C4.373 83.0972 2.817 88.7962 2.713 91.2462C2.462 97.3182 9.815 103 22.398 107.331C8.346 109.649 0 114.461 0 120.856C0 123.904 2.098 130.992 21.539 130.995H21.547C22.565 130.995 23.609 130.975 24.676 130.934C13.499 137.501 7.292 144.345 8.122 150.128C8.344 151.656 9.691 156.643 17.834 156.644H17.837C22.483 156.644 28.403 155.076 35.178 152.151C27.746 161.487 24.34 169.523 26.108 174.743C27.141 177.787 29.788 179.606 33.195 179.608H33.199C38.382 179.608 45.179 175.481 52.654 168.155C49.408 178.448 48.865 186.566 51.444 191.171C52.817 193.623 55.104 195.03 57.721 195.03C63.516 195.03 69.513 188.338 74.77 176.824C75.456 187.21 77.739 193.909 80.52 197.255C82.712 199.887 85.056 200.44 86.636 200.44Z" fill="#3C87D0"/>
<path d="M48 110.5C48 80.8893 61.342 54.3983 82.336 36.6963C79.43 31.0173 75.89 27.8433 71.912 27.8433C69.478 27.8433 67.283 29.0973 65.728 31.3753C62.848 35.5913 62.117 43.2873 63.367 53.2343C56.672 43.8643 50.081 38.4543 44.672 38.4543C41.712 38.4543 39.23 40.0883 38.03 42.8233C35.902 47.6813 37.915 55.8123 43.263 65.6793C34.947 60.2793 28.431 58.0393 24.13 58.0393C19.852 58.0393 16.81 60.1533 15.99 63.6953C14.713 69.2193 19.496 76.6113 28.852 84.5273C23.355 83.3913 19.314 83.0953 16.601 83.0953C4.375 83.0953 2.819 88.7943 2.715 91.2443C2.462 97.3183 9.815 103 22.398 107.331C8.346 109.649 0 114.461 0 120.856C0 123.904 2.098 130.992 21.539 130.995H21.547C22.565 130.995 23.609 130.975 24.676 130.934C13.499 137.501 7.292 144.345 8.122 150.128C8.344 151.656 9.691 156.643 17.834 156.644H17.837C22.483 156.644 28.403 155.076 35.178 152.151C27.746 161.487 24.34 169.523 26.108 174.743C27.141 177.787 29.788 179.606 33.195 179.608H33.199C38.382 179.608 45.179 175.481 52.654 168.155C49.408 178.448 48.865 186.566 51.444 191.171C52.817 193.623 55.104 195.03 57.721 195.03C63.471 195.03 69.42 188.433 74.648 177.081C58.137 159.763 48 136.315 48 110.5Z" fill="#0078C8"/>
<path d="M425.367 200.44C426.947 200.44 429.29 199.886 431.48 197.253C434.262 193.907 436.545 187.206 437.23 176.82C442.487 188.332 448.484 195.024 454.277 195.028H454.282C456.899 195.028 459.185 193.623 460.559 191.172C463.138 186.568 462.596 178.449 459.349 168.153C466.822 175.478 473.622 179.606 478.805 179.607C482.212 179.607 484.863 177.789 485.894 174.745C487.664 169.526 484.256 161.488 476.824 152.15C483.597 155.075 489.519 156.643 494.164 156.644H494.167C502.314 156.644 503.663 151.658 503.882 150.129C504.714 144.345 498.506 137.502 487.325 130.934C488.396 130.974 489.441 130.995 490.462 130.995C498.103 130.995 507.879 129.841 511.054 124.343C512.346 122.104 512.314 119.477 510.964 117.139C508.312 112.546 500.732 109.15 489.622 107.324C502.192 102.994 509.535 97.3152 509.281 91.2462C509.177 88.7962 507.619 83.0982 495.397 83.0982C492.684 83.0982 488.643 83.3932 483.145 84.5312C492.502 76.6142 497.284 69.2222 496.007 63.6972C495.188 60.1552 492.147 58.0412 487.87 58.0412C483.569 58.0412 477.051 60.2822 468.735 65.6812C474.084 55.8142 476.095 47.6832 473.968 42.8242C472.769 40.0902 470.287 38.4562 467.328 38.4562C461.919 38.4562 455.327 43.8672 448.632 53.2362C449.882 43.2902 449.15 35.5932 446.272 31.3772C444.716 29.0992 442.521 27.8452 440.087 27.8452C433.853 27.8452 428.683 35.6192 425.365 48.6732C422.047 35.6202 416.877 27.8452 410.641 27.8452C408.207 27.8452 406.012 29.0992 404.457 31.3772C401.577 35.5932 400.846 43.2892 402.096 53.2362C395.401 43.8662 388.81 38.4562 383.401 38.4562C380.441 38.4562 377.959 40.0902 376.759 42.8252C374.631 47.6832 376.644 55.8142 381.992 65.6812C373.676 60.2812 367.16 58.0412 362.859 58.0412C358.581 58.0412 355.539 60.1552 354.719 63.6972C353.442 69.2212 358.225 76.6132 367.581 84.5292C362.084 83.3932 358.043 83.0972 355.33 83.0972C343.104 83.0972 341.548 88.7962 341.444 91.2462C341.189 97.3182 348.543 103.001 361.126 107.331C347.073 109.649 338.728 114.462 338.728 120.856C338.728 123.904 340.826 130.992 360.267 130.995H360.275C361.293 130.995 362.337 130.975 363.404 130.934C352.227 137.501 346.02 144.345 346.85 150.128C347.072 151.656 348.419 156.643 356.562 156.644H356.565C361.211 156.644 367.131 155.076 373.906 152.151C366.474 161.487 363.068 169.523 364.836 174.743C365.869 177.787 368.516 179.606 371.923 179.608H371.927C377.11 179.608 383.907 175.481 391.382 168.155C388.136 178.448 387.593 186.566 390.172 191.171C391.545 193.623 393.832 195.03 396.449 195.03C402.244 195.03 408.241 188.338 413.498 176.824C414.183 187.21 416.467 193.909 419.248 197.255C421.443 199.887 423.787 200.44 425.367 200.44Z" fill="#3C87D0"/>
<path d="M386.731 110.5C386.731 80.8893 400.073 54.3983 421.067 36.6963C418.161 31.0173 414.621 27.8433 410.643 27.8433C408.209 27.8433 406.014 29.0973 404.459 31.3753C401.579 35.5913 400.848 43.2873 402.098 53.2343C395.403 43.8643 388.812 38.4543 383.403 38.4543C380.443 38.4543 377.961 40.0883 376.761 42.8233C374.633 47.6813 376.646 55.8123 381.994 65.6793C373.678 60.2793 367.162 58.0393 362.861 58.0393C358.583 58.0393 355.541 60.1533 354.721 63.6953C353.444 69.2193 358.227 76.6113 367.583 84.5273C362.086 83.3913 358.045 83.0953 355.332 83.0953C343.106 83.0953 341.55 88.7943 341.446 91.2443C341.191 97.3163 348.545 102.999 361.128 107.329C347.075 109.647 338.73 114.46 338.73 120.854C338.73 123.902 340.828 130.99 360.269 130.993H360.277C361.295 130.993 362.339 130.973 363.406 130.932C352.229 137.499 346.022 144.343 346.852 150.126C347.074 151.654 348.421 156.641 356.564 156.642H356.567C361.213 156.642 367.133 155.074 373.908 152.149C366.476 161.485 363.07 169.521 364.838 174.741C365.871 177.785 368.518 179.604 371.925 179.606H371.929C377.112 179.606 383.909 175.479 391.384 168.153C388.138 178.446 387.595 186.564 390.174 191.169C391.547 193.621 393.834 195.028 396.451 195.028C402.201 195.028 408.15 188.431 413.378 177.079C396.868 159.763 386.731 136.315 386.731 110.5Z" fill="#0078C8"/>
</g>
</g>
<defs>
<clipPath id="clip0_169_1608">
<rect width="512" height="512" fill="white"/>
</clipPath>
<clipPath id="clip1_169_1608">
<rect width="512" height="512" fill="white"/>
</clipPath>
</defs>
</svg>
