<svg width="512" height="512" viewBox="0 0 512 512" fill="none" xmlns="http://www.w3.org/2000/svg">
<g clip-path="url(#clip0_169_1890)">
<g clip-path="url(#clip1_169_1890)">
<path d="M263.889 187.772H159.42C147.873 187.772 138.512 178.411 138.512 166.864V20.908C138.512 9.361 147.872 0 159.42 0H263.889C275.436 0 284.797 9.361 284.797 20.908V166.863C284.797 178.411 275.436 187.772 263.889 187.772Z" fill="#43809F"/>
<path d="M264.194 0H233.289C244.668 0 253.893 9.499 253.893 21.217V166.554C253.893 178.272 244.668 187.771 233.289 187.771H264.194C275.573 187.771 284.798 178.272 284.798 166.554V21.217C284.797 9.499 275.573 0 264.194 0Z" fill="#3A7190"/>
<path d="M329.658 166.863V58.0379C329.658 46.4909 339.019 37.1299 350.566 37.1299H393.956C459.15 37.1299 512 89.9799 512 155.174V166.864C512 178.411 502.639 187.772 491.092 187.772H350.566C339.019 187.772 329.658 178.411 329.658 166.863Z" fill="#FFD54F"/>
<path d="M395.675 37.1299H364.77C429.014 37.1299 481.095 90.7609 481.095 156.918V166.554C481.095 178.272 471.87 187.771 460.491 187.771H491.396C502.775 187.771 512 178.272 512 166.554V156.918C512 90.7609 459.92 37.1299 395.675 37.1299Z" fill="#FFC328"/>
<path d="M470.278 512H144.74C133.361 512 124.136 502.775 124.136 491.396V367.775C124.136 356.396 133.361 347.171 144.74 347.171H470.277C481.656 347.171 490.881 356.396 490.881 367.775V491.397C490.881 502.775 481.657 512 470.278 512Z" fill="#7BE492"/>
<path d="M470.278 347.171H439.373C450.752 347.171 459.977 356.396 459.977 367.775V491.397C459.977 502.776 450.752 512.001 439.373 512.001H470.278C481.657 512.001 490.882 502.776 490.882 491.397V367.775C490.881 356.396 481.657 347.171 470.278 347.171Z" fill="#45D987"/>
<path d="M414.895 351.492H89.894C78.367 351.492 69.022 342.147 69.022 330.62V203.214C69.022 191.687 78.367 182.342 89.894 182.342H414.895C426.422 182.342 435.767 191.687 435.767 203.214V330.62C435.767 342.147 426.422 351.492 414.895 351.492Z" fill="#F75632"/>
<path d="M415.163 182.342H384.258C395.637 182.342 404.862 191.808 404.862 203.486V330.349C404.862 342.026 395.637 351.493 384.258 351.493H415.163C426.542 351.493 435.767 342.027 435.767 330.349V203.486C435.767 191.808 426.542 182.342 415.163 182.342Z" fill="#E33629"/>
<path d="M328.311 512H5.4679C0.904899 512 -1.6431 506.75 1.1879 503.183L162.61 299.787C164.795 297.034 168.985 297.034 171.17 299.787L332.592 503.183C335.422 506.75 332.873 512 328.311 512Z" fill="#FFD54F"/>
<path d="M332.591 503.183L171.17 299.787C168.985 297.034 164.795 297.034 162.61 299.787L151.437 313.865L301.686 503.183C304.517 506.75 301.969 512 297.406 512H328.311C332.874 512 335.422 506.75 332.591 503.183Z" fill="#FFC328"/>
</g>
</g>
<defs>
<clipPath id="clip0_169_1890">
<rect width="512" height="512" fill="white"/>
</clipPath>
<clipPath id="clip1_169_1890">
<rect width="512" height="512" fill="white"/>
</clipPath>
</defs>
</svg>
