<svg width="512" height="512" viewBox="0 0 512 512" fill="none" xmlns="http://www.w3.org/2000/svg">
<g clip-path="url(#clip0_170_4704)">
<path d="M349.517 397.112H362.189C364.206 397.112 365.788 398.694 365.788 400.712V416.338C365.793 416.812 365.703 417.282 365.524 417.721C365.345 418.16 365.08 418.559 364.745 418.894C364.409 419.229 364.011 419.494 363.572 419.673C363.133 419.852 362.663 419.942 362.189 419.937H349.517M177.398 419.937H164.726C164.252 419.942 163.782 419.852 163.343 419.673C162.904 419.494 162.505 419.229 162.17 418.894C161.835 418.559 161.57 418.16 161.391 417.721C161.211 417.282 161.122 416.812 161.126 416.338V400.712C161.126 398.694 162.708 397.112 164.726 397.112H177.398" fill="#448FA3"/>
<path d="M177.393 423.777H164.721C163.741 423.788 162.769 423.602 161.861 423.232C160.954 422.862 160.13 422.314 159.437 421.621C158.744 420.929 158.197 420.104 157.827 419.197C157.456 418.29 157.271 417.318 157.281 416.338V400.712C157.281 396.539 160.553 393.272 164.721 393.272H177.393C178.411 393.272 179.388 393.677 180.108 394.397C180.828 395.117 181.233 396.094 181.233 397.112C181.233 398.131 180.828 399.108 180.108 399.828C179.388 400.548 178.411 400.952 177.393 400.952H164.721L164.961 416.338L177.393 416.097C178.411 416.097 179.388 416.502 180.108 417.222C180.828 417.942 181.233 418.919 181.233 419.937C181.233 420.956 180.828 421.933 180.108 422.653C179.388 423.373 178.411 423.777 177.393 423.777Z" fill="#342625"/>
<path d="M448.778 129.869V154.466C448.778 156.649 449.645 158.743 451.189 160.287C452.733 161.831 454.828 162.699 457.011 162.699C459.195 162.699 461.289 161.831 462.833 160.287C464.377 158.743 465.244 156.649 465.244 154.466V129.869C465.244 127.686 464.377 125.592 462.833 124.048C461.289 122.504 459.195 121.636 457.011 121.636C454.828 121.636 452.733 122.504 451.189 124.048C449.645 125.592 448.778 127.686 448.778 129.869Z" fill="#448FA3"/>
<path d="M457.011 166.538C453.809 166.536 450.739 165.262 448.475 162.997C446.212 160.733 444.94 157.662 444.938 154.46V129.869C444.938 123.213 450.355 117.796 457.011 117.796C463.667 117.796 469.089 123.213 469.089 129.869V154.46C469.087 157.663 467.813 160.733 465.549 162.998C463.284 165.262 460.214 166.536 457.011 166.538ZM457.011 125.476C456.434 125.476 455.863 125.59 455.33 125.81C454.797 126.031 454.313 126.355 453.905 126.763C453.497 127.17 453.173 127.655 452.953 128.188C452.732 128.721 452.618 129.292 452.618 129.869V154.46C452.685 155.581 453.176 156.634 453.994 157.404C454.811 158.175 455.891 158.603 457.014 158.603C458.137 158.603 459.217 158.175 460.034 157.404C460.851 156.634 461.343 155.581 461.409 154.46V129.869C461.407 128.704 460.942 127.587 460.118 126.764C459.293 125.94 458.176 125.477 457.011 125.476Z" fill="#342625"/>
<path d="M402.268 123.807V211.011H417.495V123.807C417.495 121.788 416.693 119.851 415.265 118.423C413.837 116.995 411.901 116.193 409.882 116.193C407.862 116.193 405.926 116.995 404.498 118.423C403.07 119.851 402.268 121.788 402.268 123.807Z" fill="#F8D070"/>
<path d="M417.495 214.856H402.268C401.25 214.856 400.273 214.451 399.553 213.731C398.833 213.011 398.428 212.034 398.428 211.016V123.812C398.428 117.494 403.563 112.358 409.876 112.358C416.189 112.358 421.33 117.494 421.33 123.812V211.016C421.33 211.52 421.232 212.019 421.039 212.485C420.847 212.951 420.564 213.374 420.208 213.731C419.852 214.087 419.429 214.37 418.964 214.563C418.498 214.756 417.999 214.856 417.495 214.856ZM406.108 207.176H413.655V123.812C413.594 122.853 413.17 121.954 412.469 121.297C411.769 120.64 410.844 120.274 409.884 120.274C408.924 120.274 407.999 120.64 407.299 121.297C406.598 121.954 406.174 122.853 406.113 123.812L406.108 207.176Z" fill="#342625"/>
<path d="M368.143 228.419H385.818V265.222H368.143V228.419Z" fill="#F8D070"/>
<path d="M385.817 269.067H368.143C367.125 269.067 366.148 268.662 365.428 267.942C364.708 267.222 364.303 266.245 364.303 265.227V228.424C364.303 227.406 364.708 226.429 365.428 225.709C366.148 224.989 367.125 224.584 368.143 224.584H385.817C386.836 224.584 387.813 224.989 388.533 225.709C389.253 226.429 389.657 227.406 389.657 228.424V265.227C389.657 266.245 389.253 267.222 388.533 267.942C387.813 268.662 386.836 269.067 385.817 269.067ZM371.983 261.387H381.977V232.264H371.983V261.387Z" fill="#342625"/>
<path d="M322.944 132.762H337.613V151.583H322.944V132.762Z" fill="#448FA3"/>
<path d="M337.613 155.423H322.944C321.926 155.423 320.949 155.018 320.229 154.298C319.509 153.578 319.104 152.601 319.104 151.583V132.762C319.104 131.743 319.509 130.767 320.229 130.047C320.949 129.326 321.926 128.922 322.944 128.922H337.613C338.631 128.922 339.608 129.326 340.328 130.047C341.048 130.767 341.453 131.743 341.453 132.762V151.583C341.453 152.601 341.048 153.578 340.328 154.298C339.608 155.018 338.631 155.423 337.613 155.423ZM326.784 147.743H333.773V136.602H326.784V147.743Z" fill="#342625"/>
<path d="M378.061 132.762H352.819V151.603H402.278V132.762H393.574" fill="#448FA3"/>
<path d="M402.278 155.443H352.819C351.801 155.443 350.824 155.039 350.104 154.319C349.384 153.599 348.979 152.622 348.979 151.603V132.762C348.979 131.743 349.384 130.767 350.104 130.047C350.824 129.326 351.801 128.922 352.819 128.922H378.061C379.079 128.922 380.056 129.326 380.776 130.047C381.496 130.767 381.901 131.743 381.901 132.762C381.901 133.78 381.496 134.757 380.776 135.477C380.056 136.197 379.079 136.602 378.061 136.602H356.659V147.763H398.438V136.602H393.574C392.556 136.602 391.579 136.197 390.859 135.477C390.139 134.757 389.734 133.78 389.734 132.762C389.734 131.743 390.139 130.767 390.859 130.047C391.579 129.326 392.556 128.922 393.574 128.922H402.278C403.297 128.922 404.273 129.326 404.993 130.047C405.714 130.767 406.118 131.743 406.118 132.762V151.603C406.118 152.622 405.714 153.599 404.993 154.319C404.273 155.039 403.297 155.443 402.278 155.443Z" fill="#342625"/>
<path d="M417.495 132.762H432.302V151.583H417.495V132.762Z" fill="#448FA3"/>
<path d="M432.302 155.423H417.495C416.477 155.423 415.5 155.018 414.78 154.298C414.06 153.578 413.655 152.601 413.655 151.583V132.762C413.655 131.743 414.06 130.767 414.78 130.047C415.5 129.326 416.477 128.922 417.495 128.922H432.302C433.32 128.922 434.297 129.326 435.017 130.047C435.738 130.767 436.142 131.743 436.142 132.762V151.583C436.142 152.601 435.738 153.578 435.017 154.298C434.297 155.018 433.32 155.423 432.302 155.423ZM421.335 147.743H428.462V136.602H421.335V147.743Z" fill="#342625"/>
<path d="M432.307 120.622V163.707C432.307 165.89 433.175 167.985 434.719 169.528C436.263 171.072 438.357 171.94 440.54 171.94C442.724 171.94 444.818 171.072 446.362 169.528C447.906 167.985 448.773 165.89 448.773 163.707V120.622C448.773 118.439 447.906 116.345 446.362 114.801C444.818 113.257 442.724 112.389 440.54 112.389C438.357 112.389 436.263 113.257 434.719 114.801C433.175 116.345 432.307 118.439 432.307 120.622Z" fill="#448FA3"/>
<path d="M440.54 175.785C437.339 175.782 434.27 174.51 432.006 172.246C429.743 169.983 428.47 166.913 428.467 163.712V120.622C428.467 113.966 433.884 108.549 440.54 108.549C447.196 108.549 452.613 113.966 452.613 120.622V163.712C452.61 166.913 451.337 169.983 449.074 172.246C446.81 174.51 443.741 175.782 440.54 175.785ZM440.54 116.229C439.375 116.229 438.258 116.692 437.434 117.516C436.61 118.34 436.147 119.457 436.147 120.622V163.712C436.223 164.825 436.719 165.868 437.534 166.63C438.35 167.392 439.424 167.815 440.54 167.815C441.656 167.815 442.73 167.392 443.546 166.63C444.361 165.868 444.857 164.825 444.933 163.712V120.622C444.933 119.457 444.47 118.34 443.646 117.516C442.822 116.692 441.705 116.229 440.54 116.229Z" fill="#342625"/>
<path d="M322.934 120.873V163.466C322.934 165.716 322.04 167.874 320.449 169.465C318.858 171.056 316.7 171.95 314.45 171.95C312.2 171.95 310.042 171.056 308.451 169.465C306.86 167.874 305.966 165.716 305.966 163.466V120.873C305.966 118.623 306.86 116.465 308.451 114.874C310.042 113.283 312.2 112.389 314.45 112.389C316.7 112.389 318.858 113.283 320.449 114.874C322.04 116.465 322.934 118.623 322.934 120.873Z" fill="#448FA3"/>
<path d="M314.45 175.785C311.183 175.781 308.05 174.482 305.74 172.171C303.43 169.861 302.13 166.729 302.126 163.462V120.868C302.126 114.074 307.656 108.544 314.45 108.544C321.244 108.544 326.774 114.074 326.774 120.868V163.462C326.77 166.729 325.47 169.861 323.16 172.171C320.849 174.482 317.717 175.781 314.45 175.785ZM314.45 116.23C311.89 116.23 309.806 118.313 309.806 120.873V163.467C309.862 164.661 310.376 165.787 311.241 166.612C312.105 167.437 313.255 167.898 314.45 167.898C315.645 167.898 316.794 167.437 317.659 166.612C318.524 165.787 319.038 164.661 319.094 163.467V120.873C319.092 119.642 318.603 118.462 317.732 117.591C316.861 116.721 315.681 116.231 314.45 116.23Z" fill="#342625"/>
<path d="M305.966 130.12V154.22C305.966 156.47 305.072 158.628 303.481 160.219C301.89 161.81 299.732 162.704 297.482 162.704C295.232 162.704 293.074 161.81 291.483 160.219C289.892 158.628 288.998 156.47 288.998 154.22V130.12C288.998 127.87 289.892 125.712 291.483 124.121C293.074 122.53 295.232 121.636 297.482 121.636C299.732 121.636 301.89 122.53 303.481 124.121C305.072 125.712 305.966 127.87 305.966 130.12Z" fill="#448FA3"/>
<path d="M297.487 166.539C294.22 166.534 291.088 165.235 288.777 162.924C286.467 160.614 285.167 157.482 285.163 154.215V130.115C285.163 123.321 290.693 117.791 297.487 117.791C304.281 117.791 309.806 123.321 309.806 130.115V154.215C309.802 157.481 308.503 160.613 306.194 162.923C303.884 165.233 300.754 166.533 297.487 166.539ZM297.487 125.476C294.927 125.476 292.843 127.56 292.843 130.12V154.22C292.883 155.424 293.39 156.566 294.256 157.403C295.122 158.241 296.28 158.709 297.485 158.709C298.69 158.709 299.847 158.241 300.713 157.403C301.579 156.566 302.086 155.424 302.126 154.22V130.12C302.126 127.56 300.047 125.476 297.487 125.476Z" fill="#342625"/>
<path d="M159.129 171.059L164.813 151.808L182.733 142.234L161.689 215.552L146.432 214.323L155.289 184.218" fill="#B0D0AC"/>
<path d="M161.69 219.392L161.377 219.382L146.12 218.153C145.55 218.108 144.997 217.936 144.502 217.65C144.008 217.364 143.583 216.972 143.259 216.501C142.935 216.03 142.721 215.492 142.631 214.928C142.541 214.364 142.579 213.786 142.74 213.238L151.598 183.132C151.912 182.186 152.582 181.399 153.465 180.937C154.348 180.475 155.377 180.374 156.333 180.655C157.29 180.937 158.1 181.579 158.592 182.446C159.084 183.313 159.22 184.338 158.971 185.303L151.444 210.878L158.858 211.477L176.532 149.904L168.038 154.445L162.816 172.15C162.483 173.074 161.81 173.836 160.934 174.28C160.058 174.724 159.045 174.816 158.104 174.538C157.162 174.26 156.362 173.633 155.867 172.784C155.373 171.936 155.221 170.931 155.443 169.974L161.126 150.723C161.272 150.235 161.512 149.781 161.834 149.386C162.155 148.992 162.552 148.665 163 148.424L180.92 138.85C181.586 138.494 182.342 138.343 183.093 138.414C183.844 138.486 184.558 138.777 185.144 139.252C185.731 139.726 186.165 140.363 186.391 141.083C186.618 141.803 186.628 142.574 186.419 143.299L165.376 216.617C165.145 217.417 164.661 218.12 163.996 218.62C163.331 219.121 162.522 219.392 161.69 219.392Z" fill="#342625"/>
<path d="M145.526 148.465L150.108 157.056C150.247 157.318 150.436 157.55 150.665 157.739C150.893 157.927 151.157 158.069 151.44 158.156C151.724 158.242 152.022 158.272 152.317 158.243C152.612 158.214 152.898 158.128 153.16 157.988L196.772 134.728C197.034 134.589 197.265 134.4 197.454 134.171C197.643 133.943 197.784 133.679 197.871 133.396C197.957 133.112 197.987 132.814 197.959 132.519C197.93 132.224 197.843 131.938 197.704 131.677L193.121 123.085C192.982 122.823 192.793 122.591 192.564 122.403C192.336 122.214 192.072 122.072 191.789 121.986C191.505 121.899 191.208 121.87 190.913 121.898C190.618 121.927 190.331 122.014 190.07 122.153L146.457 145.413C146.196 145.552 145.964 145.741 145.775 145.97C145.586 146.199 145.445 146.462 145.358 146.746C145.272 147.029 145.242 147.327 145.271 147.622C145.299 147.917 145.386 148.204 145.526 148.465Z" fill="#448FA3"/>
<path d="M152.105 162.094C150.997 162.094 149.911 161.792 148.961 161.223C148.012 160.653 147.235 159.835 146.713 158.858L142.131 150.272C141.753 149.567 141.518 148.789 141.441 147.993C141.364 147.196 141.445 146.393 141.681 145.628C142.157 144.067 143.211 142.787 144.645 142.024L188.262 118.769C189.696 118.001 191.35 117.832 192.901 118.318C194.463 118.794 195.743 119.844 196.505 121.288L201.093 129.874C201.852 131.301 202.015 132.971 201.544 134.517C201.074 136.063 200.009 137.36 198.584 138.122L154.962 161.377C154.071 161.848 153.088 162.094 152.105 162.094ZM149.657 148.055L152.75 153.851L193.572 132.086L190.479 126.29L149.657 148.055Z" fill="#342625"/>
<path d="M204.703 110.295C203.823 110.295 202.971 109.992 202.287 109.439C201.604 108.885 201.132 108.114 200.949 107.254C200.766 106.393 200.884 105.496 201.283 104.713C201.682 103.929 202.338 103.306 203.141 102.948C221.088 94.9501 240.524 90.8375 260.173 90.8802C271.887 90.8802 283.53 92.3241 294.779 95.1759C295.268 95.2999 295.727 95.5191 296.131 95.8207C296.536 96.1224 296.876 96.5007 297.134 96.9341C297.392 97.3674 297.562 97.8473 297.635 98.3464C297.707 98.8455 297.681 99.354 297.557 99.8428C297.432 100.332 297.213 100.791 296.912 101.195C296.61 101.599 296.232 101.94 295.798 102.198C295.365 102.456 294.885 102.626 294.386 102.699C293.887 102.771 293.378 102.744 292.89 102.62C282.194 99.9185 271.204 98.5547 260.173 98.5602C241.403 98.5602 223.268 102.4 206.264 109.968C205.773 110.186 205.241 110.298 204.703 110.295ZM182.723 356.014C181.945 356.014 181.186 355.777 180.547 355.333C152.046 335.735 131.795 306.295 123.684 272.671C123.446 271.68 123.612 270.636 124.144 269.767C124.677 268.899 125.532 268.278 126.523 268.04C127.513 267.802 128.558 267.968 129.426 268.5C130.295 269.033 130.916 269.888 131.154 270.879C138.824 302.662 157.968 330.489 184.909 349.015C185.586 349.479 186.097 350.148 186.365 350.923C186.634 351.698 186.647 352.54 186.403 353.323C186.158 354.106 185.668 354.79 185.006 355.275C184.344 355.759 183.543 356.018 182.723 356.014ZM337.603 356.03C336.78 356.037 335.977 355.78 335.312 355.296C334.647 354.812 334.156 354.127 333.911 353.342C333.665 352.557 333.679 351.714 333.951 350.937C334.222 350.161 334.736 349.492 335.416 349.031C354.311 336.001 369.521 318.314 379.576 297.682C380.022 296.766 380.813 296.063 381.776 295.73C382.739 295.397 383.795 295.46 384.712 295.905C385.628 296.351 386.33 297.142 386.664 298.105C386.997 299.068 386.934 300.124 386.488 301.041C375.85 322.862 359.762 341.57 339.779 355.354C339.138 355.794 338.38 356.03 337.603 356.03Z" fill="#342625"/>
<path d="M320.338 452.019H310.584C308.866 452.019 307.219 451.337 306.004 450.122C304.79 448.908 304.107 447.26 304.107 445.543V371.512C304.107 367.934 307.005 365.036 310.584 365.036H320.338C323.917 365.036 326.815 367.934 326.815 371.512V445.543C326.815 447.26 326.132 448.908 324.918 450.122C323.703 451.337 322.056 452.019 320.338 452.019ZM343.05 440.033H333.297C331.579 440.033 329.931 439.351 328.717 438.136C327.502 436.922 326.82 435.274 326.82 433.557V383.493C326.82 379.914 329.718 377.016 333.297 377.016H343.05C346.629 377.016 349.527 379.914 349.527 383.493V433.557C349.527 437.135 346.629 440.033 343.05 440.033Z" fill="#448FA3"/>
<path d="M90.7213 212.475C90.624 212.475 90.5267 212.475 90.4295 212.465L84.8794 211.927C83.8836 211.83 82.9651 211.348 82.3189 210.584C81.6726 209.82 81.3495 208.834 81.4183 207.836C81.5616 205.758 83.4253 204.073 85.417 204.273L87.9155 204.38C88.3682 204.04 88.8905 203.803 89.4451 203.688C89.9996 203.573 90.5728 203.582 91.1236 203.714C91.6744 203.846 92.1893 204.098 92.6313 204.452C93.0733 204.806 93.4317 205.254 93.6807 205.763L94.0544 206.551C94.6483 207.8 94.6279 209.495 93.8343 210.627C93.1021 211.676 91.9808 212.475 90.7213 212.475Z" fill="#342625"/>
<path d="M85.2531 211.942H85.079L76.6771 211.569C75.7018 211.515 74.7835 211.092 74.1092 210.386C73.4348 209.679 73.0551 208.742 73.0472 207.765C73.0394 206.788 73.4041 205.845 74.067 205.128C74.7299 204.411 75.6413 203.973 76.6156 203.904C78.5035 203.773 80.3988 203.794 82.2835 203.965L85.6115 204.288C86.6072 204.386 87.5257 204.867 88.172 205.631C88.8182 206.395 89.1413 207.381 89.0726 208.379C89.0064 209.346 88.5751 210.253 87.866 210.914C87.1568 211.576 86.2229 211.943 85.2531 211.942Z" fill="#342625"/>
<path d="M46.7507 239.698C46.7507 248.204 50.1297 256.361 56.1443 262.376C62.1589 268.391 70.3165 271.77 78.8224 271.77H161.864C169.065 271.764 175.989 268.989 181.201 264.02C186.413 259.05 189.514 252.266 189.862 245.073C190.21 237.88 187.779 230.828 183.071 225.379C178.363 219.929 171.74 216.498 164.572 215.798L81.92 207.78C77.4683 207.348 72.9755 207.852 68.7301 209.259C64.4847 210.667 60.5806 212.946 57.2686 215.952C53.9566 218.958 51.31 222.623 49.4986 226.713C47.6872 230.802 46.7512 235.225 46.7507 239.698Z" fill="#F8D070"/>
<path d="M189.901 243.712C189.901 259.226 177.357 271.77 161.843 271.77H78.848C66.304 271.77 55.3984 264.551 50.176 254.055C54.8352 256.768 60.2624 258.304 66.048 258.304H149.043C164.557 258.304 177.101 245.709 177.101 230.247C177.101 226.151 176.23 222.259 174.592 218.727C177.613 220.263 180.326 222.362 182.63 224.871C187.187 229.888 189.901 236.493 189.901 243.712Z" fill="#EDC66E"/>
<path d="M90.3629 208.328L84.7974 169.021H70.0979L75.6121 207.677L90.3629 208.328Z" fill="#B0D0AC"/>
<path d="M90.3628 212.168L90.1938 212.163L75.438 211.507C74.5442 211.468 73.6923 211.117 73.0295 210.516C72.3667 209.915 71.9347 209.101 71.8079 208.215L66.2988 169.564C66.2211 169.02 66.2612 168.465 66.4164 167.938C66.5717 167.41 66.8384 166.922 67.1986 166.506C67.5588 166.091 68.0041 165.758 68.5043 165.529C69.0045 165.3 69.5479 165.182 70.0978 165.182H84.7922C86.7071 165.182 88.325 166.59 88.5913 168.484L94.1618 207.79C94.2405 208.335 94.201 208.889 94.0461 209.417C93.8911 209.945 93.6244 210.433 93.2639 210.848C92.9034 211.264 92.4577 211.596 91.9571 211.824C91.4565 212.052 90.9128 212.169 90.3628 212.168ZM78.9606 203.981L85.9135 204.288L81.4591 172.862H74.5266L78.9606 203.981Z" fill="#342625"/>
<path d="M56.9805 153.129V165.857C56.9805 167.603 58.3987 169.022 60.1446 169.022H95.3549C97.1223 169.024 98.8245 168.354 100.116 167.148C101.408 165.941 102.193 164.289 102.311 162.525C102.43 160.762 101.873 159.019 100.755 157.651C99.6358 156.283 98.0386 155.391 96.2867 155.157L60.2419 150.277C59.8353 150.222 59.4216 150.255 59.0287 150.374C58.6358 150.492 58.2727 150.693 57.9638 150.963C57.6549 151.233 57.4074 151.566 57.2378 151.94C57.0682 152.313 56.9804 152.719 56.9805 153.129Z" fill="#448FA3"/>
<path d="M95.3497 172.862H60.1394C58.2835 172.858 56.5049 172.118 55.193 170.806C53.8812 169.493 53.1431 167.714 53.1404 165.858V153.129C53.1396 152.172 53.344 151.225 53.7398 150.353C54.1356 149.48 54.7136 148.703 55.4349 148.073C56.1563 147.443 57.0042 146.974 57.9216 146.699C58.8391 146.424 59.8048 146.349 60.7538 146.478L96.7986 151.358C99.3857 151.715 101.757 152.994 103.476 154.96C105.195 156.926 106.145 159.447 106.153 162.059C106.153 168.013 101.309 172.862 95.3497 172.862ZM60.8204 165.182H95.3497C96.1386 165.178 96.8968 164.875 97.4717 164.335C98.0466 163.794 98.3958 163.056 98.4489 162.269C98.5021 161.482 98.2554 160.704 97.7583 160.091C97.2613 159.478 96.5507 159.076 95.7695 158.966L60.8204 154.235V165.182Z" fill="#342625"/>
<path d="M200.09 383.457L200.084 383.447L200.09 383.493V383.457Z" fill="white"/>
<path d="M200.09 386.053C199.449 386.053 198.831 385.813 198.359 385.379C197.887 384.946 197.595 384.352 197.54 383.713L197.53 383.498C197.53 382.085 198.676 380.913 200.084 380.913C200.421 380.91 200.754 380.974 201.066 381.101C201.377 381.228 201.66 381.415 201.899 381.652C202.137 381.89 202.327 382.172 202.455 382.482C202.584 382.793 202.65 383.126 202.65 383.462V383.498C202.648 384.176 202.378 384.826 201.898 385.305C201.418 385.784 200.768 386.053 200.09 386.053Z" fill="#342625"/>
<path d="M198.011 378.763C198.681 380.319 199.368 381.876 200.084 383.447C200.078 382.566 199.89 381.696 199.534 380.89C199.177 380.084 198.659 379.36 198.011 378.763Z" fill="white"/>
<path d="M200.084 386.007C199.594 386.008 199.114 385.867 198.702 385.602C198.29 385.337 197.963 384.958 197.76 384.512C197.04 382.941 196.34 381.36 195.661 379.771C195.427 379.231 195.387 378.628 195.546 378.062C195.706 377.496 196.055 377.002 196.536 376.663C197.016 376.324 197.599 376.161 198.185 376.201C198.772 376.241 199.327 376.482 199.757 376.883C201.6 378.598 202.629 380.923 202.644 383.421C202.648 383.76 202.584 384.095 202.457 384.409C202.33 384.723 202.142 385.008 201.904 385.248C201.666 385.489 201.382 385.679 201.07 385.81C200.758 385.94 200.423 386.007 200.084 386.007Z" fill="#342625"/>
<path d="M397.824 228.404H330.701C325.888 228.404 321.997 224.512 321.997 219.7C321.997 214.887 325.888 210.996 330.701 210.996H423.27C428.083 210.996 431.974 214.887 431.974 219.7C431.974 224.512 428.083 228.404 423.27 228.404H413.133" fill="#F8D070"/>
<path d="M423.27 232.243H413.133C412.114 232.243 411.138 231.839 410.417 231.119C409.697 230.398 409.293 229.422 409.293 228.403C409.293 227.385 409.697 226.408 410.417 225.688C411.138 224.968 412.114 224.563 413.133 224.563H423.265C424.555 224.563 425.792 224.051 426.705 223.139C427.617 222.226 428.129 220.989 428.129 219.699C428.129 218.409 427.617 217.172 426.705 216.26C425.792 215.348 424.555 214.835 423.265 214.835H330.701C329.411 214.835 328.174 215.348 327.261 216.26C326.349 217.172 325.837 218.409 325.837 219.699C325.837 220.989 326.349 222.226 327.261 223.139C328.174 224.051 329.411 224.563 330.701 224.563H397.824C398.842 224.563 399.819 224.968 400.539 225.688C401.259 226.408 401.664 227.385 401.664 228.403C401.664 229.422 401.259 230.398 400.539 231.119C399.819 231.839 398.842 232.243 397.824 232.243H330.701C323.784 232.243 318.157 226.616 318.157 219.699C318.157 212.782 323.789 207.155 330.701 207.155H423.27C430.187 207.155 435.814 212.782 435.814 219.699C435.814 226.616 430.187 232.243 423.27 232.243Z" fill="#342625"/>
<path d="M352.819 187.495V210.996H337.613V123.802C337.613 122.803 337.809 121.815 338.192 120.892C338.574 119.97 339.134 119.132 339.84 118.426C340.546 117.72 341.384 117.16 342.306 116.777C343.229 116.395 344.218 116.199 345.216 116.199C346.214 116.199 347.203 116.395 348.126 116.777C349.048 117.16 349.886 117.72 350.592 118.426C351.298 119.132 351.858 119.97 352.24 120.892C352.623 121.815 352.819 122.803 352.819 123.802V171.93" fill="#F8D070"/>
<path d="M352.819 214.835H337.613C336.594 214.835 335.618 214.431 334.897 213.711C334.177 212.991 333.773 212.014 333.773 210.995V123.802C333.773 117.479 338.893 112.333 345.185 112.333C348.226 112.337 351.14 113.547 353.29 115.697C355.44 117.847 356.65 120.761 356.654 123.802V171.93C356.654 172.948 356.249 173.925 355.529 174.645C354.809 175.365 353.832 175.77 352.814 175.77C351.796 175.77 350.819 175.365 350.099 174.645C349.379 173.925 348.974 172.948 348.974 171.93V123.802C348.974 122.797 348.575 121.833 347.864 121.123C347.154 120.412 346.19 120.013 345.185 120.013C344.188 120.021 343.235 120.425 342.535 121.135C341.835 121.845 341.446 122.805 341.453 123.802V207.155H348.979V187.495C348.979 186.476 349.384 185.499 350.104 184.779C350.824 184.059 351.801 183.655 352.819 183.655C353.838 183.655 354.814 184.059 355.534 184.779C356.255 185.499 356.659 186.476 356.659 187.495V210.995C356.659 212.014 356.255 212.991 355.534 213.711C354.814 214.431 353.838 214.835 352.819 214.835Z" fill="#342625"/>
<path d="M400.768 272.389V281.273H353.198V272.389C353.198 268.416 356.403 265.216 360.371 265.216H393.595C394.537 265.214 395.471 265.398 396.342 265.758C397.213 266.118 398.005 266.646 398.671 267.313C399.338 267.979 399.866 268.771 400.226 269.642C400.586 270.513 400.77 271.447 400.768 272.389Z" fill="#448FA3"/>
<path d="M400.763 285.112H353.193C352.174 285.112 351.198 284.708 350.477 283.988C349.757 283.267 349.353 282.291 349.353 281.272V272.389C349.353 266.317 354.294 261.376 360.366 261.376H393.59C399.662 261.376 404.598 266.317 404.598 272.389V281.272C404.598 281.776 404.5 282.276 404.307 282.741C404.115 283.207 403.832 283.631 403.476 283.987C403.12 284.344 402.697 284.627 402.231 284.82C401.766 285.013 401.267 285.112 400.763 285.112ZM357.033 277.432H396.923V272.389C396.923 271.506 396.572 270.659 395.948 270.034C395.324 269.409 394.478 269.057 393.595 269.056H360.371C359.487 269.057 358.64 269.409 358.016 270.034C357.391 270.659 357.039 271.506 357.038 272.389L357.033 277.432Z" fill="#342625"/>
<path d="M78.0288 250.568C85.279 250.568 91.1565 244.69 91.1565 237.44C91.1565 230.19 85.279 224.312 78.0288 224.312C70.7786 224.312 64.9011 230.19 64.9011 237.44C64.9011 244.69 70.7786 250.568 78.0288 250.568Z" fill="#FDFFFC"/>
<path d="M78.0287 254.403C68.6745 254.403 61.0662 246.789 61.0662 237.435C61.0662 228.081 68.6745 220.467 78.0287 220.467C87.383 220.467 94.9913 228.081 94.9913 237.435C94.9913 246.789 87.383 254.403 78.0287 254.403ZM78.0287 228.152C72.9087 228.152 68.7462 232.32 68.7462 237.44C68.7462 242.56 72.9087 246.728 78.0287 246.728C83.1487 246.728 87.3113 242.56 87.3113 237.44C87.3113 232.32 83.1487 228.152 78.0287 228.152Z" fill="#342625"/>
<path d="M90.9977 262.124C90.3191 262.126 89.6523 261.947 89.0657 261.606C88.479 261.265 87.9937 260.774 87.6594 260.183L76.1804 240.036C75.7176 239.155 75.615 238.129 75.8941 237.174C76.1733 236.218 76.8124 235.409 77.6768 234.915C78.5411 234.422 79.5632 234.284 80.5276 234.529C81.4921 234.775 82.3235 235.385 82.8466 236.232L94.3257 256.384C94.6577 256.968 94.831 257.628 94.8284 258.299C94.8257 258.971 94.6471 259.629 94.3103 260.21C93.9736 260.791 93.4905 261.273 92.9093 261.609C92.328 261.945 91.6689 262.122 90.9977 262.124Z" fill="#342625"/>
<path d="M86.2361 263.547C85.3143 263.549 84.4227 263.218 83.7242 262.617C83.0256 262.016 82.5667 261.183 82.4313 260.271C82.2959 259.359 82.493 258.429 82.9867 257.651C83.4803 256.872 84.2375 256.297 85.12 256.031L100.316 251.418C101.268 251.196 102.268 251.345 103.115 251.833C103.961 252.322 104.59 253.114 104.874 254.049C105.158 254.984 105.075 255.992 104.644 256.869C104.212 257.745 103.463 258.425 102.548 258.77L87.3523 263.383C86.9903 263.492 86.6142 263.548 86.2361 263.547Z" fill="#342625"/>
<path d="M222.802 397.112H304.107V419.937H222.802V397.112Z" fill="#448FA3"/>
<path d="M365.773 400.691V416.359C365.773 418.355 364.186 419.943 362.189 419.943H349.542V408.525H352.768C354.765 408.525 356.352 406.938 356.352 404.941V397.107H362.189C364.186 397.107 365.773 398.695 365.773 400.691ZM326.81 371.507V445.543C326.81 449.127 323.942 451.994 320.358 451.994H310.579C306.995 451.994 304.128 449.127 304.128 445.543V440.627H310.938C314.522 440.627 317.389 437.709 317.389 434.125V365.056H320.358C323.942 365.056 326.81 367.923 326.81 371.507Z" fill="#32697A"/>
<path d="M349.542 383.488V433.562C349.542 437.146 346.624 440.013 343.04 440.013H333.312C329.728 440.013 326.809 437.146 326.809 433.562V428.647H333.619C337.203 428.647 340.121 425.728 340.121 422.144V377.037H343.04C346.624 377.037 349.542 379.904 349.542 383.488ZM222.822 408.525H304.128V419.943H222.822V408.525Z" fill="#32697A"/>
<path d="M206.566 452.019H216.32C219.899 452.019 222.797 449.121 222.797 445.543V371.512C222.797 367.934 219.899 365.036 216.32 365.036H206.566C202.988 365.036 200.09 367.934 200.09 371.512V445.543C200.09 449.116 202.993 452.019 206.566 452.019Z" fill="#448FA3"/>
<path d="M216.32 455.86H206.571C203.836 455.857 201.213 454.769 199.278 452.835C197.343 450.901 196.254 448.278 196.25 445.543V371.513C196.25 365.824 200.878 361.196 206.571 361.196H216.32C222.008 361.196 226.642 365.824 226.642 371.513V445.543C226.638 448.278 225.549 450.901 223.614 452.835C221.679 454.769 219.056 455.857 216.32 455.86ZM206.571 368.871C205.872 368.871 205.2 369.148 204.705 369.643C204.21 370.137 203.931 370.808 203.93 371.507V445.543C203.93 446.997 205.112 448.18 206.571 448.18H216.32C217.02 448.18 217.691 447.902 218.186 447.408C218.682 446.913 218.96 446.242 218.962 445.543V371.513C218.96 370.813 218.682 370.142 218.186 369.648C217.691 369.153 217.02 368.876 216.32 368.876L206.571 368.871Z" fill="#342625"/>
<path d="M183.859 440.034H193.613C197.192 440.034 200.09 437.136 200.09 433.557V383.493C200.09 379.915 197.192 377.017 193.613 377.017H183.859C180.28 377.017 177.382 379.915 177.382 383.493V433.557C177.382 437.136 180.28 440.034 183.859 440.034Z" fill="#448FA3"/>
<path d="M193.607 443.874H183.859C181.123 443.871 178.5 442.783 176.565 440.849C174.63 438.915 173.541 436.293 173.537 433.557V383.494C173.537 377.805 178.166 373.177 183.859 373.177H193.607C199.296 373.177 203.929 377.805 203.929 383.494V433.557C203.927 436.293 202.838 438.916 200.903 440.851C198.968 442.785 196.344 443.872 193.607 443.874ZM183.859 380.857C183.159 380.857 182.488 381.134 181.993 381.629C181.497 382.123 181.218 382.794 181.217 383.494V433.557C181.217 435.011 182.4 436.194 183.859 436.194H193.607C194.307 436.194 194.978 435.916 195.474 435.422C195.969 434.927 196.248 434.257 196.249 433.557V383.494C196.248 382.794 195.969 382.123 195.474 381.629C194.978 381.134 194.307 380.857 193.607 380.857H183.859Z" fill="#342625"/>
<path d="M150.886 275.61H78.8479C59.0284 275.61 42.9004 259.507 42.9004 239.719C42.9004 238.848 42.9158 238.044 43.0489 237.174C43.1275 236.676 43.3036 236.198 43.5669 235.768C43.8303 235.338 44.1757 234.963 44.5837 234.667C44.9916 234.37 45.454 234.157 45.9444 234.039C46.4348 233.921 46.9436 233.9 47.4418 233.979C47.9401 234.058 48.4179 234.234 48.8481 234.497C49.2783 234.76 49.6524 235.106 49.9491 235.514C50.2458 235.922 50.4592 236.384 50.5772 236.875C50.6951 237.365 50.7154 237.874 50.6367 238.372C50.5702 238.833 50.5855 239.258 50.5855 239.719C50.5855 255.278 63.2678 267.93 78.853 267.93H150.886C151.905 267.93 152.881 268.334 153.602 269.055C154.322 269.775 154.726 270.751 154.726 271.77C154.726 272.788 154.322 273.765 153.602 274.485C152.881 275.205 151.905 275.61 150.886 275.61Z" fill="#342625"/>
<path d="M164.449 275.456C163.461 275.455 162.511 275.073 161.798 274.389C161.084 273.705 160.662 272.773 160.618 271.785C160.575 270.798 160.913 269.832 161.564 269.088C162.215 268.344 163.127 267.88 164.111 267.791C170.127 267.272 175.726 264.505 179.793 260.043C183.861 255.581 186.099 249.75 186.061 243.712C186.066 237.699 183.828 231.9 179.784 227.451C175.751 222.985 170.189 220.195 164.198 219.633L81.5461 211.594C75.9879 211.032 70.3883 212.143 65.4659 214.785C60.5434 217.427 56.5223 221.479 53.9186 226.422C53.4399 227.321 52.6235 227.994 51.6489 228.292C50.6743 228.589 49.6214 228.488 48.7218 228.009C47.8222 227.53 47.1496 226.714 46.8519 225.739C46.5542 224.765 46.6559 223.712 47.1346 222.812C50.4447 216.521 55.5608 211.363 61.8251 208.002C68.0895 204.641 75.216 203.23 82.2885 203.95L164.915 211.983C172.815 212.724 180.149 216.402 185.467 222.29C190.793 228.152 193.74 235.791 193.73 243.712C193.775 251.727 190.778 259.461 185.343 265.352C179.909 271.244 172.442 274.855 164.449 275.456ZM362.189 423.777H349.517C348.498 423.777 347.522 423.373 346.801 422.653C346.081 421.933 345.677 420.956 345.677 419.937C345.677 418.919 346.081 417.942 346.801 417.222C347.522 416.502 348.498 416.097 349.517 416.097H362.189L361.948 400.712L349.517 400.952C348.498 400.952 347.522 400.548 346.801 399.828C346.081 399.108 345.677 398.131 345.677 397.112C345.677 396.094 346.081 395.117 346.801 394.397C347.522 393.677 348.498 393.272 349.517 393.272H362.189C366.29 393.272 369.628 396.611 369.628 400.712V416.338C369.628 420.439 366.29 423.777 362.189 423.777ZM320.358 455.834H310.579C307.851 455.831 305.234 454.746 303.305 452.816C301.376 450.887 300.291 448.271 300.288 445.542V371.507C300.288 365.834 304.901 361.216 310.579 361.216H320.358C326.031 361.216 330.649 365.834 330.649 371.507V402.944C330.649 403.963 330.245 404.939 329.525 405.659C328.805 406.38 327.828 406.784 326.809 406.784C325.791 406.784 324.814 406.38 324.094 405.659C323.374 404.939 322.969 403.963 322.969 402.944V371.507C322.973 371.163 322.908 370.822 322.778 370.504C322.648 370.186 322.455 369.896 322.212 369.653C321.969 369.41 321.68 369.218 321.362 369.088C321.043 368.958 320.702 368.893 320.358 368.896H310.579C310.235 368.893 309.894 368.958 309.576 369.088C309.257 369.218 308.968 369.41 308.725 369.653C308.482 369.896 308.29 370.186 308.16 370.504C308.03 370.822 307.964 371.163 307.968 371.507V445.542C307.968 447.007 309.115 448.154 310.579 448.154H320.358C321.823 448.154 322.969 447.007 322.969 445.542V423.527C322.969 422.508 323.374 421.531 324.094 420.811C324.814 420.091 325.791 419.687 326.809 419.687C327.828 419.687 328.805 420.091 329.525 420.811C330.245 421.531 330.649 422.508 330.649 423.527V445.542C330.649 451.215 326.036 455.834 320.358 455.834Z" fill="#342625"/>
<path d="M343.04 443.853H333.312C330.577 443.857 327.951 442.776 326.012 440.846C324.073 438.917 322.979 436.297 322.97 433.562V423.526C322.97 422.508 323.374 421.531 324.094 420.811C324.814 420.091 325.791 419.686 326.81 419.686C327.828 419.686 328.805 420.091 329.525 420.811C330.245 421.531 330.65 422.508 330.65 423.526V433.562C330.65 435 331.843 436.173 333.312 436.173H343.04C344.504 436.173 345.702 435 345.702 433.562V383.488C345.694 382.789 345.41 382.122 344.911 381.632C344.412 381.143 343.739 380.871 343.04 380.877H333.312C332.613 380.871 331.94 381.143 331.441 381.632C330.942 382.122 330.658 382.789 330.65 383.488V409.923C330.65 410.941 330.245 411.918 329.525 412.638C328.805 413.358 327.828 413.763 326.81 413.763C325.791 413.763 324.814 413.358 324.094 412.638C323.374 411.918 322.97 410.941 322.97 409.923V383.488C322.97 377.815 327.608 373.197 333.312 373.197H343.04C348.739 373.197 353.382 377.81 353.382 383.488V433.562C353.382 439.24 348.739 443.853 343.04 443.853ZM304.128 423.782H222.822C221.804 423.782 220.827 423.378 220.107 422.658C219.387 421.938 218.982 420.961 218.982 419.942V397.107C218.982 396.089 219.387 395.112 220.107 394.392C220.827 393.672 221.804 393.267 222.822 393.267H265.068C266.086 393.267 267.063 393.672 267.783 394.392C268.503 395.112 268.908 396.089 268.908 397.107C268.908 398.126 268.503 399.102 267.783 399.822C267.063 400.543 266.086 400.947 265.068 400.947H226.662V416.102H300.288V400.947H279.45C278.431 400.947 277.454 400.543 276.734 399.822C276.014 399.102 275.61 398.126 275.61 397.107C275.61 396.089 276.014 395.112 276.734 394.392C277.454 393.672 278.431 393.267 279.45 393.267H304.128C305.146 393.267 306.123 393.672 306.843 394.392C307.563 395.112 307.968 396.089 307.968 397.107V419.942C307.968 420.961 307.563 421.938 306.843 422.658C306.123 423.378 305.146 423.782 304.128 423.782Z" fill="#342625"/>
<path d="M154.885 234.138C154.76 234.138 154.636 234.132 154.511 234.122L110.991 229.888C109.985 229.781 109.062 229.281 108.422 228.497C107.782 227.713 107.478 226.708 107.575 225.701C107.672 224.694 108.163 223.765 108.941 223.118C109.719 222.471 110.721 222.157 111.729 222.244L155.249 226.478C156.225 226.579 157.126 227.05 157.765 227.794C158.405 228.538 158.736 229.499 158.69 230.48C158.643 231.46 158.223 232.386 157.515 233.066C156.808 233.746 155.867 234.13 154.885 234.138Z" fill="#FDFFFC"/>
</g>
<defs>
<clipPath id="clip0_170_4704">
<rect width="512" height="512" fill="white"/>
</clipPath>
</defs>
</svg>
