<svg width="512" height="512" viewBox="0 0 512 512" fill="none" xmlns="http://www.w3.org/2000/svg">
<g clip-path="url(#clip0_170_4751)">
<g clip-path="url(#clip1_170_4751)">
<path d="M387.215 268.688C385.339 268.686 383.528 268.001 382.12 266.762C380.712 265.523 379.803 263.813 379.563 261.953L363.453 137.445C363.191 135.413 363.746 133.36 364.997 131.738C366.249 130.115 368.093 129.056 370.125 128.793C374.359 128.243 378.23 131.234 378.777 135.465L394.887 259.969C395.028 261.059 394.935 262.167 394.613 263.218C394.292 264.269 393.751 265.24 393.024 266.065C392.298 266.89 391.404 267.551 390.403 268.003C389.401 268.455 388.314 268.689 387.215 268.688ZM366.191 106.172C362.363 106.172 359.039 103.332 358.535 99.4381L356.125 80.7851C355.862 78.7535 356.417 76.7006 357.667 75.0781C358.918 73.4555 360.761 72.3962 362.793 72.1331C363.799 72.0014 364.822 72.0696 365.802 72.3336C366.782 72.5976 367.7 73.0523 368.504 73.6717C369.308 74.291 369.982 75.0629 370.487 75.9431C370.993 76.8232 371.319 77.7944 371.449 78.8011L373.863 97.4531C374.004 98.5432 373.91 99.6507 373.589 100.702C373.268 101.753 372.726 102.724 372 103.549C371.274 104.374 370.38 105.035 369.379 105.487C368.377 105.94 367.29 106.173 366.191 106.172Z" fill="#D0F4EF"/>
<path d="M133.633 239.402L237.465 230.262C249.363 229.215 258.715 240.246 255.738 251.812L227.711 363.637C226.775 367.268 224.658 370.486 221.694 372.783C218.73 375.081 215.086 376.328 211.336 376.328C199.898 376.328 191.758 365.215 195.211 354.313L217.359 272.574L121.457 282.969L133.633 239.402Z" fill="#336686"/>
<path d="M103.016 257.934C61.16 249.418 34.133 208.586 42.645 166.73L59.566 83.5229C65.406 54.8089 93.418 36.2699 122.133 42.1089L141.078 45.9609C149.91 47.7579 155.618 56.3749 153.82 65.2109L116.426 249.055C115.172 255.211 109.168 259.184 103.016 257.934Z" fill="#FF5555"/>
<path d="M153.824 65.2071L116.43 249.059C115.18 255.211 109.176 259.188 103.02 257.934C97.7392 256.862 92.5839 255.245 87.637 253.109C91.227 251.785 94.074 248.699 94.895 244.676L132.289 60.8281C134.019 52.3201 128.785 44.0081 120.508 41.8081C121.043 41.8981 121.59 42.0001 122.133 42.1091L141.074 45.9611C149.914 47.7611 155.621 56.3791 153.824 65.2071Z" fill="#F72B2B"/>
<path d="M134.418 57.1209L88.2889 47.7379C76.9179 45.4259 69.5739 34.328 71.8869 22.957C74.1989 11.582 85.2929 4.23795 96.6679 6.55495L142.797 15.938C154.168 18.25 161.516 29.3439 159.199 40.7179C156.887 52.0899 145.793 59.4339 134.418 57.1209Z" fill="#2081F6"/>
<path d="M98.9839 236.54C97.3291 236.542 95.7181 236.008 94.3909 235.02C74.4059 220.207 64.6949 194.883 69.6559 170.5L70.2859 167.406C70.488 166.412 70.8841 165.467 71.4514 164.625C72.0188 163.784 72.7463 163.063 73.5925 162.503C74.4387 161.943 75.3869 161.555 76.383 161.361C77.3791 161.168 78.4036 161.172 79.3979 161.375C81.4058 161.784 83.1691 162.974 84.3001 164.683C85.4312 166.392 85.8376 168.48 85.4299 170.488L84.7999 173.578C81.0309 192.109 88.4059 211.352 103.59 222.605C104.406 223.209 105.094 223.968 105.617 224.838C106.139 225.708 106.485 226.673 106.634 227.676C106.784 228.68 106.734 229.704 106.488 230.688C106.242 231.673 105.804 232.599 105.2 233.415C104.48 234.386 103.543 235.174 102.464 235.716C101.384 236.259 100.192 236.542 98.9839 236.54ZM92.9959 125.684C92.4839 125.684 91.9689 125.633 91.4459 125.527L88.8089 124.992C86.8156 124.568 85.0703 123.374 83.953 121.67C82.8357 119.965 82.4368 117.889 82.8432 115.892C83.2496 113.895 84.4283 112.139 86.1228 111.007C87.8174 109.875 89.8905 109.458 91.8909 109.847L94.5269 110.387C98.7069 111.234 101.407 115.317 100.559 119.497C100.204 121.241 99.2569 122.81 97.879 123.937C96.501 125.064 94.7762 125.681 92.9959 125.684ZM105.617 107.02C105.105 107.02 104.59 106.969 104.07 106.863L92.9569 104.602C88.7769 103.75 86.0739 99.6719 86.9259 95.4919C87.3342 93.4838 88.5232 91.7201 90.2315 90.5884C91.9398 89.4567 94.0276 89.0497 96.0359 89.4569L107.148 91.7189C108.142 91.9207 109.087 92.3164 109.929 92.8835C110.77 93.4506 111.491 94.178 112.052 95.024C112.612 95.87 113 96.8182 113.193 97.8142C113.387 98.8102 113.382 99.8347 113.18 100.829C112.826 102.574 111.879 104.144 110.501 105.271C109.123 106.399 107.398 107.018 105.617 107.02Z" fill="#F72B2B"/>
<path d="M512 181.441V488.258C512 493.781 507.523 498.258 502 498.258H58.0499C52.5269 498.258 48.0499 493.781 48.0499 488.258V471.968C48.0499 469.316 49.1049 466.77 50.9799 464.895L150.969 364.906C151.897 363.978 153 363.242 154.213 362.74C155.426 362.238 156.726 361.979 158.039 361.98H222.762L276.449 308.29C278.324 306.414 280.867 305.36 283.519 305.36H343.489L474.48 174.37C476.355 172.494 478.898 171.441 481.55 171.44H502C507.523 171.44 512 175.918 512 181.441Z" fill="#9AC6C3"/>
<path d="M512 181.441V488.258C512 493.781 507.523 498.258 502 498.258H463.758V185.094L474.48 174.371C476.355 172.495 478.898 171.441 481.55 171.441H502C507.523 171.441 512 175.918 512 181.441ZM342.977 305.363V383.449C342.976 385.498 342.162 387.463 340.713 388.912C339.264 390.361 337.299 391.175 335.25 391.176C330.988 391.176 327.527 387.715 327.527 383.449V305.363H342.977ZM406.277 443.285C404.228 443.284 402.263 442.47 400.815 441.021C399.366 439.572 398.552 437.608 398.551 435.559V378.37C398.551 374.104 402.011 370.647 406.277 370.647C410.543 370.647 414.004 374.104 414.004 378.37V435.558C414.003 437.607 413.189 439.572 411.74 441.021C410.291 442.469 408.326 443.284 406.277 443.285Z" fill="#8CB4B1"/>
<path d="M471.484 378.371V498.261H456.031V378.371C456.032 376.322 456.846 374.357 458.295 372.908C459.744 371.46 461.709 370.646 463.758 370.645C465.807 370.646 467.771 371.46 469.22 372.909C470.669 374.358 471.483 376.322 471.484 378.371ZM210.324 476.426C209.309 476.426 208.305 476.226 207.368 475.837C206.431 475.449 205.579 474.88 204.862 474.162C204.145 473.445 203.576 472.593 203.189 471.655C202.801 470.718 202.601 469.713 202.602 468.699V413.07C202.602 411.022 203.415 409.057 204.863 407.608C206.311 406.159 208.275 405.345 210.324 405.344H246.508C250.778 405.344 254.234 408.804 254.234 413.07C254.234 414.085 254.034 415.089 253.646 416.027C253.258 416.964 252.689 417.816 251.971 418.534C251.254 419.251 250.402 419.821 249.465 420.209C248.527 420.597 247.523 420.797 246.508 420.797H218.05V468.699C218.054 472.969 214.593 476.426 210.323 476.426H210.324ZM320.332 446.738H320.148C318.099 446.72 316.142 445.888 314.706 444.427C313.271 442.965 312.474 440.994 312.492 438.945C312.509 436.908 313.33 434.96 314.776 433.525C316.223 432.09 318.178 431.285 320.215 431.285H320.285L320.398 431.289C321.412 431.298 322.415 431.506 323.349 431.902C324.283 432.299 325.13 432.875 325.841 433.599C326.552 434.323 327.114 435.179 327.494 436.12C327.873 437.061 328.064 438.067 328.055 439.082C328.037 441.119 327.216 443.066 325.769 444.5C324.323 445.934 322.369 446.738 320.332 446.738Z" fill="#8CB4B1"/>
<path d="M472.082 323.75H471.898C470.883 323.741 469.88 323.532 468.946 323.135C468.012 322.738 467.166 322.161 466.455 321.437C465.744 320.713 465.183 319.856 464.803 318.915C464.423 317.974 464.233 316.968 464.242 315.953C464.282 311.688 467.734 308.23 472.039 308.297L472.152 308.301C473.166 308.309 474.169 308.518 475.103 308.914C476.037 309.311 476.884 309.887 477.595 310.611C478.306 311.335 478.868 312.191 479.248 313.132C479.627 314.073 479.818 315.079 479.809 316.094C479.79 318.131 478.967 320.078 477.52 321.511C476.073 322.945 474.119 323.749 472.082 323.75Z" fill="#9AC6C3"/>
<path d="M183.27 422.102H183.085C182.07 422.093 181.067 421.884 180.133 421.487C179.199 421.09 178.353 420.514 177.642 419.79C176.931 419.065 176.37 418.208 175.99 417.267C175.611 416.326 175.42 415.32 175.43 414.305C175.448 412.269 176.27 410.322 177.716 408.888C179.162 407.454 181.115 406.649 183.152 406.648H183.222L183.336 406.652C185.364 406.692 187.295 407.528 188.712 408.979C190.128 410.431 190.918 412.381 190.909 414.409C190.9 416.438 190.094 418.381 188.665 419.82C187.236 421.26 185.298 422.079 183.27 422.102ZM149.098 446.742C149.074 446.742 149.051 446.742 149.028 446.738H148.914C146.866 446.719 144.909 445.887 143.473 444.426C142.037 442.965 141.241 440.993 141.258 438.945C141.276 436.908 142.098 434.96 143.545 433.526C144.992 432.091 146.947 431.286 148.984 431.285H149.054L149.164 431.289C153.434 431.324 156.859 434.816 156.824 439.082C156.806 441.119 155.984 443.067 154.537 444.501C153.09 445.936 151.135 446.741 149.098 446.742Z" fill="#8CB4B1"/>
<path d="M467.523 376.313H403.54C394.282 376.313 386.774 368.805 386.774 359.547C386.774 350.289 394.282 342.785 403.54 342.785H467.524C476.782 342.785 484.286 350.289 484.286 359.547C484.286 368.809 476.782 376.312 467.524 376.312L467.523 376.313Z" fill="#A2D961"/>
<path d="M336.277 141.39C343.789 139.863 349.109 132.898 348.41 125.086C347.656 116.699 340.246 110.508 331.86 111.262L202.824 122.852C194.445 123.602 188.25 131.016 189 139.402C189.754 147.789 197.164 153.977 205.55 153.222L334.586 141.637C335.16 141.586 335.726 141.5 336.277 141.391V141.39Z" fill="#FF9921"/>
<path d="M101.457 230.543L52.597 421.262C50.141 430.859 56.328 440.535 66.074 442.328C74.813 443.938 83.328 438.586 85.668 430.012L137.738 239.402L101.457 230.543Z" fill="#628FB1"/>
<path d="M209.59 139.203L186.2 231.352C184.09 239.684 176.16 245.184 167.621 244.23L109.34 237.773C103.238 237.102 99.1799 231.121 100.8 225.203L118.328 161.082L122.789 144.742L130.24 117.5C135.24 99.2231 151.81 87.2031 169.892 87.2031C173.482 87.2031 177.13 87.6831 180.762 88.6721C202.681 94.6601 215.591 117.282 209.591 139.203H209.59Z" fill="#FFBD47"/>
<path d="M188.512 91.652H188.492C180.301 91.113 172.316 93.074 165.469 96.988C156.329 102.199 149.168 110.906 146.172 121.855L114.34 238.328L109.344 237.773C103.234 237.098 99.18 231.125 100.801 225.195L130.246 117.508C130.309 117.262 130.379 117.023 130.453 116.778C130.503 116.602 130.555 116.438 130.605 116.273C130.688 116.003 130.773 115.746 130.855 115.48L131.195 114.488L131.535 113.551C131.555 113.511 131.566 113.481 131.575 113.449C131.789 112.902 132.02 112.355 132.254 111.82C132.734 110.718 133.264 109.639 133.844 108.586C134.121 108.082 134.41 107.574 134.707 107.082C134.707 107.062 134.719 107.051 134.727 107.039C134.895 106.773 135.047 106.516 135.223 106.246C135.488 105.816 135.777 105.395 136.078 104.973C136.308 104.62 136.552 104.276 136.808 103.941C137.089 103.545 137.385 103.159 137.695 102.785C137.973 102.43 138.27 102.07 138.57 101.723C139.358 100.797 140.185 99.9055 141.05 99.051C141.473 98.633 141.922 98.203 142.371 97.812C142.484 97.699 142.598 97.594 142.711 97.5C142.996 97.242 143.297 96.988 143.605 96.738C143.781 96.586 143.957 96.441 144.141 96.308C144.411 96.078 144.68 95.875 144.945 95.68C145.179 95.4859 145.423 95.3033 145.675 95.133L145.691 95.121C146.648 94.387 147.671 93.746 148.703 93.125L149.527 92.629C149.855 92.445 150.184 92.269 150.516 92.094C150.609 92.039 150.703 91.988 150.796 91.938C151.246 91.699 151.703 91.473 152.164 91.25C152.207 91.227 152.258 91.207 152.301 91.187C152.661 91.012 153.031 90.847 153.402 90.691C154.603 90.1564 155.83 89.6821 157.078 89.27C157.5 89.137 157.926 89 158.348 88.879C158.781 88.746 159.203 88.633 159.637 88.527C159.82 88.4748 160.005 88.4281 160.191 88.387C160.539 88.293 160.902 88.211 161.273 88.137C162.347 87.9025 163.43 87.7133 164.52 87.57C164.766 87.531 165.012 87.5 165.262 87.477C165.684 87.426 166.105 87.387 166.527 87.355C166.898 87.325 167.27 87.293 167.648 87.281C167.918 87.261 168.176 87.242 168.434 87.242C172.593 87.0891 176.752 87.5713 180.766 88.672C181.32 88.828 181.875 88.992 182.422 89.168C183.02 89.352 183.617 89.558 184.195 89.773C184.575 89.91 184.938 90.055 185.309 90.207C185.617 90.332 185.926 90.453 186.227 90.59C186.597 90.742 186.957 90.906 187.317 91.074C187.719 91.258 188.121 91.454 188.512 91.652Z" fill="#FF9921"/>
<path d="M150.14 156.063L118.328 161.082L122.789 144.742L147.73 140.801C148.733 140.642 149.757 140.682 150.744 140.919C151.731 141.157 152.662 141.586 153.483 142.183C154.304 142.781 154.999 143.534 155.529 144.4C156.058 145.266 156.412 146.228 156.57 147.231C157.23 151.441 154.36 155.402 150.14 156.063Z" fill="#FF9921"/>
<path d="M238.68 44.7269C239.113 47.8439 239.258 50.9449 239.125 53.9839C239.077 55.0108 239.001 56.0361 238.898 57.0589C236.504 79.6909 218.996 98.6599 195.445 101.938C167.707 105.801 142.094 86.4379 138.235 58.7149C137.913 56.4373 137.748 54.1402 137.742 51.8399C137.716 46.9041 138.42 41.9915 139.832 37.2619C145.328 18.8119 161.152 4.3199 181.453 1.4919C208.645 -2.2971 233.801 16.2299 238.418 43.0939C238.516 43.6249 238.602 44.1679 238.68 44.7269Z" fill="#FECAA8"/>
<path d="M238.68 44.7269C239.113 47.8439 239.258 50.9449 239.125 53.9839C239.077 55.0108 239.001 56.0361 238.898 57.0589C228.605 60.8479 218.371 63.4729 208.378 64.8629C173.168 69.7699 148.691 58.5229 137.742 51.8399C137.734 50.7499 137.773 49.6679 137.832 48.5939C138.06 44.7522 138.731 40.9496 139.832 37.2619C145.328 18.8089 161.152 4.3199 181.453 1.4919C208.645 -2.2971 233.801 16.2299 238.418 43.0939C238.516 43.6249 238.602 44.1679 238.68 44.7269Z" fill="#FFB38C"/>
<path d="M238.418 43.09C176.203 68.086 139.836 37.266 139.836 37.266C145.328 18.813 161.152 4.32001 181.457 1.49201C208.648 -2.293 233.805 16.23 238.418 43.09Z" fill="#336686"/>
<path d="M249.746 46.602C246.269 48.2141 242.741 49.7149 239.168 51.102C221.004 58.129 204.926 60.672 191.148 60.672C163.633 60.672 145.348 50.504 138.105 45.582C138.443 42.7631 139.022 39.9783 139.835 37.258C140.547 34.875 141.425 32.558 142.465 30.332C143.434 30.582 144.371 31.023 145.227 31.672C148.945 34.508 182.074 57.777 236.507 35.527C238.715 34.617 240.957 33.652 243.234 32.59C247.109 30.785 251.704 32.477 253.496 36.34C255.301 40.215 253.609 44.809 249.746 46.602Z" fill="#336686"/>
<path d="M164.785 122.469C166.102 130.789 160.422 138.598 152.105 139.91L93.7029 149.137L58.9839 190.312C53.6639 196.625 44.2579 197.488 37.8749 192.25L37.6409 192.055C31.1329 186.719 30.2419 177.094 35.6679 170.656L74.0509 125.133C76.4151 122.333 79.708 120.476 83.3279 119.903L147.348 109.789C155.664 108.473 163.473 114.152 164.785 122.469Z" fill="#FFBD47"/>
<path d="M48.484 448.285L99.227 465.117C108.801 468.297 117.172 457.855 111.988 449.199C102.605 433.533 87.9131 421.755 70.582 416.004L60.32 412.602C59.0832 412.191 57.7776 412.028 56.4778 412.122C55.178 412.216 53.9094 412.565 52.7446 413.15C51.5798 413.734 50.5415 414.542 49.6891 415.528C48.8368 416.514 48.187 417.658 47.777 418.895L42.187 435.738C40.461 440.941 43.281 446.558 48.484 448.285Z" fill="#2081F6"/>
<path d="M154.156 479.43H77.801C73.535 479.43 70.074 475.969 70.074 471.703C70.074 467.437 73.535 463.977 77.801 463.977H154.156C158.422 463.977 161.883 467.437 161.883 471.703C161.883 475.969 158.422 479.43 154.156 479.43ZM294.121 405.61C292.072 405.609 290.107 404.795 288.658 403.346C287.21 401.897 286.395 399.932 286.395 397.883V382.633H255.43C251.164 382.633 247.703 379.172 247.703 374.906C247.703 370.64 251.164 367.18 255.43 367.18H294.121C296.17 367.18 298.135 367.994 299.584 369.443C301.033 370.892 301.847 372.857 301.848 374.906V397.883C301.847 399.932 301.033 401.897 299.584 403.345C298.135 404.794 296.17 405.609 294.121 405.61Z" fill="#8CB4B1"/>
<path d="M360.992 137.57L379.41 134.473C381.654 134.096 383.741 133.078 385.421 131.543C387.101 130.008 388.302 128.021 388.879 125.82L392.633 111.55C394.813 103.25 387.699 95.4648 379.238 96.8898L354.84 100.992C344.738 102.692 337.93 112.258 339.625 122.359C341.328 132.461 350.895 139.269 360.992 137.57ZM46.465 207.656L36.379 223.371C35.15 225.287 33.3942 226.807 31.3223 227.75C29.2505 228.692 26.9507 229.016 24.6989 228.684L10.102 226.524C1.61295 225.266 -2.75005 215.668 1.88195 208.445L15.246 187.625C20.777 179.004 32.2499 176.5 40.8709 182.031C49.4919 187.562 51.996 199.035 46.465 207.656Z" fill="#FECAA8"/>
<path d="M387.813 65.9837C387.813 58.7417 376.969 52.8667 363.59 52.8667C350.211 52.8667 339.367 58.7417 339.367 65.9837C339.367 73.2297 350.211 79.1017 363.59 79.1017C376.969 79.1017 387.813 73.2297 387.813 65.9837Z" fill="#2081F6"/>
</g>
</g>
<defs>
<clipPath id="clip0_170_4751">
<rect width="512" height="512" fill="white"/>
</clipPath>
<clipPath id="clip1_170_4751">
<rect width="512" height="512" fill="white"/>
</clipPath>
</defs>
</svg>
