<svg width="512" height="512" viewBox="0 0 512 512" fill="none" xmlns="http://www.w3.org/2000/svg">
<g clip-path="url(#clip0_170_4610)">
<path d="M24 312H56V328C56 332.243 54.3143 336.313 51.3137 339.314C48.3131 342.314 44.2435 344 40 344C35.7565 344 31.6869 342.314 28.6863 339.314C25.6857 336.313 24 332.243 24 328V312Z" fill="#F9E109"/>
<path d="M168 456H128L112 360L96 456H56V312H168V456Z" fill="#4891D3"/>
<path d="M128 456H160C168.487 456 176.626 459.371 182.627 465.373C188.629 471.374 192 479.513 192 488H128V456ZM96 488H32C32 479.513 35.3714 471.374 41.3726 465.373C47.3737 459.371 55.5131 456 64 456H96V488Z" fill="#FCBC04"/>
<path d="M251.24 187.648L208 200L185.168 190.864C173.828 186.329 161.726 183.999 149.512 184H72C59.2696 184 47.0606 189.057 38.0589 198.059C29.0571 207.061 24 219.27 24 232V312H168V232L194.544 237.312C203.265 239.055 212.318 237.841 220.272 233.864L261.248 213.376C264.235 211.882 266.583 209.36 267.86 206.274C269.137 203.187 269.258 199.744 268.2 196.576C267.067 193.19 264.671 190.372 261.511 188.709C258.352 187.046 254.673 186.666 251.24 187.648Z" fill="#57B7EB"/>
<path d="M168 232L194.544 237.312C203.265 239.055 212.318 237.842 220.272 233.864L261.248 213.376C264.235 211.882 266.583 209.36 267.86 206.274C269.137 203.188 269.258 199.744 268.2 196.576L244.632 212.576C235.729 218.617 225.553 222.525 214.895 223.995C204.236 225.466 193.383 224.46 183.176 221.056C181.442 220.48 179.597 220.323 177.791 220.6C175.985 220.876 174.27 221.577 172.788 222.646C171.307 223.715 170.1 225.12 169.267 226.746C168.435 228.372 168 230.173 168 232Z" fill="#2D72BC"/>
<path d="M136 280C127.773 279.999 119.623 278.407 112 275.312V216H96V265.928C88.5063 259.943 82.4572 252.347 78.3023 243.703C74.1474 235.059 71.9933 225.59 72 216V184C59.2696 184 47.0606 189.057 38.0589 198.059C29.0571 207.061 24 219.27 24 232V312H168V280H136Z" fill="#4891D3"/>
<path d="M136 184L112 216L88 184V168H136V184Z" fill="#FCBC04"/>
<path d="M136 240L112 216L136 184H152L136 240ZM72 240L112 216L88 184H72V240Z" fill="#2D72BC"/>
<path d="M72 72H120C128.487 72 136.626 75.3714 142.627 81.3726C148.629 87.3737 152 95.5131 152 104H72V72Z" fill="#4891D3"/>
<path d="M268.2 196.592C267.07 193.203 264.675 190.382 261.515 188.716C258.356 187.049 254.675 186.667 251.24 187.648L234.784 192.344L244.568 221.712L261.248 213.376C264.232 211.882 266.577 209.363 267.854 206.28C269.131 203.198 269.254 199.758 268.2 196.592Z" fill="#F9E109"/>
<path d="M152 104H72V72H81.44C83.0578 76.6893 86.1037 80.7542 90.1499 83.6239C94.1961 86.4935 99.0395 88.0239 104 88H147.68C150.504 92.8598 151.994 98.3793 152 104Z" fill="#2D72BC"/>
<path d="M136 168V175.84C132.318 180.827 127.522 184.885 121.994 187.691C116.466 190.497 110.359 191.972 104.16 192C109.982 196.385 116.904 199.071 124.16 199.76L112 216L88 184V168H136Z" fill="#E59730"/>
<path d="M72 104H152V144C152 149.253 150.965 154.454 148.955 159.307C146.945 164.16 143.999 168.57 140.284 172.284C136.57 175.999 132.16 178.945 127.307 180.955C122.454 182.965 117.253 184 112 184C101.391 184 91.2172 179.786 83.7157 172.284C76.2143 164.783 72 154.609 72 144V104Z" fill="#F9E109"/>
<path d="M100.72 124.72C99.216 126.187 98.0229 127.942 97.212 129.88C96.401 131.818 95.9888 133.899 96 136C96 146.609 100.214 156.783 107.716 164.284C115.217 171.786 125.391 176 136 176C129.092 181.224 120.66 184.034 112 184C101.391 184 91.2172 179.786 83.7157 172.284C76.2143 164.783 72 154.609 72 144V104H152V120H112C109.899 119.989 107.818 120.401 105.88 121.212C103.942 122.023 102.187 123.216 100.72 124.72Z" fill="#FCBC04"/>
<path d="M144 232L112 216L136 184H152L144 232ZM80 232L112 216L88 184H72L80 232Z" fill="#84D2F4"/>
<path d="M261.28 213.36L244.56 221.68L234.8 192.32L239.92 190.88C241.975 194.488 245.335 197.171 249.309 198.377C253.282 199.582 257.567 199.218 261.28 197.36C263.319 196.364 265.058 194.846 266.32 192.96C267.136 194.045 267.758 195.263 268.16 196.56C269.246 199.718 269.147 203.164 267.881 206.254C266.615 209.345 264.269 211.87 261.28 213.36ZM56 312V328C55.9936 331.078 55.0996 334.088 53.4252 336.671C51.7509 339.253 49.3672 341.298 46.56 342.56C47.5255 340.509 48.0176 338.267 48 336C47.9873 331.76 46.2976 327.698 43.2997 324.7C40.3019 321.702 36.2396 320.013 32 320H24V312H56Z" fill="#FCBC04"/>
<path d="M132.8 356.24L140.32 412.24C141.242 419.234 144.461 425.724 149.471 430.69C154.481 435.657 160.998 438.819 168 439.68V456H128L112 360L96 456H56V312H168V320H164.56C159.996 319.994 155.484 320.964 151.326 322.846C147.167 324.727 143.46 327.477 140.452 330.909C137.444 334.341 135.205 338.378 133.885 342.747C132.565 347.116 132.195 351.716 132.8 356.24ZM56 224V312H48V232C48 229.878 48.8429 227.843 50.3431 226.343C51.8434 224.843 53.8783 224 56 224Z" fill="#2D72BC"/>
<path d="M384 376H448C458.609 376 468.783 380.214 476.284 387.716C483.786 395.217 488 405.391 488 416V488H344V416C344 405.391 348.214 395.217 355.716 387.716C363.217 380.214 373.391 376 384 376Z" fill="#84D2F4"/>
<path d="M456 469.992V440C451.757 440 447.687 441.686 444.686 444.686C441.686 447.687 440 451.757 440 456V472H439.36C437.341 472.008 435.339 471.617 433.472 470.848C431.605 470.079 429.908 468.948 428.48 467.52C427.052 466.092 425.921 464.395 425.152 462.528C424.383 460.661 423.992 458.659 424 456.64C424.002 453.997 424.688 451.399 425.991 449.1C427.295 446.801 429.172 444.878 431.44 443.52C441.611 437.419 450.293 429.126 456.853 419.244C463.413 409.363 467.686 398.142 469.36 386.4L469.92 382.48C463.392 378.25 455.779 375.999 448 376H384C373.391 376 363.217 380.214 355.716 387.716C348.214 395.217 344 405.391 344 416V488H488V453.36C478.886 461.484 467.886 467.202 456 469.992Z" fill="#57B7EB"/>
<path d="M439.064 416.624L416 432L392.936 416.624C385.266 411.51 378.977 404.582 374.627 396.454C370.277 388.327 368 379.251 368 370.032V320C368 307.27 373.057 295.061 382.059 286.059C391.061 277.057 403.27 272 416 272C428.73 272 440.939 277.057 449.941 286.059C458.943 295.061 464 307.27 464 320V370.032C464 379.251 461.723 388.327 457.373 396.454C453.023 404.582 446.734 411.51 439.064 416.624Z" fill="#4891D3"/>
<path d="M463.68 376.24C462.763 384.362 460.083 392.186 455.827 399.164C451.571 406.143 445.842 412.107 439.04 416.64L416 432L392.96 416.64C385.283 411.52 378.988 404.584 374.634 396.448C370.28 388.312 368.001 379.228 368 370V320C367.996 311.58 370.213 303.308 374.427 296.019C378.641 288.729 384.702 282.679 392 278.48V336C392 348.73 397.057 360.939 406.059 369.941C415.061 378.943 427.27 384 440 384C448.521 384.016 456.821 381.296 463.68 376.24Z" fill="#2D72BC"/>
<path d="M256 360H288V384H256V360Z" fill="#E59730"/>
<path d="M240 304H304V344C304 352.487 300.629 360.626 294.627 366.627C288.626 372.629 280.487 376 272 376C263.513 376 255.374 372.629 249.373 366.627C243.371 360.626 240 352.487 240 344V304Z" fill="#F9E109"/>
<path d="M240 376H304C314.609 376 324.783 380.214 332.284 387.716C339.786 395.217 344 405.391 344 416V488H200V416C200 405.391 204.214 395.217 211.716 387.716C219.217 380.214 229.391 376 240 376Z" fill="#4891D3"/>
<path d="M304 304V344C304 345.284 303.92 346.566 303.76 347.84C298.955 350.566 293.525 351.999 288 352H265.44C268.387 356.053 272.248 359.353 276.71 361.633C281.172 363.913 286.109 365.107 291.12 365.12C292.891 365.126 294.659 364.966 296.4 364.64C292.164 369.632 286.5 373.204 280.17 374.876C273.84 376.547 267.15 376.237 261.003 373.987C254.855 371.738 249.545 367.656 245.789 362.294C242.034 356.932 240.013 350.547 240 344V304H304Z" fill="#FCBC04"/>
<path d="M224 280H288C296.487 280 304.626 283.371 310.627 289.373C316.629 295.374 320 303.513 320 312C320 320.487 316.629 328.626 310.627 334.627C304.626 340.629 296.487 344 288 344H256C247.513 344 239.374 340.629 233.373 334.627C227.371 328.626 224 320.487 224 312V280Z" fill="#4891D3"/>
<path d="M320 312C320.005 316.204 319.181 320.367 317.575 324.252C315.969 328.137 313.612 331.667 310.639 334.639C307.667 337.612 304.137 339.969 300.252 341.575C296.367 343.181 292.204 344.005 288 344H256C247.513 344 239.374 340.629 233.373 334.627C227.371 328.626 224 320.487 224 312V280H240C240 288.487 243.371 296.626 249.373 302.627C255.374 308.629 263.513 312 272 312H304C309.499 311.999 314.904 310.565 319.68 307.84C319.909 309.215 320.016 310.607 320 312ZM312 464V440C307.757 440 303.687 441.686 300.686 444.686C297.686 447.687 296 451.757 296 456V464C279.026 464 262.747 457.257 250.745 445.255C238.743 433.252 232 416.974 232 400V376.8C222.965 378.644 214.845 383.553 209.014 390.697C203.182 397.84 199.998 406.779 200 416V488H344V464H312Z" fill="#2D72BC"/>
<path d="M448 24H264C259.757 24 255.687 25.6857 252.686 28.6863C249.686 31.6869 248 35.7565 248 40V96L192 152L248 144V168C248 172.243 249.686 176.313 252.686 179.314C255.687 182.314 259.757 184 264 184H448C452.243 184 456.313 182.314 459.314 179.314C462.314 176.313 464 172.243 464 168V40C464 35.7565 462.314 31.6869 459.314 28.6863C456.313 25.6857 452.243 24 448 24Z" fill="#A1D51C"/>
<path d="M464 136V168C463.987 172.24 462.298 176.302 459.3 179.3C456.302 182.298 452.24 183.987 448 184H264C259.76 183.987 255.698 182.298 252.7 179.3C249.702 176.302 248.013 172.24 248 168V144L192 152L248 96V40C248.013 35.7604 249.702 31.6981 252.7 28.7003C255.698 25.7024 259.76 24.0127 264 24H296V40C296 65.4608 306.114 89.8788 324.118 107.882C342.121 125.886 366.539 136 392 136H464Z" fill="#7AB92D"/>
<path d="M432 64H320C317.878 64 315.843 63.1571 314.343 61.6569C312.843 60.1566 312 58.1217 312 56C312 53.8783 312.843 51.8434 314.343 50.3431C315.843 48.8429 317.878 48 320 48H432C434.122 48 436.157 48.8429 437.657 50.3431C439.157 51.8434 440 53.8783 440 56C440 58.1217 439.157 60.1566 437.657 61.6569C436.157 63.1571 434.122 64 432 64ZM400 96H288C285.878 96 283.843 95.1571 282.343 93.6569C280.843 92.1566 280 90.1217 280 88C280 85.8783 280.843 83.8434 282.343 82.3431C283.843 80.8429 285.878 80 288 80H400C402.122 80 404.157 80.8429 405.657 82.3431C407.157 83.8434 408 85.8783 408 88C408 90.1217 407.157 92.1566 405.657 93.6569C404.157 95.1571 402.122 96 400 96ZM424 128H312C309.878 128 307.843 127.157 306.343 125.657C304.843 124.157 304 122.122 304 120C304 117.878 304.843 115.843 306.343 114.343C307.843 112.843 309.878 112 312 112H424C426.122 112 428.157 112.843 429.657 114.343C431.157 115.843 432 117.878 432 120C432 122.122 431.157 124.157 429.657 125.657C428.157 127.157 426.122 128 424 128Z" fill="#F9E109"/>
<path d="M408 160H288C285.878 160 283.843 159.157 282.343 157.657C280.843 156.157 280 154.122 280 152C280 149.878 280.843 147.843 282.343 146.343C283.843 144.843 285.878 144 288 144H408C410.122 144 412.157 144.843 413.657 146.343C415.157 147.843 416 149.878 416 152C416 154.122 415.157 156.157 413.657 157.657C412.157 159.157 410.122 160 408 160ZM314 96H288C285.878 96 283.843 95.1571 282.343 93.6569C280.843 92.1566 280 90.1217 280 88C280 85.8783 280.843 83.8434 282.343 82.3431C283.843 80.8429 285.878 80 288 80H304.64C307.238 85.6219 310.373 90.9801 314 96ZM353.52 128H312C309.878 128 307.843 127.157 306.343 125.657C304.843 124.157 304 122.122 304 120C304 117.878 304.843 115.843 306.343 114.343C307.843 112.843 309.878 112 312 112H328.48C335.926 118.626 344.378 124.027 353.52 128Z" fill="#FCBC04"/>
</g>
<defs>
<clipPath id="clip0_170_4610">
<rect width="512" height="512" fill="white"/>
</clipPath>
</defs>
</svg>
