<svg width="512" height="512" viewBox="0 0 512 512" fill="none" xmlns="http://www.w3.org/2000/svg">
<g clip-path="url(#clip0_170_4657)">
<path d="M40.016 416.008C57.6891 416.008 72.016 401.681 72.016 384.008C72.016 366.335 57.6891 352.008 40.016 352.008C22.3429 352.008 8.01599 366.335 8.01599 384.008C8.01599 401.681 22.3429 416.008 40.016 416.008Z" fill="#C76F5F"/>
<path d="M256 208H80V200C83.7916 193.859 89.4983 189.136 96.24 186.56C111.52 179.52 135.84 176 168 176C200.16 176 224.472 179.52 239.752 186.48C242.223 187.631 244.604 188.968 246.872 190.48C249.709 192.433 252.024 195.05 253.615 198.105C255.207 201.159 256.025 204.556 256 208Z" fill="#6F3FF3"/>
<path d="M221.6 144C232.21 155.743 238.6 170.689 239.76 186.472C224.488 179.528 200.256 176 168 176C135.744 176 111.52 179.52 96.24 186.56C97.4226 171.217 103.479 156.653 113.525 144.995C123.57 133.338 137.08 125.196 152.08 121.76C157.308 120.604 162.646 120.014 168 120C178.123 119.987 188.133 122.119 197.372 126.256C206.611 130.393 214.868 136.44 221.6 144Z" fill="#2864F0"/>
<path d="M492.72 162.808C495.915 163.62 498.752 165.464 500.791 168.053C502.831 170.642 503.959 173.832 504 177.128C503.923 179.469 503.316 181.761 502.224 183.833C501.132 185.905 499.584 187.701 497.697 189.088C495.81 190.474 493.632 191.414 491.329 191.837C489.026 192.26 486.657 192.154 484.4 191.528L466.8 187.048L482.08 159.848L482.32 160.008L492.72 162.808ZM334.888 117.696L312.008 152.008L313.288 159.768L312.008 160.008L296.008 168.008L308.328 126.896L320.008 88.0161L334.888 117.696Z" fill="#E9B789"/>
<path d="M308.328 126.896L296 168L221.6 144C214.868 136.44 206.611 130.393 197.372 126.256C188.133 122.119 178.123 119.987 168 120C162.646 120.014 157.308 120.604 152.08 121.76L152 121.52L19.624 78.8159C17.5722 78.2865 15.651 77.3413 13.9796 76.0389C12.3081 74.7365 10.922 73.1046 9.90716 71.2444C8.89233 69.3843 8.27041 67.3355 8.07996 65.2251C7.8895 63.1147 8.13458 60.9877 8.8 58.9759L15.36 39.7759L16 39.9999L308.328 126.896Z" fill="#F2CFA9"/>
<path d="M22.584 18.6559C23.8992 14.8469 26.618 11.6832 30.1859 9.81007C33.7538 7.93694 37.9018 7.49555 41.784 8.57594L320 87.9999L308.32 126.88L16 39.9999L15.36 39.7599L22.584 18.6559Z" fill="#FFE2C2"/>
<path d="M384.008 240.008V216.008H448V240.008H392.008H384.008Z" fill="#B9C3CC"/>
<path d="M471.92 128.096L440 184.008L416 176.008L440 120.016L472 128.016L471.92 128.096Z" fill="#2CB5FF"/>
<path d="M477.12 129.856C479.357 130.616 481.399 131.86 483.099 133.499C484.8 135.139 486.117 137.134 486.958 139.342C487.799 141.549 488.141 143.915 487.962 146.271C487.782 148.626 487.085 150.913 485.92 152.968L482.08 159.848L466.8 187.048L464 192L454.8 188.96L440 184L471.92 128.088L477.12 129.856ZM440 120.016L416 176.008L392.008 168.008L408.008 112.016L440 120.016Z" fill="#2CB5FF"/>
<path d="M454.8 188.968L448 216.008H384.008V152.008L408.008 112.016L392.008 168.008L416 176.008L440 184.008L454.8 188.968Z" fill="#2864F0"/>
<path d="M334.888 117.696L344.008 104.016L408.008 112.016L384.008 152.008V200.008H320.008L313.288 159.768L312.008 152.008L334.888 117.696Z" fill="#2B8FFC"/>
<path d="M329.768 360.008L336.008 368.008L321.448 378.888L304.008 392L296.008 384.008L256.008 328.008L248.008 320.008L280.008 296.008L329.768 360.008Z" fill="#FDFEFF"/>
<path d="M136 408H168L296 384L304 392L321.44 378.888L376 488V504H176V472L128 408L128.08 407.2C130.683 407.751 133.339 408.019 136 408Z" fill="#2B8FFC"/>
<path d="M384 296L401.6 319.52C403.51 322.023 406.108 323.915 409.075 324.966C412.043 326.017 415.252 326.182 418.312 325.44L440 320V313.04C444.375 313.197 448.511 315.075 451.508 318.267C454.504 321.458 456.119 325.704 456 330.08V334.32C456.061 337.932 454.969 341.469 452.883 344.418C450.797 347.367 447.826 349.574 444.4 350.72L418.08 358.72C414.828 359.748 411.411 360.155 408.008 359.92C403.98 359.76 400.025 358.8 396.372 357.097C392.718 355.394 389.44 352.982 386.728 350L364.968 326.88C361.778 323.38 360.009 318.816 360.009 314.08C360.009 309.344 361.778 304.78 364.968 301.28C366.497 299.622 368.352 298.297 370.417 297.388C372.482 296.48 374.712 296.007 376.968 296H384Z" fill="#EBF5F7"/>
<path d="M338.248 360L356.008 296H376.968C374.712 296.007 372.482 296.48 370.417 297.388C368.352 298.297 366.497 299.622 364.968 301.28C361.778 304.78 360.009 309.344 360.009 314.08C360.009 318.816 361.778 323.38 364.968 326.88L386.728 350C389.439 352.982 392.715 355.396 396.367 357.1C400.019 358.804 403.973 359.766 408 359.928V360H338.248Z" fill="#6F3FF3"/>
<path d="M256 328L296 384L168 408H136C133.339 408.019 130.684 407.751 128.08 407.2C120.993 405.76 114.427 402.428 109.081 397.558C103.735 392.687 99.8069 386.46 97.715 379.537C95.6231 372.614 95.4449 365.254 97.1994 358.238C98.9539 351.221 102.576 344.811 107.68 339.688C109.025 338.351 110.469 337.118 112 336C118.908 330.776 127.34 327.965 136 328H256Z" fill="#9863FC"/>
<path d="M440 313.048V320L418.32 325.44C415.26 326.182 412.051 326.017 409.083 324.966C406.116 323.915 403.518 322.023 401.608 319.52L384 296L392 240H440V313.048ZM144 277.6V307.36C141.329 306.258 138.736 304.975 136.24 303.52C131.29 300.735 126.742 297.29 122.72 293.28C111.147 281.674 104.474 266.065 104.08 249.68C105.376 262.4 121.536 273.128 144 277.6ZM192 277.6V307.36C176.598 313.546 159.402 313.546 144 307.36V277.6C159.84 280.8 176.16 280.8 192 277.6ZM192 277.6C214.48 273.12 230.632 262.4 231.912 249.68C231.717 258.476 229.697 267.135 225.978 275.109C222.26 283.083 216.925 290.197 210.312 296C204.888 300.789 198.698 304.632 192 307.368V277.6Z" fill="#F2C5C6"/>
<path d="M168 248H232C232.013 248.561 231.987 249.123 231.92 249.68C230.64 262.4 214.488 273.12 192.008 277.6V272C192.008 265.635 189.479 259.53 184.979 255.029C180.478 250.529 174.365 248 168 248Z" fill="#FED9D8"/>
<path d="M192 272V277.6C176.16 280.8 159.84 280.8 144 277.6V272C144 265.635 146.529 259.53 151.029 255.029C155.53 250.529 161.635 248 168 248C174.365 248 180.47 250.529 184.971 255.029C189.471 259.53 192 265.635 192 272Z" fill="#FED9D8"/>
<path d="M104 248H168C161.635 248 155.53 250.529 151.029 255.029C146.529 259.53 144 265.635 144 272V277.6C121.52 273.12 105.36 262.4 104.08 249.68C104.013 249.123 103.987 248.561 104 248Z" fill="#FED9D8"/>
<path d="M232.008 208.008V248.008H104.016V208.008H232.008ZM336.008 224.008H328.008L295.28 315.648L329.768 360.008H338.248L356.008 296.008L376.008 224.008H336.008Z" fill="#FED9D8"/>
<path d="M301.848 296.008H280.008L295.28 315.648L302.296 296.008H301.848Z" fill="#6F3FF3"/>
<path d="M240 208C244.24 208.013 248.302 209.702 251.3 212.7C254.298 215.698 255.987 219.76 256 224V232C256 238.365 253.471 244.47 248.971 248.971C244.47 253.471 238.365 256 232 256L231.52 255.92C231.842 253.292 232.002 250.647 232 248V208H240ZM104 248C103.998 250.647 104.158 253.292 104.48 255.92L104 256C97.6348 256 91.5303 253.471 87.0294 248.971C82.5286 244.47 80 238.365 80 232V224C80.0127 219.76 81.7024 215.698 84.7003 212.7C87.6981 209.702 91.7604 208.013 96 208H104V248Z" fill="#EBA8A9"/>
<path d="M320 200H384V224H320V200Z" fill="#E1EAF2"/>
<path d="M248.016 320L280.008 296.008H230.008L248 320H248.016Z" fill="#6F3FF3"/>
<path d="M248 320L230.008 296H210.336C201.419 303.857 190.494 309.081 178.78 311.089C167.066 313.096 155.024 311.808 144 307.368C141.329 306.266 138.736 304.983 136.24 303.528L136 304L112 336C118.908 330.776 127.34 327.966 136 328H256L248 320Z" fill="#2B8FFC"/>
<path d="M422.544 115.648L415.872 132.328L432.752 136.936L440 120.016L422.544 115.648ZM472 128.016L453.904 123.488L444 140L462.28 144.984L471.92 128.096L472 128.016ZM483.376 133.784L472.24 147.704L486.544 151.608C487.871 148.663 488.278 145.387 487.713 142.207C487.148 139.027 485.636 136.091 483.376 133.784Z" fill="#45CDFF"/>
<path d="M40 400C32.9224 399.989 26.0495 397.625 20.4623 393.28C14.8751 388.935 10.8908 382.857 9.13603 376C7.8385 380.748 7.65363 385.731 8.5958 390.562C9.53797 395.392 11.5818 399.941 14.5683 403.853C17.5548 407.765 21.4035 410.936 25.8151 413.118C30.2266 415.301 35.0822 416.436 40.004 416.436C44.9259 416.436 49.7814 415.301 54.193 413.118C58.6046 410.936 62.4533 407.765 65.4398 403.853C68.4263 399.941 70.4701 395.392 71.4123 390.562C72.3544 385.731 72.1696 380.748 70.872 376C69.1169 382.858 65.1314 388.938 59.5426 393.282C53.9538 397.627 47.079 399.99 40 400Z" fill="#B35747"/>
<path d="M168 192C200.232 192 224.472 195.52 239.752 202.48C242.223 203.631 244.604 204.968 246.872 206.48C247.476 206.95 248.051 207.458 248.592 208H256C256.026 204.557 255.209 201.16 253.619 198.106C252.029 195.052 249.715 192.433 246.88 190.48C244.612 188.968 242.231 187.631 239.76 186.48C224.472 179.52 200.232 176 168 176C135.768 176 111.52 179.52 96.24 186.56C89.4983 189.136 83.7916 193.859 80 200V208H87.088C89.9095 205.826 92.9822 204 96.24 202.56C111.52 195.52 135.84 192 168 192Z" fill="#9863FC"/>
<path d="M152.096 137.776C157.318 136.616 162.65 136.021 168 136C183.075 136.035 197.761 140.786 210 149.588C222.239 158.389 231.417 170.8 236.248 185.08C237.432 185.544 238.648 185.976 239.752 186.472C238.345 168.398 230.179 151.519 216.88 139.199C203.581 126.879 186.128 120.024 168 120C162.646 120.014 157.308 120.604 152.08 121.76C137.078 125.193 123.567 133.333 113.52 144.991C103.474 156.65 97.4189 171.215 96.24 186.56C97.344 186.056 98.592 185.608 99.784 185.136C103.714 173.423 110.587 162.915 119.744 154.621C128.902 146.326 140.036 140.523 152.08 137.768L152.096 137.776Z" fill="#2B8FFC"/>
<path d="M491.016 186.752C489.772 186.441 488.62 185.836 487.659 184.988C486.697 184.139 485.954 183.072 485.491 181.876C485.028 180.68 484.86 179.39 485 178.116C485.14 176.841 485.585 175.619 486.296 174.552L493.8 163.296C493.424 163.168 493.112 162.92 492.72 162.808L482.32 160L482.08 159.84L466.8 187.04L484.4 191.52C486.788 192.125 489.282 192.174 491.692 191.662C494.101 191.151 496.361 190.092 498.296 188.568L491.016 186.752ZM329.6 107.2L308.592 144C306.899 146.895 304.33 149.178 301.256 150.52L296 168L312 160L313.28 159.76L312 152L334.88 117.688L329.6 107.2Z" fill="#D99C64"/>
<path d="M104 208H232V232H104V208Z" fill="#F0B9BA"/>
<path d="M248 236V229.336C247.605 225.463 245.709 221.899 242.718 219.407C239.728 216.914 235.881 215.691 232 216V248C232 248.992 231.864 249.976 231.816 250.984C235.874 250.879 239.754 249.3 242.733 246.543C245.711 243.785 247.583 240.038 248 236ZM104 216C100.119 215.691 96.272 216.914 93.2816 219.407C90.2913 221.899 88.3954 225.463 88 229.336V236C88.4166 240.038 90.289 243.785 93.2674 246.543C96.2458 249.3 100.126 250.879 104.184 250.984C104.136 249.976 104 248.992 104 248V216Z" fill="#D19697"/>
<path d="M414.304 136.248L422.544 115.648L408 112L392 168L416 176L424 157.32C421.946 156.62 420.057 155.509 418.446 154.055C416.835 152.602 415.537 150.836 414.63 148.865C413.723 146.894 413.226 144.759 413.17 142.59C413.114 140.421 413.5 138.263 414.304 136.248ZM442.264 142.896L453.904 123.488L440 120L416 176L440 184L450.28 166C448.106 165.164 446.141 163.864 444.522 162.191C442.903 160.517 441.668 158.51 440.905 156.31C440.142 154.11 439.868 151.77 440.103 149.453C440.337 147.136 441.075 144.898 442.264 142.896ZM463.2 159.04L483.408 133.784C481.665 131.995 479.52 130.649 477.152 129.856L471.952 128.096L440 184L454.8 188.96L464 192L466.8 187.04L474.112 174.032L466.912 171.632C465.689 171.224 464.583 170.527 463.687 169.599C462.792 168.672 462.134 167.542 461.769 166.305C461.405 165.068 461.344 163.762 461.594 162.497C461.843 161.232 462.394 160.046 463.2 159.04Z" fill="#2B8FFC"/>
<path d="M420.392 189.824L452.288 198.936L454.8 188.96L440 184L416 176L392 168L408 112L384 152V216H400V205.208C400 202.732 400.575 200.29 401.679 198.074C402.784 195.857 404.387 193.928 406.364 192.437C408.341 190.945 410.636 189.933 413.071 189.48C415.505 189.027 418.011 189.144 420.392 189.824Z" fill="#1D47A8"/>
<path d="M368 160C368.009 157.284 368.435 154.586 369.264 152H312L313.28 159.76L317.328 184H344C350.365 184 356.47 181.471 360.971 176.97C365.471 172.47 368 166.365 368 160ZM395.688 110.464L372.44 145.344C371.063 147.4 369.986 149.641 369.24 152H384L408 112L395.688 110.464Z" fill="#2864F0"/>
<path d="M368 160C368 166.365 365.471 172.47 360.971 176.971C356.47 181.471 350.365 184 344 184H317.328L320 200H384V152H369.264C368.435 154.586 368.009 157.284 368 160Z" fill="#2357D1"/>
<path d="M400 216C400 220.243 401.686 224.313 404.686 227.314C407.687 230.314 411.757 232 416 232H448V240H384V216H400Z" fill="#A4ADB5"/>
<path d="M368 200C368 204.243 366.314 208.313 363.314 211.314C360.313 214.314 356.243 216 352 216H320V224H384V200H368Z" fill="#CDD6DE"/>
<path d="M395.688 110.472L344.008 104.016L335.216 117.2L385.6 125.6L395.688 110.472Z" fill="#2CB5FF"/>
<path d="M424.4 310.32C421.816 310.837 419.145 310.709 416.623 309.945C414.101 309.182 411.807 307.807 409.944 305.944L402.344 298.344C400.844 296.844 400 294.81 400 292.688V272C400 267.757 401.686 263.687 404.686 260.686C407.687 257.686 411.757 256 416 256H440V240H392L384 296L401.6 319.52C403.512 322.022 406.111 323.915 409.08 324.966C412.049 326.017 415.259 326.182 418.32 325.44L440 320V307.2L424.4 310.32Z" fill="#F0B9BA"/>
<path d="M336 224H328L322.288 240H337.792C340.329 239.997 342.83 240.597 345.089 241.75C347.348 242.904 349.3 244.578 350.785 246.635C352.269 248.692 353.244 251.072 353.628 253.579C354.011 256.087 353.794 258.649 352.992 261.056L332.664 322.048C332.209 323.412 331.395 324.629 330.307 325.569C329.219 326.51 327.898 327.14 326.482 327.393C325.067 327.646 323.609 327.512 322.263 327.007C320.916 326.501 319.731 325.642 318.832 324.52L300.352 301.44L295.28 315.64L329.768 360H338.248L356.008 296L376 224H336Z" fill="#F2C5C6"/>
<path d="M415.76 340.848L433.568 337.288C435.376 336.919 437.001 335.936 438.168 334.506C439.334 333.075 439.97 331.286 439.968 329.44V320L418.288 325.44C415.227 326.182 412.017 326.017 409.048 324.966C406.079 323.915 403.48 322.022 401.568 319.52L384 296H376.96C374.292 296.025 371.673 296.712 369.336 298L391.088 330.624C393.725 334.58 397.478 337.664 401.871 339.485C406.263 341.305 411.097 341.779 415.76 340.848Z" fill="#E1EAF2"/>
<path d="M386.72 350L364.96 326.88C363.506 325.292 362.341 323.462 361.52 321.472C359.975 322.595 358.924 324.272 358.587 326.152C358.25 328.032 358.653 329.97 359.712 331.56C360.516 332.765 360.978 334.166 361.048 335.614C361.118 337.061 360.793 338.5 360.109 339.777C359.425 341.055 358.407 342.122 357.163 342.866C355.919 343.609 354.497 344.001 353.048 344H342.648L338.208 360H408V359.92C403.972 359.76 400.017 358.8 396.364 357.097C392.71 355.394 389.432 352.981 386.72 350Z" fill="#4F2CAD"/>
<path d="M329.768 360L280 296L266.088 306.4L300.88 346.992C302.302 348.654 303.369 350.59 304.013 352.68C304.658 354.77 304.867 356.97 304.628 359.145C304.389 361.319 303.706 363.421 302.623 365.321C301.539 367.221 300.077 368.879 298.328 370.192L290.416 376.128L296 384L304 392L321.44 378.888L336 368L329.768 360Z" fill="#EBF5F7"/>
<path d="M256 328H237.336L257.136 357.704C257.877 358.816 258.328 360.095 258.447 361.426C258.566 362.757 258.35 364.096 257.819 365.322C257.287 366.548 256.458 367.621 255.405 368.444C254.352 369.267 253.11 369.813 251.792 370.032L176.392 382.6C170.808 383.53 165.157 383.998 159.496 384H144C134.216 383.989 124.669 380.989 116.638 375.402C108.607 369.814 102.475 361.906 99.064 352.736C96.8032 358.187 95.7784 364.072 96.0634 369.967C96.3483 375.861 97.9359 381.619 100.712 386.827C103.488 392.035 107.383 396.563 112.118 400.086C116.853 403.608 122.31 406.038 128.096 407.2C130.694 407.75 133.344 408.018 136 408H168L296 384L256 328Z" fill="#6F3FF3"/>
<path d="M144 307.36C141.329 306.258 138.736 304.975 136.24 303.52L136 304L112 336C118.335 331.257 125.95 328.53 133.856 328.176L148.336 308.864C146.896 308.392 145.432 307.92 144 307.36ZM230.008 296H210.336C206.726 299.085 202.791 301.768 198.6 304H236L230.008 296Z" fill="#2CB5FF"/>
<path d="M321.248 378.4L303.848 391.576L295.848 383.576L167.904 408L135.904 408.104C133.24 408.123 130.582 407.855 127.976 407.304L127.904 408.104L141.68 426.4L176 432L287.928 407.648L295.928 415.648L310.68 403.2L326.896 389.6L321.248 378.4Z" fill="#2357D1"/>
<path d="M175.968 432.24L141.68 426.64L176.112 472.24L176.216 504.24L192.2 504.192L192.096 472.192L175.968 432.24ZM376.152 487.6L326.896 389.872L310.68 403.472L360.152 487.656L360.2 503.656L376.208 503.6L376.152 487.6Z" fill="#2CB5FF"/>
<path d="M24 440C24 435.582 20.4183 432 16 432C11.5817 432 8 435.582 8 440V472C8 476.418 11.5817 480 16 480C20.4183 480 24 476.418 24 472V440Z" fill="#2CB5FF"/>
<path d="M24 496C24 491.582 20.4183 488 16 488C11.5817 488 8 491.582 8 496V504C8 508.418 11.5817 512 16 512C20.4183 512 24 508.418 24 504V496Z" fill="#2CB5FF"/>
<path d="M48 440C48 435.582 44.4183 432 40 432C35.5817 432 32 435.582 32 440V472C32 476.418 35.5817 480 40 480C44.4183 480 48 476.418 48 472V440Z" fill="#2CB5FF"/>
<path d="M48 496C48 491.582 44.4183 488 40 488C35.5817 488 32 491.582 32 496V504C32 508.418 35.5817 512 40 512C44.4183 512 48 508.418 48 504V496Z" fill="#2CB5FF"/>
<path d="M72 440C72 435.582 68.4183 432 64 432C59.5817 432 56 435.582 56 440V472C56 476.418 59.5817 480 64 480C68.4183 480 72 476.418 72 472V440Z" fill="#2CB5FF"/>
<path d="M72 496C72 491.582 68.4183 488 64 488C59.5817 488 56 491.582 56 496V504C56 508.418 59.5817 512 64 512C68.4183 512 72 508.418 72 504V496Z" fill="#2CB5FF"/>
<path d="M80 47.1121C79.2285 47.1091 78.4611 46.9987 77.72 46.7841L61.72 42.0401C59.6853 41.4375 57.9732 40.0513 56.9605 38.1864C55.9478 36.3216 55.7174 34.1308 56.32 32.0961C56.9226 30.0613 58.3088 28.3493 60.1736 27.3366C62.0385 26.3239 64.2293 26.0935 66.264 26.6961L82.264 31.4401C84.1081 31.9851 85.6943 33.1761 86.732 34.7951C87.7697 36.414 88.1895 38.3526 87.9146 40.2559C87.6396 42.1591 86.6883 43.8996 85.2348 45.1587C83.7814 46.4179 81.923 47.1113 80 47.1121ZM245.024 96.0001C244.252 96.0005 243.484 95.89 242.744 95.6721L107.72 55.6721C106.712 55.3737 105.774 54.8798 104.957 54.2186C104.14 53.5574 103.462 52.7418 102.961 51.8184C101.948 49.9536 101.717 47.7628 102.32 45.7281C102.923 43.6933 104.309 41.9813 106.174 40.9686C108.038 39.9559 110.229 39.7255 112.264 40.3281L247.296 80.3281C249.141 80.8732 250.727 82.0649 251.765 83.6847C252.803 85.3046 253.222 87.2441 252.946 89.1478C252.67 91.0516 251.717 92.7922 250.262 94.0507C248.807 95.3091 246.948 96.0012 245.024 96.0001Z" fill="#FFEFDE"/>
<path d="M176 246.856C176 260.112 172.416 264 168 264C163.584 264 160 260.112 160 246.856C160 233.6 163.584 216 168 216C172.416 216 176 233.6 176 246.856Z" fill="#EBA8A9"/>
<path d="M193.112 208C192.366 210.601 191.992 213.294 192 216C192 224.84 195.584 232 200 232C204.416 232 208 224.84 208 216C208.008 213.294 207.634 210.601 206.888 208H193.112ZM128 216C128 224.84 131.584 232 136 232C140.416 232 144 224.84 144 216C144.008 213.294 143.634 210.601 142.888 208H129.112C128.366 210.601 127.992 213.294 128 216Z" fill="#333940"/>
<path d="M282.415 106.599C287.545 101.47 285.914 91.5213 278.772 84.3794C271.63 77.2374 261.682 75.6064 256.552 80.7364C251.422 85.8663 253.053 95.8146 260.195 102.956C267.337 110.098 277.285 111.729 282.415 106.599Z" fill="#F6FAFD"/>
<path d="M203.922 156.249C206.499 153.672 205.681 148.675 202.094 145.088C198.508 141.502 193.511 140.684 190.933 143.261C188.356 145.839 189.174 150.836 192.761 154.422C196.347 158.009 201.344 158.827 203.922 156.249Z" fill="#F6FAFD"/>
<path d="M59.8303 372.221C62.4078 369.643 61.5897 364.646 58.0031 361.06C54.4166 357.473 49.4196 356.655 46.8422 359.233C44.2647 361.81 45.0827 366.807 48.6693 370.393C52.2559 373.98 57.2528 374.798 59.8303 372.221Z" fill="#F6FAFD"/>
<path d="M182.64 149C183.931 147.71 183.523 145.21 181.729 143.417C179.936 141.623 177.436 141.216 176.146 142.506C174.856 143.796 175.264 146.296 177.057 148.089C178.85 149.883 181.35 150.29 182.64 149Z" fill="#F6FAFD"/>
<path d="M214.626 189.013C215.916 187.722 215.508 185.223 213.715 183.429C211.922 181.636 209.422 181.228 208.132 182.519C206.841 183.809 207.249 186.309 209.042 188.102C210.836 189.895 213.335 190.303 214.626 189.013Z" fill="#F6FAFD"/>
<path d="M54.5343 380.984C55.8246 379.694 55.4168 377.194 53.6236 375.401C51.8303 373.607 49.3305 373.2 48.0402 374.49C46.7499 375.78 47.1577 378.28 48.951 380.073C50.7443 381.867 53.244 382.274 54.5343 380.984Z" fill="#F6FAFD"/>
<path d="M148 304.52V272C148 266.696 150.107 261.609 153.858 257.858C157.609 254.107 162.696 252 168 252C173.304 252 178.391 254.107 182.142 257.858C185.893 261.609 188 266.696 188 272V304.512C188.84 304.216 189.688 303.976 190.52 303.64C192.394 302.805 194.223 301.873 196 300.848V272C196 264.574 193.05 257.452 187.799 252.201C182.548 246.95 175.426 244 168 244C160.574 244 153.452 246.95 148.201 252.201C142.95 257.452 140 264.574 140 272V300.92C141.791 301.928 143.634 302.841 145.52 303.656C146.352 304 147.2 304.232 148 304.52Z" fill="#C5CED6"/>
<path d="M236 248C236 246.939 235.579 245.922 234.828 245.172C234.078 244.421 233.061 244 232 244C230.939 244 229.922 244.421 229.172 245.172C228.421 245.922 228 246.939 228 248C228.014 248.427 227.996 248.855 227.944 249.28C226.896 259.68 212.136 269.512 191.144 273.688C175.831 276.767 160.057 276.767 144.744 273.688C123.824 269.52 109.072 259.712 108 249.136C107.976 248.76 107.976 248.384 108 248.008C108 246.947 107.579 245.93 106.828 245.18C106.078 244.429 105.061 244.008 104 244.008C102.939 244.008 101.922 244.429 101.172 245.18C100.421 245.93 100 246.947 100 248.008C100 248.632 100 249.224 100.08 249.76V250.08C100.563 267.381 107.64 283.843 119.864 296.096C124.135 300.346 128.959 304.001 134.208 306.96C136.871 308.518 139.641 309.886 142.496 311.056C154.198 315.797 166.99 317.179 179.434 315.046C191.878 312.914 203.481 307.351 212.936 298.984C219.948 292.802 225.607 285.238 229.558 276.766C233.509 268.294 235.666 259.097 235.896 249.752V249.688C236 249.144 236 248.576 236 248ZM207.68 292.992C199.341 300.382 189.105 305.295 178.123 307.179C167.142 309.064 155.853 307.843 145.528 303.656C138.092 300.553 131.307 296.078 125.528 290.464C119.318 284.201 114.561 276.649 111.592 268.344C120.974 275.108 131.791 279.617 143.2 281.52C159.568 284.83 176.432 284.83 192.8 281.52C204.206 279.607 215.02 275.099 224.408 268.344C221.003 277.841 215.251 286.323 207.688 293L207.68 292.992Z" fill="#C5CED6"/>
<path d="M252 232C252 235.183 250.736 238.235 248.485 240.485C246.235 242.736 243.183 244 240 244H96C92.8174 244 89.7652 242.736 87.5147 240.485C85.2643 238.235 84 235.183 84 232V208H76V232C76 237.304 78.1071 242.391 81.8579 246.142C85.6086 249.893 90.6957 252 96 252H240C245.304 252 250.391 249.893 254.142 246.142C257.893 242.391 260 237.304 260 232V208H252V232Z" fill="#B9C3CC"/>
<path d="M256.008 216.008C260.426 216.008 264.008 210.635 264.008 204.008C264.008 197.38 260.426 192.008 256.008 192.008C251.59 192.008 248.008 197.38 248.008 204.008C248.008 210.635 251.59 216.008 256.008 216.008Z" fill="#636978"/>
<path d="M80.016 216.008C84.4343 216.008 88.016 210.635 88.016 204.008C88.016 197.38 84.4343 192.008 80.016 192.008C75.5977 192.008 72.016 197.38 72.016 204.008C72.016 210.635 75.5977 216.008 80.016 216.008Z" fill="#636978"/>
<path d="M80 208C76.52 208 73.6 204.648 72.488 200C72.1708 201.31 72.0071 202.652 72 204C72 210.632 75.584 216 80 216C84.416 216 88 210.632 88 204C87.9929 202.652 87.8292 201.31 87.512 200C86.4 204.656 83.496 208 80 208ZM256 208C252.528 208 249.6 204.648 248.496 200C248.172 201.309 248.006 202.652 248 204C248 210.632 251.584 216 256 216C260.416 216 264 210.632 264 204C263.993 202.652 263.829 201.31 263.512 200C262.4 204.656 259.488 208 256 208Z" fill="#555A66"/>
</g>
<defs>
<clipPath id="clip0_170_4657">
<rect width="512" height="512" fill="white"/>
</clipPath>
</defs>
</svg>
