<svg width="512" height="512" viewBox="0 0 512 512" fill="none" xmlns="http://www.w3.org/2000/svg">
<g clip-path="url(#clip0_170_4516)">
<path d="M265.751 130.824L107.482 289.092C105.16 291.418 102.402 293.264 99.3663 294.524C96.3301 295.783 93.0753 296.432 89.7882 296.432C86.5012 296.432 83.2464 295.783 80.2102 294.524C77.174 293.264 74.416 291.418 72.0941 289.092L35.4259 252.424C30.7265 247.731 28.0739 241.37 28.0471 234.729V157.252C28.0471 150.626 30.7576 144.226 35.4259 139.558L154.993 19.9906C164.781 10.2024 180.593 10.2024 190.381 19.9906L265.751 95.4353C275.539 105.224 275.539 121.035 265.751 130.824Z" fill="#C175FF"/>
<path d="M472.809 488.169C469.287 491.713 465.099 494.525 460.486 496.443C455.873 498.362 450.926 499.35 445.929 499.35C440.933 499.35 435.986 498.362 431.373 496.443C426.76 494.525 422.572 491.713 419.049 488.169L136.772 205.892L190.532 152.132L472.809 434.409C479.932 441.542 483.933 451.21 483.933 461.289C483.933 471.369 479.932 481.037 472.809 488.169Z" fill="#5E7599"/>
<path d="M190.532 152.169L472.809 434.447C477.233 438.872 480.497 444.321 482.309 450.309C484.122 456.298 484.428 462.642 483.201 468.777C481.973 474.913 479.25 480.65 475.273 485.481C471.295 490.311 466.187 494.085 460.401 496.467C463.282 489.531 464.037 481.895 462.569 474.53C461.101 467.164 457.476 460.401 452.156 455.1L169.879 172.823L190.532 152.169Z" fill="#435E88"/>
<path d="M190.344 20.0205L265.766 95.4351C275.554 105.223 275.554 121.035 265.766 130.823L107.482 289.092C104.372 292.21 100.494 294.453 96.2396 295.592C91.9852 296.732 87.5053 296.728 83.2527 295.582L174.908 12.7998V12.7095C180.743 13.2938 186.198 15.8735 190.351 20.013L190.344 20.0205Z" fill="#B244F1"/>
<path d="M38.3925 136.576L113.205 61.7637L223.985 172.536L149.165 247.349L38.3925 136.576Z" fill="#FFD80C"/>
<path d="M147.84 96.354L224.038 172.552L149.21 247.371L111.187 209.348L147.84 96.354Z" fill="#FFBE00"/>
<path d="M144.888 496.964C188.601 496.964 224.038 461.528 224.038 417.815C224.038 374.102 188.601 338.666 144.888 338.666C101.176 338.666 65.7393 374.102 65.7393 417.815C65.7393 461.528 101.176 496.964 144.888 496.964Z" fill="#E5E8EF"/>
<path d="M224.045 417.845C224.045 461.515 188.582 496.979 144.911 496.979C121.871 496.979 101.165 487.191 86.784 471.529L201.833 362.805C215.537 377.035 224.045 396.536 224.045 417.845Z" fill="#CDD4DF"/>
<path opacity="0.28" d="M114.82 387.258C123.003 379.074 125.697 368.5 120.836 363.64C115.976 358.779 105.402 361.473 97.2187 369.656C89.0355 377.839 86.342 388.413 91.2025 393.274C96.063 398.134 106.637 395.441 114.82 387.258Z" fill="white"/>
</g>
<defs>
<clipPath id="clip0_170_4516">
<rect width="512" height="512" fill="white"/>
</clipPath>
</defs>
</svg>
