<svg width="512" height="512" viewBox="0 0 512 512" fill="none" xmlns="http://www.w3.org/2000/svg">
<g clip-path="url(#clip0_170_4563)">
<path d="M208 98C208 92.4772 212.477 88 218 88H294C299.523 88 304 92.4772 304 98V158C304 163.523 299.523 168 294 168H218C212.477 168 208 163.523 208 158V98Z" fill="#FFD782"/>
<path d="M232 120C232 115.582 235.582 112 240 112V112C244.418 112 248 115.582 248 120V120C248 124.418 244.418 128 240 128V128C235.582 128 232 124.418 232 120V120ZM264 120C264 115.582 267.582 112 272 112V112C276.418 112 280 115.582 280 120V120C280 124.418 276.418 128 272 128V128C267.582 128 264 124.418 264 120V120ZM216 88C211.582 88 208 84.4183 208 80V80C208 73.6348 210.529 67.5303 215.029 63.0294C219.53 58.5286 225.635 56 232 56H256C260.243 56 264.313 54.3143 267.314 51.3137C270.314 48.3131 272 44.2435 272 40C272 35.7565 273.686 31.6869 276.686 28.6863C279.687 25.6857 283.757 24 288 24H294C299.523 24 304 28.4772 304 34V78C304 83.5228 299.523 88 294 88H216Z" fill="#394D5C"/>
<path d="M208 200H304V312H208V200Z" fill="#DD3E46"/>
<path d="M337.776 468.448L288 456L256 312H304L337.776 468.448Z" fill="#50B4F8"/>
<path d="M352 488H288V456L352 472V488Z" fill="#394D5C"/>
<path d="M208 312L187 368H136L126 408H224L256 312H208Z" fill="#50B4F8"/>
<path d="M120 432H104V368H136L120 432Z" fill="#394D5C"/>
<path d="M139.928 162.856L125.152 156.712L160.688 76.752L175.312 83.248L139.928 162.856ZM78.16 309.928L64.648 300.848L117.08 178.504L127.352 195.152L78.16 309.928Z" fill="#195C85"/>
<path d="M23.872 319.96L39.864 287.976L103.824 319.96L87.832 351.944L23.872 319.96Z" fill="#FCF05A"/>
<path d="M374.128 286.752L304 240V200L392.592 259.064C394.87 260.583 396.738 262.641 398.031 265.056C399.323 267.47 399.999 270.166 400 272.904C400.001 275.916 399.184 278.872 397.636 281.457C396.088 284.041 393.868 286.157 391.212 287.579C388.557 289 385.565 289.674 382.556 289.528C379.547 289.383 376.634 288.423 374.128 286.752Z" fill="#FFD782"/>
<path d="M392 456H488V472C488 476.243 486.314 480.313 483.314 483.314C480.313 486.314 476.243 488 472 488H408C403.757 488 399.687 486.314 396.686 483.314C393.686 480.313 392 476.243 392 472V456Z" fill="#AABECE"/>
<path d="M408 424H472C476.243 424 480.313 425.686 483.314 428.686C486.314 431.687 488 435.757 488 440V456H392V440C392 435.757 393.686 431.687 396.686 428.686C399.687 425.686 403.757 424 408 424Z" fill="#7D8D9C"/>
<path d="M464 432C461.878 432 459.843 431.157 458.343 429.657C456.843 428.157 456 426.122 456 424V408C456 405.878 455.157 403.843 453.657 402.343C452.157 400.843 450.122 400 448 400H400C397.878 400 395.843 399.157 394.343 397.657C392.843 396.157 392 394.122 392 392C392 389.878 392.843 387.843 394.343 386.343C395.843 384.843 397.878 384 400 384H448C454.365 384 460.47 386.529 464.971 391.029C469.471 395.53 472 401.635 472 408V424C472 426.122 471.157 428.157 469.657 429.657C468.157 431.157 466.122 432 464 432Z" fill="#DD3E46"/>
<path d="M52.984 63.4559L58.92 48.6079L138.872 80.5759L132.936 95.4239L52.984 63.4559ZM20.68 87.3199L27.304 72.7599L115.264 112.776L108.64 127.336L20.68 87.3199ZM19.984 182.936L27.92 169.048L83.904 201.032L75.968 214.92L19.984 182.936ZM19.768 222.776L28 209.064L67.984 233.04L59.76 246.752L19.768 222.776Z" fill="#32B1CC"/>
<path d="M208 232H128L112 168C112 163.757 113.686 159.687 116.686 156.686C119.687 153.686 123.757 152 128 152C132.243 152 136.313 153.686 139.314 156.686C142.314 159.687 144 163.757 144 168L152 200H208V232Z" fill="#FFD782"/>
</g>
<defs>
<clipPath id="clip0_170_4563">
<rect width="512" height="512" fill="white"/>
</clipPath>
</defs>
</svg>
