<svg width="512" height="512" viewBox="0 0 512 512" fill="none" xmlns="http://www.w3.org/2000/svg">
<g clip-path="url(#clip0_170_4422)">
<g clip-path="url(#clip1_170_4422)">
<path d="M0 362V150C0 67.2 67.2 0 150 0H362C444.8 0 512 67.2 512 150V362C512 444.8 444.8 512 362 512H150C67.2 512 0 444.8 0 362Z" fill="#007BEA"/>
<path d="M163.11 320H211.11V256H163.11V320ZM173.11 266H201.11V310H173.11V266ZM415.57 206.32L355.78 146.53C351.04 141.79 344.8 139.18 338.21 139.18C324.37 139.18 313.1 150.41 313.1 164.21V182H285.1V143C285.1 129.21 273.89 118 260.1 118H226.1C212.31 118 201.1 129.21 201.1 143V182H114.11C100.32 182 89.11 193.21 89.11 207V369C89.11 382.79 100.32 394 114.11 394H260.11C273.9 394 285.11 382.79 285.11 369V266H313.11V283.79C313.11 297.59 324.37 308.82 338.22 308.82C344.81 308.82 351.05 306.21 355.79 301.47L415.58 241.68C425.33 231.93 425.33 216.07 415.58 206.33L415.57 206.32ZM408.5 234.6L348.71 294.39C339.26 303.84 323.1 297.15 323.1 283.78V255.99H275.1V368.99C275.1 377.27 268.38 383.99 260.1 383.99H114.11C105.83 383.99 99.11 377.27 99.11 368.99V207C99.11 198.72 105.83 192 114.11 192H211.11V143C211.11 134.72 217.83 128 226.11 128H260.11C268.39 128 275.11 134.72 275.11 143V192H323.11V164.21C323.11 150.85 339.27 144.15 348.72 153.6L408.51 213.39C414.37 219.25 414.37 228.75 408.51 234.6H408.5Z" fill="white"/>
</g>
</g>
<defs>
<clipPath id="clip0_170_4422">
<rect width="512" height="512" fill="white"/>
</clipPath>
<clipPath id="clip1_170_4422">
<rect width="512" height="512" fill="white"/>
</clipPath>
</defs>
</svg>
