<svg width="512" height="512" viewBox="0 0 512 512" fill="none" xmlns="http://www.w3.org/2000/svg">
<g clip-path="url(#clip0_170_4469)">
<g clip-path="url(#clip1_170_4469)">
<path d="M256 512C391.31 512 501 402.31 501 267C501 131.69 391.31 22 256 22C120.69 22 11 131.69 11 267C11 402.31 120.69 512 256 512Z" fill="#FE9738"/>
<path d="M256 467C366.457 467 456 377.457 456 267C456 156.543 366.457 67 256 67C145.543 67 56 156.543 56 267C56 377.457 145.543 467 256 467Z" fill="#006E66"/>
<path d="M81 267C81 160.742 163.868 73.854 268.5 67.4C264.364 67.144 260.199 67 256 67C145.543 67 56 156.543 56 267C56 377.457 145.543 467 256 467C260.199 467 264.364 466.855 268.5 466.6C163.868 460.146 81 373.258 81 267Z" fill="#00525A"/>
<path d="M269.875 445.701C269.351 441.397 272.43 437.481 276.732 436.957C281.036 436.444 284.953 439.513 285.465 443.816C285.716 445.884 285.135 447.966 283.851 449.606C282.566 451.245 280.684 452.308 278.616 452.56C278.3 452.592 277.982 452.61 277.664 452.612C273.748 452.612 270.355 449.69 269.875 445.701ZM189.801 441.848C187.854 441.109 186.281 439.627 185.427 437.728C184.572 435.829 184.508 433.669 185.246 431.722C186.774 427.67 191.309 425.629 195.371 427.157C199.424 428.696 201.466 433.23 199.926 437.283C199.364 438.775 198.36 440.06 197.049 440.968C195.737 441.875 194.181 442.361 192.586 442.361C191.635 442.358 190.691 442.184 189.801 441.848ZM351.309 418.81C348.838 415.251 349.728 410.349 353.299 407.889C356.859 405.417 361.76 406.308 364.22 409.879C366.692 413.439 365.801 418.339 362.241 420.8C358.681 423.261 362.241 420.8 362.231 420.8C361.384 421.389 360.429 421.806 359.421 422.025C358.413 422.244 357.371 422.262 356.356 422.077C355.341 421.892 354.373 421.508 353.506 420.947C352.64 420.387 351.893 419.66 351.309 418.81ZM116.188 391.042C113.308 387.807 113.601 382.843 116.837 379.963C117.608 379.278 118.507 378.752 119.482 378.414C120.457 378.077 121.489 377.935 122.518 377.996C123.548 378.057 124.556 378.321 125.483 378.771C126.411 379.222 127.241 379.851 127.926 380.623C130.806 383.858 130.512 388.822 127.267 391.701C125.836 392.981 123.983 393.69 122.062 393.691C120.951 393.691 119.853 393.454 118.84 392.998C117.828 392.541 116.924 391.874 116.188 391.042ZM410.942 357.147C410.029 356.668 409.219 356.015 408.559 355.223C407.898 354.431 407.401 353.517 407.094 352.532C406.788 351.548 406.679 350.513 406.773 349.486C406.867 348.459 407.163 347.461 407.643 346.549C408.123 345.636 408.778 344.826 409.57 344.165C410.363 343.505 411.278 343.008 412.263 342.702C413.248 342.395 414.284 342.286 415.311 342.38C416.338 342.474 417.337 342.77 418.25 343.25C422.083 345.262 423.559 350.015 421.548 353.859C420.88 355.126 419.878 356.187 418.651 356.927C417.424 357.667 416.018 358.058 414.585 358.057C413.314 358.058 412.063 357.745 410.942 357.147ZM74.5131 311.891C74.0163 309.869 74.3429 307.733 75.421 305.951C76.4991 304.17 78.2404 302.89 80.2621 302.393C84.4711 301.346 88.7331 303.921 89.7701 308.13C90.8071 312.34 88.2311 316.602 84.0211 317.638C83.4048 317.791 82.7721 317.869 82.1371 317.869C80.3816 317.865 78.6776 317.275 77.2962 316.192C75.9147 315.109 74.9351 313.595 74.5131 311.891ZM427.204 267V266.644C427.193 262.308 430.701 258.79 435.037 258.779C439.371 258.769 442.9 262.277 442.911 266.612V266.999C442.91 269.081 442.083 271.079 440.61 272.551C439.137 274.024 437.14 274.851 435.057 274.852C432.975 274.851 430.978 274.024 429.505 272.551C428.033 271.079 427.205 269.082 427.204 267ZM80.1991 231.952C75.9781 230.927 73.4021 226.676 74.4281 222.455C75.4541 218.245 79.7061 215.67 83.9261 216.696C88.1361 217.721 90.7111 221.973 89.6851 226.193C89.2668 227.9 88.2887 229.417 86.9069 230.503C85.5251 231.589 83.8194 232.18 82.0621 232.183C81.4339 232.184 80.808 232.106 80.1991 231.952ZM407.486 187.146C407.003 186.235 406.705 185.238 406.608 184.212C406.511 183.185 406.617 182.15 406.921 181.165C407.224 180.18 407.719 179.264 408.377 178.47C409.035 177.676 409.842 177.02 410.754 176.539C411.666 176.056 412.663 175.757 413.69 175.66C414.717 175.563 415.754 175.669 416.74 175.972C417.725 176.276 418.642 176.771 419.437 177.428C420.231 178.086 420.889 178.894 421.371 179.806C423.393 183.639 421.927 188.393 418.094 190.424C416.965 191.021 415.707 191.334 414.43 191.335C413 191.337 411.598 190.948 410.374 190.209C409.149 189.471 408.151 188.411 407.486 187.146ZM116.617 154.309C115.845 153.626 115.215 152.797 114.763 151.871C114.312 150.944 114.047 149.938 113.985 148.909C113.923 147.88 114.064 146.849 114.401 145.874C114.737 144.9 115.263 144.002 115.947 143.231C116.628 142.457 117.456 141.825 118.382 141.372C119.308 140.918 120.314 140.652 121.343 140.587C122.372 140.523 123.403 140.663 124.378 140.998C125.353 141.333 126.253 141.857 127.025 142.54C130.271 145.419 130.586 150.383 127.707 153.629C126.971 154.464 126.066 155.132 125.051 155.589C124.036 156.046 122.935 156.281 121.822 156.278C119.905 156.279 118.054 155.579 116.617 154.309ZM353.005 125.91H353.016C349.446 123.45 348.534 118.56 350.995 114.989C353.456 111.419 358.347 110.517 361.927 112.979C362.776 113.564 363.502 114.31 364.062 115.176C364.623 116.041 365.008 117.009 365.194 118.023C365.381 119.037 365.366 120.078 365.151 121.086C364.935 122.095 364.523 123.051 363.938 123.9C363.215 124.95 362.247 125.809 361.118 126.402C359.989 126.994 358.732 127.304 357.457 127.303C355.866 127.304 354.312 126.818 353.005 125.91ZM184.921 102.413C183.371 98.3608 185.414 93.8268 189.466 92.2768C191.413 91.5374 193.574 91.6005 195.474 92.4524C197.374 93.3043 198.859 94.8754 199.602 96.8208C200.341 98.7678 200.278 100.929 199.426 102.829C198.574 104.729 197.003 106.214 195.058 106.958C193.111 107.698 190.95 107.634 189.049 106.782C187.149 105.93 185.664 104.359 184.921 102.413ZM276.387 96.9988C275.362 96.8778 274.37 96.5559 273.47 96.0514C272.569 95.547 271.776 94.8699 271.137 94.0589C270.499 93.2479 270.026 92.3189 269.746 91.325C269.467 90.3312 269.386 89.292 269.508 88.2668C270.021 83.9628 273.926 80.8848 278.231 81.3988C280.299 81.6463 282.184 82.7034 283.473 84.3383C284.762 85.9732 285.351 88.0526 285.11 90.1208C284.628 94.1098 281.247 97.0538 277.32 97.0538C277.008 97.051 276.697 97.0326 276.387 96.9988Z" fill="white"/>
<path d="M256 413.849C337.154 413.849 402.942 348.102 402.942 267C402.942 185.897 337.154 120.151 256 120.151C174.846 120.151 109.058 185.897 109.058 267C109.058 348.102 174.846 413.849 256 413.849Z" fill="#006E66"/>
<path d="M256 246.058V120.15C240.589 120.139 225.273 122.562 210.617 127.328L249.53 247.088C251.619 246.407 253.802 246.059 256 246.058ZM243.703 250.074L169.701 148.221C157.244 157.286 146.278 168.239 137.198 180.685L239.074 254.703C240.366 252.928 241.928 251.366 243.703 250.074ZM116.256 221.595C111.477 236.256 109.048 251.58 109.058 267H235.058C235.058 264.74 235.426 262.569 236.088 260.53L116.256 221.595ZM236.088 273.47L116.256 312.406C121.041 327.059 128.108 340.865 137.198 353.315L239.074 279.297C237.777 277.524 236.77 275.558 236.088 273.47ZM243.703 283.926L169.702 385.778C182.158 394.849 195.966 401.9 210.617 406.673L249.53 286.913C247.442 286.23 245.476 285.222 243.703 283.926ZM262.47 286.912C260.381 287.593 258.197 287.941 256 287.942V413.848C271.832 413.848 287.083 411.323 301.383 406.671L262.47 286.912ZM272.926 279.297C271.634 281.072 270.072 282.634 268.297 283.926L342.298 385.778C354.755 376.713 365.721 365.76 374.802 353.315L272.926 279.297ZM276.942 267C276.942 269.26 276.574 271.431 275.912 273.47L395.744 312.406C400.523 297.745 402.952 282.421 402.942 267.001H276.942V267ZM275.912 260.53L395.744 221.594C390.959 206.941 383.891 193.135 374.802 180.685L272.926 254.703C274.222 256.476 275.23 258.442 275.912 260.53ZM268.297 250.074L342.299 148.221C329.843 139.15 316.035 132.099 301.383 127.327L262.47 247.087C264.557 247.77 266.524 248.778 268.297 250.074Z" fill="#E3F3FF"/>
<path d="M256 287.942C267.566 287.942 276.942 278.566 276.942 267C276.942 255.434 267.566 246.058 256 246.058C244.434 246.058 235.058 255.434 235.058 267C235.058 278.566 244.434 287.942 256 287.942Z" fill="#FE0364"/>
<path d="M256 274.5C260.142 274.5 263.5 271.142 263.5 267C263.5 262.858 260.142 259.5 256 259.5C251.858 259.5 248.5 262.858 248.5 267C248.5 271.142 251.858 274.5 256 274.5Z" fill="#FD3581"/>
<path d="M310.632 191.807C318.513 197.551 325.451 204.488 331.194 212.37L343.895 203.141C337.182 193.929 329.073 185.82 319.86 179.107L310.632 191.807ZM192.141 179.105L201.37 191.806C209.252 186.058 217.991 181.589 227.266 178.565L222.412 163.627C211.564 167.165 201.341 172.393 192.123 179.118L192.141 179.105ZM256 158.309V174.016C265.758 174.01 275.455 175.546 284.734 178.566L289.587 163.628C278.742 160.096 267.406 158.301 256 158.309ZM180.807 212.369L168.106 203.14C161.387 212.354 156.164 222.571 152.628 233.412L167.567 238.267C170.59 228.992 175.059 220.251 180.807 212.369ZM201.378 342.201C193.493 336.456 186.552 329.516 180.807 321.631L168.106 330.86C174.819 340.073 182.928 348.183 192.141 354.896L201.369 342.195L201.378 342.201ZM256 359.985C246.242 359.992 236.545 358.456 227.266 355.435L222.412 370.373C233.258 373.904 244.594 375.699 256 375.691V359.985ZM344.434 238.267C347.455 247.545 348.991 257.243 348.984 267H364.691C364.691 255.282 362.82 243.995 359.373 233.412L344.434 238.267ZM167.566 295.733C164.545 286.455 163.01 276.758 163.016 267H147.31C147.31 278.718 149.181 290.005 152.628 300.588L167.566 295.733ZM359.372 300.588L344.433 295.734C341.409 305.009 336.94 313.749 331.193 321.631L343.894 330.86C350.613 321.646 355.836 311.43 359.372 300.588ZM319.86 354.895L310.631 342.194C302.749 347.942 294.009 352.411 284.734 355.436L289.587 370.374C300.429 366.838 310.645 361.614 319.86 354.895Z" fill="#FE0364"/>
<path d="M227.266 178.565C236.545 175.545 246.242 174.009 256 174.015V158.308C244.594 158.301 233.258 160.096 222.412 163.626L227.266 178.565ZM180.807 212.369C186.55 204.487 193.488 197.55 201.37 191.806L192.141 179.105C182.928 185.818 174.819 193.927 168.106 203.139L180.807 212.369ZM167.566 238.267L152.627 233.412C149.097 244.258 147.303 255.594 147.31 267H163.017C163.017 256.976 164.617 247.319 167.566 238.267ZM168.105 330.859L180.806 321.63C175.058 313.748 170.589 305.008 167.566 295.733L152.627 300.587C156.163 311.429 161.386 321.645 168.105 330.859ZM227.266 355.435C217.991 352.411 209.252 347.942 201.369 342.195L192.141 354.896C201.355 361.614 211.571 366.838 222.412 370.373L227.266 355.435ZM284.734 355.435C275.456 358.456 265.758 359.992 256 359.986V375.692C267.718 375.692 279.006 373.821 289.588 370.374L284.734 355.435ZM331.193 321.631C325.45 329.513 318.512 336.45 310.631 342.194L319.86 354.895C329.073 348.182 337.182 340.073 343.894 330.86L331.193 321.631ZM344.434 295.733L359.373 300.587C362.903 289.741 364.698 278.405 364.69 266.999H348.983C348.983 277.024 347.383 286.681 344.434 295.733ZM343.895 203.14L331.194 212.369C336.942 220.252 341.411 228.992 344.434 238.267L359.373 233.412C355.837 222.571 350.613 212.355 343.895 203.14ZM284.734 178.565C294.009 181.59 302.748 186.059 310.631 191.806L319.859 179.105C310.645 172.386 300.429 167.163 289.587 163.626L284.734 178.565Z" fill="#008B81"/>
<path d="M206.108 113.328C189.977 118.579 174.774 126.341 161.061 136.328L170.289 149.03L170.286 149.033C182.659 140.022 196.374 133.018 210.927 128.278L206.073 113.34C206.085 113.337 206.097 113.332 206.108 113.328ZM125.318 172.027C115.313 185.728 107.534 200.923 102.268 217.05L117.206 221.904C121.958 207.35 128.978 193.638 138.006 181.273L125.305 172.044L125.318 172.027ZM394.793 312.096V312.095C390.041 326.649 383.021 340.362 373.992 352.727L386.693 361.956V361.958C396.693 348.261 404.468 333.072 409.731 316.951L394.793 312.096ZM350.94 397.67L341.711 384.969C329.338 393.979 315.622 400.983 301.068 405.723L301.074 405.721L305.928 420.659C322.046 415.408 337.237 407.65 350.94 397.67ZM110.058 267H94.3511C94.3511 284.427 97.1371 301.213 102.269 316.95L117.207 312.096C112.46 297.535 110.048 282.315 110.058 267ZM394.793 221.904C399.54 236.465 401.953 251.685 401.942 267H417.649C417.649 249.573 414.863 232.787 409.731 217.05L394.793 221.904ZM410.578 314.291C410.036 314.667 410.181 315.553 409.979 316.188C410.182 315.557 410.383 314.926 410.578 314.291ZM170.29 384.969C157.918 375.966 147.026 365.088 138.008 352.727L125.307 361.956C135.296 375.648 147.359 387.698 161.062 397.672L170.29 384.969ZM301.073 128.278L305.927 113.34L305.928 113.339C289.804 108.097 272.955 105.432 256 105.443V121.15C271.306 121.14 286.517 123.545 301.073 128.278ZM341.711 149.031C354.083 158.034 364.975 168.912 373.993 181.273L386.694 172.044C376.705 158.351 364.642 146.301 350.939 136.327L341.711 149.031ZM210.92 405.719L210.927 405.721L206.073 420.659C221.805 425.777 238.582 428.555 256 428.555V412.849C240.692 412.859 225.478 410.453 210.92 405.719ZM409.45 216.188C409.156 216.129 409.635 216.761 409.73 217.048C409.637 216.762 409.546 216.474 409.45 216.188Z" fill="#FE0364"/>
<path d="M210.927 128.279C225.483 123.546 240.694 121.14 256 121.15V105.443C239.046 105.432 222.196 108.097 206.073 113.34L210.927 128.279ZM125.306 172.045L138.008 181.274C147.026 168.913 157.917 158.034 170.289 149.031L161.061 136.329C147.358 146.302 135.294 158.352 125.306 172.045ZM138.008 352.727C128.979 340.362 121.959 326.65 117.207 312.096L102.269 316.95C102.364 317.237 102.456 317.526 102.551 317.814C102.704 318.28 102.86 318.743 103.016 319.205C108.302 334.638 115.87 349.018 125.307 361.955L138.008 352.727ZM210.927 405.721C196.375 400.981 182.662 393.978 170.29 384.969L161.061 397.671C174.764 407.651 189.954 415.408 206.073 420.658L210.927 405.721ZM301.073 405.721C286.517 410.453 271.306 412.859 256 412.849V428.555C273.418 428.555 290.195 425.778 305.927 420.659L301.073 405.721ZM386.693 361.955L373.992 352.726C364.974 365.086 354.082 375.964 341.711 384.968L350.94 397.669C364.643 387.696 376.706 375.647 386.693 361.955ZM394.793 312.096L409.731 316.95L409.978 316.191C410.181 315.556 410.382 314.921 410.578 314.291C415.277 298.967 417.66 283.028 417.649 267H401.942C401.942 282.733 399.426 297.888 394.793 312.096ZM301.073 128.279C315.626 133.017 329.34 140.021 341.711 149.031L350.94 136.328C337.236 126.349 322.046 118.591 305.927 113.341L301.073 128.279ZM373.992 181.273C383.021 193.638 390.041 207.35 394.793 221.904L409.731 217.05C409.636 216.763 409.545 216.475 409.451 216.188C409.297 215.721 409.14 215.256 408.984 214.793C403.739 199.507 396.225 185.096 386.694 172.045L373.992 181.273ZM117.207 221.904L102.269 217.05C97.1371 232.787 94.3511 249.573 94.3511 267H110.058C110.048 251.685 112.461 236.465 117.207 221.904Z" fill="#008B81"/>
<path d="M418.309 218.207H408.518C408.319 218.207 408.116 218.158 407.922 218.077V279.135C407.922 280.591 408.5 281.988 409.53 283.017C410.559 284.047 411.956 284.625 413.412 284.625C414.868 284.625 416.264 284.047 417.294 283.017C418.323 281.988 418.902 280.591 418.902 279.135V218.078C418.715 218.16 418.513 218.203 418.309 218.207Z" fill="#98BCE5"/>
<path d="M404.648 108.825H422.175C422.599 108.825 422.994 108.933 423.351 109.111V75.103H403.472V109.112C403.836 108.926 404.239 108.828 404.648 108.825Z" fill="#015A9A"/>
<path d="M404.648 107.825H413.412V75.103H403.473V108.038C403.85 107.902 404.247 107.83 404.648 107.825Z" fill="#015A9A"/>
<path d="M422.176 204.193H404.649C403.954 204.193 403.287 203.92 402.793 203.432L405.843 217.063C406.106 218.242 407.31 219.206 408.519 219.206H418.31C419.518 219.206 420.722 218.241 420.986 217.063L424.034 203.432C423.538 203.92 422.871 204.193 422.176 204.193Z" fill="#E3F3FF"/>
<path d="M413.496 217.064L410.616 204.194H404.648C403.953 204.194 403.286 203.921 402.792 203.433L405.842 217.064C406.105 218.243 407.309 219.207 408.518 219.207H416.172C414.963 219.207 413.759 218.242 413.496 217.064Z" fill="#B4DBFF"/>
<path d="M444.225 16.0899L428.909 0.774932C428.664 0.528844 428.372 0.333584 428.052 0.200351C427.731 0.0671185 427.387 -0.00146484 427.039 -0.00146484C426.692 -0.00146484 426.348 0.0671185 426.027 0.200351C425.706 0.333584 425.415 0.528844 425.17 0.774932L413.412 12.5329L401.652 0.774932C401.407 0.529233 401.115 0.334311 400.795 0.201318C400.474 0.0683238 400.13 -0.0001313 399.783 -0.0001313C399.436 -0.0001313 399.092 0.0683238 398.771 0.201318C398.451 0.334311 398.159 0.529233 397.914 0.774932L382.599 16.0899C382.104 16.5863 381.825 17.2587 381.825 17.9599V41.0249C381.825 41.5249 381.967 42.0139 382.233 42.4369L403.473 76.1019H423.352L444.592 42.4369C444.859 42.0139 445 41.5249 445 41.0249V17.9599C445 17.2589 444.721 16.5869 444.225 16.0899Z" fill="#0078C8"/>
<path d="M393.232 42.4381C392.965 42.0154 392.824 41.5258 392.824 41.0261V17.9601C392.824 17.2591 393.103 16.5871 393.598 16.0901L405.283 4.40606L401.652 0.775063C401.407 0.529365 401.115 0.334443 400.795 0.201449C400.474 0.0684551 400.13 0 399.783 0C399.436 0 399.092 0.0684551 398.771 0.201449C398.451 0.334443 398.159 0.529365 397.914 0.775063L382.599 16.0901C382.104 16.5864 381.825 17.2589 381.825 17.9601V41.0251C381.825 41.5251 381.967 42.0141 382.233 42.4371L403.473 76.1021H413.412V74.4211L393.232 42.4381Z" fill="#0078C8"/>
<path d="M400.988 111.485C400.991 110.515 401.377 109.585 402.063 108.9C402.749 108.214 403.678 107.827 404.648 107.825H422.175C423.145 107.827 424.074 108.214 424.76 108.9C425.446 109.585 425.832 110.515 425.835 111.485V201.532C425.833 202.502 425.446 203.431 424.76 204.117C424.075 204.803 423.145 205.19 422.175 205.193H404.648C403.678 205.19 402.749 204.803 402.063 204.117C401.377 203.431 400.991 202.502 400.988 201.532V111.485Z" fill="#B4DBFF"/>
<path d="M411.977 201.532V111.485C411.98 110.515 412.366 109.585 413.052 108.9C413.738 108.214 414.667 107.827 415.637 107.825H404.649C403.679 107.827 402.75 108.214 402.064 108.9C401.378 109.585 400.992 110.515 400.989 111.485V201.532C400.991 202.502 401.378 203.431 402.064 204.117C402.749 204.803 403.679 205.19 404.649 205.193H415.637C414.667 205.19 413.737 204.803 413.052 204.117C412.366 203.431 411.979 202.502 411.977 201.532Z" fill="#98BCE5"/>
<path d="M423.352 76.1029L444.592 42.4379C444.859 42.0149 445 41.5259 445 41.0259V17.9599C445 17.2589 444.721 16.5869 444.225 16.0899L428.909 0.774932C428.664 0.528844 428.373 0.333584 428.052 0.200351C427.731 0.0671185 427.387 -0.00146484 427.04 -0.00146484C426.692 -0.00146484 426.348 0.0671185 426.027 0.200351C425.707 0.333584 425.415 0.528844 425.17 0.774932L413.412 12.5329V76.1019L423.352 76.1029Z" fill="#0078C8"/>
<path d="M400.988 133H425.836V145H400.988V133ZM400.988 155H425.836V167H400.988V155ZM400.988 177H425.836V189H400.988V177Z" fill="#E3F3FF"/>
<path d="M400.988 133H411.976V145H400.988V133ZM400.988 155H411.976V167H400.988V155ZM400.988 177H411.976V189H400.988V177Z" fill="#B4DBFF"/>
<path d="M469.484 298.582H459.693C459.494 298.582 459.291 298.533 459.097 298.452V359.51C459.097 360.966 459.675 362.363 460.705 363.392C461.735 364.422 463.131 365 464.587 365C466.043 365 467.439 364.422 468.469 363.392C469.499 362.363 470.077 360.966 470.077 359.51V298.453C469.885 298.533 469.684 298.582 469.484 298.582Z" fill="#98BCE5"/>
<path d="M455.824 189.2H473.351C473.775 189.2 474.17 189.308 474.527 189.486V155.477H454.648V189.486C455.012 189.301 455.415 189.203 455.824 189.2Z" fill="#FD3581"/>
<path d="M455.824 188.2H464.588V155.477H454.649V188.412C455.026 188.277 455.423 188.205 455.824 188.2Z" fill="#FE0364"/>
<path d="M473.352 284.568H455.825C455.13 284.568 454.463 284.295 453.969 283.807L457.019 297.438C457.282 298.617 458.486 299.581 459.695 299.581H469.486C470.694 299.581 471.898 298.616 472.162 297.438L475.21 283.807C474.714 284.294 474.047 284.568 473.352 284.568Z" fill="#E3F3FF"/>
<path d="M464.672 297.439L461.792 284.569H455.824C455.129 284.569 454.463 284.296 453.968 283.808L457.018 297.439C457.281 298.618 458.485 299.582 459.694 299.582H467.348C466.139 299.582 464.935 298.617 464.672 297.439Z" fill="#B4DBFF"/>
<path d="M495.4 96.4649L480.085 81.1499C479.84 80.9038 479.548 80.7086 479.228 80.5753C478.907 80.4421 478.563 80.3735 478.215 80.3735C477.868 80.3735 477.524 80.4421 477.203 80.5753C476.882 80.7086 476.591 80.9038 476.346 81.1499L464.588 92.9079L452.828 81.1499C452.583 80.9042 452.291 80.7093 451.971 80.5763C451.65 80.4433 451.306 80.3749 450.959 80.3749C450.612 80.3749 450.268 80.4433 449.947 80.5763C449.627 80.7093 449.335 80.9042 449.09 81.1499L433.775 96.4639C433.28 96.9603 433.001 97.6327 433.001 98.3339V121.4C433.001 121.9 433.143 122.389 433.409 122.812L454.649 156.477H474.528L495.768 122.812C496.035 122.389 496.176 121.9 496.176 121.4V98.3349C496.176 97.6339 495.897 96.9619 495.4 96.4649Z" fill="#FD3581"/>
<path d="M444.408 122.813C444.142 122.39 444 121.9 444 121.4V98.335C444 97.634 444.279 96.962 444.774 96.465L456.459 84.782L452.828 81.151C452.583 80.9053 452.291 80.7104 451.971 80.5774C451.65 80.4444 451.306 80.376 450.959 80.376C450.612 80.376 450.268 80.4444 449.947 80.5774C449.627 80.7104 449.335 80.9053 449.09 81.151L433.775 96.465C433.28 96.9614 433.001 97.6339 433.001 98.335V121.4C433.001 121.9 433.143 122.389 433.409 122.812L454.649 156.477H464.588V154.796L444.408 122.813Z" fill="#FD3581"/>
<path d="M452.164 191.86C452.167 190.89 452.553 189.96 453.239 189.275C453.925 188.589 454.854 188.202 455.824 188.2H473.351C474.321 188.202 475.25 188.589 475.936 189.275C476.622 189.96 477.008 190.89 477.011 191.86V281.907C477.009 282.877 476.622 283.806 475.937 284.492C475.251 285.178 474.321 285.565 473.351 285.568H455.824C454.854 285.565 453.924 285.178 453.239 284.492C452.553 283.806 452.166 282.877 452.164 281.907V191.86Z" fill="#B4DBFF"/>
<path d="M463.152 281.907V191.86C463.155 190.89 463.541 189.96 464.227 189.275C464.913 188.589 465.842 188.202 466.812 188.2H455.824C454.854 188.202 453.925 188.589 453.239 189.275C452.553 189.96 452.167 190.89 452.164 191.86V281.907C452.166 282.877 452.553 283.806 453.239 284.492C453.924 285.178 454.854 285.565 455.824 285.568H466.812C465.842 285.565 464.913 285.178 464.227 284.492C463.541 283.806 463.155 282.877 463.152 281.907Z" fill="#98BCE5"/>
<path d="M474.527 156.477L495.767 122.812C496.034 122.389 496.175 121.9 496.175 121.4V98.3349C496.175 97.6339 495.896 96.9619 495.4 96.4649L480.085 81.1499C479.84 80.9038 479.548 80.7086 479.228 80.5753C478.907 80.4421 478.563 80.3735 478.215 80.3735C477.868 80.3735 477.524 80.4421 477.203 80.5753C476.882 80.7086 476.591 80.9038 476.346 81.1499L464.588 92.9079V156.477H474.527Z" fill="#FE5694"/>
<path d="M452.164 213.375H477.012V225.375H452.164V213.375ZM452.164 235.375H477.012V247.375H452.164V235.375ZM452.164 257.375H477.012V269.375H452.164V257.375Z" fill="#E3F3FF"/>
<path d="M452.164 213.375H463.152V225.375H452.164V213.375ZM452.164 235.375H463.152V247.375H452.164V235.375ZM452.164 257.375H463.152V269.375H452.164V257.375Z" fill="#B4DBFF"/>
<path d="M62.3091 265.207H52.5181C52.3191 265.207 52.1161 265.158 51.9221 265.077V326.135C51.9221 327.591 52.5005 328.988 53.5301 330.017C54.5597 331.047 55.9561 331.625 57.4121 331.625C58.8682 331.625 60.2646 331.047 61.2941 330.017C62.3237 328.988 62.9021 327.591 62.9021 326.135V265.078C62.7148 265.16 62.5133 265.203 62.3091 265.207Z" fill="#98BCE5"/>
<path d="M48.6479 155.825H66.1749C66.5989 155.825 66.9939 155.933 67.3509 156.111V122.102H47.4729V156.111C47.837 155.926 48.2393 155.828 48.6479 155.825Z" fill="#FD3581"/>
<path d="M48.6479 154.825H57.4119V122.102H47.4729V155.037C47.8501 154.902 48.2472 154.83 48.6479 154.825Z" fill="#FE0364"/>
<path d="M66.176 251.193H48.648C47.9533 251.193 47.2865 250.92 46.792 250.432L49.842 264.063C50.105 265.242 51.309 266.206 52.518 266.206H62.309C63.517 266.206 64.721 265.241 64.985 264.063L68.033 250.432C67.553 250.902 66.898 251.193 66.176 251.193Z" fill="#E3F3FF"/>
<path d="M57.496 264.064L54.616 251.194H48.648C47.9533 251.194 47.2865 250.921 46.792 250.433L49.842 264.064C50.105 265.243 51.309 266.207 52.518 266.207H60.172C58.963 266.207 57.759 265.242 57.496 264.064Z" fill="#B4DBFF"/>
<path d="M88.2249 63.0899L72.9089 47.7749C72.6638 47.5288 72.3724 47.3336 72.0516 47.2004C71.7308 47.0671 71.3868 46.9985 71.0394 46.9985C70.6921 46.9985 70.3481 47.0671 70.0273 47.2004C69.7065 47.3336 69.4151 47.5288 69.1699 47.7749L57.4119 59.5329L45.652 47.7749C45.4067 47.5292 45.1153 47.3343 44.7946 47.2013C44.4739 47.0683 44.1301 46.9999 43.783 46.9999C43.4358 46.9999 43.092 47.0683 42.7713 47.2013C42.4506 47.3343 42.1592 47.5292 41.914 47.7749L26.599 63.0899C26.1037 63.5863 25.8254 64.2587 25.825 64.9599V88.0249C25.825 88.5249 25.967 89.0139 26.233 89.4369L47.4729 123.102H67.3519L88.592 89.4369C88.8584 89.0141 88.9998 88.5247 89 88.0249V64.9599C89 64.2589 88.7209 63.5869 88.2249 63.0899Z" fill="#FD3581"/>
<path d="M37.2319 89.4381C36.9652 89.0154 36.8237 88.5258 36.824 88.0261V64.9601C36.824 64.2591 37.1029 63.5871 37.5979 63.0901L49.283 51.4061L45.652 47.7751C45.4067 47.5294 45.1153 47.3344 44.7946 47.2015C44.4739 47.0685 44.1301 47 43.783 47C43.4358 47 43.092 47.0685 42.7713 47.2015C42.4506 47.3344 42.1592 47.5294 41.914 47.7751L26.599 63.0901C26.1037 63.5865 25.8254 64.2589 25.825 64.9601V88.0251C25.825 88.5251 25.967 89.0141 26.233 89.4371L47.4729 123.102H57.4119V121.421L37.2319 89.4381Z" fill="#FD3581"/>
<path d="M44.988 158.485C44.9907 157.515 45.3771 156.585 46.0629 155.9C46.7488 155.214 47.6782 154.827 48.648 154.825H66.175C67.1449 154.827 68.0743 155.214 68.7601 155.9C69.4459 156.585 69.8324 157.515 69.835 158.485V248.532C69.8327 249.502 69.4463 250.431 68.7605 251.117C68.0746 251.803 67.1451 252.19 66.175 252.193H48.648C47.6781 252.19 46.7487 251.803 46.0629 251.117C45.3771 250.431 44.9907 249.502 44.988 248.532V158.485Z" fill="#B4DBFF"/>
<path d="M55.977 248.532V158.485C55.9797 157.515 56.3661 156.585 57.0519 155.9C57.7378 155.214 58.6672 154.827 59.637 154.825H48.648C47.6782 154.827 46.7488 155.214 46.0629 155.9C45.3771 156.585 44.9907 157.515 44.988 158.485V248.532C44.9904 249.502 45.3768 250.431 46.0626 251.117C46.7484 251.803 47.678 252.19 48.648 252.193H59.636C58.6662 252.19 57.7369 251.803 57.0512 251.117C56.3656 250.431 55.9794 249.502 55.977 248.532Z" fill="#98BCE5"/>
<path d="M67.3521 123.103L88.5921 89.4379C88.8581 89.0149 89.0001 88.5249 89.0001 88.0249V64.9599C89.0001 64.2589 88.7211 63.5869 88.2251 63.0899L72.9091 47.7749C72.6639 47.5288 72.3726 47.3336 72.0518 47.2004C71.7309 47.0671 71.387 46.9985 71.0396 46.9985C70.6922 46.9985 70.3483 47.0671 70.0275 47.2004C69.7066 47.3336 69.4153 47.5288 69.1701 47.7749L57.4121 59.5329V123.102L67.3521 123.103Z" fill="#FE5694"/>
<path d="M44.988 180H69.836V192H44.988V180ZM44.988 202H69.836V214H44.988V202ZM44.988 224H69.836V236H44.988V224Z" fill="#E3F3FF"/>
<path d="M44.988 180H55.976V192H44.988V180ZM44.988 202H55.976V214H44.988V202ZM44.988 224H55.976V236H44.988V224Z" fill="#B4DBFF"/>
</g>
</g>
<defs>
<clipPath id="clip0_170_4469">
<rect width="512" height="512" fill="white"/>
</clipPath>
<clipPath id="clip1_170_4469">
<rect width="512" height="512" fill="white"/>
</clipPath>
</defs>
</svg>
