<svg width="512" height="512" viewBox="0 0 512 512" fill="none" xmlns="http://www.w3.org/2000/svg">
<g clip-path="url(#clip0_170_4328)">
<g clip-path="url(#clip1_170_4328)">
<path d="M511.999 255.999C511.999 310.971 494.664 361.91 465.167 403.632C439.034 440.59 403.361 470.317 361.722 489.219C344.43 497.068 326.313 502.956 307.711 506.773C291.003 510.2 273.71 511.997 255.999 511.997C238.278 511.997 220.985 510.2 204.277 506.773C185.673 502.957 167.556 497.065 150.266 489.208C108.637 470.306 72.965 440.579 46.832 403.631C37.1698 389.963 28.8721 375.379 22.058 360.09C17.6642 350.252 13.9087 340.14 10.815 329.819C3.772 306.445 0 281.66 0 255.997C0 178.967 34.022 109.889 87.855 62.963C96.1536 55.7225 104.91 49.0246 114.071 42.911C154.687 15.799 203.494 0 256 0C315.737 0 370.677 20.449 414.229 54.742C422.696 61.4026 430.733 68.592 438.293 76.267C483.871 122.483 511.999 185.96 511.999 255.999Z" fill="#F2AE5A"/>
<path d="M255.988 440.236C377.556 440.236 476.106 341.686 476.106 220.118C476.106 98.5502 377.556 0 255.988 0C134.42 0 35.8701 98.5502 35.8701 220.118C35.8701 341.686 134.42 440.236 255.988 440.236Z" fill="#F9DF73"/>
<path d="M361.729 362.475V489.21C403.358 470.308 439.03 440.581 465.163 403.633V362.475H361.729ZM204.284 256.001V506.776C220.992 510.203 238.285 512 255.996 512C273.717 512 291.01 510.203 307.718 506.776V256.001H204.284ZM46.8291 147.76V403.634C72.9621 440.592 108.635 470.319 150.274 489.221V147.76H46.8291Z" fill="#343A6E"/>
<path d="M483.683 311.463L455.544 244.476C453.293 239.118 446.086 238.205 442.57 242.833L434.864 252.98C433.693 254.522 431.975 255.555 430.065 255.866C428.154 256.177 426.197 255.742 424.598 254.652L422.62 253.303L114.071 42.9141C104.91 49.0273 96.1533 55.7252 87.855 62.9661L398.555 274.829L404.98 279.209C408.55 281.644 409.353 286.572 406.74 290.013L398.627 300.696C395.112 305.325 397.926 312.023 403.692 312.753L475.774 321.877C481.54 322.607 485.933 316.822 483.683 311.463Z" fill="#EF487D"/>
</g>
</g>
<defs>
<clipPath id="clip0_170_4328">
<rect width="512" height="512" fill="white"/>
</clipPath>
<clipPath id="clip1_170_4328">
<rect width="512" height="512" fill="white"/>
</clipPath>
</defs>
</svg>
