<svg width="512" height="512" viewBox="0 0 512 512" fill="none" xmlns="http://www.w3.org/2000/svg">
<g clip-path="url(#clip0_170_4375)">
<path d="M271.794 171.152L166.824 219.479C153.652 225.543 147.89 241.137 153.955 254.309L153.955 254.311C160.02 267.482 175.614 273.244 188.785 267.18L293.755 218.853C306.927 212.789 312.689 197.195 306.624 184.023L306.624 184.021C300.559 170.849 284.966 165.087 271.794 171.152Z" fill="#FFA91A"/>
<path d="M306.624 184.02C304.932 180.334 302.408 177.091 299.249 174.547C296.091 172.003 292.385 170.226 288.424 169.358C289.709 175.209 288.955 181.325 286.287 186.689C283.619 192.053 279.198 196.344 273.756 198.85L168.786 247.178C163.59 249.584 157.748 250.216 152.158 248.978C152.565 250.817 153.169 252.606 153.958 254.316C155.4 257.448 157.445 260.265 159.975 262.607C162.506 264.949 165.473 266.769 168.707 267.964C171.942 269.16 175.38 269.706 178.825 269.572C182.271 269.439 185.656 268.628 188.788 267.186L293.758 218.858C296.891 217.416 299.709 215.371 302.051 212.839C304.393 210.308 306.214 207.34 307.409 204.104C308.603 200.869 309.149 197.43 309.014 193.984C308.88 190.538 308.068 187.152 306.624 184.02Z" fill="#F79219"/>
<path d="M306.624 184.02C304.32 178.992 300.479 174.825 295.656 172.118C296 172.734 296.322 173.368 296.624 174.02C298.066 177.152 298.877 180.537 299.011 183.983C299.145 187.428 298.599 190.866 297.404 194.1C296.209 197.335 294.389 200.302 292.047 202.833C289.705 205.364 286.888 207.408 283.756 208.85L178.786 257.178C175.016 258.917 170.887 259.737 166.739 259.568C162.591 259.4 158.542 258.249 154.926 256.21C158.161 261.956 163.441 266.274 169.714 268.306C175.987 270.338 182.796 269.936 188.786 267.178L293.756 218.85C296.888 217.408 299.705 215.364 302.047 212.833C304.389 210.302 306.209 207.335 307.404 204.1C308.599 200.866 309.145 197.428 309.011 193.983C308.877 190.537 308.066 187.152 306.624 184.02Z" fill="#EF7816"/>
<path d="M361.322 257.354C383.634 257.354 401.722 239.266 401.722 216.954C401.722 194.642 383.634 176.554 361.322 176.554C339.01 176.554 320.922 194.642 320.922 216.954C320.922 239.266 339.01 257.354 361.322 257.354Z" fill="#58595B"/>
<path d="M321.156 212.6L401.356 222.422C401.897 218.424 401.839 214.369 401.186 210.388L324.216 200.96C322.619 204.665 321.588 208.589 321.156 212.6Z" fill="#EF7816"/>
<path d="M322.928 271.908L364.376 301.642L404.424 299.6C407.089 299.464 409.756 299.854 412.27 300.749C414.785 301.643 417.099 303.024 419.08 304.813C421.06 306.601 422.67 308.763 423.815 311.173C424.961 313.584 425.62 316.197 425.756 318.862C425.892 321.528 425.502 324.194 424.607 326.709C423.713 329.223 422.332 331.537 420.543 333.518C418.755 335.499 416.593 337.109 414.183 338.255C411.772 339.4 409.159 340.06 406.494 340.196L361.712 342.478C355.58 342.791 349.523 341.013 344.534 337.434L303.38 307.908C301.435 306.513 299.155 305.658 296.772 305.43C294.389 305.202 291.988 305.609 289.814 306.61L242.342 328.466C237.526 330.684 233.467 334.265 230.666 338.766L196.414 393.814C193.52 398.466 189.282 402.132 184.262 404.326L90.9639 445.126C88.5185 446.196 85.8863 446.773 83.2177 446.825C80.5491 446.877 77.8964 446.403 75.4111 445.43C72.9257 444.457 70.6565 443.003 68.7328 441.153C66.8092 439.303 65.2689 437.092 64.1999 434.646C62.0403 429.707 61.931 424.113 63.896 419.094C65.861 414.075 69.7394 410.042 74.6779 407.882L160.278 370.456C162.788 369.358 164.906 367.526 166.354 365.2L183.844 333.4C184.904 331.469 185.444 329.294 185.409 327.091C185.374 324.888 184.766 322.732 183.645 320.835C182.524 318.938 180.928 317.365 179.015 316.272C177.102 315.179 174.937 314.603 172.734 314.6L123.534 314.554C110.174 314.098 104.966 307.982 94.2699 291.736C89.3379 284.242 82.6359 273.804 74.3559 260.714C68.1559 250.914 61.9719 241.054 56.9859 233.074C55.5689 230.806 54.6138 228.281 54.1752 225.643C53.7366 223.006 53.8232 220.307 54.4302 217.703C55.0371 215.099 56.1523 212.64 57.7118 210.468C59.2713 208.296 61.2444 206.454 63.5179 205.046C68.0886 202.213 73.5956 201.308 78.8328 202.527C84.07 203.747 88.6105 206.992 91.4599 211.552C104.718 232.776 117.86 253.504 126.484 266.752C127.825 268.801 129.675 270.468 131.852 271.59C134.03 272.711 136.461 273.25 138.908 273.152C159.212 272.384 180.118 271.9 190.45 266.436L203.25 260.544L288.296 221.39L295.076 218.224L320.276 268.804C320.896 270.038 321.806 271.103 322.928 271.908Z" fill="#58595B"/>
<path d="M425.756 318.862C425.493 313.713 423.283 308.856 419.574 305.275C415.865 301.694 410.933 299.657 405.778 299.576C405.861 304.842 403.898 309.934 400.3 313.78C396.703 317.626 391.753 319.926 386.494 320.194L341.712 322.478C335.58 322.791 329.523 321.013 324.534 317.434L283.38 287.908C281.435 286.513 279.155 285.658 276.772 285.43C274.389 285.202 271.988 285.609 269.814 286.61L222.342 308.466C217.526 310.684 213.467 314.265 210.666 318.766L176.414 373.814C173.519 378.466 169.282 382.132 164.262 384.326L70.9638 425.126C68.2966 426.297 65.4082 426.878 62.4958 426.83C62.5384 429.523 63.1177 432.18 64.1998 434.646C65.2688 437.092 66.8091 439.303 68.7328 441.153C70.6564 443.003 72.9257 444.457 75.411 445.43C77.8964 446.403 80.5491 446.877 83.2177 446.825C85.8862 446.773 88.5184 446.196 90.9638 445.126L184.262 404.326C189.282 402.132 193.519 398.466 196.414 393.814L230.666 338.766C233.467 334.265 237.526 330.684 242.342 328.466L289.814 306.61C291.988 305.609 294.389 305.202 296.772 305.43C299.155 305.658 301.435 306.513 303.38 307.908L344.534 337.434C349.523 341.013 355.58 342.791 361.712 342.478L406.494 340.194C409.159 340.058 411.772 339.399 414.183 338.253C416.593 337.108 418.755 335.499 420.543 333.518C422.332 331.537 423.713 329.223 424.607 326.708C425.502 324.194 425.892 321.528 425.756 318.862Z" fill="#414042"/>
<path d="M138.36 289.14H138.34C133.319 289.152 128.375 287.907 123.959 285.517C119.543 283.127 115.796 279.67 113.06 275.46C105.718 264.18 94.638 246.76 81.878 226.42V226.4C81.3204 225.5 81.1422 224.416 81.3825 223.385C81.6228 222.354 82.262 221.461 83.16 220.9C84.0642 220.36 85.1424 220.192 86.1681 220.431C87.1937 220.67 88.0869 221.297 88.66 222.18C101.28 242.3 112.32 259.68 119.78 271.1C121.793 274.191 124.548 276.729 127.793 278.483C131.039 280.236 134.671 281.15 138.36 281.14C138.638 281.14 138.92 281.14 139.2 281.12L142.48 281C164.36 280.26 183.32 279.2 193.88 273.64L194.042 273.56L287.862 230.38C288.805 229.959 289.874 229.915 290.848 230.257C291.823 230.599 292.629 231.302 293.102 232.22L313.122 272.36C313.59 273.31 313.663 274.407 313.326 275.411C312.989 276.415 312.268 277.245 311.322 277.72C310.366 278.172 309.273 278.238 308.27 277.902C307.267 277.567 306.433 276.856 305.942 275.92L287.682 239.26L197.458 280.8C184.4 287.36 165.56 288.1 145.6 288.88L139.5 289.12C139.16 289.14 138.76 289.14 138.36 289.14ZM74.2 217.98C73.1391 217.98 72.1217 217.559 71.3715 216.808C70.6214 216.058 70.2 215.041 70.2 213.98C70.2 212.919 70.6214 211.902 71.3715 211.152C72.1217 210.401 73.1391 209.98 74.2 209.98H74.218C75.2788 209.982 76.2953 210.406 77.0437 211.158C77.7922 211.91 78.2113 212.928 78.209 213.989C78.2066 215.05 77.7829 216.066 77.031 216.815C76.2792 217.563 75.2608 217.982 74.2 217.98Z" fill="#808285"/>
<path d="M439.832 126.152C449.93 126.152 458.116 117.966 458.116 107.868C458.116 97.77 449.93 89.584 439.832 89.584C429.734 89.584 421.548 97.77 421.548 107.868C421.548 117.966 429.734 126.152 439.832 126.152Z" fill="#5E9CF7"/>
<path d="M446.756 90.9419C448.12 94.2772 448.469 97.9411 447.759 101.474C447.048 105.007 445.31 108.251 442.762 110.799C440.215 113.348 436.971 115.087 433.438 115.799C429.906 116.511 426.242 116.163 422.906 114.8C424.048 117.589 425.861 120.052 428.185 121.971C430.509 123.89 433.27 125.204 436.225 125.798C439.179 126.392 442.235 126.247 445.119 125.375C448.004 124.503 450.628 122.931 452.759 120.8C454.89 118.669 456.461 116.045 457.333 113.16C458.204 110.276 458.35 107.22 457.755 104.266C457.161 101.311 455.846 98.5498 453.927 96.2263C452.008 93.9028 449.545 92.0896 446.756 90.9479V90.9419Z" fill="#478CF7"/>
<path d="M439.832 210.238C449.93 210.238 458.116 202.052 458.116 191.954C458.116 181.856 449.93 173.67 439.832 173.67C429.734 173.67 421.548 181.856 421.548 191.954C421.548 202.052 429.734 210.238 439.832 210.238Z" fill="#5E9CF7"/>
<path d="M446.756 175.03C448.118 178.365 448.465 182.028 447.753 185.559C447.042 189.091 445.303 192.333 442.756 194.88C440.209 197.428 436.966 199.166 433.435 199.878C429.904 200.589 426.241 200.242 422.906 198.88C424.048 201.669 425.861 204.133 428.184 206.052C430.508 207.971 433.27 209.287 436.224 209.881C439.179 210.475 442.234 210.33 445.119 209.458C448.004 208.586 450.629 207.015 452.759 204.884C454.89 202.753 456.462 200.128 457.333 197.243C458.205 194.359 458.351 191.303 457.756 188.348C457.162 185.394 455.847 182.632 453.928 180.309C452.009 177.985 449.545 176.172 446.756 175.03Z" fill="#478CF7"/>
<path d="M401.722 169.378C411.82 169.378 420.006 161.192 420.006 151.094C420.006 140.996 411.82 132.81 401.722 132.81C391.624 132.81 383.438 140.996 383.438 151.094C383.438 161.192 391.624 169.378 401.722 169.378Z" fill="#5E9CF7"/>
<path d="M408.646 134.168C410.007 137.502 410.354 141.165 409.642 144.695C408.931 148.226 407.193 151.468 404.646 154.015C402.1 156.562 398.858 158.301 395.327 159.013C391.797 159.725 388.135 159.379 384.8 158.018C385.941 160.807 387.755 163.271 390.078 165.19C392.402 167.109 395.164 168.424 398.118 169.018C401.073 169.613 404.128 169.467 407.013 168.595C409.898 167.724 412.522 166.152 414.653 164.021C416.784 161.89 418.356 159.266 419.227 156.381C420.099 153.496 420.244 150.441 419.65 147.486C419.056 144.532 417.741 141.77 415.822 139.446C413.903 137.123 411.439 135.31 408.65 134.168H408.646Z" fill="#478CF7"/>
<path d="M256.646 178.12L266.318 173.668L288.28 221.368L278.608 225.822L256.646 178.12ZM181.272 212.828L190.944 208.374L212.904 256.076L203.232 260.53L181.272 212.828Z" fill="#EF7816"/>
<path d="M394.103 203.558L391.115 227.95C390.829 230.285 392.491 232.41 394.826 232.696L405.953 234.059C408.288 234.345 410.413 232.684 410.699 230.348L413.687 205.957C413.973 203.622 412.311 201.497 409.976 201.21L398.849 199.848C396.514 199.562 394.389 201.223 394.103 203.558Z" fill="#FFA91A"/>
<path d="M409.976 201.21L403.146 200.374L400.698 220.348C400.63 220.903 400.453 221.44 400.178 221.927C399.903 222.414 399.534 222.842 399.094 223.187C398.653 223.532 398.149 223.786 397.61 223.936C397.07 224.086 396.507 224.128 395.952 224.06L391.656 223.534L391.116 227.95C391.048 228.505 391.089 229.069 391.239 229.608C391.388 230.147 391.643 230.651 391.987 231.092C392.332 231.533 392.76 231.901 393.247 232.176C393.734 232.452 394.27 232.628 394.826 232.696L405.952 234.06C406.507 234.128 407.07 234.086 407.61 233.936C408.149 233.786 408.653 233.532 409.094 233.187C409.534 232.842 409.903 232.414 410.178 231.927C410.453 231.44 410.63 230.903 410.698 230.348L413.686 205.948C413.821 204.828 413.506 203.7 412.81 202.812C412.115 201.924 411.096 201.348 409.976 201.21Z" fill="#F79219"/>
<path d="M173.662 151.124L149.488 159.752L142.64 140.564C141.871 138.406 141.597 136.102 141.839 133.824C142.082 131.546 142.834 129.352 144.04 127.404L144.11 127.294C145.473 125.094 147.55 123.429 149.992 122.575C152.435 121.72 155.097 121.729 157.534 122.6C159.663 123.359 161.597 124.582 163.195 126.18C164.794 127.778 166.018 129.711 166.778 131.84L173.662 151.124Z" fill="#FFC91D"/>
<path d="M143.042 140.14L126.558 158.6L109.282 139.812C108.118 138.546 107.466 136.892 107.453 135.172C107.441 133.452 108.068 131.789 109.214 130.506C111.548 127.892 114.782 126.255 118.27 125.921C121.759 125.588 125.245 126.582 128.032 128.706L143.042 140.14ZM128.5 176.738L116.2 185.522C114.747 186.559 112.942 186.976 111.181 186.682C109.421 186.388 107.849 185.407 106.812 183.954C105.561 182.203 104.95 180.075 105.081 177.927C105.212 175.778 106.077 173.74 107.532 172.154L117.482 161.298L128.5 176.738ZM171.088 180.042L161.266 194.6C160.629 195.543 159.645 196.194 158.528 196.411C157.412 196.628 156.255 196.392 155.312 195.756C152.955 194.166 151.216 191.815 150.386 189.096C149.557 186.377 149.686 183.455 150.754 180.82L155.364 169.436L171.088 180.042Z" fill="#FFC91D"/>
<path d="M155 186.69C180.3 186.69 201.52 166.952 207.242 161.114C207.664 160.686 207.901 160.108 207.901 159.506C207.901 158.905 207.664 158.327 207.242 157.898C201.524 152.06 180.304 132.32 155 132.32C138.158 132.32 116.93 141.068 105.89 148.638C104.928 149.301 103.788 149.656 102.62 149.656C101.452 149.656 100.312 149.301 99.3499 148.638L84.0619 138.078C83.4295 137.644 82.6823 137.407 81.9152 137.398C81.1481 137.389 80.3954 137.607 79.7528 138.027C79.1101 138.446 78.6063 139.046 78.3053 139.752C78.0043 140.457 77.9196 141.236 78.0619 141.99L80.6859 155.744C81.1598 158.235 81.1598 160.792 80.6859 163.282L78.0619 177.038C77.9196 177.792 78.0043 178.571 78.3053 179.277C78.6063 179.983 79.1101 180.583 79.7528 181.002C80.3954 181.421 81.1481 181.64 81.9152 181.631C82.6823 181.621 83.4295 181.385 84.0619 180.95L99.3499 170.388C100.312 169.725 101.452 169.371 102.62 169.371C103.788 169.371 104.928 169.725 105.89 170.388C116.934 177.944 138.162 186.69 155 186.69Z" fill="#F79219"/>
<path d="M207.246 157.898C204.308 154.924 201.188 152.135 197.904 149.548C197.893 150.135 197.658 150.695 197.246 151.114C191.524 156.952 170.304 176.69 145 176.69C128.158 176.69 106.93 167.944 95.89 160.374C94.9284 159.711 93.788 159.356 92.62 159.356C91.4521 159.356 90.3117 159.711 89.35 160.374L80 166.842L78.056 177.03C77.9137 177.784 77.9984 178.563 78.2995 179.269C78.6005 179.974 79.1043 180.575 79.7469 180.994C80.3896 181.413 81.1422 181.631 81.9093 181.622C82.6765 181.613 83.4236 181.376 84.056 180.942L99.344 170.38C100.306 169.717 101.446 169.362 102.614 169.362C103.782 169.362 104.922 169.717 105.884 170.38C116.924 177.95 138.152 186.696 154.994 186.696C180.294 186.696 201.514 166.958 207.236 161.12C207.661 160.692 207.901 160.114 207.903 159.511C207.905 158.908 207.669 158.328 207.246 157.898Z" fill="#EF7816"/>
<path d="M176.574 136.828C173.492 139.737 171.052 143.258 169.412 147.166C167.772 151.074 166.968 155.282 167.052 159.519C167.135 163.756 168.105 167.929 169.898 171.769C171.691 175.609 174.267 179.031 177.462 181.816C188.596 176.836 198.698 169.814 207.246 161.114C207.668 160.685 207.905 160.108 207.905 159.506C207.905 158.904 207.668 158.327 207.246 157.898C198.476 148.963 188.061 141.808 176.574 136.828Z" fill="#FFC91D"/>
<path d="M207.902 159.4C207.776 157.816 206.134 156.968 205.168 155.854C202.842 153.646 200.418 151.543 197.904 149.552C197.893 150.139 197.658 150.7 197.246 151.118C189.214 159.273 179.828 165.972 169.506 170.918C171.308 175.102 174.027 178.828 177.46 181.822C185.926 178.114 193.787 173.156 200.78 167.112C202.563 165.601 204.292 164.028 205.966 162.396C206.828 161.48 208 160.748 207.902 159.4Z" fill="#FFA91A"/>
<path d="M183.69 155.838C182.751 155.839 181.833 155.561 181.052 155.039C180.272 154.518 179.663 153.777 179.304 152.909C178.944 152.042 178.85 151.088 179.033 150.167C179.216 149.246 179.668 148.4 180.332 147.736C180.996 147.072 181.842 146.62 182.762 146.437C183.683 146.254 184.638 146.348 185.505 146.708C186.372 147.067 187.114 147.676 187.635 148.457C188.156 149.237 188.434 150.155 188.434 151.094C188.434 152.352 187.934 153.559 187.044 154.449C186.155 155.338 184.948 155.838 183.69 155.838Z" fill="#EF7816"/>
<path d="M96.576 146.712L84.066 138.07C83.4336 137.636 82.6865 137.399 81.9193 137.39C81.1522 137.381 80.3996 137.599 79.7569 138.018C79.1143 138.437 78.6105 139.038 78.3095 139.744C78.0084 140.449 77.9237 141.228 78.066 141.982L80.69 155.736C81.164 158.227 81.164 160.784 80.69 163.274L78.066 177.03C77.9237 177.784 78.0084 178.563 78.3095 179.269C78.6105 179.975 79.1143 180.575 79.7569 180.994C80.3996 181.413 81.1522 181.632 81.9193 181.623C82.6865 181.613 83.4336 181.377 84.066 180.942L96.336 172.466C93.9034 164.042 93.9869 155.09 96.576 146.712Z" fill="#FFC91D"/>
<path d="M94.5779 159.7C93.7158 159.39 92.7922 159.29 91.8837 159.409C90.9753 159.527 90.108 159.86 89.3539 160.38L79.9999 166.842L78.0559 177.03C77.9169 177.716 77.9701 178.428 78.2097 179.085C78.4494 179.743 78.8661 180.322 79.4139 180.758C80.0624 181.293 80.8682 181.6 81.7079 181.633C82.5477 181.666 83.3752 181.424 84.0639 180.942L96.3339 172.466C95.1906 168.306 94.6002 164.014 94.5779 159.7Z" fill="#FFA91A"/>
<path d="M314.36 94.3601L290.186 102.988L283.338 83.8001C282.568 81.6421 282.295 79.3386 282.537 77.0604C282.779 74.7822 283.532 72.5878 284.738 70.6401L284.808 70.5281C286.171 68.3271 288.247 66.6597 290.69 65.8041C293.133 64.9485 295.796 64.9562 298.234 65.8261C300.363 66.5855 302.297 67.8087 303.896 69.407C305.494 71.0054 306.718 72.939 307.478 75.0681L314.36 94.3601Z" fill="#FFC91D"/>
<path d="M283.74 83.3762L267.256 101.838L249.98 83.0522C248.816 81.7857 248.164 80.1316 248.151 78.4113C248.139 76.691 248.766 75.0275 249.912 73.7442C252.246 71.1306 255.48 69.4936 258.968 69.16C262.457 68.8263 265.942 69.8205 268.73 71.9442L283.74 83.3762ZM269.2 119.974L256.898 128.758C256.178 129.272 255.365 129.638 254.504 129.838C253.643 130.037 252.751 130.064 251.879 129.919C251.007 129.773 250.173 129.457 249.423 128.989C248.673 128.521 248.023 127.91 247.51 127.19C246.259 125.439 245.648 123.311 245.779 121.163C245.91 119.014 246.775 116.976 248.23 115.39L258.18 104.536L269.2 119.974ZM311.786 123.28L301.964 137.834C301.649 138.301 301.245 138.702 300.776 139.013C300.306 139.324 299.779 139.539 299.226 139.646C298.673 139.754 298.105 139.751 297.553 139.638C297.001 139.526 296.477 139.306 296.01 138.99C293.654 137.4 291.915 135.049 291.085 132.331C290.255 129.612 290.385 126.691 291.452 124.056L296.062 112.67L311.786 123.28Z" fill="#FFC91D"/>
<path d="M295.702 129.928C321.002 129.928 342.222 110.188 347.944 104.35C348.366 103.921 348.603 103.344 348.603 102.742C348.603 102.14 348.366 101.563 347.944 101.134C342.222 95.2961 321.002 75.5581 295.702 75.5581C278.86 75.5581 257.632 84.3041 246.592 91.8741C245.63 92.5369 244.49 92.8919 243.322 92.8919C242.154 92.8919 241.014 92.5369 240.052 91.8741L224.764 81.3121C224.132 80.8778 223.384 80.641 222.617 80.6318C221.85 80.6225 221.098 80.8413 220.455 81.2603C219.812 81.6793 219.308 82.2797 219.007 82.9854C218.706 83.6911 218.622 84.4702 218.764 85.2241L221.388 98.9801C221.862 101.47 221.862 104.028 221.388 106.518L218.764 120.272C218.622 121.026 218.706 121.805 219.007 122.511C219.308 123.216 219.812 123.817 220.455 124.236C221.098 124.655 221.85 124.874 222.617 124.864C223.384 124.855 224.132 124.618 224.764 124.184L240.052 113.624C241.014 112.961 242.154 112.606 243.322 112.606C244.49 112.606 245.63 112.961 246.592 113.624C257.632 121.18 278.86 129.928 295.702 129.928Z" fill="#F79219"/>
<path d="M347.944 101.134C345.005 98.1609 341.885 95.3722 338.602 92.7842C338.592 93.3713 338.356 93.932 337.944 94.3502C332.222 100.188 311.002 119.928 285.702 119.928C268.86 119.928 247.632 111.18 236.592 103.61C235.63 102.947 234.49 102.592 233.322 102.592C232.154 102.592 231.014 102.947 230.052 103.61L220.7 110.07L218.756 120.258C218.614 121.012 218.698 121.791 218.999 122.497C219.3 123.203 219.804 123.803 220.447 124.222C221.09 124.641 221.842 124.86 222.609 124.851C223.376 124.841 224.124 124.605 224.756 124.17L240.044 113.61C241.006 112.947 242.146 112.592 243.314 112.592C244.482 112.592 245.622 112.947 246.584 113.61C257.624 121.18 278.852 129.928 295.694 129.928C320.994 129.928 342.214 110.188 347.936 104.35C348.359 103.922 348.597 103.346 348.599 102.744C348.6 102.142 348.365 101.564 347.944 101.134Z" fill="#EF7816"/>
<path d="M317.272 80.064C314.19 82.9726 311.75 86.4939 310.11 90.4017C308.47 94.3095 307.666 98.5171 307.75 102.754C307.833 106.991 308.802 111.164 310.595 115.004C312.387 118.844 314.964 122.267 318.158 125.052C329.292 120.072 339.395 113.05 347.944 104.35C348.366 103.921 348.603 103.344 348.603 102.742C348.603 102.14 348.366 101.563 347.944 101.134C339.174 92.1991 328.759 85.0444 317.272 80.064Z" fill="#FFC91D"/>
<path d="M348.476 102C346.134 98.7083 341.768 95.4923 338.602 92.8003C338.592 93.3874 338.356 93.9481 337.944 94.3663C329.912 102.521 320.526 109.221 310.204 114.166C312.007 118.349 314.725 122.074 318.158 125.068C327.371 121.018 335.87 115.508 343.328 108.75C344.635 107.589 345.907 106.395 347.146 105.168C348.058 104.36 348.972 103.268 348.476 102Z" fill="#FFA91A"/>
<path d="M324.388 99.076C323.449 99.0764 322.531 98.7984 321.751 98.2771C320.97 97.7559 320.361 97.0148 320.002 96.1476C319.642 95.2804 319.548 94.3261 319.731 93.4053C319.914 92.4845 320.366 91.6387 321.029 90.9748C321.693 90.3108 322.539 89.8586 323.459 89.6753C324.38 89.492 325.334 89.5859 326.202 89.9451C327.069 90.3042 327.81 90.9125 328.332 91.693C328.853 92.4736 329.132 93.3912 329.132 94.33C329.132 95.5884 328.632 96.7952 327.743 97.6852C326.853 98.5752 325.646 99.0755 324.388 99.076Z" fill="#EF7816"/>
<path d="M237.274 89.9481L224.764 81.3061C224.132 80.8718 223.384 80.635 222.617 80.6258C221.85 80.6165 221.098 80.8353 220.455 81.2543C219.812 81.6733 219.308 82.2737 219.007 82.9794C218.706 83.6851 218.622 84.4642 218.764 85.2181L221.388 98.9741C221.862 101.464 221.862 104.022 221.388 106.512L218.764 120.266C218.622 121.02 218.706 121.799 219.007 122.505C219.308 123.211 219.812 123.811 220.455 124.23C221.098 124.649 221.85 124.868 222.617 124.858C223.384 124.849 224.132 124.612 224.764 124.178L237.034 115.702C234.602 107.278 234.685 98.3258 237.274 89.9481Z" fill="#FFC91D"/>
<path d="M237.034 115.702C235.889 111.543 235.297 107.25 235.274 102.936C234.412 102.626 233.489 102.527 232.58 102.645C231.672 102.764 230.805 103.097 230.052 103.618L220.7 110.078C220.5 111.142 218.996 119.002 218.756 120.266C218.605 121.003 218.674 121.768 218.956 122.466C219.179 123.001 219.518 123.48 219.949 123.867C220.38 124.254 220.892 124.54 221.447 124.705C222.003 124.869 222.588 124.908 223.161 124.817C223.733 124.727 224.278 124.51 224.756 124.182L237.034 115.702Z" fill="#FFA91A"/>
<path d="M335.726 444.814C333.604 444.814 331.569 443.971 330.069 442.471C328.569 440.971 327.726 438.936 327.726 436.814C327.751 416.082 335.998 396.206 350.658 381.547C365.318 366.887 385.194 358.64 405.926 358.614C408.048 358.614 410.082 359.457 411.583 360.957C413.083 362.458 413.926 364.493 413.926 366.614C413.926 368.736 413.083 370.771 411.583 372.271C410.082 373.771 408.048 374.614 405.926 374.614C389.436 374.635 373.627 381.195 361.967 392.855C350.306 404.515 343.746 420.324 343.726 436.814C343.726 438.936 342.883 440.971 341.383 442.471C339.882 443.971 337.848 444.814 335.726 444.814Z" fill="#76A34F"/>
<path d="M351.382 400.6C349.26 400.6 347.225 399.757 345.725 398.257C344.225 396.757 343.382 394.722 343.382 392.6C343.371 383.957 339.933 375.671 333.822 369.56C327.711 363.449 319.425 360.011 310.782 360C308.66 360 306.625 359.157 305.125 357.657C303.625 356.157 302.782 354.122 302.782 352C302.782 349.878 303.625 347.843 305.125 346.343C306.625 344.843 308.66 344 310.782 344C323.667 344.015 336.019 349.141 345.13 358.252C354.241 367.362 359.367 379.715 359.382 392.6C359.382 394.722 358.539 396.757 357.039 398.257C355.539 399.757 353.504 400.6 351.382 400.6ZM410.286 412.412C399.653 412.4 389.459 408.17 381.94 400.652C374.421 393.133 370.192 382.939 370.18 372.306C370.18 370.184 371.023 368.149 372.523 366.649C374.023 365.149 376.058 364.306 378.18 364.306C380.302 364.306 382.337 365.149 383.837 366.649C385.337 368.149 386.18 370.184 386.18 372.306C386.187 378.697 388.729 384.824 393.249 389.343C397.768 393.862 403.895 396.405 410.286 396.412C412.408 396.412 414.443 397.255 415.943 398.755C417.443 400.255 418.286 402.29 418.286 404.412C418.286 406.534 417.443 408.569 415.943 410.069C414.443 411.569 412.408 412.412 410.286 412.412Z" fill="#76A34F"/>
<path d="M339.2 422.964C337.078 422.964 335.043 422.121 333.543 420.621C332.043 419.12 331.2 417.086 331.2 414.964C331.195 411.411 329.782 408.006 327.27 405.494C324.758 402.982 321.352 401.569 317.8 401.564C315.678 401.564 313.643 400.721 312.143 399.221C310.643 397.72 309.8 395.686 309.8 393.564C309.8 391.442 310.643 389.407 312.143 387.907C313.643 386.407 315.678 385.564 317.8 385.564C325.594 385.573 333.067 388.674 338.578 394.185C344.09 399.697 347.19 407.169 347.2 414.964C347.2 417.086 346.357 419.12 344.857 420.621C343.356 422.121 341.322 422.964 339.2 422.964ZM270.502 444.814C268.38 444.814 266.345 443.971 264.845 442.471C263.345 440.97 262.502 438.936 262.502 436.814C262.49 426.088 258.223 415.805 250.639 408.221C243.055 400.636 232.772 396.37 222.046 396.358C219.924 396.358 217.889 395.515 216.389 394.015C214.889 392.514 214.046 390.48 214.046 388.358C214.046 386.236 214.889 384.201 216.389 382.701C217.889 381.201 219.924 380.358 222.046 380.358C237.014 380.375 251.364 386.328 261.948 396.912C272.532 407.496 278.485 421.846 278.502 436.814C278.502 438.936 277.659 440.97 276.159 442.471C274.658 443.971 272.624 444.814 270.502 444.814Z" fill="#76A34F"/>
<path d="M239.834 399.738C237.712 399.738 235.677 398.895 234.177 397.395C232.677 395.895 231.834 393.86 231.834 391.738C231.848 379.235 236.821 367.247 245.662 358.406C254.503 349.564 266.49 344.59 278.994 344.576C281.116 344.576 283.151 345.419 284.651 346.919C286.151 348.42 286.994 350.454 286.994 352.576C286.994 354.698 286.151 356.733 284.651 358.233C283.151 359.733 281.116 360.576 278.994 360.576C270.733 360.587 262.813 363.873 256.972 369.715C251.13 375.557 247.844 383.477 247.834 391.738C247.834 393.86 246.991 395.895 245.491 397.395C243.991 398.895 241.956 399.738 239.834 399.738Z" fill="#76A34F"/>
<path d="M279.086 390.014C271.016 390.006 263.278 386.796 257.572 381.09C251.865 375.384 248.655 367.646 248.646 359.576C248.646 357.454 249.489 355.42 250.989 353.919C252.489 352.419 254.524 351.576 256.646 351.576C258.768 351.576 260.803 352.419 262.303 353.919C263.803 355.42 264.646 357.454 264.646 359.576C264.65 363.404 266.173 367.075 268.88 369.781C271.587 372.488 275.258 374.01 279.086 374.014C281.208 374.014 283.243 374.857 284.743 376.357C286.243 377.858 287.086 379.892 287.086 382.014C287.086 384.136 286.243 386.171 284.743 387.671C283.243 389.171 281.208 390.014 279.086 390.014Z" fill="#76A34F"/>
<path d="M332.764 291.532C322.644 291.528 312.834 288.045 304.976 281.668C297.119 275.291 291.693 266.407 289.607 256.504C287.52 246.602 288.901 236.284 293.518 227.279C298.134 218.274 305.706 211.129 314.964 207.042L336.784 197.4C339.34 196.253 341.35 194.157 342.39 191.555C343.429 188.953 343.417 186.049 342.356 183.456C341.807 182.139 341.001 180.944 339.985 179.942C338.969 178.94 337.763 178.151 336.438 177.62C335.113 177.09 333.696 176.829 332.269 176.853C330.842 176.877 329.434 177.186 328.128 177.76L318.2 182.132C317.839 182.291 317.451 182.377 317.057 182.386C316.663 182.395 316.271 182.326 315.904 182.183C315.537 182.04 315.201 181.826 314.917 181.554C314.632 181.282 314.404 180.956 314.245 180.595C314.086 180.235 314 179.846 313.991 179.452C313.983 179.058 314.052 178.667 314.194 178.299C314.337 177.932 314.551 177.597 314.823 177.312C315.095 177.027 315.421 176.799 315.782 176.64L325.712 172.272C327.749 171.376 329.944 170.895 332.169 170.858C334.393 170.82 336.603 171.227 338.669 172.054C340.735 172.881 342.615 174.112 344.199 175.675C345.784 177.237 347.04 179.1 347.896 181.154C349.554 185.196 349.574 189.725 347.953 193.782C346.331 197.839 343.195 201.106 339.208 202.892L317.38 212.53C311.209 215.255 305.871 219.567 301.911 225.029C297.952 230.49 295.512 236.904 294.841 243.616C294.17 250.328 295.292 257.098 298.092 263.235C300.892 269.372 305.27 274.656 310.78 278.548C318.049 283.678 326.882 286.107 335.752 285.413C344.621 284.719 352.969 280.946 359.352 274.748L374.352 260.172C374.924 259.627 375.689 259.329 376.48 259.344C377.27 259.36 378.023 259.687 378.574 260.254C379.125 260.821 379.429 261.583 379.421 262.374C379.414 263.164 379.094 263.92 378.532 264.476L363.532 279.052C355.294 287.063 344.254 291.541 332.764 291.532Z" fill="#FFC91D"/>
<path d="M298.714 178.688L309.892 173.544C310.855 173.1 311.956 173.057 312.951 173.425C313.946 173.793 314.754 174.54 315.198 175.504L318.67 183.046C318.89 183.523 319.014 184.039 319.034 184.564C319.055 185.089 318.972 185.613 318.79 186.106C318.608 186.599 318.33 187.051 317.973 187.437C317.617 187.823 317.187 188.134 316.71 188.354L305.532 193.498L298.714 178.688Z" fill="#EF7816"/>
<path d="M387.951 243.924L374.863 252.478C372.981 253.708 372.453 256.23 373.682 258.112L377.593 264.095C378.823 265.977 381.345 266.505 383.226 265.275L396.315 256.721C398.197 255.491 398.725 252.969 397.495 251.088L393.585 245.104C392.355 243.223 389.833 242.694 387.951 243.924Z" fill="#EF7816"/>
</g>
<defs>
<clipPath id="clip0_170_4375">
<rect width="512" height="512" fill="white"/>
</clipPath>
</defs>
</svg>
