<svg width="512" height="512" viewBox="0 0 512 512" fill="none" xmlns="http://www.w3.org/2000/svg">
<g clip-path="url(#clip0_170_4234)">
<path d="M404.942 247.486L434.314 211.91L442.056 191.064C442.424 190.072 442.995 189.168 443.731 188.409C444.467 187.649 445.353 187.051 446.332 186.652C447.311 186.252 448.363 186.061 449.42 186.09C450.478 186.118 451.518 186.366 452.474 186.818C454.9 187.963 456.951 189.775 458.387 192.041C459.823 194.307 460.586 196.935 460.586 199.618V214.08C461.02 215.382 477.522 222.33 477.522 222.33L496.364 226.426C501.766 227.6 504.354 233.788 501.396 238.458C498.206 243.494 493.794 247.642 488.571 250.516C483.348 253.391 477.484 254.898 471.522 254.898H462.756L439.182 323.478C438.977 324.075 438.872 324.702 438.872 325.334V379.964L450.6 386.172C451.756 386.784 452.666 387.775 453.179 388.978C453.691 390.182 453.775 391.525 453.416 392.782C453.057 394.04 452.277 395.136 451.206 395.888C450.135 396.639 448.839 397 447.534 396.91L434.334 395.994C431.002 395.763 427.862 394.347 425.482 392.003C423.103 389.659 421.64 386.54 421.36 383.212L417.154 333.394C416.913 330.54 415.61 327.881 413.501 325.943C411.393 324.005 408.634 322.93 405.77 322.93H351.996C350.023 322.93 348.083 323.441 346.366 324.413C344.649 325.385 343.213 326.786 342.198 328.478L338.956 333.882C335.578 341.846 329.942 348.647 322.744 353.446C318.523 356.26 315.063 360.072 312.67 364.545C310.276 369.017 309.024 374.011 309.024 379.084V379.094L318.828 381.69C320.334 382.087 321.643 383.019 322.512 384.311C323.38 385.604 323.749 387.168 323.548 388.713C323.347 390.257 322.59 391.675 321.42 392.702C320.25 393.729 318.745 394.295 317.188 394.294H302.258C300.663 394.294 299.126 393.699 297.946 392.626C296.767 391.553 296.029 390.079 295.878 388.492L293.258 360.986C292.506 353.097 294.824 345.222 299.728 338.998L303.378 334.364V297.018L286.578 314.218C285.649 315.17 284.417 315.767 283.094 315.908L259.732 318.382C254.17 318.97 249.738 313.818 251.148 308.408L251.152 308.392C251.858 305.686 253.208 303.192 255.088 301.122C256.968 299.052 259.321 297.468 261.946 296.506L273.452 292.288C277.409 290.837 280.905 288.355 283.58 285.098L288.552 279.042C298.065 267.453 311.701 260.004 326.592 258.26L401.198 249.52C402.662 249.352 404.004 248.623 404.942 247.486Z" fill="#FCC4AE"/>
<path d="M303.258 297.144V286.728C303.258 283.142 298.902 281.368 296.396 283.934L276.584 304.226C275.655 305.177 274.422 305.774 273.1 305.914L251.202 308.232L251.156 308.396L251.152 308.412C249.868 313.868 254.356 318.956 259.928 318.366L283.098 315.912C284.42 315.771 285.651 315.174 286.58 314.224L303.258 297.144ZM450.586 189.618V206.584C450.586 207.314 450.786 208.03 451.164 208.655C451.543 209.28 452.085 209.789 452.732 210.128L460.586 214.238V199.618C460.586 196.935 459.823 194.307 458.387 192.041C456.951 189.775 454.9 187.963 452.474 186.818C451.74 186.471 450.957 186.243 450.152 186.142C450.44 187.278 450.586 188.445 450.586 189.618ZM318.832 381.694L313.172 380.196C312.706 381.403 311.885 382.441 310.818 383.174C309.75 383.906 308.486 384.298 307.192 384.298H295.482L295.882 388.496C296.033 390.083 296.77 391.557 297.95 392.63C299.13 393.703 300.667 394.298 302.262 394.298H317.192C318.749 394.299 320.253 393.733 321.424 392.706C322.594 391.679 323.351 390.261 323.552 388.716C323.753 387.172 323.384 385.608 322.516 384.315C321.647 383.023 320.338 382.091 318.832 381.694ZM450.6 386.176L443.51 382.422C443.22 383.764 442.456 384.956 441.359 385.781C440.261 386.606 438.903 387.008 437.534 386.914L424.334 385.998C423.466 385.937 422.606 385.796 421.764 385.578C422.505 388.412 424.117 390.941 426.372 392.811C428.627 394.68 431.412 395.795 434.334 395.998L447.534 396.914C448.84 397.006 450.138 396.646 451.21 395.895C452.282 395.144 453.064 394.047 453.423 392.788C453.783 391.53 453.698 390.185 453.184 388.981C452.67 387.777 451.758 386.787 450.6 386.176ZM496.364 226.428L492.514 225.592C492.34 226.574 491.974 227.548 491.394 228.462C488.204 233.498 483.792 237.646 478.569 240.52C473.346 243.395 467.481 244.902 461.52 244.902H455.608C453.9 244.902 452.38 245.986 451.826 247.602L429.18 313.482C428.974 314.079 428.869 314.706 428.87 315.338V365.154C428.87 366.608 429.266 368.034 430.016 369.28C430.766 370.525 431.841 371.543 433.126 372.224L438.87 375.264V325.34C438.87 324.708 438.974 324.08 439.18 323.482L462.754 254.904H471.52C477.481 254.904 483.346 253.396 488.569 250.522C493.792 247.648 498.204 243.5 501.394 238.464C504.354 233.79 501.766 227.602 496.364 226.428ZM395.772 312.934H341.998C340.025 312.933 338.085 313.444 336.368 314.417C334.651 315.389 333.215 316.789 332.2 318.482L328.958 323.886C325.58 331.85 319.944 338.651 312.746 343.45C306.722 347.466 302.306 353.474 300.27 360.422C299.12 364.348 301.16 368.512 304.95 370.058L309.842 372.054C311.628 364.44 316.241 357.789 322.748 353.45C329.946 348.651 335.582 341.85 338.96 333.886L342.202 328.482C343.217 326.789 344.653 325.389 346.37 324.417C348.087 323.444 350.027 322.933 352 322.934H405.774C406.228 322.934 406.676 322.96 407.118 323.012C406.788 320.234 405.451 317.674 403.36 315.817C401.268 313.96 398.569 312.934 395.772 312.934Z" fill="#F2AD97"/>
<path d="M457.67 303.174H191.126V291.508H457.672C458.447 291.494 459.217 291.634 459.937 291.921C460.658 292.208 461.313 292.635 461.867 293.178C462.42 293.721 462.859 294.369 463.159 295.084C463.459 295.799 463.613 296.567 463.613 297.342C463.613 298.117 463.458 298.884 463.158 299.599C462.858 300.314 462.418 300.962 461.865 301.505C461.312 302.048 460.656 302.475 459.936 302.762C459.215 303.048 458.445 303.188 457.67 303.174Z" fill="#8C3F0A"/>
<path d="M459.278 291.732C459.526 292.6 459.569 293.515 459.404 294.402C459.239 295.29 458.871 296.128 458.327 296.849C457.784 297.571 457.08 298.156 456.272 298.559C455.464 298.963 454.573 299.173 453.67 299.174H191.126V303.174H457.672C459.078 303.173 460.437 302.665 461.499 301.742C462.56 300.819 463.252 299.544 463.447 298.151C463.643 296.758 463.329 295.342 462.562 294.162C461.796 292.983 460.63 292.12 459.278 291.732Z" fill="#7C3108"/>
<path d="M49.5339 395.214C47.2823 395.214 45.1228 394.319 43.5306 392.727C41.9384 391.135 41.0439 388.976 41.0439 386.724C41.0439 384.472 41.9384 382.313 43.5306 380.721C45.1228 379.128 47.2823 378.234 49.5339 378.234C59.6899 378.234 67.952 369.972 67.952 359.816V342.43C67.952 340.178 68.8464 338.019 70.4386 336.427C72.0308 334.834 74.1903 333.94 76.4419 333.94C78.6936 333.94 80.8531 334.834 82.4453 336.427C84.0375 338.019 84.9319 340.178 84.9319 342.43V359.816C84.9319 379.334 69.0519 395.214 49.5339 395.214Z" fill="#D10028"/>
<path d="M80.1041 334.766C80.6361 335.874 80.9321 337.116 80.9321 338.428V355.814C80.9321 375.332 65.0521 391.212 45.5341 391.212C44.2668 391.213 43.0154 390.93 41.8721 390.384C42.5633 391.83 43.6497 393.05 45.0056 393.905C46.3615 394.759 47.9315 395.212 49.5341 395.212C69.0541 395.212 84.9321 379.332 84.9321 359.814V342.428C84.9325 340.825 84.4794 339.255 83.625 337.899C82.7706 336.543 81.5499 335.457 80.1041 334.766Z" fill="#B7022D"/>
<path d="M204.58 395.214C185.06 395.214 169.182 379.334 169.182 359.816V341.726C169.182 340.611 169.402 339.507 169.828 338.477C170.255 337.447 170.88 336.511 171.669 335.723C172.457 334.934 173.393 334.309 174.423 333.882C175.453 333.455 176.557 333.236 177.672 333.236C178.787 333.236 179.891 333.455 180.921 333.882C181.951 334.309 182.887 334.934 183.675 335.723C184.464 336.511 185.089 337.447 185.516 338.477C185.943 339.507 186.162 340.611 186.162 341.726V359.816C186.162 369.972 194.424 378.234 204.58 378.234C206.832 378.234 208.991 379.128 210.583 380.721C212.176 382.313 213.07 384.472 213.07 386.724C213.07 388.976 212.176 391.135 210.583 392.727C208.991 394.319 206.832 395.214 204.58 395.214Z" fill="#D10028"/>
<path d="M182.162 337.724V355.814C182.163 358.711 182.847 361.567 184.16 364.15C185.472 366.733 187.376 368.97 189.716 370.678C187.403 367.529 186.157 363.722 186.162 359.814V341.724C186.162 340.121 185.709 338.551 184.855 337.195C184.001 335.84 182.78 334.753 181.334 334.062C181.864 335.17 182.162 336.412 182.162 337.724Z" fill="#B7022D"/>
<path d="M253.254 353.212C253.254 376.408 234.45 395.212 211.254 395.212H51.358C28.426 395.212 9.72602 376.738 9.36402 353.89C9.29002 349.282 12.576 345.104 17.17 344.748C18.3384 344.654 19.5136 344.804 20.6214 345.186C21.7293 345.569 22.7458 346.178 23.6071 346.973C24.4683 347.768 25.1556 348.733 25.6256 349.806C26.0956 350.88 26.3382 352.04 26.338 353.212C26.338 367.008 37.562 378.232 51.358 378.232H211.252C225.07 378.232 236.272 367.03 236.272 353.212C236.272 350.96 237.167 348.8 238.759 347.208C240.351 345.615 242.511 344.721 244.763 344.721C247.015 344.721 249.175 345.615 250.767 347.208C252.359 348.8 253.254 350.96 253.254 353.212Z" fill="#FFA91A"/>
<path d="M22.3401 349.212C22.3401 357.126 26.0361 364.194 31.7901 368.782C28.2573 364.362 26.3351 358.87 26.3401 353.212C26.3406 351.609 25.8874 350.039 25.0331 348.683C24.1787 347.327 22.958 346.241 21.5121 345.55C22.0421 346.66 22.3401 347.902 22.3401 349.212ZM248.426 345.55C248.956 346.658 249.254 347.9 249.254 349.212C249.254 372.408 230.45 391.212 207.254 391.212H47.3581C37.1983 391.22 27.3826 387.531 19.7441 380.832C27.4481 389.64 38.7641 395.212 51.3581 395.212H211.252C234.448 395.212 253.252 376.408 253.252 353.212C253.253 351.609 252.801 350.039 251.947 348.683C251.092 347.327 249.872 346.241 248.426 345.55Z" fill="#F79219"/>
<path d="M77.5961 115.072C74.3037 115.072 71.1462 116.38 68.8181 118.708C66.49 121.036 65.1821 124.193 65.1821 127.486V176.56H90.0101V127.486C90.0101 124.193 88.7022 121.036 86.3742 118.708C84.0461 116.38 80.8885 115.072 77.5961 115.072Z" fill="#FFA91A"/>
<path d="M79.8141 115.27C79.9441 115.99 80.0121 116.73 80.0121 117.486V166.56H65.1841V176.56H90.0121V127.486C90.0112 124.578 88.99 121.762 87.1265 119.53C85.2629 117.297 82.6751 115.79 79.8141 115.27Z" fill="#F79219"/>
<path d="M112.926 176.56C117.537 176.56 121.959 178.391 125.22 181.652C128.48 184.912 130.312 189.335 130.312 193.946V284.93C130.312 301.792 142.46 315.46 157.446 315.46C172.432 315.46 184.58 301.792 184.58 284.93V268.544C184.58 253.126 197.08 240.626 212.498 240.626C227.916 240.626 240.416 253.126 240.416 268.544V294.574C240.416 324.37 218.95 348.522 192.47 348.522H62.398C50.604 348.522 41.042 338.96 41.042 327.166V197.916C41.042 186.122 50.604 176.56 62.398 176.56H112.926Z" fill="#E63950"/>
<path d="M110.312 264.93C110.312 279.596 119.502 291.846 131.758 294.788C130.794 291.591 130.306 288.269 130.312 284.93V193.946C130.312 189.335 128.48 184.912 125.22 181.652C121.959 178.391 117.537 176.56 112.926 176.56H110.312V264.93Z" fill="#D10028"/>
<path d="M219.524 241.518C220.106 243.764 220.416 246.118 220.416 248.544V274.574C220.416 304.37 198.95 328.524 172.47 328.524H42.398C41.956 328.524 41.518 328.508 41.084 328.482C41.762 339.664 51.044 348.524 62.398 348.524H192.47C218.95 348.524 240.416 324.37 240.416 294.574V268.544C240.416 255.552 231.542 244.634 219.524 241.518Z" fill="#D10028"/>
<path d="M120.312 183.946V274.93C120.312 286.734 126.266 296.972 134.978 302.054C132.032 297.172 130.312 291.278 130.312 284.93V193.946C130.312 190.43 129.246 186.996 127.256 184.098C125.265 181.2 122.442 178.973 119.16 177.712C119.904 179.648 120.312 181.748 120.312 183.946Z" fill="#B7022D"/>
<path d="M226.598 244.444C229.105 248.719 230.423 253.587 230.416 258.544V284.574C230.416 314.37 208.95 338.524 182.47 338.524H52.398C49.084 338.524 45.944 337.768 43.146 336.42C44.889 340.046 47.6209 343.106 51.0269 345.247C54.433 347.389 58.3747 348.525 62.398 348.524H192.47C218.95 348.524 240.416 324.37 240.416 294.574V268.544C240.416 258.27 234.866 249.292 226.598 244.444Z" fill="#B7022D"/>
<path d="M392.92 320.908V250.574C392.92 249.026 393.535 247.543 394.629 246.448C395.723 245.354 397.207 244.74 398.754 244.74C400.301 244.74 401.785 245.354 402.879 246.448C403.973 247.543 404.588 249.026 404.588 250.574V320.908C404.588 322.455 403.973 323.939 402.879 325.033C401.785 326.127 400.301 326.742 398.754 326.742C397.207 326.742 395.723 326.127 394.629 325.033C393.535 323.939 392.92 322.455 392.92 320.908Z" fill="#8C3F0A"/>
<path d="M400.362 244.966C400.508 245.476 400.588 246.016 400.588 246.574V316.908C400.588 317.811 400.378 318.702 399.975 319.511C399.572 320.319 398.987 321.023 398.265 321.567C397.543 322.111 396.706 322.479 395.817 322.644C394.929 322.809 394.014 322.765 393.146 322.516C393.534 323.868 394.397 325.034 395.577 325.801C396.756 326.567 398.173 326.881 399.566 326.685C400.959 326.489 402.234 325.797 403.157 324.735C404.08 323.674 404.588 322.314 404.588 320.908V250.574C404.588 249.307 404.176 248.075 403.413 247.063C402.651 246.051 401.58 245.315 400.362 244.966Z" fill="#7C3108"/>
<path d="M349.394 320.908V250.574C349.394 249.026 350.009 247.543 351.103 246.448C352.197 245.354 353.681 244.74 355.228 244.74C356.775 244.74 358.259 245.354 359.353 246.448C360.447 247.543 361.062 249.026 361.062 250.574V320.908C361.062 322.455 360.447 323.939 359.353 325.033C358.259 326.127 356.775 326.742 355.228 326.742C353.681 326.742 352.197 326.127 351.103 325.033C350.009 323.939 349.394 322.455 349.394 320.908Z" fill="#8C3F0A"/>
<path d="M356.836 244.966C356.982 245.476 357.062 246.016 357.062 246.574V316.908C357.062 317.811 356.852 318.702 356.449 319.511C356.046 320.319 355.461 321.023 354.739 321.567C354.018 322.111 353.18 322.479 352.291 322.644C351.403 322.809 350.489 322.765 349.62 322.516C350.008 323.868 350.871 325.034 352.051 325.801C353.23 326.567 354.647 326.881 356.04 326.685C357.433 326.489 358.708 325.797 359.631 324.735C360.554 323.674 361.062 322.314 361.062 320.908V250.574C361.061 249.307 360.649 248.075 359.887 247.063C359.124 246.052 358.054 245.316 356.836 244.966Z" fill="#7C3108"/>
<path d="M453.884 270.27L411.588 238.256C410.944 237.786 410.401 237.193 409.989 236.511C409.577 235.829 409.305 235.071 409.189 234.283C409.072 233.495 409.115 232.691 409.312 231.919C409.51 231.147 409.86 230.422 410.341 229.787C410.822 229.152 411.424 228.619 412.114 228.219C412.803 227.819 413.565 227.56 414.355 227.458C415.146 227.356 415.948 227.412 416.717 227.624C417.485 227.835 418.203 228.198 418.83 228.69L461.126 260.704C461.77 261.173 462.314 261.767 462.726 262.449C463.138 263.131 463.41 263.888 463.526 264.676C463.642 265.465 463.6 266.268 463.402 267.04C463.204 267.812 462.855 268.537 462.374 269.172C461.893 269.808 461.29 270.341 460.601 270.741C459.911 271.141 459.149 271.399 458.359 271.501C457.569 271.603 456.766 271.547 455.998 271.336C455.229 271.124 454.511 270.762 453.884 270.27Z" fill="#8C3F0A"/>
<path d="M462.288 265.108C461.328 266.376 459.903 267.211 458.327 267.429C456.751 267.647 455.153 267.23 453.884 266.27L411.588 234.256C410.65 233.548 409.942 232.579 409.552 231.47C409.127 232.671 409.096 233.975 409.462 235.195C409.828 236.415 410.572 237.487 411.588 238.256L453.884 270.27C454.913 271.048 456.165 271.474 457.455 271.485C458.745 271.495 460.004 271.09 461.045 270.329C462.086 269.568 462.855 268.491 463.236 267.259C463.617 266.026 463.591 264.704 463.162 263.488C462.955 264.069 462.66 264.616 462.288 265.108Z" fill="#7C3108"/>
<path d="M453.762 229.836C456.664 229.836 459.016 227.483 459.016 224.582C459.016 221.68 456.664 219.328 453.762 219.328C450.86 219.328 448.508 221.68 448.508 224.582C448.508 227.483 450.86 229.836 453.762 229.836Z" fill="#8C3F0A"/>
<path d="M454.892 219.452C455.081 220.313 455.051 221.208 454.803 222.055C454.556 222.901 454.099 223.672 453.476 224.295C452.852 224.919 452.081 225.376 451.235 225.623C450.388 225.871 449.493 225.901 448.632 225.712C448.834 226.632 449.281 227.481 449.924 228.17C450.567 228.858 451.384 229.361 452.289 229.626C453.193 229.89 454.152 229.907 455.065 229.673C455.979 229.439 456.812 228.965 457.478 228.298C458.145 227.632 458.62 226.798 458.853 225.885C459.087 224.972 459.071 224.013 458.806 223.109C458.542 222.204 458.039 221.387 457.35 220.744C456.661 220.1 455.812 219.654 454.892 219.452Z" fill="#7C3108"/>
<path d="M53.0401 307.18C52.5147 307.18 51.9944 307.076 51.5089 306.875C51.0234 306.674 50.5823 306.38 50.2107 306.008C49.839 305.637 49.5442 305.196 49.343 304.711C49.1418 304.225 49.0382 303.705 49.0381 303.18C49.038 302.654 49.1413 302.134 49.3423 301.648C49.5432 301.163 49.8378 300.722 50.2092 300.35C50.5807 299.979 51.0217 299.684 51.507 299.483C51.9924 299.281 52.5127 299.178 53.0381 299.178C54.0992 299.177 55.117 299.599 55.8675 300.349C56.618 301.099 57.0398 302.116 57.0401 303.178C57.0404 304.239 56.6191 305.256 55.8689 306.007C55.1188 306.758 54.1012 307.179 53.0401 307.18ZM53.0401 291.18C50.8401 291.18 49.0401 289.38 49.0401 287.18V197.92C49.0621 190.56 55.0401 184.56 62.4021 184.56C64.6021 184.56 66.4021 186.358 66.4021 188.56C66.4021 190.76 64.6021 192.56 62.4021 192.56C60.9812 192.562 59.6191 193.128 58.6142 194.132C57.6093 195.137 57.0433 196.499 57.0401 197.92V287.18C57.0401 289.378 55.2401 291.18 53.0401 291.18Z" fill="#E8566F"/>
</g>
<defs>
<clipPath id="clip0_170_4234">
<rect width="512" height="512" fill="white"/>
</clipPath>
</defs>
</svg>
