<svg width="512" height="512" viewBox="0 0 512 512" fill="none" xmlns="http://www.w3.org/2000/svg">
<g clip-path="url(#clip0_170_4281)">
<path d="M24 242.828H152C154.122 242.828 156.157 241.985 157.657 240.485C159.157 238.985 160 236.95 160 234.828C160 232.706 159.157 230.672 157.657 229.171C156.157 227.671 154.122 226.828 152 226.828H24C21.8783 226.828 19.8434 227.671 18.3431 229.171C16.8429 230.672 16 232.706 16 234.828C16 236.95 16.8429 238.985 18.3431 240.485C19.8434 241.985 21.8783 242.828 24 242.828Z" fill="#BE281E"/>
<path d="M24 242.828H48C50.1217 242.828 52.1566 241.985 53.6569 240.485C55.1571 238.985 56 236.95 56 234.828C56 232.706 55.1571 230.672 53.6569 229.171C52.1566 227.671 50.1217 226.828 48 226.828H24C21.8783 226.828 19.8434 227.671 18.3431 229.171C16.8429 230.672 16 232.706 16 234.828C16 236.95 16.8429 238.985 18.3431 240.485C19.8434 241.985 21.8783 242.828 24 242.828Z" fill="#F04B37"/>
<path d="M40 242.828H64L88 306.828H64L40 242.828ZM96 242.828H120L144 306.828H120L96 242.828Z" fill="#463C4B"/>
<path d="M64 386.828H128V290.828C128 281.991 135.163 274.828 144 274.828H80C71.163 274.828 64 281.991 64 290.828V386.828Z" fill="#555A6E"/>
<path d="M464 418.828H448C430.327 418.828 416 404.501 416 386.828C416 369.155 430.327 354.828 448 354.828H464C481.673 354.828 496 369.155 496 386.828C496 404.502 481.673 418.828 464 418.828Z" fill="#463C4B"/>
<path d="M448 418.828C465.673 418.828 480 404.501 480 386.828C480 369.155 465.673 354.828 448 354.828C430.327 354.828 416 369.155 416 386.828C416 404.501 430.327 418.828 448 418.828Z" fill="#555A6E"/>
<path d="M488 386.828H392C389.878 386.828 387.843 387.671 386.343 389.171C384.843 390.672 384 392.706 384 394.828C384 396.95 384.843 398.985 386.343 400.485C387.843 401.985 389.878 402.828 392 402.828H488C490.122 402.828 492.157 401.985 493.657 400.485C495.157 398.985 496 396.95 496 394.828C496 392.706 495.157 390.672 493.657 389.171C492.157 387.671 490.122 386.828 488 386.828Z" fill="#D73228"/>
<path d="M416 386.828H392C389.878 386.828 387.843 387.671 386.343 389.171C384.843 390.672 384 392.706 384 394.828C384 396.95 384.843 398.985 386.343 400.485C387.843 401.985 389.878 402.828 392 402.828H416C418.122 402.828 420.157 401.985 421.657 400.485C423.157 398.985 424 396.95 424 394.828C424 392.706 423.157 390.672 421.657 389.171C420.157 387.671 418.122 386.828 416 386.828Z" fill="#F04B37"/>
<path d="M472.616 366.433L264 306.828H128V386.828H488C488 377.358 481.722 369.035 472.616 366.433Z" fill="#FF6955"/>
<path d="M400.616 366.433L192 306.828H128V386.828H416C416 377.358 409.722 369.035 400.616 366.433Z" fill="#D73228"/>
<path d="M368 418.828H352C334.327 418.828 320 404.501 320 386.828C320 369.155 334.327 354.828 352 354.828H368C385.673 354.828 400 369.155 400 386.828C400 404.502 385.673 418.828 368 418.828ZM96 418.828H64C37.49 418.828 16 397.338 16 370.828C16 344.318 37.49 322.828 64 322.828H96C122.51 322.828 144 344.318 144 370.828C144 397.338 122.51 418.828 96 418.828Z" fill="#463C4B"/>
<path d="M64 418.828C90.5097 418.828 112 397.338 112 370.828C112 344.318 90.5097 322.828 64 322.828C37.4903 322.828 16 344.318 16 370.828C16 397.338 37.4903 418.828 64 418.828Z" fill="#555A6E"/>
<path d="M64 402.828C81.6731 402.828 96 388.501 96 370.828C96 353.155 81.6731 338.828 64 338.828C46.3269 338.828 32 353.155 32 370.828C32 388.501 46.3269 402.828 64 402.828Z" fill="#463C4B"/>
<path d="M64 386.828C72.8366 386.828 80 379.665 80 370.828C80 361.992 72.8366 354.828 64 354.828C55.1634 354.828 48 361.992 48 370.828C48 379.665 55.1634 386.828 64 386.828Z" fill="#8CAAC8"/>
<path d="M352 418.828C369.673 418.828 384 404.501 384 386.828C384 369.155 369.673 354.828 352 354.828C334.327 354.828 320 369.155 320 386.828C320 404.501 334.327 418.828 352 418.828Z" fill="#555A6E"/>
<path d="M352 402.828C360.837 402.828 368 395.665 368 386.828C368 377.992 360.837 370.828 352 370.828C343.163 370.828 336 377.992 336 386.828C336 395.665 343.163 402.828 352 402.828Z" fill="#D7E6F0"/>
<path d="M144 274.828C135.163 274.828 128 281.991 128 290.828V306.828H160V290.828C160 281.992 152.837 274.828 144 274.828Z" fill="#463C4B"/>
<path d="M168 258.828C150.327 258.828 136 273.155 136 290.828C136 299.665 143.163 306.828 152 306.828H200V290.828C200 273.155 185.673 258.828 168 258.828Z" fill="#AAC3D7"/>
<path d="M186.667 292.162C185.606 292.162 184.589 291.741 183.839 290.991C183.088 290.24 182.667 289.223 182.667 288.162C182.667 280.075 176.087 273.495 168 273.495C166.939 273.495 165.922 273.074 165.172 272.324C164.421 271.573 164 270.556 164 269.495C164 268.434 164.421 267.417 165.172 266.667C165.922 265.917 166.939 265.495 168 265.495C180.499 265.495 190.667 275.663 190.667 288.162C190.667 289.223 190.246 290.24 189.495 290.991C188.745 291.741 187.728 292.162 186.667 292.162Z" fill="#D7E6F0"/>
<path d="M180 274.828H195.708C198.525 279.689 200.006 285.21 200 290.828V298.828H180C173.373 298.828 168 293.455 168 286.828C168 280.201 173.373 274.828 180 274.828Z" fill="#463C4B"/>
<path d="M24 434.828H488C490.122 434.828 492.157 433.985 493.657 432.485C495.157 430.985 496 428.95 496 426.828C496 424.706 495.157 422.672 493.657 421.171C492.157 419.671 490.122 418.828 488 418.828H24C21.8783 418.828 19.8434 419.671 18.3431 421.171C16.8429 422.672 16 424.706 16 426.828C16 428.95 16.8429 430.985 18.3431 432.485C19.8434 433.985 21.8783 434.828 24 434.828Z" fill="#D73228"/>
<path d="M56 410.828C56 408.706 55.1571 406.672 53.6569 405.171C52.1566 403.671 50.1217 402.828 48 402.828C48 393.991 40.837 386.828 32 386.828C23.163 386.828 16 393.991 16 402.828C16 411.665 23.163 418.828 32 418.828H64L56 410.828Z" fill="#AAC3D7"/>
<path d="M228 198.828C226.939 197.767 226.343 196.328 226.343 194.828C226.343 193.328 226.939 191.889 228 190.828L340 78.8282C341.061 77.7674 342.5 77.1714 344 77.1714C345.5 77.1714 346.939 77.7674 348 78.8282L352 82.8282L236 198.828C235.475 199.354 234.851 199.771 234.165 200.055C233.479 200.339 232.743 200.486 232 200.486C231.257 200.486 230.521 200.339 229.835 200.055C229.149 199.771 228.525 199.354 228 198.828Z" fill="#555A6E"/>
<path d="M361.105 201.724L406.896 155.933C408.092 154.738 409.04 153.318 409.687 151.756C410.334 150.194 410.667 148.52 410.667 146.829C410.667 145.138 410.334 143.464 409.687 141.902C409.04 140.34 408.092 138.921 406.896 137.725L352 82.8281L288 146.828L342.895 201.723C344.091 202.919 345.51 203.868 347.072 204.515C348.634 205.162 350.309 205.496 352 205.496C353.691 205.496 355.365 205.163 356.928 204.516C358.49 203.868 359.909 202.92 361.105 201.724Z" fill="#555A6E"/>
<path d="M309.285 125.521L330.622 104.184L351.948 125.511L330.612 146.848L309.285 125.521ZM351.945 168.191L373.282 146.854L394.609 168.181L373.272 189.518L351.945 168.191ZM309.28 168.177L330.606 146.85L351.943 168.187L330.616 189.513L309.28 168.177ZM351.95 125.516L373.277 104.19L394.614 125.526L373.287 146.853L351.95 125.516Z" fill="#D7E6F0"/>
<path d="M284 198.828C285.061 197.767 285.657 196.328 285.657 194.828C285.657 193.328 285.061 191.889 284 190.828L172 78.8282C170.939 77.7674 169.5 77.1714 168 77.1714C166.5 77.1714 165.061 77.7674 164 78.8282L160 82.8282L276 198.828C276.525 199.354 277.149 199.771 277.835 200.055C278.521 200.339 279.257 200.486 280 200.486C280.743 200.486 281.479 200.339 282.165 200.055C282.851 199.771 283.475 199.354 284 198.828Z" fill="#555A6E"/>
<path d="M150.895 201.724L105.104 155.933C103.908 154.738 102.96 153.318 102.313 151.756C101.666 150.194 101.333 148.52 101.333 146.829C101.333 145.138 101.666 143.464 102.313 141.902C102.96 140.34 103.908 138.921 105.104 137.725L160 82.8281L224 146.828L169.105 201.723C167.909 202.919 166.49 203.868 164.928 204.515C163.366 205.162 161.691 205.496 160 205.496C158.309 205.496 156.635 205.163 155.072 204.516C153.51 203.868 152.091 202.92 150.895 201.724Z" fill="#555A6E"/>
<path d="M159.97 125.494L181.296 104.168L202.633 125.504L181.306 146.831L159.97 125.494ZM117.3 168.156L138.627 146.829L159.964 168.166L138.637 189.492L117.3 168.156ZM159.965 168.17L181.302 146.833L202.629 168.16L181.292 189.497L159.965 168.17ZM117.305 125.5L138.642 104.163L159.968 125.49L138.632 146.827L117.305 125.5Z" fill="#D7E6F0"/>
</g>
<defs>
<clipPath id="clip0_170_4281">
<rect width="512" height="512" fill="white"/>
</clipPath>
</defs>
</svg>
