<svg width="512" height="512" viewBox="0 0 512 512" fill="none" xmlns="http://www.w3.org/2000/svg">
<g clip-path="url(#clip0_170_5315)">
<g clip-path="url(#clip1_170_5315)">
<path d="M446.969 33.2925L387.32 83.3485C382.322 87.5424 378.304 92.78 375.547 98.6931C372.79 104.606 371.361 111.051 371.361 117.576V349.119H415.443V116.931C415.443 112.683 417.322 108.653 420.576 105.922L471.83 62.9125C472.341 62.4841 472.762 61.9593 473.069 61.3681C473.377 60.7769 473.565 60.1309 473.623 59.467C473.681 58.803 473.608 58.1342 473.408 57.4986C473.207 56.863 472.884 56.2731 472.455 55.7625L454.117 33.9165C453.252 32.8862 452.013 32.2417 450.672 32.1247C449.332 32.0077 448 32.4278 446.969 33.2925Z" fill="#678D98"/>
<path d="M472.455 55.7636L461.931 43.2266C461.901 43.9241 461.726 44.6078 461.417 45.2342C461.109 45.8606 460.673 46.4161 460.139 46.8656L401.77 95.9356C400.163 97.2845 398.87 98.9691 397.983 100.871C397.096 102.773 396.637 104.846 396.637 106.945V339.133H371.36V349.12H415.442V116.931C415.442 112.683 417.321 108.653 420.575 105.922L471.829 62.9126C472.34 62.4844 472.761 61.9599 473.069 61.3688C473.377 60.7777 473.566 60.1317 473.624 59.4678C473.682 58.8039 473.609 58.135 473.408 57.4994C473.208 56.8638 472.884 56.2739 472.455 55.7636Z" fill="#4E737C"/>
<path d="M20.3621 512H263.81L327.191 468.392H57.3211C35.6561 468.392 17.6811 484.191 14.2891 504.896C13.6781 508.621 16.5881 512 20.3621 512Z" fill="#678D98"/>
<path d="M484.499 480.908L455.764 451.413C454.94 450.569 454.379 449.504 454.148 448.348C453.917 447.191 454.026 445.993 454.462 444.897C459.816 431.444 462.523 416.652 461.881 401.146C459.614 346.355 416.663 302.606 361.917 299.437C339.147 298.119 317.826 303.98 299.981 314.95L282.528 325.47C276.817 328.913 272.093 333.773 268.813 339.58C265.534 345.386 263.811 351.941 263.812 358.61V512H471.384C487.582 512 495.804 492.511 484.499 480.908Z" fill="#DFF6FD"/>
<path d="M484.499 480.907L455.764 451.412C454.941 450.568 454.379 449.504 454.148 448.347C453.917 447.191 454.026 445.992 454.462 444.896C459.816 431.443 462.523 416.651 461.881 401.145C459.614 346.354 416.662 302.605 361.917 299.436C355.426 299.062 348.913 299.276 342.46 300.076C393.818 306.406 433.237 348.718 435.406 401.145C435.993 415.347 433.772 428.951 429.28 441.476C427.693 445.901 428.729 450.837 432.009 454.204L450.52 473.205C464.626 487.683 454.368 511.999 434.154 511.999H471.382C487.583 511.999 495.804 492.511 484.499 480.907Z" fill="#BEDEF4"/>
<path d="M366.227 447.242C389.133 441.404 402.968 418.101 397.13 395.196C391.291 372.29 367.989 358.454 345.083 364.292C322.177 370.131 308.341 393.433 314.18 416.339C320.019 439.245 343.321 453.081 366.227 447.242Z" fill="#FD8087"/>
<path d="M355.6 362.825C351.921 362.825 348.351 363.29 344.944 364.163C363.427 368.899 377.089 385.666 377.089 405.626C377.089 425.586 363.427 442.353 344.944 447.089C348.426 447.98 352.006 448.43 355.6 448.427C379.238 448.427 398.401 429.264 398.401 405.626C398.401 381.988 379.239 362.825 355.6 362.825Z" fill="#EE6161"/>
<path d="M340.216 434.841H161.344C153.774 434.841 146.562 431.211 142.054 425.13L106.176 376.737C105.003 375.113 104.518 373.093 104.824 371.115C105.13 369.136 106.204 367.357 107.813 366.164C109.421 364.972 111.435 364.461 113.417 364.743C115.4 365.024 117.192 366.076 118.404 367.67L154.282 416.062C155.102 417.162 156.167 418.057 157.393 418.674C158.619 419.291 159.972 419.614 161.344 419.617H340.215C342.785 419.617 345.33 418.954 347.574 417.7L425.316 374.243C426.19 373.739 427.154 373.415 428.154 373.287C429.154 373.16 430.169 373.233 431.141 373.501C432.112 373.769 433.021 374.227 433.814 374.849C434.607 375.471 435.269 376.245 435.76 377.125C436.252 378.004 436.564 378.973 436.679 379.975C436.793 380.976 436.707 381.99 436.427 382.958C436.146 383.926 435.676 384.829 435.043 385.614C434.411 386.399 433.629 387.05 432.743 387.531L355.001 430.989C350.481 433.511 345.392 434.837 340.216 434.841ZM478.873 346.746C477.317 346.745 475.799 346.268 474.522 345.379C473.245 344.489 472.272 343.23 471.732 341.771L449.261 280.967C444.066 266.92 435.225 254.509 423.646 245.011L329.14 167.528C317.782 158.217 313.854 142.814 319.362 129.201L369.716 4.75851C370.091 3.83197 370.645 2.98834 371.346 2.27578C372.046 1.56322 372.881 0.995685 373.801 0.605586C374.721 0.215487 375.709 0.0104605 376.709 0.00221231C377.708 -0.00603588 378.7 0.182656 379.626 0.557514C380.553 0.932372 381.396 1.48606 382.109 2.18695C382.821 2.88785 383.389 3.72223 383.779 4.64246C384.169 5.56269 384.374 6.55074 384.382 7.55021C384.391 8.54967 384.202 9.54097 383.827 10.4675L333.473 134.91C330.477 142.314 332.615 150.691 338.791 155.755L433.297 233.238C446.969 244.452 457.408 259.104 463.541 275.689L486.012 336.492C486.359 337.429 486.517 338.426 486.479 339.425C486.44 340.423 486.205 341.405 485.787 342.313C485.369 343.221 484.776 344.038 484.043 344.716C483.309 345.395 482.449 345.923 481.511 346.27C480.667 346.584 479.774 346.745 478.873 346.746Z" fill="#5DE1C4"/>
<path d="M417.176 384.846L424.219 397.446C427.899 404.029 436.219 406.383 442.802 402.703L481.508 381.066C494.87 373.597 501.012 357.665 496.121 343.159L491.421 329.219C489.093 322.315 481.068 319.221 474.708 322.776L466.097 327.589C463.854 328.843 462.088 330.804 461.076 333.166L456.162 344.636C455.15 346.998 453.385 348.959 451.141 350.213L422.43 366.262C415.85 369.943 413.496 378.263 417.176 384.846Z" fill="#678D98"/>
<path d="M496.123 343.159L491.423 329.219C489.095 322.315 481.07 319.221 474.71 322.776L473.504 323.45L477.202 334.42C482.092 348.926 475.951 364.857 462.589 372.327L423.883 393.964C423.474 394.193 423.052 394.401 422.621 394.587L424.22 397.447C427.9 404.03 436.22 406.384 442.803 402.704L481.509 381.067C494.871 373.596 501.013 357.665 496.123 343.159Z" fill="#4E737C"/>
<path d="M149.283 339.132C138.273 339.132 128.082 342.011 119.747 346.902C113.368 350.645 106.028 352.432 98.632 352.432H49.894C48.4552 352.432 47.0753 353.003 46.0579 354.021C45.0406 355.038 44.469 356.418 44.469 357.857V384.288C44.469 385.727 45.0406 387.107 46.0579 388.124C47.0753 389.141 48.4552 389.713 49.894 389.713H194.89C196.329 389.713 197.709 389.141 198.726 388.124C199.743 387.107 200.315 385.727 200.315 384.288V381.209C200.315 357.971 177.468 339.132 149.283 339.132Z" fill="#678D98"/>
<path d="M149.283 339.132C145.65 339.132 142.108 339.452 138.691 340.047C161.785 344.072 179.119 360.969 179.119 381.209V384.288C179.119 385.727 178.548 387.107 177.53 388.124C176.513 389.141 175.133 389.713 173.694 389.713H194.89C196.329 389.713 197.709 389.141 198.726 388.124C199.744 387.107 200.315 385.727 200.315 384.288V381.209C200.315 357.971 177.467 339.132 149.283 339.132Z" fill="#4E737C"/>
</g>
</g>
<defs>
<clipPath id="clip0_170_5315">
<rect width="512" height="512" fill="white"/>
</clipPath>
<clipPath id="clip1_170_5315">
<rect width="512" height="512" fill="white"/>
</clipPath>
</defs>
</svg>
