<svg width="512" height="512" viewBox="0 0 512 512" fill="none" xmlns="http://www.w3.org/2000/svg">
<g clip-path="url(#clip0_170_5221)">
<path d="M110.011 471.871C112.086 476.922 123.088 478.859 134.781 476.23C146.404 473.601 154.154 467.443 152.078 462.392C150.002 457.341 138.932 455.404 127.308 458.033C115.684 460.662 108.004 466.889 110.011 471.871Z" fill="#FFC299"/>
<path d="M110.011 471.871C112.086 476.921 123.088 478.859 134.781 476.23C145.712 473.739 153.185 468.134 152.424 463.36C148.895 464.882 144.329 465.99 139.347 466.405C129.591 467.166 121.012 465.021 117.622 461.492C111.81 464.467 108.627 468.48 110.011 471.871Z" fill="#3B3B3B"/>
<path d="M221.336 471.871C219.261 476.922 208.26 478.859 196.567 476.23C184.943 473.601 177.194 467.443 179.269 462.392C181.345 457.341 192.415 455.404 204.039 458.033C215.732 460.662 223.412 466.889 221.336 471.871Z" fill="#FFC299"/>
<path d="M221.405 471.871C219.33 476.921 208.329 478.859 196.636 476.23C185.704 473.739 178.231 468.134 178.992 463.36C182.521 464.882 187.088 465.99 192.069 466.405C201.825 467.166 210.404 465.021 213.795 461.492C219.607 464.467 222.789 468.48 221.405 471.871Z" fill="#3B3B3B"/>
<path d="M156.229 457.479L168.545 307.339H118.936V457.479C131.114 461.423 143.568 461.146 156.229 457.479Z" fill="#753838"/>
<path d="M175.187 457.479L162.871 307.339H212.48V457.479C200.233 461.354 187.849 461.216 175.187 457.479Z" fill="#753838"/>
<path d="M93.613 270.945C93.613 270.945 93.1979 275.65 89.5309 282.016C87.386 286.513 83.0963 296.269 87.5244 296.13C87.5244 296.13 88.1471 298.344 90.5687 297.306C90.5687 297.306 89.6692 300.697 93.5438 299.797C93.5438 299.797 94.4433 302.842 97.1417 300.42C99.84 297.998 100.74 292.602 102.262 292.048C104.614 291.218 102.331 297.791 104.476 298.898C106.621 300.005 107.797 290.387 106.413 284.299C105.029 278.21 106.897 271.499 106.897 271.499L93.613 270.945ZM237.803 270.945C237.803 270.945 238.218 275.65 241.885 282.016C244.03 286.513 248.32 296.269 243.892 296.13C243.892 296.13 243.269 298.344 240.848 297.306C240.848 297.306 241.747 300.697 237.872 299.797C237.872 299.797 236.973 302.842 234.275 300.42C231.576 297.998 230.677 292.602 229.155 292.048C226.802 291.218 229.085 297.791 226.941 298.898C224.796 300.005 223.62 290.387 225.003 284.299C226.387 278.21 224.519 271.499 224.519 271.499L237.803 270.945Z" fill="#FFC299"/>
<path d="M246.936 272.883C239.879 233.03 228.739 191.724 214.832 149.38H195.044L198.988 283.745L246.936 272.883Z" fill="#AA7B5F"/>
<path d="M221.129 278.694L210.197 281.185L210.681 190.478L221.129 278.694Z" fill="#99664D"/>
<path d="M84.5492 272.883C91.6065 233.03 102.746 191.724 116.653 149.38H136.441L132.497 283.745L84.5492 272.883Z" fill="#AA7B5F"/>
<path d="M110.288 278.694L121.289 281.185L120.804 190.478L110.288 278.694Z" fill="#99664D"/>
<path d="M202.448 145.436V330.309C178.024 336.19 153.392 336.19 128.969 330.309V145.436L165.777 133.466L202.448 145.436Z" fill="#8B4545"/>
<path d="M182.106 112.363V140.8C171.174 146.128 160.242 146.128 149.31 140.8V112.363H182.106Z" fill="#EFB086"/>
<path d="M218.638 331.831C204.87 336.687 190.511 339.666 175.948 340.687L167.438 218.015C166.953 211.304 168.06 204.177 172.212 198.78C174.357 196.013 175.602 191.931 175.602 187.433C175.602 181.691 173.457 176.571 170.205 174.218C174.08 171.866 176.917 166.262 176.917 159.758C176.917 155.122 175.533 148.134 173.319 142.53L170.69 133.397L184.32 129.799V139.416L214.902 149.379L210.681 190.409L218.638 331.831ZM159.412 198.85C163.425 204.108 164.532 211.096 164.048 217.807L155.468 340.687C141.146 339.719 126.893 336.675 112.778 331.831L120.873 190.478L116.653 149.449L147.096 139.624V129.868L160.726 133.466L158.097 142.599C155.883 148.203 154.499 155.191 154.499 159.827C154.499 166.331 157.336 172.073 161.488 174.426C158.097 176.64 156.022 181.76 156.022 187.503C155.883 192 157.267 196.082 159.412 198.85Z" fill="#AA7B5F"/>
<path d="M171.036 187.572C171.036 192.208 168.683 195.944 165.777 195.944C162.802 195.944 160.381 192.208 160.381 187.572C160.381 183.075 162.733 179.338 165.777 179.338C168.614 179.338 171.036 183.075 171.036 187.572ZM172.904 159.412C172.904 165.639 169.721 170.69 165.847 170.69C161.764 170.69 158.582 165.639 158.582 159.412C158.582 153.323 161.764 148.272 165.847 148.272C169.652 148.272 172.904 153.392 172.904 159.412Z" fill="#AA7B5F"/>
<path d="M209.09 97.3494C209.09 102.954 204.592 107.52 198.919 107.52C193.245 107.52 188.679 103.023 188.679 97.3494C188.679 91.745 193.245 87.1094 198.919 87.1094C204.592 87.1094 209.09 91.6759 209.09 97.3494Z" fill="#FFC299"/>
<path d="M205.769 97.3489C205.769 101.154 202.724 104.199 198.919 104.199C195.114 104.199 192.069 101.154 192.069 97.3489C192.069 93.5435 195.183 90.4992 198.919 90.4992C202.724 90.43 205.769 93.5435 205.769 97.3489Z" fill="#EFB086"/>
<path d="M142.668 97.3494C142.668 102.954 138.171 107.52 132.497 107.52C126.824 107.52 122.257 103.023 122.257 97.3494C122.257 91.745 126.824 87.1094 132.497 87.1094C138.171 87.1094 142.668 91.6759 142.668 97.3494Z" fill="#FFC299"/>
<path d="M139.347 97.3489C139.347 101.154 136.303 104.199 132.497 104.199C128.692 104.199 125.648 101.154 125.648 97.3489C125.648 93.5435 128.761 90.4992 132.497 90.4992C136.303 90.43 139.347 93.5435 139.347 97.3489Z" fill="#EFB086"/>
<path d="M204.8 74.0326C204.8 95.6196 187.157 113.263 165.57 113.263C143.775 113.263 126.132 95.6196 126.132 74.0326C126.132 52.238 143.775 34.5947 165.57 34.5947C187.157 34.5947 204.8 52.238 204.8 74.0326Z" fill="#902C0C"/>
<path d="M200.649 96.3805C200.649 115.753 184.873 131.529 165.431 131.529C155.745 131.529 146.958 127.585 140.592 121.219C134.016 114.623 130.311 105.695 130.283 96.3805C130.906 87.7318 134.919 80.5361 135.68 73.2713C145.228 77.1459 155.191 76.0388 165.431 72.2334C165.085 74.5167 163.771 76.5232 161.557 78.3913C171.797 79.3599 185.565 74.3783 194.006 68.5664C198.089 79.3599 200.026 86.2097 200.649 96.3805Z" fill="#FFC299"/>
<path d="M186.05 95.8268C186.05 98.802 183.836 101.154 181.206 101.154C178.508 101.154 176.294 98.7328 176.294 95.8268C176.294 92.9209 178.508 90.4993 181.206 90.4993C183.836 90.4993 186.05 92.8517 186.05 95.8268ZM186.949 89.2539C186.811 89.2539 186.603 89.1847 186.534 89.1155C183.213 86.6939 179.823 86.4171 176.156 88.216C175.81 88.4236 175.325 88.216 175.118 87.8701C174.91 87.5241 175.118 87.0398 175.464 86.8322C179.615 84.7566 183.628 85.1717 187.433 87.8701C187.779 88.1468 187.849 88.562 187.572 88.9079C187.5 89.0082 187.407 89.0912 187.299 89.1511C187.192 89.2109 187.072 89.246 186.949 89.2539ZM144.882 95.8268C144.882 98.802 147.096 101.154 149.725 101.154C152.424 101.154 154.638 98.7328 154.638 95.8268C154.638 92.9209 152.424 90.4993 149.725 90.4993C147.096 90.4993 144.882 92.8517 144.882 95.8268ZM143.913 89.2539C143.706 89.2539 143.429 89.1155 143.291 88.9771C143.014 88.6312 143.083 88.1468 143.429 87.9393C147.165 85.1717 151.178 84.8258 155.399 86.9014C155.745 87.109 155.952 87.5241 155.745 87.9393C155.537 88.2852 155.122 88.4928 154.707 88.2852C151.04 86.4863 147.65 86.7631 144.329 89.1847C144.259 89.1847 144.121 89.2539 143.913 89.2539Z" fill="#3B3B3B"/>
<path d="M165.016 118.659C161.557 118.659 158.028 117.414 154.638 114.923C154.477 114.811 154.339 114.669 154.234 114.503C154.129 114.337 154.058 114.152 154.026 113.958C153.994 113.765 154.001 113.567 154.046 113.376C154.092 113.185 154.176 113.006 154.292 112.848C154.776 112.156 155.745 112.017 156.368 112.502C162.179 116.722 167.853 116.722 173.665 112.502C174.357 112.017 175.256 112.156 175.741 112.848C176.225 113.539 176.086 114.439 175.395 114.923C171.935 117.414 168.476 118.659 165.016 118.659ZM190.547 108.696C190.547 110.772 188.333 112.502 185.565 112.502C182.798 112.502 180.515 110.841 180.515 108.696C180.515 106.621 182.798 104.96 185.565 104.96C188.333 104.96 190.547 106.69 190.547 108.696ZM150.348 108.696C150.348 110.772 148.134 112.502 145.366 112.502C142.599 112.502 140.316 110.841 140.316 108.696C140.316 106.621 142.599 104.96 145.366 104.96C148.134 104.96 150.348 106.69 150.348 108.696Z" fill="#EFB086"/>
<path d="M180.999 94.3045C180.999 95.1348 180.376 95.8267 179.477 95.8267C178.716 95.8267 178.024 95.204 178.024 94.3045C178.024 93.5435 178.646 92.8516 179.477 92.8516C180.376 92.9208 180.999 93.5435 180.999 94.3045ZM149.864 94.3045C149.864 95.1348 150.486 95.8267 151.386 95.8267C152.147 95.8267 152.839 95.204 152.839 94.3045C152.839 93.5435 152.216 92.8516 151.386 92.8516C150.556 92.9208 149.864 93.5435 149.864 94.3045Z" fill="white"/>
<path d="M341.241 130.006C341.241 156.368 334.322 177.678 325.743 177.678C317.025 177.678 310.106 156.298 310.106 130.006C310.106 103.645 317.025 82.3351 325.743 82.3351C334.322 82.2659 341.241 103.645 341.241 130.006ZM379.987 130.006C379.987 156.368 373.068 177.678 364.489 177.678C355.771 177.678 348.852 156.298 348.852 130.006C348.852 103.645 355.771 82.3351 364.489 82.3351C373.068 82.2659 379.987 103.645 379.987 130.006Z" fill="#3B3B3B"/>
<path d="M390.711 471.939C388.774 476.921 378.257 478.789 367.118 476.229C356.048 473.669 348.714 467.58 350.651 462.599C352.588 457.617 363.174 455.749 374.244 458.309C385.315 460.938 392.649 467.027 390.711 471.939Z" fill="#FFC299"/>
<path d="M390.711 472.008C388.774 476.99 378.257 478.858 367.118 476.298C356.74 473.876 349.613 468.341 350.374 463.567C353.695 465.089 358.054 466.196 362.828 466.542C372.099 467.304 380.264 465.159 383.447 461.699C388.982 464.605 392.026 468.618 390.711 472.008Z" fill="#3B3B3B"/>
<path d="M299.382 471.939C301.319 476.921 311.836 478.789 322.975 476.229C334.045 473.669 341.379 467.58 339.442 462.599C337.505 457.617 326.919 455.749 315.849 458.309C304.709 460.938 297.375 467.027 299.382 471.939Z" fill="#FFC299"/>
<path d="M299.382 472.008C301.319 476.99 311.836 478.858 322.975 476.298C333.354 473.876 340.48 468.341 339.719 463.567C336.398 465.089 332.039 466.196 327.265 466.542C317.994 467.304 309.829 465.159 306.646 461.699C301.042 464.605 297.998 468.618 299.382 472.008Z" fill="#3B3B3B"/>
<path d="M400.813 457.064L398.253 352.381C397.769 333.008 395.693 313.704 392.026 294.608L386.422 265.41H303.671L298.067 294.608C294.4 313.635 292.324 333.008 291.84 352.381L289.28 457.064C326.025 465.09 364.069 465.09 400.813 457.064Z" fill="#753838"/>
<path d="M400.536 445.855C382.616 449.799 364.004 451.805 344.977 451.805C326.227 451.805 307.615 449.799 289.557 445.993L289.695 439.213L290.387 439.351C326.227 446.962 364.627 446.962 399.706 439.213L400.398 439.074L400.536 445.855Z" fill="#FFEEB0"/>
<path d="M400.398 439.075C382.893 442.742 365.388 444.748 348.367 444.887H341.587C324.636 444.748 307.615 442.88 289.695 439.075L289.833 432.294L290.664 432.433C307.062 435.823 322.698 437.76 338.197 438.106V265.271H351.758V438.106C367.395 437.691 383.377 435.823 399.429 432.433L400.259 432.294L400.398 439.075Z" fill="#FFEEB0"/>
<path d="M400.398 442.465C382.063 446.547 363.451 448.415 344.977 448.415C326.504 448.415 308.03 446.547 289.695 442.603L289.833 435.684H289.972C307.2 439.351 324.29 441.358 341.587 441.496V265.271H348.367V441.496C365.734 441.358 382.962 439.351 400.121 435.684H400.259L400.398 442.465Z" fill="#5B2828"/>
<path d="M344.977 454.504C344.009 454.504 343.248 455.334 343.248 456.372C343.248 457.409 343.939 458.101 344.977 458.101C346.015 458.101 346.845 457.409 346.845 456.372C346.845 455.334 346.015 454.504 344.977 454.504ZM352.311 454.504C351.343 454.504 350.582 455.334 350.582 456.372C350.582 457.202 351.412 458.101 352.45 458.101C353.488 458.101 354.179 457.271 354.179 456.233C354.179 455.195 353.349 454.504 352.311 454.504ZM337.712 454.504C336.744 454.504 335.983 455.195 335.844 456.233C335.844 457.271 336.675 458.101 337.712 458.101C338.75 458.101 339.442 457.271 339.581 456.372C339.581 455.334 338.681 454.504 337.712 454.504ZM359.922 454.158H359.645C358.677 454.158 357.916 454.988 357.916 456.026C358.054 457.064 358.746 457.755 359.784 457.755H359.922C360.752 457.617 361.514 456.925 361.514 456.026V455.887C361.514 455.057 360.752 454.158 359.922 454.158ZM330.378 454.158H330.24C329.41 454.158 328.649 454.988 328.51 455.887C328.51 456.925 329.202 457.617 330.24 457.755H330.378C331.209 457.755 332.108 457.064 332.108 456.026V455.749C332.108 454.919 331.209 454.158 330.378 454.158ZM366.91 453.604C365.942 453.742 365.181 454.642 365.319 455.611C365.319 456.648 366.149 457.202 367.049 457.202H367.187C368.017 457.202 368.778 456.51 368.778 455.611V455.334C368.778 454.296 367.948 453.604 366.91 453.604ZM323.183 453.604C322.214 453.604 321.315 454.296 321.176 455.334C321.176 456.372 321.868 457.202 322.906 457.202C323.875 457.202 324.774 456.51 324.774 455.611V455.334C324.774 454.504 324.082 453.742 323.183 453.604ZM374.521 453.051H374.244C373.276 453.051 372.515 454.088 372.653 454.919C372.653 455.957 373.483 456.648 374.383 456.648H374.659C375.49 456.51 376.251 455.611 376.251 454.642C376.112 453.742 375.421 453.051 374.521 453.051ZM315.849 453.051H315.572C314.742 453.051 313.981 453.742 313.842 454.642C313.704 455.68 314.396 456.51 315.434 456.648H315.572C316.541 456.648 317.302 455.957 317.44 454.919V454.642C317.44 453.881 316.748 453.189 315.849 453.051ZM308.584 452.151H308.307C307.477 452.151 306.716 452.843 306.577 453.604C306.439 454.642 307.131 455.611 308.169 455.749H308.307C309.276 455.749 310.037 455.057 310.175 454.158V453.881C310.175 453.051 309.414 452.289 308.584 452.151ZM381.717 452.151H381.44C380.471 452.289 379.849 453.189 379.987 454.158C379.987 454.988 380.817 455.749 381.717 455.749C381.855 455.749 381.855 455.611 381.994 455.611C382.824 455.472 383.446 454.78 383.446 453.881V453.604C383.446 452.774 382.547 452.151 381.717 452.151ZM301.388 451.044H301.111C300.281 451.044 299.52 451.736 299.243 452.635C299.105 453.673 299.797 454.504 300.835 454.642H301.111C301.942 454.642 302.703 454.088 302.841 453.189V452.912C302.841 452.013 302.288 451.182 301.388 451.044ZM389.051 451.044H388.774C387.736 451.182 387.044 452.22 387.183 453.051C387.321 454.088 388.151 454.642 389.051 454.642H389.328C390.158 454.504 390.781 453.604 390.781 452.774V452.497C390.573 451.736 389.881 451.044 389.051 451.044ZM294.054 449.868H293.639C292.947 449.868 292.186 450.421 292.048 451.321C291.909 452.359 292.463 453.189 293.501 453.327C293.639 453.466 293.639 453.466 293.777 453.466C294.608 453.466 295.369 452.774 295.645 451.874V451.598C295.645 450.767 294.954 450.006 294.054 449.868ZM396.177 449.729H395.901C394.863 450.006 394.309 450.906 394.448 451.874C394.586 452.705 395.416 453.327 396.177 453.327H396.592C397.284 453.051 398.045 452.289 398.045 451.459V451.182C397.769 450.283 397.077 449.729 396.177 449.729Z" fill="#FFEEB0"/>
<path d="M356.394 423.784C355.425 423.784 354.595 424.614 354.595 425.583C354.595 426.413 355.425 427.243 356.394 427.243C357.362 427.243 358.054 426.413 358.054 425.583C358.054 424.545 357.362 423.784 356.394 423.784ZM356.394 417.073C355.425 417.073 354.595 417.903 354.595 418.733C354.595 419.702 355.425 420.532 356.394 420.532C357.362 420.532 358.054 419.702 358.054 418.733C358.054 417.903 357.362 417.073 356.394 417.073ZM356.394 410.43C355.425 410.43 354.595 411.122 354.595 412.091C354.595 413.06 355.425 413.89 356.394 413.89C357.362 413.89 358.054 413.06 358.054 412.091C358.054 411.122 357.362 410.43 356.394 410.43ZM356.394 403.788C355.425 403.788 354.595 404.48 354.595 405.449C354.595 406.417 355.425 407.248 356.394 407.248C357.362 407.248 358.054 406.417 358.054 405.449C358.054 404.48 357.362 403.788 356.394 403.788ZM356.394 397.008C355.425 397.008 354.595 397.838 354.595 398.807C354.595 399.775 355.425 400.467 356.394 400.467C357.362 400.467 358.054 399.775 358.054 398.807C358.054 397.838 357.362 397.008 356.394 397.008ZM356.394 390.366C355.425 390.366 354.595 391.196 354.595 392.164C354.595 393.133 355.425 393.825 356.394 393.825C357.362 393.825 358.054 393.133 358.054 392.164C358.054 391.196 357.362 390.366 356.394 390.366ZM356.394 383.723C355.425 383.723 354.595 384.554 354.595 385.522C354.595 386.491 355.425 387.183 356.394 387.183C357.362 387.183 358.054 386.491 358.054 385.522C358.054 384.554 357.362 383.723 356.394 383.723ZM356.394 377.012C355.425 377.012 354.595 377.704 354.595 378.811C354.595 379.641 355.425 380.471 356.394 380.471C357.362 380.471 358.054 379.641 358.054 378.811C358.054 377.704 357.362 377.012 356.394 377.012ZM356.394 370.37C355.425 370.37 354.595 371.062 354.595 372.03C354.595 372.999 355.425 373.829 356.394 373.829C357.362 373.829 358.054 372.999 358.054 372.03C358.054 371.062 357.362 370.37 356.394 370.37ZM356.394 363.728C355.425 363.728 354.595 364.42 354.595 365.388C354.595 366.357 355.425 367.187 356.394 367.187C357.362 367.187 358.054 366.357 358.054 365.388C358.054 364.42 357.362 363.728 356.394 363.728ZM356.394 357.086C355.425 357.086 354.595 357.777 354.595 358.746C354.595 359.715 355.425 360.545 356.394 360.545C357.362 360.545 358.054 359.715 358.054 358.746C358.054 357.777 357.362 357.086 356.394 357.086ZM356.394 350.305C355.425 350.305 354.595 351.135 354.595 352.104C354.595 353.073 355.425 353.764 356.394 353.764C357.362 353.764 358.054 353.073 358.054 352.104C358.054 351.135 357.362 350.305 356.394 350.305ZM356.394 343.663C355.425 343.663 354.595 344.493 354.595 345.462C354.595 346.43 355.425 347.122 356.394 347.122C357.362 347.122 358.054 346.43 358.054 345.462C358.054 344.493 357.362 343.663 356.394 343.663ZM356.394 337.021C355.425 337.021 354.595 337.851 354.595 338.82C354.595 339.65 355.425 340.48 356.394 340.48C357.362 340.48 358.054 339.65 358.054 338.82C358.054 337.782 357.362 337.021 356.394 337.021ZM356.394 330.309C355.425 330.309 354.595 331.001 354.595 331.97C354.595 332.938 355.425 333.769 356.394 333.769C357.362 333.769 358.054 332.938 358.054 331.97C358.054 331.001 357.362 330.309 356.394 330.309ZM356.394 323.667C355.425 323.667 354.595 324.359 354.595 325.328C354.595 326.296 355.425 327.127 356.394 327.127C357.362 327.127 358.054 326.296 358.054 325.328C358.054 324.359 357.362 323.667 356.394 323.667ZM356.394 317.025C355.425 317.025 354.595 317.717 354.595 318.686C354.595 319.654 355.425 320.484 356.394 320.484C357.362 320.484 358.054 319.654 358.054 318.686C358.054 317.717 357.362 317.025 356.394 317.025ZM356.394 310.383C355.425 310.383 354.595 311.075 354.595 312.043C354.595 313.012 355.425 313.704 356.394 313.704C357.362 313.704 358.054 313.012 358.054 312.043C358.054 311.075 357.362 310.383 356.394 310.383ZM356.394 303.602C355.425 303.602 354.595 304.433 354.595 305.401C354.595 306.37 355.425 307.062 356.394 307.062C357.362 307.062 358.054 306.37 358.054 305.401C358.054 304.433 357.362 303.602 356.394 303.602ZM356.394 296.96C355.425 296.96 354.595 297.79 354.595 298.759C354.595 299.728 355.425 300.42 356.394 300.42C357.362 300.42 358.054 299.728 358.054 298.759C358.054 297.79 357.362 296.96 356.394 296.96ZM356.394 290.249C355.425 290.249 354.595 291.079 354.595 292.048C354.595 292.878 355.425 293.708 356.394 293.708C357.362 293.708 358.054 292.878 358.054 292.048C358.054 291.079 357.362 290.249 356.394 290.249ZM356.394 283.607C355.425 283.607 354.595 284.437 354.595 285.267C354.595 286.236 355.425 287.066 356.394 287.066C357.362 287.066 358.054 286.236 358.054 285.267C358.054 284.437 357.362 283.607 356.394 283.607ZM356.394 276.964C355.425 276.964 354.595 277.656 354.595 278.625C354.595 279.594 355.425 280.424 356.394 280.424C357.362 280.424 358.054 279.594 358.054 278.625C358.054 277.656 357.362 276.964 356.394 276.964ZM356.394 270.322C355.425 270.322 354.595 271.014 354.595 271.983C354.595 272.951 355.425 273.782 356.394 273.782C357.362 273.782 358.054 272.951 358.054 271.983C358.054 271.014 357.362 270.322 356.394 270.322ZM356.394 433.816C355.84 433.816 355.425 433.678 355.148 433.401C354.871 432.986 354.595 432.571 354.595 432.156C354.595 431.602 354.871 431.187 355.148 430.91C355.84 430.218 356.947 430.218 357.57 430.91C357.846 431.187 357.985 431.602 357.985 432.156C357.985 432.571 357.846 432.986 357.57 433.401C357.224 433.678 356.809 433.816 356.394 433.816ZM363.451 430.149C362.482 430.149 361.79 430.98 361.929 431.948C361.929 432.917 362.621 433.609 363.589 433.609H363.728C364.696 433.47 365.388 432.778 365.388 431.81C365.321 431.345 365.088 430.921 364.731 430.616C364.375 430.31 363.92 430.144 363.451 430.149ZM370.646 429.596C369.678 429.734 368.986 430.564 369.124 431.464C369.124 432.294 369.955 432.986 370.785 432.986H370.923C371.892 432.848 372.584 432.017 372.584 431.118C372.445 430.288 371.615 429.596 370.646 429.596ZM378.119 428.904H377.842C376.874 428.904 376.182 429.873 376.32 430.772C376.458 431.602 377.15 432.294 377.981 432.294C378.119 432.294 378.119 432.294 378.257 432.156C378.685 432.062 379.068 431.826 379.344 431.487C379.621 431.148 379.774 430.725 379.779 430.288C379.641 429.596 378.949 428.904 378.119 428.904ZM385.176 427.797H384.899V427.935C384.069 427.935 383.516 428.766 383.516 429.596V429.873C383.654 430.703 384.484 431.395 385.384 431.256C386.214 431.118 386.768 430.426 386.768 429.596V429.319C386.737 428.914 386.558 428.534 386.264 428.253C385.97 427.972 385.583 427.809 385.176 427.797ZM392.234 426.759H391.957C391.126 426.897 390.435 427.728 390.573 428.627C390.711 429.457 391.542 430.149 392.303 430.149C392.303 430.149 392.441 430.011 392.579 430.011C393.41 429.873 393.963 429.181 393.963 428.35V428.074C393.894 427.313 393.064 426.759 392.234 426.759ZM332.039 425.514C332.039 426.344 332.731 427.174 333.699 427.174C334.668 427.174 335.498 426.344 335.498 425.514C335.498 424.545 334.668 423.715 333.699 423.715C332.731 423.784 332.039 424.545 332.039 425.514ZM332.039 418.733C332.039 419.702 332.731 420.532 333.699 420.532C334.668 420.532 335.498 419.702 335.498 418.733C335.498 417.903 334.668 417.073 333.699 417.073C332.731 417.073 332.039 417.903 332.039 418.733ZM332.039 412.091C332.039 413.06 332.731 413.89 333.699 413.89C334.668 413.89 335.498 413.06 335.498 412.091C335.498 411.122 334.668 410.43 333.699 410.43C332.731 410.43 332.039 411.122 332.039 412.091ZM332.039 405.449C332.039 406.417 332.731 407.248 333.699 407.248C334.668 407.248 335.498 406.417 335.498 405.449C335.498 404.48 334.668 403.788 333.699 403.788C332.731 403.788 332.039 404.48 332.039 405.449ZM332.039 398.737C332.039 399.706 332.731 400.398 333.699 400.398C334.668 400.398 335.498 399.706 335.498 398.737C335.498 397.769 334.668 396.938 333.699 396.938C332.731 397.008 332.039 397.838 332.039 398.737ZM332.039 392.095C332.039 393.064 332.731 393.756 333.699 393.756C334.668 393.756 335.498 393.064 335.498 392.095C335.498 391.127 334.668 390.296 333.699 390.296C332.731 390.366 332.039 391.196 332.039 392.095ZM332.039 385.453C332.039 386.422 332.731 387.114 333.699 387.114C334.668 387.114 335.498 386.422 335.498 385.453C335.498 384.484 334.668 383.654 333.699 383.654C332.731 383.723 332.039 384.484 332.039 385.453ZM332.039 378.811C332.039 379.641 332.731 380.471 333.699 380.471C334.668 380.471 335.498 379.641 335.498 378.811C335.498 377.704 334.668 377.012 333.699 377.012C332.731 377.012 332.039 377.704 332.039 378.811ZM332.039 372.03C332.039 372.999 332.731 373.829 333.699 373.829C334.668 373.829 335.498 372.999 335.498 372.03C335.498 371.062 334.668 370.37 333.699 370.37C332.731 370.37 332.039 371.062 332.039 372.03ZM332.039 365.388C332.039 366.357 332.731 367.187 333.699 367.187C334.668 367.187 335.498 366.357 335.498 365.388C335.498 364.42 334.668 363.728 333.699 363.728C332.731 363.728 332.039 364.42 332.039 365.388ZM332.039 358.746C332.039 359.715 332.731 360.545 333.699 360.545C334.668 360.545 335.498 359.715 335.498 358.746C335.498 357.777 334.668 357.086 333.699 357.086C332.731 357.086 332.039 357.777 332.039 358.746ZM332.039 352.035C332.039 353.003 332.731 353.695 333.699 353.695C334.668 353.695 335.498 353.003 335.498 352.035C335.498 351.066 334.668 350.236 333.699 350.236C332.731 350.305 332.039 351.135 332.039 352.035ZM332.039 345.393C332.039 346.361 332.731 347.053 333.699 347.053C334.668 347.053 335.498 346.361 335.498 345.393C335.498 344.424 334.668 343.594 333.699 343.594C332.731 343.663 332.039 344.424 332.039 345.393ZM332.039 338.75C332.039 339.581 332.731 340.411 333.699 340.411C334.668 340.411 335.498 339.581 335.498 338.75C335.498 337.782 334.668 336.951 333.699 336.951C332.731 337.021 332.039 337.782 332.039 338.75ZM332.039 331.97C332.039 332.938 332.731 333.769 333.699 333.769C334.668 333.769 335.498 332.938 335.498 331.97C335.498 331.001 334.668 330.309 333.699 330.309C332.731 330.309 332.039 331.001 332.039 331.97ZM332.039 325.328C332.039 326.296 332.731 327.127 333.699 327.127C334.668 327.127 335.498 326.296 335.498 325.328C335.498 324.359 334.668 323.667 333.699 323.667C332.731 323.667 332.039 324.359 332.039 325.328ZM332.039 318.686C332.039 319.654 332.731 320.484 333.699 320.484C334.668 320.484 335.498 319.654 335.498 318.686C335.498 317.717 334.668 317.025 333.699 317.025C332.731 317.025 332.039 317.717 332.039 318.686ZM332.039 311.974C332.039 312.943 332.731 313.635 333.699 313.635C334.668 313.635 335.498 312.943 335.498 311.974C335.498 311.006 334.668 310.314 333.699 310.314C332.731 310.383 332.039 311.075 332.039 311.974ZM332.039 305.332C332.039 306.301 332.731 306.993 333.699 306.993C334.668 306.993 335.498 306.301 335.498 305.332C335.498 304.363 334.668 303.533 333.699 303.533C332.731 303.602 332.039 304.433 332.039 305.332ZM332.039 298.69C332.039 299.658 332.731 300.35 333.699 300.35C334.668 300.35 335.498 299.658 335.498 298.69C335.498 297.721 334.668 296.891 333.699 296.891C332.731 296.96 332.039 297.721 332.039 298.69ZM332.039 292.048C332.039 292.878 332.731 293.708 333.699 293.708C334.668 293.708 335.498 292.878 335.498 292.048C335.498 291.079 334.668 290.249 333.699 290.249C332.731 290.249 332.039 291.079 332.039 292.048ZM332.039 285.267C332.039 286.236 332.731 287.066 333.699 287.066C334.668 287.066 335.498 286.236 335.498 285.267C335.498 284.437 334.668 283.607 333.699 283.607C332.731 283.607 332.039 284.437 332.039 285.267ZM332.039 278.625C332.039 279.594 332.731 280.424 333.699 280.424C334.668 280.424 335.498 279.594 335.498 278.625C335.498 277.656 334.668 276.964 333.699 276.964C332.731 276.964 332.039 277.656 332.039 278.625ZM332.039 271.983C332.039 272.951 332.731 273.782 333.699 273.782C334.668 273.782 335.498 272.951 335.498 271.983C335.498 271.014 334.668 270.322 333.699 270.322C332.731 270.322 332.039 271.014 332.039 271.983ZM333.63 433.816C334.184 433.816 334.599 433.678 334.876 433.401C335.152 432.986 335.429 432.571 335.429 432.156C335.429 431.602 335.152 431.187 334.876 430.91C334.184 430.218 333.077 430.218 332.454 430.91C332.177 431.187 332.039 431.602 332.039 432.156C332.039 432.571 332.177 432.986 332.454 433.401C332.869 433.678 333.284 433.816 333.63 433.816ZM324.705 431.741C324.705 432.709 325.397 433.401 326.365 433.54H326.504C327.472 433.54 328.164 432.848 328.164 431.879C328.203 431.658 328.192 431.43 328.133 431.214C328.074 430.997 327.969 430.795 327.824 430.624C327.678 430.452 327.497 430.315 327.293 430.221C327.089 430.127 326.867 430.079 326.642 430.08C325.674 430.149 324.843 430.841 324.705 431.741ZM317.509 431.118C317.509 432.087 318.201 432.917 319.17 432.986H319.308C320.138 432.986 320.969 432.294 320.969 431.464C321.003 431.239 320.99 431.01 320.93 430.791C320.87 430.572 320.765 430.368 320.622 430.192C320.478 430.016 320.3 429.872 320.097 429.77C319.895 429.667 319.673 429.608 319.446 429.596C318.478 429.596 317.648 430.288 317.509 431.118ZM310.314 430.288C310.314 431.256 311.005 432.087 311.836 432.156C311.974 432.294 311.974 432.294 312.112 432.294C312.943 432.294 313.635 431.602 313.773 430.772C313.911 429.803 313.219 428.904 312.251 428.904H311.974C311.144 428.904 310.452 429.596 310.314 430.288ZM303.256 429.319V429.596C303.256 430.426 303.81 431.118 304.64 431.256C305.609 431.395 306.37 430.703 306.508 429.873V429.596C306.508 428.766 305.955 427.935 305.124 427.935V427.797H304.848C304.086 427.797 303.395 428.489 303.256 429.319ZM296.061 428.074V428.35C296.061 429.181 296.614 429.873 297.444 430.011C297.583 430.011 297.721 430.149 297.721 430.149C298.551 430.149 299.382 429.457 299.451 428.627C299.589 427.658 298.897 426.828 298.067 426.759H297.79C297.029 426.759 296.199 427.313 296.061 428.074Z" fill="#5B2828"/>
<path d="M427.451 267.901H401.643L386.422 198.089V256.762L387.529 267.901C359.161 273.367 330.932 273.367 302.495 267.901L303.602 256.762V198.089L288.519 267.901H262.573L285.821 158.029C286.59 154.246 288.549 150.808 291.413 148.218C294.276 145.629 297.893 144.024 301.734 143.637L345.047 138.863L388.359 143.637C396.247 144.468 402.612 150.28 404.272 158.029L427.451 267.901Z" fill="#894C4C"/>
<path d="M365.042 141.146L363.52 141.008C363.435 145.886 361.435 150.534 357.954 153.951C354.472 157.369 349.787 159.28 344.908 159.274C335.014 159.274 326.711 151.04 326.642 141.008H326.435C329.686 139.693 332.523 137.341 334.391 134.435C337.09 130.214 337.92 124.749 336.467 119.905H354.595C353.211 124.749 353.972 130.214 356.67 134.435C358.677 137.41 361.652 139.832 365.042 141.146Z" fill="#EFB086"/>
<path d="M386.768 258.975C373.345 261.95 359.369 263.473 345.116 263.473C331.001 263.473 317.025 261.95 303.464 259.114L303.741 256.83V253.925C331.001 259.46 359.922 259.46 386.56 253.786V256.761L386.768 258.975Z" fill="#FFEEB0"/>
<path d="M350.374 167.23H339.719V252.679C328.026 252.264 316.125 250.88 303.602 248.32V253.648C316.886 256.485 329.548 257.868 342.279 258.007H347.607C360.268 257.868 373.414 256.346 386.422 253.786V248.459C374.314 250.88 362.136 252.264 350.305 252.679V167.23H350.374Z" fill="#FFEEB0"/>
<path d="M347.607 167.23H342.279V255.308C329.41 255.308 316.471 253.786 303.602 251.088V256.554C330.946 262.17 359.147 262.17 386.491 256.554V251.088C373.76 253.786 360.683 255.308 347.676 255.308V167.23H347.607Z" fill="#5B2828"/>
<path d="M345.046 265.48C344.865 265.48 344.685 265.515 344.517 265.585C344.349 265.654 344.197 265.756 344.068 265.885C343.94 266.013 343.838 266.166 343.768 266.334C343.698 266.502 343.663 266.682 343.663 266.863C343.663 267.694 344.216 268.247 345.046 268.247C345.738 268.247 346.43 267.694 346.43 266.863C346.43 266.171 345.738 265.48 345.046 265.48ZM350.72 265.48C349.89 265.48 349.336 266.171 349.336 266.863C349.336 267.555 350.028 268.247 350.858 268.247C351.55 268.247 352.242 267.555 352.242 266.863C352.242 266.033 351.55 265.48 350.72 265.48ZM339.373 265.48C338.543 265.48 337.989 266.033 337.851 266.863C337.851 267.555 338.543 268.247 339.373 268.247C340.065 268.247 340.618 267.555 340.757 266.863C340.688 266.171 339.996 265.48 339.373 265.48ZM356.739 265.203H356.463C355.632 265.203 355.079 265.895 355.079 266.725C355.217 267.555 355.771 268.109 356.601 268.109H356.739C357.293 267.97 357.985 267.417 357.985 266.725V266.587C357.916 265.895 357.293 265.203 356.739 265.203ZM333.492 265.203C332.8 265.203 332.246 265.895 332.108 266.587C332.108 267.417 332.662 267.97 333.492 268.109C334.184 268.109 334.876 267.555 334.876 266.725V266.448C334.876 265.756 334.184 265.203 333.492 265.203ZM362.136 264.788C361.306 264.926 360.752 265.618 360.891 266.31C360.891 267.14 361.583 267.555 362.275 267.555H362.413C363.105 267.555 363.658 267.002 363.658 266.31V266.171C363.658 265.341 362.966 264.788 362.136 264.788ZM327.957 264.788C327.126 264.788 326.435 265.341 326.435 266.171C326.435 266.863 326.988 267.555 327.818 267.555C328.51 267.555 329.202 267.002 329.202 266.31V266.171C329.174 265.837 329.036 265.52 328.812 265.271C328.587 265.021 328.287 264.851 327.957 264.788ZM368.156 264.234H367.879C367.049 264.234 366.495 265.064 366.634 265.756C366.634 266.587 367.325 267.14 368.017 267.14H368.294C368.986 267.002 369.539 266.31 369.539 265.618C369.332 264.926 368.778 264.234 368.156 264.234ZM322.214 264.234H321.937C321.245 264.234 320.692 264.926 320.692 265.618C320.553 266.31 321.107 267.002 321.937 267.14C322.768 267.14 323.321 266.587 323.459 265.756V265.618C323.459 264.926 322.906 264.372 322.214 264.234ZM316.541 263.681H316.264C315.572 263.681 315.018 264.234 314.88 264.788C314.88 265.618 315.433 266.31 316.125 266.448H316.264C317.094 266.448 317.648 265.895 317.786 265.203V264.926C317.786 264.234 317.232 263.681 316.541 263.681ZM373.691 263.681H373.414C372.722 263.681 372.169 264.373 372.307 265.203C372.307 265.895 372.999 266.448 373.691 266.448C373.829 266.448 373.829 266.31 373.968 266.31C374.659 266.31 375.075 265.618 375.075 264.926V264.788C375.075 264.096 374.383 263.681 373.691 263.681ZM310.936 262.781H310.659C309.968 262.781 309.414 263.335 309.137 264.027C308.999 264.857 309.691 265.549 310.383 265.687H310.659C311.351 265.687 311.905 265.134 312.043 264.442V264.303C312.043 263.542 311.628 262.92 310.936 262.781ZM379.434 262.781H379.157C378.465 262.92 377.911 263.75 377.911 264.303C378.05 265.134 378.742 265.687 379.434 265.687H379.71C380.402 265.549 380.817 264.857 380.817 264.165V263.888C380.61 263.265 380.056 262.781 379.434 262.781ZM305.263 261.812H304.848C304.294 261.812 303.741 262.366 303.602 263.058C303.464 263.75 304.017 264.442 304.709 264.58C304.848 264.718 304.848 264.718 304.986 264.718C305.678 264.718 306.231 264.165 306.508 263.473V263.196C306.508 262.504 305.955 261.951 305.263 261.812ZM384.969 261.812H384.83C384 261.951 383.585 262.643 383.585 263.473C383.723 264.165 384.415 264.58 384.969 264.58H385.384C385.937 264.303 386.491 263.75 386.491 263.058V262.92C386.214 262.228 385.661 261.812 384.969 261.812Z" fill="#FFEEB0"/>
<path d="M353.903 241.401C353.211 241.401 352.519 242.093 352.519 242.785C352.519 243.477 353.211 244.03 353.903 244.03C354.733 244.03 355.286 243.477 355.286 242.785C355.286 242.093 354.664 241.401 353.903 241.401ZM353.903 236.281C353.211 236.281 352.519 236.834 352.519 237.526C352.519 238.218 353.211 238.91 353.903 238.91C354.733 238.91 355.286 238.218 355.286 237.526C355.286 236.834 354.664 236.281 353.903 236.281ZM353.903 230.953C353.536 230.953 353.184 231.099 352.924 231.359C352.665 231.618 352.519 231.97 352.519 232.337C352.519 233.029 353.211 233.721 353.903 233.721C354.733 233.721 355.286 233.029 355.286 232.337C355.217 231.507 354.664 230.953 353.903 230.953ZM353.903 225.833C353.211 225.833 352.519 226.387 352.519 227.079C352.519 227.909 353.211 228.601 353.903 228.601C354.733 228.601 355.286 227.909 355.286 227.079C355.257 226.734 355.097 226.414 354.84 226.183C354.583 225.952 354.248 225.827 353.903 225.833ZM353.903 220.506C353.211 220.506 352.519 221.198 352.519 221.89C352.519 222.72 353.211 223.135 353.903 223.135C354.733 223.135 355.286 222.72 355.286 221.89C355.217 221.198 354.664 220.506 353.903 220.506ZM353.903 215.386C353.536 215.386 353.184 215.532 352.924 215.791C352.665 216.051 352.519 216.403 352.519 216.77C352.519 217.462 353.211 218.015 353.903 218.015C354.733 218.015 355.286 217.462 355.286 216.77C355.217 215.939 354.664 215.386 353.903 215.386ZM353.903 210.058C353.211 210.058 352.519 210.75 352.519 211.58C352.519 212.272 353.211 212.826 353.903 212.826C354.733 212.826 355.286 212.272 355.286 211.58C355.217 210.75 354.664 210.058 353.903 210.058ZM353.903 204.938C353.536 204.938 353.184 205.084 352.924 205.344C352.665 205.603 352.519 205.955 352.519 206.322C352.519 207.014 353.211 207.706 353.903 207.706C354.733 207.706 355.286 207.014 355.286 206.322C355.217 205.423 354.664 204.938 353.903 204.938ZM353.903 199.749C353.211 199.749 352.519 200.303 352.519 200.994C352.519 201.825 353.211 202.378 353.903 202.378C354.733 202.378 355.286 201.825 355.286 200.994C355.257 200.65 355.097 200.33 354.84 200.099C354.583 199.868 354.248 199.743 353.903 199.749ZM353.903 194.422C353.536 194.422 353.184 194.567 352.924 194.827C352.665 195.086 352.519 195.438 352.519 195.805C352.519 196.497 353.211 197.189 353.903 197.189C354.733 197.189 355.286 196.497 355.286 195.805C355.217 194.975 354.664 194.422 353.903 194.422ZM353.903 189.302C353.536 189.302 353.184 189.447 352.924 189.707C352.665 189.966 352.519 190.318 352.519 190.685C352.519 191.377 353.211 192.069 353.903 192.069C354.733 192.069 355.286 191.377 355.286 190.685C355.217 189.855 354.664 189.302 353.903 189.302ZM353.903 183.974C353.211 183.974 352.519 184.666 352.519 185.358C352.519 186.188 353.211 186.742 353.903 186.742C354.733 186.742 355.286 186.188 355.286 185.358C355.217 184.666 354.664 183.974 353.903 183.974ZM353.903 178.854C353.536 178.854 353.184 179 352.924 179.259C352.665 179.519 352.519 179.871 352.519 180.238C352.519 180.93 353.211 181.483 353.903 181.483C354.733 181.483 355.286 180.93 355.286 180.238C355.217 179.407 354.664 178.854 353.903 178.854ZM353.903 173.526C353.211 173.526 352.519 174.218 352.519 175.049C352.519 175.602 353.211 176.294 353.903 176.294C354.733 176.294 355.286 175.602 355.286 175.049C355.217 174.218 354.664 173.526 353.903 173.526ZM353.903 249.289C353.488 249.289 353.142 249.219 352.934 249.012C352.726 248.666 352.519 248.389 352.519 248.043C352.519 247.628 352.726 247.282 352.934 247.074C353.488 246.521 354.318 246.521 354.871 247.074C355.079 247.282 355.217 247.628 355.217 248.043C355.217 248.389 355.148 248.666 354.871 249.012C354.525 249.15 354.249 249.289 353.903 249.289ZM359.438 246.452C358.746 246.452 358.192 247.005 358.192 247.836C358.192 248.527 358.746 249.081 359.576 249.081H359.715C360.407 248.943 360.96 248.527 360.96 247.697C360.878 247.351 360.685 247.042 360.41 246.817C360.135 246.592 359.793 246.463 359.438 246.452ZM365.042 246.037C364.35 246.037 363.797 246.729 363.935 247.42C363.935 248.112 364.627 248.666 365.181 248.666H365.319C366.011 248.527 366.564 247.974 366.564 247.144C366.495 246.452 365.803 246.037 365.042 246.037ZM370.854 245.483H370.716C369.885 245.483 369.332 246.175 369.47 247.005C369.609 247.559 370.162 248.112 370.854 248.112L370.992 247.974C371.684 247.974 372.238 247.282 372.238 246.452C372.125 246.174 371.934 245.935 371.689 245.763C371.443 245.592 371.153 245.494 370.854 245.483ZM376.389 244.584H376.112V244.722C375.559 244.722 375.144 245.414 375.144 246.106V246.244C375.144 246.936 375.836 247.49 376.666 247.351C377.219 247.213 377.635 246.659 377.635 246.106V245.829C377.635 245.068 377.081 244.584 376.389 244.584ZM381.994 243.753H381.717C381.025 243.892 380.61 244.584 380.61 245.276C380.748 245.967 381.44 246.521 381.994 246.521C381.994 246.521 382.132 246.383 382.27 246.383C382.962 246.244 383.377 245.691 383.377 245.137V244.86C383.291 244.555 383.111 244.283 382.863 244.085C382.615 243.886 382.311 243.77 381.994 243.753ZM336.052 241.401C335.36 241.401 334.806 242.093 334.806 242.785C334.806 243.477 335.36 244.03 336.052 244.03C336.882 244.03 337.574 243.477 337.574 242.785C337.574 242.093 336.882 241.401 336.052 241.401ZM336.052 236.281C335.36 236.281 334.806 236.834 334.806 237.526C334.806 238.218 335.36 238.91 336.052 238.91C336.882 238.91 337.574 238.218 337.574 237.526C337.574 236.834 336.882 236.281 336.052 236.281ZM336.052 230.953C335.36 230.953 334.806 231.507 334.806 232.337C334.806 233.029 335.36 233.721 336.052 233.721C336.882 233.721 337.574 233.029 337.574 232.337C337.574 231.507 336.882 230.953 336.052 230.953ZM336.052 225.833C335.36 225.833 334.806 226.387 334.806 227.079C334.806 227.909 335.36 228.601 336.052 228.601C336.882 228.601 337.574 227.909 337.574 227.079C337.574 226.387 336.882 225.833 336.052 225.833ZM336.052 220.506C335.36 220.506 334.806 221.198 334.806 221.89C334.806 222.72 335.36 223.135 336.052 223.135C336.882 223.135 337.574 222.72 337.574 221.89C337.574 221.198 336.882 220.506 336.052 220.506ZM336.052 215.386C335.36 215.386 334.806 215.939 334.806 216.77C334.806 217.462 335.36 218.015 336.052 218.015C336.882 218.015 337.574 217.462 337.574 216.77C337.574 215.939 336.882 215.386 336.052 215.386ZM336.052 210.058C335.36 210.058 334.806 210.75 334.806 211.58C334.806 212.272 335.36 212.826 336.052 212.826C336.882 212.826 337.574 212.272 337.574 211.58C337.574 210.75 336.882 210.058 336.052 210.058ZM336.052 204.938C335.36 204.938 334.806 205.492 334.806 206.322C334.806 207.014 335.36 207.706 336.052 207.706C336.882 207.706 337.574 207.014 337.574 206.322C337.574 205.423 336.882 204.938 336.052 204.938ZM336.052 199.749C335.36 199.749 334.806 200.303 334.806 200.994C334.806 201.825 335.36 202.378 336.052 202.378C336.882 202.378 337.574 201.825 337.574 200.994C337.574 200.303 336.882 199.749 336.052 199.749ZM336.052 194.422C335.36 194.422 334.806 194.975 334.806 195.805C334.806 196.497 335.36 197.189 336.052 197.189C336.882 197.189 337.574 196.497 337.574 195.805C337.574 194.975 336.882 194.422 336.052 194.422ZM336.052 189.302C335.36 189.302 334.806 189.855 334.806 190.685C334.806 191.377 335.36 192.069 336.052 192.069C336.882 192.069 337.574 191.377 337.574 190.685C337.574 189.855 336.882 189.302 336.052 189.302ZM336.052 183.974C335.36 183.974 334.806 184.666 334.806 185.358C334.806 186.188 335.36 186.742 336.052 186.742C336.882 186.742 337.574 186.188 337.574 185.358C337.574 184.666 336.882 183.974 336.052 183.974ZM336.052 178.854C335.36 178.854 334.806 179.407 334.806 180.238C334.806 180.93 335.36 181.483 336.052 181.483C336.882 181.483 337.574 180.93 337.574 180.238C337.574 179.407 336.882 178.854 336.052 178.854ZM336.052 173.526C335.36 173.526 334.806 174.218 334.806 175.049C334.806 175.602 335.36 176.294 336.052 176.294C336.882 176.294 337.574 175.602 337.574 175.049C337.574 174.218 336.882 173.526 336.052 173.526ZM336.121 249.289C336.536 249.289 336.882 249.219 337.09 249.012C337.297 248.666 337.505 248.389 337.505 248.043C337.505 247.628 337.297 247.282 337.09 247.074C336.965 246.943 336.815 246.838 336.648 246.767C336.482 246.695 336.302 246.658 336.121 246.658C335.94 246.658 335.76 246.695 335.594 246.767C335.427 246.838 335.277 246.943 335.152 247.074C334.945 247.282 334.806 247.628 334.806 248.043C334.806 248.389 334.876 248.666 335.152 249.012C335.498 249.15 335.844 249.289 336.121 249.289ZM330.655 246.452C329.825 246.452 329.271 247.005 329.133 247.697C329.133 248.527 329.686 248.943 330.378 249.081H330.517C331.209 249.081 331.762 248.527 331.762 247.836C331.901 247.005 331.347 246.452 330.655 246.452ZM324.982 246.037C324.29 246.037 323.598 246.452 323.459 247.144C323.459 247.974 324.013 248.527 324.843 248.666H324.982C325.535 248.666 326.227 248.112 326.227 247.42C326.296 246.729 325.743 246.037 324.982 246.037ZM319.377 245.483H319.101C318.547 245.483 317.994 246.037 317.855 246.452C317.855 247.282 318.409 247.974 319.101 247.974C319.101 248.112 319.101 248.112 319.239 248.112C319.931 248.112 320.484 247.559 320.623 247.005C320.623 246.175 320.069 245.483 319.377 245.483ZM313.842 244.722V244.584H313.704C313.012 244.584 312.458 245.137 312.32 245.829V246.106C312.32 246.659 312.735 247.213 313.427 247.351C314.257 247.49 314.811 246.936 314.949 246.244V246.106C314.88 245.345 314.465 244.722 313.842 244.722ZM308.376 243.753H308.099C307.408 243.753 306.854 244.169 306.716 244.86V245.137C306.716 245.691 307.131 246.244 307.823 246.383L307.961 246.521C308.653 246.521 309.345 245.967 309.345 245.276C309.483 244.584 308.93 243.892 308.376 243.753Z" fill="#5B2828"/>
<path d="M375.075 142.184C374.663 149.898 371.302 157.159 365.687 162.465C360.072 167.77 352.633 170.715 344.908 170.69C328.995 170.69 315.849 158.028 315.018 142.184L318.409 141.769L319.931 141.631L321.937 141.492C322.085 147.487 324.57 153.186 328.862 157.374C333.153 161.563 338.912 163.908 344.908 163.909C357.5 163.909 367.879 153.877 368.156 141.492L370.162 141.631L371.684 141.769L375.075 142.184Z" fill="#FFEEB0"/>
<path d="M370.162 141.63C369.952 148.185 367.198 154.4 362.484 158.959C357.77 163.518 351.466 166.063 344.908 166.054C331.347 166.054 320.346 155.191 319.931 141.63L321.937 141.492L323.183 141.354L326.573 140.938C326.711 150.971 335.014 159.274 344.908 159.274C355.079 159.274 363.382 150.971 363.52 140.938L366.91 141.354L368.156 141.492L370.162 141.63Z" fill="#FFEEB0"/>
<path d="M371.684 141.769C371.131 155.883 359.299 167.299 344.908 167.299C330.794 167.299 318.962 155.883 318.409 141.769L319.931 141.63L321.937 141.492L323.183 141.354C323.598 153.185 333.215 162.664 344.908 162.664C356.878 162.664 366.495 153.185 366.91 141.354L368.156 141.492L370.162 141.63L371.684 141.769ZM381.232 146.474H380.956C380.264 146.474 379.71 146.889 379.572 147.581C379.295 148.272 379.849 148.964 380.541 149.241H380.817C381.509 149.241 382.063 148.826 382.201 148.272V147.857C382.27 147.304 381.786 146.75 381.232 146.474ZM309.414 146.612C309.276 146.612 309.137 146.75 308.999 146.75C308.169 146.889 307.754 147.581 307.892 148.411C308.03 148.964 308.722 149.379 309.276 149.379H309.552C310.244 149.103 310.66 148.549 310.66 147.996V147.719C310.383 147.027 309.968 146.612 309.414 146.612ZM379.157 153.185C379.018 153.046 378.742 153.046 378.603 153.046C378.05 153.046 377.496 153.323 377.358 153.877C376.943 154.569 377.358 155.399 378.05 155.676C378.188 155.814 378.327 155.814 378.603 155.814C379.157 155.814 379.572 155.537 379.849 154.984C379.987 154.845 379.987 154.569 379.987 154.43C379.987 153.946 379.71 153.323 379.157 153.185ZM312.943 154.084C312.813 153.83 312.615 153.618 312.37 153.471C312.125 153.324 311.844 153.249 311.559 153.254C311.421 153.254 311.144 153.254 311.005 153.392C310.314 153.669 310.037 154.499 310.452 155.191C310.59 155.745 311.144 156.022 311.559 156.022C311.836 156.022 311.974 156.022 312.251 155.883C312.804 155.745 313.081 155.191 313.081 154.638C313.081 154.499 313.081 154.223 312.943 154.084ZM375.905 159.412C375.628 159.135 375.351 159.135 375.075 159.135C374.66 159.135 374.244 159.274 373.968 159.689C373.552 160.242 373.691 161.211 374.244 161.695C374.521 161.834 374.798 161.972 375.075 161.972C375.49 161.972 375.905 161.695 376.182 161.418C376.32 161.142 376.458 160.865 376.458 160.588C376.434 160.139 376.235 159.717 375.905 159.412ZM316.333 159.827C316.212 159.647 316.046 159.502 315.852 159.405C315.658 159.308 315.443 159.263 315.226 159.274C314.949 159.274 314.672 159.274 314.396 159.55C313.981 159.827 313.842 160.242 313.842 160.657C313.842 160.934 313.842 161.072 314.119 161.349C314.257 161.764 314.811 162.041 315.226 162.041C315.503 162.041 315.78 161.903 316.056 161.764C316.333 161.488 316.61 161.072 316.61 160.657C316.61 160.381 316.471 160.104 316.333 159.827ZM371.546 164.739C371.245 164.462 370.848 164.313 370.439 164.324C370.162 164.324 369.747 164.463 369.47 164.739C369.055 165.293 368.917 166.123 369.47 166.746C369.747 167.023 370.162 167.161 370.439 167.161C370.854 167.161 371.131 167.023 371.408 166.746C371.684 166.469 371.823 166.054 371.823 165.639C371.823 165.293 371.684 165.016 371.546 164.739ZM320.692 164.878C320.415 164.601 320 164.463 319.723 164.463C319.447 164.463 319.031 164.601 318.755 164.878C318.201 165.431 318.201 166.4 318.755 166.884C319.031 167.161 319.447 167.299 319.723 167.299C320.138 167.299 320.554 167.161 320.692 166.884C320.969 166.608 321.107 166.331 321.107 165.916C321.107 165.501 320.969 165.155 320.692 164.878ZM366.149 169.237C365.872 168.822 365.457 168.683 364.904 168.683C364.627 168.683 364.489 168.683 364.212 168.822C364.056 168.92 363.921 169.049 363.815 169.2C363.709 169.351 363.635 169.522 363.596 169.703C363.557 169.883 363.555 170.07 363.59 170.251C363.624 170.433 363.695 170.605 363.797 170.759C364.074 171.174 364.489 171.451 364.904 171.451C365.181 171.451 365.457 171.312 365.734 171.174C366.149 170.897 366.288 170.482 366.288 169.929C366.288 169.721 366.288 169.583 366.149 169.237ZM326.02 168.96C325.743 168.822 325.604 168.822 325.328 168.822C324.774 168.822 324.359 168.96 324.082 169.375C323.667 170.067 323.805 170.897 324.497 171.382C324.774 171.52 324.912 171.658 325.189 171.658C325.743 171.658 326.158 171.382 326.435 170.966C326.573 170.69 326.573 170.551 326.573 170.275C326.573 169.721 326.435 169.237 326.02 168.96ZM360.13 172.765C359.715 172.074 359.161 171.658 358.331 171.935C357.639 172.212 357.224 173.042 357.501 173.734C357.777 174.288 358.192 174.564 358.746 174.564H359.3C359.853 174.288 360.268 173.734 360.268 173.181C360.268 173.042 360.13 172.904 360.13 172.765ZM331.97 172.074C331.831 171.935 331.555 171.935 331.416 171.935C330.863 171.935 330.448 172.212 330.171 172.904C329.894 173.596 330.309 174.426 331.001 174.703H331.555C332.108 174.703 332.523 174.426 332.8 173.872C332.8 173.734 332.938 173.596 332.938 173.457C332.938 172.904 332.523 172.35 331.97 172.074Z" fill="#5B2828"/>
<path d="M427.451 267.901H401.643L400.19 261.12H425.998L427.451 267.901ZM290.041 261.12L288.588 267.901H262.642L264.095 261.12H290.041Z" fill="#FFEEB0"/>
<path d="M388.428 97.3494C388.428 102.954 383.931 107.52 378.257 107.52C372.584 107.52 368.017 103.023 368.017 97.3494C368.017 91.745 372.584 87.1094 378.257 87.1094C383.931 87.1094 388.428 91.6759 388.428 97.3494Z" fill="#FFC299"/>
<path d="M385.107 97.3497C385.107 101.155 382.063 104.199 378.257 104.199C374.452 104.199 371.408 101.155 371.408 97.3497C371.408 93.5443 374.521 90.5 378.257 90.5C381.994 90.5 385.107 93.5443 385.107 97.3497Z" fill="#EFB086"/>
<path d="M322.007 97.3494C322.007 102.954 317.509 107.52 311.836 107.52C306.162 107.52 301.596 103.023 301.596 97.3494C301.596 91.745 306.162 87.1094 311.836 87.1094C317.509 87.1094 322.007 91.6759 322.007 97.3494Z" fill="#FFC299"/>
<path d="M318.685 97.3489C318.685 101.154 315.641 104.199 311.836 104.199C308.03 104.199 304.986 101.154 304.986 97.3489C304.986 93.5435 308.099 90.4992 311.836 90.4992C315.641 90.43 318.685 93.5435 318.685 97.3489Z" fill="#EFB086"/>
<path d="M384.138 74.0326C384.138 95.6196 366.495 113.263 344.908 113.263C323.113 113.263 305.47 95.6196 305.47 74.0326C305.47 52.238 323.113 34.5947 344.908 34.5947C366.495 34.5947 384.138 52.238 384.138 74.0326Z" fill="#3B3B3B"/>
<path d="M379.987 96.3805C379.987 115.753 364.212 131.529 344.77 131.529C335.083 131.529 326.296 127.585 319.931 121.219C313.354 114.623 309.649 105.695 309.622 96.3805C310.244 87.7318 314.257 80.5361 315.018 73.2713C332.177 80.4669 364.973 74.3783 373.345 68.5664C377.427 79.3599 379.364 86.2097 379.987 96.3805Z" fill="#FFC299"/>
<path d="M365.388 95.8267C365.388 98.8018 363.174 101.154 360.545 101.154C357.847 101.154 355.633 98.7326 355.633 95.8267C355.633 92.9208 357.847 90.4991 360.545 90.4991C363.174 90.4991 365.388 92.8516 365.388 95.8267ZM366.288 89.1845C366.149 89.1845 365.942 89.1153 365.873 89.0462C362.551 86.6245 359.161 86.3478 355.494 88.1467C355.148 88.3543 354.664 88.1467 354.456 87.8007C354.249 87.4548 354.456 86.9705 354.802 86.7629C358.954 84.6872 362.967 85.1024 366.772 87.8007C367.118 88.0775 367.187 88.4926 366.91 88.8386C366.772 89.1153 366.564 89.1845 366.288 89.1845ZM324.221 95.8267C324.221 98.8018 326.435 101.154 329.064 101.154C331.693 101.154 333.976 98.7326 333.976 95.8267C333.976 92.9208 331.762 90.4991 329.064 90.4991C326.365 90.4991 324.221 92.8516 324.221 95.8267ZM323.252 89.1845C323.044 89.1845 322.768 89.0462 322.629 88.9078C322.353 88.5618 322.422 88.0775 322.768 87.8699C326.504 85.1024 330.517 84.7564 334.737 86.8321C335.083 87.0397 335.291 87.4548 335.083 87.8699C334.876 88.2159 334.461 88.4235 334.045 88.2159C330.378 86.417 326.988 86.6937 323.667 89.1153C323.598 89.1845 323.46 89.1845 323.252 89.1845Z" fill="#3B3B3B"/>
<path d="M344.355 118.659C340.895 118.659 337.366 117.414 333.976 114.923C333.815 114.811 333.678 114.669 333.573 114.503C333.468 114.337 333.397 114.152 333.364 113.958C333.332 113.765 333.339 113.567 333.385 113.376C333.43 113.185 333.514 113.006 333.63 112.848C334.115 112.156 335.083 112.017 335.706 112.502C341.518 116.722 347.191 116.722 353.003 112.502C353.695 112.017 354.595 112.156 355.079 112.848C355.563 113.539 355.425 114.439 354.733 114.923C351.274 117.414 347.814 118.659 344.355 118.659ZM369.885 108.696C369.885 110.772 367.671 112.502 364.904 112.502C362.136 112.502 359.853 110.841 359.853 108.696C359.853 106.621 362.136 104.96 364.904 104.96C367.671 104.96 369.885 106.69 369.885 108.696ZM329.686 108.696C329.686 110.772 327.472 112.502 324.705 112.502C321.937 112.502 319.654 110.841 319.654 108.696C319.654 106.621 321.937 104.96 324.705 104.96C327.472 104.96 329.686 106.69 329.686 108.696Z" fill="#EFB086"/>
<path d="M360.337 94.3045C360.337 95.1348 359.715 95.8267 358.815 95.8267C358.054 95.8267 357.362 95.204 357.362 94.3045C357.362 93.5435 357.985 92.8516 358.815 92.8516C359.715 92.9208 360.337 93.5435 360.337 94.3045ZM329.271 94.3045C329.271 95.1348 329.894 95.8267 330.794 95.8267C331.555 95.8267 332.246 95.204 332.246 94.3045C332.246 93.5435 331.624 92.8516 330.794 92.8516C329.894 92.9208 329.271 93.5435 329.271 94.3045Z" fill="white"/>
<path d="M270.53 263.68C270.53 263.68 270.115 268.315 266.517 274.612C264.441 279.04 260.151 288.657 264.51 288.519C264.51 288.519 265.133 290.733 267.485 289.626C267.485 289.626 266.586 292.947 270.46 292.116C270.46 292.116 271.36 295.092 273.989 292.739C276.618 290.387 277.518 284.99 279.04 284.506C281.392 283.675 279.109 290.179 281.185 291.286C283.33 292.393 284.506 282.914 283.122 276.895C281.738 270.875 283.606 264.233 283.606 264.233L270.53 263.68ZM419.563 263.68C419.563 263.68 419.978 268.315 423.576 274.612C425.652 279.04 429.942 288.657 425.583 288.519C425.583 288.519 424.96 290.733 422.608 289.626C422.608 289.626 423.507 292.947 419.632 292.116C419.632 292.116 418.733 295.092 416.104 292.739C413.475 290.387 412.575 284.99 411.053 284.506C408.7 283.675 410.984 290.179 408.908 291.286C406.763 292.393 405.587 282.914 406.971 276.895C408.355 270.875 406.486 264.233 406.486 264.233L419.563 263.68Z" fill="#FFC299"/>
</g>
<defs>
<clipPath id="clip0_170_5221">
<rect width="512" height="512" fill="white"/>
</clipPath>
</defs>
</svg>
