<svg width="512" height="512" viewBox="0 0 512 512" fill="none" xmlns="http://www.w3.org/2000/svg">
<g clip-path="url(#clip0_170_5268)">
<g clip-path="url(#clip1_170_5268)">
<path d="M160.611 323.985C159.539 323.558 158.537 322.975 157.636 322.255L122.798 356.397C131.129 361.223 138.053 368.144 142.882 376.474L185.946 332.531C177.359 330.121 168.903 327.268 160.611 323.985ZM354.366 322.255C353.464 322.974 352.462 323.557 351.391 323.985C343.099 327.268 334.643 330.12 326.057 332.531L369.121 376.474C373.949 368.144 380.873 361.223 389.205 356.397L354.366 322.255Z" fill="#757575"/>
<path d="M498.558 485.838C505.278 479.119 505.277 468.224 498.558 461.504C491.838 454.784 480.943 454.785 474.223 461.504C467.503 468.224 467.504 479.119 474.224 485.839C480.943 492.558 491.838 492.558 498.558 485.838Z" fill="#BDBDBD"/>
<path d="M474.23 461.503C471.814 463.913 470.172 466.99 469.516 470.339L405.225 415.726L428.453 392.498L483.066 456.789C479.717 457.445 476.64 459.087 474.23 461.503Z" fill="#EF5350"/>
<path d="M465.854 436.527L456.13 425.08C455.675 425.467 438.595 442.57 438.171 442.995C438.04 443.126 437.923 443.264 437.804 443.401L449.253 453.127L465.854 436.527ZM418.089 426.654L429.538 436.38L449.107 416.813L439.383 405.366C438.926 405.754 418.477 426.205 418.089 426.654Z" fill="#D32F2F"/>
<path d="M37.7675 485.835C44.4872 479.115 44.487 468.22 37.7671 461.5C31.0472 454.781 20.1524 454.781 13.4327 461.501C6.71309 468.22 6.71328 479.115 13.4331 485.835C20.153 492.555 31.0479 492.554 37.7675 485.835Z" fill="#BDBDBD"/>
<path d="M42.484 470.34L106.775 415.727L83.547 392.499L28.934 456.789C32.2822 457.448 35.3585 459.089 37.7714 461.502C40.1843 463.915 41.8248 466.992 42.484 470.34Z" fill="#EF5350"/>
<path d="M62.748 453.127L74.197 443.401C73.823 442.969 56.349 425.487 55.871 425.08L46.147 436.527L62.748 453.127ZM72.617 405.365L62.893 416.812L82.462 436.379L93.911 426.653C93.633 426.331 73.192 405.854 72.617 405.365Z" fill="#D32F2F"/>
<path d="M439.247 512.001C401.257 512.001 370.35 481.094 370.35 443.104C370.35 438.961 373.708 435.604 377.85 435.604C381.992 435.604 385.35 438.961 385.35 443.104C385.35 472.823 409.528 497.001 439.247 497.001C443.389 497.001 446.747 500.358 446.747 504.501C446.747 508.644 443.389 512.001 439.247 512.001ZM72.754 512.001C68.612 512.001 65.254 508.644 65.254 504.501C65.254 500.358 68.612 497.001 72.754 497.001C102.473 497.001 126.651 472.822 126.651 443.104C126.651 438.961 130.009 435.604 134.151 435.604C138.293 435.604 141.651 438.961 141.651 443.104C141.652 481.094 110.744 512.001 72.754 512.001ZM256.001 7.50098C199.928 7.50098 154.471 63.321 154.471 132.178C154.471 155.879 159.86 179.544 169.212 200.394C172.961 208.752 174.011 218.07 171.95 226.995C163.713 262.666 163.829 260.95 164.396 261.613C218.074 324.366 293.925 324.368 347.605 261.613C347.823 261.358 347.907 261.013 347.832 260.687L340.052 226.996C337.991 218.071 339.041 208.753 342.79 200.395C385.225 105.781 330.577 7.50098 256.001 7.50098Z" fill="#EEEEEE"/>
<path d="M342.789 200.394C381.598 113.865 339.149 23.276 273.398 9.33203C315.887 45.158 331.799 115.715 302.789 180.394C299.04 188.752 297.99 198.07 300.051 206.995L302.788 218.847C306.302 234.062 301.042 250.001 289.089 260.049C267.866 277.889 242.824 288.697 216 288.697C206.835 288.697 197.881 287.425 189.214 285.052C242.97 325.31 304.477 312.03 347.605 261.612C347.823 261.357 347.907 261.012 347.832 260.686L340.052 226.994C337.991 218.07 339.041 208.752 342.789 200.394ZM458.882 357.675C418.417 320.986 354.199 350.34 354.199 404.113C354.199 420.844 360.715 436.575 372.546 448.407C373.952 449.813 375.86 450.603 377.849 450.603C379.837 450.603 381.745 449.813 383.152 448.407L459.238 372.32C463.317 368.242 463.16 361.553 458.882 357.675Z" fill="#BDBDBD"/>
<path d="M458.881 357.674C442.897 343.181 421.43 338.452 401.856 343.273C411.921 345.753 421.21 350.703 428.881 357.674C433.155 361.548 433.321 368.236 429.238 372.32L363.92 437.638C366.393 441.532 369.286 445.143 372.545 448.407C373.952 449.813 375.859 450.603 377.848 450.603C379.837 450.603 381.745 449.813 383.151 448.407L459.237 372.32C463.316 368.241 463.159 361.552 458.881 357.674Z" fill="#616161"/>
<path d="M43.3674 30.6407C50.3764 23.6314 50.3762 12.2674 43.3669 5.25838C36.3577 -1.75063 24.9936 -1.75043 17.9846 5.25882C10.9756 12.2681 10.9758 23.6321 17.9851 30.6411C24.9943 37.6501 36.3584 37.6499 43.3674 30.6407Z" fill="#BDBDBD"/>
<path d="M53.1199 357.674C48.8449 361.547 48.6789 368.236 52.7619 372.32C135.339 454.898 129.751 450.603 134.152 450.603C136.141 450.603 138.048 449.814 139.455 448.407C151.287 436.575 157.802 420.844 157.802 404.113C157.802 350.347 93.5849 320.983 53.1199 357.674Z" fill="#BDBDBD"/>
<path d="M80.1428 343.273C107.262 349.952 127.802 374.366 127.802 404.113C127.802 416.173 124.4 427.703 118.08 437.638C129.397 448.955 130.147 450.603 134.152 450.603C136.141 450.603 138.048 449.813 139.455 448.407C151.287 436.575 157.802 420.844 157.802 404.113C157.802 363.331 119.489 333.568 80.1428 343.273Z" fill="#616161"/>
<path d="M494.013 30.6417C501.022 23.6324 501.022 12.2684 494.012 5.25936C487.003 -1.74965 475.639 -1.74945 468.63 5.2598C461.621 12.2691 461.621 23.6331 468.631 30.6421C475.64 37.6511 487.004 37.6509 494.013 30.6417Z" fill="#BDBDBD"/>
<path d="M335.355 133.638C335.355 189.226 299.827 244.596 256.001 244.596C212.175 244.596 176.647 189.225 176.647 133.638C176.647 78.0513 212.175 32.9873 256.001 32.9873C299.827 32.9873 335.355 78.0503 335.355 133.638Z" fill="#616161"/>
<path d="M277.035 36.5693C342.931 106.84 282.865 245.732 209.511 221.943C265.311 281.542 335.356 214.072 335.356 133.639C335.355 87.2883 310.651 48.2613 277.035 36.5693Z" fill="#424242"/>
<path d="M358.511 310.413L347.317 261.938C293.753 324.236 218.287 324.279 164.686 261.938L153.492 310.413C152.859 313.153 153.229 316.029 154.536 318.519C155.842 321.009 157.998 322.949 160.612 323.985C221.883 348.288 290.12 348.288 351.392 323.985C354.005 322.948 356.16 321.009 357.466 318.519C358.773 316.029 359.143 313.153 358.511 310.413Z" fill="#EEEEEE"/>
<path d="M358.511 310.413L347.317 261.938C338.481 272.215 328.652 281.171 318.053 288.427L318.512 290.413C319.144 293.153 318.774 296.029 317.467 298.519C316.161 301.009 314.005 302.949 311.392 303.985C261.083 323.935 205.784 327.605 153.28 314.477C153.534 316.575 154.349 318.565 155.639 320.238C156.929 321.911 158.647 323.205 160.611 323.984C221.882 348.287 290.119 348.287 351.391 323.984C354.004 322.948 356.16 321.009 357.466 318.519C358.773 316.029 359.143 313.153 358.511 310.413Z" fill="#BDBDBD"/>
<path d="M355.108 159.916L477.297 35.4216C474.016 34.6774 471.012 33.0199 468.633 30.6407C466.254 28.2616 464.597 25.2578 463.853 21.9766L357.42 126.467C357.836 137.793 357.013 148.885 355.108 159.916ZM154.471 132.178C154.471 130.263 154.512 128.36 154.581 126.467L48.149 21.9776C47.4047 25.2586 45.7473 28.2622 43.3684 30.6413C40.9894 33.0205 37.986 34.678 34.705 35.4226L156.893 159.916C155.317 150.786 154.471 141.487 154.471 132.178Z" fill="#757575"/>
<path d="M331.918 163.929C333.027 159.039 333.873 154.092 334.452 149.11C333.288 148.853 335.448 148.929 303.005 148.929C303.121 141.956 303.136 134.982 303.039 128.009C336.766 128.009 334.43 128.045 335.226 127.948C335.008 122.942 334.493 117.954 333.683 113.009H302.662C302.417 106.082 302.068 99.1583 301.614 92.2413C326.24 92.2413 325.707 92.5664 327.997 91.2724C326.238 86.4554 324.146 81.767 321.735 77.2413H300.451C299.579 67.3371 298.493 57.4528 297.195 47.5953C292.545 44.0063 287.578 41.0123 282.365 38.6833C280.202 42.5923 282.219 42.0323 285.386 77.2413H263.5V33.4383C258.518 32.8383 253.482 32.8383 248.5 33.4383V77.2423H226.614C229.781 42.0413 231.819 42.6283 229.635 38.6843C224.421 41.0133 219.455 44.0073 214.804 47.5973C213.506 57.4544 212.42 67.3384 211.549 77.2423H190.265C187.854 81.7681 185.761 86.4565 184.003 91.2733C186.314 92.5783 185.827 92.2423 210.386 92.2423C209.932 99.1593 209.583 106.083 209.338 113.01H178.317C177.507 117.955 176.992 122.944 176.774 127.949C177.569 128.046 175.231 128.01 208.96 128.01C208.866 134.983 208.877 141.958 208.994 148.93H179.171C178.613 148.93 178.07 148.996 177.547 149.111C178.126 154.109 178.979 159.061 180.081 163.93H209.404C209.674 170.957 210.052 177.98 210.539 184.995C188.646 184.995 189.163 184.704 186.969 185.868C188.935 190.707 191.188 195.424 193.716 199.995H211.745C212.573 209.059 213.58 218.105 214.764 227.129C219.215 231.163 223.954 234.603 228.924 237.338C232.112 233.358 229.928 233.329 226.816 199.995H248.499V244.046C253.398 244.757 258.281 244.803 263.499 244.046V199.995H285.181C282.068 233.347 279.892 233.371 283.067 237.341C288.039 234.605 292.781 231.164 297.233 227.128C298.417 218.104 299.423 209.058 300.251 199.994H318.28C320.808 195.424 323.061 190.706 325.027 185.867C322.832 184.703 323.338 184.994 301.457 184.994C301.943 177.977 302.321 170.954 302.592 163.929H331.918ZM248.501 184.995H225.57C225.076 177.98 224.693 170.958 224.421 163.93H248.501V184.995ZM248.501 148.929H223.996C223.876 141.957 223.864 134.982 223.961 128.009H248.501V148.929ZM248.501 113.009H224.351C224.603 106.083 224.947 99.1593 225.413 92.2413H248.5V113.009H248.501ZM263.501 92.2423H286.588C287.055 99.1603 287.398 106.084 287.65 113.01H263.501V92.2423ZM286.432 184.995H263.5V163.929H287.579C287.307 170.957 286.925 177.98 286.432 184.995ZM288.005 148.929H263.5V128.009H288.039C288.138 134.982 288.124 141.956 288.005 148.929Z" fill="#424242"/>
<path d="M281.472 41.6802C292.369 55.1942 300.205 72.6552 303.55 92.2412C326.196 92.2412 325.703 92.5622 327.987 91.2772C326.23 86.4564 324.135 81.766 321.716 77.2412H300.451C299.579 67.3443 298.495 57.4674 297.198 47.6172C292.179 43.7432 287.451 40.9732 282.358 38.6982C281.858 39.6196 281.556 40.6353 281.472 41.6802ZM303.005 148.929C303.065 145.333 303.095 141.736 303.1 138.139C300.142 154.326 294.388 169.765 286.556 183.002C286.511 183.666 286.479 184.33 286.432 184.994H285.351C281.993 190.427 278.281 195.462 274.264 199.994H285.182C282.069 233.346 279.893 233.37 283.068 237.34C288.04 234.604 292.782 231.163 297.234 227.127C298.418 218.103 299.424 209.057 300.252 199.993H318.281C320.804 195.421 323.057 190.703 325.028 185.866C322.833 184.702 323.339 184.993 301.458 184.993C301.944 177.976 302.322 170.953 302.593 163.928H331.916C333.023 159.037 333.869 154.09 334.45 149.109C333.288 148.853 335.448 148.929 303.005 148.929ZM214.277 223.251C214.438 224.539 214.596 225.826 214.764 227.113C219.501 231.409 224.115 234.666 228.935 237.325C231.427 234.2 230.497 231.825 229.542 224.468C224.541 224.809 219.556 224.459 214.277 223.251ZM263.501 244.046V210.315C258.768 214.118 253.748 217.258 248.501 219.618V244.032C257.146 245.295 262.501 244.046 263.501 244.046ZM305.348 113.009C305.373 118.02 305.113 123.028 304.57 128.009C336.578 128.009 334.409 128.046 335.214 127.948C334.996 122.943 334.483 117.954 333.678 113.009H305.348Z" fill="#212121"/>
</g>
</g>
<defs>
<clipPath id="clip0_170_5268">
<rect width="512" height="512" fill="white"/>
</clipPath>
<clipPath id="clip1_170_5268">
<rect width="512" height="512" fill="white"/>
</clipPath>
</defs>
</svg>
