<svg width="512" height="512" viewBox="0 0 512 512" fill="none" xmlns="http://www.w3.org/2000/svg">
<g clip-path="url(#clip0_170_5174)">
<path d="M179.224 372.816L208 392L240 376L217.824 358.256" fill="#69737A"/>
<path d="M256 120H152C144.164 119.997 136.601 117.119 130.746 111.911C124.891 106.703 121.15 99.5282 120.233 91.7461C119.316 83.9639 121.286 76.1157 125.77 69.6893C130.253 63.2629 136.939 58.7052 144.56 56.8801C146.348 45.26 152.338 34.7001 161.394 27.2033C170.451 19.7065 181.944 15.7942 193.694 16.2086C205.443 16.6229 216.632 21.335 225.138 29.4511C233.644 37.5673 238.875 48.5229 239.84 60.2401C240.576 60.6561 241.296 61.0961 241.992 61.5681" fill="#307ABE"/>
<path d="M256 120L241.992 61.6001C241.293 61.1284 240.575 60.6854 239.84 60.2721C239.593 57.1399 239.039 54.0396 238.184 51.0161C232.487 43.494 224.697 37.8205 215.789 34.7067C206.882 31.5929 197.253 31.1772 188.111 33.5118C178.968 35.8464 170.718 40.8273 164.394 47.8305C158.07 54.8337 153.953 63.5475 152.56 72.8801C144.569 74.7049 137.599 79.5627 133.121 86.4286C128.643 93.2945 127.008 101.631 128.56 109.68C131.538 112.931 135.16 115.527 139.195 117.304C143.231 119.08 147.591 119.998 152 120H256Z" fill="#419BD7"/>
<path d="M376 112C376 120.487 372.629 128.626 366.627 134.627C360.626 140.629 352.487 144 344 144H224C217.635 144 211.53 141.471 207.029 136.971C202.529 132.47 200 126.365 200 120C200 113.635 202.529 107.53 207.029 103.029C211.53 98.5286 217.635 96 224 96C227.194 95.9794 230.356 96.6337 233.28 97.92C232.407 94.6864 231.977 91.3493 232 88C231.998 79.7154 234.569 71.6346 239.357 64.8737C244.145 58.1128 250.914 53.0053 258.729 50.2568C266.545 47.5082 275.021 47.2541 282.987 49.5297C290.953 51.8052 298.016 56.498 303.2 62.96C305.402 60.7483 308.021 58.9946 310.904 57.8C313.787 56.6055 316.879 55.9937 320 56C326.365 56 332.47 58.5286 336.971 63.0295C341.471 67.5303 344 73.6348 344 80C352.487 80 360.626 83.3715 366.627 89.3726C372.629 95.3738 376 103.513 376 112Z" fill="#4AAEE3"/>
<path d="M344 144C352.487 144 360.626 140.629 366.627 134.627C372.629 128.626 376 120.487 376 112C376 103.513 372.629 95.3738 366.627 89.3726C360.626 83.3715 352.487 80 344 80C344 73.6349 341.471 67.5304 336.971 63.0295C332.47 58.5286 326.365 56 320 56C316.879 55.9937 313.787 56.6055 310.904 57.8C308.021 58.9946 305.402 60.7483 303.2 62.96C301.518 60.9172 299.643 59.0418 297.6 57.36C294.469 56.509 291.244 56.0521 288 56C277.391 56 267.217 60.2143 259.716 67.7158C252.214 75.2172 248 85.3914 248 96C247.977 99.3494 248.407 102.686 249.28 105.92C246.356 104.634 243.194 103.979 240 104C235.382 103.983 230.857 105.304 226.973 107.803C223.089 110.301 220.012 113.872 218.113 118.082C216.215 122.292 215.576 126.962 216.274 131.527C216.972 136.092 218.978 140.358 222.048 143.808C222.704 143.856 223.336 144 224 144H344Z" fill="#7FCDF2"/>
<path d="M360 472C360 478.365 357.471 484.47 352.971 488.971C348.47 493.471 342.365 496 336 496H248C239.513 496 231.374 492.629 225.373 486.627C219.371 480.626 216 472.487 216 464C216 455.513 219.371 447.374 225.373 441.373C231.374 435.371 239.513 432 248 432C250.726 432.015 253.439 432.365 256.08 433.04C256.014 432.698 255.987 432.349 256 432C256 421.391 260.214 411.217 267.716 403.716C275.217 396.214 285.391 392 296 392C306.609 392 316.783 396.214 324.284 403.716C331.786 411.217 336 421.391 336 432C335.989 437.619 334.818 443.175 332.56 448.32C333.692 448.091 334.845 447.984 336 448C342.365 448 348.47 450.529 352.971 455.029C357.471 459.53 360 465.635 360 472Z" fill="#4AAEE3"/>
<path d="M336 448C334.845 447.984 333.692 448.091 332.56 448.32C334.818 443.175 335.989 437.619 336 432C335.991 425.771 334.52 419.631 331.706 414.073C328.893 408.515 324.815 403.695 319.8 400C309.226 400.053 299.103 404.29 291.645 411.786C284.187 419.282 280 429.426 280 440C279.987 440.349 280.014 440.698 280.08 441.04C277.439 440.365 274.726 440.015 272 440C265.487 439.975 259.122 441.946 253.763 445.647C248.403 449.348 244.306 454.601 242.022 460.701C239.738 466.801 239.377 473.453 240.988 479.764C242.599 486.075 246.104 491.741 251.032 496H336C342.365 496 348.47 493.471 352.971 488.971C357.471 484.47 360 478.365 360 472C360 465.635 357.471 459.53 352.971 455.029C348.47 450.529 342.365 448 336 448Z" fill="#7FCDF2"/>
<path d="M116.288 424.68L164.256 400.696L171.408 415L123.44 438.984L116.288 424.68ZM4.336 448.664L116.28 392.696L123.432 407L11.488 462.96L4.336 448.664ZM307.904 417L363.888 385.016L371.824 398.904L315.84 430.888L307.904 417Z" fill="#307ABE"/>
<path d="M169.944 272.968C142.31 286.075 116.645 302.983 93.696 323.2L72.496 348.64C72.1639 350.197 71.9977 351.784 72 353.376C72 359.376 74.3836 365.131 78.6264 369.374C82.8692 373.616 88.6237 376 94.624 376H152C167.839 376.002 183.516 372.813 198.096 366.624L381.824 288.68C420.249 272.378 455.173 248.826 484.688 219.312C488.275 215.725 491.119 211.467 493.06 206.781C495.001 202.095 496 197.072 496 192C496 186.928 495.001 181.905 493.06 177.219C491.119 172.533 488.275 168.275 484.688 164.688C480.666 160.665 475.89 157.474 470.634 155.297C465.378 153.12 459.745 152 454.056 152C439.534 152.005 425.186 155.158 412 161.24L236.504 242.224L169.944 272.968Z" fill="#69737A"/>
<path d="M303.848 273.824L236.8 303.256L201.2 318.88C170.239 332.48 142.16 351.867 118.472 376H152C167.839 376.002 183.516 372.813 198.096 366.624L381.824 288.68C420.249 272.378 455.173 248.826 484.688 219.312C489.745 214.211 493.277 207.8 494.888 200.8C474.354 202.649 454.255 207.817 435.376 216.104L303.848 273.824Z" fill="#CACBCD"/>
<path d="M287.232 328.808L399.992 383.992L432 376L347.872 303.088" fill="#AAB1B7"/>
<path d="M300.272 323.28L416.112 379.968L432 376L347.872 303.088L300.272 323.28Z" fill="#91989D"/>
<path d="M219.28 297.64L24 200L56 184L292.52 260.296C295.855 261.372 298.763 263.478 300.826 266.312C302.889 269.145 304 272.559 304 276.064C304 279.541 302.906 282.929 300.873 285.749C298.84 288.569 295.97 290.678 292.672 291.776L265.272 300.912C259.13 302.958 252.698 304.001 246.224 304C236.871 304 227.646 301.823 219.28 297.64Z" fill="#AAB1B7"/>
<path d="M292.52 260.296L56 184L36 194L227.28 289.64C235.643 293.837 244.868 296.028 254.224 296.04C260.698 296.041 267.13 294.998 273.272 292.952L300.672 283.816C301.22 283.563 301.755 283.28 302.272 282.968C303.352 280.823 303.942 278.465 304 276.064C304 272.559 302.889 269.145 300.826 266.312C298.763 263.478 295.855 261.372 292.52 260.296ZM16 328L32 312L102.464 324.8C105.246 325.726 107.665 327.505 109.377 329.885C111.089 332.265 112.007 335.124 112 338.056C111.998 341.754 110.528 345.299 107.914 347.914C105.299 350.528 101.754 351.998 98.056 352C86.117 352.002 74.275 349.856 63.096 345.664L16 328Z" fill="#91989D"/>
<path d="M492.536 176.24C490.645 171.943 487.986 168.028 484.688 164.688C483.291 163.376 481.808 162.16 480.248 161.048C463.389 162.834 446.983 167.61 431.8 175.152L412.424 184.84L419.576 199.152L438.96 189.464C454.194 181.81 470.817 177.312 487.832 176.24H492.536Z" fill="#7FCDF2"/>
</g>
<defs>
<clipPath id="clip0_170_5174">
<rect width="512" height="512" fill="white"/>
</clipPath>
</defs>
</svg>
