<svg width="512" height="512" viewBox="0 0 512 512" fill="none" xmlns="http://www.w3.org/2000/svg">
<g clip-path="url(#clip0_170_5127)">
<g clip-path="url(#clip1_170_5127)">
<path d="M452.457 509.525C485.342 509.525 512 482.867 512 449.982C512 417.098 485.342 390.439 452.457 390.439C419.572 390.439 392.914 417.098 392.914 449.982C392.914 482.867 419.572 509.525 452.457 509.525Z" fill="#E5E1E5"/>
<path d="M462.642 391.324C474.179 402.183 481.394 417.584 481.394 434.678C481.394 467.562 454.736 494.221 421.851 494.221C418.377 494.221 414.978 493.907 411.667 493.336C422.324 503.367 436.668 509.525 452.458 509.525C485.342 509.525 512.001 482.867 512.001 449.982C512 420.571 490.671 396.158 462.642 391.324Z" fill="#C9BFC8"/>
<path d="M166.286 280.088L156.555 327.619C156.145 329.623 155.25 331.497 153.949 333.076C152.648 334.654 150.98 335.89 149.091 336.676L50.18 377.789V422.384L186.823 368.176C190.104 366.874 193.075 364.899 195.546 362.379C198.017 359.858 199.932 356.848 201.168 353.542L216.496 312.571L166.286 280.088Z" fill="#FED2A4"/>
<path d="M166.286 280.088L165.473 284.06L185.89 297.269L170.562 338.24C169.325 341.546 167.41 344.556 164.939 347.076C162.469 349.597 159.497 351.572 156.217 352.874L50.18 394.938V422.383L186.823 368.175C190.104 366.873 193.075 364.898 195.546 362.378C198.017 359.857 199.932 356.847 201.168 353.541L216.496 312.57L166.286 280.088Z" fill="#FFBD86"/>
<path d="M173.633 234.947L255.902 269.47L317.489 315.866C321.204 318.666 324.323 322.179 326.662 326.2C329.002 330.22 330.514 334.668 331.112 339.281L346.663 459.311H302.117L279.377 343.704L182.034 295.508L173.633 234.947Z" fill="#FED2A4"/>
<path d="M331.111 339.281C330.514 334.668 329.001 330.221 326.662 326.2C324.323 322.179 321.204 318.666 317.489 315.866L255.902 269.47L173.633 234.947L175.148 245.871L231.384 269.47L292.971 315.866C296.686 318.666 299.805 322.179 302.144 326.2C304.484 330.22 305.996 334.668 306.594 339.281L322.145 459.311H346.662L331.111 339.281Z" fill="#FFBD86"/>
<path d="M255.902 269.47L311.042 138.771C315.897 127.263 310.816 113.972 299.525 108.644L272.298 95.7963C257.271 88.7053 239.358 92.4663 228.458 105.001C222.814 111.492 218.344 118.918 215.251 126.944L173.633 234.947L255.902 269.47Z" fill="#FE9738"/>
<path d="M299.525 108.644L272.298 95.7963C269.286 94.3784 266.098 93.3707 262.818 92.8003C259.736 92.2642 256.598 92.1197 253.48 92.3703C253.7 110.467 266.028 126.844 284.402 131.408L284.477 131.427C288.223 132.35 290.311 136.332 288.811 139.887L267.585 190.199C252.672 225.547 211.955 242.148 176.578 227.302L174.369 233.035L173.632 234.947L255.901 269.47L311.041 138.771C315.896 127.263 310.815 113.972 299.525 108.644Z" fill="#FE860A"/>
<path d="M310.065 141.086L336.396 158.809H405.167C414.737 158.809 422.793 165.977 423.911 175.488C425.198 186.439 416.877 196.159 405.865 196.567L335.002 199.193C330.722 199.352 326.5 198.165 322.93 195.8L294.832 177.188L310.065 141.086Z" fill="#FED2A4"/>
<path d="M302.116 459.312H346.662L369.474 480.13C371.21 481.714 372.597 483.644 373.546 485.794C374.494 487.945 374.984 490.27 374.984 492.621C374.984 501.957 367.42 509.526 358.09 509.526H322.135C311.079 509.526 302.116 500.557 302.116 489.493V459.312Z" fill="#0067C5"/>
<path d="M369.474 480.129L346.662 459.311H321.694L344.506 480.129C346.242 481.713 347.629 483.643 348.578 485.793C349.526 487.944 350.016 490.269 350.016 492.62C350.016 501.956 342.452 509.525 333.122 509.525H358.09C367.42 509.525 374.984 501.956 374.984 492.62C374.984 487.867 372.984 483.333 369.474 480.129Z" fill="#0055A3"/>
<path d="M50.18 377.809V422.384L29.376 445.211C27.7933 446.947 25.8656 448.335 23.7162 449.284C21.5667 450.234 19.2428 450.724 16.893 450.725C7.564 450.725 0 443.156 0 433.82V391.878C0 384.108 6.295 377.809 14.06 377.809H50.18Z" fill="#0067C5"/>
<path d="M16.894 423.122C7.564 423.122 0 415.554 0 406.217V433.819C0 443.155 7.564 450.724 16.894 450.724C21.645 450.724 26.176 448.723 29.377 445.21L50.181 422.383V394.781L29.377 417.608C27.7944 419.345 25.8667 420.733 23.7173 421.682C21.5678 422.632 19.2438 423.122 16.894 423.122Z" fill="#0055A3"/>
<path d="M189.362 163.562L169.684 164.312L127.151 206.334C118.994 214.393 105.86 214.351 97.754 206.24C89.481 197.962 89.63 184.501 98.083 176.407L142.575 133.808C147.998 128.615 155.104 125.541 162.602 125.145L189.431 123.724L189.362 163.562Z" fill="#FED2A4"/>
<path d="M189.431 123.725L189.362 163.562L222.344 162.305C225.454 162.187 228.435 161.027 230.807 159.013C233.18 156.998 234.807 154.245 235.428 151.195L239.196 132.699C240.406 126.759 235.68 121.277 229.627 121.597L189.431 123.725Z" fill="#FE860A"/>
<path d="M336.396 158.81L310.064 141.087L294.833 177.191L322.931 195.803C324.682 196.962 326.601 197.845 328.621 198.42L336.396 158.81Z" fill="#FE9738"/>
<path d="M311.196 293.3L255.902 269.471L173.633 234.948L140.053 317.246C139.125 319.52 138.887 322.016 139.367 324.424C139.848 326.832 141.026 329.046 142.755 330.789L180.51 368.873C186.337 374.751 196.166 373.469 200.288 366.293L220.336 331.39L257.835 357.626C260.279 359.336 263.252 360.119 266.221 359.834C269.19 359.55 271.96 358.217 274.035 356.074L315.241 313.51C321.336 307.212 319.246 296.769 311.196 293.3Z" fill="#0067C5"/>
<path d="M311.196 293.301L306.948 291.47L295.224 303.58C278.731 320.616 252.306 323.149 232.877 309.556L255.902 269.471L229.405 258.352L201.891 306.252C189.261 328.241 159.164 332.171 141.311 314.162L140.053 317.246C139.125 319.519 138.887 322.014 139.367 324.422C139.847 326.83 141.025 329.043 142.753 330.787L180.512 368.875C186.34 374.754 196.164 373.471 200.287 366.293L220.335 331.39L257.834 357.626C260.278 359.335 263.251 360.118 266.221 359.834C269.19 359.549 271.96 358.216 274.035 356.073L315.236 313.514C321.332 307.217 319.243 296.769 311.196 293.301Z" fill="#0055A3"/>
<path d="M281.727 109.215C259.886 103.789 246.582 81.6725 252.011 59.8165L258.564 33.4345C263.993 11.5785 286.1 -1.74048 307.94 3.68552C329.78 9.11152 343.085 31.2275 337.656 53.0835L331.103 79.4655C325.673 101.322 303.567 114.641 281.727 109.215Z" fill="#FED2A4"/>
<path d="M338.27 50.1991C338.1 51.1591 337.9 52.1191 337.66 53.0791L334.38 66.2591V66.2691L331.1 79.4691C326.49 98.0191 309.86 110.419 291.58 110.419C288.33 110.419 285.03 110.029 281.73 109.209C270.46 106.419 261.47 99.1691 256.15 89.8091C259.3 91.5891 262.74 92.9991 266.42 93.9091C288.26 99.3391 310.37 86.0191 315.8 64.1591L317.76 56.2791L322.35 37.7791C324.89 27.5691 323.33 17.3091 318.73 8.70906C318.56 8.39906 318.39 8.08906 318.22 7.78906C318.44 7.91906 318.66 8.03906 318.88 8.17906C333.16 16.6191 341.22 33.2691 338.27 50.1991Z" fill="#FFBD86"/>
<path d="M307.94 3.68552C286.099 -1.74048 263.993 11.5785 258.564 33.4345L255.287 46.6255L269.368 55.9725C271.451 57.355 273.962 57.9411 276.441 57.6234C278.921 57.3057 281.203 56.1055 282.87 54.2425L288.145 48.3465C289.759 46.5435 291.95 45.3594 294.343 44.9982C296.735 44.6369 299.179 45.1212 301.253 46.3675L334.379 66.2745L337.656 53.0835C343.085 31.2275 329.781 9.11152 307.94 3.68552Z" fill="#685E68"/>
<path d="M338.27 50.1991C338.1 51.1591 337.9 52.1191 337.66 53.0791L334.38 66.2591V66.2691L317.76 56.2791L322.35 37.7791C324.89 27.5691 323.33 17.3091 318.73 8.70906C318.56 8.39906 318.39 8.08906 318.22 7.78906C318.44 7.91906 318.66 8.03906 318.88 8.17906C333.16 16.6191 341.22 33.2691 338.27 50.1991Z" fill="#554E56"/>
</g>
</g>
<defs>
<clipPath id="clip0_170_5127">
<rect width="512" height="512" fill="white"/>
</clipPath>
<clipPath id="clip1_170_5127">
<rect width="512" height="512" fill="white"/>
</clipPath>
</defs>
</svg>
