<svg width="512" height="512" viewBox="0 0 512 512" fill="none" xmlns="http://www.w3.org/2000/svg">
<g clip-path="url(#clip0_170_5033)">
<g clip-path="url(#clip1_170_5033)">
<path d="M453.597 28.5508L498.809 64.7379C504.106 68.9357 508.067 74.5842 510.209 80.9943C512.351 87.4045 512.581 94.2994 510.872 100.838C494.123 163.84 443.965 235.867 385.562 294.27C327.159 352.673 255.132 402.745 192.13 419.58C185.583 421.274 178.684 421.027 172.274 418.87C165.865 416.713 160.221 412.739 156.03 407.431L119.929 362.219L453.597 28.5508Z" fill="#E57E25"/>
<path d="M317.44 58.1424V58.0557C377.665 19.1784 430.861 5.8143 453.597 28.5506C487.702 62.7418 440.667 165.055 348.507 257.215C256.347 349.375 154.034 396.323 119.929 362.218C97.1932 339.482 110.47 286.373 149.348 226.148L317.44 58.1424Z" fill="#F29C1F"/>
<path d="M278.328 282.208C276.531 282.211 274.777 281.657 273.308 280.62C271.839 279.584 270.729 278.117 270.13 276.422C269.53 274.728 269.472 272.889 269.963 271.16C270.454 269.431 271.47 267.897 272.87 266.77C288.512 254.107 303.465 240.616 317.666 226.356C389.129 154.902 418.807 89.9473 421.324 63.7225C421.403 62.5655 421.714 61.4362 422.238 60.4013C422.761 59.3664 423.486 58.4469 424.371 57.6971C425.256 56.9473 426.282 56.3825 427.389 56.036C428.496 55.6895 429.661 55.5684 430.815 55.6798C431.969 55.7911 433.09 56.1328 434.11 56.6845C435.13 57.2362 436.029 57.9867 436.754 58.8918C437.479 59.7969 438.016 60.8382 438.331 61.954C438.647 63.0699 438.736 64.2378 438.593 65.3887C435.295 99.7968 399.889 168.656 329.945 238.636C315.301 253.331 299.888 267.238 283.77 280.298C282.226 281.536 280.307 282.21 278.328 282.208ZM155.483 347.7C153.257 347.701 151.115 346.845 149.502 345.311C147.888 343.776 146.926 341.68 146.815 339.457C146.704 337.233 147.451 335.052 148.903 333.363C150.355 331.675 152.4 330.61 154.615 330.388C170.461 327.81 185.733 322.48 199.741 314.637C201.798 313.602 204.183 313.426 206.37 314.148C208.558 314.871 210.368 316.433 211.404 318.49C212.44 320.548 212.616 322.933 211.893 325.12C211.17 327.307 209.609 329.118 207.551 330.153C191.611 338.838 174.313 344.756 156.394 347.657C156.091 347.683 155.787 347.698 155.483 347.7Z" fill="#F9EAB0"/>
<path d="M58.1424 346.251C56.4263 346.251 54.7488 345.742 53.3221 344.788C51.8954 343.835 50.7834 342.479 50.1267 340.894C49.47 339.308 49.2982 337.564 49.6329 335.881C49.9676 334.198 50.7938 332.652 52.007 331.438L58.1857 325.259C59.8224 323.678 62.0145 322.804 64.2898 322.824C66.5652 322.843 68.7417 323.756 70.3507 325.365C71.9596 326.974 72.8723 329.15 72.8921 331.426C72.9118 333.701 72.0372 335.893 70.4564 337.53L64.2169 343.648C62.6147 345.283 60.4313 346.219 58.1424 346.251ZM21.0354 383.289C19.3193 383.288 17.6419 382.779 16.2151 381.826C14.7884 380.872 13.6764 379.517 13.0197 377.932C12.3631 376.346 12.1912 374.601 12.5259 372.918C12.8606 371.235 13.6868 369.689 14.9001 368.476L27.2575 356.118C28.8942 354.537 31.0862 353.663 33.3616 353.682C35.6369 353.702 37.8134 354.615 39.4224 356.224C41.0314 357.833 41.944 360.009 41.9638 362.285C41.9836 364.56 41.1089 366.752 39.5281 368.389L27.1707 380.746C25.5436 382.374 23.3367 383.288 21.0354 383.289ZM144.61 457.433C142.894 457.433 141.216 456.924 139.789 455.97C138.363 455.017 137.251 453.662 136.594 452.076C135.937 450.491 135.765 448.746 136.1 447.063C136.435 445.38 137.261 443.834 138.474 442.62L144.662 436.441C145.468 435.636 146.425 434.997 147.478 434.561C148.531 434.125 149.66 433.901 150.8 433.901C151.94 433.902 153.069 434.127 154.121 434.563C155.174 435 156.131 435.639 156.937 436.446C157.742 437.252 158.381 438.209 158.817 439.262C159.253 440.315 159.477 441.444 159.477 442.584C159.476 443.724 159.251 444.853 158.815 445.905C158.378 446.958 157.739 447.915 156.932 448.721L150.745 454.899C149.116 456.524 146.91 457.435 144.61 457.433ZM107.546 494.506C105.83 494.505 104.153 493.996 102.726 493.043C101.299 492.089 100.187 490.734 99.5304 489.148C98.8737 487.563 98.7019 485.818 99.0365 484.135C99.3712 482.452 100.197 480.906 101.411 479.692L113.759 467.344C115.396 465.763 117.588 464.888 119.864 464.908C122.139 464.928 124.315 465.84 125.924 467.449C127.533 469.058 128.446 471.235 128.466 473.51C128.486 475.785 127.611 477.978 126.03 479.614L113.681 491.963C112.054 493.591 109.847 494.505 107.546 494.506ZM45.7502 420.361C44.0341 420.361 42.3567 419.852 40.93 418.898C39.5032 417.944 38.3912 416.589 37.7346 415.004C37.0779 413.418 36.9061 411.674 37.2407 409.991C37.5754 408.308 38.4016 406.761 39.6149 405.548L76.6872 368.476C77.4877 367.647 78.4453 366.986 79.504 366.531C80.5627 366.076 81.7015 365.837 82.8537 365.827C84.006 365.817 85.1487 366.036 86.2152 366.472C87.2817 366.909 88.2506 367.553 89.0654 368.368C89.8802 369.183 90.5245 370.152 90.9609 371.218C91.3972 372.285 91.6168 373.427 91.6068 374.58C91.5968 375.732 91.3574 376.871 90.9026 377.929C90.4478 378.988 89.7867 379.946 88.9578 380.746L51.8855 417.818C51.0819 418.627 50.1258 419.268 49.0727 419.705C48.0195 420.141 46.8902 420.364 45.7502 420.361ZM8.67795 457.433C6.96188 457.433 5.28444 456.924 3.8577 455.97C2.43095 455.017 1.31896 453.662 0.662302 452.076C0.00563987 450.491 -0.16621 448.746 0.168478 447.063C0.503166 445.38 1.32936 443.834 2.54263 442.62L14.9001 430.263C16.5477 428.709 18.7364 427.86 21.0007 427.895C23.265 427.93 25.4263 428.847 27.0247 430.451C28.6232 432.056 29.5328 434.22 29.5601 436.484C29.5873 438.749 28.7301 440.935 27.1707 442.577L14.8133 454.891C14.0096 455.699 13.0536 456.34 12.0004 456.777C10.9472 457.213 9.81796 457.436 8.67795 457.433ZM82.8225 457.433C81.1064 457.433 79.429 456.924 78.0022 455.97C76.5755 455.017 75.4635 453.662 74.8068 452.076C74.1502 450.491 73.9783 448.746 74.313 447.063C74.6477 445.38 75.4739 443.834 76.6872 442.62L107.581 411.727C109.208 410.098 111.415 409.183 113.717 409.182C116.019 409.181 118.227 410.095 119.856 411.722C121.484 413.349 122.399 415.557 122.4 417.859C122.401 420.161 121.487 422.369 119.86 423.997L88.9578 454.891C88.1542 455.699 87.1981 456.34 86.1449 456.777C85.0918 457.213 83.9625 457.436 82.8225 457.433ZM45.7502 494.506C44.0341 494.505 42.3567 493.996 40.93 493.043C39.5032 492.089 38.3912 490.734 37.7346 489.148C37.0779 487.563 36.9061 485.818 37.2407 484.135C37.5754 482.452 38.4016 480.906 39.6149 479.692L51.9723 467.344C53.6247 465.85 55.7883 465.048 58.0152 465.105C60.242 465.163 62.3617 466.074 63.9352 467.651C65.5086 469.228 66.4155 471.349 66.468 473.576C66.5204 475.803 65.7144 477.965 64.2169 479.614L51.8855 491.963C51.0819 492.772 50.1258 493.413 49.0727 493.849C48.0195 494.286 46.8902 494.509 45.7502 494.506Z" fill="#E64C3C"/>
<path d="M280.559 189.267C225.974 243.851 167.832 274.311 150.823 257.215C144.835 251.227 144.662 240.293 149.348 226.148C157.939 199.94 183.279 162.972 218.772 127.479C254.264 91.9865 291.233 66.7336 317.44 58.1424C331.585 53.3696 342.519 53.4563 348.507 59.4441C365.603 76.5397 335.143 134.682 280.559 189.267Z" fill="#F0C419"/>
<path d="M231.12 173.204C229.404 173.204 227.727 172.694 226.3 171.741C224.873 170.787 223.761 169.432 223.105 167.847C222.448 166.261 222.276 164.517 222.611 162.833C222.945 161.15 223.772 159.604 224.985 158.391L249.691 133.641C251.328 132.06 253.52 131.186 255.795 131.205C258.071 131.225 260.247 132.138 261.856 133.747C263.465 135.356 264.378 137.532 264.397 139.808C264.417 142.083 263.543 144.275 261.962 145.912L237.256 170.67C235.627 172.294 233.42 173.206 231.12 173.204Z" fill="#E57E25"/>
</g>
</g>
<defs>
<clipPath id="clip0_170_5033">
<rect width="512" height="512" fill="white"/>
</clipPath>
<clipPath id="clip1_170_5033">
<rect width="512" height="512" fill="white"/>
</clipPath>
</defs>
</svg>
