<svg width="512" height="512" viewBox="0 0 512 512" fill="none" xmlns="http://www.w3.org/2000/svg">
<g clip-path="url(#clip0_170_4986)">
<path d="M272 200C277.395 199.991 282.769 199.319 288 198V208H224L231.84 204.08C234.22 202.892 236.234 201.082 237.67 198.843C239.107 196.604 239.912 194.019 240 191.36C249.701 197.054 260.752 200.038 272 200Z" fill="#F2987E"/>
<path d="M56.0001 152L75.5201 184.56C78.462 189.407 80.0121 194.97 80.0001 200.64C79.9874 208.953 76.6793 216.922 70.8009 222.801C64.9225 228.679 56.9534 231.987 48.6401 232H39.3601C35.2401 232.006 31.1593 231.199 27.3517 229.626C23.544 228.052 20.0844 225.742 17.1711 222.829C14.2578 219.916 11.9481 216.456 10.3743 212.648C8.8006 208.841 7.99376 204.76 8.00008 200.64V174.56C7.98242 165.074 10.7958 155.798 16.0801 147.92L24.0001 136L192 96.8V104L192.4 105.92C189.867 107.299 187.751 109.333 186.273 111.81C184.795 114.287 184.01 117.116 184 120V122.32L56.0001 152ZM344 85.12L343.92 85.2C341.714 81.7374 339.02 78.6118 335.92 75.92C335.665 71.7728 335.076 67.6528 334.16 63.6L368 55.76V79.6L344 85.12ZM466.24 54.8L460.32 36.96C460.029 36.0985 459.654 35.2679 459.2 34.48L504 24V48L466.72 56.64C466.636 56.0094 466.474 55.3915 466.24 54.8Z" fill="#C5CED6"/>
<path d="M334.16 63.6C335.076 67.6528 335.665 71.7728 335.92 75.92C329.722 70.3831 322 66.8425 313.76 65.76C302.555 64.4677 291.279 63.8799 280 64C250.72 64 230.56 69.2 219.2 77.28C215.912 79.2096 213.163 81.9358 211.205 85.2073C209.248 88.4789 208.146 92.1905 208 96V104H200C197.348 104.009 194.738 104.668 192.4 105.92L192 104V80C192.046 62.3541 198.567 45.3386 210.325 32.1808C222.083 19.023 238.261 10.6378 255.791 8.61549C273.321 6.59321 290.983 11.0745 305.428 21.2094C319.874 31.3443 330.097 46.4281 334.16 63.6Z" fill="#2864F0"/>
<path d="M344.48 86.0797L360 112C360 112 349.52 109.92 336 107.84C322.768 105.663 309.405 104.38 296 104C277.114 104.795 258.354 107.475 240 112L219.2 77.2797C230.56 69.1997 250.72 63.9997 280 63.9997C291.279 63.8795 302.555 64.4673 313.76 65.7597C322 66.8421 329.723 70.3827 335.92 75.9197C339.02 78.6114 341.715 81.7371 343.92 85.1997C344.125 85.4812 344.312 85.7751 344.48 86.0797Z" fill="#2B8FFC"/>
<path d="M208 136C207.983 141.26 208.628 146.501 209.92 151.6L208 152C201.635 152 195.53 149.471 191.029 144.971C186.529 140.47 184 134.365 184 128V120C184 115.757 185.686 111.687 188.686 108.686C191.687 105.686 195.757 104 200 104H208V136Z" fill="#FFBEAA"/>
<path d="M288 198C282.769 199.319 277.395 199.991 272 200C260.752 200.038 249.701 197.054 240 191.36C235.13 188.628 230.661 185.236 226.72 181.28C218.562 173.071 212.76 162.82 209.92 151.6C208.628 146.501 207.983 141.26 208 136V96.0003C208.146 92.1907 209.248 88.4791 211.205 85.2076C213.163 81.936 215.912 79.2099 219.2 77.2803L240 112C258.354 107.476 277.114 104.796 296 104C309.405 104.38 322.768 105.663 336 107.84V144C336 167.12 315.6 191.12 288 198Z" fill="#FFBEAA"/>
<path d="M471.68 255.76L426.48 225.68C430.152 215.66 432.021 205.07 432 194.4V79.9996L454.24 75.5196C455.278 75.2844 456.295 74.9633 457.28 74.5596L457.52 75.0396C467.041 94.0929 471.998 115.1 472 136.4V249.36C472.015 251.497 471.908 253.634 471.68 255.76Z" fill="#F2987E"/>
<path d="M421.84 236.56L416 248L384.16 197.12L389.76 105.68C389.915 104.674 390.156 103.684 390.48 102.72C391.631 99.1108 393.731 95.8776 396.56 93.3584C399.389 90.8392 402.843 89.1266 406.56 88.3996C407.96 88.1475 409.378 88.0137 410.8 87.9996C416.366 87.959 421.721 90.1247 425.694 94.0228C429.667 97.9209 431.935 103.234 432 108.8V194.4C432.021 205.07 430.152 215.66 426.48 225.68C425.216 229.42 423.665 233.058 421.84 236.56Z" fill="#FFBEAA"/>
<path d="M457.28 74.56C456.295 74.9637 455.278 75.2848 454.24 75.52L432 80V45.12C431.582 41.2738 429.671 37.7451 426.68 35.292C423.688 32.8388 419.854 31.6568 416 32H408L442.48 26.24C445.779 25.687 449.168 26.1851 452.169 27.6638C455.169 29.1425 457.629 31.5269 459.2 34.48C459.654 35.2679 460.029 36.0986 460.32 36.96L466.24 54.8C466.474 55.3915 466.635 56.0094 466.72 56.64C467.48 60.2589 466.953 64.0298 465.23 67.3015C463.506 70.5732 460.695 73.1405 457.28 74.56Z" fill="#2864F0"/>
<path d="M432 79.9997V108.8C431.935 103.234 429.667 97.921 425.694 94.0229C421.721 90.1248 416.366 87.9591 410.8 87.9997C409.378 88.0138 407.96 88.1476 406.56 88.3997C402.842 89.1267 399.389 90.8394 396.56 93.3586C393.731 95.8778 391.631 99.1109 390.48 102.72L368 84.3997V45.1197C368.418 41.2735 370.329 37.7448 373.32 35.2916C376.312 32.8385 380.146 31.6565 384 31.9997H416C419.854 31.6565 423.688 32.8385 426.68 35.2916C429.671 37.7448 431.582 41.2735 432 45.1197V79.9997Z" fill="#2B8FFC"/>
<path d="M416 248L421.84 236.56C423.665 233.058 425.216 229.42 426.48 225.68L471.68 255.76C470.809 264.281 468.195 272.532 464 280H463.92L412.32 250.48L416 248Z" fill="#E1EAF2"/>
<path d="M384.16 197.12L416 248L412.32 250.48L392 264H384L344 208V200L376 184L384.16 197.12Z" fill="#FDFEFF"/>
<path d="M463.92 280C458.506 289.716 450.592 297.806 440.999 303.432C431.405 309.059 420.482 312.017 409.36 312H408L406.08 312.64C401.983 301.513 397.283 290.617 392 280L384 264H392L412.32 250.48L463.92 280Z" fill="#6F3FF3"/>
<path d="M344 208L384 264L256 288H224C213.391 288 203.217 283.786 195.716 276.284C188.214 268.783 184 258.609 184 248C184 237.391 188.214 227.217 195.716 219.716C203.217 212.214 213.391 208 224 208H344Z" fill="#9863FC"/>
<path d="M424 415.6V504H240L268.64 418.08C269.633 415.086 269.722 411.866 268.897 408.822C268.072 405.777 266.369 403.043 264 400.96L232.4 373.28C201.27 338.979 184.017 294.321 184 248C184 258.609 188.214 268.783 195.716 276.284C203.217 283.786 213.391 288 224 288H256L384 264L392 280C397.283 290.616 401.983 301.512 406.08 312.64C417.912 345.679 423.974 380.506 424 415.6Z" fill="#2B8FFC"/>
<path d="M234.456 102.752L219.2 77.2803C215.912 79.2099 213.163 81.936 211.205 85.2076C209.248 88.4791 208.146 92.1907 208 96.0003V124.736C218.798 120.185 228.005 112.535 234.456 102.752Z" fill="#414952"/>
<path d="M208 112C204.119 111.691 200.272 112.914 197.282 115.407C194.291 117.899 192.395 121.463 192 125.336V132C192.417 136.038 194.289 139.785 197.267 142.543C200.246 145.3 204.126 146.879 208.184 146.984C208.128 145.976 208 144.992 208 144V112Z" fill="#F29B87"/>
<path d="M265.688 91.7838C277.264 88.7198 301.456 86.3438 349.32 94.1838L344.52 86.1038C344.352 85.7992 344.165 85.5053 343.96 85.2238C341.754 81.7612 339.06 78.6356 335.96 75.9438C329.762 70.4069 322.04 66.8662 313.8 65.7838C302.582 64.4818 291.293 63.8859 280 63.9998C265.171 63.665 250.373 65.495 236.072 69.4318L248.536 86.0398C250.493 88.6029 253.173 90.5203 256.23 91.5442C259.288 92.5682 262.582 92.6516 265.688 91.7838Z" fill="#2CB5FF"/>
<path d="M330.272 52.0636C324.616 45.7095 317.67 40.6336 309.898 37.1739C302.127 33.7143 293.707 31.9504 285.2 31.9996H260C244.779 31.6386 230.038 37.3335 219.013 47.8334C207.988 58.3332 201.582 72.7796 201.2 87.9996H192V104L192.4 105.92C194.738 104.668 197.348 104.009 200 104H208V95.9996C208.146 92.19 209.248 88.4784 211.205 85.2069C213.163 81.9353 215.912 79.2091 219.2 77.2796C230.56 69.1996 250.72 63.9996 280 63.9996C291.279 63.8794 302.555 64.4672 313.76 65.7596C322 66.842 329.722 70.3826 335.92 75.9196C335.665 71.7723 335.076 67.6524 334.16 63.5996C333.197 59.6498 331.897 55.7902 330.272 52.0636Z" fill="#2357D1"/>
<path d="M234.456 102.752L219.2 77.2803C215.912 79.2099 213.163 81.936 211.205 85.2076C209.248 88.4791 208.146 92.1907 208 96.0003V99.9443L217.72 119.424C224.338 115.018 230.024 109.353 234.456 102.752Z" fill="#333940"/>
<path d="M296 104C277.113 104.795 258.354 107.475 240 112L234.456 102.752C230.024 109.353 224.338 115.017 217.72 119.424L226 136C248.777 129.247 272.274 125.219 296 124C309.416 124.355 322.787 125.716 336 128.072V107.84C322.768 105.663 309.404 104.38 296 104Z" fill="#FAA592"/>
<path d="M455.768 220.664C453.399 219.242 451.438 217.231 450.077 214.827C448.715 212.423 448 209.707 448 206.944V99.5358C447.996 96.1736 449.051 92.8955 451.015 90.167C452.98 87.4385 455.754 85.3982 458.944 84.3358L461.344 83.5358C460.157 80.6575 458.871 77.8211 457.488 75.0318L457.248 74.5518C456.263 74.9555 455.246 75.2766 454.208 75.5118L432 79.9998V194.4C432.021 205.07 430.152 215.661 426.48 225.68L471.68 255.76C471.908 253.634 472.015 251.497 472 249.36V230.4L455.768 220.664Z" fill="#E68D79"/>
<path d="M457.28 74.5603C460.519 73.2128 463.219 70.828 464.957 67.7802C466.694 64.7324 467.371 61.1941 466.88 57.7203L458.56 60.4883C457.356 60.8949 456.073 61.0089 454.816 60.8209C453.559 60.6328 452.365 60.1481 451.333 59.4068C450.301 58.6656 449.461 57.6892 448.881 56.5584C448.301 55.4276 447.999 54.175 448 52.9043V48.0003C447.99 43.8036 446.876 39.6834 444.769 36.0534C442.663 32.4235 439.639 29.4117 436 27.3203L408 32.0003H416C419.854 31.6571 423.688 32.8391 426.68 35.2923C429.671 37.7454 431.582 41.2741 432 45.1203V80.0003L454.24 75.5203C455.278 75.2851 456.295 74.964 457.28 74.5603Z" fill="#2357D1"/>
<path d="M416 31.9997H384C380.146 31.6565 376.312 32.8385 373.32 35.2916C370.329 37.7448 368.418 41.2735 368 45.1197V47.9997H408C410.122 47.9997 412.157 48.8425 413.657 50.3428C415.157 51.8431 416 53.878 416 55.9997V71.9997C420.243 71.9997 424.313 73.6854 427.314 76.686C430.314 79.6866 432 83.7562 432 87.9997V45.1197C431.582 41.2735 429.671 37.7448 426.68 35.2916C423.688 32.8385 419.854 31.6565 416 31.9997Z" fill="#2CB5FF"/>
<path d="M416 72H368V84.4L390.48 102.72C391.631 99.1112 393.731 95.8781 396.56 93.3589C399.389 90.8397 402.842 89.127 406.56 88.4C407.96 88.1479 409.378 88.0141 410.8 88C416.366 87.9594 421.721 90.1251 425.694 94.0232C429.667 97.9213 431.935 103.234 432 108.8V88C432 83.7565 430.314 79.6869 427.314 76.6863C424.313 73.6857 420.243 72 416 72Z" fill="#2864F0"/>
<path d="M410.8 87.9996C409.378 88.0137 407.96 88.1475 406.56 88.3996C406.04 88.5036 405.592 88.7676 405.088 88.9036C408.26 89.9585 411.02 91.9835 412.978 94.6924C414.936 97.4013 415.993 100.657 416 104V192L413.176 200.48C412.703 201.901 411.841 203.161 410.687 204.117C409.533 205.072 408.134 205.684 406.649 205.884C405.164 206.083 403.653 205.861 402.288 205.244C400.923 204.626 399.759 203.638 398.928 202.392L385.104 181.664L384.16 197.12L416 248L421.84 236.56C423.665 233.058 425.216 229.42 426.48 225.68C430.152 215.66 432.021 205.07 432 194.4V108.8C431.935 103.234 429.667 97.9209 425.694 94.0228C421.721 90.1247 416.366 87.959 410.8 87.9996Z" fill="#FAA592"/>
<path d="M441.824 254.896L445.176 238.096L426.48 225.68C425.216 229.42 423.665 233.058 421.84 236.56L416 248L412.32 250.48L436.12 264.08C439.036 261.779 441.054 258.529 441.824 254.896Z" fill="#C5CED6"/>
<path d="M431.2 266.936C433.001 266.295 434.67 265.332 436.128 264.096L412.328 250.496L392 264H384L392 280C397.283 290.616 401.983 301.512 406.08 312.64L408 312H409.36C416.887 311.971 424.346 310.578 431.376 307.888L422.304 286.72C421.503 284.846 421.099 282.826 421.118 280.787C421.136 278.749 421.578 276.737 422.414 274.877C423.25 273.018 424.462 271.353 425.975 269.986C427.487 268.619 429.266 267.581 431.2 266.936Z" fill="#6E0DD6"/>
<path d="M405.104 238.176C403.398 239.456 401.453 240.382 399.383 240.899C397.314 241.417 395.162 241.515 393.054 241.189C390.946 240.862 388.925 240.117 387.109 238.998C385.293 237.879 383.719 236.408 382.48 234.672L354.104 194.944L344 200V208L384 264H392L412.32 250.48L416 248L408.336 235.752L405.104 238.176Z" fill="#EBF5F7"/>
<path d="M325.336 208L337.152 225.736C338.686 228.038 339.597 230.699 339.796 233.458C339.995 236.217 339.475 238.981 338.287 241.479C337.099 243.978 335.284 246.125 333.018 247.713C330.752 249.3 328.114 250.273 325.36 250.536L210.272 261.496C204.419 262.051 198.567 260.438 193.824 256.964C189.082 253.489 185.78 248.395 184.544 242.648C184.241 244.418 184.059 246.206 184 248C184 258.609 188.214 268.783 195.716 276.284C203.217 283.786 213.391 288 224 288H256L384 264L344 208H325.336Z" fill="#6F3FF3"/>
<path d="M406.176 312.928C402.056 301.701 397.324 290.709 392 280L384 264L256 288H224C213.391 288 203.217 283.786 195.716 276.284C188.214 268.783 184 258.609 184 248C184.152 294.296 201.387 338.907 232.4 373.28L264 400.96C266.369 403.043 268.072 405.777 268.897 408.822C269.722 411.866 269.633 415.086 268.64 418.08L240 504H272L300.64 418.08C301.633 415.086 301.722 411.866 300.897 408.822C300.072 405.777 298.369 403.043 296 400.96L264.4 373.28C257.95 366.163 252.066 358.553 246.8 350.52C244.433 346.751 243.164 342.396 243.136 337.944C243.109 333.493 244.324 329.123 246.645 325.325C248.966 321.527 252.301 318.452 256.274 316.445C260.247 314.439 264.702 313.581 269.136 313.968C314.781 316.94 360.581 316.593 406.176 312.928Z" fill="#2864F0"/>
<path d="M424 415.6C423.957 382.777 418.627 350.176 408.216 319.048C408.896 347.848 409.184 457.584 376.616 504H424V415.6Z" fill="#2CB5FF"/>
<path d="M352 59.4643V64.0963C351.999 65.8932 351.393 67.6375 350.28 69.0481C349.167 70.4588 347.612 71.4536 345.864 71.8723L335.752 74.2723C335.8 74.8163 335.888 75.3443 335.92 75.8723C339.02 78.564 341.714 81.6897 343.92 85.1523L344 85.0723L352 83.2323L368 79.5523V55.7603L352 59.4643ZM476.152 40.6083L473.752 31.0723L459.2 34.4803C459.654 35.2681 460.029 36.0988 460.32 36.9603L462.608 43.8563L466.24 54.8003C466.474 55.3918 466.636 56.0097 466.72 56.6403L479.424 53.6963L504 48.0003V33.9203L476.152 40.6083ZM47.3601 224C43.2401 224.007 39.1593 223.2 35.3517 221.626C31.544 220.052 28.0844 217.743 25.1711 214.829C22.2578 211.916 19.9481 208.456 18.3743 204.649C16.8006 200.841 15.9938 196.76 16.0001 192.64V166.56C15.9824 157.074 18.7958 147.798 24.0801 139.92L27.1761 135.256L24.0001 136L16.0801 147.92C10.7958 155.798 7.98242 165.074 8.00008 174.56V200.64C7.99376 204.76 8.8006 208.841 10.3743 212.649C11.9481 216.456 14.2578 219.916 17.1711 222.829C20.0844 225.743 23.544 228.052 27.3517 229.626C31.1593 231.2 35.2401 232.007 39.3601 232H48.6401C52.7577 232.002 56.8349 231.19 60.6378 229.611C64.4407 228.032 67.8942 225.717 70.8001 222.8C72.1294 221.444 73.3342 219.972 74.4001 218.4C69.1907 222.036 62.993 223.991 56.6401 224H47.3601ZM192 104V96.8003L168 102.4V105.752C168 107.536 167.404 109.268 166.307 110.674C165.21 112.08 163.674 113.079 161.944 113.512L40.0001 144L56.0001 152L184 122.32V120C184.01 117.116 184.795 114.288 186.273 111.811C187.751 109.334 189.867 107.299 192.4 105.92L192 104Z" fill="#A4ADB5"/>
<path d="M75.886 212.211C78.4635 209.633 77.6454 204.636 74.0588 201.05C70.4723 197.463 65.4753 196.645 62.8979 199.223C60.3204 201.8 61.1385 206.797 64.725 210.384C68.3116 213.97 73.3085 214.788 75.886 212.211Z" fill="#F6FAFD"/>
<path d="M312 112C312 120.84 315.576 128 320 128C324.424 128 328 120.84 328 112C327.991 110.202 327.825 108.409 327.504 106.64C322.627 105.989 317.738 105.432 312.84 104.968C312.28 107.27 311.998 109.631 312 112ZM248 112C248 120.84 251.584 128 256 128C260.416 128 264 120.84 264 112C263.993 110.392 263.859 108.787 263.6 107.2C257.592 108.208 252.2 109.28 248.096 110.16C248.056 110.768 248 111.368 248 112Z" fill="#333940"/>
<path d="M296 142.856C296 156.112 292.416 160 288 160C283.584 160 280 156.112 280 142.856C280 129.6 283.576 112 288 112C292.424 112 296 129.6 296 142.856Z" fill="#F2987E"/>
<path d="M66.3485 194.535C71.4784 189.405 69.8474 179.456 62.7055 172.314C55.5635 165.173 45.6153 163.541 40.4853 168.671C35.3554 173.801 36.9864 183.75 44.1283 190.892C51.2703 198.033 61.2185 199.664 66.3485 194.535Z" fill="#F6FAFD"/>
<path d="M307.981 44.2646C310.558 41.6871 309.74 36.6902 306.154 33.1036C302.567 29.517 297.57 28.699 294.993 31.2765C292.415 33.8539 293.233 38.8509 296.82 42.4374C300.407 46.024 305.404 46.842 307.981 44.2646Z" fill="#F6FAFD"/>
<path d="M414.701 53.068C415.992 51.7777 415.584 49.2779 413.791 47.4846C411.997 45.6913 409.498 45.2836 408.207 46.5739C406.917 47.8642 407.325 50.3639 409.118 52.1572C410.911 53.9505 413.411 54.3582 414.701 53.068Z" fill="#F6FAFD"/>
<path d="M286.694 29.0172C287.984 27.7269 287.577 25.2271 285.783 23.4338C283.99 21.6406 281.49 21.2328 280.2 22.5231C278.91 23.8134 279.318 26.3131 281.111 28.1064C282.904 29.8997 285.404 30.3075 286.694 29.0172Z" fill="#F6FAFD"/>
<path d="M272 168H304C304.045 170.113 303.662 172.214 302.873 174.175C302.085 176.137 300.908 177.919 299.413 179.413C297.919 180.908 296.137 182.085 294.176 182.873C292.214 183.661 290.114 184.045 288 184C264 184 272 168 272 168Z" fill="#F2987E"/>
</g>
<defs>
<clipPath id="clip0_170_4986">
<rect width="512" height="512" fill="white"/>
</clipPath>
</defs>
</svg>
