<svg width="512" height="512" viewBox="0 0 512 512" fill="none" xmlns="http://www.w3.org/2000/svg">
<g clip-path="url(#clip0_170_4939)">
<path d="M310.444 379.532C310.444 379.532 323.877 408.366 372.471 414.087C372.471 414.087 346.531 418.015 341.458 420.873C338.227 422.693 329.235 418.141 323.128 414.594C314.927 409.833 304.361 413.654 301.163 422.581L301.01 423.019C296.011 437.667 263.852 428.735 263.852 428.735C263.852 428.735 254.562 430.164 263.852 439.813C273.143 449.457 295.652 448.745 295.652 448.745C295.652 448.745 321.736 440.525 345.675 445.528C369.613 450.527 401.45 444.397 419.994 443.024C434.674 441.94 476.802 438.384 466.795 407.296C466.795 407.296 459.292 387.644 418.202 376.571C377.111 365.498 367.467 361.565 367.467 361.565L310.444 379.532ZM306.576 309.36H318.953L335.83 319.981L348.211 336.859L330.203 361.565L310.514 371.177L301.522 367.337L246.374 336.295C246.374 336.295 208.114 310.416 203.618 305.915C199.122 301.414 181.672 286.227 181.672 286.227C181.672 286.227 127.665 229.962 104.034 217.586C80.4027 205.21 45.5216 170.887 45.5216 170.887C45.5216 170.887 38.7725 159.637 51.1489 157.947C51.1489 157.947 61.8357 160.759 65.2149 166.386C68.5895 172.013 100.659 179.326 100.659 179.326C100.659 179.326 113.036 178.199 115.284 193.392C115.284 193.392 120.916 204.083 147.354 212.522C173.792 220.961 207.556 268.218 207.556 268.218L254.25 296.913C254.25 296.913 282.475 301.978 306.576 309.36Z" fill="#FBC9B2"/>
<path d="M302.238 211.758C303.812 211.87 290.444 206.792 279.71 204.246C276.531 203.497 270.238 215.352 270.238 215.352C270.238 215.352 266.319 218.615 263.382 222.208C263.382 222.208 257.178 222.534 257.178 228.082C257.178 233.635 259.612 237.307 252.607 248.39C243.033 263.531 260.385 280.669 260.385 280.669L290.155 271.513L325.623 263.024L327.052 232.983L302.238 211.758Z" fill="#FBC9B2"/>
<path d="M250.629 264.565C250.629 264.565 261.883 252.072 271.909 248.884C274.348 248.107 276.601 246.775 278.23 244.802C279.263 243.55 280.129 241.995 280.357 240.166L282.317 238.537C282.317 238.537 282.303 253.552 288.842 253.552C295.382 253.552 297.337 248.386 297.337 248.386C297.337 248.386 299.297 239.514 297.337 232.002C295.382 224.494 302.238 224.494 302.238 224.494L331.622 242.191L325.623 269.229C325.623 269.229 317.44 293.684 298.785 295.718C282.824 297.459 268.93 288.82 268.93 288.82C268.93 288.82 255.4 283.272 250.629 264.565Z" fill="#293B44"/>
<path d="M236.111 127.689L227.859 110.076C227.859 110.076 216.595 110.076 214.882 105.915C214.882 105.915 210.395 104.69 225.494 104.937C225.494 104.937 229.083 97.8343 222.715 89.2606C216.348 80.6869 221.491 81.9157 221.491 81.9157C221.491 81.9157 226.635 83.3866 222.962 77.2612C219.285 71.1404 211.94 66.4859 216.106 63.5489C216.106 63.5489 218.554 63.3022 219.778 66.2439C219.778 66.2439 219.778 60.8539 223.94 64.5263C228.105 68.2034 236.111 78.732 236.111 78.732C236.111 78.732 241.571 86.0769 241.324 82.4091C241.082 78.732 242.064 72.1226 245.979 74.0775C249.898 76.037 250.633 89.5073 250.633 89.5073C250.633 89.5073 253.575 102.484 250.633 107.381C247.692 112.277 253.347 116.834 253.347 116.834V132.12H241.082L236.111 127.689Z" fill="#FBC9B2"/>
<path d="M301.522 367.337C301.522 367.337 325.013 370.014 329.77 334.928C329.77 334.928 333.038 310.547 306.576 309.36C306.576 309.36 318.171 304.305 335.123 309.36C335.123 309.36 353.555 311.734 348.798 293.898C344.041 276.062 325.553 272.785 325.553 272.785C325.553 272.785 304.198 265.947 307.768 238.295C307.768 238.295 298.25 226.7 289.927 204.996C281.6 183.292 266.142 169.91 266.142 169.91L236.111 127.689C236.111 127.689 250.084 135.122 251.867 114.609C251.867 114.609 265.845 136.314 275.358 141.959C284.872 147.61 312.823 188.347 312.823 188.347C312.823 188.347 324.413 211.834 341.96 214.51C359.503 217.186 369.608 221.645 369.608 221.645C369.608 221.645 395.18 229.972 407.669 261.19C407.669 261.19 437.7 311.143 377.344 360.798C377.344 360.798 333.038 391.127 310.444 379.527C310.444 379.527 303.602 376.558 301.522 367.337Z" fill="#DD584D"/>
</g>
<defs>
<clipPath id="clip0_170_4939">
<rect width="512" height="512" fill="white"/>
</clipPath>
</defs>
</svg>
