<svg width="512" height="512" viewBox="0 0 512 512" fill="none" xmlns="http://www.w3.org/2000/svg">
<g clip-path="url(#clip0_170_4892)">
<g clip-path="url(#clip1_170_4892)">
<path d="M362.561 319.683H286.446L301.669 334.906H362.561C366.758 334.906 370.172 338.32 370.172 342.517C370.175 344.128 369.666 345.697 368.718 346.999C367.769 348.301 366.432 349.267 364.898 349.758L284.106 375.87C282.574 376.365 281.239 377.332 280.292 378.634C279.345 379.935 278.835 381.503 278.835 383.113V413.559C278.835 417.763 282.242 421.17 286.447 421.17C290.652 421.17 294.058 417.763 294.058 413.559V388.652L369.579 364.244C374.179 362.77 378.191 359.87 381.035 355.964C383.878 352.058 385.406 347.349 385.396 342.518C385.395 329.927 375.151 319.683 362.561 319.683Z" fill="#7DD9FF"/>
<path d="M263.612 289.237V488.752L288.851 497.165C290.767 497.803 292.35 499.176 293.253 500.982C294.156 502.788 294.304 504.878 293.666 506.793C293.028 508.708 291.655 510.292 289.849 511.194C288.043 512.097 285.953 512.246 284.038 511.608L253.594 501.459C252.078 500.954 250.76 499.985 249.826 498.689C248.892 497.393 248.39 495.836 248.39 494.238V289.237H263.612Z" fill="#A8E5FF"/>
<path d="M210.331 180.139C164.165 180.139 126.605 142.579 126.605 96.4123C126.605 92.2077 123.198 88.8008 118.993 88.8008C114.788 88.8008 111.382 92.2077 111.382 96.4123C111.382 150.974 155.77 195.362 210.331 195.362H255.999V180.139H210.331Z" fill="#EBEBEB"/>
<path d="M393.007 88.8008C392.007 88.8006 391.018 88.9974 390.094 89.3799C389.171 89.7624 388.331 90.323 387.625 91.0298C386.918 91.7367 386.357 92.5758 385.975 93.4993C385.592 94.4229 385.395 95.4127 385.395 96.4123C385.395 142.579 347.835 180.139 301.669 180.139H255.999V195.362H301.669C356.23 195.362 400.618 150.974 400.618 96.4123C400.618 92.2077 397.212 88.8008 393.007 88.8008Z" fill="#CCCCCC"/>
<path d="M223.76 91.3379V123.061C220.293 131.256 212.178 137.007 202.72 137.007C190.109 137.007 179.885 126.783 179.885 114.172C179.885 101.562 190.109 91.3379 202.72 91.3379H223.76Z" fill="#4F4F4F"/>
<path d="M270.302 75.6553L256 137.007C281.222 137.007 301.669 116.56 301.669 91.338L270.302 75.6553Z" fill="#FFB4A9"/>
<path d="M271.223 91.3379C271.223 85.8282 270.897 80.5458 270.302 75.6552L228.596 54.8037C217.506 63.1358 210.331 76.398 210.331 91.3379C210.331 116.56 230.778 137.007 256 137.007C264.407 137.007 271.223 116.56 271.223 91.3379Z" fill="#FFD9D4"/>
<path d="M256 45.6689L271.12 86.0931C280.929 89.5727 291.261 91.3466 301.669 91.3379C301.669 66.1155 281.222 45.6689 256 45.6689Z" fill="#353535"/>
<path d="M256 45.669C246.115 45.6538 236.494 48.8611 228.596 54.8048C239.284 69.0332 254.034 80.0303 271.12 86.0942C270.253 63.3429 263.816 45.669 256 45.669Z" fill="#4F4F4F"/>
<path d="M256 45.669C281.222 45.669 301.669 25.2225 301.669 0C276.447 0 256 20.4465 256 45.669Z" fill="#EB1B00"/>
<path d="M210.331 0C210.331 25.2225 230.778 45.669 256 45.669C256 20.4465 235.554 0 210.331 0Z" fill="#FF4128"/>
<path d="M256 228.345L271.223 334.905L301.669 334.906V258.791L256 228.345Z" fill="#7DD9FF"/>
<path d="M210.331 258.791V289.237C210.331 314.459 230.778 334.906 256 334.906H271.223V228.345L210.331 258.791Z" fill="#A8E5FF"/>
<path d="M281.372 167.452H250.926L271.223 258.79H301.669V187.749C301.669 176.54 292.582 167.452 281.372 167.452Z" fill="#CCCCCC"/>
<path d="M250.926 167.452H230.628C219.418 167.452 210.331 176.539 210.331 187.749V258.79H271.223V187.749C271.223 176.54 262.136 167.452 250.926 167.452Z" fill="#EBEBEB"/>
<path d="M362.561 304.46C375.172 304.46 385.396 294.237 385.396 281.626C385.396 269.014 375.172 258.791 362.561 258.791C349.95 258.791 339.727 269.014 339.727 281.626C339.727 294.237 349.95 304.46 362.561 304.46Z" fill="#FF4128"/>
</g>
</g>
<defs>
<clipPath id="clip0_170_4892">
<rect width="512" height="512" fill="white"/>
</clipPath>
<clipPath id="clip1_170_4892">
<rect width="512" height="512" fill="white"/>
</clipPath>
</defs>
</svg>
