<svg width="512" height="512" viewBox="0 0 512 512" fill="none" xmlns="http://www.w3.org/2000/svg">
<g clip-path="url(#clip0_170_4845)">
<path d="M138.527 173.473L116.636 199.609L145.446 230.554L152 224L194.6 160.1H168C156.88 160.84 146.407 165.592 138.527 173.473Z" fill="#007AF6"/>
<path d="M56 272L80 296L145.446 230.554L116.636 199.609L56 272Z" fill="#FDC9A6"/>
<path d="M230.588 347.877L162.925 374.694L165.56 395.604C167.127 406.58 172.802 416.552 181.439 423.504C188.318 429.041 196.712 432.366 205.517 433.044L264 437.544V373.333L230.588 347.877Z" fill="#D6A27F"/>
<path d="M152 288L162.925 374.694L230.588 347.877L152 288Z" fill="#005DBB"/>
<path d="M264 373.333V437.539L295.953 439.996L295.852 397.602L264 373.333Z" fill="#EAE9E4"/>
<path d="M320 416L295.852 397.602L295.953 439.996L296 440L320.909 456L336 448L320 416Z" fill="#005DBB"/>
<path d="M360 128C377.673 128 392 113.673 392 96C392 78.3269 377.673 64 360 64C342.327 64 328 78.3269 328 96C328 113.673 342.327 128 360 128Z" fill="#FD7422"/>
<path d="M372.23 95.0797C368.203 99.0984 365.546 104.284 364.636 109.9C363.726 115.515 364.609 121.275 367.16 126.36C367.28 126.61 367.4 126.87 367.49 127.12C361.719 128.497 355.68 128.251 350.04 126.41C347.85 118.981 347.704 111.099 349.619 103.594C351.534 96.0897 355.438 89.2408 360.92 83.7697L376.26 68.4297C380.923 71.1861 384.814 75.0766 387.57 79.7397L372.23 95.0797Z" fill="#FD7422"/>
<path d="M372.23 95.0797C368.203 99.0984 365.546 104.284 364.636 109.9C363.726 115.515 364.609 121.275 367.16 126.36C367.28 126.61 367.4 126.87 367.49 127.12C361.719 128.497 355.68 128.251 350.04 126.41C347.85 118.981 347.704 111.099 349.619 103.594C351.534 96.0897 355.438 89.2408 360.92 83.7697L376.26 68.4297C380.923 71.1861 384.814 75.0766 387.57 79.7397L372.23 95.0797Z" fill="#DC651E"/>
<path d="M184 120V136C184 142.365 186.529 148.47 191.029 152.971C195.53 157.471 201.635 160 208 160C214.365 160 220.47 157.471 224.971 152.971C229.471 148.47 232 142.365 232 136L216 120H184Z" fill="#FDC9A6"/>
<path d="M208 96C201.635 96 195.53 98.5286 191.029 103.029C186.529 107.53 184 113.635 184 120H216L232 136V120C232 113.635 229.471 107.53 224.971 103.029C220.47 98.5286 214.365 96 208 96Z" fill="#4A4B46"/>
<path d="M256 224L248 200V160H182C174.044 160 166.413 163.161 160.787 168.787C155.161 174.413 152 182.044 152 190V272H256V224Z" fill="#EAE9E4"/>
<path d="M256 224H288L296 176L259.576 161.43C257.213 160.485 254.692 160 252.148 160H248V200L256 224Z" fill="#007AF6"/>
<path d="M309.587 224C312.803 224 315.971 223.225 318.823 221.74C321.676 220.254 324.128 218.103 325.972 215.469L376 144L388.248 135.835C391.493 133.672 393.836 130.398 394.837 126.629C395.838 122.86 395.428 118.855 393.684 115.367L392 112L368 120H358.627C356.526 120 354.445 120.414 352.504 121.218C350.563 122.022 348.799 123.2 347.313 124.686L296 176L288 224H309.587Z" fill="#FDC9A6"/>
<path d="M350.873 341.183L368.478 385.194L400 368L382.896 333.793L350.873 341.183Z" fill="#EAE9E4"/>
<path d="M408 328L382.896 333.793L400 368H424L408 328Z" fill="#005DBB"/>
<path d="M304 352L280 312L211.381 363.464L254.046 400.439C265.626 410.475 280.435 416 295.759 416C306.416 416 316.903 413.326 326.259 408.223L368.479 385.194L350.874 341.183L304 352Z" fill="#FDC9A6"/>
<path d="M256 272H152V289.168C152 296.335 153.54 303.418 156.517 309.937C159.494 316.456 163.837 322.259 169.253 326.953L211.381 363.464L280 312L256 272Z" fill="#007AF6"/>
</g>
<defs>
<clipPath id="clip0_170_4845">
<rect width="512" height="512" fill="white"/>
</clipPath>
</defs>
</svg>
