<svg width="512" height="512" viewBox="0 0 512 512" fill="none" xmlns="http://www.w3.org/2000/svg">
<g clip-path="url(#clip0_170_4798)">
<path d="M47.9541 415.967L127.942 335.979L175.935 383.972L95.9471 463.96L47.9541 415.967Z" fill="#34507B"/>
<path d="M488 24V488H424L330.33 247.15L312 200L24 96V24H488Z" fill="#F35244"/>
<path d="M488 116.061V488.001H424L330.33 247.151C388.35 217.221 443.16 174.691 488 116.061Z" fill="#E64C3F"/>
<path d="M464 488H424L330.33 247.15L312 200L24 96V56L400 112L413.73 192.67L464 488Z" fill="#FFB531"/>
<path d="M464 488H424L330.33 247.15C359.948 231.938 387.899 213.68 413.73 192.67L464 488Z" fill="#FCAC1F"/>
<path d="M312 208C310.418 208 308.871 207.531 307.555 206.652C306.239 205.773 305.214 204.524 304.609 203.062C304.003 201.6 303.845 199.991 304.153 198.439C304.462 196.888 305.224 195.462 306.343 194.343L482.343 18.3432C483.843 16.8429 485.878 16 488 16C490.122 16 492.156 16.8429 493.657 18.3432C495.157 19.8435 496 21.8784 496 24.0002C496 26.122 495.157 28.1569 493.657 29.6572L317.657 205.657C316.915 206.401 316.033 206.991 315.062 207.393C314.091 207.795 313.051 208.002 312 208Z" fill="#DE4132"/>
<path d="M47.9998 112C46.4175 112 44.8707 111.531 43.5551 110.652C42.2394 109.773 41.214 108.524 40.6085 107.062C40.003 105.6 39.8445 103.991 40.1532 102.439C40.462 100.888 41.2239 99.462 42.3428 98.3432L82.3428 58.3432C83.0857 57.6003 83.9676 57.011 84.9383 56.609C85.9089 56.2069 86.9492 56 87.9998 56C89.0504 56 90.0907 56.2069 91.0614 56.609C92.032 57.011 92.9139 57.6003 93.6568 58.3432C94.3997 59.0861 94.989 59.968 95.391 60.9387C95.7931 61.9093 96 62.9496 96 64.0002C96 65.0508 95.7931 66.0911 95.391 67.0618C94.989 68.0324 94.3997 68.9143 93.6568 69.6572L53.6568 109.657C52.9148 110.401 52.033 110.991 51.0622 111.393C50.0913 111.795 49.0506 112.002 47.9998 112ZM136 144C134.418 144 132.871 143.531 131.555 142.652C130.239 141.773 129.214 140.524 128.608 139.062C128.003 137.6 127.845 135.991 128.153 134.439C128.462 132.888 129.224 131.462 130.343 130.343L186.343 74.3432C187.843 72.8429 189.878 72 192 72C194.122 72 196.156 72.8429 197.657 74.3432C199.157 75.8435 200 77.8784 200 80.0002C200 82.122 199.157 84.1569 197.657 85.6572L141.657 141.657C140.915 142.401 140.033 142.991 139.062 143.393C138.091 143.795 137.051 144.002 136 144ZM224 176C222.418 176 220.871 175.531 219.555 174.652C218.239 173.773 217.214 172.524 216.608 171.062C216.003 169.6 215.845 167.991 216.153 166.439C216.462 164.888 217.224 163.462 218.343 162.343L290.343 90.3432C291.843 88.8429 293.878 88 296 88C298.122 88 300.157 88.8429 301.657 90.3432C303.157 91.8435 304 93.8784 304 96.0002C304 98.122 303.157 100.157 301.657 101.657L229.657 173.657C228.915 174.401 228.033 174.991 227.062 175.393C226.091 175.795 225.051 176.002 224 176ZM344 296C342.418 296 340.871 295.531 339.555 294.652C338.239 293.773 337.214 292.524 336.609 291.062C336.003 289.6 335.845 287.991 336.153 286.439C336.462 284.888 337.224 283.462 338.343 282.343L410.343 210.343C411.843 208.843 413.878 208 416 208C418.122 208 420.157 208.843 421.657 210.343C423.157 211.844 424 213.878 424 216C424 218.122 423.157 220.157 421.657 221.657L349.657 293.657C348.915 294.401 348.033 294.991 347.062 295.393C346.091 295.795 345.051 296.002 344 296ZM376 384C374.418 384 372.871 383.531 371.555 382.652C370.239 381.773 369.214 380.524 368.609 379.062C368.003 377.6 367.845 375.991 368.153 374.439C368.462 372.888 369.224 371.462 370.343 370.343L426.343 314.343C427.843 312.843 429.878 312 432 312C434.122 312 436.157 312.843 437.657 314.343C439.157 315.844 440 317.878 440 320C440 322.122 439.157 324.157 437.657 325.657L381.657 381.657C380.915 382.401 380.033 382.991 379.062 383.393C378.091 383.795 377.051 384.002 376 384ZM416 464C414.418 464 412.871 463.531 411.555 462.652C410.239 461.773 409.214 460.524 408.609 459.062C408.003 457.6 407.845 455.991 408.153 454.439C408.462 452.888 409.224 451.462 410.343 450.343L450.343 410.343C451.086 409.6 451.968 409.011 452.938 408.609C453.909 408.207 454.949 408 456 408C457.05 408 458.091 408.207 459.061 408.609C460.032 409.011 460.914 409.6 461.657 410.343C462.4 411.086 462.989 411.968 463.391 412.939C463.793 413.909 464 414.95 464 416C464 417.051 463.793 418.091 463.391 419.062C462.989 420.032 462.4 420.914 461.657 421.657L421.657 461.657C420.915 462.401 420.033 462.991 419.062 463.393C418.091 463.795 417.051 464.002 416 464Z" fill="#F98500"/>
<path d="M71.951 391.969L95.947 367.973L119.944 391.969L95.947 415.965L71.951 391.969ZM95.946 415.969L119.942 391.973L143.939 415.969L119.942 439.965L95.946 415.969ZM48 416.001L28.971 435.03C25.7884 438.212 24.0003 442.529 24 447.03C24 451.531 25.788 455.847 28.9707 459.03C32.1534 462.213 36.47 464.001 40.971 464.001C45.4719 464 49.7884 462.212 52.971 459.03L72 440.001L48 416.001Z" fill="#BFBFBD"/>
<path d="M52.971 459.029L72 440L96 464L76.971 483.029C73.7884 486.212 69.4719 488 64.971 488C60.47 488 56.1534 486.212 52.9707 483.029C49.788 479.847 48 475.53 48 471.029C48.0003 466.528 49.7884 462.212 52.971 459.029Z" fill="#B0B0AE"/>
<path d="M66.2852 434.322L130.275 370.332L141.587 381.644L77.5972 445.634L66.2852 434.322Z" fill="#22334F"/>
<path d="M216 408L200 360L224 336L240 384L216 408ZM104 296L152 312L176 288L128 272L104 296Z" fill="#F35244"/>
<path d="M127.953 335.983L183.944 279.992L231.937 327.985L175.946 383.976L127.953 335.983Z" fill="#F35244"/>
<path d="M100 300C103.183 303.182 107.499 304.97 112 304.97C116.501 304.97 120.818 303.182 124 300L178.343 245.657C179.086 244.914 179.675 244.032 180.077 243.061C180.48 242.091 180.686 241.05 180.686 240C180.686 238.949 180.48 237.909 180.077 236.938C179.675 235.968 179.086 235.086 178.343 234.343L165.657 221.657C164.914 220.914 164.032 220.325 163.062 219.922C162.091 219.52 161.051 219.313 160 219.313C158.95 219.313 157.909 219.52 156.939 219.922C155.968 220.325 155.086 220.914 154.343 221.657L100 276C96.8177 279.182 95.0298 283.499 95.0298 288C95.0298 292.501 96.8177 296.817 100 300ZM212 412C215.183 415.182 219.499 416.97 224 416.97C228.501 416.97 232.818 415.182 236 412L290.343 357.657C291.086 356.914 291.675 356.032 292.077 355.061C292.48 354.091 292.686 353.05 292.686 352C292.686 350.949 292.48 349.909 292.077 348.938C291.675 347.968 291.086 347.086 290.343 346.343L277.657 333.657C276.914 332.914 276.032 332.325 275.062 331.922C274.091 331.52 273.051 331.313 272 331.313C270.95 331.313 269.909 331.52 268.939 331.922C267.968 332.325 267.086 332.914 266.343 333.657L212 388C208.818 391.182 207.03 395.499 207.03 400C207.03 404.501 208.818 408.817 212 412ZM208 304C210.101 306.101 212.596 307.768 215.341 308.905C218.086 310.042 221.029 310.627 224 310.627C226.972 310.627 229.914 310.042 232.659 308.905C235.405 307.768 237.899 306.101 240 304L256 288L224 256L208 272C205.899 274.101 204.232 276.595 203.095 279.341C201.958 282.086 201.373 285.028 201.373 288C201.373 290.971 201.958 293.914 203.095 296.659C204.232 299.404 205.899 301.899 208 304Z" fill="#FEC9A3"/>
<path d="M216 248L264 296L272 288C275.152 284.848 277.652 281.106 279.358 276.988C281.063 272.871 281.941 268.457 281.941 264C281.941 259.543 281.063 255.129 279.358 251.011C277.652 246.893 275.152 243.151 272 240C268.848 236.848 265.107 234.348 260.989 232.642C256.871 230.937 252.457 230.059 248 230.059C243.543 230.059 239.129 230.937 235.011 232.642C230.893 234.348 227.152 236.848 224 240L216 248Z" fill="#F98500"/>
<path d="M291 406C289.751 406 288.519 405.707 287.404 405.145C286.288 404.583 285.319 403.768 284.575 402.765C283.831 401.761 283.331 400.598 283.117 399.367C282.903 398.137 282.98 396.873 283.341 395.677L356.027 155.907L118.282 226.667C117.271 226.982 116.208 227.092 115.154 226.993C114.099 226.893 113.076 226.585 112.141 226.087C111.207 225.589 110.381 224.91 109.711 224.09C109.041 223.27 108.541 222.325 108.239 221.31C107.937 220.296 107.839 219.231 107.952 218.178C108.064 217.125 108.384 216.105 108.894 215.177C109.404 214.249 110.093 213.431 110.921 212.772C111.749 212.112 112.7 211.623 113.718 211.333L365.718 136.333C367.103 135.921 368.574 135.892 369.974 136.248C371.374 136.605 372.652 137.334 373.671 138.358C374.69 139.383 375.413 140.664 375.762 142.066C376.112 143.468 376.075 144.938 375.656 146.321L298.656 400.321C298.158 401.964 297.145 403.403 295.766 404.426C294.388 405.448 292.717 406 291 406Z" fill="#DE4132"/>
<path d="M87.96 232L111.957 208.003L303.927 399.974L279.932 423.971L87.96 232Z" fill="#BFBFBD"/>
<path d="M304 400L280 424L192.82 336.82C202.57 330.82 212.17 324.42 221.62 317.62L304 400Z" fill="#B0B0AE"/>
</g>
<defs>
<clipPath id="clip0_170_4798">
<rect width="512" height="512" fill="white"/>
</clipPath>
</defs>
</svg>
