<svg width="512" height="512" viewBox="0 0 512 512" fill="none" xmlns="http://www.w3.org/2000/svg">
<g clip-path="url(#clip0_170_6302)">
<g clip-path="url(#clip1_170_6302)">
<path d="M264.873 167.958L266.851 163.302L258.129 163.024C257.348 164.648 256.422 166.198 255.363 167.655L264.873 167.958ZM2.28427 159.565L89.0408 162.338C89.6481 164.883 92.0019 168.479 99.3971 171.856C98.8128 171.967 98.2926 172.297 97.9411 172.777C97.5897 173.257 97.4333 173.852 97.5032 174.443C97.5669 174.969 97.8051 175.428 98.1459 175.783C97.765 176.219 97.5386 176.791 97.561 177.415C97.5833 178.025 97.8412 178.603 98.2806 179.027C98.72 179.451 99.3066 179.688 99.9172 179.688L100.003 179.687L104.367 179.529C107.99 187.388 113.107 200.238 117.808 212.047C129.555 241.554 144.174 278.274 155.372 292.699C159.396 297.882 162.418 300.145 165.364 300.145C165.516 300.145 165.67 300.139 165.822 300.126C169.723 299.817 171.958 295.745 174.788 290.59C176.89 286.76 179.442 282.136 183.218 277.785C183.849 277.055 184.503 276.347 185.181 275.662C186.029 277.416 186.992 278.943 188.059 280.247C188.668 281.144 189.372 281.992 190.197 282.764L238.052 327.459L253.858 385.904C254.507 388.314 255.76 390.519 257.499 392.309L254.083 392.443L178.464 395.397C180.673 394.393 182.598 392.856 184.068 390.925L218.975 344.982C221.06 342.239 222.117 338.852 221.963 335.41L221.071 315.309L190.283 286.555L192.275 331.392L160.594 373.09C155.668 379.572 156.931 388.82 163.414 393.745C164.531 394.59 165.763 395.272 167.073 395.769L2.48239 387.169C1.16161 387.098 0.0719638 388.101 0.00356617 389.401C-0.0648315 390.702 0.935189 391.812 2.23592 391.88L167.728 400.528L167.85 400.531L167.942 400.53L259.054 396.971L266.35 396.686C266.921 396.754 267.496 396.8 268.079 396.8C269.024 396.8 269.981 396.707 270.938 396.518L278.198 396.269L509.722 388.345C510.341 388.325 510.927 388.063 511.355 387.614C511.782 387.166 512.016 386.567 512.005 385.948C511.995 385.328 511.741 384.738 511.299 384.304C510.857 383.87 510.262 383.628 509.643 383.629L509.561 383.63L282.811 391.392L279.389 391.509C282.367 387.943 283.624 383.033 282.318 378.208L265.415 315.706C264.698 313.055 263.254 310.657 261.247 308.782L224.787 274.728C224.797 273.279 224.758 271.829 224.667 270.382C224.484 268.99 224.339 267.594 224.233 266.194C225.115 265.687 225.987 265.163 226.849 264.623C227.267 264.362 227.672 264.124 228.098 263.847C228.623 263.506 228.99 262.971 229.121 262.36C229.251 261.748 229.133 261.11 228.792 260.585C228.596 260.283 228.333 260.031 228.023 259.847C227.714 259.664 227.366 259.554 227.007 259.526C213.07 267.49 190.653 269.724 183.196 270.263C183.26 270.498 183.322 270.736 183.389 270.965C182.919 271.315 182.453 271.713 181.993 272.171C181.715 272.448 181.466 272.733 181.198 273.012C176.222 278.221 173.137 283.793 170.653 288.319C168.765 291.759 166.814 295.315 165.45 295.423C164.913 295.467 163.144 295.011 159.101 289.805C148.312 275.908 133.828 239.532 122.192 210.302C116.422 195.807 112.432 185.916 109.469 179.343L110.176 179.317C110.784 179.299 111.361 179.047 111.787 178.613C112.213 178.178 112.454 177.596 112.46 176.988C112.465 176.379 112.235 175.793 111.817 175.351C111.399 174.909 110.826 174.646 110.218 174.617C110.516 174.254 110.699 173.809 110.742 173.341C110.786 172.873 110.688 172.402 110.461 171.99C110.235 171.578 109.89 171.243 109.472 171.028C109.053 170.814 108.58 170.729 108.113 170.786L106.091 171.03C105.433 169.19 104.85 167.28 104.291 165.397C104.022 164.491 103.762 163.634 103.502 162.799L205.847 166.07C204.883 164.549 204.059 162.943 203.386 161.272L101.71 158.022C100.848 156.254 99.824 154.909 98.4077 154.191C97.1648 153.562 95.7579 153.494 94.3357 154.001C92.2036 154.763 90.6045 156.046 89.6976 157.637L2.43404 154.851C1.13213 154.826 0.0436613 155.832 0.00120764 157.132C-0.0087056 157.442 0.0424922 157.751 0.151876 158.041C0.26126 158.33 0.426686 158.596 0.638703 158.822C0.850721 159.048 1.10517 159.23 1.38753 159.357C1.66988 159.485 1.9746 159.555 2.28427 159.565ZM99.7698 166.742L99.7922 166.818C96.7968 165.269 95.0539 163.754 94.2083 162.503L98.4879 162.64C98.949 163.989 99.3877 165.458 99.7698 166.742ZM290.644 167.114L301.314 165.901L282.449 193.396L280.607 193.055L273.049 210.845L285.041 213.066C286.836 213.399 288.688 213.203 290.374 212.504C292.06 211.805 293.507 210.631 294.539 209.126L322.252 168.736C323.216 167.332 323.778 165.691 323.879 163.99L509.743 156.026C511.045 155.971 512.054 154.871 511.998 153.57C511.941 152.269 510.857 151.244 509.54 151.314L322.965 159.307C322.255 157.822 321.167 156.55 319.81 155.619C318.788 154.918 317.638 154.426 316.426 154.169C315.214 153.912 313.963 153.897 312.745 154.124C311.527 154.351 310.366 154.815 309.327 155.491C308.289 156.166 307.394 157.04 306.693 158.062L304.847 160.752L289.788 162.463C290.369 163.931 290.665 165.511 290.644 167.114Z" fill="#40B2CD"/>
<path d="M212.994 170.35C217.739 174.61 223.835 177.058 230.209 177.265C223.939 165.48 225.022 156.672 226.553 151.952C216.933 154.758 209.529 155.422 204.218 153.941C205.112 160.275 208.222 166.089 212.994 170.35ZM234.156 177.091C240.575 176.377 246.768 173.419 251.416 168.227C257.519 161.41 259.53 152.371 257.661 144.077C252.808 144.229 245.812 144.817 242.951 146.017C238.642 147.825 234.652 149.332 230.939 150.574C229.708 152.854 225.679 162.375 234.156 177.091Z" fill="#40B2CD"/>
<path d="M258.023 132.512C255.657 125.41 250.72 119.145 243.638 115.263C228.742 107.097 210.046 112.554 201.88 127.45C197.949 134.623 186.213 165.978 241.582 142.755C246.348 140.756 257.723 140.526 259.363 140.503C261.04 141.027 262.373 141.221 263.142 141.027C263.444 140.952 263.668 140.822 263.779 140.622C263.957 140.296 263.617 139.481 262.932 138.404C261.902 136.784 260.083 134.574 258.023 132.512ZM244.582 132.523C243.031 130.498 242.856 128.026 244.193 127.004C245.529 125.981 247.868 126.792 249.419 128.818C250.97 130.843 251.144 133.315 249.808 134.337C248.472 135.361 246.132 134.549 244.582 132.523ZM253.837 200.873L220.727 192.297C215.687 190.993 210.536 194.021 209.23 199.065C207.923 204.109 210.952 209.258 215.996 210.563L256.976 221.176C259.164 221.743 261.483 221.505 263.511 220.505C265.539 219.506 267.14 217.812 268.024 215.732L287.188 170.625C288.15 168.325 288.163 165.737 287.223 163.428C286.284 161.118 284.468 159.274 282.174 158.3C279.879 157.325 277.291 157.298 274.977 158.225C272.662 159.152 270.809 160.958 269.822 163.247L253.837 200.873Z" fill="#40B2CD"/>
<path d="M224.225 251.344C225.011 239.281 227.426 227.159 229.517 216.866L215.317 213.189C212.175 212.375 209.54 210.388 207.894 207.591C206.247 204.794 205.79 201.525 206.603 198.383C207.411 195.265 209.425 192.595 212.201 190.962C214.977 189.328 218.288 188.863 221.407 189.671L252.254 197.661L256.137 188.52L227.923 183.292L221.022 182.014C220.623 181.868 220.216 181.742 219.803 181.637C218.495 181.314 217.158 181.127 215.812 181.076C214.838 180.95 213.85 180.978 212.884 181.159C203.914 181.994 193.878 188.269 189.203 201.861C181.808 223.785 179.774 238.678 181.886 261.381C180.924 261.448 180.362 261.476 180.322 261.478C179.909 261.497 179.533 261.629 179.204 261.831C178.844 262.048 178.548 262.359 178.349 262.73C178.15 263.101 178.054 263.519 178.072 263.94C178.093 264.382 178.237 264.81 178.489 265.174C178.742 265.538 179.091 265.823 179.498 265.998C179.784 266.122 180.097 266.193 180.426 266.193C180.461 266.193 180.499 266.193 180.534 266.19C181.809 266.132 211.863 264.674 228.15 254.5L228.265 254.431C228.795 254.097 229.17 253.567 229.309 252.958C229.447 252.348 229.338 251.708 229.005 251.178C228.794 250.843 228.501 250.566 228.154 250.374C227.807 250.182 227.417 250.082 227.02 250.081C226.572 250.077 226.133 250.201 225.754 250.439C225.252 250.753 224.742 251.055 224.225 251.344Z" fill="#40B2CD"/>
</g>
</g>
<defs>
<clipPath id="clip0_170_6302">
<rect width="512" height="512" fill="white"/>
</clipPath>
<clipPath id="clip1_170_6302">
<rect width="512" height="512" fill="white"/>
</clipPath>
</defs>
</svg>
