<svg width="512" height="512" viewBox="0 0 512 512" fill="none" xmlns="http://www.w3.org/2000/svg">
<g clip-path="url(#clip0_170_6161)">
<g clip-path="url(#clip1_170_6161)">
<path d="M230.4 439.467H162.133C159.87 439.467 157.7 438.568 156.099 436.967C154.499 435.367 153.6 433.197 153.6 430.933V379.733L213.333 396.8C220.123 396.8 226.634 399.497 231.435 404.298C236.236 409.099 238.933 415.611 238.933 422.4V430.933C238.933 433.197 238.034 435.367 236.434 436.967C234.834 438.568 232.663 439.467 230.4 439.467ZM119.467 499.2H51.2C48.9368 499.2 46.7663 498.301 45.166 496.701C43.5657 495.1 42.6666 492.93 42.6666 490.667V439.467L102.4 456.533C109.19 456.533 115.701 459.231 120.502 464.031C125.303 468.832 128 475.344 128 482.133V490.667C128 492.93 127.101 495.1 125.501 496.701C123.9 498.301 121.73 499.2 119.467 499.2Z" fill="#393F4A"/>
<path d="M512 490.667C512 492.93 511.101 495.1 509.501 496.701C507.9 498.301 505.73 499.2 503.467 499.2H128V490.667H131.328C133.82 490.658 136.192 489.557 137.813 487.68L178.773 439.893L179.703 439.467H339.029L384.512 480.597C385.963 481.61 387.692 482.147 389.461 482.133H512V490.667Z" fill="#4FBA6F"/>
<path d="M139.691 94.3783C144.542 90.007 148.417 84.6624 151.063 78.6928C153.71 72.7232 155.069 66.2629 155.051 59.733C155.038 52.2119 153.219 44.804 149.745 38.1331C146.272 31.4622 141.246 25.7239 135.091 21.4014C128.936 17.0789 121.833 14.2989 114.379 13.2955C106.925 12.2921 99.3391 13.0948 92.2603 15.6359C85.1815 18.177 78.8171 22.3821 73.7032 27.897C68.5892 33.4119 64.8755 40.075 62.8749 47.3251C60.8743 54.5752 60.6454 62.1999 62.2075 69.5569C63.7695 76.914 67.0768 83.7879 71.8507 89.5996" fill="#F9C795"/>
<path d="M216.32 156.246L189.44 189.782L170.667 171.008V260.267H134.229C135.733 257.674 136.528 254.731 136.533 251.734V140.8C138.797 140.8 140.967 139.901 142.567 138.301C144.168 136.701 145.067 134.53 145.067 132.267V106.667H152.576C157.06 106.663 161.5 107.543 165.644 109.256C169.788 110.97 173.553 113.482 176.725 116.651L216.32 156.246Z" fill="#E64C3C"/>
<path d="M213.333 311.467V396.8H153.6L145.067 328.533C145.067 326.27 144.168 324.1 142.567 322.499C140.967 320.899 138.796 320 136.533 320H119.467C117.203 320 115.033 320.899 113.433 322.499C111.832 324.1 110.933 326.27 110.933 328.533L102.4 456.533H42.6666V268.8H119.467C122.459 268.797 125.399 268.007 127.99 266.509C130.581 265.011 132.733 262.858 134.229 260.267H162.133C175.712 260.267 188.735 265.661 198.337 275.263C207.939 284.865 213.333 297.888 213.333 311.467Z" fill="#3F5C6C"/>
<path d="M136.533 140.8V251.733C136.533 256.26 134.735 260.6 131.535 263.801C128.334 267.002 123.993 268.8 119.467 268.8H34.1333C29.6111 268.786 25.278 266.984 22.0803 263.786C18.8826 260.588 17.0802 256.255 17.0667 251.733V140.8H136.533Z" fill="#D25627"/>
<path d="M307.2 204.459V422.4C307.186 426.923 305.384 431.256 302.186 434.453C298.989 437.651 294.656 439.453 290.133 439.467C285.617 439.434 281.296 437.625 278.102 434.431C274.909 431.238 273.1 426.916 273.067 422.4V209.067L307.2 204.459Z" fill="#7F6E5D"/>
<path d="M51.2 234.667C48.9368 234.667 46.7663 233.768 45.166 232.167C43.5657 230.567 42.6666 228.397 42.6666 226.133V200.533C42.6666 198.27 43.5657 196.1 45.166 194.499C46.7663 192.899 48.9368 192 51.2 192C53.4631 192 55.6336 192.899 57.2339 194.499C58.8342 196.1 59.7333 198.27 59.7333 200.533V226.133C59.7333 228.397 58.8342 230.567 57.2339 232.167C55.6336 233.768 53.4631 234.667 51.2 234.667ZM102.4 234.667C100.137 234.667 97.9663 233.768 96.366 232.167C94.7657 230.567 93.8666 228.397 93.8666 226.133V200.533C93.8666 198.27 94.7657 196.1 96.366 194.499C97.9663 192.899 100.137 192 102.4 192C104.663 192 106.834 192.899 108.434 194.499C110.034 196.1 110.933 198.27 110.933 200.533V226.133C110.933 228.397 110.034 230.567 108.434 232.167C106.834 233.768 104.663 234.667 102.4 234.667Z" fill="#5F5346"/>
<path d="M418.133 140.8C441.697 140.8 460.8 121.698 460.8 98.1335C460.8 74.5693 441.697 55.4668 418.133 55.4668C394.569 55.4668 375.467 74.5693 375.467 98.1335C375.467 121.698 394.569 140.8 418.133 140.8Z" fill="#F3D55B"/>
<path d="M418.133 29.0901C415.87 29.0901 413.7 28.191 412.099 26.5907C410.499 24.9904 409.6 22.8199 409.6 20.5567V12.7999C409.6 10.5368 410.499 8.36627 412.099 6.76596C413.7 5.16565 415.87 4.2666 418.133 4.2666C420.397 4.2666 422.567 5.16565 424.167 6.76596C425.768 8.36627 426.667 10.5368 426.667 12.7999V20.5567C426.667 22.8199 425.768 24.9904 424.167 26.5907C422.567 28.191 420.397 29.0901 418.133 29.0901ZM418.133 192C415.87 192 413.7 191.101 412.099 189.501C410.499 187.9 409.6 185.73 409.6 183.467V175.71C409.6 173.447 410.499 171.276 412.099 169.676C413.7 168.076 415.87 167.176 418.133 167.176C420.397 167.176 422.567 168.076 424.167 169.676C425.768 171.276 426.667 173.447 426.667 175.71V183.467C426.667 185.73 425.768 187.9 424.167 189.501C422.567 191.101 420.397 192 418.133 192ZM503.467 106.667H495.71C493.447 106.667 491.276 105.768 489.676 104.167C488.076 102.567 487.177 100.396 487.177 98.1333C487.177 95.8701 488.076 93.6996 489.676 92.0993C491.276 90.499 493.447 89.5999 495.71 89.5999H503.467C505.73 89.5999 507.9 90.499 509.501 92.0993C511.101 93.6996 512 95.8701 512 98.1333C512 100.396 511.101 102.567 509.501 104.167C507.9 105.768 505.73 106.667 503.467 106.667ZM340.557 106.667H332.8C330.537 106.667 328.366 105.768 326.766 104.167C325.166 102.567 324.267 100.396 324.267 98.1333C324.267 95.8701 325.166 93.6996 326.766 92.0993C328.366 90.499 330.537 89.5999 332.8 89.5999H340.557C342.82 89.5999 344.991 90.499 346.591 92.0993C348.191 93.6996 349.09 95.8701 349.09 98.1333C349.09 100.396 348.191 102.567 346.591 104.167C344.991 105.768 342.82 106.667 340.557 106.667ZM472.994 51.8058C471.307 51.8054 469.657 51.3048 468.254 50.3671C466.851 49.4294 465.758 48.0968 465.112 46.5378C464.466 44.9788 464.297 43.2633 464.627 41.6082C464.956 39.9531 465.768 38.4328 466.961 37.2394L472.44 31.761C474.049 30.2066 476.204 29.3465 478.442 29.3659C480.679 29.3854 482.82 30.2828 484.402 31.865C485.984 33.4471 486.881 35.5874 486.901 37.8248C486.92 40.0622 486.06 42.2177 484.506 43.8271L479.027 49.3055C477.427 50.906 475.257 51.8053 472.994 51.8058ZM357.794 167.006C356.107 167.005 354.457 166.505 353.054 165.567C351.651 164.629 350.558 163.297 349.912 161.738C349.266 160.179 349.097 158.463 349.427 156.808C349.756 155.153 350.568 153.633 351.761 152.439L357.24 146.961C358.849 145.407 361.004 144.546 363.242 144.566C365.479 144.585 367.62 145.483 369.202 147.065C370.784 148.647 371.681 150.787 371.701 153.025C371.72 155.262 370.86 157.418 369.306 159.027L363.827 164.506C362.227 166.106 360.057 167.005 357.794 167.006ZM478.473 167.006C476.21 167.005 474.039 166.106 472.44 164.506L466.961 159.027C465.407 157.418 464.547 155.262 464.566 153.025C464.585 150.787 465.483 148.647 467.065 147.065C468.647 145.483 470.787 144.585 473.025 144.566C475.262 144.546 477.418 145.407 479.027 146.961L484.506 152.439C485.699 153.633 486.511 155.153 486.84 156.808C487.169 158.463 487 160.179 486.355 161.738C485.709 163.297 484.615 164.629 483.213 165.567C481.81 166.505 480.16 167.005 478.473 167.006ZM363.273 51.8058C361.01 51.8053 358.839 50.906 357.24 49.3055L351.761 43.8271C350.207 42.2177 349.347 40.0622 349.366 37.8248C349.385 35.5874 350.283 33.4471 351.865 31.865C353.447 30.2828 355.587 29.3854 357.825 29.3659C360.062 29.3465 362.218 30.2066 363.827 31.761L369.306 37.2394C370.499 38.4328 371.311 39.9531 371.64 41.6082C371.969 43.2633 371.8 44.9788 371.155 46.5378C370.509 48.0968 369.415 49.4294 368.012 50.3671C366.61 51.3048 364.96 51.8054 363.273 51.8058Z" fill="#F0C419"/>
<path d="M512 482.134C512 484.397 511.101 486.567 509.501 488.168C507.9 489.768 505.73 490.667 503.467 490.667H406.528C401.215 490.658 396.033 489.02 391.68 485.974L340.821 449.536C339.371 448.524 337.641 447.987 335.872 448H187.051C184.559 448.009 182.187 449.11 180.565 450.987L139.605 498.774L139.179 499.2C134.349 504.636 127.42 507.734 120.149 507.734H8.53333C6.27015 507.734 4.09967 506.835 2.49936 505.234C0.899045 503.634 0 501.463 0 499.2C0 496.937 0.899045 494.767 2.49936 493.166C4.09967 491.566 6.27015 490.667 8.53333 490.667H120.149C122.641 490.658 125.013 489.558 126.635 487.68L167.595 439.894L168.021 439.467C172.851 434.031 179.78 430.934 187.051 430.934H335.872C341.188 430.942 346.368 432.581 350.72 435.627L356.096 439.467L401.579 472.064C403.029 473.077 404.759 473.614 406.528 473.6H503.467C505.73 473.6 507.9 474.499 509.501 476.1C511.101 477.7 512 479.87 512 482.134Z" fill="#24AE5F"/>
<path d="M488.755 396.8H307.2V381.866L357.205 294.4L401.067 277.333L444.928 294.4L496.171 384C496.921 385.299 497.315 386.773 497.314 388.273C497.313 389.773 496.916 391.246 496.164 392.544C495.412 393.842 494.332 394.919 493.031 395.666C491.73 396.413 490.255 396.804 488.755 396.8Z" fill="#7F8C8D"/>
<path d="M17.0667 115.2H136.533V174.934C136.533 181.723 133.836 188.235 129.035 193.035C124.234 197.836 117.723 200.534 110.933 200.534H42.6667C35.8771 200.534 29.3656 197.836 24.5647 193.035C19.7638 188.235 17.0667 181.723 17.0667 174.934V115.2Z" fill="#E57E25"/>
<path d="M85.3334 174.933H68.2667C66.0036 174.933 63.8331 174.034 62.2328 172.434C60.6324 170.833 59.7334 168.663 59.7334 166.4C59.7334 164.136 60.6324 161.966 62.2328 160.366C63.8331 158.765 66.0036 157.866 68.2667 157.866H85.3334C87.5966 157.866 89.7671 158.765 91.3674 160.366C92.9677 161.966 93.8667 164.136 93.8667 166.4C93.8667 168.663 92.9677 170.833 91.3674 172.434C89.7671 174.034 87.5966 174.933 85.3334 174.933Z" fill="#5F5346"/>
<path d="M145.067 106.666V132.266C145.067 134.529 144.168 136.7 142.567 138.3C140.967 139.901 138.797 140.8 136.533 140.8H17.0667C14.8035 140.8 12.633 139.901 11.0327 138.3C9.43237 136.7 8.53333 134.529 8.53333 132.266V106.666C8.54683 102.144 10.3493 97.8109 13.547 94.6132C16.7447 91.4155 21.0778 89.6131 25.6 89.5996H128C132.522 89.6131 136.855 91.4155 140.053 94.6132C143.251 97.8109 145.053 102.144 145.067 106.666Z" fill="#F29C1F"/>
<path d="M273.067 166.4V209.066H222.891C218.407 209.07 213.966 208.19 209.823 206.477C205.679 204.764 201.914 202.251 198.741 199.082L189.44 189.781L216.32 156.245L224 163.925C225.596 165.495 227.738 166.383 229.973 166.4H273.067ZM315.648 189.952C314.897 195.333 312.197 200.252 308.06 203.775C303.924 207.299 298.638 209.181 293.205 209.066H273.067V166.4H294.4C297.391 166.396 300.35 167.02 303.084 168.234C305.818 169.447 308.267 171.222 310.27 173.443C312.274 175.664 313.788 178.281 314.715 181.125C315.641 183.97 315.959 186.977 315.648 189.952Z" fill="#F9C795"/>
<path d="M273.067 217.6C270.803 217.6 268.633 216.701 267.033 215.1C265.432 213.5 264.533 211.329 264.533 209.066V166.4C264.533 164.136 265.432 161.966 267.033 160.366C268.633 158.765 270.803 157.866 273.067 157.866C275.33 157.866 277.5 158.765 279.101 160.366C280.701 161.966 281.6 164.136 281.6 166.4V209.066C281.6 211.329 280.701 213.5 279.101 215.1C277.5 216.701 275.33 217.6 273.067 217.6Z" fill="#56595E"/>
<path d="M444.928 294.4H357.205L393.643 230.571C394.387 229.258 395.466 228.165 396.77 227.406C398.075 226.646 399.557 226.245 401.067 226.245C402.576 226.245 404.059 226.646 405.363 227.406C406.667 228.165 407.746 229.258 408.491 230.571L444.928 294.4Z" fill="#ECF0F1"/>
</g>
</g>
<defs>
<clipPath id="clip0_170_6161">
<rect width="512" height="512" fill="white"/>
</clipPath>
<clipPath id="clip1_170_6161">
<rect width="512" height="512" fill="white"/>
</clipPath>
</defs>
</svg>
