<svg width="512" height="512" viewBox="0 0 512 512" fill="none" xmlns="http://www.w3.org/2000/svg">
<g clip-path="url(#clip0_170_6114)">
<g clip-path="url(#clip1_170_6114)">
<path d="M321.417 118.619L321.407 118.623C319.824 114.859 315.565 112.941 311.671 114.328L248.533 136.819C247.571 137.158 246.686 137.684 245.928 138.366C245.169 139.049 244.553 139.874 244.115 140.795C243.676 141.716 243.423 142.714 243.371 143.733C243.319 144.752 243.468 145.771 243.81 146.732C244.153 147.692 244.681 148.576 245.366 149.333C246.05 150.089 246.877 150.703 247.8 151.139C248.722 151.575 249.721 151.824 250.74 151.874C251.759 151.923 252.777 151.77 253.737 151.425L269.815 145.698C272.417 162.093 272.045 178.822 268.716 195.084C258.125 195.954 247.232 195.397 236.072 193.415C239.471 179.695 240.959 165.571 240.495 151.444C240.463 150.426 240.23 149.424 239.81 148.496C239.39 147.568 238.79 146.732 238.046 146.036C237.302 145.34 236.428 144.798 235.474 144.441C234.52 144.084 233.505 143.918 232.487 143.954C231.469 143.989 230.468 144.223 229.541 144.644C228.614 145.064 227.779 145.664 227.083 146.407C226.388 147.151 225.846 148.024 225.488 148.978C225.13 149.931 224.963 150.945 224.997 151.963C225.417 164.729 224.063 177.491 220.975 189.885C202.678 184.548 190.834 177.225 190.543 177.043C188.806 175.974 186.718 175.633 184.731 176.092C182.744 176.552 181.018 177.776 179.927 179.5C178.836 181.223 178.468 183.307 178.903 185.299C179.338 187.292 180.54 189.033 182.249 190.146C182.884 190.548 195.945 198.725 216.412 204.711C213.63 212.211 210.209 219.459 206.187 226.374C193.894 220.653 186.384 215.084 186.175 214.928C184.537 213.688 182.473 213.149 180.438 213.43C178.402 213.711 176.561 214.789 175.32 216.426C174.078 218.065 173.538 220.13 173.818 222.167C174.098 224.204 175.176 226.046 176.814 227.289C177.279 227.641 184.908 233.361 197.567 239.462C194.951 242.98 192.17 246.372 189.232 249.627L172.24 230.673C170.867 229.142 168.942 228.219 166.889 228.107C164.836 227.995 162.822 228.703 161.291 230.076C159.76 231.448 158.837 233.373 158.725 235.426C158.613 237.479 159.321 239.493 160.694 241.024L230.388 318.761C230.585 318.98 230.791 319.185 231.006 319.376C231.05 319.414 231.096 319.446 231.14 319.484C231.427 319.729 231.732 319.952 232.054 320.15C232.294 320.301 232.541 320.438 232.795 320.56C232.846 320.584 232.897 320.613 232.95 320.637C233.26 320.778 233.577 320.899 233.9 320.997C233.962 321.015 234.025 321.029 234.087 321.045C234.347 321.118 234.61 321.176 234.876 321.22C234.976 321.237 235.075 321.253 235.175 321.267C235.474 321.305 235.774 321.329 236.076 321.333C236.106 321.333 236.135 321.339 236.165 321.339C236.307 321.339 236.451 321.326 236.594 321.318C236.686 321.313 236.778 321.313 236.869 321.305C236.981 321.295 237.095 321.275 237.208 321.259C237.34 321.242 237.473 321.225 237.606 321.201C237.699 321.183 237.792 321.158 237.886 321.137C238.04 321.102 238.193 321.066 238.345 321.022C238.424 320.998 238.503 320.971 238.582 320.945C238.746 320.891 238.909 320.832 239.071 320.767C239.105 320.754 239.139 320.745 239.173 320.73C317.571 287.68 354.464 197.014 321.417 118.619ZM309.3 226.779C296.581 233.372 283.319 237.288 269.605 238.529C274.499 229.116 278.414 219.225 281.286 209.011C293.508 206.93 305.358 203.138 316.662 197.689C315.26 207.622 312.792 217.375 309.3 226.779ZM284.626 140.422L309.792 131.458C315.36 146.841 318.145 163.093 318.016 179.452C307.423 185.586 296.382 189.964 284.941 192.578C287.81 175.302 287.703 157.663 284.626 140.422ZM231.571 208.355C240.649 210.068 249.659 210.921 258.542 210.921C260.546 210.921 262.54 210.861 264.53 210.775C261.32 220.509 257.045 229.858 251.782 238.653C242.864 237.987 233.782 236.252 224.554 233.433C223.269 233.04 221.99 232.628 220.718 232.197C225.001 224.57 228.632 216.594 231.571 208.355ZM212.227 245.65C214.55 246.498 216.963 247.318 219.466 248.093C226.787 250.365 234.281 252.04 241.873 253.102C234.24 262.819 225.337 271.466 215.403 278.813L199.639 261.231C204.187 256.294 208.388 251.089 212.227 245.65ZM238.163 304.199L225.802 290.411C239.127 280.347 250.722 268.177 260.131 254.381C273.594 254.348 286.776 252.156 299.431 247.826C285.69 271.73 264.772 291.735 238.163 304.199Z" fill="#DCDCDC"/>
<path d="M483.832 485.123H395.164V459.743C395.164 449.798 403.226 441.736 413.171 441.736H465.825C475.77 441.736 483.832 449.798 483.832 459.743V485.123Z" fill="#BFBFBF"/>
<path d="M465.825 441.736H434.813C444.758 441.736 452.82 449.798 452.82 459.743V485.124H483.832V459.743C483.832 449.797 475.77 441.736 465.825 441.736Z" fill="#ACACAC"/>
<path d="M291.604 120.815C276.563 41.2948 199.905 -10.977 120.384 4.06386C40.8635 19.1047 -11.4083 95.7622 3.63252 175.282L10.1554 209.77C13.2121 225.93 30.0599 235.466 45.4884 229.77L81.4458 214.836C91.8503 243.116 121.437 260.579 152.026 254.793C186.106 248.346 208.508 215.493 202.063 181.413C201.41 177.982 200.474 174.61 199.264 171.333L278.664 143.674C287.98 140.236 293.449 130.572 291.604 120.815Z" fill="#E65920"/>
<path d="M291.604 120.814C277.312 45.2578 207.393 -5.69186 132.246 2.31854C194.808 9.0099 248.295 55.7998 260.591 120.815C262.436 130.572 256.967 140.235 247.652 143.674L178.758 167.675C173.126 169.637 169.913 175.45 171.031 181.31L171.051 181.414C177.253 214.206 156.741 245.85 124.822 253.939C133.717 256.218 143.005 256.51 152.026 254.794C186.106 248.347 208.508 215.494 202.063 181.414C201.41 177.982 200.474 174.611 199.263 171.334L278.664 143.674C287.98 140.235 293.449 130.572 291.604 120.814Z" fill="#D9510F"/>
<path d="M164.355 209.088C173.126 195.811 169.473 177.938 156.197 169.167C142.92 160.396 125.046 164.048 116.275 177.325C107.504 190.602 111.156 208.476 124.433 217.247C137.71 226.018 155.584 222.365 164.355 209.088Z" fill="#314DC9"/>
<path d="M168.666 187.731C165.709 172.095 150.637 161.818 135.001 164.775C131.389 165.456 127.941 166.824 124.844 168.805C131.304 172.931 136.118 179.603 137.655 187.73C139.908 199.637 134.478 211.212 124.857 217.364C130.827 221.176 138.202 222.815 145.711 221.395C161.346 218.439 171.624 203.367 168.666 187.731Z" fill="#2740B0"/>
<path d="M477.351 10.571L463.8 41.9799L448.878 100.525L408.181 170.894L302.347 416.198C298.088 426.069 291.032 434.478 282.049 440.386C273.066 446.293 262.55 449.442 251.799 449.442H238.308L220.758 459.779L198.935 449.442H163.182L144.873 459.779L123.811 449.442H115.06C97.785 449.442 83.78 463.446 83.78 480.721C83.78 497.996 97.784 512.001 115.06 512.001H158.958L179.503 501.664L199.363 512.001H234.082L254.184 501.664L274.487 512.001H288.292C311.23 512.001 331.765 497.778 339.831 476.303L447.442 189.749L463.047 120.671L497.141 57.4084L509.815 23.6611C514.112 12.2146 505.652 0 493.425 0C490.006 0.000211572 486.662 1.00134 483.806 2.87985C480.95 4.75835 478.706 7.43204 477.351 10.571Z" fill="#F6A96C"/>
<path d="M493.425 0C490.23 7.66685e-05 487.096 0.874387 484.363 2.5282C481.63 4.18202 479.401 6.55228 477.919 9.38217C479.073 11.5625 479.749 13.9641 479.901 16.4264C480.053 18.8887 479.678 21.3552 478.802 23.6611L308.819 476.302C300.754 497.777 280.219 512 257.28 512H288.292C311.23 512 331.765 497.777 339.831 476.302L447.442 189.748L462.772 121.403L497.141 57.4084L509.815 23.6611C514.112 12.2146 505.652 0 493.425 0Z" fill="#EA9B58"/>
<path d="M463.8 41.9795L408.181 170.893L447.441 189.748L497.14 57.4069L463.8 41.9795Z" fill="#FFF3F0"/>
<path d="M463.8 41.9795L458.639 53.9419C460.674 54.884 462.279 56.5611 463.13 58.6368C463.981 60.7124 464.015 63.033 463.226 65.1331L421.168 177.13L447.441 189.748L497.14 57.4069L463.8 41.9795Z" fill="#FAE6D9"/>
<path d="M158.957 512H199.363L163.182 449.441H123.81L158.957 512ZM234.082 512H274.487L238.307 449.441H198.935L234.082 512Z" fill="#FFF3F0"/>
<path d="M395.164 485.111V502.651C395.164 505.13 396.149 507.508 397.903 509.261C399.656 511.015 402.034 512 404.513 512H474.483C476.962 512 479.34 511.015 481.093 509.261C482.847 507.508 483.832 505.13 483.832 502.651V485.111H395.164Z" fill="#838383"/>
<path d="M452.82 485.111V512H475.16C477.46 511.999 479.665 511.086 481.291 509.459C482.918 507.833 483.831 505.628 483.832 503.328V485.111H452.82Z" fill="#5A5A5A"/>
</g>
</g>
<defs>
<clipPath id="clip0_170_6114">
<rect width="512" height="512" fill="white"/>
</clipPath>
<clipPath id="clip1_170_6114">
<rect width="512" height="512" fill="white"/>
</clipPath>
</defs>
</svg>
