<svg width="512" height="512" viewBox="0 0 512 512" fill="none" xmlns="http://www.w3.org/2000/svg">
<g clip-path="url(#clip0_170_5973)">
<path d="M160 176L168 152L192 160V192" fill="#E8A989"/>
<path d="M56 320H88V416H56V320Z" fill="#3F4042"/>
<path d="M16 288H128V320H16V288Z" fill="#4197CD"/>
<path d="M48 304H128V288H32C32 292.243 33.6857 296.313 36.6863 299.314C39.6869 302.314 43.7565 304 48 304Z" fill="#50BAE3"/>
<path d="M133.472 232.424L129.888 295.072C128.631 316.976 125.321 338.714 120 360C120 374.852 125.9 389.096 136.402 399.598C146.904 410.1 161.148 416 176 416C197.32 416 218.616 414.824 239.808 412.464L280 408C317.25 418.643 355.418 425.765 394 429.272L424 432L464 448L482.688 419.968C491.369 406.948 496.001 391.649 496 376H488C482.928 376 477.905 376.999 473.219 378.94C468.533 380.881 464.275 383.725 460.688 387.312C456.666 391.335 451.89 394.526 446.634 396.703C441.378 398.88 435.745 400 430.056 400H429.728C425.928 400 422.136 399.496 418.464 398.512L216 344V240C216.001 226.172 211.497 212.719 203.17 201.679C194.842 190.64 183.145 182.613 169.848 178.816L160 176C155.376 177.54 151.103 179.981 147.427 183.182C143.751 186.383 140.746 190.28 138.584 194.648L133.472 232.424Z" fill="#52A04F"/>
<path d="M460.688 387.313C456.666 391.336 451.89 394.527 446.634 396.704C441.378 398.881 435.745 400.001 430.056 400.001H429.728C425.928 400.001 422.136 399.497 418.464 398.513L216 344.001V240.001C216.001 226.172 211.497 212.72 203.17 201.68C194.842 190.64 183.145 182.614 169.848 178.817L162.088 176.601C159.034 179.498 156.499 182.896 154.592 186.649L149.48 224.425L145.896 287.073C144.632 308.977 141.319 330.714 136 352.001C136 366.853 141.9 381.097 152.402 391.599C162.904 402.101 177.148 408.001 192 408.001C213.32 408.001 234.616 406.825 255.808 404.465L296 400.001C333.25 410.644 371.418 417.766 410 421.273L440 424.001L471.576 436.633L482.68 419.969C491.367 406.951 496.002 391.651 496 376.001H488C482.928 376 477.905 376.999 473.219 378.94C468.533 380.881 464.275 383.726 460.688 387.313Z" fill="#6DB569"/>
<path d="M488 376C482.928 376 477.905 376.999 473.219 378.94C468.533 380.881 464.275 383.725 460.688 387.312C456.666 391.335 451.89 394.526 446.634 396.703C441.378 398.88 435.745 400 430.056 400H429.728C425.928 400 422.136 399.496 418.464 398.512L216 344L120 360C120 374.852 125.9 389.096 136.402 399.598C146.904 410.1 161.148 416 176 416C197.32 416 218.616 414.824 239.808 412.464L280 408C317.25 418.643 355.418 425.765 394 429.272L424 432L464 448L482.688 419.968C491.369 406.948 496.001 391.649 496 376H488Z" fill="#1D549C"/>
<path d="M192 408C213.32 408 234.616 406.824 255.808 404.464L296 400C333.25 410.643 371.418 417.765 410 421.272L440 424L471.576 436.632L482.68 419.968C491.367 406.95 496.002 391.65 496 376H488C482.928 376 477.905 376.999 473.219 378.94C468.533 380.881 464.275 383.725 460.688 387.312C456.666 391.335 451.89 394.526 446.634 396.703C441.378 398.88 435.745 400 430.056 400H429.728C425.928 400 422.136 399.496 418.464 398.512L216 344L136.264 357.288C137.58 371.16 144.02 384.043 154.327 393.421C164.633 402.798 178.066 407.997 192 408Z" fill="#2B6BB2"/>
<path d="M183.808 64.3682C171.078 64.3682 158.869 69.4253 149.867 78.427C140.865 87.4288 135.808 99.6378 135.808 112.368V128.368C135.808 134.672 137.05 140.913 139.462 146.737C141.874 152.561 145.41 157.852 149.867 162.309C154.324 166.767 159.616 170.302 165.439 172.714C171.263 175.127 177.505 176.368 183.808 176.368C190.111 176.368 196.353 175.127 202.177 172.714C208 170.302 213.292 166.767 217.749 162.309C222.206 157.852 225.742 152.561 228.154 146.737C230.566 140.913 231.808 134.672 231.808 128.368V112.368C231.808 99.6378 226.751 87.4288 217.749 78.427C208.747 69.4253 196.538 64.3682 183.808 64.3682Z" fill="#E8A989"/>
<path d="M183.808 64.3682C173.034 64.3645 162.575 68.0011 154.128 74.6882C147.436 83.133 143.799 93.5936 143.808 104.368V120.368C143.808 133.099 148.865 145.308 157.867 154.309C166.869 163.311 179.078 168.368 191.808 168.368C202.582 168.372 213.041 164.735 221.488 158.048C228.18 149.603 231.817 139.143 231.808 128.368V112.368C231.808 99.6378 226.751 87.4288 217.749 78.427C208.747 69.4253 196.538 64.3682 183.808 64.3682Z" fill="#F6BB95"/>
<path d="M175.808 112.368H231.808C231.808 106.065 230.566 99.823 228.154 93.9994C225.742 88.1757 222.206 82.8843 217.749 78.427C213.292 73.9698 208 70.4342 202.177 68.0219C196.353 65.6097 190.111 64.3682 183.808 64.3682C177.505 64.3682 171.263 65.6097 165.439 68.0219C159.616 70.4342 154.324 73.9698 149.867 78.427C145.41 82.8843 141.874 88.1757 139.462 93.9994C137.05 99.823 135.808 106.065 135.808 112.368V128.368C135.808 136.361 137.806 144.227 141.62 151.25C145.434 158.274 150.944 164.232 157.648 168.584L175.808 144.368V112.368Z" fill="#3F4042"/>
<path d="M183.808 64.3682C173.034 64.3645 162.575 68.0011 154.128 74.6882C147.436 83.133 143.799 93.5936 143.808 104.368V120.368C143.806 128.089 145.67 135.695 149.242 142.54C152.813 149.385 157.986 155.265 164.32 159.68L175.808 144.368V112.368H231.808C231.808 99.6378 226.751 87.4288 217.749 78.427C208.747 69.4253 196.538 64.3682 183.808 64.3682Z" fill="#5A5B5D"/>
<path d="M192 222.024C192.001 224.384 191.537 226.722 190.635 228.903C189.732 231.083 188.409 233.065 186.74 234.734C185.072 236.404 183.09 237.728 180.91 238.632C178.729 239.535 176.392 240 174.032 240C164.72 240 155.464 238.704 146.512 236.144L104 224L124.632 279.008C126.856 284.952 128 291.248 128 297.6C128.001 300.93 126.849 304.158 124.738 306.734C122.627 309.31 119.688 311.074 116.423 311.727C113.157 312.38 109.766 311.881 106.827 310.314C103.888 308.748 101.583 306.211 100.304 303.136L68.248 226.2C65.4451 219.464 64.0015 212.24 64 204.944C64 199.389 66.2066 194.062 70.1344 190.134C74.0621 186.207 79.3893 184 84.944 184C92.288 184 99.6 184.904 106.728 186.68L178.392 204.592C182.278 205.566 185.728 207.81 188.194 210.968C190.659 214.126 191.999 218.017 192 222.024Z" fill="#F6BB95"/>
<path d="M16 416H128V448H16V416Z" fill="#777777"/>
<path d="M488 376C482.928 376 477.905 376.999 473.219 378.94C468.533 380.881 464.275 383.725 460.688 387.312C453.704 394.296 444.544 398.44 434.824 399.528L424 432L464 448L482.688 419.968C491.369 406.948 496.001 391.649 496 376H488Z" fill="#969696"/>
<path d="M488 376C482.928 376 477.905 376.999 473.219 378.94C468.533 380.881 464.275 383.725 460.688 387.312C453.704 394.296 444.544 398.44 434.824 399.528L427.056 422.824L440 424L471.576 436.632L482.68 419.968C491.367 406.95 496.002 391.65 496 376H488Z" fill="#B5B5B5"/>
<path d="M48 432H128V416H32C32 420.243 33.6857 424.313 36.6863 427.314C39.6869 430.314 43.7565 432 48 432Z" fill="#969696"/>
<path d="M56 336H88V416H56V336Z" fill="#5A5B5D"/>
</g>
<defs>
<clipPath id="clip0_170_5973">
<rect width="512" height="512" fill="white"/>
</clipPath>
</defs>
</svg>
