<svg width="512" height="512" viewBox="0 0 512 512" fill="none" xmlns="http://www.w3.org/2000/svg">
<g clip-path="url(#clip0_170_5926)">
<path d="M491.596 156.963H454.534C450.636 156.963 447.198 159.485 446.013 163.229L425.495 228.223H337.079L326.534 238.768H465.156C475.09 238.768 483.764 232.043 486.247 222.415L500.232 168.158C501.722 162.503 497.442 156.963 491.596 156.963Z" fill="#4D4D4D"/>
<path d="M372.728 160.975H111.073C111.073 160.975 92.5421 267.501 241.901 264.368C391.222 267.501 372.728 160.975 372.728 160.975Z" fill="#A45E3F"/>
<path d="M372.728 160.975H111.073C111.073 160.975 109.43 170.336 111.035 183.441H372.728C374.333 170.374 372.728 160.975 372.728 160.975Z" fill="#4D4D4D"/>
<path d="M63.7326 130.943L65.9487 128.726C67.6681 127.007 70.1899 126.358 72.5206 127.007L195.706 161.013C171.596 177.863 142.443 177.405 142.443 177.405C106.145 169.19 76.8382 150.162 64.4967 141.221C61.1726 138.775 60.8287 133.885 63.7326 130.943Z" fill="#333333"/>
<path d="M64.6495 141.298C76.9528 150.239 106.297 169.267 142.558 177.482C142.558 177.482 171.673 177.94 195.821 161.09L187.912 158.912C167.279 168.502 147.143 168.159 147.143 168.159C110.844 159.944 81.5379 140.916 69.1964 131.975C67.8973 131.019 67.0567 129.72 66.6746 128.307C66.4836 128.459 66.2543 128.651 66.0633 128.842L63.8472 131.058C60.9051 133.962 61.2872 138.852 64.6495 141.298Z" fill="#1A1A1A"/>
<path d="M420.031 130.943L417.815 128.726C416.096 127.007 413.574 126.358 411.243 127.007L288.057 161.013C312.167 177.863 341.321 177.405 341.321 177.405C377.619 169.19 406.925 150.162 419.267 141.221C422.591 138.775 422.973 133.885 420.031 130.943Z" fill="#333333"/>
<path d="M419.152 141.298C406.849 150.239 377.505 169.267 341.244 177.482C341.244 177.482 312.129 177.94 287.981 161.09L295.89 158.912C316.523 168.502 336.659 168.159 336.659 168.159C372.958 159.944 402.264 140.916 414.605 131.975C415.905 131.019 416.745 129.72 417.127 128.307C417.318 128.459 417.548 128.651 417.739 128.842L419.955 131.058C422.897 133.962 422.515 138.852 419.152 141.298Z" fill="#1A1A1A"/>
<path d="M409.027 183.175C396.838 179.354 369.748 178.666 354.503 203.311C352.554 206.444 351.331 210.074 350.032 213.856C344.186 231.012 335.398 256.956 239.685 257.835C143.971 256.918 135.183 231.012 129.337 213.856C128.038 210.036 126.816 206.444 124.867 203.311C109.622 178.628 82.5314 179.354 70.3427 183.175C66.9039 184.245 64.9935 187.913 66.0633 191.313C67.1332 194.752 70.763 196.624 74.2018 195.593C75.3863 195.249 100.108 188.065 113.786 210.15C114.971 212.022 115.888 214.812 116.996 218.059C120.358 227.956 124.943 241.52 142.902 252.409C162.388 264.254 193.528 270.291 238.08 270.826C238.271 270.826 238.462 270.864 238.653 270.864H240.64C240.831 270.864 241.022 270.864 241.213 270.826C285.727 270.291 316.905 264.254 336.392 252.409C354.35 241.482 358.935 227.956 362.297 218.059C363.405 214.85 364.322 212.061 365.507 210.15C379.148 188.065 403.907 195.249 405.091 195.593C408.492 196.662 412.16 194.752 413.23 191.313C414.376 187.913 412.466 184.283 409.027 183.175Z" fill="#4D4D4D"/>
<path d="M377.848 205.641C333.258 205.641 297.113 241.786 297.113 286.376C297.113 330.966 333.258 367.112 377.848 367.112C422.438 367.112 458.584 330.966 458.584 286.376C458.584 241.786 422.438 205.641 377.848 205.641ZM377.848 353.7C340.671 353.7 310.486 323.553 310.486 286.338C310.486 249.161 340.633 218.976 377.848 218.976C415.064 218.976 445.211 249.122 445.211 286.338C445.211 323.553 415.064 353.7 377.848 353.7Z" fill="#333333"/>
<path d="M377.848 212.748C337.194 212.748 304.258 245.684 304.258 286.339C304.258 326.993 337.194 359.929 377.848 359.929C418.503 359.929 451.439 326.993 451.439 286.339C451.439 245.684 418.503 212.748 377.848 212.748ZM445.134 283.244H385.337L427.635 240.946C437.913 252.218 444.408 266.967 445.134 283.244ZM380.943 219.091C397.22 219.817 411.969 226.312 423.241 236.59L380.943 278.888V219.091ZM374.753 278.888L332.494 236.59C343.766 226.312 358.515 219.817 374.792 219.091V278.888H374.753ZM374.753 353.624C358.476 352.899 343.728 346.403 332.456 336.125L374.753 293.827V353.624ZM380.943 293.827L423.241 336.125C411.632 346.741 396.659 352.935 380.943 353.624V293.827ZM328.1 240.984L370.398 283.282H310.601C311.282 267.564 317.478 252.589 328.1 240.984ZM310.601 289.433H370.398L328.1 331.731C317.485 320.122 311.29 305.149 310.601 289.433ZM427.635 331.731L385.337 289.433H445.134C444.408 305.71 437.913 320.459 427.635 331.731Z" fill="#D87D55"/>
<path d="M378.039 302.195C386.797 302.195 393.896 295.096 393.896 286.338C393.896 277.581 386.797 270.481 378.039 270.481C369.282 270.481 362.183 277.581 362.183 286.338C362.183 295.096 369.282 302.195 378.039 302.195Z" fill="#D87D55"/>
<path d="M378.039 295.433C383.062 295.433 387.133 291.361 387.133 286.339C387.133 281.317 383.062 277.245 378.039 277.245C373.017 277.245 368.946 281.317 368.946 286.339C368.946 291.361 373.017 295.433 378.039 295.433Z" fill="#333333"/>
<path d="M92.1982 205.641C47.6084 205.641 11.4627 241.748 11.4627 286.338C11.4627 330.928 47.6084 367.073 92.1982 367.073C136.788 367.073 172.934 330.928 172.934 286.338C172.934 241.748 136.788 205.641 92.1982 205.641ZM92.1982 353.7C55.0209 353.7 24.8358 323.553 24.8358 286.338C24.8358 249.161 54.9827 218.976 92.1982 218.976C129.414 218.976 159.561 249.122 159.561 286.338C159.561 323.553 129.376 353.7 92.1982 353.7Z" fill="#333333"/>
<path d="M92.1982 212.748C51.5439 212.748 18.6078 245.684 18.6078 286.339C18.6078 326.993 51.5439 359.929 92.1982 359.929C132.853 359.929 165.789 326.993 165.789 286.339C165.789 245.684 132.814 212.748 92.1982 212.748ZM159.484 283.244H99.649L141.946 240.946C152.225 252.218 158.72 266.967 159.484 283.244ZM95.2932 219.091C111.57 219.817 126.319 226.312 137.59 236.59L95.2932 278.888V219.091ZM89.1033 278.888L46.806 236.59C58.0776 226.312 72.8263 219.817 89.1033 219.091V278.888ZM89.1033 353.624C72.8263 352.899 58.0776 346.403 46.806 336.125L89.1033 293.827V353.624ZM95.2932 293.827L137.59 336.125C125.982 346.741 111.009 352.935 95.2932 353.624V293.827ZM42.412 240.984L84.7093 283.282H24.9123C25.6382 267.005 32.172 252.218 42.412 240.984ZM24.9123 289.433H84.7093L42.412 331.731C31.7962 320.122 25.6015 305.149 24.9123 289.433ZM141.946 331.731L99.649 289.433H159.446C158.72 305.71 152.225 320.459 141.946 331.731Z" fill="#D87D55"/>
<path d="M92.3893 302.195C101.147 302.195 108.246 295.096 108.246 286.338C108.246 277.581 101.147 270.481 92.3893 270.481C83.6319 270.481 76.5326 277.581 76.5326 286.338C76.5326 295.096 83.6319 302.195 92.3893 302.195Z" fill="#D87D55"/>
<path d="M92.3893 295.433C97.4116 295.433 101.483 291.361 101.483 286.339C101.483 281.317 97.4116 277.245 92.3893 277.245C87.3669 277.245 83.2955 281.317 83.2955 286.339C83.2955 291.361 87.3669 295.433 92.3893 295.433Z" fill="#333333"/>
<path d="M18.5696 367.074H498.054V385.262H18.5696V367.074Z" fill="#B3B3B3"/>
</g>
<defs>
<clipPath id="clip0_170_5926">
<rect width="512" height="512" fill="white"/>
</clipPath>
</defs>
</svg>
