<svg width="512" height="512" viewBox="0 0 512 512" fill="none" xmlns="http://www.w3.org/2000/svg">
<g clip-path="url(#clip0_170_5738)">
<path d="M271.743 278.429L248.687 46.6733C248.141 41.1819 249.252 35.6526 251.877 30.7983L261.286 13.4023L297.303 276.067L271.743 278.429Z" fill="#DCE2F9"/>
<path d="M271.742 278.429L273.921 300.33L305.426 297.197L280.193 43.5354C279.647 38.0439 277.468 32.842 273.938 28.6L261.289 13.3906L286.026 261.134C286.182 262.7 285.95 264.281 285.35 265.737C284.75 267.192 283.801 268.478 282.586 269.479L271.742 278.429ZM378.689 194.069C378.689 194.069 366.535 190.68 355.981 196.007C355.981 196.007 345.541 201.835 340.378 216.859C338.691 221.705 338.757 226.989 340.564 231.792C342.479 236.846 345.505 241.405 349.419 245.133C353.333 248.86 358.035 251.66 363.177 253.326C363.177 253.326 383.006 226.684 378.689 194.069Z" fill="#7784B2"/>
<path d="M263.758 307.8H330.85V340.128H263.758V307.8Z" fill="#342A35"/>
<path d="M251.169 298.307V318.763L282.817 315.719C297.999 306.916 310.63 297.498 316.838 286.532L257.86 291.08C256.039 291.221 254.339 292.043 253.099 293.383C251.859 294.723 251.169 296.481 251.169 298.307Z" fill="#FFB655"/>
<path d="M281.98 306.312L282.817 315.719L329.349 311.245V285.568L316.85 286.532L289.691 294.852C287.287 295.589 285.209 297.129 283.805 299.215C282.401 301.302 281.756 303.807 281.98 306.312Z" fill="#F27B31"/>
<path d="M60.0246 167.595C59.6378 167.296 59.1847 167.096 58.7037 167.01C58.2227 166.924 57.7281 166.956 57.262 167.103C56.7959 167.249 56.3721 167.506 56.0267 167.852C55.6813 168.197 55.4245 168.621 55.2781 169.087C52.7164 177.048 51.0659 185.274 50.3584 193.607C49.5256 207.346 53.2723 225.662 44.3213 236.902L90.1137 209.842C90.1137 209.842 81.0964 183.937 60.0246 167.595Z" fill="#7F4242"/>
<path d="M123.556 204.988C122.721 184.996 113.434 169.424 108.749 162.78C108.457 162.365 108.065 162.031 107.61 161.806C107.155 161.582 106.651 161.475 106.144 161.496C105.637 161.516 105.144 161.663 104.708 161.924C104.273 162.184 103.909 162.549 103.652 162.986C93.7127 179.787 100.298 192.068 81.0813 203.571C81.0813 203.571 46.7743 261.352 29.8663 325.441C29.8663 325.441 20.8882 388.043 21.3174 389.641C22.365 393.607 24.7731 397.079 28.1208 399.45C31.4685 401.821 35.5429 402.94 39.6319 402.611C57.3592 401.105 82.0978 392.723 86.3354 358.328C86.6831 355.29 87.6705 352.361 89.2325 349.733C90.7946 347.105 92.8958 344.838 95.3978 343.081C103.114 337.744 113.905 328.775 117.826 318.217L115.351 348.526C114.22 381.297 117.402 431.405 144.773 450.501L193.899 497.292H344.668V392.4C269.737 374.109 206.228 342.942 190.344 258.093C161.5 240.102 136.388 221.475 123.556 204.988Z" fill="#D07A76"/>
<path d="M255.369 357.218L255.359 357.27V357.227C223.021 336.217 199.228 305.553 190.344 258.094C170.918 245.976 153.198 233.57 139.767 221.724L118.814 226.11C118.814 226.11 110.479 250.799 142.107 282.87C156.738 297.707 165.411 322.431 170.507 344.72C175.83 364.642 186.744 382.625 201.96 396.543C210.605 404.487 215.793 415.503 216.412 427.227C217.032 438.952 213.033 450.452 205.273 459.263C197.446 468.119 188.943 476.354 179.84 483.893L193.91 497.296H323.012L344.663 392.403C311.65 384.341 280.855 373.771 255.369 357.218Z" fill="#7F4242"/>
<path d="M123.565 204.988H123.556C115.674 224.434 118.046 236.901 127.39 249.194C135.93 257.35 142.75 263.728 148.579 269.713C150.154 270.079 151.584 270.908 152.684 272.094C153.784 273.279 154.505 274.766 154.753 276.364C161.408 283.92 167.122 292.255 171.77 301.187C173.865 302.835 175.185 305.596 175.855 309.293C179.194 316.264 182.715 324.438 186.698 334.36C187.492 336.336 188.328 338.225 189.205 340.027C191.087 342.418 192.58 345.091 193.628 347.948C207.142 369.089 226.635 375.688 240.31 378.066L251.174 325.555C244.482 321.948 238.402 317.307 233.157 311.804C229.81 310.655 227.873 307.982 226.833 304.351C223.368 299.697 220.518 294.616 218.353 289.234C216.523 284.65 214.651 280.301 212.737 276.188C209.979 274.265 208.434 270.252 207.349 265.45C201.216 253.776 193.346 243.1 184.008 233.788C180.591 232.856 178.004 230.313 175.991 226.655C172.623 223.937 169.112 221.4 165.474 219.056C152.71 210.812 138.756 204.594 123.565 204.988Z" fill="#DCE2F9"/>
<path d="M344.669 338.306C344.669 338.306 284.372 342.109 255.321 330.049V357.497C255.321 357.497 238.018 419.62 290.547 433.217C303.081 436.461 322.452 437.335 344.669 436.79V338.306Z" fill="#342A35"/>
<path d="M172.615 441.515C202.348 425.827 237.247 391.041 245.76 316.427C245.922 315.06 246.429 313.756 247.233 312.639C248.037 311.521 249.112 310.627 250.357 310.039C251.601 309.451 252.975 309.189 254.349 309.278C255.723 309.367 257.052 309.803 258.211 310.547L261.865 312.884C264.001 314.248 265.737 316.154 266.895 318.408C268.054 320.661 268.593 323.182 268.46 325.713C268.076 332.971 267.153 344.527 264.934 358.842C264.934 358.842 247.064 417.996 216.026 443.346C184.989 468.696 172.615 441.515 172.615 441.515Z" fill="#DCE2F9"/>
<path d="M313.24 463.933C317.798 474.63 321.08 485.827 323.018 497.292H396.326L360.057 440.106L313.24 463.933Z" fill="#7784B2"/>
<path d="M382.368 475.29L360.056 440.106H301.026C305.746 447.698 309.829 455.668 313.231 463.934C324.319 468.221 347.407 475.056 382.368 475.29Z" fill="#7784B2"/>
<path d="M292.632 383.548C294.668 383.542 296.68 383.984 298.526 384.842C300.372 385.701 302.006 386.956 303.312 388.518C304.77 390.269 306.316 391.945 307.945 393.538C319.223 413.324 325.21 433.444 325.162 453.972C314.169 453.453 301.576 451.602 291.095 446.723C288.587 445.528 286.362 443.814 284.566 441.695C282.77 439.576 281.444 437.1 280.677 434.43C277.924 425.094 274.697 408.814 279.314 393.294C280.193 390.455 281.962 387.974 284.361 386.218C286.76 384.463 289.66 383.527 292.632 383.548Z" fill="#DCE2F9"/>
<path d="M388.302 239.84H459.812V298.619H388.302V239.84ZM364.759 175.4C364.759 175.4 369.929 203.912 363.662 217.227L418.024 180.726L407.841 150.961L364.759 175.4Z" fill="#7784B2"/>
<path d="M431.691 179.316H416.306C410.918 179.311 405.618 180.686 400.913 183.312C391.612 188.511 375.594 198.641 362.699 212.86C356.437 219.761 352.4 228.389 351.115 237.618C349.215 251.302 350.377 265.237 354.516 278.417L367.634 282.87C367.634 282.87 415.803 274.055 430.128 237.513C444.454 200.971 431.691 179.316 431.691 179.316Z" fill="#DCE2F9"/>
<path d="M399.77 225.574C403.9 239.029 406.058 265.732 367.634 282.869L386.379 289.233C386.379 289.233 421.165 271.985 435.492 235.443C441.516 220.083 441.793 207.735 440.103 198.562L406.145 201.592L402.23 207.821C400.57 210.43 399.492 213.366 399.067 216.429C398.642 219.492 398.882 222.611 399.77 225.574Z" fill="#7784B2"/>
<path d="M439.073 255.874C442.857 269.786 444.035 284.278 442.547 298.619L473.156 297.458C479.316 276.756 483.169 256.767 466.402 243.16L439.073 255.874Z" fill="#DCE2F9"/>
<path d="M488.978 296.857C488.978 296.857 493.369 261.705 479.231 229.508L433.617 240.811C435.903 245.648 437.729 250.69 439.07 255.87L457.424 253.159C459.292 252.881 461.197 252.98 463.026 253.453C464.854 253.926 466.569 254.761 468.069 255.91C469.568 257.059 470.821 258.497 471.752 260.14C472.684 261.783 473.276 263.597 473.493 265.473C474.79 276.099 474.677 286.85 473.156 297.446L488.978 296.857Z" fill="#7784B2"/>
<path d="M391.251 44.776C389.065 54.5199 385.897 64.0172 381.797 73.1227L411.907 65.9999C411.907 65.9999 413.457 61.3904 419.718 57.6046C421.802 56.3499 424.136 55.5665 426.555 55.3093C428.974 55.052 431.42 55.3272 433.721 56.1156C436.023 56.9039 438.124 58.1863 439.877 59.8727C441.631 61.5592 442.994 63.6088 443.871 65.8779C446.22 71.3163 446.624 77.398 445.014 83.0992C445.014 83.0992 461.637 82.4818 471.046 60.0501C480.455 37.6185 458.258 17.6294 458.258 17.6294C452.086 14.8313 445.386 13.3899 438.609 13.4024C431.131 13.5037 423.711 14.7302 416.598 17.0406C410.318 19.0457 404.673 22.6616 400.225 27.528C395.778 32.3943 392.684 38.3412 391.251 44.776Z" fill="#FE5D77"/>
<path d="M356.498 182.269C356.498 182.269 393.642 169.383 416.842 147.935C417.896 146.947 418.642 145.674 418.987 144.27C419.333 142.867 419.264 141.393 418.789 140.028C410.372 114.15 409.536 86.4034 416.38 60.0654L348.384 67.64C344.766 67.9713 341.337 69.4099 338.566 71.7599C335.794 74.1099 333.815 77.2571 332.896 80.7728C330.077 91.5364 328.542 102.596 328.322 113.72L356.498 182.269Z" fill="#DCE2F9"/>
<path d="M328.315 113.705L333.92 176.972C334 177.869 334.392 178.71 335.027 179.349C335.662 179.988 336.501 180.384 337.397 180.469L356.498 182.276L354.39 130.537L365.213 127.12C367.87 126.281 370.191 124.617 371.838 122.37C373.485 120.122 374.372 117.408 374.371 114.621V103.605L328.315 113.705Z" fill="#342A35"/>
<path d="M183.99 233.806C181.429 231.296 178.758 228.92 175.976 226.676C174.354 246.168 156.899 262.817 148.578 269.714C150.693 271.878 152.751 274.096 154.752 276.365C163.361 269.22 179.575 253.527 183.99 233.806ZM175.846 309.296C185.979 304.452 203.79 293.862 212.727 276.192C210.975 272.434 209.18 268.854 207.34 265.454C201.434 284.676 181.959 296.288 171.762 301.188C173.107 303.705 174.468 306.408 175.846 309.296ZM233.154 311.809C230.884 309.466 228.771 306.975 226.83 304.352C218.107 322.697 198.957 334.807 189.202 340.025C190.523 342.749 192 345.394 193.628 347.946C203.83 342.519 222.768 330.508 233.154 311.809Z" fill="#7784B2"/>
<path d="M115.351 348.527C121.949 343.08 128.776 335.299 130.48 325.556C132.474 314.168 128.641 304.21 124.932 297.697C124.68 297.246 124.282 296.894 123.803 296.698C123.325 296.502 122.794 296.475 122.297 296.62C121.801 296.764 121.368 297.073 121.07 297.496C120.772 297.918 120.626 298.429 120.656 298.945C121.189 305.499 120.22 312.088 117.823 318.21C116.489 328.268 115.664 338.386 115.351 348.527ZM66.962 313.384L28.5229 330.721C23.9708 348.349 21.3522 366.421 20.7134 384.617C20.6814 386.311 20.8913 388.001 21.3368 389.636C68.2661 394.182 71.942 358.615 71.942 358.615L77.5228 324.008C77.8818 321.783 77.3622 319.505 76.0737 317.655C74.7853 315.806 72.8287 314.529 70.6168 314.095L66.962 313.384ZM66.9666 288.838C66.416 288.407 65.9598 287.868 65.6264 287.254C65.293 286.639 65.0893 285.963 65.0282 285.267C64.9671 284.571 65.0497 283.869 65.271 283.206C65.4922 282.543 65.8474 281.933 66.3145 281.412L69.5522 277.553C69.9971 277.023 70.5421 276.585 71.1562 276.266C71.7702 275.946 72.4411 275.75 73.1307 275.69C73.8203 275.63 74.515 275.706 75.1752 275.914C75.8354 276.122 76.4481 276.458 76.9784 276.903C77.5087 277.348 77.9461 277.893 78.2658 278.507C78.5854 279.121 78.781 279.792 78.8413 280.482C78.9017 281.171 78.8256 281.866 78.6175 282.526C78.4093 283.186 78.0732 283.799 77.6282 284.329L74.3906 288.187C73.4112 289.123 72.1423 289.698 70.7928 289.816C69.4433 289.934 68.0937 289.589 66.9666 288.838Z" fill="#7F4242"/>
<path d="M116.578 478.887C116.374 478.887 116.17 478.875 115.968 478.851C83.9349 475.157 62.5996 451.265 54.269 409.76C50.5391 389.911 49.5259 369.647 51.2573 349.525C51.4177 348.146 52.1155 346.886 53.1992 346.019C54.2829 345.152 55.6649 344.747 57.0452 344.892C58.4255 345.038 59.6927 345.722 60.5717 346.796C61.4506 347.871 61.8703 349.248 61.7397 350.63C61.6238 351.731 50.9666 460.742 117.185 468.378C118.524 468.529 119.755 469.187 120.624 470.217C121.493 471.247 121.934 472.571 121.857 473.917C121.78 475.263 121.19 476.527 120.209 477.452C119.228 478.376 117.93 478.889 116.582 478.886L116.578 478.887Z" fill="#342A35"/>
<path d="M39.4708 357.498C42.4307 357.498 44.8302 355.099 44.8302 352.139C44.8302 349.179 42.4307 346.779 39.4708 346.779C36.5108 346.779 34.1113 349.179 34.1113 352.139C34.1113 355.099 36.5108 357.498 39.4708 357.498Z" fill="#0A0000"/>
<path d="M149.867 248.23C152.827 248.23 155.226 245.83 155.226 242.87C155.226 239.91 152.827 237.511 149.867 237.511C146.907 237.511 144.508 239.91 144.508 242.87C144.508 245.83 146.907 248.23 149.867 248.23Z" fill="#7784B2"/>
<path d="M177.515 281.422C180.475 281.422 182.874 279.022 182.874 276.063C182.874 273.103 180.475 270.703 177.515 270.703C174.555 270.703 172.156 273.103 172.156 276.063C172.156 279.022 174.555 281.422 177.515 281.422Z" fill="#7784B2"/>
<path d="M199.469 319.975C202.429 319.975 204.829 317.575 204.829 314.615C204.829 311.655 202.429 309.256 199.469 309.256C196.509 309.256 194.11 311.655 194.11 314.615C194.11 317.575 196.509 319.975 199.469 319.975Z" fill="#7784B2"/>
<path d="M221.386 355.438C224.346 355.438 226.745 353.038 226.745 350.078C226.745 347.118 224.346 344.719 221.386 344.719C218.426 344.719 216.026 347.118 216.026 350.078C216.026 353.038 218.426 355.438 221.386 355.438Z" fill="#7784B2"/>
<path d="M481.441 214.867C482.896 217.894 484.181 220.999 485.289 224.169C485.783 225.593 485.964 227.106 485.82 228.607C485.675 230.107 485.207 231.558 484.449 232.86C483.691 234.163 482.661 235.286 481.428 236.154C480.195 237.021 478.79 237.611 477.308 237.885L435.312 244.944C432.909 245.348 430.441 245.07 428.188 244.141C425.936 243.213 423.988 241.672 422.567 239.693L416.866 231.753C421.46 222.439 428.139 214.309 436.384 207.994C454.052 205.704 469.233 207.72 481.441 214.867Z" fill="#DCE2F9"/>
<path d="M440.371 215.619C451.834 212.137 466.504 210.164 481.434 214.866C477.8 207.132 473.05 199.974 467.336 193.622C456.054 195.978 445.464 200.893 436.382 207.988C435.562 208.613 434.988 209.507 434.764 210.513C434.54 211.52 434.679 212.573 435.156 213.487C435.634 214.401 436.42 215.116 437.374 215.506C438.329 215.896 439.39 215.936 440.371 215.619Z" fill="#7784B2"/>
<path d="M406.146 201.592C413.459 187.257 425.469 175.863 440.17 169.314C445.151 167.009 450.744 166.373 456.116 167.502C461.488 168.63 466.353 171.462 469.986 175.577C473.307 179.401 476.348 183.46 479.086 187.72C479.901 188.957 480.375 190.387 480.458 191.866C480.542 193.344 480.232 194.819 479.561 196.139C478.889 197.459 477.88 198.578 476.636 199.381C475.392 200.185 473.958 200.645 472.478 200.715C459.124 201.237 438.343 206.929 416.874 231.752L407.989 220.238C405.953 217.621 404.699 214.481 404.373 211.182C404.046 207.882 404.661 204.557 406.146 201.592Z" fill="#DCE2F9"/>
<path d="M103.304 269.474C103.205 271.026 103.015 272.571 102.733 274.101C102.602 274.783 102.278 275.413 101.799 275.917C101.32 276.42 100.707 276.776 100.032 276.94C99.357 277.105 98.6489 277.072 97.992 276.846C97.3351 276.62 96.7571 276.209 96.3268 275.664C92.6735 271.129 86.409 265.363 77.5033 264.059C65.015 262.23 52.2315 267.05 43.0547 284.441L50.423 254.607L75.386 248.229L103.304 269.474Z" fill="#7F4242"/>
<path d="M460.707 141.122C480.965 141.122 490.037 129.376 493.966 120.758C494.303 120.035 494.426 119.23 494.318 118.439C494.209 117.648 493.875 116.905 493.356 116.299C492.836 115.693 492.152 115.25 491.387 115.023C490.622 114.796 489.808 114.794 489.041 115.018C485.817 115.971 482.494 116.55 479.137 116.744C466.307 117.465 461.88 102.4 470.974 89.7883C475.974 82.7268 479.31 74.625 480.733 66.0904C482.155 57.5558 481.627 48.8099 479.188 40.5083C476.271 30.056 468.162 22.1486 458.257 17.6445C465.413 30.2352 471.358 62.5274 445.017 83.1037C443.302 89.564 439.746 95.6342 437.831 103.614C431.372 130.56 449.266 141.122 460.707 141.122Z" fill="#BC446B"/>
<path d="M195.662 498.598C199.971 498.523 204.196 497.405 207.979 495.341C211.761 493.276 214.987 490.327 217.38 486.744C247.182 442.17 259.679 392.762 264.927 358.851C262.365 358.297 259.688 358.777 257.478 360.187C255.269 361.597 253.706 363.823 253.13 366.38C234.553 449.241 187.591 445.126 172.613 441.524C164.367 445.899 155.608 449.229 146.539 451.438C144.267 451.956 142.157 453.022 140.393 454.544C138.629 456.066 137.264 457.997 136.419 460.168C135.574 462.339 135.273 464.684 135.544 466.998C135.815 469.312 136.648 471.525 137.972 473.442C153.654 495.392 179.584 498.839 195.662 498.598Z" fill="#7784B2"/>
<path d="M45.0365 281.683C45.6297 276.812 47.4479 272.17 50.3215 268.192C53.195 264.214 57.03 261.029 61.4682 258.935C65.9064 256.841 70.8029 255.906 75.7004 256.218C80.5979 256.53 85.3365 258.077 89.4736 260.717L94.7442 251.522L81.3493 226.675C79.227 221.36 78.6991 215.543 79.8299 209.933C80.0102 207.772 80.4319 205.637 81.0873 203.57C68.8116 208.333 57.635 215.547 48.2396 224.772C38.8442 233.997 31.4269 245.04 26.4404 257.226C24.4613 262.104 23.5508 267.35 23.7704 272.609L24.8908 299.465C25.1192 304.776 24.4054 310.086 22.7826 315.149C18.4791 328.464 14.9306 342.011 12.1541 355.726C12.1541 355.726 23.7629 378.426 49.1762 356.931C74.5894 335.436 60.8754 311.152 60.8754 311.152C55.5154 308.477 51.1151 304.208 48.2791 298.932C45.443 293.655 44.3103 287.63 45.0365 281.683Z" fill="#DCE2F9"/>
<path d="M63.5332 352.139L68.9424 326.309C69.3832 324.199 69.9469 322.117 70.6304 320.073C70.8642 319.394 70.9534 318.673 70.8924 317.957C70.8314 317.242 70.6214 316.547 70.276 315.917C69.9306 315.287 69.4574 314.736 68.8867 314.3C68.3161 313.864 67.6605 313.552 66.9621 313.384C64.8577 312.862 62.8189 312.104 60.8844 311.125C61.7879 314.03 61.9536 318.142 60.4401 323.965C55.9541 341.227 49.9682 364.039 12.151 355.729C9.85605 367.174 9.11816 374.007 9.11816 374.007C20.5066 376.745 32.4094 376.491 43.6706 373.27C48.609 371.924 53.0786 369.237 56.5843 365.508C60.09 361.778 62.4951 357.151 63.5332 352.139ZM98.7182 270.21C98.9718 270.644 99.3508 270.991 99.8054 271.206C100.26 271.421 100.769 271.494 101.265 271.414C101.762 271.335 102.223 271.107 102.588 270.761C102.952 270.415 103.204 269.967 103.31 269.475C104.163 265.003 104.027 260.398 102.911 255.984L100.683 247.179C99.5548 242.868 96.81 239.157 93.0184 236.816C88.4428 234.104 84.7576 230.117 82.4142 225.343C80.0708 220.568 79.1711 215.214 79.8254 209.936C79.8254 209.936 75.3815 224.927 86.138 240.872C88.0087 243.784 89.2684 247.046 89.8407 250.459C90.413 253.872 90.2861 257.366 89.4675 260.729C93.2369 263.139 96.402 266.382 98.7182 270.21Z" fill="#818DB7"/>
<path d="M332.312 407.852C323.373 405.361 315.211 400.647 308.587 394.148C310.028 415.002 315.666 435.35 325.164 453.971C334.019 454.391 342.895 454.06 351.694 452.982L332.312 407.852Z" fill="#7784B2"/>
<path d="M354.007 265.788C377.072 277.435 423.468 295.115 485.551 289.979C487.71 289.796 489.884 290.057 491.939 290.745C493.994 291.433 495.886 292.533 497.5 293.979C499.115 295.424 500.416 297.185 501.326 299.152C502.235 301.119 502.733 303.251 502.789 305.417C503.879 349.946 496.895 467.263 396.323 497.299C396.323 497.299 279.078 451.918 331.57 275.399C332.239 273.169 333.389 271.113 334.939 269.376C336.49 267.64 338.402 266.265 340.542 265.348C342.682 264.432 344.997 263.996 347.324 264.072C349.65 264.148 351.932 264.734 354.007 265.788Z" fill="#DCE2F9"/>
<path d="M483.417 372.942C465.654 377.499 447.233 378.923 428.981 377.15C432.979 346.3 435.5 318.598 436.661 304.639L436.84 302.478L434.688 302.21C431.224 301.781 427.768 301.285 424.323 300.722L421.906 300.324L421.704 302.764C420.549 316.755 418.035 344.511 414.038 375.356C386.49 370.825 359.771 362.217 334.758 349.817L331.948 348.389L331.496 351.509C331.121 354.135 330.865 356.777 330.73 359.426C330.643 360.949 331.015 362.463 331.797 363.773C332.579 365.083 333.736 366.129 335.118 366.776C359.523 378.185 385.392 386.153 411.987 390.453C406.453 429.532 400.09 460.785 393.085 483.378L392.227 486.138L395.114 486.302C395.806 486.341 396.502 486.361 397.201 486.361C400.566 486.351 403.917 485.915 407.173 485.063L408.415 484.742L408.775 483.51C415.505 460.553 421.614 429.85 426.936 392.231C432.851 392.737 438.624 392.993 444.128 392.993C455.071 393.021 465.991 391.996 476.737 389.933C478.529 389.592 480.19 388.755 481.531 387.517C482.871 386.279 483.838 384.69 484.32 382.931C484.992 380.509 485.623 378.062 486.2 375.654L487.084 371.955L483.417 372.942Z" fill="#7784B2"/>
</g>
<defs>
<clipPath id="clip0_170_5738">
<rect width="512" height="512" fill="white"/>
</clipPath>
</defs>
</svg>
