<svg width="512" height="512" viewBox="0 0 512 512" fill="none" xmlns="http://www.w3.org/2000/svg">
<g clip-path="url(#clip0_170_5785)">
<g clip-path="url(#clip1_170_5785)">
<path d="M448.712 184.164C447.513 184.164 446.313 183.864 445.113 183.264L365.929 137.373C363.829 136.174 362.629 133.774 362.629 131.375V77.3851C362.629 73.4859 365.629 70.1865 369.528 70.1865H448.712C452.612 70.1865 455.611 73.4859 455.611 77.3851V176.966C455.611 179.665 454.411 181.765 452.312 183.264C451.112 183.864 449.912 184.164 448.712 184.164Z" fill="#333333"/>
<path d="M458.01 451.712H53.9894C50.0901 451.712 46.7908 448.412 46.7908 444.513V409.72C46.7908 408.82 47.0907 408.22 47.3907 407.32C47.6906 406.42 54.2893 386.024 69.2864 374.027C54.2893 362.029 47.6906 341.933 47.3907 340.733C47.0907 340.133 46.7908 339.234 46.7908 338.634V222.556C46.7908 220.157 48.2905 217.757 50.3901 216.558L252.551 99.8803C254.65 98.6805 257.35 98.6805 259.449 99.8803L461.61 216.558C463.709 217.757 464.909 220.157 464.909 222.556V255.25C464.909 256.15 464.909 256.75 464.609 257.35C464.309 258.549 457.711 278.945 442.713 290.643C457.711 302.641 464.309 323.037 464.609 324.236C464.909 324.836 464.909 325.436 464.909 326.336V444.513C464.909 448.412 461.91 451.712 458.01 451.712Z" fill="#FFE4AF"/>
<path d="M487.405 243.853C483.206 243.853 479.006 242.953 475.107 240.853L255.85 113.978L36.5928 240.853C32.9935 242.953 28.7943 243.853 24.5952 243.853C15.5969 243.853 7.49849 239.353 3.29931 231.855C-4.50522e-05 226.156 -0.899869 219.557 0.899779 213.259C2.39949 206.96 6.59867 201.561 12.2976 198.561L243.252 65.0874C246.852 62.9879 251.051 61.7881 255.25 61.7881H256.75C260.949 61.7881 265.148 62.9879 268.747 65.0874L499.702 198.561C511.4 205.16 515.299 220.157 508.701 231.855C504.201 239.353 496.103 243.853 487.405 243.853Z" fill="#FF3131"/>
<path d="M404.621 451.712H278.946C275.046 451.712 272.047 448.412 272.047 444.513V300.241C272.047 289.443 280.745 280.745 291.543 280.745H391.724C402.521 280.745 411.52 289.443 411.52 300.241V444.513C411.52 448.412 408.22 451.712 404.621 451.712Z" fill="#333333"/>
<path d="M401.622 441.514V300.242C401.622 294.843 397.122 290.644 391.724 290.644H291.543C286.444 290.644 281.945 294.843 281.945 300.242V441.514H401.622Z" fill="#58535A"/>
<path d="M223.156 382.125H118.777C108.579 382.125 100.48 373.727 100.48 363.529V299.042C100.48 288.844 108.579 280.745 118.777 280.745H223.156C233.054 280.745 241.453 288.844 241.453 299.042V363.529C241.453 373.727 233.054 382.125 223.156 382.125Z" fill="#333333"/>
<path d="M223.156 372.228C227.656 372.228 231.555 368.328 231.555 363.529V299.042C231.555 294.543 227.656 290.644 223.156 290.644H118.777C114.278 290.644 110.378 294.543 110.378 299.042V363.529C110.378 368.328 114.278 372.228 118.777 372.228H223.156Z" fill="#99FFFF"/>
<path d="M255.85 255.55C228.555 255.55 206.36 233.354 206.36 205.76C206.36 178.465 228.555 156.27 255.85 156.27C283.445 156.27 305.64 178.465 305.64 205.76C305.64 233.354 283.445 255.55 255.85 255.55Z" fill="#333333"/>
<path d="M465.809 84.2837H352.431C344.033 84.2837 337.134 77.385 337.134 68.9867V47.091C337.134 38.6926 344.033 31.7939 352.431 31.7939H465.809C474.207 31.7939 481.106 38.6926 481.106 47.091V68.9867C481.106 77.385 474.207 84.2837 465.809 84.2837Z" fill="#FF3131"/>
<path d="M53.9894 164.668C50.99 164.668 48.2906 162.568 47.3907 159.569C47.0908 159.569 38.9924 134.374 22.1957 128.675C19.4962 127.775 17.6965 125.076 17.6965 122.076C17.6965 119.077 19.4962 116.377 22.1957 115.478C36.2929 110.678 44.9912 91.4822 47.3907 84.2836C48.2906 81.5842 50.99 79.4846 53.9894 79.4846C56.9889 79.4846 59.6883 81.5842 60.5882 84.2836C60.5882 84.5836 68.9865 109.479 85.7832 115.478C88.4827 116.377 90.2824 119.077 90.2824 122.076C90.2824 125.076 88.4827 127.775 85.7832 128.675C71.686 133.474 62.9877 152.67 60.5882 159.569C59.6883 162.568 56.9889 164.668 53.9894 164.668ZM145.772 110.379C142.472 110.379 139.773 108.579 138.873 105.579C138.873 105.28 130.475 80.3844 113.978 74.3856C110.978 73.4857 109.179 70.7863 109.179 67.7869C109.179 65.0874 110.978 62.3879 113.978 61.1881C127.775 56.3891 136.773 37.1928 138.873 30.2942C139.773 27.2948 142.472 25.4951 145.772 25.4951C148.771 25.4951 151.47 27.2948 152.37 30.2942C152.37 30.5941 160.769 55.4893 177.265 61.1881C180.265 62.3879 182.064 65.0874 182.064 67.7869C182.064 70.7863 180.265 73.4857 177.265 74.3856C163.468 79.4846 154.47 98.6808 152.37 105.579C151.47 108.579 148.771 110.379 145.772 110.379ZM458.011 333.235C455.011 333.235 452.312 331.435 451.412 328.436C451.112 328.136 443.013 303.241 426.217 297.242C423.517 296.342 421.418 293.643 421.418 290.643C421.418 287.944 423.517 285.244 426.217 284.045C440.314 279.246 449.012 260.049 451.412 253.151C452.312 250.151 455.011 248.352 458.011 248.352C461.01 248.352 463.709 250.151 464.609 253.151C464.609 253.451 473.008 278.346 489.804 284.045C492.504 285.244 494.303 287.944 494.303 290.643C494.303 293.643 492.504 296.342 489.804 297.242C475.707 302.341 467.009 321.537 464.609 328.436C463.709 331.435 461.01 333.235 458.011 333.235Z" fill="#1AA1FF"/>
<path d="M38.6924 374.027C45.2911 379.426 50.3901 386.625 53.9894 392.923C57.5887 386.625 62.6877 379.426 69.2864 374.027C62.6877 368.628 57.5887 361.729 53.9894 355.431C50.3901 361.729 45.2911 368.628 38.6924 374.027Z" fill="#000002"/>
<path d="M53.9895 416.619C50.99 416.619 48.2906 414.519 47.3907 411.82C47.0908 411.22 38.6924 386.625 22.1957 380.626C19.4962 379.726 17.3966 377.027 17.3966 374.027C17.3966 371.028 19.4962 368.328 22.1957 367.428C35.993 362.629 44.9912 343.433 47.3907 336.534C48.2906 333.535 50.99 331.735 53.9895 331.735C56.9889 331.735 59.6883 333.535 60.5882 336.534C60.5882 336.834 68.9865 361.729 85.7833 367.428C88.4827 368.328 90.2824 371.028 90.2824 374.027C90.2824 377.027 88.4827 379.726 85.7833 380.626C68.9865 386.625 60.5882 411.52 60.5882 411.82C59.6883 414.519 56.9889 416.619 53.9895 416.619Z" fill="#1AA1FF"/>
<path d="M383.325 383.925C379.426 383.925 376.427 380.926 376.427 377.027V355.131C376.427 351.232 379.426 348.232 383.325 348.232C387.224 348.232 390.224 351.232 390.224 355.131V377.027C390.224 380.926 387.224 383.925 383.325 383.925Z" fill="white"/>
<path d="M470.308 486.505H41.6918C28.1944 486.505 17.0966 475.407 17.0966 461.91C17.0966 448.712 28.1944 437.614 41.6918 437.614H470.308C483.805 437.614 494.603 448.712 494.603 461.91C494.603 475.407 483.805 486.505 470.308 486.505Z" fill="#7DD63E"/>
<path d="M255.85 245.953C233.954 245.953 215.958 227.956 215.958 205.76C215.958 183.865 233.954 165.868 255.85 165.868C278.046 165.868 296.042 183.865 296.042 205.76C296.042 227.956 278.046 245.953 255.85 245.953Z" fill="#99FFFF"/>
</g>
</g>
<defs>
<clipPath id="clip0_170_5785">
<rect width="512" height="512" fill="white"/>
</clipPath>
<clipPath id="clip1_170_5785">
<rect width="512" height="512" fill="white"/>
</clipPath>
</defs>
</svg>
