<svg width="512" height="512" viewBox="0 0 512 512" fill="none" xmlns="http://www.w3.org/2000/svg">
<g clip-path="url(#clip0_170_5597)">
<g clip-path="url(#clip1_170_5597)">
<path d="M469.496 61.9775L376.703 91.8635C389.207 135.118 396.387 189.239 396.387 239.485C396.387 317.021 333.535 379.872 256 379.872C178.465 379.872 115.613 317.021 115.613 239.485C115.613 188.845 122.906 134.341 135.593 90.8405L42.5 61.9845C15.645 127.673 0 198.036 0 256.001C0 397.384 114.613 512.001 256 512.001C397.387 512.001 512 397.388 512 256.001C512 198.032 496.355 127.669 469.496 61.9775ZM55.824 152.774C58.054 143.934 67.054 138.654 75.891 140.884C84.727 143.192 90.011 152.192 87.781 161.032C85.883 168.466 79.195 173.419 71.761 173.419C70.441 173.419 69.035 173.255 67.633 172.923C58.879 170.61 53.512 161.61 55.824 152.774ZM42.527 228.669C43.27 219.583 51.281 212.813 60.367 213.556C69.449 214.298 76.223 222.31 75.395 231.392C75.0568 235.515 73.1777 239.36 70.1319 242.16C67.0861 244.96 63.0973 246.51 58.96 246.501H57.558C48.472 245.759 41.703 237.751 42.527 228.669ZM67.633 319.837C66.309 320.165 64.9501 320.331 63.586 320.333C56.238 320.333 49.465 315.294 47.648 307.778C45.422 298.942 50.785 290.021 59.621 287.794C68.461 285.564 77.461 291.013 79.691 299.853C81.836 308.688 76.469 317.606 67.633 319.837ZM104.215 384.333C101.242 386.396 97.941 387.383 94.637 387.383C89.43 387.383 84.395 384.989 81.172 380.528C75.891 373.098 77.539 362.774 84.977 357.493C92.407 352.123 102.73 353.856 108.012 361.29C113.301 368.724 111.648 379.044 104.215 384.333ZM436.109 140.883C444.949 138.653 453.949 143.935 456.179 152.774C458.489 161.61 453.121 170.61 444.367 172.923C443.014 173.246 441.629 173.413 440.238 173.419C432.808 173.419 426.118 168.466 424.218 161.032C421.988 152.196 427.273 143.195 436.109 140.883ZM430.824 380.528C427.605 384.989 422.566 387.384 417.364 387.384C414.059 387.384 410.758 386.396 407.785 384.333C400.352 379.048 398.699 368.723 403.988 361.294C409.27 353.856 419.594 352.122 427.023 357.494C434.461 362.774 436.109 373.099 430.824 380.528ZM464.352 307.778C462.535 315.29 455.762 320.333 448.418 320.333C447.094 320.333 445.691 320.165 444.368 319.837C435.531 317.607 430.168 308.685 432.313 299.853C434.543 291.013 443.543 285.56 452.383 287.79C461.215 290.02 466.578 298.942 464.352 307.778ZM454.442 246.501H453.039C448.902 246.509 444.914 244.958 441.868 242.158C438.823 239.358 436.944 235.514 436.605 231.391C435.777 222.306 442.555 214.294 451.633 213.551C460.719 212.81 468.73 219.583 469.473 228.665C470.297 237.751 463.528 245.759 454.442 246.501Z" fill="#FFE07D"/>
<path d="M376.703 91.8635C389.207 135.118 396.387 189.239 396.387 239.485C396.387 313.708 338.747 374.478 265.805 379.528C269.059 379.755 272.301 379.872 275.613 379.872C353.145 379.872 416 317.021 416 239.485C416 202.505 412.105 163.427 405.066 128.126C403.945 122.522 404.805 116.702 407.498 111.662C410.191 106.621 414.551 102.672 419.832 100.489L475.437 77.0625C473.526 72.0073 471.546 66.9785 469.497 61.9775L376.703 91.8635ZM19.613 256.001C19.613 211.942 28.785 160.755 44.965 109.884C49.348 96.0935 64.711 89.0905 78.075 94.6375L115.82 110.31C120.257 112.16 125.045 113.015 129.848 112.814C131.567 105.439 133.483 98.1123 135.594 90.8405L42.5 61.9845C15.645 127.673 0 198.036 0 256.001C0 397.388 114.613 512.001 256 512.001C259.29 512.001 262.547 511.876 265.805 511.755C128.973 506.591 19.613 394.099 19.613 256.001Z" fill="#FFD064"/>
<path d="M122.152 95.0551L43.22 62.2801C34.798 58.7801 30.802 49.1161 34.302 40.6941L46.966 10.1861C50.466 1.76112 60.13 -2.23088 68.556 1.26512L147.489 34.0421C155.911 37.5381 159.907 47.2061 156.407 55.6281L143.739 86.1361C140.243 94.5581 130.579 98.5541 122.153 95.0541L122.152 95.0551ZM477.7 40.6951L465.035 10.1871C461.535 1.76212 451.871 -2.22988 443.445 1.26612L364.512 34.0431C356.09 37.5391 352.094 47.2071 355.594 55.6291L368.262 86.1371C371.758 94.5591 381.422 98.5551 389.848 95.0551L468.78 62.2801C477.202 58.7801 481.198 49.1161 477.698 40.6941L477.7 40.6951Z" fill="#FFE07D"/>
<path d="M147.488 34.0431L79.723 5.90308L71.016 26.8751C65.766 39.5121 71.758 54.0081 84.395 59.2541L144.531 84.2271L156.406 55.6291C159.906 47.2071 155.91 37.5391 147.488 34.0431ZM465.035 10.1881C461.535 1.76208 451.871 -2.22992 443.445 1.26608L380.735 27.3051L389.352 48.0591C394.598 60.6911 409.094 66.6841 421.73 61.4381L476.816 38.5661L465.035 10.1881Z" fill="#FFEAA8"/>
<path d="M368.723 458.36C363.137 446.305 349 440.71 336.785 445.934C311.961 456.551 284.665 462.454 256 462.454C227.335 462.454 200.04 456.551 175.215 445.934C162.996 440.711 148.863 446.304 143.277 458.359L133.004 480.543C169.508 500.582 211.418 512 256 512C300.586 512 342.504 500.605 379.008 480.566L368.723 458.36Z" fill="#FFD064"/>
<path d="M265.227 511.832C218.238 509.934 174.395 495.27 137.25 471.372L132.992 480.566C169.496 500.606 211.418 512 256 512C259.063 512 262.191 511.937 265.227 511.832Z" fill="#FFC250"/>
</g>
</g>
<defs>
<clipPath id="clip0_170_5597">
<rect width="512" height="512" fill="white"/>
</clipPath>
<clipPath id="clip1_170_5597">
<rect width="512" height="512" fill="white"/>
</clipPath>
</defs>
</svg>
