<svg width="512" height="512" viewBox="0 0 512 512" fill="none" xmlns="http://www.w3.org/2000/svg">
<g clip-path="url(#clip0_170_5550)">
<path d="M382.34 229.895C384.307 228.504 386.395 227.293 388.58 226.276C389.38 225.906 390.302 225.906 391.102 226.276C393.286 227.292 395.373 228.503 397.34 229.893V105.91C397.34 105.153 397.225 104.423 397.017 103.733C392.106 104.884 387.213 106.112 382.34 107.415V117.265C295.887 141.71 237.356 183.865 201.951 217.277C206.608 219.838 209.792 224.737 209.94 230.382C243.258 198.372 299.096 157.197 382.34 132.856V229.895ZM84.3459 401.551L123.149 357.988C124.146 356.873 124.784 355.483 124.982 354H106.614L74.3029 390.275L41.9909 353.999H23.8489C23.9961 355.584 24.6469 357.081 25.7059 358.269L64.2579 401.551L18.4519 452.978C17.7868 453.712 17.2736 454.571 16.942 455.504C16.6104 456.437 16.4668 457.427 16.5197 458.416C16.5726 459.405 16.8209 460.373 17.2502 461.266C17.6794 462.158 18.2813 462.957 19.0208 463.616C19.7604 464.275 20.6232 464.78 21.5593 465.104C22.4953 465.427 23.4862 465.562 24.4747 465.501C25.4632 465.439 26.4297 465.182 27.3185 464.745C28.2073 464.308 29.0007 463.7 29.6529 462.954L74.3019 412.827L119.201 463.235C119.904 464.027 120.767 464.66 121.733 465.093C122.699 465.526 123.745 465.749 124.804 465.747C126.25 465.747 127.665 465.328 128.879 464.542C130.093 463.755 131.053 462.635 131.645 461.315C132.236 459.996 132.434 458.533 132.213 457.104C131.993 455.674 131.364 454.339 130.402 453.259L84.3459 401.551Z" fill="#86A9BF"/>
<path d="M150.205 265.434C148.885 265.432 147.589 265.082 146.447 264.42C145.306 263.757 144.36 262.805 143.704 261.659C143.048 260.514 142.706 259.216 142.712 257.896C142.719 256.576 143.073 255.281 143.74 254.142C144.524 252.804 163.435 220.945 206.672 184.342C246.374 150.733 315.036 106.68 416.681 87.6799C417.649 87.4986 418.643 87.5098 419.607 87.7129C420.571 87.9161 421.485 88.3071 422.298 88.8638C423.111 89.4204 423.805 90.1318 424.343 90.9571C424.881 91.7824 425.25 92.7056 425.431 93.6739C425.612 94.6421 425.6 95.6364 425.397 96.6001C425.194 97.5638 424.802 98.478 424.246 99.2905C423.689 100.103 422.978 100.798 422.152 101.336C421.327 101.873 420.404 102.243 419.436 102.424C321.018 120.821 254.682 163.352 216.363 195.79C175.063 230.754 156.861 261.418 156.682 261.724C156.021 262.854 155.075 263.792 153.938 264.443C152.802 265.094 151.515 265.435 150.205 265.434Z" fill="#3A5792"/>
<path d="M15.4661 132.596C18.7001 156.863 39.4651 175.587 64.6161 175.587C92.0101 175.587 114.218 153.379 114.218 125.985C114.218 119.309 112.89 112.945 110.499 107.131L15.4661 132.596Z" fill="#FFB98A"/>
<path d="M15.4561 132.599C17.5761 148.505 27.2331 162.026 40.7201 169.456V125.829L15.4561 132.599Z" fill="#F07C3C"/>
<path d="M174.683 345.111V410.999H207.259V307.105C207.259 301.439 202.623 296.802 196.957 296.802H102.44V334.808H164.381C170.047 334.809 174.683 339.445 174.683 345.111Z" fill="#0481BF"/>
<path d="M216.896 433.172C214.063 433.172 211.745 430.855 211.745 428.022V412.082C211.745 409.248 209.427 406.931 206.594 406.931H173.461C170.628 406.931 168.31 409.248 168.31 412.082V460.598C168.31 463.431 170.628 465.748 173.461 465.748H240.074C242.907 465.748 245.225 463.431 245.225 460.598V438.324C245.225 435.491 242.907 433.173 240.074 433.173H216.896V433.172Z" fill="#F07C3C"/>
<path d="M152.966 347.825V410.999H185.542V301.676C185.542 296.01 180.906 291.375 175.24 291.375H102.44V337.523H142.664C148.33 337.523 152.966 342.159 152.966 347.825Z" fill="#3A5792"/>
<path d="M105.705 337.562V205.448C105.705 182.96 87.4739 164.729 64.9849 164.729C42.4959 164.729 24.2649 182.959 24.2649 205.448V337.562H105.705Z" fill="#0481BF"/>
<path opacity="0.1" d="M75.7739 166.184C72.2588 165.219 68.6301 164.73 64.9849 164.729C42.4959 164.729 24.2649 182.959 24.2649 205.448V337.562H45.8429V205.448C45.8429 186.696 58.5229 170.915 75.7739 166.184Z" fill="#210035"/>
<path d="M16.573 240.092C7.435 240.092 0 232.657 0 223.518V181.302C0 172.162 7.435 164.729 16.573 164.729H64.247L34.241 180.944C33.9016 181.197 33.6259 181.526 33.436 181.904C33.246 182.283 33.1471 182.7 33.147 183.123V223.518C33.147 232.657 25.712 240.092 16.573 240.092Z" fill="#5E9900"/>
<path opacity="0.1" d="M14.938 223.518V181.302C14.938 172.162 22.373 164.729 31.512 164.729H16.573C7.435 164.729 0 172.163 0 181.303V223.519C0 232.658 7.435 240.092 16.573 240.092C19.262 240.092 21.795 239.434 24.042 238.293C18.65 235.557 14.938 229.969 14.938 223.518Z" fill="#210035"/>
<path d="M132.34 351.756C132.34 354.589 130.022 356.906 127.189 356.906H21.6659C18.8329 356.906 16.5149 354.589 16.5149 351.756V342.15C16.5149 339.318 18.8329 337 21.6659 337H127.19C130.023 337 132.341 339.318 132.341 342.15V351.756H132.34Z" fill="#EF5050"/>
<path d="M10.594 115.277L106.932 89.464L103.237 75.675C96.11 49.072 68.765 33.284 42.162 40.413C15.559 47.542 -0.228004 74.886 6.9 101.489L10.594 115.277Z" fill="#0481BF"/>
<path opacity="0.1" d="M10.594 115.277L40.837 107.173L39.314 101.488C32.483 75.9991 46.699 49.8401 71.302 41.4261C61.9089 38.1781 51.757 37.8252 42.161 40.4131C15.559 47.5421 -0.228 74.8861 6.9 101.489L10.594 115.277Z" fill="#210035"/>
<path d="M119.018 103.485C119.751 106.222 118.112 109.061 115.375 109.794L13.447 137.105C10.711 137.837 7.87095 136.2 7.13795 133.463L3.24595 118.938C2.51295 116.202 4.15195 113.363 6.88795 112.63L108.817 85.3192C111.553 84.5872 114.393 86.2242 115.126 88.9612L119.018 103.485Z" fill="#3A5792"/>
<path d="M389.84 473.3C457.307 473.3 512 456.689 512 436.2C512 415.71 457.307 399.1 389.84 399.1C322.373 399.1 267.68 415.71 267.68 436.2C267.68 456.689 322.373 473.3 389.84 473.3Z" fill="#A2E8F9"/>
<path d="M273.954 447.959C290.151 462.683 335.912 473.297 389.84 473.297C443.768 473.297 489.53 462.683 505.727 447.959C489.531 433.235 443.769 422.623 389.84 422.623C335.912 422.623 290.15 433.235 273.954 447.959Z" fill="#02BFE9"/>
<path d="M273.954 447.959C290.151 462.683 335.912 473.297 389.84 473.297C443.768 473.297 489.53 462.683 505.727 447.959C489.531 433.235 443.769 422.623 389.84 422.623C335.912 422.623 290.15 433.235 273.954 447.959Z" fill="#02BFE9"/>
<path opacity="0.1" d="M411.051 458.109C360.148 458.109 316.534 448.651 298.179 435.207C287.507 438.884 279.182 443.205 273.953 447.959C290.15 462.683 335.911 473.297 389.839 473.297C443.767 473.297 489.529 462.683 505.726 447.959C504.765 447.096 503.759 446.283 502.713 445.524C480.329 453.238 447.57 458.109 411.051 458.109Z" fill="#210035"/>
<path d="M151.878 249.788H136.043C135.34 249.788 134.659 249.872 134.001 250.018V281.229C134.659 281.376 135.341 281.459 136.043 281.459H151.878C154.36 281.459 156.74 280.473 158.494 278.718C160.249 276.964 161.235 274.584 161.235 272.102V259.145C161.235 256.663 160.249 254.283 158.494 252.529C156.74 250.774 154.36 249.788 151.878 249.788Z" fill="#5E9900"/>
<path d="M136.871 249.494H83.1251V204.494C83.1251 195.526 75.8601 188.257 66.8991 188.257C57.9381 188.257 50.6731 195.527 50.6731 204.494V256.454C50.6731 270.522 62.1111 281.97 76.1701 281.97H136.87L136.871 249.494Z" fill="#FFC554"/>
<g opacity="0.1">
<path d="M67.4771 257.234V205.274C67.4771 199.12 70.8991 193.766 75.9431 191.012C73.2712 189.211 70.1213 188.251 66.8991 188.256C57.9381 188.256 50.6731 195.526 50.6731 204.493V256.453C50.6731 270.521 62.1111 281.969 76.1701 281.969H86.7131C75.6711 279.169 67.4771 269.142 67.4771 257.234Z" fill="#1B003F"/>
</g>
<path d="M194.55 251.198C205.822 251.198 214.959 242.06 214.959 230.789C214.959 219.517 205.822 210.38 194.55 210.38C183.279 210.38 174.141 219.517 174.141 230.789C174.141 242.06 183.279 251.198 194.55 251.198Z" fill="#86A9BF"/>
<path d="M207.677 267.762H197.641C191.802 267.762 187.051 263.011 187.051 257.171V234.02C187.051 229.877 190.409 226.52 194.551 226.52C198.693 226.52 202.051 229.877 202.051 234.02V252.762H207.677C209.666 252.762 211.574 253.552 212.98 254.958C214.387 256.365 215.177 258.272 215.177 260.262C215.177 262.251 214.387 264.158 212.98 265.565C211.574 266.971 209.666 267.762 207.677 267.762Z" fill="#3A5792"/>
<path d="M398.658 292.176C408.527 284.612 414.568 272.742 414.568 260.031C414.568 244.334 405.356 229.919 391.102 223.31C390.302 222.94 389.38 222.94 388.58 223.31C374.325 229.918 365.113 244.333 365.113 260.031C365.113 272.742 371.155 284.611 381.023 292.176C371.84 299.411 366.234 310.587 366.234 322.548C366.234 323.426 366.266 324.335 366.331 325.251C366.371 325.825 366.583 326.374 366.94 326.826C367.296 327.278 367.781 327.612 368.331 327.784C368.88 327.956 369.469 327.958 370.02 327.79C370.571 327.622 371.058 327.292 371.418 326.843C375.929 321.215 382.645 317.987 389.841 317.987C397.037 317.987 403.753 321.215 408.265 326.843C408.625 327.292 409.113 327.621 409.663 327.789C410.214 327.957 410.802 327.955 411.352 327.783C411.901 327.611 412.386 327.277 412.743 326.825C413.1 326.374 413.312 325.825 413.352 325.251C413.416 324.335 413.448 323.426 413.448 322.548C413.447 310.587 407.84 299.41 398.658 292.176Z" fill="#B3CCE2"/>
<path d="M413.089 249.262C409.952 237.992 402.006 228.367 391.101 223.311C390.301 222.941 389.379 222.941 388.579 223.311C377.674 228.367 369.727 237.992 366.592 249.262H413.089Z" fill="#86A9BF"/>
<path d="M383.743 352.095C381.754 352.095 379.846 351.305 378.44 349.899C377.033 348.492 376.243 346.585 376.243 344.595V343.565C376.243 341.576 377.033 339.669 378.44 338.262C379.846 336.856 381.754 336.065 383.743 336.065C385.732 336.065 387.64 336.856 389.046 338.262C390.453 339.669 391.243 341.576 391.243 343.565V344.595C391.243 346.585 390.453 348.492 389.046 349.899C387.64 351.305 385.732 352.095 383.743 352.095Z" fill="#02BFE9"/>
<path d="M397.135 370.638C395.146 370.638 393.238 369.848 391.832 368.442C390.425 367.035 389.635 365.128 389.635 363.138V362.108C389.635 357.965 392.993 354.608 397.135 354.608C401.277 354.608 404.635 357.965 404.635 362.108V363.138C404.635 365.128 403.845 367.035 402.438 368.442C401.032 369.848 399.124 370.638 397.135 370.638Z" fill="#0481BF"/>
<path d="M381.682 387.12C379.693 387.12 377.785 386.33 376.379 384.923C374.972 383.517 374.182 381.609 374.182 379.62V378.591C374.182 374.448 377.54 371.091 381.682 371.091C385.824 371.091 389.182 374.448 389.182 378.591V379.62C389.182 381.609 388.392 383.517 386.985 384.923C385.579 386.33 383.671 387.12 381.682 387.12Z" fill="#02BFE9"/>
<path d="M195.179 433.172C192.346 433.172 190.028 430.855 190.028 428.022V412.082C190.028 409.248 187.71 406.931 184.877 406.931H151.744C148.911 406.931 146.593 409.248 146.593 412.082V460.598C146.593 463.431 148.911 465.748 151.744 465.748H218.357C221.19 465.748 223.508 463.431 223.508 460.598V438.324C223.508 435.491 221.19 433.173 218.357 433.173H195.179V433.172Z" fill="#A53C29"/>
<path opacity="0.1" d="M162 460.597V412.081C162 409.247 164.318 406.93 167.151 406.93H151.745C148.912 406.93 146.594 409.247 146.594 412.081V460.597C146.594 463.43 148.912 465.747 151.745 465.747H167.151C164.318 465.747 162 463.43 162 460.597Z" fill="#210035"/>
</g>
<defs>
<clipPath id="clip0_170_5550">
<rect width="512" height="512" fill="white"/>
</clipPath>
</defs>
</svg>
