<svg width="512" height="512" viewBox="0 0 512 512" fill="none" xmlns="http://www.w3.org/2000/svg">
<g clip-path="url(#clip0_170_5362)">
<g clip-path="url(#clip1_170_5362)">
<path d="M416.607 27.5C412.507 27.5 408.667 28.602 405.357 30.518V69.483C408.775 71.4642 412.656 72.5054 416.607 72.501C429.033 72.501 439.107 62.428 439.107 50.001C439.107 37.574 429.033 27.5 416.607 27.5Z" fill="#CCCCCC"/>
<path d="M416.607 49.9996C416.607 41.6726 412.08 34.4076 405.357 30.5176C398.634 34.4086 394.107 41.6736 394.107 49.9996C394.107 58.3256 398.634 65.5916 405.357 69.4816C412.08 65.5906 416.607 58.3266 416.607 49.9996Z" fill="#EBEBEB"/>
<path d="M347.946 468.992L305.271 401.491C304.512 400.298 304.108 398.914 304.106 397.5V292.5H289.106V397.5C289.106 401.751 290.313 405.905 292.594 409.51L334.106 475.172V504.5C334.106 508.642 337.463 512 341.606 512C345.749 512 349.106 508.642 349.106 504.5V473C349.106 471.581 348.704 470.191 347.946 468.992ZM416.606 95C414.617 95 412.709 95.7902 411.303 97.1967C409.896 98.6032 409.106 100.511 409.106 102.5C409.106 147.991 372.096 185 326.606 185H266.606V200H326.606C380.368 200 424.106 156.262 424.106 102.5C424.106 100.511 423.316 98.6032 421.909 97.1967C420.503 95.7902 418.595 95 416.606 95Z" fill="#FF8D7E"/>
<path d="M229.106 292.5V489.092L204.236 497.382C202.349 498.011 200.789 499.364 199.899 501.143C199.009 502.922 198.863 504.982 199.492 506.869C200.121 508.756 201.474 510.316 203.253 511.206C205.032 512.095 207.092 512.242 208.979 511.613L238.977 501.613C240.47 501.115 241.769 500.16 242.689 498.883C243.61 497.606 244.105 496.072 244.105 494.498V292.5H229.106ZM131.606 200C127.47 200 124.106 203.364 124.106 207.5C124.106 211.636 127.47 215 131.606 215H146.606C150.748 215 154.106 218.357 154.106 222.5C154.106 226.643 150.748 230 146.606 230H131.606C119.199 230 109.106 219.906 109.106 207.5C109.106 195.094 119.199 185 131.606 185H266.606V200H131.606Z" fill="#FFB4A9"/>
<path d="M266.606 0C264.617 0 262.709 0.790176 261.303 2.1967C259.896 3.60322 259.106 5.51088 259.106 7.5V37.5H274.106V7.5C274.106 5.51088 273.316 3.60322 271.909 2.1967C270.503 0.790176 268.595 0 266.606 0Z" fill="#EB1B00"/>
<path d="M221.607 292.5V337.5C221.607 345.78 228.327 352.5 236.607 352.5C244.887 352.5 251.607 345.78 251.607 337.5V334.929C256.3 336.588 261.346 337.5 266.607 337.5C271.868 337.5 276.914 336.588 281.607 334.929L301.607 262.5L221.607 292.5Z" fill="#EBEBEB"/>
<path d="M296.607 307.5L311.607 337.5C311.607 345.784 318.323 352.5 326.607 352.5C334.891 352.5 341.607 345.784 341.607 337.5V307.5H296.607Z" fill="#EB1B00"/>
<path d="M311.607 262.5H296.607L311.607 307.5C311.607 315.784 318.323 322.5 326.607 322.5C334.891 322.5 341.607 315.784 341.607 307.5V292.5C341.607 275.932 328.175 262.5 311.607 262.5Z" fill="#FF4128"/>
<path d="M281.607 262.5V337.5C281.607 345.784 288.323 352.5 296.607 352.5C304.891 352.5 311.607 345.784 311.607 337.5V292.5L281.607 262.5Z" fill="#CCCCCC"/>
<path d="M281.607 292.5H311.607V262.5L266.607 232.5L281.607 292.5Z" fill="#EB1B00"/>
<path d="M221.607 292.5H281.607V232.5L221.607 262.5V292.5Z" fill="#FF4128"/>
<path d="M306.607 172.5H276.608L261.608 217.5L281.607 262.5H311.607C320.571 257.507 326.607 248.185 326.607 237.5V192.5C326.607 181.454 317.653 172.5 306.607 172.5Z" fill="#CCCCCC"/>
<path d="M276.608 172.5H226.607C215.562 172.5 206.607 181.454 206.607 192.5V237.5C206.607 248.185 212.643 257.507 221.607 262.5H281.607C290.571 257.507 296.607 248.185 296.607 237.5V192.5C296.607 181.455 287.653 172.501 276.608 172.5Z" fill="#EBEBEB"/>
<path d="M221.607 262.5H281.607V292.5H221.607V262.5Z" fill="#FF4128"/>
<path d="M266.607 52.5V142.5C291.46 142.5 311.607 122.353 311.607 97.5C311.607 72.647 291.459 52.5 266.607 52.5Z" fill="#FFB4A9"/>
<path d="M281.607 97.5C281.607 72.647 274.891 52.5 266.607 52.5C241.754 52.5 221.607 72.647 221.607 97.5C221.607 122.353 241.754 142.5 266.607 142.5C274.891 142.5 281.607 122.353 281.607 97.5Z" fill="#FFD9D4"/>
<path d="M296.607 22.5H266.607V52.5H296.607C304.891 52.5 311.607 45.784 311.607 37.5C311.607 29.216 304.891 22.5 296.607 22.5Z" fill="#EB1B00"/>
<path d="M281.607 37.5C281.607 29.216 274.891 22.5 266.607 22.5H236.607C228.323 22.5 221.607 29.216 221.607 37.5C221.607 45.784 228.323 52.5 236.607 52.5H266.607C274.891 52.5 281.607 45.784 281.607 37.5Z" fill="#FF4128"/>
<path d="M131.607 442.5C131.607 459.068 118.175 472.5 101.607 472.5C143.028 472.5 176.607 438.921 176.607 397.5L131.607 427.5V442.5Z" fill="#FFA754"/>
<path d="M131.607 277.5V427.5H146.607C163.176 427.5 176.607 414.069 176.607 397.5C176.607 337.5 131.607 337.5 131.607 277.5Z" fill="#FFCB63"/>
<path d="M124.106 435C124.106 447.407 114.012 457.5 101.606 457.5C95.5958 457.5 89.9458 455.16 85.6968 450.91C84.2882 449.514 82.3839 448.732 80.4004 448.736C78.417 448.741 76.516 449.53 75.1135 450.933C73.7109 452.335 72.921 454.236 72.9165 456.219C72.9121 458.203 73.6935 460.107 75.0898 461.516C82.1728 468.599 91.5898 472.499 101.607 472.499C122.285 472.499 139.107 455.677 139.107 434.999V427.499L131.607 419.999L124.107 427.499L124.106 435Z" fill="#FFA754"/>
<path d="M146.606 260C150.749 260 154.106 256.642 154.106 252.5C154.106 248.358 150.749 245 146.606 245H131.606C129.617 245 127.709 245.79 126.303 247.197C124.896 248.603 124.106 250.511 124.106 252.5V427.5H139.106V260H146.606Z" fill="#FFCB63"/>
</g>
</g>
<defs>
<clipPath id="clip0_170_5362">
<rect width="512" height="512" fill="white"/>
</clipPath>
<clipPath id="clip1_170_5362">
<rect width="512" height="512" fill="white"/>
</clipPath>
</defs>
</svg>
