<svg width="512" height="512" viewBox="0 0 512 512" fill="none" xmlns="http://www.w3.org/2000/svg">
<g clip-path="url(#clip0_170_6396)">
<path d="M238.3 196.4C238.3 196.4 209 169.1 210.5 159C212 148.9 258 101.8 258 101.8C258 101.8 264.3 160.6 238.3 196.4Z" fill="#C22945"/>
<path d="M252 167.6C248.9 177.8 244.5 187.7 238.3 196.4C238.3 196.4 209 169.1 210.5 159C210.9 156.2 214.8 150.5 220.2 143.7L252 167.6ZM310.4 81.9997L300.3 105.9L274 88.4997L278.4 70.9997C282.6 46.0997 321.9 48.6997 309.7 83.6997" fill="#F3AB7D"/>
<path d="M288.5 61.3L278.4 71C278.4 71 267.8 56.2 263.4 43C254.1 14.9 285.3 4.79998 307.4 4.99998C334 5.29998 347.1 16.7 347.1 16.7C347.1 16.7 347.1 25.4 334.7 25.8" fill="#FFC96F"/>
<path d="M334.7 25.6996C334.7 25.6996 327.3 49.8996 342.6 57.4996L336.1 89.7996C336.1 89.7996 314.8 89.0996 307.7 81.9996C300.6 74.8996 296.3 61.9996 296.3 61.9996C296.3 61.9996 288.5 67.9996 283.6 51.3996C278.7 34.7996 294 35.6996 298.6 42.7996L309.9 25.0996L334.7 25.6996Z" fill="#F6C9AA"/>
<path d="M274 88.5C231.5 111.1 253.6 166.5 231.5 217.3L298 229.5C305.2 193.5 304.5 180.5 304.5 180.5L300.4 106L274 88.5Z" fill="#D84861"/>
<path d="M302.6 202.1C304.7 186.6 304.4 180.5 304.4 180.5L301.6 128.5L268.6 117C268.6 140.6 287 180.5 302.6 202.1Z" fill="#C22945"/>
<path d="M231.4 217.2C210.6 240.8 194.1 297.1 194.1 297.1L240.2 316.3L267.3 287.1L310.4 295.7L332.8 253.2L297.9 229.5" fill="#399349"/>
<path d="M358.4 445.1L299.2 417.8C296.2 400.5 317.4 384.1 317.4 384.1L337 390.9C327.2 416.8 384.8 424.4 358.4 445.1Z" fill="#D84861"/>
<path d="M382.8 293.9L337 390.9L317.4 384.1C317.4 384.1 324.1 325.8 339.8 304.8L310.4 295.6L332.8 253.1C358.5 268.1 382.8 293.9 382.8 293.9Z" fill="#F6C9AA"/>
<path d="M146.4 507L92.8 473.1C97 450.4 117.7 441.3 117.7 441.3L136 449C124.6 468.7 175.1 492.4 146.4 507Z" fill="#D84861"/>
<path d="M240.3 316.3L215 347L201.6 353.6L136 449L117.7 441.4C117.7 441.4 140.3 367.1 145.4 359.6C150.4 352 176.1 336.9 176.1 336.9L194.3 297.3L240.3 316.3Z" fill="#F6C9AA"/>
<path d="M328 146.5L304.4 180.4C284 156.6 258.3 117.4 272.9 106.1C294.8 88.9996 317 126.9 328 146.5Z" fill="#D84861"/>
<path d="M417.8 140C411.1 147.3 390.4 152.7 390.4 152.7C390.4 152.7 334.7 203.4 324 199.2C320.8 198 313.1 190.6 304.4 180.5L328 146.6C331.2 152.3 333.5 156.4 334.5 157.2C339.2 160.9 381.3 134.2 381.3 134.2C381.3 134.2 395.4 111.2 400.4 111.2C405.4 111.1 424.5 132.7 417.8 140Z" fill="#F6C9AA"/>
</g>
<defs>
<clipPath id="clip0_170_6396">
<rect width="512" height="512" fill="white"/>
</clipPath>
</defs>
</svg>
