<svg width="512" height="512" viewBox="0 0 512 512" fill="none" xmlns="http://www.w3.org/2000/svg">
<g clip-path="url(#clip0_170_6255)">
<g clip-path="url(#clip1_170_6255)">
<path d="M338.581 487.227L305.55 478.969L301.417 481.031L290.601 443.129L323.304 433.797L338.581 487.227Z" fill="#FEEF2F"/>
<path d="M302.574 51.8614C299.852 52.1114 297.207 52.6894 294.566 53.6814L248.652 70.8564C246.75 71.5994 244.934 72.5094 243.285 73.7474L231.227 49.5524L289.035 24.7744L302.574 51.8614Z" fill="#F40E34"/>
<path d="M335.36 81.9232C335.36 86.3802 334.285 91.0052 332.14 95.3802L330.32 99.0992L327.102 100.337L313.805 82.5832L289.031 90.8412V107.356L275.902 98.6032C269.461 94.3102 260.789 96.0442 256.496 102.485C254.926 104.88 254.184 107.525 254.184 110.165C254.184 115.286 256.906 120.239 261.864 122.715L264.258 123.872L248.152 117.431C234.609 111.981 228.582 96.1262 235.105 83.0792C237.004 79.2792 239.812 76.0592 243.281 73.7472C244.93 72.5092 246.75 71.5992 248.648 70.8572L294.562 53.6812C297.137 52.7142 299.833 52.1029 302.574 51.8642C307.281 51.4502 311.988 52.1102 316.364 53.9272C328.258 58.6342 335.36 70.0282 335.36 81.9232Z" fill="#313DD1"/>
<path d="M272.516 173.423H214.71L228.499 161.943L245.347 147.821H245.429L259.304 136.259L264.257 132.129L272.516 173.423Z" fill="#F40E34"/>
<path d="M338.581 115.614L322.062 123.872V140.388L305.546 148.646L272.515 173.423L264.257 132.13L259.304 136.263L264.257 123.873L261.863 122.716C256.91 120.239 254.182 115.286 254.182 110.166C254.182 107.524 254.925 104.88 256.495 102.486C260.788 96.044 269.461 94.31 275.902 98.603L289.032 107.356V90.841L313.808 82.583L327.101 100.337L338.581 115.614Z" fill="#F7BFAD"/>
<path d="M338.582 429.423L323.305 433.798L290.602 443.13L280.773 445.939L272.516 363.356L222.969 330.326L231.227 305.552L234.941 306.294L251.871 309.681L261.285 311.579L264.918 312.321L272.516 313.81L264.258 330.325L313.808 346.841L338.582 429.423Z" fill="#693B00"/>
<path d="M288.453 193.32L264.258 247.742L234.941 306.293L231.227 305.551L190.597 287.465L214.711 231.227L237.832 173.422H272.516L274.414 175.816H274.496L277.555 179.777H277.637L288.453 193.32ZM216.527 157.563L198.191 206.453L123.871 247.743H66.0629V198.195H123.871L214.711 156.902L216.527 157.563ZM264.258 305.55L272.516 313.809L261.286 311.579L264.258 305.55ZM445.938 256V305.55H346.84L297.293 239.484L314.633 199.02L371.613 256H445.938Z" fill="#EBE5DD"/>
<path d="M221.316 440.98L198.191 487.227L173.421 470.711L188.777 424.715L221.316 440.98Z" fill="#FEEF2F"/>
<path d="M173.422 470.71L162.387 478.066C158.16 480.884 154.693 484.702 152.296 489.181C149.899 493.66 148.645 498.662 148.645 503.742L165.165 512L173.422 503.742L181.68 512H256V496.238C256 490.468 253.707 484.934 249.629 480.855C246.618 477.844 242.79 475.782 238.619 474.926C234.448 474.07 230.117 474.457 226.164 476.039L198.191 487.227L173.422 470.71ZM396.387 496.227V512H322.067L313.809 503.742L305.55 512H289.034V487.227L305.55 478.969L338.581 487.227L366.577 476.078C369.217 475.004 371.944 474.508 374.753 474.508C380.366 474.508 385.901 476.738 390.026 480.868C394.096 484.944 396.383 490.467 396.386 496.227H396.387Z" fill="#F40E34"/>
<path d="M445.937 256H462.452C471.573 256 478.968 263.395 478.968 272.516H496.687C505.144 272.516 511.999 279.371 511.999 287.828C511.998 290.671 511.207 293.458 509.713 295.876C508.219 298.295 506.081 300.25 503.539 301.523L486.612 309.984C484.239 311.171 481.621 311.789 478.968 311.789C476.314 311.789 473.697 311.171 471.323 309.984L445.937 297.289V256ZM66.0629 198.195H49.5499C40.4249 198.195 33.0299 205.59 33.0299 214.711H15.313C6.85399 214.71 0 221.566 0 230.023C0.000887315 232.867 0.793182 235.654 2.2882 238.073C3.78321 240.492 5.92194 242.447 8.46498 243.719L25.391 252.179C27.7638 253.366 30.3804 253.984 33.0334 253.984C35.6865 253.984 38.3031 253.366 40.6759 252.179L66.0659 239.484V198.195H66.0629Z" fill="#F7BFAD"/>
<path d="M412.902 41.291C412.902 54.974 401.812 66.067 388.129 66.067C374.446 66.067 363.355 54.974 363.355 41.29C363.355 27.61 374.445 16.517 388.129 16.517C401.813 16.517 412.902 27.611 412.902 41.291ZM495.484 165.161C495.484 178.845 484.391 189.939 470.711 189.939C457.027 189.939 445.937 178.845 445.937 165.161C445.937 151.481 457.027 140.388 470.711 140.388C484.391 140.388 495.484 151.481 495.484 165.161ZM189.938 24.774C189.938 38.458 178.844 49.552 165.16 49.552C151.48 49.552 140.387 38.458 140.387 24.774C140.387 11.094 151.48 0.000976562 165.16 0.000976562C178.844 0.000976562 189.938 11.095 189.938 24.774ZM57.8091 132.13C57.8091 145.814 46.7151 156.903 33.0311 156.903C19.3511 156.903 8.25806 145.813 8.25806 132.13C8.25806 118.447 19.3521 107.356 33.0311 107.356C46.7151 107.356 57.8091 118.446 57.8091 132.13Z" fill="#F40E34"/>
<path d="M214.71 173.423H237.832L214.711 231.228L190.598 287.466L166.895 276.978L198.191 206.454L216.527 157.564L222.969 140.388L245.348 147.821L228.5 161.942L214.71 173.423Z" fill="#FFD422"/>
<path d="M322.063 181.68L314.633 199.021L297.293 239.484L264.258 305.551L261.285 311.579L251.871 309.68L234.941 306.294L264.258 247.743L288.453 193.321L305.551 214.711V176.146L322.063 181.68Z" fill="#06AAE9"/>
<path d="M272.516 363.356L231.226 445.939L221.316 440.981L188.777 424.716L181.68 421.166L214.71 379.872L140.387 330.325L156.902 272.517L166.895 276.977L190.598 287.466L231.227 305.552L222.969 330.325L272.516 363.356Z" fill="#884D00"/>
<path d="M305.549 148.646V214.712L288.452 193.322L277.636 179.777H277.554L274.495 175.818H274.413L272.515 173.423L305.549 148.646Z" fill="#F40E34"/>
<path d="M379.87 140.388H322.062C320.978 140.388 319.905 140.174 318.903 139.759C317.901 139.344 316.991 138.735 316.225 137.969C315.458 137.202 314.85 136.291 314.436 135.29C314.021 134.288 313.808 133.214 313.808 132.13C313.808 127.571 317.503 123.872 322.061 123.872H363.354C362.27 123.872 361.196 123.659 360.194 123.244C359.192 122.829 358.282 122.221 357.515 121.454C356.748 120.687 356.14 119.776 355.725 118.774C355.31 117.772 355.097 116.698 355.097 115.614C355.097 101.954 366.21 90.8408 379.87 90.8408C393.53 90.8408 404.644 101.954 404.644 115.614C404.644 129.278 393.53 140.388 379.87 140.388ZM363.354 123.872H379.87C384.425 123.872 388.128 120.165 388.128 115.614C388.128 111.063 384.425 107.356 379.87 107.356C375.32 107.356 371.612 111.063 371.612 115.614C371.612 120.177 367.913 123.872 363.354 123.872Z" fill="#FFD422"/>
</g>
</g>
<defs>
<clipPath id="clip0_170_6255">
<rect width="512" height="512" fill="white"/>
</clipPath>
<clipPath id="clip1_170_6255">
<rect width="512" height="512" fill="white"/>
</clipPath>
</defs>
</svg>
