<svg width="512" height="512" viewBox="0 0 512 512" fill="none" xmlns="http://www.w3.org/2000/svg">
<g clip-path="url(#clip0_170_6208)">
<path d="M296 192H280V168H264V192H248V160C248 157.878 248.843 155.843 250.343 154.343C251.843 152.843 253.878 152 256 152H288C290.122 152 292.157 152.843 293.657 154.343C295.157 155.843 296 157.878 296 160V192Z" fill="#4481C3"/>
<path d="M424 288H80C68.573 288.041 57.4971 284.053 48.7186 276.738C39.94 269.422 34.0205 259.247 32 248L24 192H488L472 248C464.376 270.864 448.104 288 424 288Z" fill="#9BC499"/>
<path d="M478.856 224L488 192H24L28.568 224H478.856Z" fill="#4DA19A"/>
<path d="M248 248H264V264H248V248ZM280 248H296V264H280V248ZM216 248H232V264H216V248Z" fill="#F4F4E6"/>
<path d="M184 192H72L88 160H168L184 192Z" fill="#394D5C"/>
<path d="M184 192L168 160V136H200V160L224 192H184Z" fill="#50B4F8"/>
<path d="M133.656 325.656L122.344 314.344L244.688 192C246.188 190.501 248.223 189.658 250.344 189.658C252.465 189.658 254.5 190.501 256 192C257.5 193.501 258.342 195.535 258.342 197.656C258.342 199.778 257.5 201.812 256 203.312L133.656 325.656Z" fill="#F9BB4B"/>
<path d="M112 304L144 336L104 376C99.7565 380.243 94.0012 382.627 88 382.627C81.9988 382.627 76.2435 380.243 72 376C67.7565 371.757 65.3726 366.001 65.3726 360C65.3726 353.999 67.7565 348.243 72 344L112 304Z" fill="#CB2E5C"/>
</g>
<defs>
<clipPath id="clip0_170_6208">
<rect width="512" height="512" fill="white"/>
</clipPath>
</defs>
</svg>
