<svg width="512" height="512" viewBox="0 0 512 512" fill="none" xmlns="http://www.w3.org/2000/svg">
<g clip-path="url(#clip0_185_244)">
<rect width="512" height="512" fill="white"/>
<g clip-path="url(#clip1_185_244)">
<path d="M127.718 84.0691C155.032 103.898 187.995 103.649 224.454 90.9781C226.792 77.3251 229.553 64.3751 232.356 52.7591C197.6 30.8191 163.177 27.9661 129.107 45.3841C115.196 54.7891 113.711 67.5331 127.718 84.0691Z" fill="#CCEAFF"/>
<path d="M129.108 45.3854C111.008 27.0394 92.907 25.7474 74.807 41.5064C75.746 54.4371 76.1014 67.4036 75.872 80.3664C89.466 96.5104 107.276 95.6124 127.718 84.0694C127.272 70.6394 127.765 57.6684 129.108 45.3854Z" fill="#B8E2FF"/>
<path d="M83.868 399.087L73.079 416.339C69.459 422.142 62.353 424.727 55.847 422.617C49.341 420.507 45.111 414.239 45.576 407.423L46.972 387.129C63.076 375.339 75.513 378.747 83.868 399.087ZM106.002 406.255C122.966 391.996 135.399 395.46 142.897 418.222L132.119 435.475C130.359 438.294 127.707 440.444 124.584 441.582C121.461 442.719 118.048 442.78 114.887 441.753C108.381 439.643 104.14 433.385 104.616 426.559L106.002 406.255Z" fill="#334151"/>
<path d="M238.832 449.314L228.054 466.577C224.434 472.369 217.328 474.965 210.822 472.855C204.316 470.745 200.075 464.477 200.541 457.65L201.937 437.356C218.001 427.322 230.406 430.91 238.832 449.314ZM297.872 468.449L287.084 485.712C285.323 488.53 282.67 490.678 279.548 491.815C276.426 492.953 273.013 493.014 269.852 491.99C266.692 490.965 263.964 488.912 262.103 486.16C260.243 483.407 259.355 480.111 259.581 476.796L260.977 456.492C276.149 446.77 288.502 450.495 297.872 468.449ZM356.912 487.585L346.124 504.848C342.504 510.651 335.398 513.236 328.892 511.126C322.386 509.016 318.145 502.748 318.621 495.932L320.007 475.628C336.713 464.468 348.794 469.214 356.912 487.585Z" fill="#3E4F61"/>
<path d="M156.986 373.85C144.812 395.707 157.812 414.782 182.854 431.172C370.471 491.977 357.275 487.742 359.168 488.254C382.958 494.684 407.859 481.363 415.539 457.661C314.591 374.138 191.021 364.64 156.986 373.85Z" fill="#485C70"/>
<path d="M156.986 373.85L20.308 268.119L2.27899 323.704C-5.64401 348.156 7.75099 374.407 32.213 382.341C92.692 401.936 86.192 399.847 182.854 431.172C172.432 414.074 163.609 394.796 156.986 373.85Z" fill="#3E4F61"/>
<path d="M127.718 84.0703C115.968 130.581 123.007 177.879 160.537 208.721C189.37 200.455 210.352 183.395 218.352 151.788C218.704 131.287 221.134 110.415 224.455 90.9793L127.718 84.0703Z" fill="#DEF1FF"/>
<path d="M127.718 84.0702L75.872 80.3672C75.2731 115.796 70.3405 151.019 61.184 185.249C81.424 224.752 118.593 237.128 162.901 219.854L160.537 208.721C139.76 172.368 129.121 126.254 127.718 84.0702Z" fill="#CCEAFF"/>
<path d="M218.352 151.787H212.27C189.639 151.787 170.017 167.426 164.949 189.478L158.588 217.219C181.746 228.86 205.415 232.851 229.854 225.318C220.876 204.001 217.886 178.204 218.352 151.787Z" fill="#0573CE"/>
<path d="M382.563 347.609L372.085 339.221L247.789 346.203C248.971 377.083 265.892 402.944 304.843 421.782L415.538 457.663C428.498 417.695 415.362 373.871 382.563 347.609Z" fill="#FFD15B"/>
<path d="M222.458 219.403C208.732 208.418 190.197 205.874 173.875 212.411C169.28 214.249 164.148 215.943 158.614 217.214C143.339 227.439 139.549 240.672 147.365 256.582L211.181 354.108L310.522 366.537C335.253 374.553 361.691 362.42 372.086 339.22V339.21L222.458 219.403Z" fill="#528FD8"/>
<path d="M147.365 256.581C149.767 242.447 153.557 229.214 158.614 217.213L158.588 217.22C140.446 221.399 117.928 221.088 95.421 206.566L92.885 230.05C91.462 243.228 101.541 254.837 114.789 255.278L146.662 256.339C146.898 256.415 147.129 256.503 147.365 256.581Z" fill="#0573CE"/>
<path d="M144.33 296.998C133.282 321.612 135.631 347.746 156.985 373.852L231.053 397.857L209.511 334.381C200.639 308.239 173.664 290.785 144.33 296.998Z" fill="#528FD8"/>
<path d="M144.33 296.997C141.121 295.533 137.831 294.253 134.477 293.161L107.326 284.359C74.114 292.803 67.129 315.351 76.079 347.629L156.986 373.851C148.667 347.544 144.647 321.437 144.33 296.997Z" fill="#0573CE"/>
<path d="M218.662 307.611C200.64 283.745 175.768 265.944 147.365 256.582C133.121 267.288 131.136 280.679 144.33 296.998C159.404 303.849 172.377 314.597 181.912 328.133L231.053 397.858V397.868L304.842 421.782C304.23 420.969 218.824 307.825 218.662 307.611Z" fill="#DEF1FF"/>
<path d="M144.33 296.998C144.148 282.959 145.186 269.402 147.365 256.582C142.788 255.073 117.426 246.865 106.654 243.369C92.807 257.495 92.357 271.395 107.326 284.36L134.477 293.162C137.832 294.253 141.121 295.533 144.33 296.998Z" fill="#CCEAFF"/>
<path d="M232.357 52.7606C235.055 41.5801 238.052 30.4741 241.346 19.4546C244.228 9.82656 237.029 0.143555 226.979 0.143555H138.931C121.109 10.8276 116.371 25.8006 129.108 45.3856L232.357 52.7606Z" fill="#FFDFCF"/>
<path d="M138.931 0.143555H87.251C78.217 0.143555 71.219 8.06856 72.37 17.0296C73.4074 25.1645 74.2197 33.3267 74.806 41.5066L129.107 45.3856C130.913 28.8706 134.258 13.6036 138.931 0.143555Z" fill="#FFCEBF"/>
<path d="M77.32 191.548C83.299 197.713 89.36 202.657 95.421 206.567C117.694 258.199 112.516 307.147 76.079 347.63L58.123 341.807C27.362 331.846 10.482 298.882 20.308 268.121C20.343 267.983 42.457 199.774 42.495 199.658C47.344 184.684 66.402 180.28 77.32 191.548Z" fill="#FFC344"/>
<path d="M306.892 322.207C305.956 320.375 305.787 318.246 306.421 316.289C307.055 314.331 308.441 312.706 310.273 311.77L349.363 291.817C351.193 290.906 353.309 290.754 355.25 291.394C357.192 292.034 358.802 293.415 359.732 295.236C360.661 297.057 360.834 299.171 360.213 301.119C359.591 303.066 358.227 304.69 356.415 305.637L317.329 325.588C315.497 326.524 313.368 326.693 311.41 326.059C309.453 325.425 307.828 324.04 306.892 322.207ZM267.4 293.088C266.937 292.181 266.657 291.191 266.576 290.176C266.496 289.16 266.616 288.139 266.93 287.17C267.244 286.2 267.746 285.303 268.407 284.528C269.068 283.753 269.876 283.115 270.783 282.652L309.87 262.7C310.777 262.237 311.767 261.957 312.782 261.876C313.798 261.796 314.819 261.916 315.788 262.23C316.757 262.544 317.655 263.046 318.43 263.707C319.205 264.368 319.843 265.175 320.306 266.082C320.769 266.99 321.049 267.979 321.13 268.995C321.21 270.01 321.09 271.032 320.776 272.001C320.462 272.97 319.96 273.867 319.299 274.643C318.638 275.418 317.831 276.055 316.924 276.518L277.836 296.471C276.929 296.935 275.939 297.215 274.923 297.295C273.908 297.376 272.886 297.256 271.917 296.942C270.948 296.627 270.05 296.125 269.275 295.464C268.5 294.803 267.863 293.996 267.4 293.088ZM227.909 263.984C226.973 262.152 226.804 260.023 227.438 258.066C228.072 256.108 229.458 254.483 231.29 253.547L270.381 233.593C272.21 232.688 274.322 232.541 276.26 233.183C278.197 233.824 279.804 235.203 280.731 237.021C281.659 238.839 281.832 240.949 281.215 242.895C280.597 244.84 279.238 246.463 277.432 247.413L238.347 267.364C237.44 267.828 236.45 268.108 235.434 268.189C234.419 268.27 233.397 268.15 232.428 267.836C231.459 267.522 230.561 267.02 229.785 266.36C229.01 265.699 228.372 264.892 227.909 263.984Z" fill="#CCEAFF"/>
<path d="M437.938 10.6796C299.922 2.1586 272.424 205.098 406.937 246.944C426.815 243.861 445.372 235.996 461.191 224.415L472.846 190.192L503.646 169.096C510.597 151.093 513.462 130.964 511.288 110.841L482.716 83.1706L484.545 46.4406C472.255 31.1756 456.36 18.7886 437.938 10.6796Z" fill="#DEF1FF"/>
<path d="M382.055 35.7895C387.702 20.7185 381.076 5.11354 368.8 1.60254C348.919 4.68654 330.363 12.5515 314.545 24.1335L301.798 64.0395L272.092 79.4545C265.155 97.4205 262.271 117.547 264.451 137.709L287.902 166.316L291.194 202.109C303.484 217.377 319.378 229.767 337.797 237.877C356.623 237.581 367.29 226.992 363.204 206.696C347.816 150.039 351.162 84.7535 382.055 35.7895ZM412.924 121.646C411.39 121.646 409.89 121.191 408.614 120.339C407.338 119.487 406.344 118.276 405.756 116.859C405.366 115.918 405.164 114.909 405.164 113.89C405.163 112.872 405.363 111.863 405.752 110.921C406.141 109.98 406.712 109.124 407.432 108.404C408.152 107.683 409.007 107.111 409.948 106.721L468.159 82.5695C470.059 81.7811 472.195 81.7797 474.096 82.5659C475.997 83.352 477.508 84.8613 478.297 86.7615C479.085 88.6618 479.087 90.7975 478.301 92.6987C477.514 94.6 476.005 96.1111 474.105 96.8995L415.894 121.051C414.953 121.443 413.944 121.646 412.924 121.646ZM391.322 105.791C390.217 105.792 389.124 105.558 388.118 105.103C387.111 104.648 386.212 103.983 385.483 103.153C384.754 102.323 384.211 101.346 383.89 100.289C383.568 99.2317 383.477 98.1181 383.621 97.0225L391.99 33.2425C392.122 32.2323 392.452 31.258 392.961 30.3754C393.469 29.4927 394.147 28.719 394.955 28.0984C395.763 27.4779 396.685 27.0226 397.669 26.7587C398.654 26.4949 399.68 26.4275 400.69 26.5605C401.7 26.6929 402.674 27.023 403.557 27.532C404.439 28.0409 405.213 28.7188 405.833 29.5268C406.454 30.3348 406.909 31.2571 407.173 32.2411C407.437 33.2251 407.505 34.2514 407.372 35.2615L399.003 99.0415C398.758 100.906 397.845 102.619 396.432 103.86C395.019 105.102 393.203 105.788 391.322 105.791Z" fill="#CCEAFF"/>
<path d="M367.392 116.341C365.686 116.342 364.028 115.778 362.677 114.738L310.561 74.7695C309.753 74.1497 309.074 73.3766 308.565 72.4946C308.055 71.6125 307.724 70.6387 307.591 69.6288C307.458 68.6188 307.525 67.5925 307.788 66.6085C308.051 65.6244 308.506 64.7019 309.126 63.8936C309.746 63.0851 310.519 62.4066 311.401 61.8969C312.283 61.3873 313.257 61.0563 314.267 60.9231C315.277 60.7898 316.303 60.8568 317.287 61.1203C318.271 61.3838 319.194 61.8385 320.002 62.4586L372.118 102.427C372.926 103.046 373.605 103.819 374.114 104.702C374.624 105.584 374.955 106.557 375.088 107.567C375.221 108.577 375.154 109.604 374.891 110.588C374.628 111.572 374.173 112.494 373.553 113.303C372.829 114.249 371.897 115.016 370.828 115.542C369.759 116.069 368.583 116.343 367.392 116.341ZM301.34 167.928C299.546 167.927 297.808 167.304 296.421 166.166C295.034 165.028 294.085 163.444 293.734 161.685C293.383 159.926 293.653 158.099 294.497 156.516C295.341 154.933 296.708 153.691 298.364 153.003L363.114 126.138C364.055 125.747 365.064 125.546 366.082 125.545C367.101 125.545 368.11 125.745 369.051 126.134C369.993 126.523 370.848 127.094 371.569 127.814C372.29 128.534 372.862 129.389 373.252 130.33C373.642 131.27 373.844 132.279 373.844 133.298C373.845 134.316 373.645 135.325 373.256 136.267C372.866 137.208 372.296 138.064 371.576 138.784C370.856 139.505 370.001 140.077 369.06 140.468L304.311 167.333C303.37 167.725 302.36 167.927 301.34 167.928Z" fill="#B8E2FF"/>
<path d="M376.378 219.674C375.273 219.675 374.181 219.441 373.174 218.986C372.167 218.531 371.269 217.866 370.54 217.036C369.811 216.206 369.267 215.23 368.946 214.173C368.625 213.116 368.533 212.002 368.677 210.907L376.422 151.886C376.554 150.875 376.884 149.901 377.393 149.019C377.902 148.136 378.58 147.362 379.388 146.742C380.196 146.121 381.118 145.666 382.102 145.402C383.087 145.138 384.113 145.071 385.123 145.204C386.133 145.336 387.107 145.666 387.99 146.175C388.872 146.684 389.646 147.362 390.266 148.17C390.887 148.977 391.342 149.9 391.606 150.884C391.87 151.867 391.938 152.894 391.805 153.904L384.06 212.925C383.815 214.79 382.901 216.502 381.488 217.743C380.075 218.985 378.259 219.671 376.378 219.674ZM464.118 190.503C462.413 190.504 460.755 189.941 459.403 188.901L399.95 143.306C399.142 142.686 398.463 141.913 397.954 141.031C397.444 140.149 397.113 139.175 396.98 138.165C396.847 137.155 396.914 136.129 397.177 135.145C397.44 134.161 397.895 133.238 398.515 132.43C399.135 131.621 399.908 130.943 400.79 130.433C401.672 129.923 402.646 129.592 403.656 129.459C404.666 129.326 405.692 129.393 406.676 129.656C407.66 129.92 408.583 130.375 409.391 130.995L468.844 176.59C470.131 177.576 471.076 178.941 471.547 180.493C472.018 182.045 471.991 183.705 471.469 185.241C470.948 186.776 469.958 188.109 468.639 189.053C467.321 189.997 465.74 190.504 464.118 190.503Z" fill="#CCEAFF"/>
<path d="M423.662 119.488L421.216 138.132C420.792 141.366 419.524 144.432 417.54 147.021C415.556 149.61 412.926 151.631 409.913 152.881L392.538 160.083C389.526 161.335 386.238 161.77 383.005 161.346C379.771 160.922 376.707 159.653 374.12 157.666L359.191 146.225C356.603 144.24 354.583 141.609 353.334 138.596C352.085 135.583 351.651 132.294 352.076 129.06L354.522 110.416C354.946 107.182 356.213 104.117 358.197 101.528C360.182 98.9385 362.812 96.9174 365.825 95.6674L383.2 88.4654C386.211 87.2138 389.5 86.7783 392.733 87.2026C395.967 87.627 399.031 88.8962 401.618 90.8824L416.547 102.323C419.135 104.308 421.155 106.939 422.404 109.953C423.653 112.966 424.087 116.254 423.662 119.488Z" fill="#485C70"/>
<path d="M315.349 164.404L312.891 183.057C312.468 186.291 311.2 189.357 309.216 191.946C307.232 194.535 304.601 196.556 301.588 197.806L291.197 202.107C276.557 183.933 267.043 161.676 264.46 137.709L274.874 133.39C277.886 132.139 281.174 131.705 284.407 132.129C287.64 132.553 290.705 133.822 293.292 135.807L308.221 147.248C310.81 149.231 312.831 151.86 314.082 154.871C315.333 157.883 315.77 161.17 315.349 164.404ZM330.594 48.1397L328.156 66.7957C327.729 70.0284 326.458 73.0918 324.473 75.6785C322.487 78.2651 319.856 80.2841 316.844 81.5327L299.469 88.7347C296.457 89.9847 293.169 90.4194 289.936 89.9951C286.703 89.5708 283.638 88.3024 281.051 86.3177L272.103 79.4587C280.781 56.9697 295.715 37.9197 314.549 24.1387L323.479 30.9747C326.068 32.9593 328.088 35.5905 329.337 38.6036C330.586 41.6168 331.019 44.9058 330.594 48.1397Z" fill="#3E4F61"/>
<path d="M494.686 162.231L503.634 169.09C494.956 191.579 480.022 210.629 461.188 224.41L452.258 217.574C449.669 215.59 447.649 212.959 446.4 209.945C445.151 206.932 444.718 203.643 445.143 200.409L447.581 181.753C448.008 178.521 449.279 175.457 451.264 172.871C453.25 170.284 455.881 168.265 458.893 167.016L476.268 159.814C479.28 158.564 482.568 158.13 485.801 158.554C489.034 158.978 492.099 160.247 494.686 162.231ZM511.277 110.841L500.863 115.16C497.851 116.411 494.563 116.845 491.33 116.421C488.097 115.997 485.032 114.728 482.445 112.743L467.516 101.302C464.928 99.3189 462.906 96.6895 461.655 93.678C460.405 90.6666 459.968 87.379 460.389 84.1454L462.847 65.4924C463.27 62.2581 464.538 59.1922 466.522 56.6032C468.506 54.0141 471.137 51.9931 474.15 50.7434L484.541 46.4424C499.181 64.6174 508.695 86.8754 511.277 110.841ZM408.407 235.751C408.831 232.519 408.396 229.232 407.147 226.22C405.898 223.209 403.878 220.58 401.29 218.596L386.363 207.144C383.773 205.164 380.709 203.899 377.476 203.474C374.244 203.05 370.957 203.482 367.944 204.727L363.213 206.691C360.606 221.75 365.382 235.592 378.293 248.003C388.042 248.765 397.639 248.388 406.938 246.949L408.407 235.751Z" fill="#485C70"/>
<path d="M350.567 211.94C347.556 213.189 344.926 215.208 342.942 217.795C340.958 220.382 339.69 223.446 339.265 226.678L337.795 237.877C350.544 243.485 364.049 246.89 378.291 248.003C372.249 235.056 367.161 221.238 363.211 206.691L350.567 211.94Z" fill="#3E4F61"/>
<path d="M407.793 43.8213L425.17 36.6083C428.182 35.3596 430.811 33.3403 432.795 30.7533C434.779 28.1663 436.047 25.1027 436.472 21.8703L437.941 10.6713C429.466 6.95096 420.601 4.19143 411.512 2.44434C393.893 5.57834 384.831 17.6313 382.057 35.7903L389.375 41.4043C391.965 43.3844 395.029 44.6498 398.261 45.0739C401.493 45.4981 404.78 45.0662 407.793 43.8213Z" fill="#485C70"/>
<path d="M368.8 1.59915L367.331 12.7981C366.907 16.0307 367.342 19.3178 368.591 22.3292C369.84 25.3405 371.86 27.97 374.448 29.9531L382.057 35.7901C390.269 22.7711 400.153 11.4941 411.512 2.44415C396.86 -0.386852 382.554 -0.528852 368.8 1.59915Z" fill="#3E4F61"/>
</g>
</g>
<defs>
<clipPath id="clip0_185_244">
<rect width="512" height="512" fill="white"/>
</clipPath>
<clipPath id="clip1_185_244">
<rect width="512" height="512" fill="white"/>
</clipPath>
</defs>
</svg>
