<svg width="512" height="512" viewBox="0 0 512 512" fill="none" xmlns="http://www.w3.org/2000/svg">
<g clip-path="url(#clip0_170_6067)">
<path d="M328 79.9997V63.9997H304V31.9997H288V63.9997H272V26.2637H256V63.9997H240V31.9997H224V63.9997H200V79.9997H224V112H200V128H224V176H256V200H224V216H256V250.008H272V216H304V200H272V176H304V128H328V112H304V79.9997H328ZM240 79.9997H256V112H240V79.9997ZM240 160V128H256V160H240ZM288 160H272V128H288V160ZM288 112H272V79.9997H288V112Z" fill="#87CEE9"/>
<path d="M280 456H288C292.243 456 296.313 454.314 299.314 451.314C302.314 448.313 304 444.243 304 440C304 435.757 302.314 431.687 299.314 428.686C296.313 425.686 292.243 424 288 424C292.243 424 296.313 422.314 299.314 419.314C302.314 416.313 304 412.243 304 408C304 403.757 302.314 399.687 299.314 396.686C296.313 393.686 292.243 392 288 392H296C300.243 392 304.313 390.314 307.314 387.314C310.314 384.313 312 380.243 312 376C312 371.757 310.314 367.687 307.314 364.686C304.313 361.686 300.243 360 296 360H248V336H224L216 360L184 376H152V440H184L216 456H280Z" fill="#FFD782"/>
<path d="M288 432H240V416H288C290.122 416 292.157 415.157 293.657 413.657C295.157 412.157 296 410.122 296 408C296 405.878 295.157 403.843 293.657 402.343C292.157 400.843 290.122 400 288 400H240V384H288C294.365 384 300.47 386.529 304.971 391.029C309.471 395.53 312 401.635 312 408C312 414.365 309.471 420.47 304.971 424.971C300.47 429.471 294.365 432 288 432Z" fill="#F9BB4B"/>
<path d="M280 360H248V248H280V360ZM280 488H248V456H280V488Z" fill="#394D5C"/>
<path d="M120 360H152V456H120V360Z" fill="#CB2E5C"/>
<path d="M280 256H248C239.513 256 231.374 252.629 225.373 246.627C219.371 240.626 216 232.487 216 224V169.976C206.656 152 192 116.272 192 88C192 43.592 219.592 16 264 16C308.408 16 336 43.592 336 88C336 116.272 321.344 152 312 169.976V224C312 232.487 308.629 240.626 302.627 246.627C296.626 252.629 288.487 256 280 256ZM264 32C228.408 32 208 52.408 208 88C208 110.704 219.952 143.432 231.056 164.232C231.674 165.392 231.998 166.686 232 168V224C232 228.243 233.686 232.313 236.686 235.314C239.687 238.314 243.757 240 248 240H280C284.243 240 288.313 238.314 291.314 235.314C294.314 232.313 296 228.243 296 224V168C296.002 166.686 296.326 165.392 296.944 164.232C308.048 143.432 320 110.704 320 88C320 52.408 299.592 32 264 32Z" fill="#2D75BB"/>
<path d="M384 232C410.51 232 432 210.51 432 184C432 157.49 410.51 136 384 136C357.49 136 336 157.49 336 184C336 210.51 357.49 232 384 232Z" fill="#B11E48"/>
<path d="M396 204.8L388 190.952C389.537 190.076 390.741 188.716 391.423 187.085C392.105 185.453 392.227 183.641 391.77 181.932C391.313 180.223 390.302 178.714 388.896 177.641C387.491 176.568 385.769 175.99 384 176C382.595 175.997 381.215 176.367 380 177.072L372 163.208C377.517 160.025 384.071 159.164 390.223 160.814C396.374 162.465 401.617 166.491 404.8 172.008C407.983 177.524 408.843 184.079 407.193 190.23C405.543 196.381 401.517 201.617 396 204.8Z" fill="#F98C96"/>
<path d="M80 152H192V168H80V152ZM96 184H200V200H96V184Z" fill="#50B4F8"/>
</g>
<defs>
<clipPath id="clip0_170_6067">
<rect width="512" height="512" fill="white"/>
</clipPath>
</defs>
</svg>
