<svg width="512" height="512" viewBox="0 0 512 512" fill="none" xmlns="http://www.w3.org/2000/svg">
<g clip-path="url(#clip0_185_156)">
<rect width="512" height="512" fill="white"/>
<path d="M502 450H10C8.93913 450 7.92172 449.578 7.17157 448.828C6.42143 448.078 6 447.061 6 446V249.346C6 248.285 6.42143 247.267 7.17157 246.517C7.92172 245.767 8.93913 245.346 10 245.346H502C503.061 245.346 504.078 245.767 504.828 246.517C505.579 247.267 506 248.285 506 249.346V446C506 447.061 505.579 448.078 504.828 448.828C504.078 449.578 503.061 450 502 450Z" fill="#6BDDDD"/>
<path d="M502 454H10C5.588 454 2 450.412 2 446V249.346C2 244.934 5.588 241.346 10 241.346H502C506.412 241.346 510 244.934 510 249.346V446C510 450.412 506.412 454 502 454ZM10 249.346V446H502.004L502 249.346H10Z" fill="#3762CC"/>
<path d="M86.412 91.4159C86.412 118.16 94.724 128.306 94.724 147.548C94.724 160.556 91.266 173.328 84.702 184.558C71.6677 206.863 64.7984 232.233 64.798 258.068V274.04C64.7978 297.553 73.3713 320.26 88.912 337.906C89.952 339.086 91.466 339.738 93.038 339.738H135.82C137.392 339.738 138.906 339.086 139.946 337.906C155.486 320.26 164.06 297.553 164.06 274.04V258.068C164.06 232.233 157.19 206.863 144.156 184.558C137.593 173.328 134.135 160.555 134.134 147.548C134.134 128.19 142.446 118.322 142.446 91.4159V90.6479C142.446 74.9399 129.592 61.7079 113.888 62.0039C98.664 62.2919 86.412 74.7239 86.412 90.0159V91.4159Z" fill="#A4C9FF"/>
<path d="M137.452 169.346C136.101 164.999 135.157 160.536 134.634 156.014H94.224C93.6999 160.535 92.7565 164.999 91.406 169.346H137.452Z" fill="#F9A7A7"/>
<path d="M135.822 343.738H93.0381C91.6921 343.743 90.3605 343.461 89.1318 342.911C87.9032 342.362 86.8056 341.557 85.9121 340.55C69.7229 322.176 60.794 298.527 60.8001 274.038V258.068C60.807 231.525 67.865 205.46 81.2521 182.54C87.4533 171.92 90.7228 159.844 90.7261 147.546C90.7261 139.214 89.0941 132.764 87.2021 125.3C84.9561 116.432 82.4121 106.384 82.4121 91.4161V90.0181C82.4121 72.6941 96.4981 58.3341 113.812 58.0061C122.304 57.8701 130.368 61.0981 136.548 67.1621C142.84 73.3341 146.446 81.8941 146.446 90.6481V91.4141C146.446 106.474 143.902 116.484 141.654 125.314C139.764 132.746 138.132 139.166 138.132 147.546C138.135 159.844 141.405 171.92 147.606 182.54C160.993 205.46 168.051 231.525 168.058 258.068V274.038C168.064 298.527 159.135 322.176 142.946 340.55C142.053 341.557 140.956 342.362 139.728 342.912C138.499 343.461 137.168 343.743 135.822 343.738ZM114.41 66.0001L113.964 66.0061C100.976 66.2501 90.4121 77.0221 90.4121 90.0181V91.4161C90.4121 105.386 92.7221 114.512 94.9561 123.336C96.8941 130.988 98.7241 138.216 98.7241 147.546C98.7241 161.25 95.0701 174.746 88.1561 186.576C75.4855 208.272 68.805 232.944 68.798 258.068V274.038C68.7921 296.579 77.0115 318.348 91.9141 335.26C92.0571 335.414 92.2312 335.537 92.425 335.619C92.6187 335.701 92.8277 335.741 93.0381 335.736H135.822C136.032 335.741 136.241 335.701 136.435 335.619C136.629 335.537 136.803 335.414 136.946 335.26C151.848 318.348 160.067 296.579 160.062 274.038V258.068C160.055 232.943 153.375 208.272 140.704 186.576C133.786 174.732 130.139 161.263 130.136 147.546C130.136 138.164 131.966 130.964 133.904 123.342C136.138 114.556 138.448 105.47 138.448 91.4121V90.6461C138.448 84.0261 135.714 77.5461 130.948 72.8701C126.42 68.4321 120.562 66.0001 114.41 66.0001Z" fill="#3762CC"/>
<path d="M137.452 173.346H91.408C90.7809 173.346 90.1627 173.198 89.6031 172.916C89.0435 172.633 88.5582 172.222 88.1864 171.717C87.8147 171.212 87.5668 170.627 87.4628 170.009C87.3589 169.391 87.4017 168.756 87.588 168.158C88.8638 164.048 89.7556 159.828 90.252 155.554C90.3648 154.579 90.8321 153.68 91.5648 153.027C92.2975 152.374 93.2447 152.014 94.226 152.014H134.636C136.666 152.014 138.374 153.536 138.61 155.552C139.106 159.827 139.998 164.047 141.274 168.158C141.46 168.757 141.503 169.391 141.399 170.009C141.295 170.628 141.047 171.213 140.675 171.718C140.303 172.223 139.817 172.634 139.258 172.916C138.698 173.199 138.079 173.346 137.452 173.346ZM96.642 165.346H132.216C131.8 163.581 131.446 161.803 131.154 160.014H97.704C97.4124 161.803 97.0582 163.581 96.642 165.346Z" fill="#3762CC"/>
<path d="M226.082 91.4159C226.082 118.16 234.394 128.306 234.394 147.548C234.394 160.556 230.936 173.328 224.372 184.558C211.338 206.863 204.468 232.233 204.468 258.068V274.04C204.468 297.553 213.041 320.26 228.582 337.906C229.622 339.086 231.136 339.738 232.708 339.738H275.49C277.062 339.738 278.576 339.086 279.616 337.906C295.156 320.26 303.73 297.553 303.73 274.04V258.068C303.73 232.233 296.86 206.863 283.826 184.558C277.263 173.328 273.805 160.555 273.804 147.548C273.804 128.19 282.116 118.322 282.116 91.4159V90.6479C282.116 74.9399 269.262 61.7079 253.558 62.0039C238.334 62.2919 226.082 74.7239 226.082 90.0159V91.4159Z" fill="#A4C9FF"/>
<path d="M277.122 169.346C275.771 164.999 274.827 160.536 274.304 156.014H233.894C233.37 160.535 232.427 164.999 231.076 169.346H277.122Z" fill="#F9A7A7"/>
<path d="M275.492 343.738H232.71C231.364 343.743 230.032 343.461 228.803 342.911C227.574 342.362 226.476 341.557 225.582 340.55C209.393 322.176 200.464 298.527 200.47 274.038V258.068C200.477 231.525 207.535 205.46 220.922 182.54C227.123 171.92 230.393 159.844 230.396 147.546C230.396 139.214 228.764 132.764 226.872 125.3C224.628 116.432 222.082 106.384 222.082 91.4161V90.0181C222.082 72.6941 236.168 58.3341 253.482 58.0061C261.956 57.8701 270.036 61.0981 276.218 67.1621C282.51 73.3341 286.116 81.8941 286.116 90.6481V91.4141C286.116 106.474 283.572 116.484 281.324 125.314C279.434 132.746 277.802 139.166 277.802 147.546C277.805 159.844 281.074 171.92 287.276 182.54C300.663 205.46 307.721 231.525 307.728 258.068V274.038C307.734 298.527 298.805 322.176 282.616 340.55C281.723 341.557 280.626 342.362 279.397 342.912C278.169 343.461 276.838 343.743 275.492 343.738ZM254.08 66.0001L253.634 66.0061C240.648 66.2501 230.084 77.0221 230.084 90.0181V91.4161C230.084 105.386 232.394 114.512 234.628 123.336C236.566 130.988 238.396 138.216 238.396 147.546C238.396 161.25 234.742 174.746 227.828 186.576C215.157 208.272 208.477 232.943 208.47 258.068V274.038C208.464 296.579 216.683 318.348 231.586 335.26C231.729 335.414 231.903 335.537 232.097 335.619C232.291 335.701 232.5 335.741 232.71 335.736H275.492C275.702 335.741 275.911 335.701 276.105 335.619C276.299 335.537 276.473 335.414 276.616 335.26C291.519 318.348 299.738 296.579 299.732 274.038V258.068C299.725 232.944 293.045 208.272 280.374 186.576C273.456 174.732 269.809 161.263 269.806 147.546C269.806 138.164 271.636 130.964 273.574 123.342C275.808 114.556 278.118 105.47 278.118 91.4121V90.6461C278.118 84.0261 275.384 77.5461 270.618 72.8681C266.09 68.4321 260.232 66.0001 254.08 66.0001Z" fill="#3762CC"/>
<path d="M277.124 173.346H231.078C230.451 173.346 229.833 173.198 229.273 172.916C228.714 172.633 228.228 172.222 227.856 171.717C227.485 171.212 227.237 170.627 227.133 170.009C227.029 169.391 227.072 168.756 227.258 168.158C228.534 164.047 229.426 159.827 229.922 155.552C230.036 154.577 230.503 153.679 231.236 153.027C231.968 152.374 232.915 152.014 233.896 152.014H274.306C276.336 152.014 278.044 153.536 278.28 155.552C278.775 159.827 279.667 164.047 280.944 168.158C281.13 168.756 281.173 169.391 281.069 170.009C280.965 170.627 280.717 171.212 280.346 171.717C279.974 172.222 279.488 172.633 278.929 172.916C278.369 173.198 277.751 173.346 277.124 173.346ZM236.312 165.346H271.886C271.47 163.581 271.116 161.803 270.824 160.014H237.374C237.083 161.803 236.729 163.581 236.312 165.346Z" fill="#3762CC"/>
<path d="M156.248 91.4159C156.248 118.16 164.56 128.306 164.56 147.548C164.56 160.556 161.102 173.328 154.538 184.558C141.504 206.863 134.634 232.233 134.634 258.068V274.04C134.634 297.553 143.207 320.26 158.748 337.906C159.788 339.086 161.302 339.738 162.874 339.738H205.656C207.228 339.738 208.742 339.086 209.782 337.906C225.322 320.26 233.896 297.553 233.896 274.04V258.068C233.896 232.233 227.026 206.863 213.992 184.558C207.43 173.328 203.971 160.555 203.97 147.548C203.97 128.19 212.282 118.322 212.282 91.4159V90.6479C212.282 74.9399 199.428 61.7079 183.724 62.0039C168.5 62.2919 156.248 74.7239 156.248 90.0159V91.4159Z" fill="#E0EBFC"/>
<path d="M207.288 169.346C205.936 164.999 204.993 160.536 204.47 156.014H164.06C163.536 160.535 162.592 164.999 161.242 169.346H207.288Z" fill="#F9A7A7"/>
<path d="M205.656 343.738H162.874C161.528 343.743 160.196 343.461 158.967 342.911C157.738 342.362 156.64 341.557 155.746 340.55C139.557 322.176 130.628 298.527 130.634 274.038V258.068C130.641 231.525 137.699 205.46 151.086 182.54C157.287 171.92 160.557 159.844 160.56 147.546C160.56 139.214 158.928 132.764 157.036 125.3C154.792 116.432 152.246 106.384 152.246 91.4161V90.0181C152.246 72.6941 166.332 58.3341 183.646 58.0061C192.13 57.8701 200.202 61.0981 206.382 67.1621C212.674 73.3341 216.28 81.8941 216.28 90.6481V91.4141C216.28 106.474 213.734 116.484 211.488 125.314C209.598 132.746 207.966 139.166 207.966 147.546C207.969 159.844 211.239 171.92 217.44 182.54C230.827 205.46 237.885 231.525 237.892 258.068V274.038C237.898 298.527 228.969 322.176 212.78 340.55C211.887 341.557 210.79 342.362 209.561 342.912C208.333 343.461 207.002 343.743 205.656 343.738ZM184.244 66.0001L183.798 66.0061C170.812 66.2501 160.248 77.0221 160.248 90.0181V91.4161C160.248 105.386 162.558 114.512 164.792 123.336C166.73 130.988 168.56 138.216 168.56 147.546C168.56 161.25 164.906 174.746 157.992 186.576C145.321 208.272 138.641 232.943 138.634 258.068V274.038C138.628 296.579 146.847 318.348 161.75 335.26C161.893 335.414 162.067 335.537 162.261 335.619C162.455 335.701 162.664 335.741 162.874 335.736H205.656C205.866 335.741 206.075 335.701 206.269 335.619C206.463 335.537 206.637 335.414 206.78 335.26C221.683 318.348 229.902 296.579 229.896 274.038V258.068C229.889 232.944 223.209 208.272 210.538 186.576C203.62 174.732 199.973 161.263 199.97 147.546C199.97 138.164 201.802 130.964 203.738 123.342C205.972 114.556 208.282 105.47 208.282 91.4121V90.6461C208.282 84.0261 205.548 77.5461 200.782 72.8681C196.254 68.4321 190.398 66.0001 184.244 66.0001Z" fill="#3762CC"/>
<path d="M207.288 173.346H161.242C160.615 173.346 159.997 173.198 159.437 172.916C158.877 172.633 158.392 172.222 158.02 171.717C157.649 171.212 157.401 170.627 157.297 170.009C157.193 169.391 157.236 168.756 157.422 168.158C158.698 164.047 159.59 159.827 160.086 155.552C160.2 154.577 160.667 153.679 161.4 153.027C162.132 152.374 163.079 152.014 164.06 152.014H204.47C206.5 152.014 208.208 153.536 208.444 155.552C208.939 159.827 209.831 164.047 211.108 168.158C211.294 168.756 211.337 169.391 211.233 170.009C211.129 170.627 210.881 171.212 210.509 171.717C210.138 172.222 209.652 172.633 209.093 172.916C208.533 173.198 207.915 173.346 207.288 173.346ZM166.478 165.346H202.052C201.636 163.581 201.282 161.803 200.99 160.014H167.54C167.248 161.803 166.894 163.581 166.478 165.346Z" fill="#3762CC"/>
<path d="M357.218 349.302C406.911 349.302 447.196 309.017 447.196 259.324C447.196 209.63 406.911 169.346 357.218 169.346C307.525 169.346 267.24 209.63 267.24 259.324C267.24 309.017 307.525 349.302 357.218 349.302Z" fill="#F9A7A7"/>
<path d="M357.218 353.3C305.398 353.3 263.24 311.142 263.24 259.324C263.24 207.504 305.398 165.346 357.218 165.346C409.038 165.346 451.196 207.504 451.196 259.324C451.196 311.142 409.038 353.3 357.218 353.3ZM357.218 173.346C309.81 173.346 271.24 211.916 271.24 259.324C271.24 306.732 309.81 345.3 357.218 345.3C404.626 345.3 443.196 306.732 443.196 259.324C443.196 211.916 404.626 173.346 357.218 173.346Z" fill="#3762CC"/>
<path d="M240.526 359.732V338.872C240.526 337.489 241.076 336.162 242.054 335.184C243.032 334.206 244.359 333.656 245.742 333.656H480.488C481.871 333.656 483.198 334.206 484.176 335.184C485.154 336.162 485.704 337.489 485.704 338.872V359.732C485.704 360.417 485.569 361.095 485.307 361.728C485.045 362.361 484.661 362.936 484.176 363.421C483.692 363.905 483.117 364.289 482.484 364.551C481.851 364.813 481.173 364.948 480.488 364.948H245.74C244.357 364.948 243.031 364.398 242.053 363.42C241.075 362.442 240.526 361.115 240.526 359.732ZM240.526 418.864V398.004C240.526 396.621 241.076 395.294 242.054 394.316C243.032 393.338 244.359 392.788 245.742 392.788H480.488C481.871 392.788 483.198 393.338 484.176 394.316C485.154 395.294 485.704 396.621 485.704 398.004V418.864C485.704 420.248 485.154 421.574 484.176 422.553C483.198 423.531 481.871 424.08 480.488 424.08H245.74C244.357 424.08 243.031 423.53 242.053 422.552C241.075 421.574 240.526 420.247 240.526 418.864Z" fill="#4671C6"/>
<path d="M480.486 368.948H245.742C243.299 368.946 240.956 367.975 239.228 366.247C237.501 364.52 236.529 362.177 236.526 359.734V338.872C236.529 336.429 237.501 334.087 239.228 332.359C240.956 330.632 243.299 329.66 245.742 329.658H480.488C482.931 329.66 485.274 330.632 487.002 332.359C488.729 334.087 489.701 336.429 489.704 338.872V359.734C489.7 362.177 488.728 364.52 487 366.247C485.272 367.974 482.929 368.946 480.486 368.948ZM245.742 337.656C245.42 337.656 245.111 337.784 244.883 338.012C244.655 338.239 244.527 338.548 244.526 338.87V359.732C244.526 360.402 245.072 360.946 245.742 360.946H480.488C480.81 360.946 481.119 360.818 481.347 360.591C481.575 360.363 481.703 360.054 481.704 359.732V338.87C481.703 338.548 481.575 338.239 481.347 338.012C481.119 337.784 480.81 337.656 480.488 337.656H245.742ZM480.486 428.078H245.742C243.299 428.076 240.956 427.105 239.228 425.377C237.501 423.65 236.529 421.307 236.526 418.864V398.002C236.529 395.559 237.501 393.217 239.228 391.489C240.956 389.762 243.299 388.79 245.742 388.788H480.488C482.931 388.79 485.274 389.762 487.002 391.489C488.729 393.217 489.701 395.559 489.704 398.002V418.864C489.7 421.307 488.728 423.65 487 425.377C485.272 427.104 482.929 428.076 480.486 428.078ZM245.742 396.788C245.42 396.788 245.111 396.916 244.883 397.144C244.655 397.371 244.527 397.68 244.526 398.002V418.864C244.526 419.534 245.072 420.078 245.742 420.078H480.488C480.81 420.078 481.119 419.95 481.347 419.723C481.575 419.495 481.703 419.186 481.704 418.864V398.002C481.703 397.68 481.575 397.371 481.347 397.144C481.119 396.916 480.81 396.788 480.488 396.788H245.742Z" fill="#3762CC"/>
<path d="M259.274 448.02H221.78C220.397 448.02 219.07 447.47 218.092 446.492C217.114 445.514 216.564 444.187 216.564 442.804V298.932C216.564 297.871 216.985 296.853 217.736 296.103C218.486 295.353 219.503 294.932 220.564 294.932H259.274C260.657 294.932 261.984 295.481 262.962 296.459C263.94 297.438 264.49 298.764 264.49 300.148V442.806C264.489 444.189 263.939 445.514 262.961 446.492C261.983 447.47 260.657 448.019 259.274 448.02ZM380.03 448.02H342.536C341.153 448.02 339.826 447.47 338.848 446.492C337.869 445.514 337.32 444.187 337.32 442.804V300.146C337.32 298.762 337.869 297.436 338.848 296.457C339.826 295.479 341.153 294.93 342.536 294.93H380.03C381.413 294.93 382.74 295.479 383.718 296.457C384.696 297.436 385.246 298.762 385.246 300.146V442.804C385.245 444.187 384.695 445.513 383.717 446.491C382.739 447.469 381.413 448.019 380.03 448.02ZM500.784 448.02H463.29C461.907 448.02 460.58 447.47 459.602 446.492C458.624 445.514 458.074 444.187 458.074 442.804V300.146C458.074 298.762 458.624 297.436 459.602 296.457C460.58 295.479 461.907 294.93 463.29 294.93H500.784C502.167 294.93 503.494 295.479 504.472 296.457C505.45 297.436 506 298.762 506 300.146V442.804C506 444.187 505.45 445.514 504.472 446.492C503.494 447.47 502.167 448.02 500.784 448.02Z" fill="#4671C6"/>
<path d="M259.274 452.02H221.778C219.335 452.017 216.993 451.046 215.265 449.319C213.538 447.591 212.566 445.249 212.564 442.806V300.148C212.567 297.705 213.538 295.363 215.266 293.635C216.993 291.908 219.335 290.936 221.778 290.934H259.274C261.717 290.936 264.059 291.907 265.787 293.635C267.514 295.362 268.486 297.705 268.488 300.148V442.806C268.485 445.248 267.513 447.59 265.786 449.317C264.058 451.045 261.717 452.016 259.274 452.02ZM221.778 298.932C221.456 298.932 221.147 299.06 220.92 299.287C220.692 299.515 220.564 299.824 220.564 300.146V442.804C220.564 443.474 221.108 444.018 221.778 444.018H259.274C259.596 444.018 259.905 443.89 260.132 443.662C260.36 443.434 260.488 443.126 260.488 442.804V300.146C260.488 299.824 260.36 299.515 260.132 299.287C259.905 299.06 259.596 298.932 259.274 298.932H221.778ZM380.03 452.02H342.534C340.091 452.017 337.749 451.046 336.021 449.319C334.294 447.591 333.322 445.249 333.32 442.806V300.148C333.323 297.705 334.294 295.363 336.022 293.635C337.749 291.908 340.091 290.936 342.534 290.934H380.03C382.473 290.936 384.815 291.907 386.543 293.635C388.27 295.362 389.242 297.705 389.244 300.148V442.806C389.241 445.248 388.269 447.59 386.542 449.317C384.814 451.045 382.473 452.016 380.03 452.02ZM342.534 298.932C342.212 298.932 341.903 299.06 341.676 299.287C341.448 299.515 341.32 299.824 341.32 300.146V442.804C341.32 443.474 341.864 444.018 342.534 444.018H380.03C380.352 444.018 380.661 443.89 380.888 443.662C381.116 443.434 381.244 443.126 381.244 442.804V300.146C381.244 299.824 381.116 299.515 380.888 299.287C380.661 299.06 380.352 298.932 380.03 298.932H342.534ZM500.786 452.02H463.29C460.847 452.017 458.505 451.046 456.777 449.319C455.05 447.591 454.078 445.249 454.076 442.806V300.148C454.079 297.705 455.05 295.363 456.778 293.635C458.505 291.908 460.847 290.936 463.29 290.934H500.786C503.229 290.936 505.571 291.907 507.299 293.635C509.026 295.362 509.998 297.705 510 300.148V442.806C509.997 445.248 509.025 447.59 507.298 449.317C505.57 451.045 503.229 452.016 500.786 452.02ZM463.29 298.932C462.968 298.932 462.659 299.06 462.432 299.287C462.204 299.515 462.076 299.824 462.076 300.146V442.804C462.076 443.474 462.62 444.018 463.29 444.018H500.786C501.108 444.018 501.417 443.89 501.644 443.662C501.872 443.434 502 443.126 502 442.804V300.146C502 299.824 501.872 299.515 501.644 299.287C501.417 299.06 501.108 298.932 500.786 298.932H463.29Z" fill="#3762CC"/>
</g>
<defs>
<clipPath id="clip0_185_156">
<rect width="512" height="512" fill="white"/>
</clipPath>
</defs>
</svg>
