<svg width="512" height="512" viewBox="0 0 512 512" fill="none" xmlns="http://www.w3.org/2000/svg">
<g clip-path="url(#clip0_170_5691)">
<path d="M104 496H71.9999C65.6711 496 59.4845 494.123 54.2225 490.606C48.9604 487.09 44.8592 482.092 42.4373 476.245C40.0155 470.398 39.3819 463.964 40.6166 457.757C41.8513 451.55 44.8988 445.848 49.3739 441.373L104 386.745V288C104 270.327 118.327 256 136 256C153.673 256 168 270.327 168 288V400C168 404.202 167.172 408.363 165.564 412.246C163.956 416.128 161.599 419.656 158.627 422.627L132.268 448.987C134.726 453.609 136.008 458.765 136 464C136 481.673 121.673 496 104 496Z" fill="#463C4B"/>
<path d="M222.627 393.373L117.254 288H168V256H40V288C40 296.189 43.124 304.379 49.373 310.627L177.373 438.627C183.621 444.876 191.811 448 200 448C208.189 448 216.379 444.876 222.627 438.627C235.124 426.131 235.124 405.869 222.627 393.373Z" fill="#555A6E"/>
<path d="M56 272H152C160.837 272 168 264.837 168 256V152C168 138.745 157.255 128 144 128H40V256C40 264.837 47.163 272 56 272Z" fill="#E1322D"/>
<path d="M120 176C111.163 176 104 168.837 104 160C104 142.327 89.673 128 72 128H104C121.673 128 136 142.327 136 160C136 168.837 128.837 176 120 176ZM144 128H72V48C72 30.327 86.327 16 104 16H128C145.673 16 160 30.327 160 48V112C160 120.837 152.837 128 144 128Z" fill="#F0915A"/>
<path d="M112 128H144C152.837 128 160 120.837 160 112V48C160 30.327 145.673 16 128 16C110.327 16 96 30.327 96 48V112C96 120.837 103.163 128 112 128Z" fill="#FAB991"/>
<path d="M104 88C106.122 88 108.157 87.1571 109.657 85.6569C111.157 84.1566 112 82.1217 112 80V64C112 55.163 119.163 48 128 48H160C160 30.327 145.673 16 128 16H96C78.327 16 64 30.327 64 48V100C64 106.627 69.373 112 76 112C82.627 112 88 106.627 88 100V88H104Z" fill="#463C4B"/>
<path d="M96 96C98.1217 96 100.157 95.1571 101.657 93.6569C103.157 92.1566 104 90.1217 104 88V72C104 69.8783 103.157 67.8434 101.657 66.3431C100.157 64.8429 98.1217 64 96 64C87.163 64 80 71.163 80 80C80 88.837 87.163 96 96 96Z" fill="#F0915A"/>
<path d="M152 16H72C69.8783 16 67.8434 16.8429 66.3431 18.3431C64.8429 19.8434 64 21.8783 64 24V64H160V24C160 21.8783 159.157 19.8434 157.657 18.3431C156.157 16.8429 154.122 16 152 16Z" fill="#E1322D"/>
<path d="M136 48C138.122 48 140.157 47.1571 141.657 45.6569C143.157 44.1566 144 42.1217 144 40V16C144 13.8783 143.157 11.8434 141.657 10.3431C140.157 8.84285 138.122 8 136 8C133.878 8 131.843 8.84285 130.343 10.3431C128.843 11.8434 128 13.8783 128 16V40C128 42.1217 128.843 44.1566 130.343 45.6569C131.843 47.1571 133.878 48 136 48Z" fill="#A5C3DC"/>
<path d="M104 16H72C69.8783 16 67.8434 16.8429 66.3431 18.3431C64.8429 19.8434 64 21.8783 64 24V64H112V24C112 21.8783 111.157 19.8434 109.657 18.3431C108.157 16.8429 106.122 16 104 16Z" fill="#F04B37"/>
<path d="M128 48H168C176.837 48 184 55.163 184 64H112C112 55.163 119.163 48 128 48Z" fill="#555A6E"/>
<path d="M240 320H176C122.981 320 80 277.019 80 224C80 170.981 122.981 128 176 128H240C293.019 128 336 170.981 336 224C336 277.019 293.019 320 240 320Z" fill="#4182C3"/>
<path d="M176 320C229.019 320 272 277.019 272 224C272 170.981 229.019 128 176 128C122.981 128 80 170.981 80 224C80 277.019 122.981 320 176 320Z" fill="#A5C3DC"/>
<path d="M176 304C220.183 304 256 268.183 256 224C256 179.817 220.183 144 176 144C131.817 144 96 179.817 96 224C96 268.183 131.817 304 176 304Z" fill="#D7E6F0"/>
<path d="M128 232C126.418 232 124.871 231.531 123.555 230.652C122.24 229.773 121.214 228.524 120.609 227.062C120.003 225.6 119.845 223.991 120.153 222.439C120.462 220.888 121.224 219.462 122.343 218.343L186.343 154.343C187.843 152.843 189.878 152 192 152C194.122 152 196.157 152.843 197.657 154.343C199.157 155.844 200 157.878 200 160C200 162.122 199.157 164.157 197.657 165.657L133.657 229.657C132.915 230.401 132.033 230.991 131.062 231.393C130.092 231.795 129.051 232.002 128 232Z" fill="#463C4B"/>
<path d="M192 176C200.837 176 208 168.837 208 160C208 151.163 200.837 144 192 144C183.163 144 176 151.163 176 160C176 168.837 183.163 176 192 176Z" fill="#463C4B"/>
<path d="M192 160C196.418 160 200 156.418 200 152C200 147.582 196.418 144 192 144C187.582 144 184 147.582 184 152C184 156.418 187.582 160 192 160Z" fill="#555A6E"/>
<path d="M136 256H120.081C111.244 256 104.081 248.837 104.081 240V208H136C144.836 208 152 215.163 152 224V256C152 258.122 151.157 260.157 149.657 261.657C148.157 263.157 146.122 264 144 264C141.878 264 139.843 263.157 138.343 261.657C136.843 260.157 136 258.122 136 256Z" fill="#FAB991"/>
<path d="M64 208V152C64 138.745 53.255 128 40 128C26.745 128 16 138.745 16 152V232C16 245.255 26.745 256 40 256H96.081C98.2027 256 100.238 255.157 101.738 253.657C103.238 252.157 104.081 250.122 104.081 248V208H64Z" fill="#F04B37"/>
<path d="M200 448C191.811 448 183.621 444.876 177.373 438.627C164.876 426.13 164.876 405.869 177.373 393.372L201.373 369.372C213.869 356.875 234.131 356.875 246.627 369.372C259.124 381.869 259.124 402.13 246.627 414.627L222.627 438.627C216.379 444.876 208.189 448 200 448ZM344 496H312C305.671 496 299.485 494.123 294.223 490.606C288.96 487.09 284.859 482.092 282.437 476.245C280.016 470.398 279.382 463.964 280.617 457.757C281.851 451.55 284.899 445.848 289.374 441.373L344 386.745V288C344 270.327 358.327 256 376 256C393.673 256 408 270.327 408 288V400C408 404.202 407.172 408.363 405.564 412.246C403.956 416.128 401.599 419.656 398.627 422.627L372.268 448.987C374.726 453.609 376.008 458.765 376 464C376 481.673 361.673 496 344 496Z" fill="#463C4B"/>
<path d="M462.627 393.373L357.254 288H408V256H280V288C280 296.189 283.124 304.379 289.373 310.627L417.373 438.627C423.621 444.876 431.811 448 440 448C448.189 448 456.379 444.876 462.627 438.627C475.124 426.131 475.124 405.869 462.627 393.373Z" fill="#555A6E"/>
<path d="M296 272H392C400.837 272 408 264.837 408 256V152C408 138.745 397.255 128 384 128H280V256C280 264.837 287.163 272 296 272Z" fill="#E1322D"/>
<path d="M360 176C351.163 176 344 168.837 344 160C344 142.327 329.673 128 312 128H344C361.673 128 376 142.327 376 160C376 168.837 368.837 176 360 176ZM384 128H312V48C312 30.327 326.327 16 344 16H368C385.673 16 400 30.327 400 48V112C400 120.837 392.837 128 384 128Z" fill="#F0915A"/>
<path d="M352 128H384C392.837 128 400 120.837 400 112V48C400 30.327 385.673 16 368 16C350.327 16 336 30.327 336 48V112C336 120.837 343.163 128 352 128Z" fill="#FAB991"/>
<path d="M344 88C346.122 88 348.157 87.1571 349.657 85.6569C351.157 84.1566 352 82.1217 352 80V64C352 55.163 359.163 48 368 48H400C400 30.327 385.673 16 368 16H336C318.327 16 304 30.327 304 48V100C304 106.627 309.373 112 316 112C322.627 112 328 106.627 328 100V88H344Z" fill="#463C4B"/>
<path d="M336 96C338.122 96 340.157 95.1571 341.657 93.6569C343.157 92.1566 344 90.1217 344 88V72C344 69.8783 343.157 67.8434 341.657 66.3431C340.157 64.8429 338.122 64 336 64C327.163 64 320 71.163 320 80C320 88.837 327.163 96 336 96Z" fill="#F0915A"/>
<path d="M392 16H312C309.878 16 307.843 16.8429 306.343 18.3431C304.843 19.8434 304 21.8783 304 24V64H400V24C400 21.8783 399.157 19.8434 397.657 18.3431C396.157 16.8429 394.122 16 392 16Z" fill="#E1322D"/>
<path d="M376 48C378.122 48 380.157 47.1571 381.657 45.6569C383.157 44.1566 384 42.1217 384 40V16C384 13.8783 383.157 11.8434 381.657 10.3431C380.157 8.84285 378.122 8 376 8C373.878 8 371.843 8.84285 370.343 10.3431C368.843 11.8434 368 13.8783 368 16V40C368 42.1217 368.843 44.1566 370.343 45.6569C371.843 47.1571 373.878 48 376 48Z" fill="#A5C3DC"/>
<path d="M344 16H312C309.878 16 307.843 16.8429 306.343 18.3431C304.843 19.8434 304 21.8783 304 24V64H352V24C352 21.8783 351.157 19.8434 349.657 18.3431C348.157 16.8429 346.122 16 344 16Z" fill="#F04B37"/>
<path d="M368 48H408C416.837 48 424 55.163 424 64H352C352 55.163 359.163 48 368 48Z" fill="#555A6E"/>
<path d="M424 304C463.765 304 496 271.765 496 232C496 192.235 463.765 160 424 160C384.235 160 352 192.235 352 232C352 271.765 384.235 304 424 304Z" fill="#F06423"/>
<path d="M392 304C431.765 304 464 271.765 464 232C464 192.235 431.765 160 392 160C352.235 160 320 192.235 320 232C320 271.765 352.235 304 392 304Z" fill="#FAA019"/>
<path d="M392 256C405.255 256 416 245.255 416 232C416 218.745 405.255 208 392 208C378.745 208 368 218.745 368 232C368 245.255 378.745 256 392 256Z" fill="#F06423"/>
<path d="M376 256H360.081C351.244 256 344.081 248.837 344.081 240V208H376C384.836 208 392 215.163 392 224V256C392 258.122 391.157 260.157 389.657 261.657C388.157 263.157 386.122 264 384 264C381.878 264 379.843 263.157 378.343 261.657C376.843 260.157 376 258.122 376 256Z" fill="#FAB991"/>
<path d="M304 208V152C304 138.745 293.255 128 280 128C266.745 128 256 138.745 256 152V232C256 245.255 266.745 256 280 256H336.081C338.203 256 340.238 255.157 341.738 253.657C343.238 252.157 344.081 250.122 344.081 248V208H304Z" fill="#F04B37"/>
<path d="M440 448C431.811 448 423.621 444.876 417.373 438.627C404.876 426.13 404.876 405.869 417.373 393.372L441.373 369.372C453.869 356.875 474.131 356.875 486.627 369.372C499.124 381.869 499.124 402.13 486.627 414.627L462.627 438.627C456.379 444.876 448.189 448 440 448Z" fill="#463C4B"/>
<path d="M488 160H472C469.878 160 467.843 159.157 466.343 157.657C464.843 156.156 464 154.121 464 152C464 149.878 464.843 147.843 466.343 146.343C467.843 144.843 469.878 144 472 144H488C490.122 144 492.157 144.843 493.657 146.343C495.157 147.843 496 149.878 496 152C496 154.121 495.157 156.156 493.657 157.657C492.157 159.157 490.122 160 488 160ZM456 136C454.418 136 452.871 135.53 451.556 134.651C450.241 133.772 449.215 132.523 448.61 131.061C448.004 129.6 447.846 127.991 448.154 126.44C448.463 124.888 449.224 123.463 450.343 122.344L466.343 106.344C467.086 105.601 467.968 105.011 468.938 104.609C469.909 104.207 470.949 104 472 104C473.051 104 474.091 104.207 475.062 104.609C476.032 105.011 476.914 105.601 477.657 106.344C479.157 107.844 480 109.879 480 112C480 114.122 479.157 116.156 477.657 117.657L461.657 133.657C460.915 134.401 460.033 134.991 459.062 135.393C458.092 135.795 457.051 136.001 456 136Z" fill="#64AFE1"/>
</g>
<defs>
<clipPath id="clip0_170_5691">
<rect width="512" height="512" fill="white"/>
</clipPath>
</defs>
</svg>
