<svg width="512" height="512" viewBox="0 0 512 512" fill="none" xmlns="http://www.w3.org/2000/svg">
<g clip-path="url(#clip0_170_5832)">
<g clip-path="url(#clip1_170_5832)">
<path d="M280.459 116.505C301.762 116.505 319.032 99.2348 319.032 77.9312C319.032 56.6275 301.762 39.3574 280.459 39.3574C259.155 39.3574 241.885 56.6275 241.885 77.9312C241.885 99.2348 259.155 116.505 280.459 116.505Z" fill="#FFB69E"/>
<path d="M308.45 512C296.07 512 286.034 501.964 286.034 489.584V311.064C286.034 298.684 296.07 288.648 308.45 288.648C320.829 288.648 330.866 298.684 330.866 311.064V489.584C330.867 501.964 320.83 512 308.45 512Z" fill="#414B82"/>
<path d="M254.699 512C242.32 512 232.283 501.964 232.283 489.584V311.064C232.283 298.684 242.32 288.648 254.699 288.648C267.078 288.648 277.115 298.684 277.115 311.064V489.584C277.116 501.964 267.079 512 254.699 512Z" fill="#5F6E9B"/>
<path d="M135.618 136.819L146.022 117.71C139.702 108.849 127.395 106.789 118.534 113.108C109.673 119.428 107.613 131.734 113.932 140.595L135.618 136.819Z" fill="#FFB69E"/>
<path d="M400.006 212.303L379.139 165.697C369.866 144.988 349.214 131.607 326.525 131.607H238.864C218.995 131.607 200.427 140.464 187.921 155.906L180.127 165.53L146.022 117.71L113.932 140.596L163.087 209.518C170.64 220.111 186.239 220.614 194.446 210.477L218.551 180.71C222.06 176.364 226.875 173.263 232.283 171.865V311.064H330.867V258.147L388.242 239.054C399.307 235.372 404.765 222.932 400.006 212.303ZM330.867 216.608V171.557C336.247 172.881 340.84 176.609 343.166 181.804L355.133 208.532L330.867 216.608ZM314.644 12.8291H246.273C241.307 12.8291 237.42 17.1085 237.898 22.0528L241.18 55.9842C241.373 57.9783 242.302 59.829 243.785 61.1758C245.268 62.5226 247.199 63.2688 249.203 63.2692H311.712C313.716 63.2695 315.648 62.5235 317.131 61.1766C318.614 59.8297 319.543 57.9785 319.735 55.9842L323.017 22.0528C323.497 17.1095 319.611 12.8291 314.644 12.8291Z" fill="#E64937"/>
<path d="M280.459 35.4931C275.07 35.4931 270.702 31.1247 270.702 25.7365V9.75667C270.702 4.3684 275.07 0 280.459 0C285.847 0 290.215 4.3684 290.215 9.75667V25.7365C290.215 27.0178 289.963 28.2866 289.473 29.4704C288.983 30.6541 288.264 31.7298 287.358 32.6358C286.452 33.5418 285.376 34.2605 284.192 34.7507C283.009 35.241 281.74 35.4933 280.459 35.4931ZM256.395 137.934H208.171C206.23 137.934 204.369 137.163 202.997 135.791C201.624 134.419 200.853 132.558 200.853 130.617C200.853 128.677 201.624 126.815 202.997 125.443C204.369 124.071 206.23 123.3 208.171 123.3H256.395C258.335 123.3 260.197 124.071 261.569 125.443C262.941 126.815 263.712 128.677 263.712 130.617C263.712 132.558 262.941 134.419 261.569 135.791C260.197 137.163 258.335 137.934 256.395 137.934ZM354.978 137.934H306.754C304.813 137.934 302.952 137.163 301.58 135.791C300.208 134.419 299.437 132.558 299.437 130.617C299.437 128.677 300.208 126.815 301.58 125.443C302.952 124.071 304.813 123.3 306.754 123.3H354.978C356.919 123.3 358.78 124.071 360.152 125.443C361.525 126.815 362.295 128.677 362.295 130.617C362.295 132.558 361.525 134.419 360.152 135.791C358.78 137.163 356.919 137.934 354.978 137.934ZM294.446 179.768H270.721C269.168 179.768 267.679 179.152 266.581 178.054C265.484 176.956 264.867 175.467 264.867 173.914C264.867 172.362 265.484 170.873 266.581 169.775C267.679 168.677 269.168 168.06 270.721 168.06H294.446C295.998 168.06 297.487 168.677 298.585 169.775C299.683 170.873 300.3 172.362 300.3 173.914C300.3 175.467 299.683 176.956 298.585 178.054C297.487 179.152 295.998 179.768 294.446 179.768ZM294.446 211.477H270.721C269.168 211.477 267.679 210.86 266.581 209.762C265.484 208.665 264.867 207.176 264.867 205.623C264.867 204.07 265.484 202.581 266.581 201.483C267.679 200.385 269.168 199.769 270.721 199.769H294.446C295.998 199.769 297.487 200.385 298.585 201.483C299.683 202.581 300.3 204.07 300.3 205.623C300.3 207.176 299.683 208.665 298.585 209.762C297.487 210.86 295.998 211.477 294.446 211.477ZM294.446 243.186H270.721C269.168 243.186 267.679 242.569 266.581 241.471C265.484 240.373 264.867 238.884 264.867 237.332C264.867 235.779 265.484 234.29 266.581 233.192C267.679 232.094 269.168 231.477 270.721 231.477H294.446C295.998 231.477 297.487 232.094 298.585 233.192C299.683 234.29 300.3 235.779 300.3 237.332C300.3 238.884 299.683 240.373 298.585 241.471C297.487 242.569 295.998 243.186 294.446 243.186ZM129.871 192.71C127.931 192.71 126.07 191.939 124.697 190.567C123.325 189.194 122.554 187.333 122.554 185.393V28.3151C122.554 26.3745 123.325 24.5134 124.697 23.1412C126.07 21.769 127.931 20.9981 129.871 20.9981C131.812 20.9981 133.673 21.769 135.045 23.1412C136.417 24.5134 137.188 26.3745 137.188 28.3151V185.393C137.188 187.333 136.417 189.194 135.045 190.567C133.673 191.939 131.812 192.71 129.871 192.71Z" fill="#FFDA52"/>
<path d="M129.87 38.6668C138.038 38.6668 144.659 32.0456 144.659 23.8778C144.659 15.7101 138.038 9.08887 129.87 9.08887C121.702 9.08887 115.081 15.7101 115.081 23.8778C115.081 32.0456 121.702 38.6668 129.87 38.6668Z" fill="#F2C41B"/>
</g>
</g>
<defs>
<clipPath id="clip0_170_5832">
<rect width="512" height="512" fill="white"/>
</clipPath>
<clipPath id="clip1_170_5832">
<rect width="512" height="512" fill="white"/>
</clipPath>
</defs>
</svg>
