<svg width="512" height="512" viewBox="0 0 512 512" fill="none" xmlns="http://www.w3.org/2000/svg">
<g clip-path="url(#clip0_170_5644)">
<g clip-path="url(#clip1_170_5644)">
<path d="M108.36 443.64L98.488 453.512C91.5423 460.458 85.7615 468.478 81.368 477.264C80.3782 479.237 79.9099 481.431 80.0075 483.636C80.1052 485.842 80.7656 487.985 81.9259 489.863C83.0863 491.741 84.7079 493.291 86.6365 494.365C88.5651 495.44 90.7365 496.002 92.944 496H103.992C108.238 496 112.309 494.314 115.311 491.311C118.313 488.309 120 484.238 120 479.992V472L132.448 463.704M377.336 414.664L384 448L426.536 469.264C428.531 470.259 430.13 471.899 431.076 473.918C432.022 475.936 432.257 478.215 431.745 480.384C431.233 482.554 430.003 484.486 428.254 485.869C426.505 487.251 424.341 488.002 422.112 488H356.944C354.736 488.002 352.565 487.44 350.636 486.365C348.708 485.291 347.086 483.741 345.926 481.863C344.766 479.985 344.105 477.842 344.008 475.636C343.91 473.431 344.378 471.237 345.368 469.264C349.729 460.54 352 450.921 352 441.168V440" fill="#D08D78"/>
<path d="M272 256L360 328L384 408L344 448L296 368L261 328L231.272 336L218.352 383.368C215.203 394.87 209.82 405.64 202.512 415.064L152 480L104 440L152 360V315.776C152 292.248 157.48 269.04 168 248L272 256Z" fill="#A5BADB"/>
<path d="M256 272L160.888 264.68C155.012 281.075 152.006 298.36 152 315.776V360L104 440L152 480L202.512 415.064C209.82 405.64 215.203 394.87 218.352 383.368L231.272 336L261 328L296 368L344 448L368 424L344 344L256 272Z" fill="#95AFD1"/>
<path d="M290.96 240.48C294.16 245.2 299.36 248 305.04 248C309.52 248 313.76 246.24 316.96 243.04L344 216L336 160L312 184L296.8 157.44C288.049 142.072 277.699 127.672 265.92 114.48L214.24 100.48L210.96 101.28C203.76 103.04 197.2 106.8 192 112C186.8 117.2 180.24 120.96 173.04 122.72C159.259 126.171 146.677 133.306 136.64 143.36C125.681 154.319 117.435 167.688 112.56 182.4L104 208L152 240L157.36 232H176L168 248C159.2 265.6 153.92 284.72 152.48 304.24L203.2 329.6C211.6 333.84 220.88 336 230.32 336H231.36C241.76 335.92 251.92 333.2 260.8 328.08C265.52 325.44 269.84 322.16 273.76 318.24L307.2 284.8L272 256L280 224L290.96 240.48Z" fill="#C1CFE8"/>
<path d="M312 184L296.8 157.44C288.049 142.072 277.699 127.672 265.92 114.48L214.24 100.48L210.96 101.28C203.76 103.04 197.2 106.8 192 112C186.8 117.2 180.24 120.96 173.04 122.72C164.837 124.828 157.034 128.26 149.936 132.88C163.482 183.428 195.498 227.055 239.656 255.136C250.424 255.648 261.2 256 272 256L280 224L290.96 240.48C294.16 245.2 299.36 248 305.04 248C309.52 248 313.76 246.24 316.96 243.04L344 216L336 160L312 184Z" fill="#D7E0EF"/>
<path d="M185.328 204.44L178.664 200H160C158.553 200 157.133 199.606 155.892 198.863C154.651 198.119 153.634 197.052 152.951 195.776C152.268 194.501 151.944 193.064 152.013 191.618C152.082 190.173 152.542 188.773 153.344 187.568L169.344 163.568L182.656 172.44L174.952 184H184C185.447 184.001 186.867 184.394 188.108 185.138C189.349 185.882 190.366 186.949 191.049 188.224C191.732 189.5 192.056 190.937 191.987 192.383C191.918 193.828 191.458 195.228 190.656 196.432L185.328 204.44Z" fill="#95AFD1"/>
<path d="M157.336 232H181.392C193.632 232 205.704 229.152 216.648 223.68C221.261 221.372 225.141 217.825 227.853 213.436C230.564 209.047 232 203.991 232 198.832C231.999 195.492 230.87 192.25 228.797 189.631C226.723 187.012 223.826 185.169 220.575 184.402C217.324 183.635 213.91 183.987 210.884 185.402C207.858 186.818 205.399 189.213 203.904 192.2L200 200H178.664M337 167L352 152L356.976 132.104C357.812 128.746 359.716 125.75 362.401 123.567C365.087 121.385 368.408 120.133 371.866 120C375.324 119.867 378.732 120.861 381.577 122.832C384.421 124.803 386.549 127.644 387.64 130.928L390.944 140.84C392.505 145.522 392.325 150.61 390.437 155.17C388.548 159.73 385.078 163.456 380.664 165.664L376 168L342.832 207.808" fill="#F2B9A1"/>
<path d="M232 189.928C232 215.144 222.96 239.584 206.544 258.736C192.208 275.467 182.683 295.776 178.984 317.496L193.944 324.976L194.672 320.576C197.843 301.565 206.148 283.781 218.688 269.144C237.598 247.082 247.995 218.985 248 189.928V144H232V189.928Z" fill="white"/>
<path d="M248 48L288 64L278.592 96.92C276.693 103.569 272.68 109.418 267.161 113.582C261.641 117.747 254.915 120 248 120V176L227.904 140.84C221.004 128.764 216.985 115.259 216.16 101.376L212.24 80.216L214.232 48H248Z" fill="#F2B9A1"/>
<path d="M248 48L240 64L235.312 59.312C233.728 57.7334 231.713 56.6591 229.52 56.2246C227.326 55.7902 225.053 56.015 222.988 56.8707C220.922 57.7264 219.156 59.1747 217.912 61.0329C216.669 62.8912 216.003 65.076 216 67.312V68.688C216 75.936 218.88 82.88 224 88L224.008 104L223.04 103.76C214.174 101.542 206.303 96.425 200.679 89.2209C195.055 82.0168 192 73.1395 192 64C192.002 51.2703 197.06 39.0625 206.061 30.0612C215.063 21.0599 227.27 16.0021 240 16H255.72C261.208 16 266.656 16.888 271.864 18.616C282.34 22.1122 293.668 22.1122 304.144 18.616L312 16V32.584C312 38.4181 310.375 44.137 307.308 49.0995C304.24 54.062 299.851 58.072 294.632 60.68L288 64L248 48Z" fill="#383838"/>
<path d="M312 32.584V28.6C303.91 29.8875 295.629 29.2098 287.856 26.624C282.653 24.8872 277.205 24.0012 271.72 24H256C249.696 23.9989 243.454 25.2398 237.63 27.6516C231.806 30.0635 226.514 33.5991 222.056 38.0565C217.599 42.514 214.063 47.8058 211.652 53.63C209.24 59.4541 207.999 65.6963 208 72C208 84.728 213.952 96.248 223.4 103.848L224.008 104L224 88C218.88 82.88 216 75.928 216 68.688V67.312C215.999 65.0743 216.663 62.8868 217.906 61.0261C219.148 59.1654 220.915 57.7152 222.983 56.8588C225.05 56.0024 227.325 55.7784 229.519 56.2151C231.714 56.6517 233.73 57.7295 235.312 59.312L240 64L248 48L288 64L294.632 60.68C299.851 58.072 304.24 54.062 307.308 49.0995C310.375 44.137 312 38.4181 312 32.584ZM281.776 264L272 256L274 248H272C240.504 248 208.752 245.744 177.616 241.288L171.832 240.344L168 248C166.768 250.472 165.768 253.032 164.672 255.552L166.872 255.92L175.352 257.128C207.232 261.688 239.752 264 272 264H281.776Z" fill="#4C4C4C"/>
<path d="M98.488 453.512C91.5423 460.458 85.7615 468.478 81.368 477.264C80.3782 479.237 79.9099 481.431 80.0075 483.636C80.1052 485.841 80.7656 487.985 81.9259 489.863C83.0863 491.741 84.7079 493.291 86.6365 494.365C88.5651 495.439 90.7365 496.002 92.944 496H103.992C108.238 496 112.309 494.313 115.311 491.311C118.313 488.309 120 484.237 120 479.992V472L125.504 468.336L102.688 449.32L98.488 453.512ZM426.536 469.264L384 448L379.216 424.096L350.872 452.432C349.84 458.275 347.984 463.942 345.36 469.264C344.37 471.238 343.902 473.432 344 475.638C344.098 477.844 344.759 479.988 345.92 481.866C347.081 483.745 348.704 485.294 350.634 486.368C352.563 487.442 354.736 488.003 356.944 488H422.112C424.341 488.002 426.505 487.251 428.254 485.868C430.003 484.486 431.233 482.553 431.745 480.384C432.257 478.215 432.022 475.936 431.076 473.917C430.13 471.899 428.531 470.259 426.536 469.264Z" fill="#F2B9A1"/>
</g>
</g>
<defs>
<clipPath id="clip0_170_5644">
<rect width="512" height="512" fill="white"/>
</clipPath>
<clipPath id="clip1_170_5644">
<rect width="512" height="512" fill="white"/>
</clipPath>
</defs>
</svg>
