<svg width="512" height="512" viewBox="0 0 512 512" fill="none" xmlns="http://www.w3.org/2000/svg">
<g clip-path="url(#clip0_170_5409)">
<path d="M189.681 96.0607C187.904 93.9675 181.737 93.5534 180.374 96.0607C176.7 102.837 181.255 120.546 185.69 123.49C187.158 124.469 191.405 124.718 192.723 123.49C196.766 119.726 194.56 101.806 189.681 96.0607Z" fill="#333333"/>
<path d="M177.295 154.052C177.054 154.052 176.817 153.995 176.603 153.885C176.39 153.775 176.205 153.615 176.066 153.419C175.927 153.222 175.836 152.996 175.802 152.758C175.769 152.519 175.793 152.276 175.872 152.049L187.625 118.31L183.258 108.266C183.179 108.084 183.137 107.889 183.133 107.691C183.129 107.493 183.165 107.297 183.237 107.112C183.309 106.928 183.417 106.76 183.555 106.618C183.692 106.475 183.856 106.361 184.038 106.282C184.219 106.203 184.414 106.16 184.612 106.157C184.81 106.153 185.007 106.188 185.191 106.261C185.375 106.333 185.543 106.441 185.686 106.578C185.828 106.716 185.942 106.88 186.022 107.061L190.622 117.647C190.773 117.993 190.789 118.383 190.667 118.739L178.718 153.036C178.616 153.332 178.424 153.589 178.169 153.772C177.914 153.954 177.609 154.052 177.295 154.052ZM420.013 377.826L400.836 406.024L406.679 409.992L425.848 381.794L447.782 407.899L453.21 403.321L431.413 377.45L462.464 363.807L459.633 357.339L429.086 370.734V337.205H422.008V371.035L389.978 360.17L387.704 366.894L420.013 377.826Z" fill="#333333"/>
<path d="M368.572 375.959C368.572 391.068 374.575 405.559 385.259 416.244C395.943 426.928 410.434 432.93 425.544 432.93C440.653 432.93 455.144 426.928 465.828 416.244C476.513 405.559 482.515 391.068 482.515 375.959C482.517 368.477 481.045 361.068 478.182 354.156C475.32 347.243 471.124 340.963 465.834 335.672C460.544 330.382 454.263 326.186 447.35 323.324C440.438 320.461 433.029 318.989 425.547 318.991C418.066 318.99 410.657 320.463 403.744 323.325C396.832 326.188 390.551 330.384 385.26 335.674C379.97 340.964 375.773 347.244 372.909 354.156C370.046 361.069 368.572 368.477 368.572 375.959ZM389.067 375.959C389.067 371.168 390.011 366.424 391.844 361.998C393.678 357.572 396.365 353.551 399.752 350.163C403.14 346.776 407.161 344.089 411.587 342.256C416.013 340.422 420.757 339.479 425.547 339.479C430.338 339.479 435.082 340.422 439.508 342.256C443.934 344.089 447.955 346.776 451.343 350.163C454.73 353.551 457.417 357.572 459.25 361.998C461.084 366.424 462.027 371.168 462.027 375.959C462.027 385.634 458.184 394.913 451.343 401.754C444.501 408.595 435.222 412.439 425.547 412.439C415.872 412.439 406.593 408.595 399.752 401.754C392.911 394.913 389.067 385.634 389.067 375.959Z" fill="#333333"/>
<path d="M387.802 375.959C387.814 365.952 391.795 356.358 398.871 349.282C405.947 342.206 415.54 338.226 425.547 338.214C435.554 338.226 445.148 342.206 452.224 349.282C459.3 356.358 463.28 365.952 463.292 375.959C463.282 385.967 459.303 395.563 452.226 402.64C445.15 409.718 435.555 413.699 425.547 413.711C415.539 413.699 405.944 409.718 398.868 402.64C391.792 395.563 387.812 385.967 387.802 375.959ZM390.325 375.959C390.335 385.297 394.049 394.251 400.652 400.854C407.255 407.457 416.209 411.171 425.547 411.181C444.973 411.181 460.77 395.385 460.77 375.959C460.77 356.533 444.966 340.744 425.547 340.744C416.21 340.754 407.258 344.467 400.655 351.069C394.052 357.67 390.337 366.622 390.325 375.959Z" fill="#A1A1A1"/>
<path d="M66.4993 377.826L47.3219 406.024L53.1572 409.992L72.3346 381.794L94.2678 407.899L99.6965 403.321L77.8913 377.45L108.943 363.806L106.112 357.339L75.5723 370.734V337.205H68.4946V371.035L36.457 360.17L34.1831 366.894L66.4993 377.826Z" fill="#333333"/>
<path d="M72.0338 388.879C79.1695 388.879 84.9542 383.094 84.9542 375.959C84.9542 368.823 79.1695 363.038 72.0338 363.038C64.898 363.038 59.1133 368.823 59.1133 375.959C59.1133 383.094 64.898 388.879 72.0338 388.879Z" fill="#C5C5C5"/>
<path d="M15.0586 375.959C15.0586 391.068 21.0609 405.559 31.7451 416.244C42.4293 426.928 56.9202 432.93 72.0299 432.93C87.1396 432.93 101.63 426.928 112.315 416.244C122.999 405.559 129.001 391.068 129.001 375.959C129.003 368.477 127.531 361.068 124.669 354.156C121.807 347.243 117.611 340.963 112.32 335.672C107.03 330.382 100.749 326.186 93.8365 323.324C86.924 320.461 79.5153 318.989 72.0337 318.991C64.5519 318.99 57.1433 320.463 50.2308 323.325C43.3183 326.188 37.0374 330.384 31.7467 335.674C26.4559 340.964 22.2591 347.244 19.3957 354.156C16.5324 361.069 15.0586 368.477 15.0586 375.959ZM35.5461 375.959C35.5461 366.283 39.3899 357.003 46.232 350.161C53.074 343.319 62.3538 339.475 72.0299 339.475C81.706 339.475 90.9858 343.319 97.8278 350.161C104.67 357.003 108.514 366.283 108.514 375.959C108.514 385.634 104.67 394.913 97.8289 401.754C90.9876 408.595 81.7088 412.439 72.0337 412.439C62.3586 412.439 53.0797 408.595 46.2384 401.754C39.3971 394.913 35.5461 385.634 35.5461 375.959Z" fill="#333333"/>
<path d="M26.1719 323.463C40.4025 322.725 62.3281 322.861 77.417 328.914C101.285 338.522 104.372 361.434 144.414 354.944C146.644 339.974 143.284 324.708 134.973 312.06C126.662 299.411 113.983 290.267 99.3582 286.373C84.7331 282.48 69.1863 284.109 55.6864 290.951C42.1866 297.792 31.6796 309.366 26.1719 323.463Z" fill="#9EDDFF"/>
<path d="M26.1719 323.463C40.4025 322.725 62.3281 322.861 77.417 328.914C101.285 338.522 104.372 361.434 144.414 354.944C146.644 339.974 143.284 324.708 134.973 312.06C126.662 299.411 113.983 290.267 99.3582 286.373C84.7331 282.48 69.1863 284.109 55.6864 290.951C42.1866 297.792 31.6796 309.366 26.1719 323.463Z" fill="#9EDDFF"/>
<path d="M102.174 314.947C115.132 336.474 134.211 357.895 155.934 379.294C163.687 386.852 174.094 391.069 184.922 391.04H292.239C303.232 391.04 313.773 386.62 321.475 378.789L359.07 340.562C388.834 341.752 415.638 320.579 441.667 293.805C442.699 292.713 443.527 291.448 444.19 290.063C447.397 283.339 445.831 275.282 440.824 269.771L418.289 244.864L302.652 261.082L282.39 286.193C270.208 287.48 258.944 287.811 254.772 280.003C254.772 280.003 261.647 296.854 264.606 311.966C266.398 321.234 266.722 329.856 263.085 333.492C257.046 339.478 186.511 341.398 176.783 334.449C161.619 323.584 154.014 263.409 154.014 263.409L175.819 195.267L148.186 177.573C137.721 181.154 128.103 186.845 119.928 194.295C111.753 201.745 105.195 210.794 100.66 220.882C98.4379 225.855 96.4134 230.914 94.5917 236.047C85.3682 262.174 87.9207 291.2 102.174 314.947Z" fill="#11AAE4"/>
<path d="M70.4372 379.399C70.8879 379.613 71.3765 379.734 71.8747 379.757C72.3728 379.779 72.8704 379.702 73.3386 379.531C73.8067 379.359 74.236 379.096 74.6014 378.757C74.9668 378.417 75.261 378.009 75.4669 377.555L93.3869 338.771C91.3796 337.143 89.3046 335.601 87.1676 334.147L68.5925 374.362C68.3822 374.813 68.2632 375.302 68.2421 375.799C68.2211 376.296 68.2985 376.793 68.4699 377.26C68.6413 377.727 68.9033 378.156 69.241 378.522C69.5786 378.888 69.9851 379.191 70.4372 379.399Z" fill="#A1A1A1"/>
<path d="M34.2886 375.959C34.3005 365.952 38.2811 356.358 45.357 349.282C52.433 342.206 62.0266 338.226 72.0335 338.214C82.0404 338.226 91.6341 342.206 98.71 349.282C105.786 356.358 109.767 365.952 109.778 375.959C109.768 385.967 105.789 395.563 98.7127 402.64C91.6365 409.718 82.0417 413.699 72.0335 413.711C62.0253 413.699 52.4305 409.718 45.3544 402.64C38.2782 395.563 34.2985 385.967 34.2886 375.959ZM36.8109 375.959C36.8209 385.297 40.535 394.251 47.1384 400.854C53.7417 407.457 62.695 411.171 72.0335 411.181C91.4594 411.181 107.249 395.385 107.249 375.959C107.249 356.533 91.4519 340.744 72.0335 340.744C62.6963 340.754 53.7442 344.467 47.141 351.069C40.5379 357.67 36.8229 366.622 36.8109 375.959Z" fill="#A1A1A1"/>
<path d="M181.18 368.76C193.333 368.61 215.085 367.548 237.191 365.929C256.06 364.544 275.162 362.744 288.783 360.749C299.113 359.258 306.289 357.662 307.832 356.081C313.766 349.884 314.119 344.711 311.544 342.106C308.947 339.531 294.52 316.182 294.52 316.182C294.52 316.182 279.838 316.71 264.606 311.966C266.398 321.235 266.722 329.848 263.085 333.493C257.047 339.478 186.511 341.398 176.783 334.449C161.619 323.584 154.014 263.401 154.014 263.401L175.819 195.26L174.614 194.485L165.082 188.386L148.179 177.581C148.179 177.581 155.633 189.53 151.19 195.817C146.748 202.104 112.278 261.383 110.818 278.415C109.319 295.439 150.806 369.114 181.18 368.76Z" fill="#444444"/>
<path d="M298.865 292.382L307.094 305.122H339.388C340.644 305.115 341.87 304.739 342.913 304.039C343.956 303.34 344.77 302.348 345.252 301.188C345.734 300.028 345.864 298.752 345.624 297.519C345.385 296.286 344.787 295.152 343.906 294.257C343.314 293.661 342.61 293.189 341.834 292.867C341.059 292.545 340.228 292.38 339.388 292.382H298.865Z" fill="#E4F5FF"/>
<path d="M254.772 280.004L254.803 280.057L256.007 281.849L256.083 281.924C260.992 287.737 271.322 287.36 282.39 286.193L302.652 261.083L418.289 244.864L419.855 246.603C422.309 243.667 424.199 240.768 425.012 238.14C428.25 227.554 416.421 221.817 404.397 219.52C392.35 217.224 286.607 225.536 272.835 227.833C259.094 230.129 255.661 242.161 248.207 258.779C240.753 275.403 254.772 280.004 254.772 280.004Z" fill="#444444"/>
<path d="M325.195 347.866L316.988 359.288H349.289L357.865 347.866H325.195ZM335.789 364.235H351.54L343.665 378.624H321.475L335.789 364.235Z" fill="#C5C5C5"/>
<path d="M351.54 364.236L387.35 356.631C389.135 356.255 390.979 356.255 392.771 356.631L441.999 367.172C443.325 367.457 444.484 368.255 445.221 369.393L450.176 377.021C451.441 378.978 451.23 381.538 449.664 383.255L444.107 389.369C443.627 389.897 443.043 390.319 442.391 390.609C441.738 390.898 441.033 391.047 440.32 391.048H382.607C381.199 391.048 379.798 390.822 378.465 390.37L343.665 378.624" fill="#444444"/>
<path d="M370.213 373.685C370.212 374.46 370.44 375.219 370.87 375.865C371.299 376.51 371.911 377.014 372.626 377.313C373.342 377.611 374.13 377.691 374.891 377.542C375.652 377.392 376.352 377.021 376.902 376.474C377.452 375.927 377.828 375.23 377.981 374.47C378.135 373.709 378.06 372.921 377.765 372.203C377.471 371.486 376.971 370.872 376.327 370.439C375.684 370.005 374.927 369.773 374.151 369.77C373.636 369.768 373.124 369.867 372.647 370.063C372.17 370.259 371.736 370.547 371.37 370.911C371.005 371.274 370.714 371.706 370.516 372.182C370.317 372.659 370.214 373.169 370.213 373.685ZM411.407 381.546C411.403 382.589 411.813 383.591 412.548 384.332C413.283 385.072 414.282 385.491 415.326 385.495C416.369 385.499 417.371 385.088 418.112 384.353C418.853 383.618 419.271 382.619 419.275 381.576C419.277 381.059 419.177 380.547 418.981 380.069C418.785 379.591 418.497 379.156 418.133 378.789C417.77 378.423 417.337 378.131 416.86 377.932C416.384 377.732 415.873 377.628 415.356 377.626C414.839 377.625 414.327 377.724 413.849 377.92C413.371 378.116 412.936 378.404 412.57 378.768C412.203 379.132 411.912 379.565 411.712 380.041C411.513 380.518 411.409 381.029 411.407 381.546Z" fill="#A1A1A1"/>
<path d="M428.371 306.838H445.854L471.123 332.408L479.254 332.13L484.962 339.478H496.941L462.027 298.744L477.613 296.222L471.627 286.9H445.327C445.048 287.962 444.664 289.024 444.19 290.063C443.552 291.435 442.698 292.696 441.66 293.797C437.351 298.266 432.919 302.614 428.371 306.838Z" fill="#333333"/>
<path d="M444.792 308.931C444.792 312.907 448.03 316.16 452.02 316.16C456.011 316.16 459.248 312.907 459.248 308.931C459.248 307.014 458.487 305.176 457.131 303.82C455.776 302.465 453.937 301.703 452.02 301.703C450.103 301.703 448.265 302.465 446.909 303.82C445.554 305.176 444.792 307.014 444.792 308.931Z" fill="#FFCC44"/>
<path d="M147.245 167.778L155.889 167.951H156.212L156.995 183.213L175.819 195.26L188.197 165.526C189.252 162.993 189.462 160.188 188.798 157.526C188.133 154.864 186.629 152.487 184.508 150.746L174.659 142.66L171.452 140.032C169.152 138.143 166.264 137.116 163.288 137.13C160.311 137.144 157.433 138.197 155.151 140.107L144.263 149.233C141.613 151.454 139.392 154.232 138.172 157.47C135.627 164.164 139.113 167.318 147.245 167.778Z" fill="#444444"/>
<path d="M167.988 161.612C167.988 166.31 171.806 170.15 176.527 170.15H186.616C184.414 170.057 182.332 169.117 180.806 167.526C179.281 165.935 178.429 163.816 178.429 161.612C178.429 159.407 179.281 157.288 180.806 155.697C182.332 154.106 184.414 153.166 186.616 153.073H176.527C171.806 153.073 167.988 156.891 167.988 161.612Z" fill="#333333"/>
<path d="M147.245 167.778L155.889 167.951C156.017 167.172 155.912 166.374 155.587 165.654C154.548 163.305 151.597 162.342 150.483 160.045C149.218 157.44 150.912 154.285 153.186 152.516C155.482 150.746 158.336 149.813 160.662 148.096C162.507 146.756 163.998 144.964 165.971 143.827C168.29 142.509 171.091 142.208 173.748 142.509C174.053 142.539 174.355 142.589 174.652 142.66L171.452 140.032C169.152 138.143 166.264 137.116 163.288 137.13C160.311 137.144 157.433 138.197 155.151 140.107L144.263 149.233C141.613 151.454 139.392 154.232 138.172 157.47C135.627 164.164 139.113 167.318 147.245 167.778Z" fill="#11AAE4"/>
<path d="M178.07 161.611C178.071 162.733 178.292 163.845 178.722 164.881C179.152 165.918 179.782 166.86 180.576 167.653C181.37 168.446 182.312 169.075 183.349 169.504C184.386 169.933 185.498 170.154 186.62 170.153C187.742 170.153 188.853 169.931 189.89 169.501C190.927 169.071 191.868 168.441 192.662 167.648C193.455 166.854 194.084 165.911 194.513 164.874C194.942 163.837 195.163 162.726 195.162 161.604C195.161 159.337 194.26 157.164 192.656 155.562C191.053 153.96 188.879 153.061 186.612 153.062C184.346 153.063 182.173 153.964 180.571 155.567C178.969 157.171 178.069 159.345 178.07 161.611Z" fill="#A1A1A1"/>
<path opacity="0.05" d="M134.942 310.604C141.154 322.447 149.699 332.891 158.163 343.244C163.516 349.764 169.08 356.435 176.534 360.35C188.355 366.54 202.526 364.665 215.868 364.717C222.915 364.74 230.068 365.35 237.191 365.93C256.06 364.544 275.162 362.745 288.783 360.749C294.693 357.587 299.746 352.716 300.807 346.248C301.922 339.479 298.157 332.582 292.645 328.516C287.111 324.45 280.147 322.854 273.295 322.402C276.02 329.676 271.676 338.139 265.238 342.483C258.763 346.828 250.729 348.017 243.004 348.778C221.199 350.946 198.505 350.72 178.296 342.28C158.087 333.847 140.777 315.776 138.405 294.001C136.96 280.915 140.905 267.776 146.484 255.85C152.049 243.9 159.247 232.787 164.909 220.913C171.232 207.605 175.604 193.455 177.89 178.899C173.319 178.312 168.749 177.755 164.171 177.175C160.933 179.471 166.347 185.337 165.082 188.394C164.917 188.828 164.616 189.198 164.224 189.448C162.402 190.72 159.955 188.898 158.946 186.925C158.057 185.156 157.831 182.957 155.783 182.784C158.388 198.972 153.939 213.15 146.138 227.404C138.277 241.724 128.572 255.752 126.577 271.97C124.935 285.237 128.73 298.76 134.942 310.604Z" fill="white"/>
<path opacity="0.2" d="M262.355 259.366C267.011 253.349 271.5 247.206 275.817 240.941C285.598 240.746 295.303 240.234 305.054 239.684C315.061 239.021 325.06 238.314 335.044 237.38C345.05 236.477 354.997 235.385 364.981 234.142C374.934 232.832 384.888 231.447 394.797 229.549C384.708 229.248 374.656 229.452 364.627 229.73C354.597 230.078 344.574 230.59 334.562 231.266C324.555 231.921 314.549 232.787 304.572 233.721C294.596 234.752 284.619 235.844 274.658 237.207L273.626 237.357L273.22 238.11C269.432 245.09 265.766 252.16 262.355 259.366ZM308.623 269.056C310.242 267.422 311.906 265.751 313.969 264.719C316.785 263.311 320.053 263.236 323.207 263.131C337.942 262.634 352.617 260.902 367.262 259.17L409.901 254.141C416.452 258.884 423.093 263.741 427.949 270.201C432.806 276.669 435.704 285.101 433.717 292.94C431.187 302.893 421.82 309.324 413.146 314.828C396.958 325.098 379.264 335.774 360.154 334.329C354.545 333.9 349.011 332.416 343.386 332.612C337.769 332.808 331.716 335.172 329.269 340.239L313.683 333.064C312.523 332.537 311.251 331.874 310.822 330.669C310.129 328.727 312.056 326.867 313.871 325.881C321.28 321.868 330.135 321.958 338.402 320.354C346.684 318.75 355.614 314.195 357.429 305.973C359.01 298.813 354.244 291.389 347.814 287.865C341.391 284.341 333.718 283.972 326.4 284.409C319.842 284.8 313.314 285.779 306.929 287.33C303.307 288.211 299.437 289.476 297.329 292.548C293.941 297.487 297.133 304.738 302.298 307.765C307.471 310.792 313.803 310.777 319.789 310.671C321.25 315.159 316.401 319.654 311.68 319.759C306.959 319.865 302.712 317.147 298.744 314.602C294.776 312.042 290.372 309.482 285.673 309.949C282.187 310.295 278.897 312.32 275.411 311.929C271.804 311.515 268.935 308.51 267.603 305.137C266.27 301.772 266.202 298.06 266.15 294.43C266.157 295.183 277.112 292.849 278.084 292.533C282.36 291.14 285.749 288.813 289.559 286.562C296.937 282.21 302.584 275.163 308.623 269.056ZM100.796 265.45C100.668 296.644 116.269 327.507 141.47 345.901C136.305 338.523 131.14 331.159 125.967 323.795C120.478 315.965 114.951 308.074 110.968 299.377C106.985 290.681 104.591 281.028 105.698 271.518C106.933 261.037 112.279 251.543 117.519 242.38C126.215 227.125 134.919 211.878 143.631 196.623C144.708 194.733 145.815 192.761 145.98 190.585C146.763 180.164 135.966 190.088 133.203 192.618C128.306 197.133 123.876 202.13 119.981 207.533C112.158 218.365 106.536 230.626 103.431 243.622C101.722 250.776 100.838 258.095 100.796 265.45ZM111.985 346.067C107.686 343.198 103.891 339.637 99.8098 336.467C81.1067 321.913 55.9961 315.919 32.7378 320.46C47.8192 306.56 64.8658 293.61 84.9166 289.295C86.6107 288.934 88.6136 288.716 89.8484 289.928C90.9326 290.997 90.9477 292.766 90.4658 294.212C89.9914 295.658 89.118 296.945 88.6437 298.383C87.4088 302.073 88.9449 306.184 91.3091 309.278C93.6658 312.365 96.7905 314.782 99.4107 317.666C106.15 325.098 109.274 335.413 116.578 342.287C117.79 343.417 126.381 349.613 124.981 350.984C122.963 352.957 113.709 347.219 111.985 346.067Z" fill="white"/>
<path d="M170.443 79.2997C168.365 77.9896 163.23 82.5374 162.01 84.9995C158.622 91.8513 157.997 110.283 162.191 116.119C163.78 118.332 169.344 121.472 171.558 119.974C179.192 114.778 177.965 84.0357 170.443 79.2997Z" fill="#333333"/>
<path d="M167.951 157.417C167.607 157.419 167.273 157.302 167.004 157.087C166.736 156.872 166.549 156.571 166.475 156.235L158.66 120.764C158.577 120.395 158.636 120.008 158.825 119.68L164.646 109.719C164.847 109.373 165.178 109.122 165.565 109.02C165.952 108.919 166.363 108.975 166.709 109.176C167.054 109.378 167.305 109.709 167.407 110.096C167.509 110.483 167.452 110.894 167.251 111.24L161.724 120.689L169.419 155.588C169.468 155.808 169.466 156.035 169.415 156.254C169.364 156.474 169.264 156.678 169.123 156.854C168.982 157.03 168.804 157.171 168.601 157.269C168.398 157.366 168.176 157.417 167.951 157.417Z" fill="#333333"/>
</g>
<defs>
<clipPath id="clip0_170_5409">
<rect width="512" height="512" fill="white"/>
</clipPath>
</defs>
</svg>
