<svg width="512" height="512" viewBox="0 0 512 512" fill="none" xmlns="http://www.w3.org/2000/svg">
<g clip-path="url(#clip0_170_5503)">
<path d="M307.885 169.314L299.663 174.893L299.542 174.968L257.52 202.082L238.991 232.726L236.152 237.425L189.936 194.379L134.972 176.158L126.765 169.223L98.8833 161.137L100.555 159.97L129.844 166.001C129.844 166.332 130.123 173.131 154.992 179.734C180.442 186.488 190.908 192.331 193.302 193.566C195.712 194.808 214.806 196.856 218.27 195.147C221.726 193.4 237.703 183.861 237.703 183.861L238.343 184.885L245.142 182.957L251.226 174.901L287.375 164.615L305.362 165.925L307.885 169.314Z" fill="#C5C5C5"/>
<path d="M194.537 269.176L201.916 260.02L203.926 261.646L196.547 270.802L194.537 269.176ZM223.789 232.831L231.168 223.668L233.186 225.294L225.807 234.45L223.789 232.831Z" fill="#A1A1A1"/>
<path d="M227.456 237.274L207.149 262.52C207.046 262.649 206.918 262.755 206.774 262.834C206.63 262.913 206.471 262.963 206.307 262.981C206.143 262.998 205.978 262.983 205.82 262.936C205.662 262.89 205.515 262.812 205.387 262.708L200.455 258.74C200.198 258.532 200.034 258.231 199.999 257.902C199.964 257.573 200.06 257.244 200.267 256.986L220.566 231.74C220.669 231.611 220.796 231.503 220.941 231.424C221.085 231.344 221.244 231.294 221.408 231.277C221.572 231.259 221.738 231.274 221.896 231.322C222.054 231.369 222.201 231.447 222.328 231.552L227.26 235.52C227.389 235.622 227.496 235.748 227.576 235.892C227.655 236.035 227.706 236.193 227.724 236.356C227.742 236.519 227.728 236.684 227.682 236.842C227.636 236.999 227.559 237.146 227.456 237.274Z" fill="#444444"/>
<path d="M123.235 316.635C124.552 298.123 110.613 282.048 92.1006 280.731C73.5886 279.414 57.5138 293.353 56.1966 311.865C54.8793 330.377 68.8185 346.452 87.3306 347.769C105.843 349.086 121.917 335.147 123.235 316.635Z" fill="#333333"/>
<path d="M105.487 336.918L212.118 283.775L215.476 290.514L108.845 343.657L105.487 336.918Z" fill="#333333"/>
<path d="M433.528 187.61C423.352 188.257 413.264 189.904 403.41 192.527C384.507 197.632 366.655 206.041 350.682 217.367C342.389 223.29 334.692 230.008 327.702 237.425C329.841 226.778 335.774 217.02 343.213 208.964C350.786 200.895 359.83 194.345 369.859 189.666C379.86 184.934 390.668 182.144 401.709 181.444C412.664 180.856 423.958 182.49 433.528 187.61Z" fill="#444444"/>
<path d="M336.158 152.192C335.508 152.192 334.871 152.016 334.313 151.682C333.756 151.348 333.301 150.868 332.996 150.294L322.673 130.853L293.911 136.922C293.451 137.018 292.977 137.023 292.515 136.936C292.053 136.849 291.613 136.672 291.22 136.416C290.827 136.159 290.488 135.827 290.223 135.439C289.958 135.051 289.772 134.615 289.675 134.155C289.579 133.695 289.574 133.221 289.661 132.759C289.748 132.297 289.925 131.857 290.182 131.464C290.439 131.071 290.77 130.732 291.158 130.467C291.546 130.202 291.983 130.016 292.442 129.92L323.825 123.294C324.586 123.133 325.378 123.225 326.081 123.555C326.785 123.886 327.362 124.436 327.725 125.123L339.313 146.936C339.603 147.481 339.747 148.092 339.73 148.71C339.714 149.327 339.538 149.93 339.22 150.459C338.901 150.988 338.451 151.426 337.913 151.73C337.375 152.033 336.776 152.192 336.158 152.192Z" fill="#4E4E4E"/>
<path d="M121.094 316.482C122.327 299.153 109.278 284.104 91.948 282.871C74.6181 281.638 59.5698 294.687 58.3367 312.017C57.1036 329.347 70.1527 344.395 87.4826 345.628C104.812 346.861 119.861 333.812 121.094 316.482Z" fill="#A1A1A1"/>
<path d="M453.648 316.627C454.881 299.297 441.832 284.249 424.502 283.016C407.172 281.783 392.124 294.832 390.891 312.162C389.658 329.491 402.707 344.54 420.037 345.773C437.367 347.006 452.415 333.957 453.648 316.627Z" fill="#A1A1A1"/>
<path d="M89.8257 239.255C48.5871 239.255 15.0586 272.783 15.0586 314.022C15.0586 355.245 48.5871 388.781 89.8257 388.781C131.057 388.781 164.585 355.245 164.585 314.014C164.585 272.783 131.057 239.247 89.8181 239.247L89.8257 239.255ZM89.8257 372.088C57.7955 372.088 31.7513 346.037 31.7513 314.014C31.7513 281.992 57.7955 255.947 89.8181 255.947C121.841 255.947 147.892 281.992 147.892 314.014C147.892 346.044 121.848 372.088 89.8181 372.088H89.8257Z" fill="#444444"/>
<path d="M89.8259 250.533C54.8141 250.533 26.3379 279.009 26.3379 314.014C26.3379 349.025 54.8141 377.502 89.8184 377.502C124.823 377.502 153.306 349.025 153.306 314.014C153.306 279.002 124.83 250.533 89.8184 250.533H89.8259ZM89.8259 372.088C57.7958 372.088 31.7515 346.036 31.7515 314.014C31.7515 281.991 57.7958 255.947 89.8184 255.947C121.841 255.947 147.893 281.991 147.893 314.014C147.893 346.044 121.848 372.088 89.8184 372.088H89.8259Z" fill="#C5C5C5"/>
<path d="M104.113 315.274C104.679 307.323 98.6914 300.418 90.7399 299.853C82.7884 299.287 75.8837 305.274 75.3179 313.226C74.7521 321.177 80.7395 328.082 88.691 328.647C96.6425 329.213 103.547 323.226 104.113 315.274Z" fill="#444444"/>
<path d="M422.174 239.255C380.943 239.255 347.415 272.783 347.415 314.022C347.415 355.245 380.943 388.781 422.182 388.781C463.413 388.781 496.941 355.245 496.941 314.014C496.941 272.783 463.413 239.255 422.174 239.255ZM422.174 372.088C390.152 372.088 364.107 346.037 364.107 314.014C364.107 281.992 390.151 255.947 422.182 255.947C454.212 255.947 480.248 281.992 480.248 314.014C480.248 346.044 454.197 372.088 422.174 372.088Z" fill="#444444"/>
<path d="M422.174 250.533C387.17 250.533 358.701 279.009 358.701 314.014C358.701 349.025 387.17 377.502 422.174 377.502C457.178 377.502 485.662 349.025 485.662 314.014C485.662 279.002 457.178 250.533 422.174 250.533ZM422.174 372.088C390.152 372.088 364.107 346.036 364.107 314.014C364.107 281.991 390.152 255.947 422.182 255.947C454.212 255.947 480.248 281.991 480.248 314.014C480.248 346.044 454.197 372.088 422.174 372.088Z" fill="#C5C5C5"/>
<path d="M436.667 315.419C437.233 307.467 431.246 300.563 423.294 299.997C415.343 299.431 408.438 305.419 407.872 313.37C407.306 321.322 413.294 328.226 421.245 328.792C429.197 329.358 436.101 323.371 436.667 315.419Z" fill="#444444"/>
<path d="M151.567 265.299V267.136L129.46 280.35L128.527 282.451L120.997 287.556C120.82 287.676 120.614 287.748 120.4 287.764C120.186 287.78 119.971 287.739 119.778 287.646L114.146 285.048C113.886 284.93 113.594 284.904 113.317 284.973L98.6953 288.625C98.5212 288.673 98.3593 288.757 98.2206 288.873C98.0819 288.988 97.9695 289.132 97.891 289.295C97.8126 289.458 97.7698 289.635 97.7657 289.816C97.7616 289.996 97.7961 290.176 97.8671 290.342L102.272 300.19C102.388 300.45 102.414 300.742 102.346 301.019C102.278 301.296 102.119 301.542 101.895 301.719L100.201 302.961C99.6042 303.392 98.8914 303.633 98.1555 303.653C97.4196 303.673 96.6947 303.471 96.0751 303.074L73.1103 288.075C72.9829 287.981 72.8317 287.923 72.6736 287.91L62.2831 285.688C61.5387 285.539 60.8611 285.156 60.348 284.597L56.5532 280.395C56.4021 280.226 56.3001 280.018 56.258 279.795C56.2159 279.572 56.2354 279.342 56.3143 279.129C56.3933 278.916 56.5287 278.729 56.7061 278.587C56.8835 278.445 57.0961 278.355 57.3212 278.325L151.567 265.299Z" fill="#D73149"/>
<path d="M81.0765 317.838C82.1306 319.804 84.3894 320.813 86.573 320.293L107.685 315.233L199.228 278.362L213.233 279.928L218.451 270.531L171.332 253.801L97.468 305.949L83.7569 310.859C83.0876 311.098 82.4779 311.479 81.9695 311.975C81.4611 312.472 81.0661 313.073 80.8116 313.737C80.557 314.4 80.4489 315.111 80.4946 315.82C80.5403 316.53 80.7388 317.213 81.0765 317.838Z" fill="#333333"/>
<path d="M174.358 254.87L171.332 253.801L159.172 262.384C158.839 261.792 158.498 261.205 158.148 260.623C155.64 256.421 152.47 252.227 149.203 247.913C145.935 243.568 142.599 239.066 139.806 234.224C137.02 229.406 131.531 217.027 143.812 231.024C147.23 234.925 151.921 237.492 156.31 240.511C160.723 243.599 165.27 246.716 169.758 250.556C171.309 251.896 172.86 253.327 174.358 254.87Z" fill="#FFCC44"/>
<path d="M242.447 179.493L237.779 183.807C237.726 183.83 237.703 183.853 237.703 183.853C237.703 183.853 221.726 193.392 218.262 195.132C214.806 196.856 195.704 194.8 193.295 193.558C190.908 192.323 180.442 186.48 155 179.726C130.123 173.123 129.837 166.324 129.837 165.993C129.837 165.993 132.412 161.129 141.402 163.056C150.37 164.969 199.04 171.79 206.486 172.054C213.948 172.287 228.713 170.766 233.984 169.328C239.224 167.928 244.374 172.287 242.447 179.493Z" fill="#333333"/>
<path d="M299.535 174.96L257.521 202.074L238.991 232.718L220.913 213.834L213.85 201.313L215.431 198.685L236.438 201.524L252.393 207.367L254.276 201.93L226.251 190.606L227.734 189.748L254.991 200.379L268.965 192.127L237.989 186.714L238.343 184.884L245.142 182.949L246.332 186.412L255.42 187.768L259.9 180.351L291.712 173.146L299.535 174.96Z" fill="#444444"/>
<path d="M307.877 169.306L328.433 151.74L333.259 156.25L340.803 175.872L310.776 216.041L301.741 273.032L278.919 302.426L258.74 315.076H233.17L211.523 283.701L213.24 279.921L218.45 270.524L236.145 237.417L257.521 202.074L299.535 174.961L307.877 169.306Z" fill="#FFCC44"/>
<path d="M415.48 317.206L344.606 182.527L357.27 175.871L428.145 310.542C428.582 311.374 428.852 312.283 428.938 313.219C429.024 314.155 428.925 315.098 428.646 315.996C428.367 316.893 427.915 317.727 427.314 318.449C426.713 319.172 425.976 319.769 425.144 320.206C424.313 320.644 423.403 320.913 422.467 320.999C421.532 321.085 420.588 320.986 419.691 320.707C418.794 320.429 417.96 319.976 417.237 319.375C416.515 318.774 415.918 318.037 415.48 317.206Z" fill="#C5C5C5"/>
<path d="M359.04 181.812L348.664 187.03C348.35 187.189 348.007 187.285 347.656 187.311C347.305 187.338 346.952 187.294 346.617 187.184C346.283 187.073 345.973 186.897 345.707 186.667C345.441 186.436 345.222 186.156 345.065 185.84L327.988 151.86C327.667 151.228 327.61 150.494 327.828 149.82C328.047 149.145 328.524 148.585 329.155 148.261L339.553 143.036C340.19 142.718 340.926 142.665 341.602 142.888C342.277 143.11 342.838 143.591 343.16 144.225L360.229 178.236C360.39 178.548 360.487 178.889 360.514 179.239C360.541 179.589 360.498 179.941 360.387 180.274C360.276 180.608 360.1 180.915 359.869 181.179C359.637 181.443 359.355 181.659 359.04 181.812Z" fill="#444444"/>
<path d="M259.591 274.356L278.144 289.257L262.467 307.027L245.481 315.068H237.643L238.426 313.652L244.826 312.38L244.954 307.938L238.817 305.852L233.17 289.385L242.868 278.279L259.591 274.356Z" fill="#333333"/>
<path d="M303.254 188.242L273.046 205.078L222.705 282.556L231.062 283.73L242.861 270.704L280.839 257.641L303.254 188.242Z" fill="#DEAD34"/>
<path d="M264.839 290.025C264.841 294.79 262.951 299.361 259.583 302.733C256.216 306.105 251.647 308.001 246.882 308.005C246.166 308.005 245.451 307.96 244.758 307.862L238.818 305.859L235.294 295.559L234.315 292.72C234.293 292.698 234.293 292.645 234.293 292.623L233.163 289.385L234.172 288.233L242.876 278.272L247.356 277.217L256.73 275.026C259.223 276.654 261.27 278.878 262.686 281.497C264.103 284.117 264.843 287.048 264.839 290.025Z" fill="#4E4E4E"/>
<path d="M259.712 290.025C259.71 292.936 258.72 295.759 256.903 298.033C255.086 300.306 252.55 301.895 249.712 302.538C246.873 303.182 243.9 302.842 241.281 301.573C238.661 300.305 236.55 298.185 235.294 295.559L234.315 292.721C234.292 292.698 234.292 292.646 234.292 292.623C234.127 291.795 233.17 289.385 233.17 289.385L242.876 278.272L247.356 277.218C254.23 277.459 259.712 283.106 259.712 290.025Z" fill="#C5C5C5"/>
<path d="M255.096 290.032C255.096 292.215 254.229 294.308 252.686 295.852C251.142 297.395 249.049 298.262 246.866 298.262C244.684 298.262 242.59 297.395 241.047 295.852C239.504 294.308 238.637 292.215 238.637 290.032C238.637 287.849 239.504 285.754 241.048 284.21C242.592 282.666 244.686 281.799 246.87 281.799C249.054 281.799 251.148 282.666 252.692 284.21C254.236 285.754 255.096 287.849 255.096 290.032Z" fill="#333333"/>
<path d="M422.181 317.763C424.252 317.763 425.931 316.084 425.931 314.013C425.931 311.942 424.252 310.264 422.181 310.264C420.11 310.264 418.432 311.942 418.432 314.013C418.432 316.084 420.11 317.763 422.181 317.763Z" fill="#333333"/>
<path d="M89.818 317.763C91.8889 317.763 93.5677 316.084 93.5677 314.013C93.5677 311.942 91.8889 310.264 89.818 310.264C87.7471 310.264 86.0684 311.942 86.0684 314.013C86.0684 316.084 87.7471 317.763 89.818 317.763Z" fill="#C5C5C5"/>
<path opacity="0.2" d="M332.724 167.364C330.955 163.983 326.994 161.43 323.358 162.567C322.078 162.966 320.971 163.772 319.894 164.555L287.126 188.378C276.931 195.787 266.676 203.256 258.048 212.435C249.615 221.417 242.898 231.86 236.589 242.439C230.602 252.479 224.932 262.704 219.587 273.099C218.827 274.597 218.044 276.209 218.262 277.873C218.481 279.537 220.19 281.095 221.763 280.508C232.561 261.323 243.403 242.078 256.579 224.436C270.132 206.291 287.51 189.131 309.684 184.5L292.148 250.458C290.718 255.819 288.926 261.692 284.197 264.576C281.886 265.991 279.153 266.488 276.487 266.955L247.65 272.06C253.033 276.728 261.376 273.242 268.386 274.5C271.244 275.061 273.882 276.425 275.993 278.432C278.104 280.439 279.6 283.005 280.305 285.831C280.921 288.679 280.713 291.643 279.704 294.377C278.696 297.111 276.93 299.501 274.612 301.267C274.763 302.509 276.721 301.794 277.496 300.815L295.341 278.528C296.892 276.585 298.473 274.582 299.203 272.203C300.084 269.342 299.625 266.262 299.354 263.281C297.923 247.635 301.861 231.808 308.743 217.69C312.479 210.154 316.897 202.976 321.942 196.246C324.45 192.858 327.077 189.56 329.788 186.338C331.746 184.011 334.735 181.654 334.938 178.424C335.156 175.006 334.29 170.368 332.724 167.356V167.364Z" fill="white"/>
<path opacity="0.1" d="M172.619 257.687C153.052 272.975 132.43 286.863 110.908 299.249C109.161 300.25 107.362 301.282 106.127 302.878C104.899 304.474 104.372 306.793 105.411 308.525C106.345 310.076 108.31 310.761 110.125 310.663C111.939 310.566 113.641 309.835 115.298 309.112L132.909 301.417C145.656 295.846 158.418 290.274 170.842 284.009C177.137 280.832 183.416 277.459 190.253 275.674C197.09 273.89 204.649 273.867 210.861 277.21L213.255 274.402C214.068 273.378 196.141 265.013 194.68 264.425C187.534 261.547 180.153 259.293 172.619 257.687Z" fill="white"/>
</g>
<defs>
<clipPath id="clip0_170_5503">
<rect width="512" height="512" fill="white"/>
</clipPath>
</defs>
</svg>
