<svg width="512" height="512" viewBox="0 0 512 512" fill="none" xmlns="http://www.w3.org/2000/svg">
<g clip-path="url(#clip0_170_7947)">
<path d="M94.4433 211.165V315.156C94.4433 317.093 92.852 318.616 90.9839 318.616C89.1158 318.616 87.5244 317.024 87.5244 315.156V211.165C87.5244 209.227 89.1158 207.705 90.9839 207.705C92.852 207.636 94.4433 209.227 94.4433 211.165Z" fill="#5CC1E6"/>
<path d="M90.9146 228.048C90.0151 228.048 89.1157 227.702 88.4238 227.01L74.24 212.826C72.8562 211.442 72.8562 209.228 74.24 207.914C75.6238 206.53 77.8378 206.53 79.1524 207.914L90.8454 219.606L102.608 207.775C103.991 206.391 106.205 206.391 107.52 207.775C108.904 209.159 108.904 211.373 107.52 212.688L93.267 226.941C92.7827 227.702 91.8832 228.048 90.9146 228.048Z" fill="#5CC1E6"/>
<path d="M90.9146 242.3C90.0151 242.3 89.1157 241.954 88.4238 241.262L74.24 227.078C72.8562 225.694 72.8562 223.48 74.24 222.166C75.6238 220.782 77.8378 220.782 79.1524 222.166L90.8454 233.859L102.608 222.096C103.991 220.713 106.205 220.713 107.52 222.096C108.904 223.48 108.904 225.625 107.52 227.009L93.267 241.262C92.7827 241.954 91.8832 242.3 90.9146 242.3ZM76.7308 319.446C75.8313 319.446 74.9319 319.1 74.24 318.408C72.8562 317.024 72.8562 314.879 74.24 313.495L88.493 299.242C88.8195 298.914 89.2077 298.654 89.6351 298.476C90.0626 298.299 90.5209 298.207 90.9838 298.207C91.4466 298.207 91.905 298.299 92.3324 298.476C92.7598 298.654 93.148 298.914 93.4746 299.242L107.658 313.426C109.042 314.81 109.042 317.024 107.658 318.339C106.275 319.722 104.061 319.722 102.746 318.339L91.053 306.646L79.2908 318.408C78.5297 319.1 77.6303 319.446 76.7308 319.446Z" fill="#5CC1E6"/>
<path d="M76.7309 305.193C75.8314 305.193 74.932 304.847 74.2401 304.155C72.8563 302.771 72.8563 300.627 74.2401 299.243L88.4931 284.99C88.8196 284.662 89.2078 284.402 89.6352 284.224C90.0627 284.046 90.521 283.955 90.9839 283.955C91.4467 283.955 91.9051 284.046 92.3325 284.224C92.7599 284.402 93.1481 284.662 93.4747 284.99L107.658 299.174C109.042 300.557 109.042 302.771 107.658 304.086C106.275 305.47 104.061 305.47 102.746 304.086L91.0531 292.393L79.2909 304.155C78.5298 304.847 77.6304 305.193 76.7309 305.193ZM47.6714 234.136L137.756 286.097C138.5 286.59 139.028 287.351 139.229 288.221C139.431 289.091 139.291 290.006 138.84 290.776C138.388 291.547 137.658 292.115 136.8 292.365C135.942 292.614 135.022 292.525 134.227 292.116L44.212 240.155C43.4148 239.686 42.8361 238.921 42.6027 238.026C42.3692 237.131 42.5001 236.18 42.9666 235.381C43.866 233.721 46.0109 233.167 47.6714 234.136Z" fill="#5CC1E6"/>
<path d="M60.5406 245.621C60.3127 246.02 60.0044 246.368 59.6352 246.642C59.266 246.916 58.8439 247.11 58.3958 247.212L39.0228 252.402C37.1547 252.886 35.2174 251.779 34.7331 249.911C34.2487 248.043 35.3558 246.105 37.2239 245.621L53.2066 241.331L48.8476 225.28C48.4325 223.481 49.5395 221.543 51.4076 221.059C53.2758 220.575 55.2131 221.682 55.6974 223.55L60.9558 242.992C61.1633 243.822 61.0249 244.791 60.5406 245.621Z" fill="#5CC1E6"/>
<path d="M72.9254 252.748C72.6975 253.147 72.3892 253.495 72.02 253.769C71.6508 254.043 71.2287 254.237 70.7805 254.339L51.4075 259.529C49.5394 260.013 47.6021 258.906 47.1178 257.038C46.6335 255.17 47.7405 253.232 49.6086 252.748L65.5913 248.458L61.3016 232.476C60.8173 230.608 61.9243 228.67 63.7924 228.186C65.6605 227.702 67.5286 228.809 68.0821 230.677L73.3405 250.119C73.4789 250.949 73.3405 251.918 72.9254 252.748ZM132.636 303.602C132.221 304.363 131.459 304.986 130.491 305.194C129.592 305.421 128.64 305.287 127.839 304.822C127.037 304.356 126.449 303.596 126.201 302.703L120.943 283.261C120.825 282.821 120.794 282.363 120.854 281.911C120.913 281.46 121.061 281.025 121.289 280.631C121.773 279.801 122.534 279.248 123.433 279.04L142.806 273.851C144.675 273.366 146.612 274.473 147.096 276.342C147.581 278.21 146.473 280.147 144.605 280.631L128.623 284.921L132.982 300.973C133.1 301.412 133.13 301.871 133.071 302.322C133.011 302.773 132.863 303.208 132.636 303.602Z" fill="#5CC1E6"/>
<path d="M120.251 296.475C119.836 297.236 119.075 297.859 118.106 298.067C117.207 298.294 116.255 298.161 115.454 297.695C114.652 297.23 114.064 296.469 113.816 295.576L108.558 276.134C108.44 275.694 108.41 275.236 108.469 274.785C108.528 274.334 108.676 273.899 108.904 273.505C109.388 272.674 110.149 272.121 111.049 271.913L130.422 266.724C132.29 266.24 134.227 267.347 134.711 269.215C135.196 271.083 134.089 273.02 132.221 273.505L116.238 277.794L120.597 293.846C120.874 294.746 120.735 295.714 120.251 296.475ZM44.2119 286.097L134.296 234.136C135.091 233.727 136.011 233.639 136.869 233.888C137.727 234.137 138.457 234.705 138.909 235.476C139.361 236.247 139.5 237.161 139.298 238.031C139.097 238.902 138.57 239.662 137.825 240.155L47.6714 292.186C46.0109 293.154 43.866 292.532 42.8974 290.94C42.6621 290.537 42.5094 290.091 42.4481 289.628C42.3869 289.165 42.4184 288.694 42.5407 288.243C42.663 287.793 42.8738 287.371 43.1607 287.002C43.4476 286.634 43.805 286.326 44.2119 286.097Z" fill="#5CC1E6"/>
<path d="M60.5406 280.7C61.0249 281.53 61.0941 282.429 60.8865 283.329L55.6973 302.702C55.213 304.57 53.2757 305.677 51.4076 305.193C49.5395 304.708 48.4325 302.771 48.9168 300.903L53.2065 284.92L37.0854 280.631C35.2173 280.146 34.1103 278.209 34.5946 276.341C35.0789 274.473 37.0162 273.366 38.8844 273.85L58.3265 279.039C59.3644 279.316 60.1254 279.869 60.5406 280.7Z" fill="#5CC1E6"/>
<path d="M72.9253 273.574C73.4097 274.404 73.4789 275.303 73.2713 276.203L68.0821 295.576C67.5978 297.444 65.6605 298.551 63.7924 298.067C61.9243 297.582 60.8172 295.645 61.3016 293.777L65.5913 277.794L49.4702 273.505C47.6021 273.02 46.4951 271.083 46.9794 269.215C47.4637 267.347 49.401 266.24 51.2691 266.724L70.7113 271.913C71.6799 272.19 72.441 272.743 72.9253 273.574ZM146.819 247.282C147.155 247.882 147.308 248.568 147.257 249.255C147.207 249.941 146.957 250.598 146.537 251.143C146.117 251.688 145.546 252.098 144.895 252.322C144.244 252.546 143.542 252.573 142.876 252.402L123.433 247.213C122.539 246.98 121.77 246.41 121.289 245.621C120.833 244.824 120.709 243.88 120.943 242.992L126.132 223.619C126.616 221.751 128.553 220.644 130.422 221.128C132.29 221.613 133.397 223.55 132.912 225.418L128.623 241.401L144.744 245.69C145.643 245.898 146.404 246.521 146.819 247.282Z" fill="#5CC1E6"/>
<path d="M134.504 254.408C134.84 255.008 134.992 255.694 134.942 256.381C134.892 257.067 134.641 257.724 134.221 258.269C133.801 258.814 133.23 259.224 132.579 259.448C131.929 259.672 131.226 259.699 130.56 259.528L111.118 254.339C110.224 254.106 109.455 253.536 108.973 252.747C108.517 251.95 108.393 251.006 108.627 250.118L113.816 230.745C114.301 228.877 116.238 227.77 118.106 228.254C119.974 228.739 121.081 230.676 120.597 232.544L116.307 248.527L132.428 252.816C133.328 253.024 134.019 253.647 134.504 254.408Z" fill="#5CC1E6"/>
<path d="M90.9147 277.31C98.7482 277.31 105.099 270.96 105.099 263.126C105.099 255.293 98.7482 248.942 90.9147 248.942C83.0813 248.942 76.731 255.293 76.731 263.126C76.731 270.96 83.0813 277.31 90.9147 277.31Z" fill="#5CC1E6"/>
<path d="M213.864 58.1186V162.11C213.864 164.047 212.272 165.569 210.404 165.569C208.536 165.569 206.945 163.978 206.945 162.11V58.1186C206.945 56.1813 208.536 54.6592 210.404 54.6592C212.342 54.6592 213.864 56.1813 213.864 58.1186Z" fill="#5CC1E6"/>
<path d="M210.404 75.0007C209.505 75.0007 208.605 74.6548 207.914 73.9629L193.73 59.7791C192.346 58.3953 192.346 56.1812 193.73 54.8666C195.114 53.4829 197.328 53.4829 198.642 54.8666L210.335 66.5596L222.097 54.7283C223.481 53.3445 225.695 53.3445 227.01 54.7283C228.394 56.1121 228.394 58.3261 227.01 59.6407L212.757 73.8937C212.203 74.6548 211.304 75.0007 210.404 75.0007Z" fill="#5CC1E6"/>
<path d="M210.404 89.2539C209.505 89.2539 208.605 88.908 207.914 88.2161L193.73 74.1015C192.346 72.7177 192.346 70.5037 193.73 69.1891C195.114 67.8053 197.328 67.8053 198.642 69.1891L210.335 80.882L222.097 69.1199C223.481 67.7361 225.695 67.7361 227.01 69.1199C228.394 70.5037 228.394 72.6485 227.01 74.0323L212.757 88.2853C212.452 88.5998 212.086 88.8482 211.682 89.0149C211.277 89.1815 210.842 89.2629 210.404 89.2539ZM196.221 166.469C195.321 166.469 194.422 166.123 193.73 165.431C192.346 164.047 192.346 161.903 193.73 160.519L207.983 146.266C208.309 145.938 208.697 145.678 209.125 145.5C209.552 145.322 210.011 145.231 210.474 145.231C210.936 145.231 211.395 145.322 211.822 145.5C212.25 145.678 212.638 145.938 212.964 146.266L227.148 160.45C228.532 161.833 228.532 164.047 227.148 165.362C225.764 166.746 223.55 166.746 222.236 165.362L210.543 153.669L198.781 165.431C197.95 166.123 197.051 166.469 196.221 166.469Z" fill="#5CC1E6"/>
<path d="M196.221 152.216C195.321 152.216 194.422 151.87 193.73 151.178C192.346 149.794 192.346 147.649 193.73 146.265L207.983 132.012C208.309 131.684 208.698 131.424 209.125 131.246C209.552 131.069 210.011 130.977 210.474 130.977C210.936 130.977 211.395 131.069 211.822 131.246C212.25 131.424 212.638 131.684 212.964 132.012L227.148 146.196C228.532 147.58 228.532 149.794 227.148 151.109C225.764 152.423 223.55 152.492 222.236 151.109L210.543 139.416L198.781 151.178C197.95 151.87 197.051 152.216 196.221 152.216ZM167.092 81.0891L257.176 133.05C257.921 133.544 258.448 134.304 258.65 135.174C258.851 136.044 258.712 136.959 258.26 137.729C257.808 138.5 257.079 139.069 256.221 139.318C255.363 139.567 254.442 139.478 253.648 139.07L163.563 87.1085C162.819 86.615 162.291 85.8549 162.09 84.9846C161.888 84.1143 162.028 83.1999 162.48 82.4292C162.931 81.6585 163.661 81.0902 164.519 80.8409C165.377 80.5917 166.298 80.6805 167.092 81.0891Z" fill="#5CC1E6"/>
<path d="M180.03 92.5751C179.802 92.9744 179.494 93.322 179.125 93.5959C178.756 93.8698 178.334 94.0641 177.885 94.1664L158.513 99.3556C156.644 99.84 154.707 98.7329 154.223 96.8648C153.738 94.9967 154.845 93.0594 156.714 92.5751L172.696 88.2854L168.337 72.2335C167.853 70.3654 168.96 68.4973 170.828 67.9437C172.696 67.4594 174.634 68.5665 175.118 70.4346L180.376 89.9459C180.584 90.8454 180.445 91.814 180.03 92.5751Z" fill="#5CC1E6"/>
<path d="M192.346 99.7011C192.118 100.1 191.81 100.448 191.441 100.722C191.071 100.996 190.649 101.19 190.201 101.292L170.828 106.482C168.96 106.966 167.023 105.859 166.538 103.991C166.054 102.123 167.161 100.185 169.029 99.7011L185.012 95.4113L180.653 79.3595C180.169 77.4913 181.276 75.554 183.144 75.0697C185.012 74.5854 186.88 75.6924 187.434 77.5605L192.692 97.0027C192.969 97.9713 192.83 98.94 192.346 99.7011ZM252.056 150.624C251.641 151.385 250.88 152.008 249.911 152.216C249.013 152.443 248.061 152.309 247.259 151.844C246.458 151.379 245.87 150.618 245.622 149.725L240.363 130.283C240.245 129.843 240.215 129.385 240.274 128.934C240.334 128.482 240.482 128.047 240.709 127.654C241.194 126.823 241.955 126.27 242.854 126.062L262.227 120.873C264.095 120.389 266.033 121.496 266.517 123.364C267.001 125.232 265.894 127.169 264.026 127.654L248.043 131.943L252.402 147.995C252.679 148.895 252.541 149.794 252.056 150.624Z" fill="#5CC1E6"/>
<path d="M239.74 143.429C239.325 144.19 238.564 144.812 237.596 145.02C236.697 145.247 235.745 145.114 234.943 144.648C234.142 144.183 233.554 143.422 233.306 142.529L228.047 123.087C227.929 122.648 227.899 122.189 227.959 121.738C228.018 121.287 228.166 120.852 228.393 120.458C228.878 119.628 229.639 119.074 230.538 118.867L249.911 113.677C251.779 113.193 253.717 114.3 254.201 116.168C254.685 118.036 253.578 119.974 251.71 120.458L235.727 124.748L240.086 140.799C240.294 141.768 240.156 142.668 239.74 143.429ZM163.632 133.119L253.717 81.1584C254.511 80.7498 255.432 80.661 256.29 80.9102C257.148 81.1595 257.877 81.7278 258.329 82.4985C258.781 83.2692 258.92 84.1837 258.719 85.054C258.517 85.9243 257.99 86.6843 257.245 87.1779L167.161 139.139C165.5 140.108 163.356 139.485 162.387 137.894C162.154 137.499 162.002 137.062 161.938 136.607C161.875 136.153 161.902 135.691 162.017 135.248C162.133 134.804 162.335 134.388 162.613 134.022C162.89 133.657 163.236 133.35 163.632 133.119Z" fill="#5CC1E6"/>
<path d="M180.03 127.654C180.515 128.484 180.584 129.384 180.376 130.283L175.187 149.656C174.703 151.524 172.765 152.631 170.897 152.147C169.029 151.662 167.922 149.725 168.407 147.857L172.696 131.874L156.575 127.585C154.707 127.1 153.6 125.163 154.084 123.295C154.569 121.427 156.506 120.32 158.374 120.804L177.816 125.993C178.785 126.27 179.546 126.893 180.03 127.654Z" fill="#5CC1E6"/>
<path d="M192.346 120.527C192.83 121.357 192.9 122.257 192.692 123.156L187.503 142.529C187.018 144.397 185.081 145.504 183.213 145.02C181.345 144.535 180.238 142.598 180.722 140.73L185.012 124.747L168.891 120.458C167.023 119.973 165.916 118.036 166.4 116.168C166.884 114.3 168.822 113.193 170.69 113.677L190.132 118.866C191.17 119.143 191.931 119.766 192.346 120.527ZM266.309 94.235C266.645 94.8355 266.798 95.5216 266.747 96.2079C266.697 96.8943 266.446 97.5508 266.026 98.096C265.606 98.6412 265.036 99.0512 264.385 99.275C263.734 99.4988 263.032 99.5266 262.365 99.355L242.923 94.1658C242.029 93.9334 241.26 93.3629 240.778 92.5744C240.323 91.7773 240.199 90.8331 240.432 89.9452L245.622 70.5722C246.106 68.7041 248.043 67.5971 249.911 68.0814C251.78 68.5658 252.887 70.5031 252.402 72.3712L248.112 88.3539L264.234 92.6436C265.133 92.8512 265.825 93.4739 266.309 94.235Z" fill="#5CC1E6"/>
<path d="M253.924 101.362C254.26 101.962 254.413 102.649 254.363 103.335C254.312 104.021 254.062 104.678 253.642 105.223C253.222 105.768 252.651 106.178 252 106.402C251.349 106.626 250.647 106.654 249.981 106.482L230.538 101.293C229.644 101.06 228.875 100.49 228.394 99.7014C227.938 98.9042 227.814 97.96 228.048 97.0722L233.237 77.6992C233.721 75.8311 235.658 74.7241 237.527 75.2084C239.395 75.6927 240.502 77.63 240.017 79.4981L235.728 95.4808L251.849 99.7706C252.748 99.9781 253.509 100.601 253.924 101.362Z" fill="#5CC1E6"/>
<path d="M210.404 124.332C218.238 124.332 224.588 117.982 224.588 110.149C224.588 102.315 218.238 95.9648 210.404 95.9648C202.571 95.9648 196.221 102.315 196.221 110.149C196.221 117.982 202.571 124.332 210.404 124.332Z" fill="#5CC1E6"/>
<path d="M430.772 123.294V215.039C430.772 216.769 429.388 218.084 427.728 218.084C426.067 218.084 424.683 216.7 424.683 215.039V123.294C424.683 121.565 426.067 120.25 427.728 120.25C429.388 120.25 430.772 121.634 430.772 123.294Z" fill="#5CC1E6"/>
<path d="M427.658 138.24C426.828 138.24 426.067 137.894 425.514 137.341L412.99 124.817C411.814 123.641 411.814 121.635 412.99 120.458C414.167 119.282 416.173 119.282 417.349 120.458L427.728 130.837L438.106 120.458C439.282 119.282 441.289 119.282 442.465 120.458C443.641 121.635 443.641 123.641 442.465 124.817L429.942 137.41C429.285 137.916 428.487 138.206 427.658 138.24Z" fill="#5CC1E6"/>
<path d="M427.658 150.832C426.828 150.832 426.067 150.486 425.514 149.932L412.99 137.409C411.814 136.233 411.814 134.226 412.99 133.05C414.167 131.874 416.173 131.874 417.349 133.05L427.728 143.429L438.106 133.05C439.282 131.874 441.289 131.874 442.465 133.05C443.641 134.226 443.641 136.164 442.465 137.409L429.942 150.001C429.285 150.508 428.487 150.798 427.658 150.832ZM415.135 218.914C414.374 218.914 413.544 218.637 412.99 218.014C412.425 217.43 412.109 216.648 412.109 215.835C412.109 215.022 412.425 214.24 412.99 213.656L425.514 201.063C426.067 200.51 426.897 200.164 427.658 200.164C428.489 200.164 429.25 200.51 429.803 201.063L442.327 213.586C443.503 214.763 443.503 216.769 442.327 217.945C441.15 219.121 439.144 219.121 437.968 217.945L427.589 207.567L417.211 217.945C416.968 218.261 416.652 218.514 416.291 218.682C415.93 218.851 415.533 218.93 415.135 218.914Z" fill="#5CC1E6"/>
<path d="M415.135 206.322C414.374 206.322 413.544 206.045 412.99 205.422C412.425 204.838 412.108 204.056 412.108 203.243C412.108 202.429 412.425 201.648 412.99 201.063L425.513 188.471C426.067 187.917 426.897 187.571 427.658 187.571C428.489 187.571 429.25 187.917 429.803 188.471L442.326 200.994C443.503 202.17 443.503 204.177 442.326 205.353C441.15 206.529 439.144 206.529 437.967 205.353L427.589 194.975L417.211 205.353C416.967 205.669 416.652 205.922 416.291 206.09C415.93 206.259 415.533 206.338 415.135 206.322ZM389.466 143.567L468.964 189.439C470.417 190.27 470.971 192.138 470.071 193.66C469.871 194.014 469.601 194.324 469.279 194.572C468.957 194.82 468.588 195.001 468.195 195.104C467.801 195.208 467.391 195.231 466.989 195.173C466.586 195.115 466.199 194.977 465.851 194.767L386.352 148.895C385.654 148.474 385.148 147.798 384.941 147.009C384.734 146.221 384.844 145.383 385.245 144.674C386.145 143.221 388.013 142.737 389.466 143.567Z" fill="#5CC1E6"/>
<path d="M400.882 153.738C400.464 154.439 399.797 154.958 399.014 155.191L381.924 159.757C381.145 159.963 380.315 159.853 379.616 159.452C378.917 159.05 378.404 158.389 378.188 157.612C377.773 155.952 378.742 154.291 380.333 153.876L394.378 150.001L390.573 135.818C390.158 134.157 391.127 132.496 392.718 132.012C394.378 131.597 396.039 132.566 396.523 134.157L401.159 151.316C401.367 152.146 401.228 153.046 400.882 153.738Z" fill="#5CC1E6"/>
<path d="M411.745 160.034C411.327 160.736 410.66 161.254 409.877 161.487L392.787 166.053C392.007 166.259 391.178 166.149 390.478 165.748C389.779 165.346 389.266 164.685 389.051 163.908C388.636 162.248 389.604 160.587 391.196 160.172L405.31 156.367L401.505 142.183C401.09 140.522 402.058 138.862 403.65 138.447C405.31 138.032 406.971 139 407.455 140.592L412.091 157.751C412.298 158.442 412.16 159.342 411.745 160.034ZM464.467 204.938C464.268 205.292 464.001 205.603 463.68 205.853C463.359 206.103 462.991 206.285 462.599 206.391C461.81 206.589 460.976 206.478 460.268 206.079C459.559 205.679 459.031 205.023 458.793 204.246L454.158 187.087C453.97 186.294 454.068 185.461 454.435 184.734C454.85 184.042 455.542 183.489 456.303 183.281L473.392 178.715C475.053 178.3 476.713 179.268 477.129 180.86C477.544 182.52 476.575 184.181 474.984 184.596L460.869 188.401L464.675 202.585C465.02 203.415 464.882 204.246 464.467 204.938Z" fill="#5CC1E6"/>
<path d="M453.535 198.642C453.336 198.996 453.069 199.308 452.748 199.557C452.427 199.807 452.06 199.989 451.667 200.095C450.879 200.294 450.044 200.182 449.336 199.783C448.627 199.383 448.1 198.727 447.862 197.95L443.226 180.791C443.038 179.999 443.136 179.166 443.503 178.438C443.918 177.746 444.61 177.193 445.371 176.985L462.46 172.419C464.121 172.004 465.782 172.972 466.197 174.564C466.612 176.224 465.643 177.885 464.052 178.3L449.937 182.105L453.743 196.289C454.089 197.119 453.95 197.95 453.535 198.642ZM386.422 189.439L465.92 143.567C467.373 142.737 469.241 143.221 470.14 144.674C470.971 146.127 470.486 147.995 469.033 148.895L389.535 194.767C388.082 195.597 386.145 195.113 385.315 193.66C385.102 193.312 384.961 192.925 384.902 192.522C384.842 192.119 384.865 191.708 384.968 191.314C385.072 190.92 385.254 190.55 385.503 190.228C385.753 189.906 386.065 189.638 386.422 189.439Z" fill="#5CC1E6"/>
<path d="M400.882 184.665C401.297 185.357 401.367 186.187 401.159 187.018L396.592 204.107C396.177 205.768 394.448 206.736 392.856 206.252C391.265 205.768 390.227 204.107 390.711 202.516L394.517 188.401L380.333 184.596C379.546 184.391 378.872 183.883 378.457 183.183C378.043 182.484 377.921 181.649 378.119 180.86C378.534 179.199 380.264 178.231 381.924 178.646L399.083 183.212C399.775 183.489 400.467 183.973 400.882 184.665Z" fill="#5CC1E6"/>
<path d="M411.745 178.37C412.16 179.061 412.229 179.892 412.022 180.722L407.455 197.812C407.04 199.472 405.31 200.441 403.719 199.957C403.329 199.859 402.962 199.684 402.641 199.441C402.32 199.199 402.052 198.894 401.851 198.545C401.651 198.196 401.523 197.81 401.476 197.411C401.428 197.012 401.462 196.607 401.574 196.22L405.379 182.106L391.196 178.3C390.805 178.203 390.439 178.028 390.118 177.785C389.797 177.542 389.528 177.238 389.328 176.889C389.128 176.54 389 176.154 388.952 175.755C388.905 175.355 388.938 174.95 389.051 174.564C389.466 172.904 391.196 171.935 392.787 172.35L409.946 176.917C410.707 177.193 411.33 177.678 411.745 178.37ZM476.99 155.191C477.405 155.883 477.544 156.713 477.267 157.544C476.852 159.204 475.122 160.173 473.531 159.758L456.372 155.191C455.979 155.085 455.612 154.902 455.291 154.652C454.97 154.403 454.702 154.092 454.503 153.738C454.303 153.383 454.176 152.993 454.129 152.589C454.081 152.186 454.115 151.777 454.227 151.386L458.794 134.296C459.209 132.636 460.938 131.667 462.53 132.151C464.19 132.566 465.159 134.296 464.675 135.887L460.869 150.002L475.053 153.807C475.952 154.015 476.575 154.499 476.99 155.191Z" fill="#5CC1E6"/>
<path d="M466.128 161.487C466.543 162.179 466.681 163.009 466.404 163.84C465.989 165.5 464.26 166.469 462.668 166.054L445.509 161.487C445.117 161.381 444.75 161.198 444.429 160.948C444.108 160.699 443.84 160.388 443.64 160.034C443.44 159.679 443.313 159.289 443.266 158.885C443.219 158.482 443.252 158.072 443.364 157.682L447.931 140.592C448.346 138.931 450.076 137.963 451.667 138.447C453.328 138.862 454.296 140.592 453.812 142.183L450.007 156.298L464.19 160.103C465.021 160.311 465.713 160.795 466.128 161.487Z" fill="#5CC1E6"/>
<path d="M427.659 181.69C434.575 181.69 440.182 176.083 440.182 169.167C440.182 162.25 434.575 156.644 427.659 156.644C420.742 156.644 415.135 162.25 415.135 169.167C415.135 176.083 420.742 181.69 427.659 181.69Z" fill="#5CC1E6"/>
<path d="M432.017 236.557V418.11H161.557V236.557L296.822 110.148L432.017 236.557Z" fill="#FF9F3F"/>
<path d="M364.973 255.308V358.607C364.973 366.218 358.746 372.445 351.135 372.445H242.439C234.828 372.445 228.601 366.218 228.601 358.607V255.308C228.601 247.697 234.828 241.47 242.439 241.47H351.135C354.805 241.47 358.325 242.928 360.92 245.523C363.515 248.118 364.973 251.638 364.973 255.308Z" fill="#343434"/>
<path opacity="0.07" d="M364.558 251.917C363.451 251.571 362.275 251.433 361.098 251.433H348.229C325.328 251.433 306.716 270.045 306.716 292.946V306.923H296.752V241.47H351.135C357.639 241.47 363.036 245.898 364.558 251.917ZM364.973 306.923V316.886H348.229C325.328 316.886 306.716 335.498 306.716 358.399V372.376H296.752V306.923H364.973ZM280.078 316.886C257.176 316.886 238.564 335.498 238.564 358.399V368.501C238.564 369.677 238.703 370.853 239.049 371.961C233.029 370.508 228.601 365.042 228.601 358.538V306.923H296.752V316.886H280.078Z" fill="black"/>
<path d="M351.135 377.634H242.439C231.922 377.634 223.412 369.124 223.412 358.607V255.307C223.412 244.791 231.922 236.28 242.439 236.28H351.135C361.652 236.28 370.162 244.791 370.162 255.307V358.607C370.162 369.054 361.652 377.634 351.135 377.634ZM242.439 246.659C237.665 246.659 233.79 250.533 233.79 255.307V358.607C233.79 363.381 237.665 367.255 242.439 367.255H351.135C355.909 367.255 359.784 363.381 359.784 358.607V255.307C359.784 250.533 355.909 246.659 351.135 246.659H242.439Z" fill="#F15A24"/>
<path d="M291.633 241.47H302.011V372.445H291.633V241.47Z" fill="#F15A24"/>
<path d="M228.601 301.733H364.973V312.112H228.601V301.733Z" fill="#F15A24"/>
<path opacity="0.07" d="M432.017 236.558V274.197L296.753 147.719L161.557 274.197V236.558L296.753 110.08L432.017 236.558Z" fill="black"/>
<path opacity="0.1" d="M406.625 262.711C404.895 267.278 400.052 269.7 396.177 272.744C385.591 281.116 382.132 297.375 388.428 309.345C390.781 313.842 394.309 317.717 396.592 322.214C398.876 326.781 399.775 332.593 396.869 336.744C392.995 342.21 384.415 342.417 380.333 347.745C374.867 354.941 381.025 364.904 382.339 373.829C384.069 385.661 376.389 397.284 366.426 403.927C356.394 410.569 344.424 413.267 332.8 416.242C330.448 416.796 328.095 417.418 325.812 418.11H161.557V260.221L161.142 260.636C158.374 263.265 153.946 263.127 151.386 260.29L137.202 245.137C136.579 244.479 136.091 243.705 135.767 242.858C135.444 242.011 135.29 241.108 135.316 240.202C135.342 239.296 135.546 238.404 135.917 237.576C136.288 236.749 136.819 236.003 137.479 235.382L284.99 97.4877C291.632 91.2606 302.011 91.2606 308.653 97.4877L406.902 189.302C405.656 192 404.618 194.768 403.65 197.604C398.322 213.38 396.938 231.092 403.304 246.452C405.518 251.641 408.631 257.384 406.625 262.711Z" fill="white"/>
<path opacity="0.1" d="M299.935 197.258C292.739 212.065 269.769 212.203 260.912 226.041C253.717 237.319 259.044 252.125 264.026 264.579C269.008 277.033 273.09 292.601 264.234 302.702C256.277 311.766 241.47 311.628 232.96 320.069C222.651 330.24 225.764 347.399 230.4 361.098C235.036 374.797 240.225 390.78 232.337 402.958C227.217 410.776 217.946 414.72 209.159 417.833C208.882 417.902 208.605 418.041 208.329 418.11H161.557V260.22L161.142 260.635C158.374 263.265 153.946 263.126 151.386 260.289L137.202 245.137C136.579 244.479 136.091 243.704 135.767 242.857C135.444 242.01 135.29 241.108 135.316 240.202C135.342 239.295 135.546 238.403 135.917 237.576C136.288 236.749 136.819 236.003 137.479 235.381L284.99 97.4872C288.104 94.5813 292.117 93.0591 296.061 92.8516C287.274 114.577 286.097 139.416 294.331 161.349C298.69 173.111 305.47 186.049 299.935 197.258Z" fill="white"/>
<path d="M432.502 260.704L296.822 133.811L161.142 260.704C158.374 263.333 153.946 263.195 151.386 260.358L137.202 245.206C136.576 244.547 136.088 243.769 135.766 242.919C135.444 242.069 135.294 241.164 135.327 240.255C135.359 239.347 135.572 238.454 135.953 237.629C136.335 236.804 136.877 236.063 137.548 235.45L285.059 97.556C291.702 91.329 302.011 91.329 308.722 97.556L456.234 235.45C459.001 238.079 459.139 242.438 456.579 245.206L442.396 260.358C439.628 263.126 435.269 263.264 432.502 260.704Z" fill="#F15A24"/>
<path d="M128.623 245.967C148.342 263.541 196.774 203.9 214.625 184.389C222.789 175.464 248.804 150.21 248.804 150.21C253.232 145.781 253.717 138.793 249.98 133.812C249.391 133.017 248.631 132.365 247.756 131.903C246.881 131.44 245.914 131.18 244.925 131.14C243.936 131.1 242.951 131.282 242.042 131.673C241.133 132.063 240.323 132.652 239.671 133.397C230.677 143.844 212.549 164.255 203.07 169.859C199.611 171.866 192.761 174.011 185.842 175.879C170.62 179.892 157.129 188.748 147.373 201.133C134.365 217.392 120.458 238.703 128.623 245.967ZM311.351 103.161C295.507 124.333 359.092 167.438 380.056 183.559C389.673 190.962 417.072 214.694 417.072 214.694C421.846 218.707 428.904 218.638 433.539 214.486C434.287 213.834 434.878 213.021 435.267 212.108C435.656 211.195 435.834 210.206 435.788 209.215C435.741 208.223 435.471 207.255 434.998 206.383C434.525 205.511 433.861 204.757 433.055 204.177C421.846 196.082 399.983 179.753 393.548 170.828C391.196 167.576 388.497 160.934 386.076 154.153C380.817 139.278 370.785 126.616 357.639 117.967C340.342 106.482 317.924 94.3739 311.351 103.161Z" fill="#73D5EF"/>
<path opacity="0.07" d="M296.752 241.47V251.433H280.078C257.176 251.433 238.564 270.045 238.564 292.946V306.923H228.601V255.308C228.601 247.697 234.828 241.47 242.439 241.47H296.752Z" fill="black"/>
<path d="M72.9947 319.515C73.9341 322.59 76.0263 325.183 78.8335 326.75C81.6408 328.318 84.9454 328.739 88.056 327.925C91.1666 327.112 93.8421 325.127 95.5227 322.386C97.2032 319.645 97.7586 316.36 97.0725 313.219C96.2259 310.009 94.1402 307.267 91.2734 305.593C88.4066 303.92 84.9929 303.453 81.7817 304.294C75.1396 305.954 71.1958 312.735 72.9947 319.515ZM133.189 259.736C133.738 261.838 134.698 263.81 136.012 265.54C137.326 267.27 138.969 268.724 140.846 269.817C142.723 270.91 144.798 271.621 146.951 271.909C149.105 272.198 151.294 272.058 153.393 271.498C155.511 270.959 157.501 270.004 159.249 268.691C160.996 267.377 162.466 265.73 163.572 263.845C164.679 261.959 165.401 259.873 165.696 257.707C165.992 255.541 165.855 253.338 165.293 251.226C164.745 249.098 163.78 247.1 162.454 245.348C161.129 243.595 159.469 242.123 157.571 241.017C155.673 239.91 153.574 239.19 151.396 238.9C149.218 238.61 147.004 238.754 144.882 239.325C140.637 240.5 137.028 243.304 134.838 247.126C132.649 250.948 132.056 255.479 133.189 259.736ZM148.757 170.551C150.556 177.332 157.475 181.345 164.255 179.546C171.105 177.747 175.187 170.828 173.388 164.047C172.974 162.422 172.241 160.896 171.231 159.557C170.221 158.219 168.954 157.095 167.505 156.251C166.056 155.407 164.453 154.861 162.79 154.643C161.128 154.425 159.438 154.541 157.821 154.983C156.203 155.41 154.685 156.151 153.354 157.164C152.022 158.177 150.904 159.443 150.062 160.889C149.22 162.334 148.672 163.932 148.448 165.59C148.224 167.248 148.329 168.934 148.757 170.551ZM209.159 222.927C210.681 228.808 216.701 232.268 222.582 230.746C228.532 229.154 232.061 223.135 230.469 217.323C228.878 211.373 222.858 207.844 216.908 209.435C211.027 210.957 207.568 216.977 209.159 222.927ZM477.406 434.923V435.546C477.198 447.93 467.027 457.825 454.642 457.963L253.855 458.17L240.156 411.606L454.781 412.298C467.304 412.298 477.406 422.4 477.406 434.923Z" fill="#94E9F7"/>
<path d="M401.09 421.155C399.014 428.973 391.057 433.609 383.239 431.533C381.373 431.057 379.619 430.217 378.079 429.061C376.539 427.905 375.243 426.456 374.265 424.796C373.288 423.137 372.648 421.301 372.383 419.393C372.118 417.486 372.234 415.545 372.722 413.682C374.798 405.795 382.755 401.09 390.711 403.235C398.53 405.241 403.165 413.198 401.09 421.155ZM271.083 458.24L93.6821 457.894C45.0421 457.756 16.467 400.813 47.5329 363.382C47.8789 363.105 48.0172 362.897 48.2248 362.551C57.8702 351.308 70.9386 343.54 85.4245 340.441C99.9104 337.341 115.013 339.08 128.415 345.392C128.553 345.392 128.761 345.6 128.83 345.6C129.176 343.732 129.73 341.795 130.352 339.926C132.636 332.662 136.579 325.535 141.838 319.377C163.148 294.677 200.233 291.909 224.865 313.081C232.089 319.272 237.688 327.136 241.174 335.989C244.659 344.841 245.925 354.412 244.86 363.866C251.987 366.218 258.906 369.885 265.064 375.213C270.913 380.268 275.708 386.426 279.176 393.335C282.644 400.244 284.717 407.769 285.276 415.479C285.835 423.19 284.87 430.935 282.434 438.272C279.999 445.609 276.142 452.394 271.083 458.24Z" fill="#94E9F7"/>
<path d="M245.276 364.004C233.583 362.136 220.575 365.111 210.266 372.376C219.399 363.934 231.922 358.607 245.068 358.607C245.137 360.337 244.999 362.066 244.791 363.865L245.276 364.004ZM148.065 383.238C148.134 367.947 140.247 353.487 128.484 345.392C128.623 345.392 128.83 345.599 128.9 345.599C129.245 343.731 129.799 341.794 130.422 339.926C143.498 350.512 150.002 367.463 148.065 383.238Z" fill="#5CC1E6"/>
<path d="M55.559 395.693C55.2822 395.623 55.0055 395.485 54.7287 395.416C54.0097 395.108 53.3585 394.662 52.8125 394.102C52.2665 393.542 51.8365 392.88 51.5472 392.154C51.2579 391.427 51.115 390.651 51.1266 389.869C51.1383 389.087 51.3043 388.315 51.6152 387.598C56.666 375.835 66.2141 366.01 77.6995 360.475C89.2541 355.009 102.954 353.833 115.2 357.223C118.383 358.123 120.251 361.375 119.351 364.557C118.452 367.74 115.269 369.608 112.017 368.709C102.4 366.08 91.8141 366.979 82.8195 371.269C73.8249 375.559 66.4217 383.239 62.5471 392.372C61.3709 395.07 58.3957 396.454 55.559 395.693ZM256.969 446.685C255.7 446.352 254.577 445.607 253.776 444.568C252.975 443.529 252.54 442.254 252.541 440.942C252.541 437.621 255.17 434.992 258.491 434.992L345.254 434.854C348.575 434.854 351.204 437.483 351.204 440.804C351.204 444.125 348.575 446.754 345.254 446.754L258.491 446.893C257.976 446.896 257.464 446.826 256.969 446.685ZM365.803 445.232C364.534 444.899 363.412 444.154 362.61 443.115C361.809 442.077 361.375 440.801 361.375 439.489C361.375 436.168 364.004 433.539 367.325 433.539L410.707 433.47C413.959 433.47 416.657 436.099 416.657 439.42C416.657 442.741 414.028 445.371 410.707 445.371L367.325 445.44C366.841 445.44 366.288 445.37 365.803 445.232Z" fill="#C0F6FF"/>
<path d="M343.455 415.204C341.379 423.023 333.423 427.658 325.604 425.583C323.738 425.107 321.984 424.267 320.444 423.111C318.904 421.955 317.608 420.506 316.631 418.846C315.653 417.187 315.013 415.351 314.749 413.443C314.484 411.536 314.599 409.595 315.088 407.732C317.163 399.844 325.12 395.14 333.077 397.284C340.895 399.291 345.531 407.248 343.455 415.204ZM449.799 421.916C447.723 429.734 439.766 434.37 431.948 432.294C430.082 431.819 428.328 430.979 426.788 429.822C425.248 428.666 423.952 427.217 422.974 425.558C421.997 423.898 421.357 422.062 421.092 420.155C420.828 418.247 420.943 416.306 421.431 414.443C423.507 406.556 431.464 401.851 439.42 403.996C447.239 406.002 451.875 413.959 449.799 421.916Z" fill="#94E9F7"/>
<path opacity="0.15" d="M477.405 434.438C452.359 432.709 427.105 433.608 402.197 437.137C382.478 439.973 362.551 444.471 342.902 441.357C333.838 439.904 324.636 436.86 315.641 438.866C306.577 440.873 299.105 447.861 289.903 449.314C273.021 452.012 257.315 435.476 240.502 438.59C233.168 439.973 226.871 445.024 219.606 446.892C206.599 450.075 193.453 442.464 180.03 441.426C166.4 440.389 152.77 447.169 144.467 457.893H93.6821C45.0421 457.755 16.467 400.812 47.5329 363.381C47.8789 363.104 48.0172 362.897 48.2248 362.62C68.4972 339.026 101.639 332.661 128.415 345.461C128.553 345.461 128.761 345.669 128.899 345.669C129.245 343.8 129.73 341.863 130.352 339.995C132.636 332.73 136.649 325.673 141.838 319.515C163.148 294.814 200.233 292.047 224.796 313.219C240.017 326.157 246.867 345.392 244.86 363.934C251.987 366.287 258.906 370.023 264.995 375.281C276.272 384.968 282.984 398.045 284.783 411.744L454.781 412.298C467.096 412.298 477.129 422.192 477.405 434.438Z" fill="white"/>
<path opacity="0.15" d="M245.207 358.814C243.269 358.676 241.401 358.676 239.464 358.607C213.31 358.053 184.528 364.972 169.514 386.352C167.576 389.119 165.916 392.094 163.148 394.032C153.185 401.02 138.655 389.119 127.585 394.17C116.03 399.359 117.553 417.833 107.313 425.305C98.5255 431.74 86.3482 426.827 75.4163 425.859C65.1763 424.959 55.0055 428.073 46.0801 433.47C31.5504 413.474 29.4747 385.106 47.5331 363.381C47.879 363.104 48.0174 362.897 48.225 362.62C68.4974 339.026 101.639 332.661 128.415 345.461C128.554 345.461 128.761 345.669 128.9 345.669C129.246 343.8 129.73 341.863 130.353 339.995C132.636 332.73 136.649 325.673 141.838 319.515C163.148 294.814 200.234 292.047 224.796 313.219C238.634 324.981 245.553 341.932 245.207 358.814Z" fill="white"/>
</g>
<defs>
<clipPath id="clip0_170_7947">
<rect width="512" height="512" fill="white"/>
</clipPath>
</defs>
</svg>
