<svg width="512" height="512" viewBox="0 0 512 512" fill="none" xmlns="http://www.w3.org/2000/svg">
<g clip-path="url(#clip0_170_7900)">
<g clip-path="url(#clip1_170_7900)">
<path d="M512 447.068V512H0V404.81C26.486 392.242 52.354 383.949 77.573 378.994C258.534 343.493 406.417 480.27 512 447.068Z" fill="#FFCBBE"/>
<path d="M338.528 512H0V404.81C26.486 392.242 52.354 383.949 77.573 378.994L77.614 379.004C33.017 391.191 2.349 478.757 194.323 495.384C246.131 499.875 294.91 505.767 338.528 512Z" fill="#EAAC9D"/>
<path d="M127.499 400.778C125.623 400.775 123.812 400.09 122.404 398.85C120.995 397.61 120.086 395.901 119.846 394.04L96.2881 211.551C96.0492 209.53 96.6172 207.496 97.8687 205.892C99.1203 204.287 100.954 203.241 102.973 202.981C104.991 202.72 107.03 203.266 108.648 204.501C110.266 205.735 111.332 207.558 111.614 209.573L135.172 392.061C135.313 393.151 135.22 394.259 134.898 395.31C134.577 396.361 134.035 397.331 133.309 398.156C132.583 398.981 131.689 399.642 130.687 400.094C129.685 400.546 128.598 400.779 127.499 400.778ZM442.845 472.626C441.83 472.626 440.826 472.426 439.888 472.038C438.951 471.65 438.099 471.081 437.382 470.363C436.664 469.646 436.095 468.794 435.707 467.857C435.319 466.919 435.119 465.915 435.119 464.9V275.028C435.119 272.979 435.933 271.014 437.382 269.565C438.831 268.116 440.796 267.302 442.845 267.302C444.894 267.302 446.859 268.116 448.308 269.565C449.757 271.014 450.571 272.979 450.571 275.028V464.9C450.571 465.915 450.371 466.919 449.983 467.857C449.595 468.794 449.026 469.646 448.308 470.363C447.591 471.081 446.739 471.65 445.802 472.038C444.864 472.426 443.86 472.626 442.845 472.626ZM230.465 441.87C229.351 441.872 228.25 441.632 227.237 441.169C226.225 440.705 225.324 440.028 224.598 439.183C223.871 438.339 223.336 437.348 223.028 436.277C222.721 435.207 222.648 434.082 222.816 432.981L252.919 235.086C253.228 233.061 254.329 231.241 255.979 230.026C257.629 228.812 259.694 228.303 261.72 228.61C262.723 228.762 263.686 229.111 264.555 229.636C265.423 230.161 266.18 230.851 266.781 231.668C267.383 232.486 267.817 233.413 268.06 234.398C268.303 235.384 268.35 236.407 268.197 237.41L238.094 435.305C237.816 437.13 236.894 438.795 235.494 439.999C234.095 441.203 232.311 441.867 230.465 441.87Z" fill="#DFEAEF"/>
<path d="M109.454 253.185C96.065 254.913 83.809 245.461 82.081 232.071L55.682 27.5807C53.953 14.1907 63.406 1.93569 76.795 0.207693C90.184 -1.52031 102.44 7.93169 104.168 21.3217L130.567 225.813C132.296 239.201 122.843 251.457 109.454 253.185Z" fill="#FFC250"/>
<path d="M119.031 249.825C116.113 251.61 112.849 252.756 109.455 253.188C96.071 254.916 83.809 245.458 82.081 232.074L55.681 27.5758C53.953 14.1918 63.411 1.92983 76.795 0.201832C80.1871 -0.242102 83.6348 0.0377086 86.911 1.02283C78.91 5.88383 74.088 15.1578 75.363 25.0358L101.763 229.534C103.038 239.413 110.057 247.157 119.031 249.825Z" fill="#EBB044"/>
<path d="M442.846 323.874C429.346 323.874 418.401 312.93 418.401 299.43V93.2419C418.401 79.7419 429.345 68.7979 442.845 68.7979C456.345 68.7979 467.289 79.7419 467.289 93.2419V299.43C467.29 312.93 456.346 323.874 442.846 323.874Z" fill="#FFC250"/>
<path d="M452.774 321.768C449.651 323.165 446.267 323.884 442.846 323.878C429.351 323.878 418.401 312.928 418.401 299.433V93.238C418.401 79.743 429.351 68.793 442.846 68.793C446.38 68.793 449.74 69.543 452.774 70.903C444.216 74.698 438.246 83.278 438.246 93.238V299.433C438.246 309.394 444.216 317.973 452.774 321.768Z" fill="#EBB044"/>
<path d="M251.662 294.721C238.315 292.691 229.141 280.225 231.172 266.878L262.18 63.0352C264.21 49.6882 276.676 40.5142 290.023 42.5452C303.37 44.5752 312.544 57.0412 310.513 70.3882L279.505 274.231C277.475 287.577 265.009 296.751 251.662 294.721Z" fill="#FFC250"/>
<path d="M261.795 294.132C258.498 295.043 255.044 295.245 251.663 294.724C238.322 292.695 229.143 280.222 231.172 266.881L262.181 63.0307C264.21 49.6897 276.683 40.5107 290.024 42.5397C293.407 43.0478 296.645 44.2676 299.522 46.1187C290.491 48.5837 283.299 56.1677 281.801 66.0157L250.792 269.866C249.293 279.713 253.905 289.093 261.795 294.132Z" fill="#EBB044"/>
</g>
</g>
<defs>
<clipPath id="clip0_170_7900">
<rect width="512" height="512" fill="white"/>
</clipPath>
<clipPath id="clip1_170_7900">
<rect width="512" height="512" fill="white"/>
</clipPath>
</defs>
</svg>
