<svg width="512" height="512" viewBox="0 0 512 512" fill="none" xmlns="http://www.w3.org/2000/svg">
<g clip-path="url(#clip0_170_7383)">
<g clip-path="url(#clip1_170_7383)">
<path d="M307.509 103.706L256 210.721L204.491 330.517L256 471.159C301.782 449.812 344.686 420.263 382.475 382.474C460.226 304.723 503.15 205.347 511.296 103.707L307.509 103.706Z" fill="#B0EBD8"/>
<path d="M414.916 0.200481C360.421 3.75448 306.461 17.3135 256 40.8415L204.491 118.838L256 210.721C327.617 148.631 416.666 111.296 511.296 103.706C511.473 101.499 511.656 99.2935 511.801 97.0835C515.392 42.0075 469.993 -3.39152 414.916 0.200481Z" fill="#70DCBA"/>
<path d="M103.722 210.721V511.311C155.957 507.121 207.589 493.731 256 471.158V210.721H103.722Z" fill="#FFB5C0"/>
<path d="M256 210.721V40.8408C210.218 62.1868 167.315 91.7358 129.526 129.525C50.086 208.966 6.97802 310.978 0.199016 414.916C-3.39298 469.992 42.006 515.392 97.083 511.8C99.297 511.655 101.51 511.488 103.722 511.311C111.868 409.671 154.792 310.295 232.544 232.543C240.102 224.993 247.925 217.715 256 210.721Z" fill="#FF8E9E"/>
<path d="M213.827 170.12L186.143 142.436L142.436 186.142L428.875 472.583L472.582 428.876L213.827 170.12Z" fill="#4C5699"/>
<path d="M450.189 388.378C444.654 388.378 439.293 389.116 434.188 390.482L395.721 428.949L471.43 504.658L509.897 466.191C511.294 460.972 512.001 455.593 512 450.19C512 416.052 484.326 388.378 450.189 388.378Z" fill="#676FB2"/>
<path d="M434.188 466.191C413.282 445.285 413.282 411.389 434.188 390.482C407.81 397.534 388.378 421.588 388.378 450.189C388.378 484.326 416.052 512 450.189 512C478.791 512 502.845 492.569 509.897 466.191C488.99 487.097 455.095 487.097 434.188 466.191Z" fill="#4C5699"/>
<path d="M200.323 83.7705L133.406 16.8535H76.198V161.811L117.931 203.544H180.403L213.827 170.12C213.875 169.261 213.9 168.402 213.901 167.543V116.552C213.901 104.256 209.017 92.4647 200.323 83.7705Z" fill="#676FB2"/>
<path d="M213.827 170.12C185.005 182.16 151.765 175.6 129.677 153.512L95.992 119.827C77.888 101.723 77.888 72.371 95.992 54.267L133.405 16.854L130.129 13.578C112.025 -4.526 82.673 -4.526 64.569 13.578L13.578 64.57C-4.526 82.674 -4.526 112.026 13.578 130.13L83.771 200.324C88.0757 204.629 93.1861 208.044 98.8106 210.373C104.435 212.703 110.463 213.902 116.551 213.902H167.542C178.177 213.917 188.491 210.258 196.739 203.545C206.584 195.55 213.088 183.605 213.827 170.12Z" fill="#4C5699"/>
<path d="M307.923 88.9818C296.256 77.3148 279.297 75.3578 270.044 84.6108C260.791 93.8638 262.747 110.823 274.415 122.49C286.082 134.157 303.041 136.114 312.294 126.861C321.547 117.608 319.59 100.649 307.923 88.9818ZM423.018 204.077C411.351 192.41 394.392 190.453 385.139 199.706C375.886 208.959 377.843 225.918 389.509 237.585C401.176 249.252 418.135 251.209 427.389 241.956C436.642 232.703 434.685 215.744 423.018 204.077Z" fill="#FF8E9E"/>
<path d="M322.947 87.0705L314.206 95.8115C313.483 96.5277 312.908 97.3798 312.515 98.3187C312.122 99.2577 311.919 100.265 311.916 101.283C311.914 102.301 312.112 103.309 312.501 104.25C312.889 105.191 313.459 106.046 314.179 106.766C314.899 107.485 315.754 108.056 316.694 108.444C317.635 108.833 318.644 109.031 319.661 109.029C320.679 109.027 321.687 108.823 322.626 108.43C323.565 108.037 324.417 107.463 325.133 106.74L333.874 97.9985C335.312 96.5471 336.116 94.5855 336.111 92.5426C336.106 90.4998 335.293 88.542 333.848 87.0974C332.404 85.6528 330.446 84.839 328.403 84.834C326.36 84.829 324.399 85.6331 322.947 87.0705ZM424.93 178.128C423.481 176.678 421.516 175.864 419.467 175.864C417.418 175.864 415.452 176.678 414.003 178.127L405.262 186.867C403.813 188.315 402.999 190.281 402.998 192.33C402.998 194.379 403.812 196.344 405.261 197.794C406.71 199.243 408.675 200.057 410.724 200.057C412.774 200.057 414.739 199.243 416.188 197.795L424.929 189.055C425.647 188.337 426.216 187.485 426.604 186.548C426.993 185.611 427.193 184.606 427.193 183.591C427.193 182.577 426.993 181.572 426.605 180.634C426.217 179.697 425.647 178.845 424.93 178.128ZM376.935 150.815C367.971 151.422 360.572 144.014 361.186 135.066C361.255 134.053 361.125 133.037 360.802 132.076C360.479 131.114 359.969 130.225 359.302 129.46C358.636 128.695 357.825 128.069 356.916 127.618C356.008 127.166 355.019 126.898 354.007 126.829C349.755 126.545 346.061 129.752 345.77 134.008C344.515 152.309 359.682 167.48 377.994 166.232C379.006 166.162 379.995 165.894 380.903 165.442C381.812 164.991 382.623 164.365 383.289 163.6C383.956 162.835 384.466 161.946 384.789 160.985C385.112 160.023 385.242 159.007 385.173 157.995C384.88 153.738 381.187 150.527 376.935 150.815Z" fill="#313D40"/>
</g>
</g>
<defs>
<clipPath id="clip0_170_7383">
<rect width="512" height="512" fill="white"/>
</clipPath>
<clipPath id="clip1_170_7383">
<rect width="512" height="512" fill="white"/>
</clipPath>
</defs>
</svg>
