<svg width="512" height="512" viewBox="0 0 512 512" fill="none" xmlns="http://www.w3.org/2000/svg">
<g clip-path="url(#clip0_170_7336)">
<g clip-path="url(#clip1_170_7336)">
<path d="M510.059 203.477C480.716 203.954 479.386 215.253 450.23 215.803C406.901 234.865 47.9919 218.519 43.7529 213.591C30.0469 210.13 23.688 203.831 1.941 203.478C1.68845 203.473 1.43745 203.518 1.20262 203.611C0.967793 203.704 0.753824 203.843 0.573178 204.02C0.392533 204.196 0.248822 204.407 0.150418 204.64C0.0520129 204.872 0.00088092 205.122 0 205.375L0 510.105C0 511.152 0.848998 512.001 1.896 512.001H510.104C510.607 512.001 511.089 511.802 511.445 511.446C511.8 511.09 512 510.608 512 510.105V205.375C511.999 205.122 511.948 204.872 511.849 204.64C511.751 204.407 511.607 204.196 511.427 204.02C511.246 203.843 511.032 203.704 510.797 203.611C510.562 203.518 510.312 203.472 510.059 203.477Z" fill="#D3EFFB"/>
<path d="M510.059 203.477C489.702 203.808 482.828 209.347 470.792 212.892V372.714C470.792 438.26 417.656 491.396 352.109 491.396H0V510.104C0 511.151 0.848998 512 1.896 512H510.104C510.607 512 511.089 511.801 511.445 511.445C511.8 511.089 512 510.607 512 510.104V205.375C511.999 205.122 511.948 204.872 511.849 204.64C511.751 204.407 511.607 204.196 511.427 204.02C511.246 203.843 511.032 203.704 510.797 203.611C510.562 203.518 510.312 203.472 510.059 203.477Z" fill="#B1E4F9"/>
<path d="M385.879 317.2C368.438 317.2 359.224 313.641 351.094 310.5C343.558 307.589 336.438 304.838 321.88 304.838C307.321 304.838 300.201 307.589 292.665 310.5C284.535 313.641 275.321 317.2 257.881 317.2C255.832 317.2 253.866 316.386 252.418 314.937C250.969 313.488 250.155 311.523 250.155 309.474C250.155 307.425 250.969 305.46 252.418 304.011C253.866 302.562 255.832 301.748 257.881 301.748C272.439 301.748 279.559 298.997 287.095 296.086C295.225 292.945 304.439 289.386 321.88 289.386C339.32 289.386 348.534 292.945 356.664 296.086C364.2 298.997 371.32 301.748 385.879 301.748C400.437 301.748 407.556 298.997 415.092 296.086C423.222 292.945 432.435 289.386 449.875 289.386C451.924 289.386 453.889 290.2 455.338 291.649C456.787 293.098 457.601 295.063 457.601 297.112C457.601 299.161 456.787 301.126 455.338 302.575C453.889 304.024 451.924 304.838 449.875 304.838C435.317 304.838 428.198 307.589 420.662 310.5C412.532 313.641 403.318 317.2 385.879 317.2ZM447.996 460.945C430.554 460.945 421.34 457.386 413.21 454.245C405.672 451.334 398.552 448.583 383.992 448.583C369.432 448.583 362.313 451.334 354.775 454.245C346.646 457.386 337.432 460.945 319.991 460.945C302.55 460.945 293.336 457.386 285.206 454.245C277.67 451.334 270.55 448.583 255.991 448.583C241.433 448.583 234.314 451.334 226.778 454.245C218.648 457.386 209.435 460.945 191.995 460.945C190.98 460.945 189.975 460.745 189.038 460.357C188.1 459.969 187.249 459.4 186.531 458.682C185.814 457.965 185.245 457.113 184.856 456.176C184.468 455.238 184.268 454.233 184.269 453.219C184.268 452.204 184.468 451.199 184.856 450.262C185.245 449.325 185.814 448.473 186.531 447.755C187.249 447.038 188.1 446.469 189.038 446.081C189.975 445.692 190.98 445.493 191.995 445.493C206.553 445.493 213.672 442.743 221.208 439.831C229.338 436.69 238.551 433.131 255.991 433.131C273.432 433.131 282.646 436.69 290.776 439.831C298.312 442.742 305.432 445.493 319.991 445.493C334.55 445.493 341.669 442.743 349.206 439.831C357.336 436.69 366.55 433.131 383.992 433.131C401.434 433.131 410.648 436.69 418.778 439.831C426.316 442.742 433.436 445.493 447.996 445.493C449.01 445.493 450.015 445.692 450.952 446.081C451.89 446.469 452.742 447.038 453.459 447.755C454.176 448.473 454.746 449.325 455.134 450.262C455.522 451.199 455.722 452.204 455.722 453.219C455.722 454.233 455.522 455.238 455.134 456.176C454.746 457.113 454.176 457.965 453.459 458.682C452.742 459.4 451.89 459.969 450.952 460.357C450.015 460.745 449.01 460.945 447.996 460.945Z" fill="#B1E4F9"/>
<path d="M447.995 460.944C449.01 460.944 450.014 460.744 450.952 460.356C451.889 459.968 452.741 459.399 453.459 458.681C454.176 457.964 454.745 457.112 455.133 456.174C455.522 455.237 455.721 454.232 455.721 453.218C455.721 452.203 455.522 451.198 455.133 450.261C454.745 449.324 454.176 448.472 453.459 447.754C452.741 447.037 451.889 446.468 450.952 446.08C450.014 445.691 449.01 445.492 447.995 445.492C447.272 445.492 446.568 445.485 445.881 445.472C441.882 450.618 437.469 455.427 432.685 459.853C437.016 460.526 442.023 460.944 447.995 460.944Z" fill="#90D8F9"/>
<path d="M276.519 213.57C216.865 213.277 34.321 183.618 34.119 180.895V187.628C34.1189 195.706 36.5769 203.593 41.1663 210.241C45.7557 216.889 52.2592 221.984 59.813 224.848C107.073 242.763 156.779 253.401 207.232 256.398L276.519 213.57Z" fill="#FFD064"/>
<path d="M487.306 159.703C487.305 165.838 327.621 198.538 256.001 201.353L243.995 257.276H253.195C349.232 257.276 422.371 229.358 464.334 209.338C478.352 202.65 487.307 188.469 487.307 172.937L487.306 159.703Z" fill="#FFD064"/>
<path d="M361.36 102.271C325.868 94.2205 289.588 90.1573 253.194 90.1572H236.839C176.354 90.1573 116.372 101.145 59.814 122.586L42.494 129.152C40.9675 129.731 39.5164 130.491 38.172 131.417C32.555 135.289 32.803 143.698 38.512 147.434L49.985 154.943C53.416 157.189 53.416 162.217 49.985 164.462L38.512 171.972C32.804 175.708 32.555 184.117 38.172 187.989C39.5159 188.916 40.9672 189.677 42.494 190.254L59.814 196.82C115.601 217.969 174.727 228.95 234.388 229.243L346.329 142.015L361.36 102.271Z" fill="#FFE07D"/>
<path d="M487.052 156.811C486.145 151.655 482.667 147.313 478.018 144.906C450.268 130.539 421.205 118.865 391.226 110.044L348.074 131.543L272.399 228.871C344.098 226.053 414.299 207.49 478.019 174.5L478.437 174.284C481.55 172.672 484.064 170.106 485.614 166.962C487.164 163.819 487.668 160.261 487.052 156.811Z" fill="#FFE07D"/>
<path d="M406.872 167.43H111.456C109.407 167.43 107.442 166.616 105.993 165.167C104.544 163.718 103.73 161.753 103.73 159.704C103.73 157.654 104.544 155.689 105.993 154.24C107.442 152.792 109.407 151.978 111.456 151.978H406.871C411.139 151.978 414.597 155.437 414.597 159.704C414.597 163.971 411.139 167.43 406.872 167.43Z" fill="#FFD064"/>
<path d="M403.319 60.2529L422.136 79.0689L178.655 322.55L159.838 303.734L403.319 60.2529Z" fill="#F9F6F6"/>
<path d="M477.875 50.498L431.952 4.575C425.852 -1.525 415.962 -1.525 409.862 4.575C403.762 10.675 403.762 20.565 409.862 26.665L412.769 29.572C417.777 34.58 417.777 42.699 412.769 47.707L398.175 62.3C398.001 62.4742 397.862 62.6811 397.768 62.9088C397.674 63.1365 397.625 63.3805 397.625 63.627C397.625 63.8735 397.674 64.1175 397.768 64.3452C397.862 64.5729 398.001 64.7798 398.175 64.954L417.497 84.275C417.671 84.4493 417.878 84.5876 418.106 84.682C418.333 84.7764 418.578 84.8249 418.824 84.8249C419.07 84.8249 419.315 84.7764 419.542 84.682C419.77 84.5876 419.977 84.4493 420.151 84.275L434.745 69.681C439.753 64.673 447.872 64.673 452.88 69.681L455.787 72.588C461.887 78.688 471.777 78.688 477.877 72.588C483.975 66.488 483.975 56.599 477.875 50.498ZM127.997 379.707C141.253 379.707 149.017 381.828 155.84 384.314C166.269 371.315 171.012 356.042 169.464 342.845C168.787 337.076 170.964 331.336 175.071 327.229L183.653 318.647C183.71 318.591 183.755 318.523 183.785 318.45C183.816 318.376 183.832 318.296 183.832 318.216C183.832 318.137 183.816 318.057 183.785 317.983C183.755 317.91 183.71 317.842 183.653 317.786L164.666 298.799C164.61 298.742 164.542 298.697 164.469 298.667C164.395 298.636 164.316 298.62 164.236 298.62C164.156 298.62 164.076 298.636 164.002 298.667C163.929 298.697 163.861 298.742 163.805 298.799L155.223 307.381C151.116 311.488 145.375 313.665 139.607 312.988C124.355 311.199 106.33 317.812 92.248 331.894C74.222 349.92 68.436 374.406 76.843 391.267C96.77 388.524 100.972 379.707 127.997 379.707Z" fill="#365E7D"/>
<path d="M169.464 342.843C168.787 337.074 170.964 331.334 175.071 327.227L145.937 356.36C145.219 357.077 144.65 357.929 144.262 358.866C143.873 359.804 143.673 360.809 143.673 361.823C143.673 362.838 143.873 363.843 144.261 364.78C144.649 365.718 145.218 366.569 145.936 367.287C147.385 368.736 149.35 369.55 151.399 369.55C152.414 369.551 153.418 369.351 154.356 368.963C155.293 368.574 156.145 368.005 156.863 367.288L169.209 354.943C169.829 350.803 169.92 346.733 169.464 342.843ZM139.606 312.986C135.716 312.53 131.645 312.62 127.506 313.242L115.163 325.584C114.445 326.301 113.876 327.153 113.488 328.09C113.099 329.028 112.899 330.033 112.899 331.047C112.899 332.062 113.099 333.067 113.487 334.004C113.875 334.942 114.444 335.793 115.162 336.511C115.879 337.228 116.731 337.798 117.668 338.186C118.606 338.574 119.61 338.774 120.625 338.774C121.64 338.775 122.644 338.575 123.582 338.187C124.519 337.798 125.371 337.229 126.089 336.512L155.223 307.379C151.115 311.486 145.375 313.662 139.606 312.986Z" fill="#2B4D66"/>
<path d="M191.995 399.795C174.555 399.795 165.341 396.236 157.211 393.095C149.675 390.184 142.555 387.433 127.996 387.433C113.438 387.433 106.318 390.184 98.7819 393.095C90.6519 396.236 81.4379 399.795 63.9969 399.795C62.9823 399.796 61.9776 399.596 61.0401 399.208C60.1027 398.819 59.251 398.25 58.5335 397.533C57.8161 396.815 57.247 395.964 56.8587 395.026C56.4705 394.089 56.2708 393.084 56.2709 392.069C56.2708 391.055 56.4705 390.05 56.8587 389.113C57.247 388.175 57.8161 387.324 58.5335 386.606C59.251 385.889 60.1027 385.32 61.0401 384.931C61.9776 384.543 62.9823 384.343 63.9969 384.343C78.5559 384.343 85.6759 381.593 93.2119 378.681C101.342 375.54 110.556 371.981 127.996 371.981C145.437 371.981 154.651 375.54 162.781 378.681C170.317 381.592 177.437 384.343 191.995 384.343C193.01 384.343 194.014 384.543 194.952 384.931C195.889 385.32 196.741 385.889 197.458 386.606C198.176 387.324 198.745 388.175 199.133 389.113C199.521 390.05 199.721 391.055 199.721 392.069C199.721 393.084 199.521 394.089 199.133 395.026C198.745 395.964 198.176 396.815 197.458 397.533C196.741 398.25 195.889 398.819 194.952 399.208C194.014 399.596 193.01 399.796 191.995 399.795Z" fill="#B1E4F9"/>
</g>
</g>
<defs>
<clipPath id="clip0_170_7336">
<rect width="512" height="512" fill="white"/>
</clipPath>
<clipPath id="clip1_170_7336">
<rect width="512" height="512" fill="white"/>
</clipPath>
</defs>
</svg>
