<svg width="512" height="512" viewBox="0 0 512 512" fill="none" xmlns="http://www.w3.org/2000/svg">
<g clip-path="url(#clip0_170_7289)">
<g clip-path="url(#clip1_170_7289)">
<g filter="url(#filter0_f_170_7289)">
<path d="M184.162 58.435L128.194 114.402V199.71L206.977 296.678L234.588 346.253V468.802L206.181 504.553L286.626 584.999C441.884 567.29 564.102 440.828 575.212 283.658L349.302 57.748L184.162 58.435Z" fill="#EEEEEE"/>
</g>
<path d="M249.18 360.854V334.634L191.538 249.793H249.18V230.903H159.405V71.1667H249.18V16C171.331 16.0179 108 79.3576 108 157.212C108 205.318 132.141 249.663 172.577 275.832C193.58 289.426 206.118 312.234 206.118 336.845V348.086L249.18 360.854Z" fill="#FF4A4A"/>
<path d="M249.188 360.854V334.634L306.831 249.793H249.188V230.903H338.963V71.1667H249.188V16C327.038 16.0179 390.369 79.3576 390.369 157.212C390.369 205.318 366.228 249.663 325.792 275.832C304.789 289.426 292.251 312.234 292.251 336.845V348.086L249.188 360.854Z" fill="#E40058"/>
<path d="M244.562 315.485C238.519 293.635 224.591 274.441 204.834 261.654H249.193L263.835 237.33L249.197 213.906C242.287 213.898 236.688 208.294 236.688 201.382C236.688 194.47 242.288 188.867 249.2 188.859L255.736 183.883L249.201 177.509C242.289 177.503 236.689 171.899 236.689 164.986C236.689 158.074 242.291 152.468 249.203 152.463L256.649 146.94L249.205 141.113C242.292 141.108 236.69 135.504 236.69 128.59C236.69 121.676 242.293 116.071 249.207 116.067L255.281 110.224L249.207 104.719C242.293 104.716 236.689 99.1095 236.689 92.1955C236.689 85.2802 242.294 79.6749 249.209 79.6723L258.7 56.1786L249.212 27.2393C177.43 27.2393 119.241 85.4295 119.241 157.212C119.241 202.994 142.914 243.243 178.685 266.396C202.654 281.908 217.359 308.294 217.359 336.845V359.326H249.191L263.837 339.202L249.192 315.485H244.562ZM178.781 177.511C171.864 177.511 166.258 171.904 166.258 164.988C166.258 158.071 171.864 152.464 178.781 152.464C185.698 152.464 191.304 158.071 191.304 164.988C191.304 171.903 185.696 177.511 178.781 177.511ZM178.781 141.115C171.864 141.115 166.258 135.508 166.258 128.592C166.258 121.675 171.864 116.068 178.781 116.068C185.698 116.068 191.304 121.675 191.304 128.592C191.304 135.508 185.696 141.115 178.781 141.115ZM213.996 141.115C207.079 141.115 201.473 135.508 201.473 128.592C201.473 121.675 207.079 116.068 213.996 116.068C220.913 116.068 226.519 121.675 226.519 128.592C226.519 135.508 220.913 141.115 213.996 141.115ZM226.519 164.986C226.519 171.903 220.913 177.509 213.996 177.509C207.079 177.509 201.473 171.903 201.473 164.986C201.473 158.07 207.079 152.463 213.996 152.463C220.913 152.463 226.519 158.07 226.519 164.986ZM213.862 79.6723C220.779 79.6723 226.385 85.2789 226.385 92.1955C226.385 99.1121 220.779 104.719 213.862 104.719C206.945 104.719 201.339 99.1121 201.339 92.1955C201.339 85.2802 206.945 79.6723 213.862 79.6723ZM213.862 188.858C220.779 188.858 226.385 194.464 226.385 201.381C226.385 208.298 220.779 213.904 213.862 213.904C206.945 213.904 201.339 208.298 201.339 201.381C201.339 194.464 206.945 188.858 213.862 188.858Z" fill="#00FF93"/>
<path d="M249.212 27.2412V79.6743C256.129 79.6743 261.736 85.2808 261.736 92.1974C261.736 99.114 256.129 104.721 249.212 104.721V116.069C256.129 116.069 261.736 121.676 261.736 128.592C261.736 135.509 256.129 141.115 249.212 141.115V152.464C256.129 152.464 261.736 158.07 261.736 164.987C261.736 171.904 256.129 177.51 249.212 177.51V188.859C256.129 188.859 261.736 194.465 261.736 201.382C261.736 208.298 256.129 213.905 249.212 213.905V234.242H249.189V261.653H293.59C273.832 274.441 259.905 293.634 253.861 315.483H249.188V359.324H281.065V336.843C281.065 308.293 295.771 281.908 319.739 266.394C355.511 243.243 379.184 202.992 379.184 157.21C379.184 85.4315 320.993 27.2412 249.212 27.2412ZM284.427 152.464C291.344 152.464 296.951 158.07 296.951 164.987C296.951 171.904 291.344 177.51 284.427 177.51C277.511 177.51 271.904 171.904 271.904 164.987C271.904 158.07 277.511 152.464 284.427 152.464ZM271.904 128.592C271.904 121.676 277.511 116.069 284.427 116.069C291.344 116.069 296.951 121.676 296.951 128.592C296.951 135.509 291.344 141.115 284.427 141.115C277.511 141.115 271.904 135.509 271.904 128.592ZM284.561 213.906C277.645 213.906 272.038 208.3 272.038 201.383C272.038 194.466 277.645 188.86 284.561 188.86C291.478 188.86 297.085 194.466 297.085 201.383C297.085 208.298 291.478 213.906 284.561 213.906ZM284.561 104.721C277.645 104.721 272.038 99.114 272.038 92.1974C272.038 85.2808 277.645 79.6743 284.561 79.6743C291.478 79.6743 297.085 85.2808 297.085 92.1974C297.085 99.114 291.478 104.721 284.561 104.721ZM319.642 177.511C312.726 177.511 307.119 171.905 307.119 164.988C307.119 158.072 312.726 152.465 319.642 152.465C326.559 152.465 332.165 158.072 332.165 164.988C332.167 171.904 326.559 177.511 319.642 177.511ZM319.642 141.115C312.726 141.115 307.119 135.509 307.119 128.592C307.119 121.676 312.726 116.069 319.642 116.069C326.559 116.069 332.165 121.676 332.165 128.592C332.167 135.509 326.559 141.115 319.642 141.115Z" fill="#00DC80"/>
<path d="M249.184 504.553H206.179V478.646L249.184 465.878L270.718 491.6L249.184 504.553Z" fill="#FFCC00"/>
<path d="M292.252 504.553H249.184V465.878L292.252 478.646V504.553Z" fill="#FF9E22"/>
<path d="M249.184 404.252L206.179 391.483V347.901H249.184L270.718 369.693L249.184 404.252Z" fill="#3440DA"/>
<path d="M292.252 391.483L249.184 404.252V347.901H292.252V391.483Z" fill="#212CBA"/>
<path d="M249.184 478.647H206.179V435.065L249.184 422.297L270.718 456.857L249.184 478.647Z" fill="#3440DA"/>
<path d="M292.252 478.647H249.184V422.297L292.252 435.065V478.647Z" fill="#212CBA"/>
<path d="M249.184 435.065H206.179V391.483H249.184L270.718 413.275L249.184 435.065Z" fill="#515BDF"/>
<path d="M249.184 391.483H292.252V435.065H249.184V391.483Z" fill="#3440DA"/>
<path d="M403.805 229.257L362.301 281.001C333.723 281.001 310.556 257.835 310.556 229.257C310.556 200.679 333.723 177.512 362.301 177.512L403.805 229.257Z" fill="#FFCC00"/>
<path d="M414.046 229.257C414.046 257.835 390.879 281.001 362.301 281.001V177.512C390.879 177.51 414.046 200.679 414.046 229.257Z" fill="#FF9E22"/>
</g>
</g>
<defs>
<filter id="filter0_f_170_7289" x="92.1944" y="21.748" width="519.017" height="599.251" filterUnits="userSpaceOnUse" color-interpolation-filters="sRGB">
<feFlood flood-opacity="0" result="BackgroundImageFix"/>
<feBlend mode="normal" in="SourceGraphic" in2="BackgroundImageFix" result="shape"/>
<feGaussianBlur stdDeviation="18" result="effect1_foregroundBlur_170_7289"/>
</filter>
<clipPath id="clip0_170_7289">
<rect width="512" height="512" fill="white"/>
</clipPath>
<clipPath id="clip1_170_7289">
<rect width="512" height="512" fill="white"/>
</clipPath>
</defs>
</svg>
