<svg width="512" height="512" viewBox="0 0 512 512" fill="none" xmlns="http://www.w3.org/2000/svg">
<g clip-path="url(#clip0_170_7242)">
<path d="M192 376H85.69C80.737 376 75.8704 377.297 71.5739 379.761C67.2775 382.225 63.701 385.771 61.2 390.046L59.885 392.294C56.3549 398.328 55.177 405.453 56.5772 412.303C57.9774 419.152 61.857 425.243 67.472 429.408C93.3869 448.63 124.797 459.008 157.063 459.008H208.663C223.544 459.008 237.983 453.946 249.607 444.654L192 376Z" fill="#E57C90"/>
<path d="M187.743 163V123L176.681 109.863C175.264 108.181 174.442 106.078 174.341 103.881C174.24 101.684 174.866 99.5144 176.123 97.7092L187.214 81.7752L185.977 74.6062C185.726 73.1543 186.019 71.6609 186.799 70.4107C187.578 69.1605 188.791 68.2409 190.205 67.8272L249.905 50.3662L221.973 150.531L187.7 171.274L187.743 158" fill="#F0B78F"/>
<path d="M249.91 50.3701L221.97 150.53L187.7 171.27L187.74 158V155.31C190.54 153.135 192.782 150.324 194.281 147.11L237.77 53.9201L249.91 50.3701Z" fill="#C99978"/>
<path d="M217.743 240H250.515C258.386 240 266.157 238.229 273.252 234.819C280.346 231.409 286.583 226.447 291.5 220.3C296.549 213.989 300.072 206.598 301.795 198.702C303.518 190.806 303.395 182.619 301.435 174.779C298.71 168.377 298.308 161.224 300.298 154.557C302.289 147.89 306.546 142.128 312.335 138.268L328.119 128L267.083 72L223.743 140L217.743 240Z" fill="#7A4922"/>
<path d="M215.743 280C214.494 284.999 214.375 290.213 215.396 295.263C216.417 300.314 218.551 305.073 221.643 309.194L235.743 328L169.926 376C152.47 352.196 140.349 324.91 134.388 296L215.743 280Z" fill="#F0B78F"/>
<path d="M235.743 328L245.331 329.6C257.229 331.583 268.489 336.352 278.192 343.518C287.895 350.684 295.765 360.044 301.159 370.833L307.743 384L403.743 416L397.32 403.154C385.7 379.913 378.418 354.747 375.833 328.892L371.743 288L403.743 280L464.636 418.079C467.957 425.609 469.064 433.929 467.829 442.065C466.594 450.202 463.067 457.818 457.661 464.023C453.327 468.997 447.915 472.916 441.836 475.481C435.758 478.046 429.174 479.189 422.587 478.823L356.764 475.166C319.222 473.08 282.617 462.656 249.608 444.651C224.546 430.982 201.987 413.158 182.89 391.939C178.29 386.828 173.969 381.515 169.926 375.998L235.743 328Z" fill="#FF8AA0"/>
<path d="M371.743 288L357.533 278.527C354.522 276.519 352.052 273.799 350.345 270.608C348.637 267.417 347.743 263.853 347.743 260.234C347.743 257.437 348.277 254.666 349.316 252.069L355.095 240.825C360.779 229.768 363.743 217.514 363.743 205.082V196.993C363.743 193.547 365.112 190.242 367.549 187.805C369.986 185.369 373.291 184 376.737 184C379.813 184 382.788 185.091 385.135 187.079C387.482 189.067 389.047 191.823 389.553 194.857L403.743 280L371.743 288ZM192.62 429.731L167.72 432.631H144.638C140.01 432.631 135.466 433.873 131.482 436.228C127.497 438.583 124.218 441.964 121.986 446.019L119.162 451.15C117.894 453.454 117.363 456.091 117.642 458.706C117.92 461.321 118.994 463.787 120.719 465.772C121.925 467.16 123.415 468.273 125.089 469.036C126.762 469.799 128.58 470.193 130.419 470.193H180.383C189.756 470.193 198.831 466.9 206.023 460.888C207.818 459.387 209.298 457.545 210.377 455.468C211.456 453.391 212.112 451.121 212.308 448.789C212.504 446.457 212.235 444.11 211.518 441.882C210.8 439.654 209.648 437.591 208.128 435.812C206.241 433.604 203.839 431.894 201.134 430.833C198.429 429.773 195.505 429.394 192.62 429.731Z" fill="#F0B78F"/>
<path d="M169.525 232.672C165.755 227.017 163.743 220.374 163.743 213.578V176.889L134.806 199.4C127.561 205.034 121.947 212.495 118.538 221.017C115.242 229.257 114.122 238.208 115.286 247.006C116.449 255.805 119.858 264.156 125.183 271.257L131.743 280.004C132.416 285.384 133.298 290.717 134.388 296.004L215.743 280.004L223.743 248.004H198.166C192.499 248.003 186.919 246.604 181.923 243.929C176.927 241.254 172.668 237.388 169.525 232.672Z" fill="#FF8AA0"/>
<path d="M347.743 120L292.106 43.5C289.516 39.938 286.12 37.0393 282.195 35.0406C278.271 33.0419 273.929 32 269.525 32C264.212 32.0001 259.009 33.5164 254.527 36.3707C250.046 39.2251 246.472 43.299 244.225 48.114L200.842 141.077C197.491 148.256 192.483 154.536 186.229 159.4L163.743 176.889V213.578C163.743 220.374 165.755 227.018 169.525 232.672C172.668 237.387 176.927 241.253 181.924 243.927C186.92 246.601 192.499 248 198.166 248H223.743L235.743 200C246.176 184.351 251.743 165.964 251.743 147.156V136L275.743 96L315.743 136L339.743 168L365.48 187.3C366.217 187.853 367.071 188.228 367.976 188.398C368.881 188.567 369.813 188.526 370.7 188.277C371.587 188.028 372.405 187.579 373.09 186.963C373.775 186.348 374.309 185.583 374.651 184.728L386.09 156.128C386.568 154.933 386.649 153.615 386.321 152.37C385.993 151.125 385.273 150.018 384.268 149.214L347.743 120Z" fill="#F0B78F"/>
</g>
<defs>
<clipPath id="clip0_170_7242">
<rect width="512" height="512" fill="white"/>
</clipPath>
</defs>
</svg>
