<svg width="512" height="512" viewBox="0 0 512 512" fill="none" xmlns="http://www.w3.org/2000/svg">
<g clip-path="url(#clip0_170_7195)">
<path d="M99.3979 152.91H354.023V205.79H99.3979V152.91Z" fill="#9E6741"/>
<path d="M387.742 400.91V465.625C387.742 471.258 384.508 476.371 379.445 478.832C336.582 499.692 283.797 512 226.711 512C169.629 512 116.844 499.691 73.977 478.832C68.914 476.372 65.684 471.258 65.684 465.625V400.91C65.684 391.566 71.207 383.11 79.758 379.336L151.477 347.723C159.871 344.027 165.289 335.703 165.289 326.531V254.406H288.133V326.531C288.133 335.703 293.551 344.027 301.945 347.723L373.665 379.336C377.851 381.18 381.41 384.201 383.909 388.031C386.409 391.862 387.74 396.336 387.742 400.91Z" fill="#F7BC94"/>
<path d="M288.133 326.234V254.406H165.293V302.984C183.957 324.949 207.645 341.336 225.32 341.336H252.559C263.063 341.336 275.695 335.546 288.133 326.234Z" fill="#E59876"/>
<path d="M373.668 379.336L301.945 347.723C297.836 345.91 294.343 342.941 291.891 339.179C289.439 335.416 288.133 331.022 288.133 326.531V254.406H165.293V266.77H261.023V338.895C261.024 343.387 262.33 347.781 264.783 351.543C267.236 355.305 270.73 358.273 274.84 360.085L346.559 391.699C350.744 393.543 354.302 396.563 356.801 400.393C359.3 404.223 360.631 408.696 360.633 413.269V477.989C360.633 482.406 358.637 486.5 355.336 489.25C363.523 486.136 371.568 482.66 379.446 478.832C384.508 476.372 387.742 471.258 387.742 465.625V400.91C387.742 391.566 382.219 383.11 373.668 379.336Z" fill="#E59876"/>
<path d="M387.746 400.906V465.633C387.746 471.258 384.512 476.367 379.446 478.836C336.585 499.696 283.795 512 226.71 512C169.628 512 116.839 499.695 73.98 478.836C68.91 476.367 65.679 471.258 65.679 465.633V400.906C65.679 391.566 71.202 383.113 79.761 379.336L151.479 347.726C154.756 346.278 157.654 344.091 159.944 341.336C171.921 352.546 188.839 355.242 199.604 357.676C213.272 360.773 222.581 374.191 226.71 383.203C230.839 374.191 240.151 360.773 253.82 357.676C264.585 355.242 281.503 352.546 293.476 341.336C295.766 344.091 298.663 346.278 301.94 347.726L373.663 379.336C382.222 383.113 387.745 391.566 387.745 400.906H387.746Z" fill="#E6EFF5"/>
<path d="M378.438 382.16C377.427 381.388 376.356 380.698 375.234 380.098C374.723 379.823 374.2 379.569 373.668 379.336L365.691 375.82C298.676 346.258 298.438 347.285 293.481 341.336C285.773 348.551 276.02 352.23 267.176 354.594C269.326 356.932 271.935 358.802 274.84 360.086L346.559 391.699C350.744 393.543 354.302 396.563 356.801 400.393C359.3 404.222 360.631 408.696 360.633 413.269V477.989C360.633 482.406 358.637 486.5 355.336 489.25C363.988 485.945 372.488 482.234 379.446 478.832C380.82 478.16 382.082 477.28 383.187 476.222C386.043 473.496 387.742 469.699 387.742 465.625V400.91C387.742 393.45 384.212 386.559 378.438 382.16Z" fill="#B4CBDB"/>
<path d="M337.898 183.862H308.188V245.284H337.898C350.91 245.284 361.457 234.737 361.457 221.729V207.421C361.457 194.409 350.91 183.862 337.898 183.862ZM115.523 183.862H145.234V245.284H115.524C102.512 245.284 91.969 234.737 91.969 221.729V207.421C91.969 194.409 102.512 183.862 115.523 183.862Z" fill="#F7BC94"/>
<path d="M330.531 216.285C330.531 260.672 274.312 321.227 240.328 321.227H213.094C179.109 321.227 122.891 260.672 122.891 216.285L122.992 95.1406H330.434L330.531 216.285Z" fill="#F7BC94"/>
<path d="M330.434 95.1396H122.992H300.11L300.192 216.285C300.192 260.672 252.189 321.227 223.172 321.227H240.329C274.314 321.227 330.532 260.672 330.532 216.285L330.434 95.1396Z" fill="#E59876"/>
<path d="M181.43 206.09C179.381 206.09 177.416 205.276 175.967 203.827C174.518 202.378 173.704 200.413 173.703 198.363V195.102C173.703 193.053 174.517 191.088 175.966 189.639C177.415 188.19 179.38 187.376 181.429 187.376C183.479 187.376 185.444 188.19 186.893 189.639C188.342 191.088 189.156 193.053 189.156 195.102V198.363C189.155 200.412 188.341 202.377 186.893 203.826C185.444 205.275 183.479 206.09 181.43 206.09ZM271.996 206.09C270.981 206.09 269.977 205.891 269.039 205.502C268.102 205.114 267.25 204.545 266.533 203.827C265.815 203.11 265.246 202.258 264.858 201.32C264.47 200.383 264.27 199.378 264.27 198.363V195.102C264.27 194.088 264.47 193.083 264.858 192.146C265.246 191.209 265.815 190.357 266.533 189.64C267.25 188.923 268.102 188.354 269.039 187.965C269.976 187.577 270.981 187.377 271.995 187.377C273.009 187.377 274.014 187.577 274.951 187.965C275.888 188.354 276.74 188.923 277.457 189.64C278.175 190.357 278.744 191.209 279.132 192.146C279.52 193.083 279.72 194.088 279.72 195.102V198.363C279.72 199.378 279.521 200.383 279.133 201.32C278.745 202.257 278.176 203.109 277.458 203.827C276.741 204.544 275.89 205.114 274.952 205.502C274.015 205.89 273.011 206.09 271.996 206.09Z" fill="#233B5E"/>
<path d="M253.824 181.184C252.078 181.184 250.384 180.594 249.017 179.508C247.65 178.423 246.69 176.907 246.295 175.206C245.899 173.506 246.091 171.722 246.839 170.145C247.587 168.567 248.847 167.29 250.414 166.52C264.211 159.746 278.204 159.746 292 166.52C292.911 166.967 293.726 167.588 294.396 168.35C295.067 169.111 295.581 169.998 295.909 170.958C296.237 171.918 296.372 172.934 296.307 173.947C296.243 174.959 295.979 175.949 295.531 176.86C295.084 177.771 294.462 178.585 293.701 179.256C292.939 179.927 292.053 180.44 291.093 180.768C290.132 181.096 289.117 181.231 288.104 181.167C287.092 181.102 286.102 180.838 285.191 180.39C275.781 175.77 266.633 175.773 257.223 180.39C256.166 180.912 255.003 181.184 253.824 181.184ZM199.598 181.184C198.419 181.184 197.256 180.913 196.199 180.391C186.789 175.773 177.641 175.773 168.23 180.391C166.395 181.256 164.294 181.365 162.38 180.694C160.466 180.024 158.892 178.628 157.998 176.807C157.104 174.986 156.962 172.887 157.603 170.962C158.243 169.038 159.615 167.442 161.421 166.52C175.219 159.746 189.211 159.746 203.008 166.52C206.84 168.398 208.418 173.027 206.539 176.86C205.902 178.158 204.914 179.251 203.687 180.015C202.46 180.779 201.044 181.184 199.598 181.184Z" fill="#AF6A3A"/>
<path d="M121.293 497.11V465.03C121.293 462.981 120.479 461.016 119.03 459.567C117.581 458.118 115.616 457.304 113.566 457.304C111.517 457.304 109.552 458.118 108.103 459.567C106.654 461.016 105.84 462.981 105.84 465.03V492.093C110.949 493.891 116.102 495.563 121.293 497.108V497.11ZM347.582 492.094V465.03C347.582 462.981 346.768 461.016 345.319 459.567C343.87 458.118 341.905 457.304 339.855 457.304C337.806 457.304 335.841 458.118 334.392 459.567C332.943 461.016 332.129 462.981 332.129 465.03V497.108C337.32 495.564 342.473 493.892 347.582 492.093V492.094Z" fill="#B4CBDB"/>
<path d="M226.71 250.438C216.992 250.438 207.559 247.457 199.434 241.824C195.926 239.394 195.054 234.578 197.484 231.07C199.918 227.566 204.73 226.691 208.238 229.125C213.766 232.957 220.152 234.98 226.711 234.98C233.27 234.98 239.661 232.957 245.187 229.125C248.691 226.691 253.507 227.566 255.937 231.07C256.516 231.903 256.925 232.843 257.14 233.835C257.356 234.827 257.373 235.851 257.193 236.85C257.012 237.848 256.637 238.802 256.087 239.655C255.538 240.509 254.826 241.246 253.992 241.824C245.867 247.457 236.434 250.437 226.711 250.437L226.71 250.438Z" fill="#B26344"/>
<path d="M364.52 120.773V114.512C364.52 51.27 313.25 0 250.008 0H203.414C140.172 0 88.906 51.27 88.906 114.512V120.773L62.125 143.324C57.887 146.894 60.41 153.804 65.949 153.804H387.473C393.012 153.804 395.535 146.894 391.297 143.324L364.52 120.773Z" fill="#3872B7"/>
<path d="M391.297 143.324L364.52 120.774V114.512C364.52 51.27 313.25 0 250.008 0H218.27C279.973 0 329.992 51.27 329.992 114.512V120.773L356.117 143.324C360.254 146.894 357.789 153.804 352.387 153.804H387.473C393.012 153.804 395.535 146.894 391.297 143.324Z" fill="#254D87"/>
<path d="M88.906 114.512V120.773L79.73 128.5H373.691L364.516 120.773V114.512C364.516 114.02 364.504 113.535 364.5 113.047H88.926C88.918 113.535 88.906 114.02 88.906 114.512Z" fill="#254D87"/>
<path d="M329.973 113.047C330.008 115.77 329.984 115.664 329.993 120.773L338.941 128.5H373.695L364.52 120.773C364.512 117.27 364.535 115.785 364.5 113.047H329.973Z" fill="#193D68"/>
<path d="M203.559 358.906C193.523 370.786 181.074 384.508 173.902 388.645C162.234 386.055 148.539 366.793 139.961 352.805C139.002 351.251 138.062 349.686 137.141 348.109C135.489 345.286 134.821 341.995 135.242 338.751C135.662 335.508 137.148 332.496 139.465 330.188C147.415 322.289 159.328 310.512 165.293 305V326.535C165.293 332.047 163.332 337.258 159.945 341.335C171.918 352.547 188.84 355.242 199.605 357.675C200.969 357.988 202.289 358.398 203.559 358.906ZM316.281 348.11C315.361 349.686 314.423 351.251 313.465 352.805C304.887 366.793 291.187 386.055 279.523 388.645C272.348 384.508 259.898 370.785 249.867 358.906C251.137 358.398 252.457 357.988 253.82 357.68C264.586 355.242 281.504 352.547 293.477 341.336C290.024 337.177 288.134 331.942 288.133 326.536V305.004C294.098 310.516 306.012 322.293 313.957 330.187C316.274 332.495 317.76 335.507 318.181 338.751C318.601 341.995 317.933 345.287 316.281 348.11Z" fill="#3872B7"/>
<path d="M316.285 348.11C315.363 349.686 314.421 351.251 313.461 352.805C313.441 352.835 313.421 352.879 313.398 352.91C309.836 358.71 305.395 365.414 300.594 371.441C277.176 360.555 272.648 360.523 267.176 354.598C272.09 353.285 277.93 351.324 282.434 348.965C282.539 348.965 288.32 346.133 293.477 341.34C290.025 337.178 288.134 331.942 288.129 326.535V305.004C294.094 310.516 306.012 322.289 313.957 330.191C318.727 334.934 319.672 342.298 316.285 348.11Z" fill="#254D87"/>
<path d="M157.145 89.9685C156.13 89.9687 155.125 89.7689 154.188 89.3806C153.25 88.9924 152.398 88.4232 151.681 87.7056C150.963 86.9881 150.394 86.1362 150.006 85.1987C149.618 84.2611 149.418 83.2563 149.418 82.2415V78.1215C149.418 76.0723 150.232 74.1071 151.681 72.6581C153.13 71.2091 155.095 70.395 157.144 70.395C159.194 70.395 161.159 71.2091 162.608 72.6581C164.057 74.1071 164.871 76.0723 164.871 78.1215V82.2415C164.871 83.2563 164.672 84.2612 164.284 85.1988C163.896 86.1364 163.327 86.9883 162.609 87.7059C161.892 88.4235 161.04 88.9926 160.102 89.3809C159.165 89.7691 158.16 89.9688 157.145 89.9685ZM226.71 89.9685C225.695 89.9685 224.691 89.7687 223.753 89.3803C222.816 88.992 221.964 88.4228 221.247 87.7053C220.529 86.9878 219.96 86.1359 219.572 85.1985C219.184 84.261 218.984 83.2562 218.984 82.2415V78.1215C218.984 76.0724 219.799 74.1073 221.248 72.6583C222.697 71.2093 224.662 70.3951 226.711 70.3945C228.76 70.3953 230.724 71.2096 232.173 72.6583C233.622 74.107 234.436 76.0717 234.437 78.1205V82.2415C234.437 83.2563 234.238 84.2612 233.85 85.1988C233.462 86.1364 232.893 86.9883 232.175 87.7059C231.458 88.4235 230.606 88.9926 229.668 89.3809C228.731 89.7691 227.725 89.9688 226.71 89.9685ZM296.277 89.9685C295.262 89.9685 294.258 89.7687 293.32 89.3803C292.383 88.992 291.531 88.4228 290.814 87.7053C290.096 86.9878 289.527 86.1359 289.139 85.1985C288.751 84.261 288.551 83.2562 288.551 82.2415V78.1215C288.551 76.0723 289.365 74.1071 290.814 72.6581C292.263 71.2091 294.228 70.395 296.277 70.395C298.327 70.395 300.292 71.2091 301.741 72.6581C303.19 74.1071 304.004 76.0723 304.004 78.1215V82.2415C304.004 83.2564 303.805 84.2613 303.417 85.199C303.028 86.1367 302.459 86.9886 301.742 87.7062C301.024 88.4238 300.172 88.993 299.234 89.3812C298.297 89.7693 297.292 89.9689 296.277 89.9685Z" fill="#193D68"/>
<path d="M385.484 332.541C381.793 330.403 377.063 331.673 374.934 335.368L274.664 509.036C281.206 508.225 287.725 507.238 294.214 506.076L388.312 343.094C389.337 341.32 389.614 339.211 389.084 337.231C388.554 335.252 387.259 333.564 385.484 332.54V332.541Z" fill="#874D26"/>
<path d="M461.695 331.563L348.23 266.055C347.282 265.507 346.156 265.358 345.098 265.641C344.041 265.924 343.138 266.614 342.59 267.562L323.379 300.84C323.108 301.309 322.931 301.827 322.861 302.365C322.79 302.902 322.826 303.448 322.966 303.972C323.106 304.495 323.349 304.986 323.679 305.416C324.009 305.846 324.421 306.206 324.891 306.477L438.355 371.988C439.303 372.535 440.43 372.684 441.488 372.4C442.546 372.117 443.448 371.425 443.996 370.477L463.207 337.203C463.478 336.733 463.654 336.215 463.725 335.677C463.796 335.139 463.76 334.593 463.62 334.069C463.479 333.546 463.237 333.055 462.907 332.625C462.577 332.194 462.165 331.834 461.695 331.563Z" fill="#BDC3C6"/>
<path d="M434.875 316.078L375.047 281.535C374.007 280.938 372.238 282.051 371.097 284.023L351.887 317.297C350.747 319.273 350.668 321.359 351.707 321.961L411.535 356.504C412.578 357.105 414.344 355.988 415.485 354.016L434.695 320.742C435.835 318.766 435.918 316.68 434.875 316.078Z" fill="#52668E"/>
</g>
<defs>
<clipPath id="clip0_170_7195">
<rect width="512" height="512" fill="white"/>
</clipPath>
</defs>
</svg>
