<svg width="512" height="512" viewBox="0 0 512 512" fill="none" xmlns="http://www.w3.org/2000/svg">
<g clip-path="url(#clip0_170_7054)">
<g clip-path="url(#clip1_170_7054)">
<path d="M285.104 53.8911C250.299 19.0861 204.005 -0.0578686 154.775 0.000131405C105.581 0.0591314 58.543 20.2441 23.758 55.0291L4.39395 74.3931C2.11519 76.6722 0.630966 79.6246 0.161064 82.8131C-0.308839 86.0015 0.260563 89.2565 1.78495 92.0961L41.099 165.311L229.913 245.636L317.775 102.861C319.543 99.9876 320.291 96.6017 319.898 93.2507C319.504 89.8996 317.993 86.779 315.607 84.3931L285.104 53.8911Z" fill="#BEE75E"/>
<path d="M315.607 84.3941L285.104 53.8911C250.299 19.0861 204.005 -0.0578686 154.775 0.000131405C144.797 0.017808 134.839 0.860681 125 2.52013V201.005L229.913 245.637L317.775 102.862C319.543 99.9886 320.291 96.6027 319.898 93.2517C319.505 89.9006 317.993 86.78 315.607 84.3941Z" fill="#00DA80"/>
<path d="M497 317H335C326.716 317 320 310.284 320 302L350 287H497C505.284 287 512 293.716 512 302C512 310.284 505.284 317 497 317Z" fill="#AF705C"/>
<path d="M275 287V362H335C343.284 362 350 355.284 350 347V287H275Z" fill="#E2DFF4"/>
<path d="M260 362H47.218C38.934 362 32.218 355.284 32.218 347V160C32.218 151.716 38.934 145 47.218 145H105C132.614 145 155 167.386 155 195V225H225C260.898 225 275 254.101 275 290V347C275 355.284 268.284 362 260 362Z" fill="#FF7C48"/>
<path d="M225 225H155V195C155 174.499 142.656 156.889 125 149.172V362H260C268.284 362 275 355.284 275 347V290C275 254.102 260.898 225 225 225Z" fill="#FF4A4A"/>
<path d="M225 210H170V195C170 159.101 140.899 130 105 130H47.218C38.934 130 32.218 136.716 32.218 145V160H105C124.33 160 140 175.67 140 195V225C140 233.284 146.716 240 155 240H225C244.33 240 260 255.67 260 275V362H290V275C290 239.102 260.899 210 225 210Z" fill="#FF4A4A"/>
<path d="M225 210H170V195C170 166.082 151.11 141.587 125 133.149V166.284C134.064 172.609 140 183.109 140 195V225C140 233.284 146.716 240 155 240H225C244.33 240 260 255.67 260 275V362H290V275C290 239.102 260.898 210 225 210Z" fill="#9D3B6E"/>
<path d="M125 497C185.751 497 235 447.751 235 387C235 326.249 185.751 277 125 277C64.2487 277 15 326.249 15 387C15 447.751 64.2487 497 125 497Z" fill="#AF705C"/>
<path d="M125 277V497C185.654 497 235 447.654 235 387C235 326.346 185.654 277 125 277Z" fill="#63544F"/>
<path d="M125 262C56.075 262 0 318.075 0 387C0 455.925 56.075 512 125 512C193.925 512 250 455.925 250 387C250 318.075 193.925 262 125 262ZM201.91 442.697L161.213 402H218.812C216.418 417.023 210.49 430.882 201.91 442.697ZM31.188 402H88.787L48.09 442.697C39.51 430.882 33.582 417.023 31.188 402ZM48.09 331.303L88.787 372H31.188C33.582 356.977 39.51 343.119 48.09 331.303ZM218.812 372H161.213L201.91 331.303C210.49 343.119 216.418 356.977 218.812 372ZM140 350.787V293.188C155.023 295.581 168.881 301.509 180.697 310.09L140 350.787ZM110 350.787L69.303 310.09C81.119 301.51 94.977 295.581 110 293.188V350.787ZM110 423.213V480.812C94.977 478.419 81.119 472.49 69.303 463.91L110 423.213ZM140 423.213L180.697 463.91C168.881 472.49 155.023 478.419 140 480.812V423.213Z" fill="#C6865C"/>
<path d="M125 262V512C193.925 512 250 455.925 250 387C250 318.075 193.925 262 125 262ZM218.812 372H161.213L201.91 331.303C210.49 343.119 216.418 356.977 218.812 372ZM140 293.188C155.023 295.581 168.881 301.509 180.697 310.09L140 350.787V293.188ZM140 480.812V423.213L180.697 463.91C168.882 472.49 155.023 478.418 140 480.812ZM201.91 442.697L161.213 402H218.812C216.418 417.023 210.49 430.882 201.91 442.697Z" fill="#AF705C"/>
<path d="M125 432C149.853 432 170 411.853 170 387C170 362.147 149.853 342 125 342C100.147 342 80 362.147 80 387C80 411.853 100.147 432 125 432Z" fill="#F9F9F9"/>
<path d="M125 342V432C149.813 432 170 411.813 170 387C170 362.187 149.814 342 125 342Z" fill="#E2DFF4"/>
<path d="M125 402C133.284 402 140 395.284 140 387C140 378.716 133.284 372 125 372C116.716 372 110 378.716 110 387C110 395.284 116.716 402 125 402Z" fill="#C6865C"/>
<path d="M125 372V402C133.271 402 140 395.271 140 387C140 378.729 133.272 372 125 372Z" fill="#AF705C"/>
</g>
</g>
<defs>
<clipPath id="clip0_170_7054">
<rect width="512" height="512" fill="white"/>
</clipPath>
<clipPath id="clip1_170_7054">
<rect width="512" height="512" fill="white"/>
</clipPath>
</defs>
</svg>
