<svg width="512" height="512" viewBox="0 0 512 512" fill="none" xmlns="http://www.w3.org/2000/svg">
<g clip-path="url(#clip0_185_112)">
<rect width="512" height="512" fill="white"/>
<g clip-path="url(#clip1_185_112)">
<path fill-rule="evenodd" clip-rule="evenodd" d="M57 290.703L141.746 269.75L192.141 257.29L190.887 190.777L57 262.137V290.703ZM268.133 257.29L270.137 151.129L450.273 247.137V283.312C430.891 269.88 407.367 262 382 262C364.047 262 347.023 265.95 331.727 273.016L318.523 269.75L268.133 257.29Z" fill="#37BBDA"/>
<path fill-rule="evenodd" clip-rule="evenodd" d="M409 265.07C355.832 277.375 316 325.184 316 382C316 438.813 355.832 486.621 409 498.926C462.168 486.621 502 438.813 502 382C502 325.184 462.168 277.375 409 265.07Z" fill="#F95C4B"/>
<path fill-rule="evenodd" clip-rule="evenodd" d="M230 422.613L276.105 438.496C267.105 421.66 262 402.426 262 382C262 372.027 263.227 362.344 265.52 353.082V353.043L267.855 257.289L270.137 150.852L270.762 121.738L272.246 52.246C272.368 46.6918 271.331 41.1732 269.199 36.043C246.766 36.996 228.266 55.617 228.75 78.246L230.066 139.699L231.136 177.129L233.141 283.289L235.777 391.215L191.507 429.547V435.875L230 422.613Z" fill="#69DAF4"/>
<path d="M460 278.063V247.137C460 243.449 457.969 240.062 454.719 238.32L280.266 144.934L282.242 52.461C282.535 38.801 277.34 25.801 267.609 15.859C257.742 5.777 244.031 0 229.992 0C215.961 0 202.254 5.781 192.387 15.86C182.657 25.8 177.461 38.797 177.75 52.46L179.07 113.988L179.965 145.218L5.297 238.314C3.69705 239.166 2.35893 240.437 1.42587 241.991C0.492814 243.546 -6.07725e-05 245.324 5.62038e-09 247.137L5.62038e-09 302.328C0.000185573 303.845 0.345593 305.342 1.01007 306.706C1.67454 308.07 2.64066 309.265 3.83526 310.201C5.02986 311.136 6.42162 311.787 7.90515 312.105C9.38867 312.423 10.9251 312.399 12.398 312.035L131.746 282.523V293.555C131.746 299.078 136.223 303.555 141.746 303.555C147.27 303.555 151.746 299.078 151.746 293.555V277.578L182.449 269.984L184.668 360.742L143.961 395.988C142.876 396.926 142.006 398.087 141.409 399.391C140.813 400.695 140.504 402.113 140.504 403.547V450C140.504 451.593 140.885 453.163 141.615 454.578C142.345 455.994 143.402 457.216 144.699 458.14C145.996 459.065 147.495 459.667 149.071 459.895C150.648 460.123 152.256 459.972 153.762 459.453L230 433.191L269.29 446.727C291.762 485.703 333.867 511.997 382 511.997C453.684 511.997 512 453.68 512 381.997C512 339.559 491.555 301.805 460 278.063ZM440 253.129V265.629C428.134 259.699 415.422 255.638 402.316 253.589C402.078 253.555 401.84 253.512 401.602 253.477C400.855 253.363 400.105 253.262 399.355 253.16C398.91 253.102 398.469 253.043 398.023 252.988C397.371 252.906 396.715 252.832 396.063 252.762C394.922 252.639 393.78 252.531 392.637 252.438C391.992 252.383 391.344 252.34 390.695 252.297C390.175 252.262 389.656 252.227 389.137 252.195C388.375 252.156 387.609 252.125 386.844 252.098C386.422 252.082 386.004 252.063 385.586 252.051C384.391 252.017 383.196 251.999 382 251.996C364.164 251.996 346.922 255.539 330.695 262.523L328.246 261.922V252.52C328.246 246.996 323.77 242.52 318.246 242.52C312.726 242.52 308.246 246.996 308.246 252.52V256.977L278.023 249.5L279.785 167.36L440 253.129ZM277.547 269.984L305.562 276.914C294.474 285.001 284.725 294.78 276.672 305.894L277.547 269.984ZM141.747 242.52C136.223 242.52 131.747 247 131.747 252.52V261.922L20 289.555V253.14L180.45 167.624L181.992 249.495L151.746 256.975V252.519C151.746 246.995 147.27 242.519 141.746 242.519L141.747 242.52ZM258.223 421.758L233.253 413.16C231.144 412.43 228.852 412.43 226.743 413.16L160.503 435.977V408.117L201.324 372.777C202.439 371.81 203.327 370.609 203.924 369.259C204.521 367.909 204.812 366.444 204.777 364.969L202.141 257.043L200.137 150.938C200.137 150.918 200.133 150.902 200.133 150.883V150.84L197.746 52.031C197.57 43.789 200.742 35.911 206.68 29.848C212.809 23.59 221.305 19.996 230 19.996C238.691 19.996 247.188 23.586 253.316 29.848C259.254 35.91 262.426 43.789 262.25 52.031L260.14 150.637L257.86 257.039L255.547 351.762C255.504 351.945 255.469 352.129 255.426 352.312C255.266 352.996 255.113 353.684 254.965 354.372C254.871 354.805 254.77 355.238 254.68 355.672C254.441 356.828 254.219 357.992 254.012 359.16C253.984 359.297 253.965 359.438 253.942 359.574C253.758 360.625 253.586 361.676 253.43 362.73C253.387 363.027 253.348 363.324 253.305 363.621C253.175 364.52 253.055 365.421 252.945 366.328L252.828 367.371C252.73 368.227 252.645 369.086 252.562 369.945C252.532 370.316 252.496 370.688 252.465 371.063C252.396 371.905 252.334 372.747 252.281 373.59C252.258 373.969 252.231 374.348 252.207 374.727C252.16 375.602 252.125 376.477 252.094 377.355C252.082 377.695 252.063 378.031 252.054 378.371C252.018 379.579 252 380.787 252 381.996C252 383.536 252.04 385.063 252.09 386.59L252.125 387.484C252.6 399.053 254.628 410.506 258.156 421.535C258.18 421.609 258.199 421.688 258.223 421.758ZM382 492C334.766 492 294.39 462.066 278.836 420.18C278.738 419.914 278.641 419.652 278.546 419.387C278.124 418.222 277.724 417.05 277.344 415.871C277.25 415.59 277.16 415.309 277.07 415.027C274.745 407.617 273.206 399.982 272.48 392.25C272.385 391.216 272.304 390.181 272.238 389.145C272.223 388.915 272.207 388.687 272.195 388.457C272.148 387.621 272.109 386.785 272.078 385.949C272.07 385.691 272.058 385.438 272.051 385.179C272.02 384.117 272 383.059 272 382C272 380.953 272.02 379.91 272.05 378.863C272.059 378.555 272.074 378.253 272.082 377.949C272.122 376.86 272.178 375.771 272.25 374.684C272.3 373.957 272.355 373.234 272.414 372.508C272.445 372.18 272.473 371.852 272.504 371.523C272.574 370.758 272.66 369.993 272.746 369.23C272.781 368.953 272.809 368.672 272.844 368.398C272.964 367.406 273.102 366.414 273.25 365.426C273.258 365.383 273.262 365.34 273.27 365.296C273.422 364.296 273.59 363.305 273.77 362.313C273.848 361.883 273.934 361.457 274.016 361.027C274.121 360.488 274.226 359.945 274.34 359.402C274.453 358.859 274.574 358.32 274.695 357.782C274.781 357.387 274.875 356.996 274.965 356.605C285.828 310.82 325.379 276.02 373.508 272.325L373.859 272.301C374.66 272.242 375.469 272.191 376.277 272.148C376.625 272.133 376.977 272.121 377.324 272.105C377.918 272.082 378.512 272.055 379.109 272.039C380.062 272.016 381.019 272 381.98 272H382.004C383.572 272.002 385.14 272.039 386.707 272.11C387.801 272.152 388.891 272.215 389.98 272.293C390.137 272.305 390.293 272.309 390.45 272.32C391.602 272.41 392.75 272.523 393.898 272.645C394.336 272.691 394.77 272.742 395.203 272.797C396.681 272.972 398.156 273.179 399.625 273.418C400.996 273.635 402.362 273.881 403.723 274.156C404.153 274.242 404.582 274.336 405.012 274.43C406.43 274.73 407.836 275.055 409.23 275.41C409.328 275.437 409.422 275.457 409.516 275.48C456.898 287.727 492.004 330.84 492.004 382C492 442.652 442.652 492 382 492Z" fill="black"/>
<path d="M423.656 340.344C419.75 336.441 413.418 336.441 409.512 340.344L382 367.855L354.484 340.344C350.582 336.438 344.25 336.438 340.344 340.344C336.438 344.246 336.438 350.578 340.344 354.484L367.855 382L340.344 409.512C336.438 413.418 336.438 419.75 340.344 423.656C341.271 424.586 342.373 425.323 343.587 425.826C344.8 426.329 346.101 426.587 347.414 426.586C348.727 426.587 350.028 426.329 351.241 425.826C352.455 425.323 353.557 424.586 354.484 423.656L382 396.141L409.512 423.656C410.439 424.586 411.541 425.323 412.755 425.826C413.968 426.329 415.269 426.587 416.582 426.586C417.895 426.588 419.196 426.33 420.41 425.827C421.623 425.324 422.725 424.586 423.652 423.656C427.559 419.75 427.559 413.418 423.652 409.512L396.141 382L423.652 354.484C427.559 350.582 427.559 344.25 423.656 340.344ZM151.75 223.555C151.75 218.031 147.273 213.555 141.75 213.555C136.227 213.555 131.75 218.031 131.75 223.555V223.789C131.75 229.313 136.227 233.789 141.75 233.789C147.273 233.789 151.75 229.313 151.75 223.789V223.555ZM318.25 233.79C323.773 233.79 328.25 229.313 328.25 223.79V223.555C328.25 218.031 323.773 213.555 318.25 213.555C312.727 213.555 308.25 218.031 308.25 223.555V223.789C308.25 229.313 312.727 233.79 318.25 233.79Z" fill="black"/>
</g>
</g>
<defs>
<clipPath id="clip0_185_112">
<rect width="512" height="512" fill="white"/>
</clipPath>
<clipPath id="clip1_185_112">
<rect width="512" height="512" fill="white"/>
</clipPath>
</defs>
</svg>
