<svg width="512" height="512" viewBox="0 0 512 512" fill="none" xmlns="http://www.w3.org/2000/svg">
<g clip-path="url(#clip0_185_123)">
<rect width="512" height="512" fill="white"/>
<g clip-path="url(#clip1_185_123)">
<path fill-rule="evenodd" clip-rule="evenodd" d="M19.2891 419.604H492.711C498.423 419.604 503.097 424.278 503.097 429.99V448.58C503.097 454.292 498.423 458.966 492.711 458.966H19.2891C13.5761 458.966 8.9021 454.292 8.9021 448.58V429.99C8.9031 424.278 13.5761 419.604 19.2891 419.604Z" fill="#837683"/>
<path fill-rule="evenodd" clip-rule="evenodd" d="M503.097 439.283V448.578C503.097 454.29 498.423 458.964 492.711 458.964H19.2891C13.5761 458.964 8.9021 454.29 8.9021 448.578V439.283H503.097Z" fill="#685E68"/>
<path fill-rule="evenodd" clip-rule="evenodd" d="M306.779 180.922H480.746C488.116 180.922 494.128 186.933 494.128 194.304V368.27C494.128 375.64 488.117 381.652 480.746 381.652H306.779C299.409 381.652 293.397 375.641 293.397 368.27V194.304C293.398 186.933 299.409 180.922 306.779 180.922Z" fill="#C48958"/>
<path fill-rule="evenodd" clip-rule="evenodd" d="M467.363 194.304V368.27C467.363 375.64 461.352 381.652 453.981 381.652H480.746C488.116 381.652 494.128 375.641 494.128 368.27V194.304C494.128 186.934 488.117 180.922 480.746 180.922H453.981C461.352 180.922 467.363 186.933 467.363 194.304Z" fill="#B5733E"/>
<path fill-rule="evenodd" clip-rule="evenodd" d="M360.158 180.922H427.367V249.437C427.367 256.807 421.356 262.819 413.985 262.819H373.54C366.17 262.819 360.158 256.808 360.158 249.437V180.922Z" fill="#F2D1A5"/>
<path fill-rule="evenodd" clip-rule="evenodd" d="M413.985 180.922V249.437C413.985 256.807 407.974 262.819 400.603 262.819H413.985C421.356 262.819 427.367 256.808 427.367 249.437V180.922H413.985Z" fill="#E3A76F"/>
<path fill-rule="evenodd" clip-rule="evenodd" d="M235.902 169.246C246.933 167.408 257.365 174.859 259.204 185.89C261.042 196.921 253.59 207.354 242.559 209.192L194.846 217.203C192.123 217.66 189.335 217.554 186.654 216.891C183.973 216.227 181.457 215.021 179.261 213.347L155.928 196.286L144.091 237.577L185.018 271.886C191.076 276.955 193.422 284.814 191.75 292.016L174.509 365.568C171.97 376.467 161.076 383.245 150.177 380.706C139.278 378.168 132.5 367.273 135.039 356.374L149.447 294.929L132.04 280.337L130.647 285.281C129.504 289.379 127.095 293.009 123.763 295.654L49.7431 359.102C41.2521 366.368 28.4761 365.374 21.2101 356.882C13.9441 348.391 14.9372 335.616 23.4292 328.349L93.3152 268.446C103.244 233.214 114.917 192.501 124.847 157.268C125.505 154.929 126.579 152.728 128.017 150.769C134.626 141.752 147.295 139.8 156.312 146.41L196.574 175.849L235.902 169.246Z" fill="#D1D1D6"/>
<path fill-rule="evenodd" clip-rule="evenodd" d="M196.574 175.849L156.312 146.41C147.295 139.8 134.626 141.752 128.017 150.769C126.579 152.728 125.505 154.929 124.847 157.268C123.861 160.767 122.857 164.32 121.84 167.917C122.501 165.618 123.564 163.454 124.98 161.525C131.59 152.508 144.258 150.556 153.275 157.166L193.537 186.605L232.865 180.003C243.896 178.165 254.328 185.616 256.167 196.647C256.348 197.734 256.439 198.815 256.445 199.882C259.037 195.71 260.018 190.735 259.204 185.891C257.365 174.86 246.933 167.409 235.902 169.247L196.574 175.849Z" fill="#B1B1B5"/>
<path fill-rule="evenodd" clip-rule="evenodd" d="M144.091 237.578H102.052C99.1295 247.865 96.2168 258.155 93.3141 268.447L23.4281 328.35C14.9371 335.616 13.9431 348.392 21.2091 356.883C28.4751 365.375 41.2511 366.368 49.7421 359.103L123.762 295.655C127.094 293.011 129.504 289.38 130.646 285.282L132.039 280.338L149.446 294.93L135.038 356.375C132.499 367.274 139.277 378.169 150.176 380.707C161.075 383.246 171.969 376.468 174.508 365.569L191.749 292.017C193.421 284.814 191.075 276.955 185.017 271.887L144.091 237.578Z" fill="#837683"/>
<path fill-rule="evenodd" clip-rule="evenodd" d="M176.375 295.017L159.134 368.569C157.974 373.58 154.945 377.96 150.665 380.814C161.399 383.042 172.008 376.305 174.508 365.569L191.749 292.017C193.421 284.814 191.075 276.955 185.017 271.887L144.09 237.578H125.217L169.642 274.887C175.701 279.955 178.047 287.815 176.375 295.017Z" fill="#685E68"/>
<path d="M214.268 98.7173C215.3 79.9763 200.943 63.9476 182.202 62.9162C163.461 61.8848 147.432 76.2413 146.401 94.9824C145.37 113.723 159.726 129.752 178.467 130.783C197.208 131.815 213.237 117.458 214.268 98.7173Z" fill="#F6DCCD"/>
<path fill-rule="evenodd" clip-rule="evenodd" d="M156.447 97.0202C156.447 114.09 169.033 128.221 185.431 130.639C183.776 130.883 182.104 131.005 180.431 131.004C161.662 131.004 146.446 115.789 146.446 97.0192C146.446 78.2502 161.661 63.0342 180.431 63.0342C182.13 63.0342 183.799 63.1592 185.431 63.3992C169.034 65.8192 156.447 79.9502 156.447 97.0202Z" fill="#F1CBBC"/>
</g>
</g>
<defs>
<clipPath id="clip0_185_123">
<rect width="512" height="512" fill="white"/>
</clipPath>
<clipPath id="clip1_185_123">
<rect width="512" height="512" fill="white"/>
</clipPath>
</defs>
</svg>
