<svg width="512" height="512" viewBox="0 0 512 512" fill="none" xmlns="http://www.w3.org/2000/svg">
<g clip-path="url(#clip0_170_6772)">
<g clip-path="url(#clip1_170_6772)">
<path d="M22.077 392.267L124.372 289.972C156.769 257.575 180.173 257.575 212.569 289.972L183.031 348.631L80.736 450.926C64.538 467.124 38.275 467.124 22.077 450.926C5.87799 434.727 5.87799 408.465 22.077 392.267Z" fill="#FFDFCF"/>
<path d="M37.4429 460.655C31.6606 458.591 26.4107 455.265 22.0749 450.918C13.9759 442.819 9.93188 432.201 9.93188 421.593C9.93188 410.985 13.9759 400.366 22.0749 392.268L124.371 289.972C156.766 257.567 180.17 257.567 212.575 289.972L210.263 294.566C190.302 285.617 172.072 292.451 149.466 315.067L47.1699 417.352C39.0709 425.461 35.0269 436.069 35.0269 446.688C35.0269 451.416 35.8259 456.144 37.4429 460.655Z" fill="#FFCEBF"/>
<path d="M183.029 348.636L124.368 289.975L174.464 239.879C206.859 207.484 259.381 207.484 291.786 239.879L183.029 348.636Z" fill="#62DBFB"/>
<path d="M149.466 315.066L124.372 289.972L174.468 239.876C206.863 207.481 259.385 207.481 291.79 239.876L286.159 245.507C256.917 235.065 222.977 241.556 199.562 264.971L149.466 315.066Z" fill="#01D0FB"/>
<path d="M476.38 129.39C485.495 129.39 494.611 132.867 501.566 139.822C515.476 153.732 515.476 176.284 501.566 190.194L422.562 269.198C408.652 283.108 386.1 283.108 372.19 269.198L303.546 200.554C289.636 186.644 289.636 164.092 303.546 150.182C317.455 136.272 340.008 136.272 353.918 150.182L397.377 193.64L451.195 139.822C458.149 132.867 467.264 129.39 476.38 129.39Z" fill="#FFDFCF"/>
<path d="M508.219 149.082C503.277 146.611 497.828 145.327 492.303 145.332C483.196 145.332 474.079 148.804 467.126 155.757L413.299 209.573L397.362 193.636L451.189 139.82C458.143 132.866 467.26 129.395 476.366 129.395C485.483 129.395 494.6 132.867 501.554 139.82C504.266 142.523 506.517 145.651 508.219 149.082ZM443.294 248.47L422.565 269.199C408.649 283.115 386.095 283.115 372.19 269.199L303.543 200.563C289.637 186.647 289.637 164.093 303.543 150.187C307.114 146.606 311.41 143.83 316.142 142.047C311.351 154.739 314.058 169.609 324.272 179.834L392.919 248.47C406.824 262.386 429.378 262.386 443.294 248.47Z" fill="#FFCEBF"/>
<path d="M286.288 286.946L235.131 235.789L209.336 181.219L267.204 123.351C292.427 98.1278 333.32 98.1278 358.543 123.351C383.766 148.574 383.766 189.467 358.543 214.69L286.288 286.946Z" fill="#537983"/>
<path d="M370.706 140.244C346.545 128.194 316.4 132.249 296.252 152.397L238.38 210.27L264.18 264.835L235.124 235.79L209.335 181.215L267.197 123.353C292.426 98.1244 333.314 98.1244 358.543 123.353C363.488 128.286 367.596 133.991 370.706 140.244Z" fill="#3E5959"/>
<path d="M361.724 450.926L259.428 348.631C227.031 316.234 227.031 292.83 259.428 260.434L318.087 289.972L420.382 392.267C436.58 408.465 436.58 434.728 420.382 450.926C404.184 467.124 377.922 467.124 361.724 450.926Z" fill="#FFDFCF"/>
<path d="M430.112 435.559C428.048 441.341 424.722 446.591 420.375 450.927C412.276 459.026 401.658 463.07 391.05 463.07C380.442 463.07 369.823 459.026 361.725 450.927L259.428 348.631C227.023 316.236 227.023 292.832 259.428 260.427L264.022 262.739C255.073 282.7 261.907 300.93 284.523 323.536L386.809 425.832C394.918 433.931 405.526 437.975 416.145 437.975C420.905 437.979 425.63 437.162 430.112 435.559Z" fill="#FFCEBF"/>
<path d="M318.092 289.973L259.431 348.634L209.335 298.538C176.94 266.143 176.94 213.621 209.335 181.216L318.092 289.973Z" fill="#62DBFB"/>
<path d="M284.523 323.536L259.429 348.63L209.333 298.534C176.938 266.139 176.938 213.617 209.333 181.212L214.964 186.843C204.522 216.085 211.013 250.025 234.428 273.44L284.523 323.536Z" fill="#01D0FB"/>
<path d="M150.856 174.561C141.741 174.561 132.625 171.084 125.67 164.129C111.76 150.219 111.76 127.667 125.67 113.757L204.674 34.7528C218.584 20.8428 241.136 20.8428 255.046 34.7528L293.684 73.3908C307.594 87.3008 307.594 109.853 293.684 123.763C279.775 137.673 257.222 137.673 243.312 123.763L229.86 110.31L176.042 164.128C169.087 171.083 159.971 174.561 150.856 174.561Z" fill="#FFDFCF"/>
<path d="M278.236 57.9494C264.33 44.0334 241.777 44.0334 227.871 57.9494L148.865 136.955C139.138 146.682 136.204 160.629 140.092 172.896C134.644 171.183 129.695 168.173 125.668 164.123C111.752 150.217 111.752 127.664 125.668 113.758L204.674 34.7524C218.58 20.8364 241.134 20.8364 255.039 34.7524L278.236 57.9494Z" fill="#FFCEBF"/>
<path d="M323.69 153.768C309.784 167.684 287.23 167.684 273.325 153.768L243.315 123.758L293.68 73.3926L345.164 124.877C359.081 138.783 337.606 139.862 323.69 153.768Z" fill="#537983"/>
<path d="M373.229 0C346.221 0 324.327 21.894 324.327 48.902V95.484C324.327 122.492 346.221 144.386 373.229 144.386C400.237 144.386 422.131 122.492 422.131 95.484V48.902C422.13 21.894 400.236 0 373.229 0Z" fill="#FFDFCF"/>
<path d="M389.023 2.605C369.771 9.173 355.922 27.419 355.922 48.896L355.915 95.48C355.922 116.963 369.764 135.202 389.016 141.771C383.933 143.506 378.599 144.388 373.228 144.382C346.222 144.382 324.326 122.486 324.326 95.48V48.902C324.32 21.89 346.216 -0.00699832 373.229 1.67784e-06C378.758 1.67784e-06 384.06 0.919002 389.023 2.605Z" fill="#FFCEBF"/>
<path d="M383.137 94.358C381.088 94.358 379.123 93.544 377.674 92.0951C376.225 90.6462 375.411 88.681 375.411 86.632V72.727C375.411 70.6779 376.225 68.7128 377.674 67.2639C379.123 65.815 381.088 65.001 383.137 65.001C385.186 65.001 387.151 65.815 388.6 67.2639C390.049 68.7128 390.863 70.6779 390.863 72.727V86.632C390.863 88.681 390.049 90.6462 388.6 92.0951C387.151 93.544 385.186 94.358 383.137 94.358ZM402.953 94.358C400.904 94.358 398.939 93.544 397.49 92.0951C396.041 90.6462 395.227 88.681 395.227 86.632V72.727C395.227 70.6779 396.041 68.7128 397.49 67.2639C398.939 65.815 400.904 65.001 402.953 65.001C405.002 65.001 406.967 65.815 408.416 67.2639C409.865 68.7128 410.679 70.6779 410.679 72.727V86.632C410.679 87.6466 410.479 88.6513 410.091 89.5887C409.703 90.5262 409.134 91.3779 408.416 92.0954C407.699 92.8128 406.847 93.3819 405.91 93.7701C404.972 94.1584 403.968 94.3581 402.953 94.358Z" fill="#537983"/>
<path d="M487.534 463.07H24.466C10.955 463.07 0.00195312 474.023 0.00195312 487.534C0.00195312 501.045 10.955 511.998 24.466 511.998H487.534C501.045 511.998 511.998 501.045 511.998 487.534C511.998 474.022 501.045 463.07 487.534 463.07Z" fill="#537983"/>
<path d="M122.84 504.83C127.27 509.26 133.389 512 140.137 512H24.469C21.2554 512.005 18.0727 511.374 15.104 510.144C12.1354 508.913 9.43964 507.107 7.17198 504.83C4.8949 502.563 3.08905 499.867 1.85848 496.898C0.627914 493.93 -0.00303678 490.747 0.00198284 487.533C0.00198284 474.017 10.953 463.066 24.469 463.066H140.137C126.631 463.066 115.681 474.017 115.681 487.533C115.676 490.746 116.306 493.928 117.535 496.896C118.763 499.864 120.566 502.561 122.84 504.83Z" fill="#3E5959"/>
</g>
</g>
<defs>
<clipPath id="clip0_170_6772">
<rect width="512" height="512" fill="white"/>
</clipPath>
<clipPath id="clip1_170_6772">
<rect width="512" height="512" fill="white"/>
</clipPath>
</defs>
</svg>
