<svg width="512" height="512" viewBox="0 0 512 512" fill="none" xmlns="http://www.w3.org/2000/svg">
<g clip-path="url(#clip0_170_6631)">
<g clip-path="url(#clip1_170_6631)">
<path d="M148.509 272.907C144.924 266.333 141.827 260.656 141.827 248.642V218.196H126.604V248.642C126.604 260.655 123.508 266.333 119.922 272.907C115.919 280.246 111.381 288.565 111.381 304.46C111.381 317.051 121.625 327.294 134.216 327.294C146.806 327.294 157.05 317.051 157.05 304.46C157.05 288.564 152.513 280.246 148.509 272.907ZM134.216 312.071C130.018 312.071 126.604 308.657 126.604 304.46C126.604 292.447 129.701 286.769 133.286 280.195C133.594 279.632 133.904 279.063 134.216 278.484C134.527 279.063 134.838 279.632 135.145 280.195C138.731 286.769 141.827 292.446 141.827 304.46C141.827 308.657 138.413 312.071 134.216 312.071Z" fill="#4F4F4F"/>
<path d="M111.382 202.973H96.1587C96.1587 190.382 106.403 180.139 118.993 180.139H256V195.362H118.993C114.796 195.362 111.382 198.776 111.382 202.973Z" fill="#FFF0D3"/>
<path d="M338.549 468.353L295.24 399.848C294.47 398.637 294.06 397.233 294.057 395.798V289.237H278.834V395.798C278.834 400.112 280.059 404.328 282.374 407.986L324.503 474.624V504.388C324.503 508.592 327.91 512 332.115 512C336.32 512 339.726 508.592 339.726 504.388V472.42C339.727 470.98 339.318 469.57 338.549 468.353ZM408.23 88.8018C406.211 88.8018 404.275 89.6037 402.848 91.0311C401.42 92.4585 400.618 94.3946 400.618 96.4133C400.618 142.581 363.058 180.14 316.892 180.14H256V195.363H316.892C371.453 195.363 415.841 150.974 415.841 96.4133C415.841 92.2087 412.435 88.8018 408.23 88.8018Z" fill="#FFD9D4"/>
<path d="M217.942 289.237V488.752L192.703 497.165C190.787 497.803 189.204 499.176 188.301 500.982C187.398 502.788 187.25 504.878 187.888 506.793C188.526 508.708 189.899 510.292 191.705 511.194C193.511 512.097 195.601 512.246 197.516 511.608L227.96 501.459C229.476 500.954 230.794 499.985 231.728 498.689C232.662 497.393 233.164 495.836 233.164 494.238V289.237H217.942Z" fill="#FFF0D3"/>
<path d="M134.216 15.2227V187.75C134.216 124.321 179.885 124.321 179.885 60.8916C179.885 35.6692 159.438 15.2227 134.216 15.2227Z" fill="#CCCCCC"/>
<path d="M134.216 15.2227C108.993 15.2227 88.5469 35.6692 88.5469 60.8916C88.5469 124.32 134.214 124.321 134.216 187.746C134.216 124.321 149.439 124.32 149.439 60.8916C149.439 35.6692 142.623 15.2227 134.216 15.2227Z" fill="#EBEBEB"/>
<path d="M134.216 7.61133C104.838 7.61133 80.9355 31.5124 80.9355 60.8918C80.9355 95.0613 93.2733 112.197 105.204 128.768C116.21 144.053 126.605 158.49 126.605 187.75V218.196H141.828V187.75C141.828 158.49 152.222 144.053 163.228 128.768C175.159 112.197 187.497 95.0613 187.497 60.8918C187.497 31.5124 163.594 7.61133 134.216 7.61133ZM150.873 119.874C144.887 128.189 138.798 136.646 134.216 147.326C129.634 136.646 123.545 128.189 117.559 119.874C106.553 104.589 96.1585 90.1514 96.1585 60.8918C96.1585 39.9064 113.231 22.8343 134.216 22.8343C155.201 22.8343 172.274 39.9064 172.274 60.8918C172.274 90.1514 161.879 104.589 150.873 119.874Z" fill="#FF6B8A"/>
<path d="M134.216 225.807H118.993C106.403 225.807 96.1587 215.564 96.1587 202.973C96.1587 198.769 99.5656 195.361 103.77 195.361C107.975 195.361 111.382 198.769 111.382 202.973C111.382 207.17 114.796 210.584 118.993 210.584H134.216C138.421 210.584 141.828 213.992 141.828 218.196C141.828 222.399 138.421 225.807 134.216 225.807Z" fill="#FFF0D3"/>
<path d="M408.23 20.2969C404.069 20.2969 400.172 21.4153 396.812 23.3597V62.904C400.281 64.9147 404.22 65.9714 408.23 65.9669C420.84 65.9669 431.064 55.7441 431.064 43.1324C431.064 30.5206 420.84 20.2969 408.23 20.2969Z" fill="#49C9FF"/>
<path d="M408.23 43.132C408.23 34.6812 403.636 27.3082 396.813 23.3604C389.99 27.3092 385.396 34.6822 385.396 43.132C385.396 51.5818 389.99 58.9558 396.813 62.9036C403.636 58.9548 408.23 51.5828 408.23 43.132Z" fill="#7DD9FF"/>
<path d="M296.594 167.453H266.148V248.642L316.892 218.196V187.75C316.892 176.54 307.805 167.453 296.594 167.453Z" fill="#FFD9D4"/>
<path d="M266.149 167.453H215.405C204.195 167.453 195.108 176.54 195.108 187.75V218.196L286.446 248.642V187.75C286.446 176.54 277.359 167.453 266.149 167.453Z" fill="#FFF0D3"/>
<path d="M210.331 289.237V334.906C210.331 343.309 217.151 350.129 225.554 350.129C233.957 350.129 240.777 343.309 240.777 334.906V332.297C245.54 333.98 250.661 334.906 256 334.906C261.339 334.906 266.46 333.98 271.223 332.297L291.52 258.791L210.331 289.237Z" fill="#EBEBEB"/>
<path d="M271.223 258.791V334.906C271.223 343.313 278.039 350.129 286.446 350.129C294.853 350.129 301.669 343.313 301.669 334.906V289.237L271.223 258.791Z" fill="#CCCCCC"/>
<path d="M294.057 197.898H286.446L256 243.567L271.223 289.236H301.669V243.567C310.429 238.689 316.416 229.732 316.849 219.393C316.156 207.407 306.219 197.898 294.057 197.898Z" fill="#FF4128"/>
<path d="M217.942 197.898C205.781 197.898 195.844 207.407 195.15 219.394C195.585 229.733 201.571 238.688 210.331 243.567V289.236H271.223V243.567C280.32 238.5 286.446 229.04 286.446 218.196V197.898H217.942Z" fill="#FF6B8A"/>
<path d="M272.028 10.1487C269.175 4.15385 263.081 0 256 0C248.919 0 242.825 4.15385 239.972 10.1487C230.163 10.1487 222.212 18.1001 222.212 27.9088C222.212 37.7175 230.163 45.669 239.972 45.669H272.028C281.836 45.669 289.788 37.7175 289.788 27.9088C289.788 18.1001 281.836 10.1487 272.028 10.1487Z" fill="#49C9FF"/>
<path d="M256 45.6689V137.007C281.222 137.007 301.669 116.56 301.669 91.3379C301.669 66.1155 281.222 45.6689 256 45.6689Z" fill="#FFD9D4"/>
<path d="M271.223 91.3379C271.223 66.1155 264.407 45.6689 256 45.6689C230.778 45.6689 210.331 66.1155 210.331 91.3379C210.331 116.56 230.778 137.007 256 137.007C264.407 137.007 271.223 116.56 271.223 91.3379Z" fill="#FFF0D3"/>
</g>
</g>
<defs>
<clipPath id="clip0_170_6631">
<rect width="512" height="512" fill="white"/>
</clipPath>
<clipPath id="clip1_170_6631">
<rect width="512" height="512" fill="white"/>
</clipPath>
</defs>
</svg>
