<svg width="512" height="512" viewBox="0 0 512 512" fill="none" xmlns="http://www.w3.org/2000/svg">
<g clip-path="url(#clip0_170_6490)">
<path d="M440 144V72C440 67.7565 441.686 63.6869 444.686 60.6863C447.687 57.6857 451.757 56 456 56C460.243 56 464.313 57.6857 467.314 60.6863C470.314 63.6869 472 67.7565 472 72V144H440ZM344 144V72C344 67.7565 345.686 63.6869 348.686 60.6863C351.687 57.6857 355.757 56 360 56C364.243 56 368.313 57.6857 371.314 60.6863C374.314 63.6869 376 67.7565 376 72V144H344Z" fill="#C9C9C7"/>
<path d="M208 448V464H168C165.473 464.003 162.952 463.765 160.47 463.29C160.156 460.873 159.999 458.438 160 456V446.62C162.567 447.539 165.274 448.006 168 448H208Z" fill="#686869"/>
<path d="M424 496H216C205.395 495.988 195.228 491.77 187.729 484.271C180.23 476.772 176.012 466.605 176 456V408H192V456C192.007 462.363 194.538 468.463 199.038 472.962C203.537 477.462 209.637 479.993 216 480H424C430.363 479.993 436.463 477.462 440.962 472.962C445.462 468.463 447.993 462.363 448 456V216H464V456C463.988 466.605 459.77 476.772 452.271 484.271C444.772 491.77 434.605 495.988 424 496Z" fill="#EB5849"/>
<path d="M272 24H48C34.7452 24 24 34.7452 24 48V400C24 413.255 34.7452 424 48 424H272C285.255 424 296 413.255 296 400V48C296 34.7452 285.255 24 272 24Z" fill="#0093B9"/>
<path d="M176 317.269C185.359 313.957 193.462 307.826 199.192 299.719C204.923 291.612 208 281.928 208 272C208 262.073 204.923 252.389 199.192 244.282C193.462 236.175 185.359 230.043 176 226.731H144C134.641 230.043 126.538 236.175 120.808 244.282C115.077 252.389 112 262.073 112 272C112 281.928 115.077 291.612 120.808 299.719C126.538 307.826 134.641 313.957 144 317.269H176Z" fill="#F6BC1B"/>
<path d="M176 232C176 223.163 168.837 216 160 216C151.163 216 144 223.163 144 232V312C144 320.837 151.163 328 160 328C168.837 328 176 320.837 176 312V232Z" fill="#F5A820"/>
<path d="M152 176H168V192H152V176ZM105.069 192.857L118.924 184.857L126.924 198.714L113.069 206.714L105.069 192.857ZM72.857 230.923L80.857 217.067L94.712 225.067L86.712 238.922L72.857 230.923ZM64 264H80V280H64V264ZM240 264H256V280H240V264ZM225.276 225.066L239.131 217.066L247.131 230.923L233.276 238.922L225.276 225.066ZM193.065 198.715L201.065 184.859L214.92 192.859L206.92 206.714L193.065 198.715Z" fill="#E3E4E2"/>
<path d="M56 56H264V152H56V56Z" fill="#C9C9C7"/>
<path d="M72 152C90.983 132.7 123.311 120 160 120C196.689 120 229.017 132.7 248 152H72Z" fill="#B2B1B4"/>
<path d="M232 360H88C79.1634 360 72 367.163 72 376C72 384.837 79.1634 392 88 392H232C240.837 392 248 384.837 248 376C248 367.163 240.837 360 232 360Z" fill="#F6BC1B"/>
<path d="M456 256C451.667 256.001 447.496 254.349 444.337 251.382C441.179 248.415 439.27 244.356 439 240.031L432 128H480L473 240.031C472.73 244.356 470.821 248.415 467.663 251.382C464.504 254.349 460.333 256.001 456 256Z" fill="#EB5849"/>
<path d="M424 152H488V168H424V152Z" fill="#D4342F"/>
<path d="M360 256C355.667 256.001 351.496 254.349 348.337 251.382C345.179 248.415 343.27 244.356 343 240.031L336 128H384L377 240.031C376.73 244.356 374.821 248.415 371.663 251.382C368.504 254.349 364.333 256.001 360 256Z" fill="#686869"/>
<path d="M328 152H392V168H328V152Z" fill="#4E4E4F"/>
<path d="M212.655 88.017L159.969 140.703C156.845 143.828 156.845 148.893 159.969 152.017C163.093 155.141 168.158 155.141 171.283 152.017L223.969 99.3307C227.093 96.2065 227.093 91.1412 223.969 88.017C220.845 84.8928 215.78 84.8928 212.655 88.017Z" fill="#EB5849"/>
</g>
<defs>
<clipPath id="clip0_170_6490">
<rect width="512" height="512" fill="white"/>
</clipPath>
</defs>
</svg>
