<svg width="512" height="512" viewBox="0 0 512 512" fill="none" xmlns="http://www.w3.org/2000/svg">
<g clip-path="url(#clip0_170_7994)">
<g clip-path="url(#clip1_170_7994)">
<path d="M93.8817 227.655H67.7868C63.8876 227.655 60.8882 224.656 60.8882 221.056V147.571C60.8882 136.473 69.8864 127.475 80.6843 127.475C91.7821 127.475 100.78 136.473 100.78 147.571V221.056C100.78 224.656 97.781 227.655 93.8817 227.655Z" fill="#333333"/>
<path d="M194.062 227.655H93.8817C89.9824 227.655 86.983 224.656 86.983 221.056V195.861C86.983 191.962 89.9824 188.963 93.8817 188.963H181.465C192.262 188.963 200.961 197.661 200.961 208.459V221.056C200.961 224.656 197.961 227.655 194.062 227.655ZM362.929 333.235H356.33V224.356L284.344 173.066L276.246 186.863C275.046 188.963 272.647 190.163 270.247 190.163C269.047 190.163 267.848 189.863 266.948 189.263C263.649 187.463 262.449 183.264 264.248 179.965L285.544 143.672C287.344 140.372 291.543 139.172 294.842 141.272C297.842 143.072 299.042 147.271 297.242 150.57L290.943 161.068L367.128 215.358C368.628 216.857 369.828 218.657 369.828 221.056V333.235H362.929Z" fill="#333333"/>
<path d="M504.502 333.234H470.608C467.009 333.234 464.009 330.235 464.009 326.335C463.709 302.34 443.913 282.844 419.918 282.844C395.923 282.844 376.427 302.34 376.127 326.335C376.127 330.235 373.127 333.234 369.228 333.234H152.37C148.471 333.234 145.472 330.235 145.472 326.335C145.172 302.34 125.675 282.844 101.68 282.844C77.6849 282.844 57.8887 302.34 57.5888 326.335C57.5888 330.235 54.5894 333.234 50.9901 333.234H7.7985C4.1992 333.234 1.19979 330.535 0.899849 326.935C0.599907 324.536 -5.39892 266.947 17.3966 217.757C17.9965 216.257 19.4962 215.057 20.9959 214.457L65.3873 197.661C67.4868 197.061 69.8864 197.361 71.686 198.56C73.4857 199.76 74.6854 201.86 74.6854 204.259V214.157H356.33C355.731 204.859 352.431 187.762 337.434 181.164L333.235 179.364C329.636 178.164 327.836 174.265 329.036 170.966C330.236 167.366 334.135 165.567 337.434 166.467C339.234 167.066 341.033 167.666 342.533 168.566L438.814 204.259C465.809 214.457 499.403 226.755 506.601 259.448C509.9 273.846 513.5 297.241 511.4 326.635C511.1 330.235 508.101 333.234 504.502 333.234Z" fill="#FF3131"/>
<path d="M494.603 235.754C500.302 242.053 504.501 249.851 506.601 259.449C507.801 264.248 509.001 270.247 509.9 277.146H463.709C459.81 277.146 456.811 274.146 456.811 270.247V256.15C456.811 244.752 466.109 235.454 477.807 235.454H491.004C491.604 235.454 492.804 235.454 494.603 235.754ZM34.1933 276.846H9.29819C7.49854 276.846 5.6989 275.946 4.19919 274.446C2.99942 272.947 2.39954 270.847 2.69948 269.047C4.19919 258.249 6.59872 248.051 9.59813 238.453C10.498 235.454 12.8975 233.654 15.8969 233.654H48.8905C52.7897 233.654 55.7891 236.654 55.7891 240.553V255.25C55.7891 266.948 46.191 276.846 34.1933 276.846Z" fill="#FFA721"/>
<path d="M187.163 326.335V221.056C187.163 217.157 190.463 214.157 194.062 214.157C197.961 214.157 200.961 217.157 200.961 221.056V333.234H187.163V326.335Z" fill="#E62C2C"/>
<path d="M250.751 253.15H220.457C216.858 253.15 213.558 250.15 213.558 246.251C213.558 242.652 216.858 239.652 220.457 239.652H250.751C254.65 239.652 257.65 242.652 257.65 246.251C257.65 250.15 254.65 253.15 250.751 253.15Z" fill="#333333"/>
<path d="M375.227 305.94H194.062C190.463 305.94 187.163 302.94 187.163 299.341C187.163 295.442 190.463 292.442 194.062 292.442H375.227C379.126 292.442 382.125 295.442 382.125 299.341C382.125 302.94 379.126 305.94 375.227 305.94Z" fill="#E62C2C"/>
<path d="M372.227 305.939H200.961V333.234H372.227V326.335V305.939Z" fill="#FFA721"/>
<path d="M342.533 214.157H356.157V292.372H342.533V214.157Z" fill="#E62C2C"/>
<path d="M419.918 384.224C388.424 384.224 362.629 358.429 362.629 326.935C362.629 295.142 388.424 269.347 419.918 269.347C451.712 269.347 477.507 295.142 477.507 326.935C477.507 358.429 451.712 384.224 419.918 384.224Z" fill="#333333"/>
<path d="M419.918 356.33C403.721 356.33 390.524 343.132 390.524 326.935C390.524 310.738 403.721 297.541 419.918 297.541C436.115 297.541 449.312 310.738 449.312 326.935C449.312 343.132 436.115 356.33 419.918 356.33Z" fill="white"/>
<path d="M505.101 384.225H6.89865C2.99941 384.225 0 381.225 0 377.626C0 373.727 2.99941 370.728 6.89865 370.728H505.101C509.001 370.728 512 373.727 512 377.626C512 381.225 509.001 384.225 505.101 384.225Z" fill="black"/>
<path d="M101.68 384.224C69.8864 384.224 44.0914 358.429 44.0914 326.935C44.0914 295.142 69.8864 269.347 101.68 269.347C133.174 269.347 158.969 295.142 158.969 326.935C158.969 358.429 133.174 384.224 101.68 384.224Z" fill="#333333"/>
<path d="M101.68 356.33C85.4833 356.33 72.2859 343.132 72.2859 326.935C72.2859 310.738 85.4833 297.541 101.68 297.541C117.877 297.541 131.074 310.738 131.074 326.935C131.074 343.132 117.877 356.33 101.68 356.33Z" fill="white"/>
</g>
</g>
<defs>
<clipPath id="clip0_170_7994">
<rect width="512" height="512" fill="white"/>
</clipPath>
<clipPath id="clip1_170_7994">
<rect width="512" height="512" fill="white"/>
</clipPath>
</defs>
</svg>
