<svg width="512" height="512" viewBox="0 0 512 512" fill="none" xmlns="http://www.w3.org/2000/svg">
<g clip-path="url(#clip0_170_8041)">
<g clip-path="url(#clip1_170_8041)">
<path d="M64.1968 82.6963H96.8313V275.703H64.1968V82.6963Z" fill="url(#paint0_linear_170_8041)"/>
<path d="M236.691 82.6963H269.325V275.703H236.691V82.6963Z" fill="url(#paint1_linear_170_8041)"/>
<path d="M64.1968 82.6963H96.8313V157.956H64.1968V82.6963Z" fill="url(#paint2_linear_170_8041)"/>
<path d="M236.691 82.6963H269.325V157.956H236.691V82.6963Z" fill="url(#paint3_linear_170_8041)"/>
<path d="M309.05 156.49H368.723V254.393H309.05V156.49Z" fill="url(#paint4_linear_170_8041)"/>
<path d="M309.05 156.49H368.723V254.393H309.05V156.49Z" fill="url(#paint5_linear_170_8041)"/>
<path d="M371.736 170.476H306.038C297.146 170.476 289.937 163.266 289.937 154.374V142.755C289.937 133.862 297.146 126.653 306.038 126.653H371.736C380.629 126.653 387.838 133.862 387.838 142.755V154.374C387.838 163.266 380.629 170.476 371.736 170.476Z" fill="url(#paint6_linear_170_8041)"/>
<path d="M371.736 170.476H306.038C297.146 170.476 289.937 163.266 289.937 154.374V142.755C289.937 133.862 297.146 126.653 306.038 126.653H371.736C380.629 126.653 387.838 133.862 387.838 142.755V154.374C387.838 163.266 380.629 170.476 371.736 170.476Z" fill="url(#paint7_linear_170_8041)"/>
<path d="M371.736 170.476H306.038C297.146 170.476 289.937 163.266 289.937 154.374V142.755C289.937 133.862 297.146 126.653 306.038 126.653H371.736C380.629 126.653 387.838 133.862 387.838 142.755V154.374C387.838 163.266 380.629 170.476 371.736 170.476Z" fill="url(#paint8_linear_170_8041)"/>
<path d="M406.466 373.285H42.7239C41.9893 373.285 41.2848 372.993 40.7654 372.473C40.2459 371.954 39.9541 371.249 39.9541 370.515V231.52C39.9541 216.989 51.7341 205.209 66.2649 205.209H406.465C407.199 205.209 407.904 205.501 408.423 206.02C408.943 206.54 409.235 207.244 409.235 207.979V370.515C409.235 370.878 409.163 371.239 409.024 371.575C408.885 371.911 408.681 372.216 408.424 372.474C408.167 372.731 407.862 372.935 407.526 373.074C407.19 373.213 406.83 373.285 406.466 373.285Z" fill="url(#paint9_linear_170_8041)"/>
<path d="M259.993 309.417C250.171 309.417 242.209 317.379 242.209 327.2V373.284H277.776V327.2C277.776 317.379 269.814 309.417 259.993 309.417Z" fill="url(#paint10_linear_170_8041)"/>
<path d="M309.05 309.417C299.229 309.417 291.267 317.379 291.267 327.2V373.284H326.834V327.2C326.834 317.379 318.872 309.417 309.05 309.417Z" fill="url(#paint11_linear_170_8041)"/>
<path d="M358.108 309.417C348.287 309.417 340.324 317.379 340.324 327.2V373.284H375.891V327.2C375.891 317.379 367.929 309.417 358.108 309.417Z" fill="url(#paint12_linear_170_8041)"/>
<path d="M406.466 205.209H309.478V373.285H406.466C407.2 373.285 407.905 372.993 408.424 372.473C408.944 371.954 409.236 371.249 409.236 370.515V207.979C409.236 207.244 408.944 206.54 408.424 206.02C407.905 205.501 407.2 205.209 406.466 205.209Z" fill="url(#paint13_linear_170_8041)"/>
<path d="M39.9541 265.035V370.515C39.9541 371.25 40.2459 371.954 40.7654 372.474C41.2848 372.993 41.9893 373.285 42.7239 373.285H406.466C407.2 373.285 407.905 372.993 408.424 372.474C408.944 371.954 409.236 371.25 409.236 370.515V265.035H39.9541Z" fill="url(#paint14_linear_170_8041)"/>
<path d="M200.257 295.186H133.264C113.142 295.186 96.8303 278.875 96.8303 258.753V205.209H236.691V258.753C236.691 278.875 220.379 295.186 200.257 295.186Z" fill="url(#paint15_linear_170_8041)"/>
<path d="M238.975 332.051V373.285H280.21L238.975 332.051Z" fill="url(#paint16_linear_170_8041)"/>
<path d="M393.055 363.029H384.574V199.522C384.574 197.273 385.468 195.116 387.058 193.525C388.649 191.935 390.806 191.041 393.055 191.041C418.754 191.041 439.586 211.873 439.586 237.572V316.498C439.586 342.196 418.754 363.029 393.055 363.029Z" fill="url(#paint17_linear_170_8041)"/>
<path d="M469.79 418.04H42.1838C34.2588 418.04 27.8337 411.615 27.8337 403.69V367.123C27.8337 359.198 34.2588 352.772 42.1838 352.772H425.449C433.017 352.772 440.481 354.543 447.242 357.943C454.004 361.344 459.876 366.279 464.389 372.354L481.31 395.133C488.344 404.601 481.585 418.04 469.79 418.04Z" fill="url(#paint18_linear_170_8041)"/>
<path d="M209.146 352.772H338.887V418.04H209.146V352.772Z" fill="url(#paint19_linear_170_8041)"/>
<path d="M274.84 47.9941H58.6782C49.0647 47.9941 41.2712 55.7876 41.2712 65.4011V79.1428C41.2712 96.4695 55.3171 110.514 72.6428 110.514C89.9695 110.514 104.014 96.4685 104.014 79.1428C104.014 96.4695 118.06 110.514 135.386 110.514C152.713 110.514 166.757 96.4685 166.757 79.1428C166.757 96.4695 180.803 110.514 198.129 110.514C215.456 110.514 229.501 96.4685 229.501 79.1428C229.501 96.4695 243.546 110.514 260.872 110.514C278.199 110.514 292.245 96.4685 292.245 79.1428V65.4011C292.247 55.7876 284.453 47.9941 274.84 47.9941Z" fill="url(#paint20_linear_170_8041)"/>
<path d="M274.84 47.9941H58.6782C49.0647 47.9941 41.2712 55.7876 41.2712 65.4011V79.1428C41.2712 96.4695 55.3171 110.514 72.6428 110.514C89.9695 110.514 104.014 96.4685 104.014 79.1428C104.014 96.4695 118.06 110.514 135.386 110.514C152.713 110.514 166.757 96.4685 166.757 79.1428C166.757 96.4695 180.803 110.514 198.129 110.514C215.456 110.514 229.501 96.4685 229.501 79.1428C229.501 96.4695 243.546 110.514 260.872 110.514C278.199 110.514 292.245 96.4685 292.245 79.1428V65.4011C292.247 55.7876 284.453 47.9941 274.84 47.9941Z" fill="url(#paint21_linear_170_8041)"/>
<path d="M274.84 47.9941H58.6782C49.0647 47.9941 41.2712 55.7876 41.2712 65.4011V79.1428C41.2712 96.4695 55.3171 110.514 72.6428 110.514C89.9695 110.514 104.014 96.4685 104.014 79.1428C104.014 96.4695 118.06 110.514 135.386 110.514C152.713 110.514 166.757 96.4685 166.757 79.1428C166.757 96.4695 180.803 110.514 198.129 110.514C215.456 110.514 229.501 96.4685 229.501 79.1428C229.501 96.4695 243.546 110.514 260.872 110.514C278.199 110.514 292.245 96.4685 292.245 79.1428V65.4011C292.247 55.7876 284.453 47.9941 274.84 47.9941Z" fill="url(#paint22_linear_170_8041)"/>
<path d="M292.251 65.3991V79.1438C292.251 87.8127 288.735 95.6533 283.062 101.326C277.379 107 269.539 110.515 260.879 110.515C243.551 110.515 229.499 96.4725 229.499 79.1448V47.9941H274.836C284.449 47.9941 292.251 55.7866 292.251 65.3991Z" fill="url(#paint23_linear_170_8041)"/>
<path d="M72.6428 110.515C55.3161 110.515 41.2703 96.4695 41.2703 79.1438V65.4011C41.2703 55.7876 49.0637 47.9941 58.6773 47.9941H104.014V79.1428C104.014 96.4695 89.9695 110.515 72.6428 110.515Z" fill="url(#paint24_linear_170_8041)"/>
<path d="M198.131 110.515C180.804 110.515 166.758 96.4695 166.758 79.1438V47.9941H229.502V79.1428C229.502 96.4695 215.458 110.515 198.131 110.515Z" fill="url(#paint25_linear_170_8041)"/>
<path d="M72.6428 110.515C55.3161 110.515 41.2703 96.4695 41.2703 79.1438V65.4011C41.2703 55.7876 49.0637 47.9941 58.6773 47.9941H104.014V79.1428C104.014 96.4695 89.9695 110.515 72.6428 110.515Z" fill="url(#paint26_linear_170_8041)"/>
<path d="M198.131 110.515C180.804 110.515 166.758 96.4695 166.758 79.1438V47.9941H229.502V79.1428C229.502 96.4695 215.458 110.515 198.131 110.515Z" fill="url(#paint27_linear_170_8041)"/>
<path d="M377.68 511.999C419.264 511.999 452.974 478.289 452.974 436.705C452.974 395.121 419.264 361.411 377.68 361.411C336.097 361.411 302.386 395.121 302.386 436.705C302.386 478.289 336.097 511.999 377.68 511.999Z" fill="url(#paint28_linear_170_8041)"/>
<path d="M377.68 486.066C404.942 486.066 427.041 463.967 427.041 436.706C427.041 409.444 404.942 387.345 377.68 387.345C350.419 387.345 328.32 409.444 328.32 436.706C328.32 463.967 350.419 486.066 377.68 486.066Z" fill="url(#paint29_linear_170_8041)"/>
<path d="M302.386 436.706C302.386 478.289 336.097 512 377.68 512C419.264 512 452.975 478.289 452.975 436.706C452.983 427.961 451.464 419.283 448.488 411.061H306.873C303.897 419.283 302.379 427.961 302.386 436.706Z" fill="url(#paint30_linear_170_8041)"/>
<path d="M324.439 489.946C353.843 519.35 401.518 519.35 430.921 489.946C460.325 460.542 460.325 412.868 430.921 383.464C424.744 377.276 417.534 372.212 409.615 368.503L309.478 468.64C313.188 476.559 318.251 483.769 324.439 489.946Z" fill="url(#paint31_linear_170_8041)"/>
<path d="M430.921 489.946C440.184 480.684 446.521 469.608 449.949 457.863L403.236 411.149L352.125 462.261L398.837 508.974C410.583 505.546 421.659 499.208 430.921 489.946Z" fill="url(#paint32_linear_170_8041)"/>
<path d="M377.68 472.847C397.64 472.847 413.821 456.666 413.821 436.706C413.821 416.745 397.64 400.564 377.68 400.564C357.72 400.564 341.539 416.745 341.539 436.706C341.539 456.666 357.72 472.847 377.68 472.847Z" fill="url(#paint33_linear_170_8041)"/>
<path d="M341.539 436.706C341.539 456.666 357.72 472.847 377.68 472.847C397.64 472.847 413.821 456.666 413.821 436.706C413.821 432.383 413.059 428.238 411.668 424.396H343.693C342.264 428.343 341.535 432.509 341.539 436.706Z" fill="url(#paint34_linear_170_8041)"/>
<path d="M352.124 462.261C366.239 476.376 389.122 476.376 403.236 462.261C417.35 448.147 417.35 425.264 403.236 411.15C400.271 408.179 396.81 405.749 393.009 403.969L344.943 452.035C346.724 455.835 349.154 459.296 352.124 462.261Z" fill="url(#paint35_linear_170_8041)"/>
<path d="M164.437 511.999C222.655 511.999 269.849 464.805 269.849 406.588C269.849 348.37 222.655 301.176 164.437 301.176C106.22 301.176 59.0256 348.37 59.0256 406.588C59.0256 464.805 106.22 511.999 164.437 511.999Z" fill="url(#paint36_linear_170_8041)"/>
<path d="M164.437 475.692C202.603 475.692 233.542 444.753 233.542 406.587C233.542 368.422 202.603 337.482 164.437 337.482C126.272 337.482 95.3325 368.422 95.3325 406.587C95.3325 444.753 126.272 475.692 164.437 475.692Z" fill="url(#paint37_linear_170_8041)"/>
<path d="M59.0256 406.588C59.0256 464.805 106.22 512 164.437 512C222.655 512 269.849 464.805 269.849 406.588C269.849 393.98 267.629 381.891 263.569 370.685H65.3062C61.2463 381.891 59.0256 393.98 59.0256 406.588Z" fill="url(#paint38_linear_170_8041)"/>
<path d="M89.9002 481.125C131.066 522.29 197.809 522.29 238.974 481.125C280.14 439.959 280.14 373.215 238.974 332.05C230.059 323.134 219.941 316.158 209.146 311.104L68.9543 451.296C74.0081 462.091 80.9843 472.209 89.9002 481.125Z" fill="url(#paint39_linear_170_8041)"/>
<path d="M238.975 481.125C251.941 468.157 260.815 452.651 265.613 436.207L200.215 370.809L128.66 442.365L194.057 507.763C210.501 502.965 226.008 494.091 238.975 481.125Z" fill="url(#paint40_linear_170_8041)"/>
<path d="M164.437 457.186C192.382 457.186 215.035 434.532 215.035 406.588C215.035 378.644 192.382 355.99 164.437 355.99C136.493 355.99 113.84 378.644 113.84 406.588C113.84 434.532 136.493 457.186 164.437 457.186Z" fill="url(#paint41_linear_170_8041)"/>
<path d="M113.84 406.588C113.84 434.532 136.493 457.185 164.437 457.185C192.381 457.185 215.035 434.532 215.035 406.588C215.04 400.712 214.02 394.88 212.02 389.354H116.854C114.854 394.88 113.834 400.712 113.84 406.588Z" fill="url(#paint42_linear_170_8041)"/>
<path d="M128.659 442.366C148.419 462.125 180.456 462.125 200.215 442.366C219.974 422.606 219.974 390.569 200.215 370.81C196.064 366.651 191.218 363.249 185.897 360.756L118.605 428.048C121.098 433.369 124.5 438.215 128.659 442.366Z" fill="url(#paint43_linear_170_8041)"/>
<path d="M293.994 20.9925C210.61 -6.99881 122.913 -6.99881 39.5285 20.9925C34.4888 22.6841 31.1357 27.2379 31.1357 32.3198V60.0842C31.1357 66.7232 36.7959 72.1052 43.7771 72.1052H289.745C296.727 72.1052 302.386 66.7232 302.386 60.0842V32.3208C302.386 27.2389 299.033 22.6851 293.994 20.9925Z" fill="url(#paint44_linear_170_8041)"/>
<path d="M31.1357 32.3205V60.085C31.1357 66.7239 36.7959 72.1059 43.7771 72.1059H289.745C296.727 72.1059 302.386 66.7239 302.386 60.085V32.3205C302.386 29.7997 301.559 27.4083 300.111 25.4326H33.4096C31.9375 27.4278 31.1408 29.841 31.1357 32.3205Z" fill="url(#paint45_linear_170_8041)"/>
<path d="M293.994 20.9923C253.16 7.28572 211.291 0.308469 169.402 0.0263672V72.1059H289.745C296.727 72.1059 302.386 66.7239 302.386 60.085V32.3205C302.386 27.2387 299.033 22.6849 293.994 20.9923Z" fill="url(#paint46_linear_170_8041)"/>
</g>
</g>
<defs>
<linearGradient id="paint0_linear_170_8041" x1="68.859" y1="179.199" x2="100.574" y2="179.199" gradientUnits="userSpaceOnUse">
<stop stop-color="#B9ACAC"/>
<stop offset="1" stop-color="#766E6E"/>
</linearGradient>
<linearGradient id="paint1_linear_170_8041" x1="241.353" y1="179.199" x2="273.068" y2="179.199" gradientUnits="userSpaceOnUse">
<stop stop-color="#B9ACAC"/>
<stop offset="1" stop-color="#766E6E"/>
</linearGradient>
<linearGradient id="paint2_linear_170_8041" x1="80.5135" y1="131.179" x2="80.5135" y2="79.6042" gradientUnits="userSpaceOnUse">
<stop stop-color="#433F43" stop-opacity="0"/>
<stop offset="0.317" stop-color="#3B373B" stop-opacity="0.317"/>
<stop offset="0.822" stop-color="#242324" stop-opacity="0.822"/>
<stop offset="1" stop-color="#1A1A1A"/>
</linearGradient>
<linearGradient id="paint3_linear_170_8041" x1="253.007" y1="131.179" x2="253.007" y2="79.6042" gradientUnits="userSpaceOnUse">
<stop stop-color="#433F43" stop-opacity="0"/>
<stop offset="0.317" stop-color="#3B373B" stop-opacity="0.317"/>
<stop offset="0.822" stop-color="#242324" stop-opacity="0.822"/>
<stop offset="1" stop-color="#1A1A1A"/>
</linearGradient>
<linearGradient id="paint4_linear_170_8041" x1="326.609" y1="205.441" x2="350.74" y2="205.441" gradientUnits="userSpaceOnUse">
<stop stop-color="#FFFAF8"/>
<stop offset="1" stop-color="#FFDFCF"/>
</linearGradient>
<linearGradient id="paint5_linear_170_8041" x1="338.887" y1="191.079" x2="338.887" y2="170.332" gradientUnits="userSpaceOnUse">
<stop stop-color="#FFA78F" stop-opacity="0"/>
<stop offset="0.939" stop-color="#FFA78F" stop-opacity="0.939"/>
<stop offset="1" stop-color="#FFA78F"/>
</linearGradient>
<linearGradient id="paint6_linear_170_8041" x1="326.56" y1="125.827" x2="356.677" y2="181.377" gradientUnits="userSpaceOnUse">
<stop stop-color="#D5DAF3"/>
<stop offset="1" stop-color="#60B7FF"/>
</linearGradient>
<linearGradient id="paint7_linear_170_8041" x1="338.887" y1="154.604" x2="338.887" y2="179.423" gradientUnits="userSpaceOnUse">
<stop stop-color="#1F3596" stop-opacity="0"/>
<stop offset="0.407" stop-color="#1D3290" stop-opacity="0.407"/>
<stop offset="0.951" stop-color="#192B7F" stop-opacity="0.951"/>
<stop offset="1" stop-color="#192A7D"/>
</linearGradient>
<linearGradient id="paint8_linear_170_8041" x1="364.423" y1="148.564" x2="396.611" y2="148.564" gradientUnits="userSpaceOnUse">
<stop stop-color="#1F3596" stop-opacity="0"/>
<stop offset="0.407" stop-color="#1D3290" stop-opacity="0.407"/>
<stop offset="0.951" stop-color="#192B7F" stop-opacity="0.951"/>
<stop offset="1" stop-color="#192A7D"/>
</linearGradient>
<linearGradient id="paint9_linear_170_8041" x1="189.102" y1="226.612" x2="274.435" y2="377.2" gradientUnits="userSpaceOnUse">
<stop stop-color="#FEF0AE"/>
<stop offset="1" stop-color="#FFBF51"/>
</linearGradient>
<linearGradient id="paint10_linear_170_8041" x1="277.313" y1="341.351" x2="250.361" y2="341.351" gradientUnits="userSpaceOnUse">
<stop stop-color="#FEF0AE"/>
<stop offset="1" stop-color="#FFBF51"/>
</linearGradient>
<linearGradient id="paint11_linear_170_8041" x1="326.371" y1="341.351" x2="299.419" y2="341.351" gradientUnits="userSpaceOnUse">
<stop stop-color="#FEF0AE"/>
<stop offset="1" stop-color="#FFBF51"/>
</linearGradient>
<linearGradient id="paint12_linear_170_8041" x1="375.428" y1="341.351" x2="348.476" y2="341.351" gradientUnits="userSpaceOnUse">
<stop stop-color="#FEF0AE"/>
<stop offset="1" stop-color="#FFBF51"/>
</linearGradient>
<linearGradient id="paint13_linear_170_8041" x1="343.341" y1="289.247" x2="393.319" y2="289.247" gradientUnits="userSpaceOnUse">
<stop stop-color="#FEA613" stop-opacity="0"/>
<stop offset="0.177" stop-color="#FDA116" stop-opacity="0.177"/>
<stop offset="0.394" stop-color="#FA921D" stop-opacity="0.394"/>
<stop offset="0.632" stop-color="#F4792A" stop-opacity="0.633"/>
<stop offset="0.885" stop-color="#ED573B" stop-opacity="0.885"/>
<stop offset="1" stop-color="#E94444"/>
</linearGradient>
<linearGradient id="paint14_linear_170_8041" x1="224.595" y1="313.893" x2="224.595" y2="357.478" gradientUnits="userSpaceOnUse">
<stop stop-color="#FEA613" stop-opacity="0"/>
<stop offset="0.177" stop-color="#FDA116" stop-opacity="0.177"/>
<stop offset="0.394" stop-color="#FA921D" stop-opacity="0.394"/>
<stop offset="0.632" stop-color="#F4792A" stop-opacity="0.633"/>
<stop offset="0.885" stop-color="#ED573B" stop-opacity="0.885"/>
<stop offset="1" stop-color="#E94444"/>
</linearGradient>
<linearGradient id="paint15_linear_170_8041" x1="166.76" y1="285.113" x2="166.76" y2="174.677" gradientUnits="userSpaceOnUse">
<stop stop-color="#FEF0AE"/>
<stop offset="1" stop-color="#FFBF51"/>
</linearGradient>
<linearGradient id="paint16_linear_170_8041" x1="290.228" y1="398.67" x2="221.626" y2="337.097" gradientUnits="userSpaceOnUse">
<stop stop-color="#FEA613" stop-opacity="0"/>
<stop offset="0.177" stop-color="#FDA116" stop-opacity="0.177"/>
<stop offset="0.394" stop-color="#FA921D" stop-opacity="0.394"/>
<stop offset="0.632" stop-color="#F4792A" stop-opacity="0.633"/>
<stop offset="0.885" stop-color="#ED573B" stop-opacity="0.885"/>
<stop offset="1" stop-color="#E94444"/>
</linearGradient>
<linearGradient id="paint17_linear_170_8041" x1="366.389" y1="254.083" x2="434.75" y2="305.944" gradientUnits="userSpaceOnUse">
<stop stop-color="#FFA1AE"/>
<stop offset="1" stop-color="#FF4565"/>
</linearGradient>
<linearGradient id="paint18_linear_170_8041" x1="256" y1="350.702" x2="256" y2="426.91" gradientUnits="userSpaceOnUse">
<stop stop-color="#D5DAF3"/>
<stop offset="1" stop-color="#60B7FF"/>
</linearGradient>
<linearGradient id="paint19_linear_170_8041" x1="295.065" y1="384.797" x2="248.884" y2="386.135" gradientUnits="userSpaceOnUse">
<stop stop-color="#1F3596" stop-opacity="0"/>
<stop offset="0.407" stop-color="#1D3290" stop-opacity="0.407"/>
<stop offset="0.951" stop-color="#192B7F" stop-opacity="0.951"/>
<stop offset="1" stop-color="#192A7D"/>
</linearGradient>
<linearGradient id="paint20_linear_170_8041" x1="163.453" y1="50.8603" x2="174.048" y2="121.173" gradientUnits="userSpaceOnUse">
<stop stop-color="#FFFAF8"/>
<stop offset="1" stop-color="#FFDFCF"/>
</linearGradient>
<linearGradient id="paint21_linear_170_8041" x1="166.758" y1="74.0007" x2="166.758" y2="111.565" gradientUnits="userSpaceOnUse">
<stop stop-color="#FFA78F" stop-opacity="0"/>
<stop offset="0.939" stop-color="#FFA78F" stop-opacity="0.939"/>
<stop offset="1" stop-color="#FFA78F"/>
</linearGradient>
<linearGradient id="paint22_linear_170_8041" x1="166.758" y1="86.0026" x2="166.758" y2="72.6163" gradientUnits="userSpaceOnUse">
<stop stop-color="#FFA78F" stop-opacity="0"/>
<stop offset="0.939" stop-color="#FFA78F" stop-opacity="0.939"/>
<stop offset="1" stop-color="#FFA78F"/>
</linearGradient>
<linearGradient id="paint23_linear_170_8041" x1="263.028" y1="79.2553" x2="294.09" y2="79.2553" gradientUnits="userSpaceOnUse">
<stop stop-color="#FFA78F" stop-opacity="0"/>
<stop offset="0.939" stop-color="#FFA78F" stop-opacity="0.939"/>
<stop offset="1" stop-color="#FFA78F"/>
</linearGradient>
<linearGradient id="paint24_linear_170_8041" x1="62.0063" y1="59.4298" x2="97.4517" y2="94.8753" gradientUnits="userSpaceOnUse">
<stop stop-color="#FFA1AE"/>
<stop offset="1" stop-color="#FF4565"/>
</linearGradient>
<linearGradient id="paint25_linear_170_8041" x1="184.635" y1="56.5696" x2="222.642" y2="94.5771" gradientUnits="userSpaceOnUse">
<stop stop-color="#FFA1AE"/>
<stop offset="1" stop-color="#FF4565"/>
</linearGradient>
<linearGradient id="paint26_linear_170_8041" x1="72.6428" y1="92.6948" x2="72.6428" y2="68.7854" gradientUnits="userSpaceOnUse">
<stop stop-color="#FD4755" stop-opacity="0"/>
<stop offset="0.259" stop-color="#F74453" stop-opacity="0.259"/>
<stop offset="0.621" stop-color="#E53B4C" stop-opacity="0.621"/>
<stop offset="1" stop-color="#CA2E43"/>
</linearGradient>
<linearGradient id="paint27_linear_170_8041" x1="198.131" y1="92.6948" x2="198.131" y2="68.7854" gradientUnits="userSpaceOnUse">
<stop stop-color="#FD4755" stop-opacity="0"/>
<stop offset="0.259" stop-color="#F74453" stop-opacity="0.259"/>
<stop offset="0.621" stop-color="#E53B4C" stop-opacity="0.621"/>
<stop offset="1" stop-color="#CA2E43"/>
</linearGradient>
<linearGradient id="paint28_linear_170_8041" x1="337.16" y1="396.185" x2="397.713" y2="456.738" gradientUnits="userSpaceOnUse">
<stop stop-color="#5A5A5A"/>
<stop offset="1" stop-color="#444444"/>
</linearGradient>
<linearGradient id="paint29_linear_170_8041" x1="411.479" y1="470.505" x2="337.678" y2="396.703" gradientUnits="userSpaceOnUse">
<stop stop-color="#5A5A5A"/>
<stop offset="1" stop-color="#444444"/>
</linearGradient>
<linearGradient id="paint30_linear_170_8041" x1="377.68" y1="437.658" x2="377.68" y2="504.248" gradientUnits="userSpaceOnUse">
<stop stop-color="#433F43" stop-opacity="0"/>
<stop offset="0.317" stop-color="#3B373B" stop-opacity="0.317"/>
<stop offset="0.822" stop-color="#242324" stop-opacity="0.822"/>
<stop offset="1" stop-color="#1A1A1A"/>
</linearGradient>
<linearGradient id="paint31_linear_170_8041" x1="378.623" y1="437.831" x2="426.895" y2="486.103" gradientUnits="userSpaceOnUse">
<stop stop-color="#433F43" stop-opacity="0"/>
<stop offset="0.317" stop-color="#3B373B" stop-opacity="0.317"/>
<stop offset="0.822" stop-color="#242324" stop-opacity="0.822"/>
<stop offset="1" stop-color="#1A1A1A"/>
</linearGradient>
<linearGradient id="paint32_linear_170_8041" x1="436.912" y1="495.937" x2="387.059" y2="446.084" gradientUnits="userSpaceOnUse">
<stop stop-color="#433F43" stop-opacity="0"/>
<stop offset="0.317" stop-color="#3B373B" stop-opacity="0.317"/>
<stop offset="0.822" stop-color="#242324" stop-opacity="0.822"/>
<stop offset="1" stop-color="#1A1A1A"/>
</linearGradient>
<linearGradient id="paint33_linear_170_8041" x1="358.23" y1="417.256" x2="387.296" y2="446.321" gradientUnits="userSpaceOnUse">
<stop stop-color="#FFFAF8"/>
<stop offset="1" stop-color="#FFDFCF"/>
</linearGradient>
<linearGradient id="paint34_linear_170_8041" x1="377.68" y1="437.163" x2="377.68" y2="469.126" gradientUnits="userSpaceOnUse">
<stop stop-color="#FFA78F" stop-opacity="0"/>
<stop offset="0.939" stop-color="#FFA78F" stop-opacity="0.939"/>
<stop offset="1" stop-color="#FFA78F"/>
</linearGradient>
<linearGradient id="paint35_linear_170_8041" x1="378.272" y1="437.48" x2="401.443" y2="460.651" gradientUnits="userSpaceOnUse">
<stop stop-color="#FFA78F" stop-opacity="0"/>
<stop offset="0.939" stop-color="#FFA78F" stop-opacity="0.939"/>
<stop offset="1" stop-color="#FFA78F"/>
</linearGradient>
<linearGradient id="paint36_linear_170_8041" x1="107.708" y1="349.859" x2="192.482" y2="434.633" gradientUnits="userSpaceOnUse">
<stop stop-color="#5A5A5A"/>
<stop offset="1" stop-color="#444444"/>
</linearGradient>
<linearGradient id="paint37_linear_170_8041" x1="211.755" y1="453.905" x2="108.434" y2="350.584" gradientUnits="userSpaceOnUse">
<stop stop-color="#5A5A5A"/>
<stop offset="1" stop-color="#444444"/>
</linearGradient>
<linearGradient id="paint38_linear_170_8041" x1="164.437" y1="407.922" x2="164.437" y2="501.146" gradientUnits="userSpaceOnUse">
<stop stop-color="#433F43" stop-opacity="0"/>
<stop offset="0.317" stop-color="#3B373B" stop-opacity="0.317"/>
<stop offset="0.822" stop-color="#242324" stop-opacity="0.822"/>
<stop offset="1" stop-color="#1A1A1A"/>
</linearGradient>
<linearGradient id="paint39_linear_170_8041" x1="165.649" y1="407.983" x2="233.229" y2="475.563" gradientUnits="userSpaceOnUse">
<stop stop-color="#433F43" stop-opacity="0"/>
<stop offset="0.317" stop-color="#3B373B" stop-opacity="0.317"/>
<stop offset="0.822" stop-color="#242324" stop-opacity="0.822"/>
<stop offset="1" stop-color="#1A1A1A"/>
</linearGradient>
<linearGradient id="paint40_linear_170_8041" x1="247.361" y1="489.511" x2="177.568" y2="419.718" gradientUnits="userSpaceOnUse">
<stop stop-color="#433F43" stop-opacity="0"/>
<stop offset="0.317" stop-color="#3B373B" stop-opacity="0.317"/>
<stop offset="0.822" stop-color="#242324" stop-opacity="0.822"/>
<stop offset="1" stop-color="#1A1A1A"/>
</linearGradient>
<linearGradient id="paint41_linear_170_8041" x1="137.207" y1="379.358" x2="177.899" y2="420.049" gradientUnits="userSpaceOnUse">
<stop stop-color="#FFFAF8"/>
<stop offset="1" stop-color="#FFDFCF"/>
</linearGradient>
<linearGradient id="paint42_linear_170_8041" x1="164.437" y1="407.228" x2="164.437" y2="451.976" gradientUnits="userSpaceOnUse">
<stop stop-color="#FFA78F" stop-opacity="0"/>
<stop offset="0.939" stop-color="#FFA78F" stop-opacity="0.939"/>
<stop offset="1" stop-color="#FFA78F"/>
</linearGradient>
<linearGradient id="paint43_linear_170_8041" x1="165.158" y1="407.493" x2="197.597" y2="439.932" gradientUnits="userSpaceOnUse">
<stop stop-color="#FFA78F" stop-opacity="0"/>
<stop offset="0.939" stop-color="#FFA78F" stop-opacity="0.939"/>
<stop offset="1" stop-color="#FFA78F"/>
</linearGradient>
<linearGradient id="paint44_linear_170_8041" x1="158.225" y1="12.3136" x2="175.292" y2="80.0783" gradientUnits="userSpaceOnUse">
<stop stop-color="#D5DAF3"/>
<stop offset="1" stop-color="#60B7FF"/>
</linearGradient>
<linearGradient id="paint45_linear_170_8041" x1="166.761" y1="48.1875" x2="166.761" y2="82.9905" gradientUnits="userSpaceOnUse">
<stop stop-color="#1F3596" stop-opacity="0"/>
<stop offset="0.407" stop-color="#1D3290" stop-opacity="0.407"/>
<stop offset="0.951" stop-color="#192B7F" stop-opacity="0.951"/>
<stop offset="1" stop-color="#192A7D"/>
</linearGradient>
<linearGradient id="paint46_linear_170_8041" x1="264.366" y1="36.0661" x2="311.692" y2="36.0661" gradientUnits="userSpaceOnUse">
<stop stop-color="#1F3596" stop-opacity="0"/>
<stop offset="0.407" stop-color="#1D3290" stop-opacity="0.407"/>
<stop offset="0.951" stop-color="#192B7F" stop-opacity="0.951"/>
<stop offset="1" stop-color="#192A7D"/>
</linearGradient>
<clipPath id="clip0_170_8041">
<rect width="512" height="512" fill="white"/>
</clipPath>
<clipPath id="clip1_170_8041">
<rect width="512" height="512" fill="white"/>
</clipPath>
</defs>
</svg>
