<svg width="512" height="512" viewBox="0 0 512 512" fill="none" xmlns="http://www.w3.org/2000/svg">
<g clip-path="url(#clip0_170_7571)">
<path d="M273.36 419.12L287.36 352L236.72 351.28C232.857 351.217 229.057 352.26 225.768 354.287C222.479 356.314 219.839 359.241 218.16 362.72L176 449.6L200 483.68H104.8L166.8 286.48V249.84H283.04V286.48L341.52 306.64C343.625 307.333 345.57 308.44 347.242 309.895C348.913 311.351 350.277 313.126 351.253 315.115C352.23 317.105 352.799 319.27 352.927 321.482C353.055 323.695 352.74 325.911 352 328L333.52 381.68L360.96 419.28L273.36 419.12ZM416 419.12V152.88C416 150.758 415.157 148.723 413.657 147.223C412.157 145.723 410.122 144.88 408 144.88C405.878 144.88 403.843 145.723 402.343 147.223C400.843 148.723 400 150.758 400 152.88V419.12C400 421.242 400.843 423.276 402.343 424.777C403.843 426.277 405.878 427.12 408 427.12C410.122 427.12 412.157 426.277 413.657 424.777C415.157 423.276 416 421.242 416 419.12Z" fill="#008CA7"/>
<path d="M402 245.28H360.8V191.12H402C409.193 191.12 416.091 193.978 421.177 199.064C426.263 204.15 429.12 211.048 429.12 218.24C429.12 221.798 428.418 225.321 427.054 228.607C425.69 231.892 423.691 234.877 421.172 237.389C418.653 239.901 415.662 241.891 412.372 243.245C409.082 244.599 405.558 245.291 402 245.28ZM306 97.0403V75.6803C306.011 69.4647 304.795 63.308 302.424 57.5625C300.053 51.817 296.572 46.5954 292.18 42.1966C287.789 37.7977 282.573 34.308 276.832 31.9269C271.09 29.5459 264.936 28.3203 258.72 28.3203C252.504 28.3203 246.35 29.5459 240.608 31.9269C234.867 34.308 229.651 37.7977 225.26 42.1966C220.868 46.5954 217.387 51.817 215.016 57.5625C212.645 63.308 211.429 69.4647 211.44 75.6803V97.0403C211.482 103.249 212.746 109.389 215.161 115.109C217.576 120.83 221.094 126.018 225.514 130.379C229.934 134.74 235.17 138.187 240.922 140.524C246.675 142.861 252.831 144.042 259.04 144C271.524 144.001 283.502 139.063 292.359 130.266C301.217 121.468 306.236 109.524 306.32 97.0403H306Z" fill="#F9D3C8"/>
<path d="M283.04 286.48L295.12 226.88L314.96 238.96C321.723 243.11 329.506 245.298 337.44 245.28H386.88V191.12H340.8C337.475 191.114 334.243 190.018 331.6 188L285.68 152.88H203.28V286.48H283.04Z" fill="#C4C4C4"/>
<path d="M289.2 140.08C289.2 131.127 285.643 122.54 279.312 116.208C272.981 109.877 264.394 106.32 255.44 106.32H155.28C147.439 106.344 139.851 109.096 133.818 114.103C127.785 119.111 123.684 126.063 122.217 133.765C120.75 141.467 122.01 149.44 125.781 156.315C129.551 163.189 135.597 168.537 142.88 171.44C133.802 178.661 127.408 188.717 124.72 200L109.28 262.16C107.847 267.95 107.75 273.99 108.999 279.822C110.247 285.654 112.807 291.126 116.485 295.821C120.163 300.517 124.862 304.313 130.225 306.922C135.588 309.531 141.476 310.885 147.44 310.88H197.68C207.654 310.882 217.33 307.482 225.112 301.242C232.893 295.003 238.314 286.296 240.48 276.56L256 209.04C257.401 202.888 257.327 196.493 255.783 190.375C254.24 184.257 251.271 178.591 247.12 173.84H255.84C264.724 173.735 273.209 170.132 279.454 163.812C285.699 157.492 289.201 148.965 289.2 140.08Z" fill="#5F9E43"/>
<path d="M217.76 491.68H77.44C75.3183 491.68 73.2834 490.837 71.7831 489.337C70.2829 487.837 69.44 485.802 69.44 483.68C69.44 481.558 70.2829 479.524 71.7831 478.023C73.2834 476.523 75.3183 475.68 77.44 475.68H212.8L242.16 416C242.82 414.654 243.845 413.52 245.118 412.728C246.391 411.936 247.861 411.517 249.36 411.52H434.56C436.682 411.52 438.717 412.363 440.217 413.863C441.717 415.364 442.56 417.398 442.56 419.52C442.56 421.642 441.717 423.677 440.217 425.177C438.717 426.677 436.682 427.52 434.56 427.52H254.32L224.96 487.2C224.3 488.547 223.275 489.681 222.002 490.473C220.729 491.265 219.259 491.683 217.76 491.68ZM216 160H176C164.265 160.007 152.872 163.953 143.646 171.206C134.421 178.459 127.897 188.598 125.12 200L110.24 259.84H244.64L256 209.04C257.383 203.089 257.384 196.899 256.003 190.947C254.623 184.995 251.897 179.439 248.035 174.704C244.173 169.969 239.277 166.182 233.724 163.633C228.171 161.084 222.108 159.842 216 160ZM334.08 74.0001H306.24C305.569 61.7827 300.187 50.3013 291.227 41.9693C282.266 33.6372 270.424 29.1034 258.191 29.321C245.957 29.5385 234.284 34.4904 225.625 43.1358C216.966 51.7811 211.996 63.4466 211.76 75.6801V90.0001H334.08C336.202 90.0001 338.237 89.1573 339.737 87.657C341.237 86.1567 342.08 84.1219 342.08 82.0001C342.08 79.8784 341.237 77.8436 339.737 76.3433C338.237 74.843 336.202 74.0001 334.08 74.0001Z" fill="#6CC72B"/>
</g>
<defs>
<clipPath id="clip0_170_7571">
<rect width="512" height="512" fill="white"/>
</clipPath>
</defs>
</svg>
