<svg width="512" height="512" viewBox="0 0 512 512" fill="none" xmlns="http://www.w3.org/2000/svg">
<g clip-path="url(#clip0_170_7618)">
<path d="M304 328V344L286.961 369.558L296 384L336 360L328 336L304 328Z" fill="#B26643"/>
<path d="M24 488V24H104L192 184V208L248 272L264 336L368 488H24Z" fill="#8F6934"/>
<path d="M368 488H24V24H104L192 184V208L248 272L264 336L368 488Z" fill="#8F6934"/>
<path d="M407.406 328H406.717C400.803 328.02 395.001 326.382 389.971 323.272C384.94 320.163 380.881 315.705 378.255 310.406L360.844 275.577C359.895 273.679 359.739 271.482 360.411 269.469C361.082 267.457 362.525 265.793 364.423 264.844C366.321 263.896 368.518 263.74 370.531 264.411C372.544 265.082 374.207 266.525 375.156 268.423L392.566 303.251C393.872 305.886 395.889 308.102 398.391 309.649C400.892 311.195 403.776 312.01 406.717 312H407.406C410.316 312.01 413.181 311.274 415.726 309.864C418.272 308.453 420.415 306.415 421.95 303.942C423.485 301.47 424.362 298.645 424.498 295.738C424.633 292.831 424.022 289.938 422.723 287.333L416.031 273.95C414.545 270.953 412.249 268.432 409.404 266.673C406.558 264.915 403.276 263.989 399.931 264H388C385.878 264 383.843 263.157 382.343 261.657C380.843 260.157 380 258.122 380 256C380 253.878 380.843 251.844 382.343 250.343C383.843 248.843 385.878 248 388 248H399.931C406.25 247.979 412.449 249.729 417.824 253.052C423.199 256.375 427.536 261.138 430.342 266.8L437.033 280.183C439.55 285.227 440.736 290.83 440.478 296.461C440.219 302.092 438.525 307.563 435.556 312.355C432.587 317.147 428.442 321.099 423.515 323.838C418.588 326.576 413.043 328.009 407.406 328Z" fill="#715329"/>
<path d="M352 464L360 472L384 464L400 432L384 408L360 424V448L352 464Z" fill="#BF6D48"/>
<path d="M296 72L280 88L285.71 93.71L276 108L288 120V144L320 128V112L336 96L296 72Z" fill="#E6CCB4"/>
<path d="M320 128L331.109 131.7C335.041 133.011 338.566 135.317 341.342 138.395C344.118 141.472 346.049 145.216 346.948 149.262L360 208L304 224L280 184L288 160V144L320 128Z" fill="#EE5E5B"/>
<path d="M256 112L216 104L168 88L136 80V112H160L207.501 136L260 144.98L256 112Z" fill="#E6CCB4"/>
<path d="M256 112L288 120V160L256 152V112Z" fill="#EE5E5B"/>
<path d="M288 120V160L282.81 158.7V118.7L288 120Z" fill="#EE5E5B"/>
<path d="M248 287.638V288.981C248 295.776 250.036 302.415 253.846 308.042C257.656 313.669 263.064 318.025 269.373 320.549L328 344L318.03 298.01L288 288L312 264L304 224L259.873 261.823C256.149 265.015 253.16 268.975 251.11 273.431C249.061 277.887 248 282.733 248 287.638Z" fill="#026CA2"/>
<path d="M304 224L320 328L360 424L392 408L360 312L376 240L360 208L304 224Z" fill="#0296E5"/>
<path d="M334.466 228.933L344 248L348.857 267.428C349.258 269.032 349.986 270.536 350.996 271.846C352.005 273.155 353.275 274.242 354.724 275.037C356.174 275.833 357.772 276.32 359.419 276.469C361.066 276.618 362.725 276.425 364.294 275.902L389.458 267.514C392.327 266.558 394.73 264.554 396.185 261.902C397.64 259.251 398.04 256.148 397.305 253.214L387.005 212.031C386.615 210.47 385.914 209.003 384.945 207.717C383.976 206.432 382.759 205.355 381.365 204.55C379.971 203.745 378.43 203.229 376.833 203.032C375.235 202.835 373.615 202.961 372.067 203.403L341.899 212.023C340.203 212.508 338.635 213.36 337.306 214.52C335.977 215.679 334.921 217.118 334.211 218.732C333.501 220.347 333.156 222.098 333.2 223.861C333.244 225.624 333.676 227.356 334.466 228.933Z" fill="#5F967C"/>
<path d="M389.46 267.51L364.29 275.9C362.722 276.423 361.063 276.617 359.417 276.468C357.771 276.32 356.173 275.833 354.724 275.037C353.275 274.242 352.006 273.155 350.997 271.846C349.988 270.537 349.26 269.034 348.86 267.43L344 248L392 232L397.3 253.22C398.037 256.152 397.638 259.253 396.184 261.904C394.73 264.554 392.328 266.556 389.46 267.51Z" fill="#5F967C"/>
<path d="M389.46 267.51L364.29 275.9C362.722 276.423 361.063 276.617 359.417 276.468C357.771 276.32 356.173 275.833 354.724 275.037C353.275 274.242 352.006 273.155 350.997 271.846C349.988 270.537 349.26 269.034 348.86 267.43L344 248L392 232L397.3 253.22C398.037 256.152 397.638 259.253 396.184 261.904C394.73 264.554 392.328 266.556 389.46 267.51Z" fill="#55876F"/>
<path d="M168.008 240C166.625 240.001 165.265 239.644 164.062 238.963C162.858 238.282 161.851 237.301 161.14 236.115L151.54 220.115C150.999 219.214 150.642 218.216 150.487 217.177C150.332 216.137 150.384 215.078 150.639 214.059C150.894 213.04 151.347 212.081 151.972 211.236C152.597 210.392 153.383 209.68 154.284 209.139C155.185 208.599 156.183 208.241 157.222 208.086C158.262 207.932 159.321 207.983 160.34 208.238C161.359 208.493 162.319 208.946 163.163 209.571C164.007 210.197 164.719 210.982 165.26 211.883L174.86 227.883C175.588 229.097 175.982 230.481 176 231.896C176.018 233.312 175.661 234.706 174.964 235.938C174.268 237.17 173.257 238.195 172.035 238.909C170.813 239.622 169.423 239.999 168.008 240ZM144.008 200C142.625 200.001 141.265 199.644 140.062 198.963C138.858 198.282 137.851 197.301 137.14 196.115L115.471 160H95.9999C94.5143 160 93.0581 159.586 91.7944 158.805C90.5307 158.024 89.5094 156.907 88.8449 155.578L48.8449 75.5781C48.3654 74.6375 48.0767 73.6113 47.9957 72.5586C47.9146 71.5058 48.0427 70.4475 48.3726 69.4445C48.7025 68.4416 49.2277 67.5139 49.9179 66.7148C50.6081 65.9158 51.4496 65.2614 52.3939 64.7891C53.3383 64.3169 54.3667 64.0363 55.42 63.9634C56.4733 63.8906 57.5307 64.0269 58.531 64.3646C59.5314 64.7024 60.455 65.2348 61.2486 65.9312C62.0422 66.6276 62.6901 67.4741 63.1549 68.4221L100.944 144H120C121.381 144 122.739 144.358 123.942 145.039C125.144 145.719 126.149 146.7 126.86 147.884L150.86 187.884C151.588 189.098 151.981 190.482 151.999 191.897C152.018 193.312 151.66 194.707 150.964 195.938C150.267 197.17 149.256 198.195 148.034 198.908C146.812 199.622 145.423 199.999 144.008 200ZM304.007 460.445C302.712 460.447 301.437 460.135 300.29 459.535C299.143 458.935 298.158 458.065 297.422 457L234.94 366.746L213.47 359.589C211.659 358.985 210.123 357.753 209.14 356.116L194.74 332.116C193.648 330.297 193.324 328.118 193.839 326.06C194.353 324.001 195.665 322.232 197.484 321.14C199.303 320.049 201.482 319.724 203.54 320.239C205.599 320.754 207.368 322.065 208.46 323.884L221.337 345.346L242.53 352.411C244.172 352.958 245.592 354.023 246.578 355.446L310.578 447.891C311.409 449.091 311.895 450.495 311.985 451.952C312.075 453.409 311.765 454.862 311.088 456.155C310.412 457.448 309.394 458.531 308.146 459.287C306.898 460.044 305.466 460.444 304.007 460.445ZM184.008 306.667C182.625 306.669 181.265 306.311 180.062 305.631C178.858 304.95 177.851 303.969 177.14 302.783L161.14 276.116C160.048 274.297 159.724 272.118 160.239 270.06C160.753 268.001 162.065 266.232 163.884 265.14C165.703 264.049 167.882 263.724 169.94 264.239C171.999 264.754 173.768 266.065 174.86 267.884L190.86 294.55C191.588 295.764 191.982 297.148 192 298.563C192.018 299.979 191.661 301.373 190.964 302.605C190.268 303.837 189.257 304.862 188.035 305.576C186.813 306.289 185.423 306.666 184.008 306.667Z" fill="#715329"/>
<path d="M320 176H352C354.122 176 356.157 176.843 357.657 178.343C359.157 179.843 360 181.878 360 184C360 186.122 359.157 188.157 357.657 189.657C356.157 191.157 354.122 192 352 192H312L320 176Z" fill="#DCB93F"/>
<path d="M160.005 416C158.786 416.001 157.582 415.724 156.487 415.189C155.391 414.653 154.433 413.874 153.685 412.911L145.685 402.626C145.04 401.796 144.565 400.848 144.286 399.835C144.008 398.822 143.931 397.764 144.062 396.722C144.192 395.679 144.526 394.673 145.046 393.759C145.565 392.846 146.259 392.044 147.089 391.399C147.918 390.754 148.866 390.279 149.879 390C150.892 389.722 151.95 389.645 152.992 389.776C154.035 389.906 155.041 390.24 155.955 390.76C156.868 391.279 157.67 391.973 158.315 392.803L166.315 403.088C167.234 404.269 167.804 405.685 167.958 407.175C168.112 408.664 167.846 410.167 167.188 411.512C166.531 412.857 165.509 413.991 164.239 414.784C162.969 415.578 161.502 415.999 160.005 416ZM128.894 376C127.675 376.001 126.471 375.724 125.376 375.189C124.28 374.653 123.322 373.874 122.574 372.912L97.685 340.912C96.9795 340.004 96.4776 338.956 96.2136 337.838C95.9496 336.719 95.9296 335.557 96.155 334.431L103.518 297.618L74.225 252.346C73.6496 251.464 73.2539 250.477 73.0608 249.441C72.8676 248.406 72.8808 247.343 73.0995 246.313C73.3182 245.283 73.7382 244.306 74.3353 243.438C74.9324 242.571 75.6949 241.83 76.5791 241.258C77.4632 240.686 78.4516 240.294 79.4876 240.104C80.5236 239.915 81.5867 239.932 82.6161 240.155C83.6454 240.378 84.6206 240.801 85.4858 241.402C86.3511 242.002 87.0892 242.767 87.658 243.654L118.717 291.654C119.849 293.403 120.254 295.525 119.845 297.569L112.562 333.979L135.2 363.088C136.119 364.269 136.688 365.685 136.843 367.174C136.997 368.663 136.731 370.165 136.074 371.51C135.417 372.855 134.396 373.989 133.127 374.783C131.857 375.576 130.391 375.998 128.894 376ZM68.35 228.54C66.5661 229.691 64.3981 230.087 62.3225 229.64C60.2468 229.194 58.4332 227.942 57.28 226.16L24 174.73V145.27L70.72 217.47C71.8724 219.252 72.27 221.419 71.8257 223.495C71.3813 225.571 70.1312 227.385 68.35 228.54ZM226.25 488H205.75L179.78 455.54L119.01 447.94C116.942 447.679 115.056 446.625 113.75 445L81.75 405C81.0934 404.179 80.6049 403.237 80.3123 402.227C80.0198 401.218 79.929 400.16 80.0451 399.116C80.1611 398.071 80.4818 397.059 80.9888 396.139C81.4958 395.218 82.1792 394.406 83 393.75C83.8208 393.093 84.7628 392.604 85.7724 392.312C86.7819 392.019 87.8392 391.928 88.8839 392.045C89.9285 392.161 90.9401 392.481 91.8608 392.988C92.7816 393.495 93.5934 394.179 94.25 395L124.22 432.46L184.99 440.06C187.058 440.32 188.944 441.375 190.25 443L226.25 488Z" fill="#715329"/>
<path d="M454.634 128C455.541 125.431 456.003 122.725 456 120C455.999 114.852 454.343 109.84 451.277 105.704C448.21 101.568 443.895 98.5278 438.969 97.0314C437.476 92.1024 434.436 87.7845 430.3 84.7158C426.164 81.647 421.15 79.9902 416 79.9902C410.85 79.9902 405.836 81.647 401.7 84.7158C397.564 87.7845 394.524 92.1024 393.031 97.0314C388.106 98.5298 383.792 101.571 380.726 105.706C377.66 109.841 376.003 114.852 376 120C375.997 122.725 376.459 125.431 377.366 128H454.634Z" fill="#2FBBDF"/>
<path d="M486.634 176C487.541 173.431 488.003 170.725 488 168C487.999 162.852 486.343 157.84 483.277 153.704C480.21 149.568 475.895 146.528 470.969 145.031C469.476 140.102 466.436 135.784 462.3 132.716C458.164 129.647 453.15 127.99 448 127.99C442.85 127.99 437.836 129.647 433.7 132.716C429.564 135.784 426.524 140.102 425.031 145.031C420.106 146.53 415.792 149.571 412.726 153.706C409.66 157.841 408.003 162.852 408 168C407.997 170.725 408.459 173.431 409.366 176H486.634Z" fill="#2FBBDF"/>
<path d="M192 64H176C173.878 64 171.843 63.1571 170.343 61.6569C168.843 60.1566 168 58.1217 168 56C168 53.8783 168.843 51.8434 170.343 50.3431C171.843 48.8429 173.878 48 176 48H192C194.122 48 196.157 48.8429 197.657 50.3431C199.157 51.8434 200 53.8783 200 56C200 58.1217 199.157 60.1566 197.657 61.6569C196.157 63.1571 194.122 64 192 64ZM240 32H208C205.878 32 203.843 31.1571 202.343 29.6569C200.843 28.1566 200 26.1217 200 24C200 21.8783 200.843 19.8434 202.343 18.3431C203.843 16.8429 205.878 16 208 16H240C242.122 16 244.157 16.8429 245.657 18.3431C247.157 19.8434 248 21.8783 248 24C248 26.1217 247.157 28.1566 245.657 29.6569C244.157 31.1571 242.122 32 240 32ZM440 232H424C421.878 232 419.843 231.157 418.343 229.657C416.843 228.157 416 226.122 416 224C416 221.878 416.843 219.843 418.343 218.343C419.843 216.843 421.878 216 424 216H440C442.122 216 444.157 216.843 445.657 218.343C447.157 219.843 448 221.878 448 224C448 226.122 447.157 228.157 445.657 229.657C444.157 231.157 442.122 232 440 232ZM488 264H448C445.878 264 443.843 263.157 442.343 261.657C440.843 260.157 440 258.122 440 256C440 253.878 440.843 251.843 442.343 250.343C443.843 248.843 445.878 248 448 248H488C490.122 248 492.157 248.843 493.657 250.343C495.157 251.843 496 253.878 496 256C496 258.122 495.157 260.157 493.657 261.657C492.157 263.157 490.122 264 488 264ZM176 32H160C157.878 32 155.843 31.1571 154.343 29.6569C152.843 28.1566 152 26.1217 152 24C152 21.8783 152.843 19.8434 154.343 18.3431C155.843 16.8429 157.878 16 160 16H176C178.122 16 180.157 16.8429 181.657 18.3431C183.157 19.8434 184 21.8783 184 24C184 26.1217 183.157 28.1566 181.657 29.6569C180.157 31.1571 178.122 32 176 32ZM488 232H472C469.878 232 467.843 231.157 466.343 229.657C464.843 228.157 464 226.122 464 224C464 221.878 464.843 219.843 466.343 218.343C467.843 216.843 469.878 216 472 216H488C490.122 216 492.157 216.843 493.657 218.343C495.157 219.843 496 221.878 496 224C496 226.122 495.157 228.157 493.657 229.657C492.157 231.157 490.122 232 488 232Z" fill="#B0D2FD"/>
<path d="M312 183.824C312.018 183.023 312.156 182.23 312.411 181.47L320.411 157.47C320.735 156.464 321.256 155.532 321.943 154.729C322.63 153.925 323.469 153.265 324.412 152.788C325.356 152.311 326.384 152.025 327.438 151.947C328.493 151.87 329.552 152.002 330.555 152.336C331.558 152.671 332.485 153.201 333.282 153.895C334.078 154.59 334.73 155.436 335.198 156.384C335.666 157.331 335.942 158.363 336.009 159.418C336.076 160.473 335.933 161.531 335.589 162.53L328.433 184L312 183.824Z" fill="#E82F3E"/>
<path d="M320 184L307.209 209.582C305.134 213.731 301.682 217.03 297.443 218.914L232 248H200V224L216 216H232L280 184H320Z" fill="#E6CCB4"/>
<path d="M288 120V160L282.81 158.7V118.7L288 120ZM354.809 69.619L354.375 68.751C352.82 65.6364 350.478 62.9821 347.581 61.051L335.054 52.7C330.454 49.6345 325.05 47.9992 319.522 48H318.985C314.375 47.9995 309.836 49.1373 305.772 51.3123C301.707 53.4873 298.242 56.6323 295.685 60.468L292.205 65.201C292.001 65.0721 291.791 64.9533 291.575 64.845L275.575 56.845C273.68 55.9156 271.494 55.773 269.494 56.4482C267.494 57.1234 265.842 58.5618 264.898 60.4498C263.953 62.3378 263.794 64.5225 264.453 66.5277C265.113 68.5329 266.538 70.1962 268.419 71.155L284.419 79.155C284.886 79.3846 285.374 79.5678 285.876 79.702L340 110L353.56 89.657C355.516 86.7235 356.662 83.325 356.881 79.8061C357.1 76.2871 356.386 72.7727 354.809 69.619Z" fill="#E82F3E"/>
</g>
<defs>
<clipPath id="clip0_170_7618">
<rect width="512" height="512" fill="white"/>
</clipPath>
</defs>
</svg>
