<svg width="512" height="512" viewBox="0 0 512 512" fill="none" xmlns="http://www.w3.org/2000/svg">
<g clip-path="url(#clip0_170_7524)">
<path d="M496 464C494.507 464.008 493.041 463.598 491.768 462.816C490.496 462.034 489.468 460.912 488.8 459.576L464.8 411.576C458.72 399.416 464.8 390.264 471.304 380.56C479.585 369.206 485.316 356.198 488.104 342.424C494.776 309.064 450.84 287.416 450.392 287.224C448.598 286.239 447.25 284.603 446.625 282.655C446 280.706 446.146 278.591 447.033 276.747C447.919 274.902 449.479 273.467 451.391 272.738C453.303 272.008 455.422 272.039 457.312 272.824C459.592 273.912 512.904 300.024 503.792 345.624C500.599 361.449 494.052 376.406 484.592 389.488C478.192 399.088 477.432 401.168 479.096 404.472L503.096 452.472C503.692 453.685 503.971 455.03 503.907 456.38C503.843 457.731 503.438 459.043 502.729 460.194C502.02 461.345 501.031 462.298 499.855 462.964C498.678 463.629 497.352 463.986 496 464ZM176 392C174.462 391.999 172.956 391.555 171.664 390.72L71.904 326.16C71.0215 325.589 70.26 324.851 69.663 323.986C69.066 323.121 68.6452 322.147 68.4246 321.12C68.2039 320.093 68.1878 319.032 68.3771 317.998C68.5665 316.965 68.9575 315.978 69.528 315.096C70.0985 314.213 70.8372 313.452 71.7019 312.855C72.5667 312.258 73.5405 311.837 74.5679 311.616C75.5953 311.396 76.6561 311.38 77.6897 311.569C78.7233 311.758 79.7095 312.149 80.592 312.72L180.344 377.28C181.795 378.217 182.903 379.599 183.504 381.218C184.105 382.837 184.165 384.608 183.676 386.264C183.187 387.921 182.175 389.375 180.792 390.409C179.408 391.442 177.727 392.001 176 392ZM352.4 349.376L296.048 343.112L288.048 415.112V415.408C288.009 415.868 288.009 416.331 288.048 416.792L296.048 496.792C296.244 498.765 297.167 500.595 298.636 501.927C300.105 503.259 302.017 503.998 304 504H304.8C305.853 503.9 306.875 503.592 307.808 503.095C308.741 502.597 309.566 501.92 310.235 501.102C310.905 500.283 311.406 499.34 311.709 498.327C312.011 497.314 312.11 496.251 312 495.2L304.424 419.432L349.16 382.152L352.4 349.376Z" fill="#844215"/>
<path d="M454.48 282C452.64 275.44 450.08 269.36 448 264C441.44 247.36 422.32 232.24 384 224L256 200C200 184 152 112 152 112L120 16C96 32 96 72 96 72L8 112V144H80.752L134.12 261.752L50.92 329.808C49.2768 331.15 48.234 333.09 48.021 335.201C47.8079 337.312 48.4421 339.421 49.784 341.064L121.784 429.064C123.127 430.707 125.068 431.75 127.18 431.962C129.291 432.174 131.401 431.539 133.044 430.196C134.687 428.853 135.73 426.912 135.942 424.8C136.154 422.689 135.519 420.579 134.176 418.936L67.256 337.128L79.552 327.072L190.344 312.296C203.512 319.8 265.12 352.92 327.144 352.912C329.88 352.912 332.624 352.832 335.36 352.696C334.307 360.979 334.577 369.377 336.16 377.576C336.282 378.203 336.481 378.813 336.752 379.392L392.752 499.392C393.65 501.315 395.274 502.803 397.269 503.529C399.264 504.254 401.465 504.158 403.388 503.26C405.311 502.363 406.799 500.738 407.525 498.743C408.25 496.748 408.154 494.547 407.256 492.624L362.64 397.024L424 352C460.32 327.76 460.4 302.48 454.48 282Z" fill="#C76B28"/>
<path d="M181.336 88H136C133.878 88 131.843 87.1571 130.343 85.6569C128.843 84.1566 128 82.1217 128 80C128 77.8783 128.843 75.8434 130.343 74.3431C131.843 72.8429 133.878 72 136 72H181.336C183.458 72 185.493 72.8429 186.993 74.3431C188.493 75.8434 189.336 77.8783 189.336 80C189.336 82.1217 188.493 84.1566 186.993 85.6569C185.493 87.1571 183.458 88 181.336 88ZM204 136H152C149.878 136 147.843 135.157 146.343 133.657C144.843 132.157 144 130.122 144 128C144 125.878 144.843 123.843 146.343 122.343C147.843 120.843 149.878 120 152 120H204C206.122 120 208.157 120.843 209.657 122.343C211.157 123.843 212 125.878 212 128C212 130.122 211.157 132.157 209.657 133.657C208.157 135.157 206.122 136 204 136ZM241.872 176H192C189.878 176 187.843 175.157 186.343 173.657C184.843 172.157 184 170.122 184 168C184 165.878 184.843 163.843 186.343 162.343C187.843 160.843 189.878 160 192 160H241.872C243.994 160 246.029 160.843 247.529 162.343C249.029 163.843 249.872 165.878 249.872 168C249.872 170.122 249.029 172.157 247.529 173.657C246.029 175.157 243.994 176 241.872 176Z" fill="#844215"/>
<path d="M454.48 282C448.059 278.662 441.401 275.801 434.56 273.44C407.698 264.861 380.037 259.018 352 256C176 248 136 152 120 120C113.535 107.52 102.59 97.9459 89.36 93.2C80.3692 90.7869 71.2546 88.8614 62.056 87.432L96 72C96 72 96 32 120 16L152 112C152 112 200 184 256 200L384 224C422.32 232.24 441.44 247.36 448 264C450.08 269.36 452.64 275.44 454.48 282Z" fill="#E29243"/>
<path d="M256 264C253.878 264 251.843 263.157 250.343 261.657C248.843 260.157 248 258.122 248 256V232C248 229.878 248.843 227.843 250.343 226.343C251.843 224.843 253.878 224 256 224C258.122 224 260.157 224.843 261.657 226.343C263.157 227.843 264 229.878 264 232V256C264 258.122 263.157 260.157 261.657 261.657C260.157 263.157 258.122 264 256 264ZM320 280C317.878 280 315.843 279.157 314.343 277.657C312.843 276.157 312 274.122 312 272V248C312 245.878 312.843 243.843 314.343 242.343C315.843 240.843 317.878 240 320 240C322.122 240 324.157 240.843 325.657 242.343C327.157 243.843 328 245.878 328 248V272C328 274.122 327.157 276.157 325.657 277.657C324.157 279.157 322.122 280 320 280Z" fill="#844215"/>
</g>
<defs>
<clipPath id="clip0_170_7524">
<rect width="512" height="512" fill="white"/>
</clipPath>
</defs>
</svg>
