<svg width="512" height="512" viewBox="0 0 512 512" fill="none" xmlns="http://www.w3.org/2000/svg">
<g clip-path="url(#clip0_170_7477)">
<path d="M344 168L320 144L308.583 197.95L325.333 208L344 168Z" fill="#27C5A7"/>
<path d="M264 120L304 128V112H328V88H336L328 56H264V120Z" fill="#F6BB92"/>
<path d="M205.333 192L232 176L224 248H304L320 144L304 128L264 120L224 128L184 150.222L205.333 192Z" fill="#2AD3B3"/>
<path d="M184 150.222L162.287 162.285C159.169 164.017 156.571 166.552 154.763 169.626C152.954 172.7 152 176.201 152 179.768V272L176 280L200 256L184 240L192 192L205.333 184L184 150.222ZM325.333 208L339.842 216.705C343.395 218.837 347.524 219.813 351.656 219.497C355.788 219.182 359.72 217.59 362.908 214.943L424 164.221L440 156.221L448 132.221L421.582 112L400 124.221V140.221L352 176L344 168L325.333 208Z" fill="#F6BB92"/>
<path d="M248 344L278.943 310.068L248 248L216 304L248 344Z" fill="#0A9ACD"/>
<path d="M152 368H216L200 328H152V368Z" fill="#F6BB92"/>
<path d="M328 432V400H280V464H352V450.091C352 447.153 351.076 444.289 349.357 441.905C347.639 439.521 345.215 437.738 342.427 436.809L328 432Z" fill="#0C82ED"/>
<path d="M292 496C288.044 496 284.178 494.827 280.889 492.629C277.6 490.432 275.036 487.308 273.522 483.654C272.009 479.999 271.613 475.978 272.384 472.098C273.156 468.219 275.061 464.655 277.858 461.858C280.655 459.061 284.219 457.156 288.098 456.384C291.978 455.613 295.999 456.009 299.654 457.522C303.308 459.036 306.432 461.6 308.629 464.889C310.827 468.178 312 472.044 312 476C311.994 481.302 309.885 486.386 306.135 490.135C302.386 493.885 297.302 495.994 292 496ZM292 472C291.209 472 290.436 472.235 289.778 472.674C289.12 473.114 288.607 473.738 288.304 474.469C288.002 475.2 287.923 476.004 288.077 476.78C288.231 477.556 288.612 478.269 289.172 478.828C289.731 479.388 290.444 479.769 291.22 479.923C291.996 480.077 292.8 479.998 293.531 479.696C294.262 479.393 294.886 478.88 295.326 478.222C295.765 477.564 296 476.791 296 476C296 474.939 295.579 473.922 294.828 473.172C294.078 472.421 293.061 472 292 472ZM348 496C344.044 496 340.178 494.827 336.889 492.629C333.6 490.432 331.036 487.308 329.522 483.654C328.009 479.999 327.613 475.978 328.384 472.098C329.156 468.219 331.061 464.655 333.858 461.858C336.655 459.061 340.219 457.156 344.098 456.384C347.978 455.613 351.999 456.009 355.654 457.522C359.308 459.036 362.432 461.6 364.629 464.889C366.827 468.178 368 472.044 368 476C367.994 481.302 365.885 486.386 362.135 490.135C358.386 493.885 353.302 495.994 348 496ZM348 472C347.209 472 346.436 472.235 345.778 472.674C345.12 473.114 344.607 473.738 344.304 474.469C344.002 475.2 343.923 476.004 344.077 476.78C344.231 477.556 344.612 478.269 345.172 478.828C345.731 479.388 346.444 479.769 347.22 479.923C347.996 480.077 348.8 479.998 349.531 479.696C350.262 479.393 350.886 478.88 351.326 478.222C351.765 477.564 352 476.791 352 476C352 474.939 351.579 473.922 350.828 473.172C350.078 472.421 349.061 472 348 472Z" fill="#0BAFEA"/>
<path d="M88 320V392H101.909C104.847 392 107.711 391.076 110.095 389.357C112.479 387.639 114.262 385.215 115.191 382.427L120 368H152V320H88Z" fill="#0C82ED"/>
<path d="M76 352C72.0444 352 68.1776 350.827 64.8886 348.629C61.5996 346.432 59.0362 343.308 57.5224 339.654C56.0087 335.999 55.6126 331.978 56.3843 328.098C57.156 324.219 59.0608 320.655 61.8579 317.858C64.6549 315.061 68.2186 313.156 72.0982 312.384C75.9778 311.613 79.9992 312.009 83.6537 313.522C87.3082 315.036 90.4318 317.6 92.6294 320.889C94.827 324.178 96 328.044 96 332C95.9939 337.302 93.8848 342.386 90.1354 346.135C86.386 349.885 81.3025 351.994 76 352ZM76 328C75.2089 328 74.4355 328.235 73.7777 328.674C73.1199 329.114 72.6072 329.738 72.3045 330.469C72.0017 331.2 71.9225 332.004 72.0769 332.78C72.2312 333.556 72.6122 334.269 73.1716 334.828C73.731 335.388 74.4437 335.769 75.2196 335.923C75.9956 336.077 76.7998 335.998 77.5307 335.696C78.2616 335.393 78.8864 334.88 79.3259 334.222C79.7654 333.564 80 332.791 80 332C80 330.939 79.5786 329.922 78.8284 329.172C78.0783 328.421 77.0609 328 76 328ZM76 408C72.0444 408 68.1776 406.827 64.8886 404.629C61.5996 402.432 59.0362 399.308 57.5224 395.654C56.0087 391.999 55.6126 387.978 56.3843 384.098C57.156 380.219 59.0608 376.655 61.8579 373.858C64.6549 371.061 68.2186 369.156 72.0982 368.384C75.9778 367.613 79.9992 368.009 83.6537 369.522C87.3082 371.036 90.4318 373.6 92.6294 376.889C94.827 380.178 96 384.044 96 388C95.9939 393.302 93.8848 398.386 90.1354 402.135C86.386 405.885 81.3025 407.994 76 408ZM76 384C75.2089 384 74.4355 384.235 73.7777 384.674C73.1199 385.114 72.6072 385.738 72.3045 386.469C72.0017 387.2 71.9225 388.004 72.0769 388.78C72.2312 389.556 72.6122 390.269 73.1716 390.828C73.731 391.388 74.4437 391.769 75.2196 391.923C75.9956 392.077 76.7998 391.998 77.5307 391.696C78.2616 391.393 78.8864 390.88 79.3259 390.222C79.7654 389.564 80 388.791 80 388C80 386.939 79.5786 385.922 78.8284 385.172C78.0783 384.421 77.0609 384 76 384Z" fill="#0BAFEA"/>
<path d="M200 328L216 304L248 344C248 350.365 245.471 356.47 240.971 360.971C236.47 365.471 230.365 368 224 368H216L200 328ZM288 360H328C332.512 355.488 335.321 349.553 335.95 343.203C336.579 336.853 334.988 330.482 331.449 325.173L328 320L280 336L288 360Z" fill="#0C82ED"/>
<path d="M288 360H328V400H288V360Z" fill="#F6BB92"/>
<path d="M328 320L304 248H240V266.277C240 280.313 244.921 293.905 253.907 304.688L280 336L328 320Z" fill="#0BAFEA"/>
<path d="M336 56H256C256 47.5131 259.371 39.3737 265.373 33.3726C271.374 27.3714 279.513 24 288 24H304C312.487 24 320.626 27.3714 326.627 33.3726C332.629 39.3737 336 47.5131 336 56Z" fill="#2AD3B3"/>
<path d="M264 88H288L304 56H264V88Z" fill="#683B0D"/>
</g>
<defs>
<clipPath id="clip0_170_7477">
<rect width="512" height="512" fill="white"/>
</clipPath>
</defs>
</svg>
