<svg width="512" height="512" viewBox="0 0 512 512" fill="none" xmlns="http://www.w3.org/2000/svg">
<g clip-path="url(#clip0_170_7430)">
<path d="M159.928 307.688L143.944 306.928L144.632 292.288L155.12 103.416C158.096 49.912 202.408 8 256 8C309.584 8 353.896 49.912 356.872 103.416L368.016 302.784L352.048 303.768L351.392 293.168L340.896 104.312C338.384 59.272 301.096 24 256 24C210.904 24 173.6 59.28 171.104 104.312L159.928 307.688Z" fill="#893B20"/>
<path d="M288 328V280L312 312L341.4 317.88C348.448 319.288 355.624 320 362.808 320C366.082 320.001 369.24 318.785 371.667 316.588C374.095 314.39 375.618 311.369 375.941 308.11C376.265 304.852 375.365 301.59 373.416 298.958C371.468 296.327 368.611 294.514 365.4 293.872L336 288L323.232 253.96C319.933 245.159 314.026 237.574 306.301 232.22C298.575 226.866 289.399 223.998 280 224H232C222.601 223.998 213.425 226.866 205.699 232.22C197.974 237.574 192.067 245.159 188.768 253.96L176 288L146.6 293.88C143.398 294.53 140.551 296.346 138.611 298.975C136.671 301.604 135.776 304.859 136.098 308.111C136.421 311.362 137.939 314.378 140.358 316.575C142.777 318.771 145.925 319.992 149.192 320C156.384 320 163.552 319.288 170.608 317.88L200 312L224 280V480C224 484.243 225.686 488.313 228.686 491.314C231.687 494.314 235.757 496 240 496C244.243 496 248.313 494.314 251.314 491.314C254.314 488.313 256 484.243 256 480V416L288 328Z" fill="#F6BB95"/>
<path d="M224 480C224 484.243 225.686 488.313 228.686 491.314C231.687 494.314 235.757 496 240 496C244.243 496 248.313 494.314 251.314 491.314C254.314 488.313 256 484.243 256 480V416L280 344H224V480Z" fill="#0E3A60"/>
<path d="M248 493.784C252.76 491.016 256 485.912 256 480V416L280 344H240V480C240 485.904 243.24 491.008 248 493.784Z" fill="#174B84"/>
<path d="M323.232 253.96C319.933 245.159 314.026 237.574 306.301 232.22C298.575 226.866 289.399 223.998 280 224H232C222.601 223.998 213.425 226.866 205.699 232.22C197.974 237.574 192.067 245.159 188.768 253.96L186.912 258.904L217.144 289.136L224 280V344H282.184L288 328V280L294.856 289.144L325.088 258.912L323.232 253.96Z" fill="#52A04F"/>
<path d="M294.856 289.144L325.088 258.912L323.232 253.968C319.935 245.165 314.028 237.579 306.302 232.223C298.577 226.868 289.4 223.999 280 224H240V304C240 310.365 242.529 316.47 247.029 320.971C251.53 325.471 257.635 328 264 328H288V280L294.856 289.144Z" fill="#6DB569"/>
<path d="M232 216V224C232 230.365 234.529 236.47 239.029 240.971C243.53 245.471 249.635 248 256 248C262.365 248 268.47 245.471 272.971 240.971C277.471 236.47 280 230.365 280 224V216" fill="#D69578"/>
<path d="M256 128C245.391 128 235.217 132.214 227.716 139.716C220.214 147.217 216 157.391 216 168V184C216 194.609 220.214 204.783 227.716 212.284C235.217 219.786 245.391 224 256 224C266.609 224 276.783 219.786 284.284 212.284C291.786 204.783 296 194.609 296 184V168C296 157.391 291.786 147.217 284.284 139.716C276.783 132.214 266.609 128 256 128Z" fill="#E8A989"/>
<path d="M260 128.4C239.816 130.44 224 147.28 224 168V184C224 204.72 239.816 221.56 260 223.6C280.184 221.56 296 204.72 296 184V168C296 147.28 280.184 130.44 260 128.4Z" fill="#F6BB95"/>
<path d="M272 432C267.757 432 263.687 430.314 260.686 427.314C257.686 424.313 256 420.243 256 416V328C256 323.757 257.686 319.687 260.686 316.686C263.687 313.686 267.757 312 272 312C276.243 312 280.313 313.686 283.314 316.686C286.314 319.687 288 323.757 288 328V416C288 420.243 286.314 424.313 283.314 427.314C280.313 430.314 276.243 432 272 432Z" fill="#1D549C"/>
<path d="M272 312V400C272 404.243 273.686 408.313 276.686 411.314C279.687 414.314 283.757 416 288 416V328C288 323.757 286.314 319.687 283.314 316.686C280.313 313.686 276.243 312 272 312Z" fill="#2B6BB2"/>
<path d="M288 400H256V416C256 420.243 257.686 424.313 260.686 427.314C263.687 430.314 267.757 432 272 432C276.243 432 280.313 430.314 283.314 427.314C286.314 424.313 288 420.243 288 416V400Z" fill="#969696"/>
<path d="M184 368H200V424H184V368ZM184 440H200V456H184V440ZM384 360C367.406 359.998 350.875 357.964 334.776 353.944L326.064 351.768L329.944 336.248L338.656 338.424C353.464 342.12 368.72 344 384 344V360Z" fill="#92E0F7"/>
<path d="M256 128C245.391 128 235.217 132.214 227.716 139.716C220.214 147.217 216 157.391 216 168V176H246.112C257.072 176 267.096 169.808 272 160L272.848 161.688C274.998 165.988 278.302 169.604 282.391 172.132C286.48 174.66 291.193 175.999 296 176V168C296 157.391 291.786 147.217 284.284 139.716C276.783 132.214 266.609 128 256 128Z" fill="#3F4042"/>
<path d="M260 128.4C239.816 130.44 224 147.28 224 168V176H246.112C257.072 176 267.096 169.808 272 160L272.848 161.688C274.998 165.988 278.302 169.605 282.391 172.133C286.48 174.66 291.193 176 296 176V168C296 147.28 280.184 130.44 260 128.4Z" fill="#5A5B5D"/>
<path d="M280 224V223.816C274.448 228.069 267.87 230.777 260.934 231.666C253.997 232.556 246.949 231.595 240.504 228.88C241.494 233.6 243.883 237.911 247.362 241.251C250.84 244.59 255.244 246.803 260 247.6C265.585 246.664 270.658 243.781 274.319 239.461C277.98 235.14 279.993 229.663 280 224Z" fill="#E8A989"/>
<path d="M272 400V416C272 421.904 275.24 427.008 280 429.784C284.76 427.016 288 421.912 288 416V400H272Z" fill="#B5B5B5"/>
<path d="M256 464H224V480C224 484.243 225.686 488.313 228.686 491.314C231.687 494.314 235.757 496 240 496C244.243 496 248.313 494.314 251.314 491.314C254.314 488.313 256 484.243 256 480V464Z" fill="#969696"/>
<path d="M240 464V480C240 485.904 243.24 491.008 248 493.784C252.76 491.016 256 485.912 256 480V464H240Z" fill="#B5B5B5"/>
</g>
<defs>
<clipPath id="clip0_170_7430">
<rect width="512" height="512" fill="white"/>
</clipPath>
</defs>
</svg>
