<svg width="512" height="512" viewBox="0 0 512 512" fill="none" xmlns="http://www.w3.org/2000/svg">
<g clip-path="url(#clip0_170_7101)">
<path d="M256 496C163.48 496 88.209 420.73 88.209 328.21L88 208.013L104 207.985L104.209 328.195C104.209 411.907 172.302 480 256 480C339.698 480 407.791 411.907 407.791 328.21V208H423.791V328.21C423.791 420.73 348.521 496 256 496Z" fill="#8098AB"/>
<path d="M432 199.79C431.998 204.089 430.289 208.21 427.25 211.25C424.21 214.289 420.089 215.998 415.79 216C411.046 216 406.396 214.678 402.36 212.185C398.324 209.691 395.063 206.123 392.94 201.88L392 200L307.81 157.9L307.43 157.71C306.092 159.819 304.481 161.742 302.64 163.43C300.652 165.257 298.417 166.795 296 168V200H216V168C211.33 165.666 207.38 162.11 204.57 157.71L204.01 157.99L120 200L119.06 201.88C116.935 206.121 113.673 209.688 109.638 212.181C105.603 214.675 100.954 215.997 96.2101 216C92.8511 216 89.5752 214.956 86.8351 213.013C84.0949 211.07 82.0258 208.325 80.9137 205.155C79.8016 201.986 79.7013 198.549 80.6268 195.32C81.5523 192.091 83.4578 189.229 86.0801 187.13L191.23 103.01C196.91 98.4822 203.956 96.0113 211.22 96H300.78C308.044 96.0113 315.09 98.4822 320.77 103.01L425.92 187.13C427.816 188.651 429.347 190.578 430.399 192.769C431.452 194.96 431.999 197.359 432 199.79Z" fill="#FFCEB6"/>
<path d="M312 142.11C312 147.486 310.504 152.756 307.68 157.33L307.81 157.9L307.43 157.71C306.092 159.819 304.481 161.742 302.64 163.43C300.652 165.257 298.417 166.795 296 168V200H216V168C211.33 165.666 207.38 162.11 204.57 157.71L204.01 157.99L204.32 157.33C201.496 152.756 200 147.486 200 142.11V98.04C203.587 96.6914 207.388 96.0003 211.22 96H300.78C304.612 96.0003 308.413 96.6914 312 98.04V142.11Z" fill="#EF5E3B"/>
<path d="M183.529 319.529L168 328L176 384H192L208 344L183.529 319.529Z" fill="#E0EDFF"/>
<path d="M218.323 300.551L183.529 319.529L208 344L217.006 341.229L218.323 300.551Z" fill="#FFBFA1"/>
<path d="M312 252.84V282.46C312 291.014 309.257 299.343 304.174 306.224C299.091 313.105 291.936 318.175 283.76 320.69L256 329.23V200H296C306.429 215.65 311.996 234.034 312 252.84ZM256 200V392H216L205.33 280L202.73 252.71C200.967 234.137 205.653 215.524 216 200H256Z" fill="#FFCEB6"/>
<path d="M272 40L283.03 28.97C284.606 27.3942 286.477 26.1443 288.536 25.2915C290.595 24.4387 292.801 23.9999 295.03 24C299.531 24 303.847 25.7879 307.03 28.9704C310.212 32.1529 312 36.4693 312 40.97V59.156C312 68.0288 314.191 76.7643 318.377 84.5872C322.564 92.4101 328.617 99.0783 336 104H312C303.513 104 295.374 100.629 289.373 94.6274C283.371 88.6263 280 80.4869 280 72L272 56V40Z" fill="#B1712C"/>
<path d="M280 64L279.796 85.808C280 93.255 269.255 104 256 104C249.635 104 243.53 101.471 239.029 96.9706C234.529 92.4697 232 86.3652 232 80V64H280Z" fill="#FFCEB6"/>
<path d="M280 64V56C280 49.6348 277.471 43.5303 272.971 39.0294C268.47 34.5286 262.365 32 256 32C249.635 32 243.53 34.5286 239.029 39.0294C234.529 43.5303 232 49.6348 232 56V64H280Z" fill="#C78640"/>
<path d="M256 328C253.878 328 251.843 327.157 250.343 325.657C248.843 324.157 248 322.122 248 320V280H264V320C264 322.122 263.157 324.157 261.657 325.657C260.157 327.157 258.122 328 256 328Z" fill="#FFBFA1"/>
<path d="M216 392L208 408L240 456H256V392H216Z" fill="#E0EDFF"/>
<path d="M307.91 225.24C305.204 216.286 301.191 207.781 296 200H216C205.653 215.524 200.967 234.137 202.73 252.71L205.33 280H312V252.84C312.001 243.489 310.623 234.189 307.91 225.24Z" fill="#FFB401"/>
<path d="M248 240H264V280H248V240Z" fill="#FFA100"/>
</g>
<defs>
<clipPath id="clip0_170_7101">
<rect width="512" height="512" fill="white"/>
</clipPath>
</defs>
</svg>
