<svg width="512" height="512" viewBox="0 0 512 512" fill="none" xmlns="http://www.w3.org/2000/svg">
<g clip-path="url(#clip0_170_6960)">
<g clip-path="url(#clip1_170_6960)">
<path d="M512 256C511.768 253.982 511.422 251.977 510.964 249.997C506.633 229.605 485.635 161.986 394.769 117.23L370.758 141.241C395.375 152.494 418.039 167.602 437.895 185.997L512 256ZM52.9661 264.828H88.2761V361.931H52.9661V264.828Z" fill="#A5A5A4"/>
<path d="M339.862 273.657C352.05 273.657 361.931 263.776 361.931 251.588C361.931 239.399 352.05 229.519 339.862 229.519C327.674 229.519 317.793 239.399 317.793 251.588C317.793 263.776 327.674 273.657 339.862 273.657Z" fill="#5E5F62"/>
<path d="M52.966 432.553L70.621 361.933H35.311L17.655 432.553H52.966ZM459.035 431.229L443.957 369.657L479.162 370.76L494.345 431.229H459.035Z" fill="#A5A5A4"/>
<path d="M61.793 459.036H8.828C6.48667 459.036 4.24123 458.106 2.58566 456.45C0.93009 454.794 0 452.549 0 450.208L0 432.553C0 430.211 0.93009 427.966 2.58566 426.31C4.24123 424.655 6.48667 423.725 8.828 423.725H61.794C64.1353 423.725 66.3808 424.655 68.0363 426.31C69.6919 427.966 70.622 430.211 70.622 432.553V450.208C70.6217 452.549 69.6914 454.794 68.0357 456.45C66.38 458.106 64.1344 459.036 61.793 459.036ZM450.207 423.726H503.173C505.514 423.726 507.76 424.656 509.415 426.311C511.071 427.967 512.001 430.212 512.001 432.554V450.209C512.001 452.55 511.071 454.795 509.415 456.451C507.76 458.107 505.514 459.037 503.173 459.037H450.207C447.866 459.037 445.62 458.107 443.965 456.451C442.309 454.795 441.379 452.55 441.379 450.209V432.554C441.379 430.212 442.309 427.967 443.965 426.312C445.62 424.656 447.866 423.726 450.207 423.726Z" fill="#5E5F62"/>
<path d="M438.75 80.5191L353.814 165.455C352.159 167.111 349.913 168.04 347.572 168.04C345.231 168.04 342.986 167.111 341.33 165.455L328.846 152.971C327.191 151.316 326.261 149.07 326.261 146.729C326.261 144.388 327.191 142.143 328.846 140.487L413.782 55.5511C415.438 53.8958 417.683 52.9658 420.024 52.9658C422.365 52.9658 424.611 53.8958 426.266 55.5511L438.75 68.0351C440.405 69.6907 441.335 71.936 441.335 74.2771C441.335 76.6183 440.405 78.8636 438.75 80.5191Z" fill="#35495E"/>
<path d="M512 264.828V361.931C511.929 371.652 504.066 379.516 494.345 379.586H17.655C7.917 379.558 0.029002 371.67 1.97394e-06 361.932C-0.0123778 359.614 0.442399 357.317 1.33719 355.178C2.23198 353.04 3.54844 351.103 5.208 349.485C6.82658 347.825 8.76292 346.509 10.9014 345.614C13.04 344.719 15.3369 344.264 17.655 344.277H432.552C388.674 344.277 353.104 308.707 353.104 264.829C353.104 220.951 388.674 185.381 432.552 185.381C476.43 185.381 512 220.95 512 264.828Z" fill="#D1D4D1"/>
<path d="M432.552 308.966C456.929 308.966 476.69 289.205 476.69 264.828C476.69 240.452 456.929 220.69 432.552 220.69C408.175 220.69 388.414 240.452 388.414 264.828C388.414 289.205 408.175 308.966 432.552 308.966Z" fill="#35495E"/>
<path d="M17.655 247.173H123.586C133.337 247.173 141.241 255.077 141.241 264.828C141.241 274.579 133.337 282.483 123.586 282.483H17.655C7.905 282.483 0 274.579 0 264.828C0 255.077 7.905 247.173 17.655 247.173Z" fill="#5E5F62"/>
</g>
</g>
<defs>
<clipPath id="clip0_170_6960">
<rect width="512" height="512" fill="white"/>
</clipPath>
<clipPath id="clip1_170_6960">
<rect width="512" height="512" fill="white"/>
</clipPath>
</defs>
</svg>
