<svg width="512" height="512" viewBox="0 0 512 512" fill="none" xmlns="http://www.w3.org/2000/svg">
<g clip-path="url(#clip0_170_6819)">
<path d="M353.171 8.33V275.134H125.172V0H95.1721V429.941H125.172V305.134H353.171V429.941H383.171V8.33H353.171Z" fill="#87A0AF"/>
<path d="M353.171 0V275.134H242.278V305.134H353.171V429.941H383.171V0H353.171Z" fill="#607882"/>
<path d="M72.9131 400.016H146.429V512H72.9131V400.016Z" fill="#09607D"/>
<path d="M331.413 400.016H404.929V512H331.413V400.016Z" fill="#07485E"/>
<path d="M217.134 291.436C265.251 339.553 331.21 360.684 398.896 355.95C420.457 354.442 436.93 337.969 438.438 316.408C443.172 248.722 422.041 182.763 373.924 134.646C325.807 86.5294 259.848 65.3984 192.162 70.1324C170.601 71.6404 154.128 88.1134 152.62 109.674C147.886 177.36 169.017 243.318 217.134 291.436Z" fill="#9E5015"/>
<path d="M438.438 316.408C443.172 248.722 422.041 182.764 373.924 134.646C325.807 86.5294 259.848 65.3984 192.162 70.1324C181.381 70.8864 171.873 75.3814 164.871 82.3834L426.187 343.699C433.189 336.697 437.684 327.189 438.438 316.408Z" fill="#CB671B"/>
<path d="M340.599 213.008L328.654 224.953L313.62 209.919L325.565 197.974L310.53 182.939L298.585 194.884L283.617 179.916L295.562 167.971L280.528 152.937L235.425 198.04L250.459 213.074L262.405 201.129L277.372 216.097L265.427 228.042L280.462 243.076L292.407 231.131L307.441 246.165L295.496 258.111L310.53 273.145L355.633 228.042L340.599 213.008Z" fill="#BFB3AF"/>
<path d="M340.599 213.008L328.654 224.953L313.62 209.919L325.565 197.974L310.53 182.939L298.585 194.884L283.617 179.916L295.562 167.971L280.528 152.937L257.943 175.522L260.988 178.566L318.014 235.592L329.937 247.516L333.048 250.627L355.633 228.042L340.599 213.008Z" fill="#FFF5F5"/>
<path d="M261.399 74.6172L157.106 178.911C159.427 190.133 162.571 201.169 166.515 211.928L294.416 84.0262C283.657 80.0827 272.621 76.9378 261.399 74.6172ZM424.473 213.956L296.444 341.985C307.195 345.936 318.223 349.089 329.438 351.417L433.905 246.95C431.576 235.735 428.424 224.707 424.473 213.956Z" fill="#BFB3AF"/>
<path d="M261.399 74.6172L209.252 126.764L230.465 147.977L294.416 84.0262C283.656 80.0827 272.621 76.9378 261.399 74.6172ZM424.473 213.956L360.459 277.97L381.672 299.183L433.905 246.95C431.576 235.735 428.423 224.707 424.473 213.956Z" fill="#FFF5F5"/>
</g>
<defs>
<clipPath id="clip0_170_6819">
<rect width="512" height="512" fill="white"/>
</clipPath>
</defs>
</svg>
