<svg width="512" height="512" viewBox="0 0 512 512" fill="none" xmlns="http://www.w3.org/2000/svg">
<g clip-path="url(#clip0_170_6678)">
<path d="M184 456L197.936 476.904C199.281 478.923 199.999 481.294 200 483.72C200 486.977 198.706 490.1 196.403 492.403C194.1 494.706 190.977 496 187.72 496C181.467 496.001 175.275 494.77 169.497 492.377C163.72 489.984 158.47 486.477 154.048 482.056L128 456C128 449.635 130.529 443.53 135.029 439.029C139.53 434.529 145.635 432 152 432H160M320 392L334.336 420.672C335.431 422.86 336.001 425.273 336 427.72C336 430.977 334.706 434.1 332.403 436.403C330.1 438.706 326.977 440 323.72 440C317.467 440.001 311.275 438.77 305.497 436.377C299.72 433.984 294.47 430.477 290.048 426.056L264 400C264 393.635 266.529 387.53 271.029 383.029C275.53 378.529 281.635 376 288 376H296" fill="#4C4C4C"/>
<path d="M344 164L360.2 155.904C365.263 153.369 369.369 149.263 371.904 144.2C373.135 141.736 375.029 139.664 377.371 138.216C379.714 136.768 382.414 136 385.168 136C389.102 136 392.874 137.563 395.656 140.344C398.437 143.126 400 146.898 400 150.832C400 155.832 398.427 160.705 395.503 164.761C392.58 168.817 388.455 171.85 383.712 173.432C378.583 175.138 373.636 177.349 368.944 180.032L334.544 199.704" fill="#F2B9A1"/>
<path d="M272 168L256 136L304 104L328 120L333.152 127.728C340.225 138.34 344 150.807 344 163.56C344.001 171.781 342.432 179.928 339.376 187.56L328 216V240L384 272L344 312L331.008 305.504C318.506 299.254 304.721 296.001 290.744 296C277.286 296 264.379 290.654 254.863 281.137C245.346 271.621 240 258.714 240 245.256C240 236.675 242.92 228.349 248.28 221.648L255.696 212.376L272 168Z" fill="#E73844"/>
<path d="M328 240V216L339.376 187.552C343.27 177.824 344.738 167.294 343.653 156.871C342.569 146.449 338.965 136.447 333.152 127.728L328 120L308 106.664L284 122.664C279.419 125.739 275.881 130.134 273.857 135.267C271.832 140.399 271.416 146.026 272.664 151.4L281.736 169.6L277.2 174.136C276.954 175.573 276.593 176.989 276.12 178.368L292.256 198.536C299.842 208.042 303.982 219.838 304 232C304 238.365 301.471 244.47 296.971 248.971C292.47 253.471 286.365 256 280 256C273.635 256 267.53 253.471 263.029 248.971C258.529 244.47 256 238.365 256 232C255.94 229.494 255.317 227.033 254.176 224.8C250.185 230.879 248.04 237.984 248 245.256C248 258.714 253.346 271.621 262.863 281.137C272.379 290.654 285.286 296 298.744 296C312.721 296.001 326.506 299.255 339.008 305.504L346.664 309.336L384 272L328 240Z" fill="#FF4D55"/>
<path d="M344 40C348.243 40 352.313 38.3143 355.314 35.3137C358.314 32.3131 360 28.2435 360 24V16H312C301.391 16 291.217 20.2143 283.716 27.7157C276.214 35.2172 272 45.3913 272 56C272.003 65.6163 274.684 75.0419 279.74 83.2213C284.797 91.4007 292.031 98.011 300.632 102.312L304 104L344 40Z" fill="#785349"/>
<path d="M288 56C288.018 63.9425 289.865 71.774 293.399 78.8871C296.933 86.0002 302.057 92.2036 308.376 97.016L344 40C348.243 40 352.313 38.3143 355.314 35.3137C358.314 32.3131 360 28.2435 360 24V16H328C317.391 16 307.217 20.2143 299.716 27.7157C292.214 35.2172 288 45.3913 288 56Z" fill="#916658"/>
<path d="M336 104C340.243 104 344.313 102.314 347.314 99.3137C350.314 96.3131 352 92.2435 352 88L360 80L352 64V59.312C351.999 52.0687 349.121 45.1223 344 40L320 48C315.757 48 311.687 49.6857 308.686 52.6863C305.686 55.6869 304 59.7565 304 64C304 68.2435 305.686 72.3131 308.686 75.3137C311.687 78.3143 315.757 80 320 80L304 104C304 108.243 305.686 112.313 308.686 115.314C311.687 118.314 315.757 120 320 120H328L336 104ZM222.72 337.92L213.456 351.816C209.866 357.214 205.244 361.85 199.856 365.456C189.681 372.241 182.399 382.575 179.432 394.44C177.187 403.411 173.418 411.93 168.288 419.624L160 432C160 438.365 162.529 444.47 167.029 448.971C171.53 453.471 177.635 456 184 456L199.928 428.12C210.498 409.626 225.228 393.847 242.952 382.032C254.399 374.403 263.483 363.723 269.176 351.2L222.72 337.92ZM344 312L310.576 358.792C306.2 364.92 301.325 370.676 296 376C296 380.243 297.686 384.313 300.686 387.314C303.687 390.314 307.757 392 312 392H320C341.233 365.462 366.027 341.982 393.68 322.224L399.568 318.024C402.18 316.156 404.308 313.691 405.775 310.834C407.241 307.977 408.004 304.811 408 301.6C408 297.575 406.793 293.642 404.535 290.31C402.278 286.977 399.074 284.398 395.336 282.904L379.432 276.504L344 312Z" fill="#F2B9A1"/>
<path d="M104 320H184V336H104V320ZM160 248H208V264H160V248ZM152 88H248V104H152V88ZM120 88H136V104H120V88Z" fill="#8ADEF9"/>
<path d="M299.776 296.456L272 352L216 336L232 296C231.99 282.768 235.29 269.743 241.6 258.112" fill="#43B6E5"/>
<path d="M291.56 145.344L268.392 160.792L272 168L276.44 174.656L300.44 158.656L291.56 145.344Z" fill="#E73844"/>
<path d="M272 168L264 176L286.008 203.504C292.475 211.594 295.999 221.643 296 232C296 236.243 294.314 240.313 291.314 243.314C288.313 246.314 284.243 248 280 248C275.757 248 271.687 246.314 268.686 243.314C265.686 240.313 264 236.243 264 232C263.999 226.797 262.374 221.724 259.352 217.488L227.2 172.448C225.127 169.558 224.009 166.093 224 162.536C224 159.37 224.882 156.267 226.546 153.573C228.211 150.88 230.592 148.704 233.424 147.288L256 136L272 168Z" fill="#F2B9A1"/>
<path d="M328 240L242.144 259.816C245.278 270.271 251.699 279.437 260.453 285.955C269.207 292.473 279.83 295.995 290.744 296C304.721 296.001 318.506 299.254 331.008 305.504L344 312L384 272L328 240Z" fill="#43B6E5"/>
<path d="M328 240L298.8 246.736C295.474 251.099 290.728 254.162 285.383 255.396C280.038 256.631 274.43 255.958 269.528 253.496L249.696 258.072C252.525 268.928 258.875 278.54 267.75 285.403C276.625 292.266 287.525 295.993 298.744 296C312.721 296.001 326.506 299.254 339.008 305.504L346.664 309.336L384 272L328 240Z" fill="#8ADEF9"/>
<path d="M184 456L160 432H152C147.606 432.015 143.302 433.25 139.568 435.568L139.496 435.672C137.839 438.657 137.218 442.107 137.731 445.483C138.243 448.859 139.86 451.969 142.328 454.328L162.048 474.056C166.47 478.477 171.72 481.984 177.497 484.377C183.275 486.77 189.467 488.001 195.72 488C196.965 487.98 198.201 487.772 199.384 487.384C199.967 485.644 200.14 483.792 199.888 481.974C199.637 480.156 198.969 478.421 197.936 476.904L184 456ZM296 376H288C283.887 376.006 279.844 377.074 276.265 379.1C272.685 381.127 269.69 384.044 267.568 387.568L290.048 410.056C294.47 414.477 299.72 417.984 305.497 420.377C311.275 422.77 317.467 424.001 323.72 424C325.627 423.997 327.506 423.547 329.208 422.687C330.91 421.827 332.386 420.581 333.52 419.048L320 392L296 376Z" fill="#636363"/>
</g>
<defs>
<clipPath id="clip0_170_6678">
<rect width="512" height="512" fill="white"/>
</clipPath>
</defs>
</svg>
