<svg width="512" height="512" viewBox="0 0 512 512" fill="none" xmlns="http://www.w3.org/2000/svg">
<g clip-path="url(#clip0_170_6537)">
<g clip-path="url(#clip1_170_6537)">
<path d="M361.12 494.88H195.253C193.839 494.88 192.482 494.318 191.482 493.317C190.482 492.317 189.92 490.961 189.92 489.546C189.92 488.132 190.482 486.775 191.482 485.775C192.482 484.775 193.839 484.213 195.253 484.213H361.12C362.534 484.213 363.891 484.775 364.891 485.775C365.891 486.775 366.453 488.132 366.453 489.546C366.453 490.961 365.891 492.317 364.891 493.317C363.891 494.318 362.534 494.88 361.12 494.88Z" fill="#06D6A0"/>
<path d="M126.347 278.666L72.7471 303.999C67.8253 306.316 63.9089 310.336 61.7224 315.317C59.536 320.298 59.2274 325.902 60.8537 331.093L88.4804 419.199L115.147 412.053L96.0004 331.519L153.494 312.959L126.347 278.666Z" fill="#7B3033"/>
<path d="M117.014 306.987C115.704 307.144 114.383 306.81 113.305 306.05C112.227 305.29 111.469 304.157 111.177 302.871C110.885 301.585 111.081 300.236 111.725 299.085C112.37 297.934 113.418 297.063 114.667 296.64L132.747 288C134.048 287.37 135.546 287.284 136.912 287.759C138.277 288.234 139.397 289.232 140.027 290.533C140.656 291.835 140.743 293.333 140.268 294.698C139.793 296.063 138.795 297.184 137.494 297.813C117.867 307.147 118.72 306.987 117.014 306.987ZM498.667 248.16C497.252 248.16 495.896 247.598 494.896 246.598C493.895 245.598 493.334 244.241 493.334 242.827V211.52C493.313 203.53 490.152 195.868 484.534 190.187L456.694 162.4C455.668 161.389 455.086 160.011 455.076 158.571C455.066 157.131 455.629 155.745 456.64 154.72C457.652 153.694 459.029 153.113 460.469 153.103C461.909 153.093 463.295 153.655 464.32 154.667L492.107 182.453C495.926 186.255 498.954 190.778 501.014 195.758C503.073 200.738 504.125 206.077 504.107 211.467V242.667C504.129 243.389 504.003 244.109 503.738 244.782C503.473 245.455 503.074 246.067 502.566 246.581C502.057 247.094 501.449 247.499 500.779 247.771C500.108 248.042 499.39 248.175 498.667 248.16Z" fill="#302D3D"/>
<path d="M512 250.666V264.853C512 266.267 511.438 267.624 510.438 268.624C509.438 269.624 508.081 270.186 506.667 270.186H490.667C489.252 270.186 487.896 269.624 486.896 268.624C485.895 267.624 485.333 266.267 485.333 264.853V250.666C485.333 247.13 486.738 243.739 489.239 241.238C491.739 238.738 495.131 237.333 498.667 237.333C502.203 237.333 505.594 238.738 508.095 241.238C510.595 243.739 512 247.13 512 250.666Z" fill="#353C60"/>
<path d="M338.08 312.48C345.672 326.765 356.661 338.964 370.08 348L377.28 352.853C379.824 354.574 381.794 357.019 382.935 359.871C384.076 362.723 384.336 365.852 383.68 368.853L360.693 469.973H396.213L437.013 297.173H338.08V312.48Z" fill="#7B3033"/>
<path d="M382.507 338.826C381.792 338.83 381.084 338.691 380.425 338.416C379.765 338.141 379.167 337.736 378.667 337.226C371.344 329.965 365.159 321.64 360.32 312.533C359.97 311.902 359.748 311.209 359.665 310.493C359.583 309.776 359.643 309.051 359.841 308.358C360.039 307.664 360.372 307.017 360.82 306.452C361.268 305.887 361.823 305.416 362.454 305.066C363.084 304.716 363.777 304.493 364.494 304.411C365.21 304.329 365.936 304.388 366.629 304.586C367.322 304.784 367.97 305.117 368.535 305.565C369.099 306.014 369.57 306.569 369.92 307.199C374.266 315.35 379.822 322.795 386.4 329.279C387.339 329.988 388.018 330.987 388.33 332.121C388.642 333.255 388.57 334.461 388.126 335.55C387.682 336.639 386.89 337.551 385.874 338.144C384.857 338.736 383.674 338.976 382.507 338.826Z" fill="#302D3D"/>
<path d="M469.334 281.706C466.688 287.926 465.831 294.76 466.858 301.441C467.885 308.121 470.755 314.382 475.147 319.52L485.813 332.16L453.334 469.973H418.027L443.307 358.72C423.734 345.6 405.28 335.2 392.32 306.186C378.987 308.106 383.574 307.466 372.16 309.013C318.157 316.761 263.13 313.128 210.614 298.346C210.614 298.88 211.36 293.013 199.413 374.133C196.267 395.946 188.267 449.92 185.387 470.133H156.96C158.294 445.066 156.96 474.186 164.214 332.48C164.366 329.874 163.97 327.264 163.051 324.821C162.133 322.377 160.712 320.153 158.88 318.293L148.267 308.053C137.123 297.218 128.266 284.258 122.22 269.94C116.174 255.621 113.062 240.236 113.067 224.693V198.4L90.0268 140.8C79.6802 144.8 68.6935 138.613 58.9868 148.48L48.3202 159.146C45.8299 161.646 42.8547 163.61 39.5773 164.917C36.3 166.224 32.79 166.846 29.2631 166.746C25.7362 166.647 22.267 165.826 19.069 164.336C15.8709 162.845 13.0116 160.716 10.6668 158.08C3.764 150.201 -0.028488 140.075 0.000161135 129.6C0.000161135 115.093 6.34683 107.093 12.0002 98.9865C19.5268 87.8978 29.848 78.9932 41.9202 73.1732C89.6002 50.2398 87.9468 50.8265 88.4802 50.8265L92.7468 31.1465L142.347 66.3465L208 138.933C212.989 144.416 219.065 148.798 225.842 151.801C232.619 154.804 239.948 156.361 247.36 156.373H256.747V213.333H340.747V152.906C344.585 151.789 348.345 150.417 352 148.8C379.52 136.373 383.04 133.653 413.227 133.653C432.605 133.653 451.19 141.351 464.893 155.054C478.595 168.757 486.294 187.341 486.294 206.72C486.08 245.333 484.107 246.986 469.334 281.706Z" fill="#B75351"/>
<path d="M356.053 158.88C384.373 146.026 385.92 144.533 413.013 144.533C424.193 144.518 435.168 147.529 444.773 153.247C454.379 158.966 462.258 167.178 467.573 177.013C468.281 178.286 469.465 179.226 470.865 179.626C472.265 180.026 473.767 179.854 475.04 179.146C476.313 178.439 477.253 177.255 477.653 175.855C478.053 174.455 477.881 172.953 477.173 171.68C470.931 160.143 461.69 150.505 450.426 143.783C439.161 137.062 426.291 133.507 413.173 133.493C383.573 133.493 380.107 135.946 354.133 147.68L356.213 158.666L356.053 158.88Z" fill="#D57665"/>
<path d="M353.974 147.84C349.791 149.832 345.458 151.491 341.014 152.8C340.48 152.8 341.014 148.213 341.014 213.226H256.8V156.373C249.131 156.89 241.428 156.316 233.92 154.666C223.94 152.04 214.936 146.575 208 138.933L142.347 66.3465L92.7469 31.1465L88.4802 50.8265C87.9469 50.8265 50.6136 68.9598 51.1469 68.7465C50.3389 69.1061 49.6329 69.661 49.0927 70.3612C48.5524 71.0614 48.1948 71.885 48.0519 72.7579C47.9091 73.6307 47.9856 74.5253 48.2745 75.3612C48.5634 76.1972 49.0556 76.9481 49.7069 77.5465C50.4991 78.3469 51.5243 78.8761 52.6356 79.0581C53.747 79.2401 54.8874 79.0657 55.8936 78.5598C95.6802 59.4131 88.8002 61.7065 97.1736 61.7065C97.4711 60.3704 98.0957 59.1291 98.9913 58.0941C99.8869 57.059 101.026 56.2625 102.305 55.7761C103.584 55.2897 104.965 55.1286 106.322 55.3073C107.679 55.4859 108.97 55.9988 110.08 56.7998L135.04 74.6665L200 146.24C205.824 152.684 212.899 157.874 220.794 161.496C228.688 165.118 237.237 167.095 245.92 167.306V224H351.627V160.693C353.134 160.149 354.612 159.526 356.054 158.826L353.974 147.84Z" fill="#D57665"/>
<path d="M203.68 284.96C198.614 299.573 201.654 283.893 188.054 376.32L198.72 378.56C211.04 294.613 210.4 298.56 210.56 298.293C215.574 299.733 220.64 300.907 225.654 302.133L227.734 291.467C217.707 289.067 213.867 288 203.68 284.96Z" fill="#B75351"/>
<path d="M473.12 316.799C472.635 316.023 471.958 315.385 471.155 314.946C470.352 314.507 469.449 314.282 468.534 314.293C467.53 314.249 466.534 314.49 465.661 314.988C464.788 315.486 464.073 316.22 463.599 317.107C463.126 317.993 462.912 318.995 462.983 319.998C463.054 321 463.406 321.962 464 322.773C465.372 324.65 466.868 326.431 468.48 328.106H432.854C428.682 328.063 424.579 327.042 420.874 325.124C417.168 323.207 413.965 320.447 411.52 317.066L409.92 314.773C409.521 314.177 409.009 313.667 408.412 313.269C407.815 312.872 407.146 312.596 406.443 312.458C405.74 312.319 405.016 312.32 404.313 312.461C403.61 312.602 402.942 312.88 402.347 313.279C401.752 313.679 401.241 314.191 400.844 314.788C400.446 315.385 400.17 316.054 400.032 316.757C399.893 317.46 399.894 318.184 400.035 318.887C400.176 319.589 400.454 320.257 400.854 320.853C402.56 323.359 404.374 325.759 406.187 328.106C417.654 342.239 429.654 349.119 443.52 358.453L418.027 469.973H453.334L485.867 332.159C484 329.759 474.667 319.199 473.12 316.799Z" fill="#9E3F3D"/>
<path d="M210.507 480.853H137.44C136.026 480.853 134.669 480.291 133.669 479.291C132.669 478.291 132.107 476.934 132.107 475.52C132.107 474.105 132.669 472.749 133.669 471.749C134.669 470.748 136.026 470.187 137.44 470.187H210.507C211.921 470.187 213.278 470.748 214.278 471.749C215.278 472.749 215.84 474.105 215.84 475.52C215.84 476.934 215.278 478.291 214.278 479.291C213.278 480.291 211.921 480.853 210.507 480.853ZM481.814 480.853H256C254.586 480.853 253.229 480.291 252.229 479.291C251.229 478.291 250.667 476.934 250.667 475.52C250.667 474.105 251.229 472.749 252.229 471.749C253.229 470.748 254.586 470.187 256 470.187H481.814C483.228 470.187 484.585 470.748 485.585 471.749C486.585 472.749 487.147 474.105 487.147 475.52C487.147 476.934 486.585 478.291 485.585 479.291C484.585 480.291 483.228 480.853 481.814 480.853Z" fill="#06D6A0"/>
<path d="M462.454 226.346C461.039 226.346 459.683 225.784 458.682 224.784C457.682 223.784 457.12 222.427 457.12 221.013V210.826C457.14 204.63 455.918 198.494 453.527 192.778C451.136 187.062 447.625 181.883 443.2 177.546C442.689 177.042 442.282 176.442 442.003 175.78C441.723 175.119 441.577 174.409 441.572 173.69C441.567 172.972 441.704 172.26 441.974 171.595C442.244 170.93 442.643 170.324 443.147 169.813C443.651 169.302 444.251 168.895 444.913 168.615C445.574 168.336 446.285 168.189 447.003 168.184C447.721 168.18 448.433 168.316 449.098 168.586C449.764 168.857 450.369 169.255 450.88 169.759C456.334 175.116 460.662 181.508 463.611 188.56C466.56 195.612 468.071 203.182 468.054 210.826V220.906C468.069 221.638 467.934 222.366 467.656 223.044C467.378 223.721 466.963 224.335 466.438 224.845C465.912 225.355 465.288 225.752 464.602 226.01C463.917 226.269 463.185 226.383 462.454 226.346ZM425.547 166.666C418.506 164.429 411.102 163.56 403.734 164.106C402.319 164.106 400.963 163.544 399.962 162.544C398.962 161.544 398.4 160.187 398.4 158.773C398.4 157.358 398.962 156.002 399.962 155.002C400.963 154.001 402.319 153.439 403.734 153.439C412.298 152.835 420.899 153.885 429.067 156.533C429.732 156.764 430.346 157.124 430.872 157.592C431.398 158.06 431.827 158.627 432.134 159.261C432.441 159.895 432.62 160.583 432.662 161.287C432.703 161.99 432.605 162.694 432.374 163.359C432.143 164.025 431.783 164.638 431.315 165.164C430.846 165.691 430.279 166.12 429.645 166.427C429.011 166.734 428.323 166.913 427.62 166.954C426.917 166.995 426.212 166.897 425.547 166.666Z" fill="#D59492"/>
<path d="M210.614 298.293C209.875 301.817 209.323 305.377 208.96 308.959C208 308.959 208.96 309.279 190.827 303.626C190.127 303.426 189.472 303.091 188.902 302.638C188.331 302.186 187.855 301.626 187.501 300.989C187.147 300.353 186.922 299.653 186.838 298.929C186.754 298.206 186.814 297.473 187.014 296.773C187.213 296.072 187.549 295.418 188.001 294.848C188.454 294.277 189.014 293.801 189.651 293.447C190.287 293.093 190.987 292.867 191.71 292.784C192.434 292.7 193.167 292.76 193.867 292.959L210.614 298.293Z" fill="#9E3F3D"/>
<path d="M340.747 152.906V213.333H256.8V156.373C319.574 156.373 325.014 157.493 340.747 152.906Z" fill="#FF325A"/>
<path d="M340.747 152.906V164.693C325.12 169.28 319.84 168.16 256.8 168.16V156.373C319.574 156.373 325.014 157.493 340.747 152.906Z" fill="#FF5F82"/>
<path d="M122.347 126.933C100.374 147.413 99.8935 148.586 94.0802 150.933L90.0269 140.8C93.5469 139.466 93.1202 139.306 114.827 118.986C115.881 117.989 117.287 117.451 118.738 117.491C120.188 117.531 121.563 118.146 122.56 119.2C123.557 120.253 124.095 121.66 124.055 123.11C124.015 124.561 123.401 125.936 122.347 126.933Z" fill="#9E3F3D"/>
<path d="M34.0268 142.72L14.8801 161.76C11.9575 159.529 9.44844 156.804 7.4668 153.707L26.3468 134.933C26.845 134.409 27.4448 133.991 28.1095 133.706C28.7742 133.421 29.4901 133.273 30.2135 133.273C30.9369 133.273 31.6527 133.421 32.3174 133.706C32.9822 133.991 33.5819 134.409 34.0801 134.933C34.6096 135.436 35.0303 136.042 35.3161 136.714C35.6019 137.385 35.7468 138.108 35.7418 138.838C35.7368 139.568 35.582 140.289 35.287 140.957C34.992 141.625 34.5631 142.225 34.0268 142.72Z" fill="#302D3D"/>
<path d="M107.254 63.9997C107.006 64.6738 106.625 65.291 106.134 65.8143C105.642 66.3376 105.05 66.7563 104.392 67.0452C103.735 67.334 103.026 67.4872 102.308 67.4954C101.59 67.5036 100.877 67.3667 100.214 67.093L75.3603 57.653C74.6136 57.653 73.7069 58.0797 88.427 50.9863C93.7598 52.6866 98.9945 54.6808 104.107 56.9597C104.786 57.2017 105.409 57.5787 105.938 58.0681C106.467 58.5575 106.891 59.149 107.185 59.807C107.479 60.465 107.637 61.1757 107.649 61.8963C107.661 62.6169 107.526 63.3324 107.254 63.9997Z" fill="#9E3F3D"/>
<path d="M224.853 151.306C218.47 148.342 212.741 144.135 208 138.933L142.347 66.3463L148.267 46.293L180.267 68.053C187.653 73.0543 193.859 79.6066 198.453 87.253L222.187 126.773C227.893 135.893 225.92 143.36 224.853 151.306Z" fill="#353C60"/>
<path d="M363.627 143.467V217.333C363.634 219.801 363.153 222.245 362.212 224.526C361.271 226.807 359.888 228.879 358.144 230.624C356.399 232.369 354.327 233.751 352.046 234.692C349.765 235.633 347.321 236.114 344.853 236.107H252.693C250.226 236.114 247.782 235.633 245.501 234.692C243.22 233.751 241.148 232.369 239.403 230.624C237.658 228.879 236.276 226.807 235.335 224.526C234.394 222.245 233.913 219.801 233.92 217.333V154.667L256.8 156.427V213.333H340.747V152.907L363.627 143.467Z" fill="#3A5AA6"/>
<path d="M256.8 171.68L233.92 169.867V154.613L256.8 156.373V171.68ZM363.627 143.467V158.72L341.013 168.053C340.48 168.053 341.013 169.44 341.013 152.907L363.627 143.467Z" fill="#3A91C9"/>
<path d="M298.667 269.973C297.252 269.973 295.896 269.411 294.896 268.411C293.895 267.411 293.333 266.054 293.333 264.64V236.16C293.333 234.745 293.895 233.388 294.896 232.388C295.896 231.388 297.252 230.826 298.667 230.826C300.081 230.826 301.438 231.388 302.438 232.388C303.438 233.388 304 234.745 304 236.16V264.533C304.014 265.242 303.887 265.947 303.625 266.607C303.364 267.266 302.973 267.867 302.476 268.373C301.98 268.88 301.387 269.282 300.733 269.557C300.079 269.832 299.376 269.973 298.667 269.973Z" fill="#302D3D"/>
<path d="M321.92 269.973H275.627C274.212 269.973 272.856 269.411 271.856 268.411C270.855 267.411 270.293 266.054 270.293 264.64C270.293 263.225 270.855 261.869 271.856 260.869C272.856 259.869 274.212 259.307 275.627 259.307H321.92C323.335 259.307 324.691 259.869 325.691 260.869C326.692 261.869 327.253 263.225 327.253 264.64C327.253 266.054 326.692 267.411 325.691 268.411C324.691 269.411 323.335 269.973 321.92 269.973Z" fill="#302D3D"/>
<path d="M49.2801 125.6C47.8303 125.6 46.4398 125.024 45.4146 123.999C44.3894 122.974 43.8135 121.583 43.8135 120.134C43.8135 118.684 44.3894 117.293 45.4146 116.268C46.4398 115.243 47.8303 114.667 49.2801 114.667C50.0801 114.667 98.2935 113.707 138.08 62.9869C138.525 62.4231 139.076 61.9524 139.703 61.6017C140.33 61.251 141.019 61.0272 141.732 60.943C142.446 60.8588 143.168 60.9159 143.859 61.111C144.55 61.3062 145.196 61.6355 145.76 62.0802C146.324 62.525 146.795 63.0764 147.145 63.7031C147.496 64.3297 147.72 65.0193 147.804 65.7325C147.888 66.4456 147.831 67.1684 147.636 67.8595C147.441 68.5505 147.112 69.1964 146.667 69.7602C103.253 124.96 51.4135 125.6 49.2801 125.6Z" fill="#F1F2F2"/>
<path d="M49.2269 114.667C47.7771 114.667 46.3866 115.243 45.3614 116.268C44.3362 117.293 43.7603 118.684 43.7603 120.133C43.7603 121.583 44.3362 122.974 45.3614 123.999C46.3866 125.024 47.7771 125.6 49.2269 125.6C71.6405 124.122 93.1797 116.338 111.36 103.147C111.956 102.727 112.462 102.193 112.852 101.577C113.241 100.961 113.505 100.274 113.629 99.5562C113.752 98.8381 113.734 98.1027 113.573 97.3918C113.413 96.681 113.114 96.0088 112.694 95.4134C112.273 94.8181 111.74 94.3114 111.124 93.9222C110.508 93.533 109.821 93.2689 109.103 93.1451C108.385 93.0213 107.649 93.0402 106.939 93.2006C106.228 93.361 105.556 93.6599 104.96 94.0801C88.5746 105.835 69.3193 112.947 49.2269 114.667Z" fill="#D1D3D4"/>
<path d="M145.653 62.0799C145.099 61.626 144.458 61.2887 143.769 61.088C143.081 60.8874 142.359 60.8277 141.647 60.9123C140.936 60.9969 140.248 61.2242 139.626 61.5806C139.004 61.937 138.46 62.4152 138.027 62.9865C129.762 73.5804 120.111 83.0159 109.333 91.0399L116.107 99.7865C127.543 91.152 137.799 81.0573 146.613 69.7599C147.073 69.2002 147.414 68.5528 147.615 67.8572C147.816 67.1615 147.874 66.4322 147.784 65.7136C147.694 64.995 147.459 64.3022 147.093 63.6775C146.726 63.0527 146.237 62.5092 145.653 62.0799Z" fill="#F1F2F2"/>
<path d="M164.427 293.333C163.563 293.346 162.708 293.15 161.937 292.759C161.166 292.369 160.501 291.797 160 291.093C144.843 270.331 136.698 245.279 136.747 219.573C136.747 218.123 137.323 216.733 138.348 215.708C139.373 214.683 140.764 214.107 142.213 214.107C143.663 214.107 145.054 214.683 146.079 215.708C147.104 216.733 147.68 218.123 147.68 219.573C147.697 242.994 155.169 265.802 169.013 284.693C169.661 285.506 170.057 286.49 170.152 287.525C170.248 288.559 170.04 289.599 169.552 290.517C169.065 291.435 168.321 292.19 167.41 292.69C166.5 293.191 165.463 293.414 164.427 293.333ZM233.92 154.667V185.067L225.227 184.427C219.965 184.021 214.854 182.475 210.249 179.897C205.644 177.318 201.655 173.768 198.56 169.493L182.56 147.2C178.687 141.725 176.416 135.28 176 128.587L174.187 101.92L207.893 139.253C214.9 146.795 223.939 152.148 233.92 154.667Z" fill="#FCBA9E"/>
<path d="M384.32 259.786C345.707 278.506 351.467 277.333 308.48 277.333C284.32 277.333 270.347 285.706 248.693 296.053C243.36 295.093 238.027 294.026 233.227 292.906C232.518 292.735 231.781 292.711 231.063 292.835C230.344 292.96 229.659 293.23 229.049 293.63C228.439 294.03 227.918 294.551 227.518 295.16C227.117 295.769 226.845 296.454 226.72 297.173C226.435 298.551 226.707 299.987 227.477 301.166C228.246 302.344 229.45 303.171 230.827 303.466C289.493 316.906 333.067 314.773 392.32 306.346C386.022 291.673 383.281 275.72 384.32 259.786Z" fill="#9E3F3D"/>
<path d="M392.32 306.187C378.987 308.107 383.574 307.467 372.16 309.013C331.679 314.796 290.543 314.22 250.24 307.307C273.174 296.64 286.4 288.16 308.48 288.16C353.067 288.16 350.294 288.48 384 272.16C384.998 283.864 387.804 295.343 392.32 306.187Z" fill="#FCBA9E"/>
<path d="M215.414 212.8C208.725 212.133 202.246 210.093 196.382 206.807C190.518 203.522 185.395 199.062 181.334 193.706L177.334 188.373C176.464 187.22 176.087 185.769 176.287 184.339C176.487 182.908 177.247 181.616 178.4 180.746C179.553 179.876 181.004 179.5 182.434 179.7C183.865 179.9 185.157 180.66 186.027 181.813L190.027 187.146C193.205 191.322 197.217 194.792 201.808 197.335C206.398 199.878 211.468 201.439 216.694 201.92C217.394 201.986 218.074 202.19 218.696 202.519C219.318 202.849 219.868 203.298 220.316 203.84C220.765 204.382 221.102 205.007 221.308 205.68C221.515 206.353 221.587 207.059 221.52 207.76C221.454 208.46 221.25 209.14 220.92 209.762C220.591 210.384 220.142 210.934 219.6 211.382C219.058 211.831 218.432 212.168 217.76 212.374C217.087 212.581 216.381 212.653 215.68 212.586L215.414 212.8Z" fill="#9E3F3D"/>
<path d="M427.734 321.867C426.954 321.875 426.183 321.712 425.473 321.389C424.764 321.067 424.134 320.592 423.627 320C412.378 307.119 406.181 290.595 406.187 273.493C406.187 272.079 406.749 270.722 407.749 269.722C408.749 268.722 410.106 268.16 411.52 268.16C412.935 268.16 414.291 268.722 415.292 269.722C416.292 270.722 416.854 272.079 416.854 273.493C416.967 287.999 422.35 301.969 432 312.8C432.77 313.577 433.283 314.572 433.469 315.65C433.654 316.727 433.504 317.836 433.039 318.826C432.573 319.816 431.814 320.638 430.865 321.182C429.916 321.726 428.823 321.965 427.734 321.867Z" fill="#FCBA9E"/>
<path d="M82.7202 400.906L110.24 391.253L115.307 412.16L88.4802 419.306L82.7202 400.906ZM157.92 451.573H188.054L185.387 469.973H156.96L157.92 451.573ZM364.854 451.573H400.534L396.214 469.973H360.694L364.854 451.573ZM457.867 451.573H422.187L418.027 469.973H453.494L457.867 451.573Z" fill="#353C60"/>
<path d="M308.907 469.973H280.053C282.108 463.301 282.305 456.195 280.623 449.42C278.94 442.644 275.443 436.456 270.507 431.52C280.692 431.548 290.451 435.61 297.647 442.817C304.844 450.023 308.893 459.788 308.907 469.973Z" fill="#118AB2"/>
<path d="M330.187 469.973H308.853C308.865 464.251 307.589 458.601 305.12 453.44C308.216 446.879 313.115 441.334 319.243 437.453C325.372 433.572 332.479 431.514 339.733 431.52C334.807 436.462 331.316 442.651 329.635 449.424C327.953 456.197 328.144 463.3 330.187 469.973ZM106.667 480.853H79.2C77.7855 480.853 76.429 480.291 75.4288 479.291C74.4286 478.291 73.8667 476.934 73.8667 475.52C73.8667 474.105 74.4286 472.748 75.4288 471.748C76.429 470.748 77.7855 470.186 79.2 470.186H106.667C108.081 470.186 109.438 470.748 110.438 471.748C111.438 472.748 112 474.105 112 475.52C112 476.934 111.438 478.291 110.438 479.291C109.438 480.291 108.081 480.853 106.667 480.853Z" fill="#06D6A0"/>
<path d="M392.32 306.186L381.227 307.786C371.894 285.333 373.334 268.853 373.334 244.533C373.334 243.119 373.896 241.762 374.896 240.762C375.896 239.762 377.253 239.2 378.667 239.2C380.082 239.2 381.438 239.762 382.438 240.762C383.438 241.762 384 243.119 384 244.533C384.32 268.533 382.614 284.32 392.32 306.186ZM459.414 261.6L451.574 276.64C450.615 278.48 449.113 279.98 447.27 280.934C445.428 281.889 443.336 282.252 441.28 281.973L433.867 280.906C431.734 280.612 429.753 279.639 428.216 278.131C426.679 276.623 425.668 274.66 425.334 272.533L423.947 263.573C423.593 261.244 424.066 258.864 425.284 256.847C426.502 254.831 428.387 253.304 430.614 252.533L447.04 246.88C448.987 246.38 451.035 246.441 452.949 247.055C454.862 247.668 456.564 248.81 457.857 250.348C459.15 251.887 459.982 253.759 460.257 255.749C460.533 257.74 460.24 259.768 459.414 261.6ZM174.507 332.96C174.436 324.679 171.517 316.675 166.24 310.293L155.574 300.266C145.49 290.424 137.467 278.673 131.973 265.698C126.479 252.723 123.624 238.783 123.574 224.693C123.574 194.56 123.574 196.693 123.04 194.986C122.348 193.215 120.987 191.786 119.252 191.008C117.516 190.23 115.544 190.164 113.76 190.826L110.187 192.106L112.694 198.4V224.693C112.688 240.236 115.801 255.621 121.847 269.94C127.893 284.258 136.75 297.218 147.894 308.053L158.294 318.133C166.454 326.133 164.32 322.933 157.547 451.466H187.68C187.68 450.666 198.987 374.666 199.04 373.973C188.374 363.04 176 353.333 174.507 332.96Z" fill="#9E3F3D"/>
<path d="M65.4403 149.333C64.4463 149.34 63.4702 149.069 62.6221 148.551C61.7739 148.032 61.0875 147.287 60.6403 146.4C49.2035 126.325 33.7317 108.837 15.2003 95.0397C14.6083 94.6351 14.1039 94.1154 13.7174 93.5115C13.3309 92.9077 13.07 92.232 12.9506 91.5251C12.8311 90.8181 12.8554 90.0943 13.022 89.3969C13.1886 88.6996 13.4941 88.0429 13.9203 87.4663C14.7679 86.3501 16.0209 85.6124 17.4082 85.4128C18.7955 85.2132 20.2056 85.5677 21.3336 86.3997C41.2933 101.156 57.9058 119.968 70.0803 141.6C70.4856 142.404 70.6809 143.297 70.6479 144.197C70.6149 145.096 70.3546 145.973 69.8914 146.745C69.4282 147.517 68.7771 148.159 67.9988 148.612C67.2205 149.064 66.3403 149.312 65.4403 149.333Z" fill="#302D3D"/>
</g>
</g>
<defs>
<clipPath id="clip0_170_6537">
<rect width="512" height="512" fill="white"/>
</clipPath>
<clipPath id="clip1_170_6537">
<rect width="512" height="512" fill="white"/>
</clipPath>
</defs>
</svg>
