<svg width="512" height="512" viewBox="0 0 512 512" fill="none" xmlns="http://www.w3.org/2000/svg">
<g clip-path="url(#clip0_170_8135)">
<g clip-path="url(#clip1_170_8135)">
<path d="M282.483 467.862H432.552C452.052 467.862 467.862 452.052 467.862 432.552V88.276L450.207 70.621V0C484.334 0 512 27.666 512 61.793V441.379C512 480.379 480.38 512 441.379 512H282.483V467.862Z" fill="#DE4C3C"/>
<path d="M308.966 388.414H273.656L282.484 423.724H305.886C307.916 418.059 308.958 412.087 308.967 406.069V388.414H308.966ZM238.345 388.414H203.035V406.069C203.043 412.087 204.085 418.059 206.116 423.724H229.518L238.345 388.414ZM361.931 353.103C329.719 353.103 300.535 334.133 287.453 304.701L280.823 289.791C278.69 284.988 275.209 280.907 270.803 278.043C266.397 275.179 261.255 273.654 256 273.654C250.745 273.654 245.603 275.179 241.196 278.043C236.79 280.907 233.31 284.988 231.177 289.791L224.547 304.701C211.465 334.132 182.281 353.103 150.069 353.103C91.5689 353.103 44.1379 305.672 44.1379 247.172V229.517C44.1379 171.017 91.5689 123.586 150.069 123.586H361.931C420.431 123.586 467.862 171.017 467.862 229.517V247.172C467.862 305.673 420.431 353.103 361.931 353.103Z" fill="#FDB62F"/>
<path d="M361.931 317.793C352.999 317.785 344.261 315.191 336.771 310.324C329.282 305.457 323.362 298.525 319.726 290.366L313.096 275.447C299.078 243.915 262.161 229.711 230.62 243.729C216.486 250.012 205.184 261.313 198.902 275.447L192.272 290.357C188.641 298.52 182.722 305.456 175.232 310.325C167.742 315.194 159.001 317.788 150.067 317.793C111.084 317.749 79.49 286.155 79.446 247.172V229.517C79.49 190.534 111.084 158.94 150.067 158.896H361.929C400.912 158.94 432.506 190.534 432.55 229.517V247.172C432.508 286.155 400.914 317.749 361.931 317.793Z" fill="#4398D1"/>
<path d="M0 203.034H61.793V256H0V203.034ZM459.034 203.034H512V256H459.034V203.034ZM256 467.862C221.89 467.827 194.242 440.179 194.207 406.069V388.414H211.862V406.069C211.862 430.442 231.627 450.207 256 450.207C280.373 450.207 300.138 430.442 300.138 406.069V388.414H317.793V406.069C317.758 440.179 290.11 467.827 256 467.862Z" fill="#FDB62F"/>
<path d="M229.517 451.893V485.517C229.517 500.145 241.373 512 256 512H282.483V451.893C274.441 456.571 265.304 459.036 256 459.036C246.696 459.036 237.559 456.571 229.517 451.893Z" fill="#FDB62F"/>
<path d="M450.383 462.866L484.634 497.117C489.299 493.494 493.493 489.301 497.116 484.635L462.865 450.384C459.831 455.537 455.536 459.833 450.383 462.866ZM432.552 512H441.38C444.333 511.982 447.281 511.779 450.208 511.391V462.963C444.864 466.139 438.769 467.83 432.553 467.862V512H432.552ZM462.963 450.207H511.391C511.779 447.276 511.982 444.328 512 441.379V432.551H467.862C467.83 438.768 466.139 444.863 462.963 450.207ZM388.414 467.862H406.069V512H388.414V467.862ZM467.862 388.414H512V406.069H467.862V388.414ZM361.931 158.897H303.722L105.56 301.903C118.117 312.179 133.843 317.794 150.069 317.793C159.003 317.788 167.744 315.194 175.234 310.325C182.724 305.456 188.643 298.52 192.274 290.357L198.904 275.447C212.922 243.915 249.839 229.711 281.38 243.729C295.514 250.011 306.816 261.313 313.097 275.447L319.727 290.366C323.362 298.525 329.282 305.457 336.772 310.324C344.261 315.191 353 317.785 361.932 317.793C400.915 317.749 432.509 286.155 432.553 247.172V229.517C432.508 190.535 400.914 158.941 361.931 158.897Z" fill="#3E8CC7"/>
</g>
</g>
<defs>
<clipPath id="clip0_170_8135">
<rect width="512" height="512" fill="white"/>
</clipPath>
<clipPath id="clip1_170_8135">
<rect width="512" height="512" fill="white"/>
</clipPath>
</defs>
</svg>
