<svg width="512" height="512" viewBox="0 0 512 512" fill="none" xmlns="http://www.w3.org/2000/svg">
<g clip-path="url(#clip0_185_101)">
<rect width="512" height="512" fill="white"/>
<g clip-path="url(#clip1_185_101)">
<path d="M256 224.397L245.539 243.314L224.044 255.558L43.0786 69.914L52.9655 51.1995L69.9145 43.0781L256 224.397ZM406.775 371.376L397.241 397.241L371.377 406.775L256 288.397L264.828 264.827L287.956 255.558L406.775 371.376Z" fill="#E57E25"/>
<path d="M468.921 69.914L287.956 255.558L256 288.397L140.623 406.775L116.798 393.983L105.225 371.376L224.044 255.558L256 224.397L442.085 43.0781L461.065 53.2298L468.921 69.914Z" fill="#F29C1F"/>
<path d="M140.623 406.775L45.9917 503.878C43.5221 506.44 40.5666 508.484 37.298 509.891C34.0293 511.298 30.5131 512.04 26.9547 512.073C23.3962 512.105 19.867 511.428 16.5731 510.082C13.2791 508.735 10.2866 506.745 7.77031 504.229C5.25401 501.713 3.2644 498.72 1.9177 495.426C0.571001 492.132 -0.105774 488.603 -0.0730889 485.045C-0.0404037 481.486 0.701086 477.97 2.10806 474.701C3.51504 471.433 5.55929 468.477 8.12138 466.008L105.225 371.376L140.623 406.775Z" fill="#A56A43"/>
<path d="M494.168 44.05L468.921 69.9148L442.085 43.0789L467.95 17.832L494.168 44.05Z" fill="#464F5D"/>
<path d="M494.256 44.1376L469.009 70.0025L456.977 57.9705L441.997 42.9901L467.862 17.7432L467.95 17.8314L484.414 27.6742L494.168 44.0494L494.256 44.1376Z" fill="#BDC3C7"/>
<path d="M69.9143 43.0789L44.0495 17.832ZM43.0784 69.9148L17.8315 44.05Z" fill="#464F5D"/>
<path d="M504.143 504.143C501.635 506.653 498.652 508.639 495.37 509.986C492.087 511.333 488.569 512.014 485.02 511.989C481.472 511.964 477.964 511.235 474.7 509.842C471.436 508.45 468.482 506.422 466.008 503.878L371.376 406.775L406.775 371.376L503.879 466.008C506.423 468.481 508.45 471.436 509.843 474.699C511.235 477.963 511.965 481.471 511.99 485.02C512.014 488.568 511.333 492.086 509.986 495.369C508.639 498.652 506.653 501.634 504.143 504.143Z" fill="#805333"/>
<path d="M70.003 42.9901L42.9905 70.0025L17.7437 44.1376L17.8319 44.0494L25.6267 25.2201L44.0499 17.8314L44.1381 17.7432L70.003 42.9901Z" fill="#BDC3C7"/>
<path d="M308.966 79.4477C308.966 93.4951 303.385 106.967 293.452 116.9C283.52 126.833 270.048 132.413 256 132.413C241.953 132.413 228.481 126.833 218.548 116.9C208.615 106.967 203.035 93.4951 203.035 79.4477C203.035 74.9721 203.626 70.523 204.8 66.2063C208.004 53.717 215.658 42.8272 226.324 35.5828C236.99 28.3384 249.935 25.238 262.726 26.8639C275.517 28.4899 287.274 34.7303 295.788 44.4129C304.303 54.0956 308.989 66.554 308.966 79.4477Z" fill="#E4C05C"/>
<path d="M307.288 66.2067C304.364 77.5751 297.742 87.6483 288.465 94.8408C279.188 102.033 267.783 105.937 256.044 105.937C244.305 105.937 232.9 102.033 223.623 94.8408C214.346 87.6483 207.724 77.5751 204.8 66.2067C207.724 54.8382 214.346 44.765 223.623 37.5725C232.9 30.38 244.305 26.4766 256.044 26.4766C267.783 26.4766 279.188 30.38 288.465 37.5725C297.742 44.765 304.364 54.8382 307.288 66.2067Z" fill="#F9EAB0"/>
<path d="M238.345 88.2762C236.003 88.2762 233.758 87.3461 232.103 85.6906C230.447 84.0351 229.517 81.7898 229.517 79.4486C229.517 72.4249 232.307 65.6889 237.274 60.7224C242.24 55.756 248.976 52.9658 256 52.9658C258.341 52.9658 260.586 53.8959 262.242 55.5514C263.897 57.2069 264.827 59.4522 264.827 61.7934C264.827 64.1346 263.897 66.38 262.242 68.0355C260.586 69.6909 258.341 70.621 256 70.621C251.127 70.621 247.172 74.5758 247.172 79.4486C247.172 84.3214 243.218 88.2762 238.345 88.2762Z" fill="white"/>
<path d="M512 18.2729C512 23.0575 510.129 27.6478 506.792 31.0729L494.169 44.0495L467.951 17.8316L480.927 5.20811C484.364 1.8386 488.995 -0.034095 493.808 -0.00101585C498.621 0.0320633 503.225 1.96823 506.615 5.38467C510.085 8.77446 512.027 13.4178 512 18.2729ZM44.0499 17.8316L17.8319 44.0495L5.2085 31.0729C1.87578 27.6447 0.00789088 23.0541 0.000223228 18.2729C-0.011759 15.8734 0.458756 13.496 1.38381 11.282C2.30886 9.06791 3.66956 7.06242 5.38505 5.38467C12.4471 -1.73037 23.923 -1.80982 31.0733 5.20811L44.0499 17.8316Z" fill="#3B97D3"/>
</g>
</g>
<defs>
<clipPath id="clip0_185_101">
<rect width="512" height="512" fill="white"/>
</clipPath>
<clipPath id="clip1_185_101">
<rect width="512" height="512" fill="white"/>
</clipPath>
</defs>
</svg>
