<svg width="512" height="512" viewBox="0 0 512 512" fill="none" xmlns="http://www.w3.org/2000/svg">
<g clip-path="url(#clip0_185_79)">
<rect width="512" height="512" fill="white"/>
<g clip-path="url(#clip1_185_79)">
<path d="M300.932 97.1924C293.53 102.149 287.757 109.182 284.337 117.408L274.097 141.242L204.8 141.33L199.503 97.1924H300.932Z" fill="#E57E25"/>
<path d="M485.517 225.103C485.517 230.956 483.192 236.57 479.053 240.708C474.915 244.847 469.301 247.172 463.448 247.172H382.764C378.99 247.173 375.26 246.37 371.82 244.818C368.38 243.265 365.31 240.998 362.814 238.168L349.043 222.455L351.965 199.186L377.203 189.616L385.766 199.856C387.443 201.887 389.932 203.052 392.563 203.034H463.448C466.349 203.025 469.223 203.589 471.905 204.695C474.586 205.801 477.023 207.426 479.074 209.477C481.125 211.529 482.751 213.965 483.856 216.647C484.962 219.329 485.527 222.203 485.517 225.103ZM406.069 61.793C406.069 75.8403 400.489 89.3123 390.556 99.2452C380.623 109.178 367.151 114.758 353.103 114.758C344.203 114.777 335.443 112.535 327.646 108.243C319.848 103.951 313.269 97.7483 308.524 90.2178H308.436C302.978 81.7453 300.095 71.8712 300.138 61.793H406.069Z" fill="#FDD7AD"/>
<path d="M414.808 51.7299C414.976 52.9796 414.876 54.2507 414.515 55.4587C414.153 56.6667 413.539 57.7839 412.712 58.7359C411.885 59.6879 410.865 60.453 409.72 60.9801C408.574 61.5073 407.33 61.7845 406.069 61.7934H300.138C298.877 61.7845 297.632 61.5073 296.487 60.9801C295.342 60.453 294.322 59.6879 293.495 58.7359C292.668 57.7839 292.053 56.6667 291.692 55.4587C291.331 54.2507 291.231 52.9796 291.398 51.7299C293.979 37.2412 301.576 24.1226 312.857 14.6726C324.139 5.22262 338.387 0.0439453 353.103 0.0439453C367.82 0.0439453 382.067 5.22262 393.349 14.6726C404.631 24.1226 412.228 37.2412 414.808 51.7299Z" fill="#E64C3C"/>
<path d="M377.203 189.616L349.043 222.455L336.066 207.536L300.138 291.31L251.092 300.138L200.563 291.31L265.269 141.241L275.509 117.407C278.93 109.181 284.703 102.149 292.105 97.1916C297.027 93.7976 302.58 91.4262 308.436 90.2178H308.524C313.74 98.498 321.164 105.158 329.961 109.447C338.757 113.735 348.576 115.483 358.312 114.494C361.314 120.416 362.973 126.928 363.171 133.566C363.37 140.203 362.102 146.802 359.459 152.894L355.134 163.045L377.203 189.616Z" fill="#F29C1F"/>
<path d="M213.628 141.33H201.181C199.971 141.338 198.775 141.592 197.667 142.078C196.559 142.564 195.562 143.271 194.737 144.155L153.423 189.352C149.503 193.494 144.13 195.958 138.433 196.226C132.736 196.494 127.156 194.545 122.864 190.79C118.572 187.034 115.9 181.762 115.409 176.08C114.919 170.397 116.647 164.746 120.232 160.31L167.548 106.197C170.039 103.361 173.108 101.09 176.549 99.5369C179.99 97.984 183.723 97.1846 187.498 97.1924H208.331L213.628 141.33Z" fill="#FDD7AD"/>
<path d="M335.448 326.621V406.069H291.31V353.104C291.296 348.426 289.432 343.943 286.124 340.635C282.816 337.327 278.333 335.462 273.655 335.449H238.345L212.392 393.887C209.61 400.135 205.079 405.444 199.346 409.173C193.612 412.901 186.922 414.889 180.083 414.897H132.414V370.759H160.485C163.999 370.75 167.177 368.676 168.607 365.462L200.563 291.311H300.138C304.776 291.305 309.371 292.214 313.657 293.987C317.944 295.759 321.839 298.36 325.119 301.64C328.399 304.92 331 308.815 332.772 313.101C334.544 317.388 335.454 321.982 335.448 326.621Z" fill="#3B97D3"/>
<path d="M406.069 457.798C406.064 462.807 404.072 467.61 400.531 471.151C396.989 474.693 392.187 476.685 387.178 476.689H300.138C297.797 476.689 295.551 475.759 293.896 474.104C292.24 472.448 291.31 470.203 291.31 467.862V397.241H335.448C337.789 397.241 340.035 398.171 341.69 399.827C343.346 401.482 344.276 403.728 344.276 406.069V424.872C344.276 426.998 345.044 429.054 346.439 430.659C347.834 432.265 349.762 433.313 351.868 433.611L389.826 439.084C394.338 439.713 398.469 441.956 401.456 445.396C404.442 448.837 406.081 453.243 406.069 457.798Z" fill="#547580"/>
<path d="M308.965 512C318.716 512 326.621 504.095 326.621 494.345C326.621 484.594 318.716 476.689 308.965 476.689C299.215 476.689 291.31 484.594 291.31 494.345C291.31 504.095 299.215 512 308.965 512Z" fill="#BDC3C7"/>
<path d="M379.586 512C389.337 512 397.241 504.095 397.241 494.345C397.241 484.594 389.337 476.689 379.586 476.689C369.835 476.689 361.931 484.594 361.931 494.345C361.931 504.095 369.835 512 379.586 512Z" fill="#BDC3C7"/>
<path d="M141.241 370.759V414.897C141.241 417.238 140.311 419.483 138.656 421.139C137 422.794 134.755 423.724 132.414 423.724H113.611C111.484 423.725 109.429 424.493 107.823 425.888C106.217 427.282 105.169 429.21 104.872 431.316L99.3985 469.275C98.7161 473.999 96.2712 478.29 92.5551 481.286C88.8389 484.282 84.1267 485.761 79.3651 485.426C74.6034 485.091 70.145 482.966 66.8854 479.479C63.6258 475.991 61.8065 471.4 61.793 466.626V379.586C61.793 377.245 62.723 375 64.3785 373.344C66.034 371.689 68.2793 370.759 70.6206 370.759H141.241Z" fill="#547580"/>
<path d="M44.1378 406.069C53.8885 406.069 61.793 398.165 61.793 388.414C61.793 378.663 53.8885 370.759 44.1378 370.759C34.3872 370.759 26.4827 378.663 26.4827 388.414C26.4827 398.165 34.3872 406.069 44.1378 406.069Z" fill="#BDC3C7"/>
<path d="M44.1378 476.69C53.8885 476.69 61.793 468.786 61.793 459.035C61.793 449.284 53.8885 441.38 44.1378 441.38C34.3872 441.38 26.4827 449.284 26.4827 459.035C26.4827 468.786 34.3872 476.69 44.1378 476.69Z" fill="#BDC3C7"/>
</g>
</g>
<defs>
<clipPath id="clip0_185_79">
<rect width="512" height="512" fill="white"/>
</clipPath>
<clipPath id="clip1_185_79">
<rect width="512" height="512" fill="white"/>
</clipPath>
</defs>
</svg>
