<svg width="512" height="512" viewBox="0 0 512 512" fill="none" xmlns="http://www.w3.org/2000/svg">
<g clip-path="url(#clip0_185_90)">
<rect width="512" height="512" fill="white"/>
<path d="M441.4 398.8L450.5 414.8C450.5 414.8 479.4 413 484.5 433.5L418 458.5L406 410.4V399L441.4 398.8Z" fill="#D84861"/>
<path d="M441.4 398.8L406 399V410.3L410 426.3L450.5 414.8L441.4 398.8Z" fill="#C22945"/>
<path d="M244 345.2L253.3 356.6C272.3 345.3 286.7 375.8 286.7 375.8L243.8 411.6C229.8 402.1 228.9 375.6 228.9 375.6L216 360.9V345L244 345.2Z" fill="#D84861"/>
<path d="M244 345.2L216 345V360.9L228.9 375.7L253.3 356.6L244 345.2Z" fill="#C22945"/>
<path d="M266.9 47.4C266.9 47.4 274.5 29.5 268.7 21.7C262.9 13.9 253.7 5 223.2 5C186.4 5 150.6 27.4 150.6 27.4L171.8 39L158.2 53L178.3 59.7L253.2 67.5L266.9 47.4Z" fill="#3279AF"/>
<path d="M362 507C370.284 507 377 500.284 377 492C377 483.716 370.284 477 362 477C353.716 477 347 483.716 347 492C347 500.284 353.716 507 362 507Z" fill="#3279AF"/>
<path d="M179 462C187.284 462 194 455.284 194 447C194 438.716 187.284 432 179 432C170.716 432 164 438.716 164 447C164 455.284 170.716 462 179 462Z" fill="#3279AF"/>
<path d="M259.6 81.0002L265 95.0002C265 95.0002 302.1 75.0002 314.7 70.6002C327.4 66.2002 381.8 40.3002 381.8 40.3002L464.9 35.3002L506.9 28.2002V60.0002L491.9 66.1002L478.1 76.6002L461.6 64.5002L389.5 71.7002L313.6 119.5L351.9 239.5L418.1 282.6L429.5 302.2L441.3 398.6L392.1 415L376.8 321L304.5 282L234.2 285.3L193 225H241.7L197.1 160L100.7 183.2L46.3 230.6L51 242.6L25 262.1L5 249.1L20.3 216L87.6 158.2L167.9 122.4L210.9 110.8" fill="#F6C9AA"/>
<path d="M441.5 398.5L392.3 414.9L377 320.9L304.7 281.9L234.4 285.2L193 225H241.7C283.6 225.1 352.1 239.4 352.1 239.4L418.2 282.5L429.6 302.1L441.5 398.5Z" fill="#3279AF"/>
<path d="M204.9 242.2L234.4 285.1L304.7 281.8L204.9 242.2Z" fill="#275E87"/>
<path d="M313.8 119.4L352.2 239.4C352.2 239.4 283.7 225.1 241.8 225L197.2 160L142.2 173.2L133.1 138.1L168 122.5L211 110.9L259.6 80.9998L265 94.9998C265 94.9998 302.1 74.9998 314.7 70.5998C319.2 68.9998 329.1 64.6998 339.9 59.7998L352.3 95.5998L313.8 119.4Z" fill="#D84861"/>
<path d="M251.6 136.6C268.7 131.8 265 95 265 95L259.6 81L221.7 104.2L235.7 119.4C235.7 119.5 234.4 141.5 251.6 136.6Z" fill="#F3AB7D"/>
<path d="M192.6 224.5C210.3 236.1 223.6 253.3 230.4 273.3L253.3 340.2L202 368.5L168.1 291.7C162.7 279.6 160 266.4 160 253.2V235L192.6 224.5Z" fill="#3279AF"/>
<path d="M256 53.0002C256 53.0002 265.5 40.3002 274.8 53.0002C284.1 65.7002 259.6 80.9002 259.6 80.9002C257.9 94.4002 243.5 116.4 243.5 116.4L228.3 122.3C228.3 122.3 213.1 113.8 203.8 104.5C194.5 95.2002 178.4 59.7002 178.4 59.7002C178.4 59.7002 186.9 37.7002 233.4 35.2002C233.4 35.3002 237.2 53.0002 256 53.0002Z" fill="#F6C9AA"/>
<path d="M204.042 68.703L209.548 81.357L200.378 85.347L194.872 72.693L204.042 68.703ZM228.039 59.708L233.545 72.362L224.375 76.352L218.869 63.698L228.039 59.708Z" fill="#275E87"/>
<path d="M235.837 90.1436L239.707 99.3636L222.558 106.562L218.688 97.3416L235.837 90.1436Z" fill="#F3AB7D"/>
<path d="M406.2 490C403.2 490 400 489.7 396.7 488.9C388.6 487.1 197 444.3 157.5 427.7C137 419.1 128.2 405.4 124.5 395.5C120.4 384.6 121.4 375.7 121.4 375.4L131.3 376.5C131.2 377.7 128.8 404.9 161.3 418.6C200 434.8 396.8 478.8 398.8 479.3C423 484.7 434.4 462.2 434.5 462L443.5 466.4C439.1 475.2 426.2 490 406.2 490Z" fill="#D84861"/>
</g>
<defs>
<clipPath id="clip0_185_90">
<rect width="512" height="512" fill="white"/>
</clipPath>
</defs>
</svg>
