<svg width="512" height="512" viewBox="0 0 512 512" fill="none" xmlns="http://www.w3.org/2000/svg">
<g clip-path="url(#clip0_185_57)">
<rect width="512" height="512" fill="white"/>
<g clip-path="url(#clip1_185_57)">
<g clip-path="url(#clip2_185_57)">
<path d="M486.4 286.601L264.533 303.667L25.6 286.601C25.6 286.601 25.6 184.201 93.8666 184.201L162.133 167.134L221.867 184.201C221.867 226.867 290.133 269.534 341.333 226.867C383.317 191.881 298.667 115.934 298.667 115.934L332.8 98.8672L363.435 115.934C390.571 128.137 436.48 154.334 463.872 201.267C467.098 206.788 469.999 212.489 472.576 218.334C474.965 223.914 477.072 229.61 478.891 235.401C480.64 240.998 482.065 246.699 483.157 252.467C485.359 263.714 486.451 275.14 486.4 286.601Z" fill="#E64C3C"/>
<path d="M469.333 320.734L457.472 364.254C455.655 370.927 452.835 377.286 449.109 383.112C443.226 380.639 436.764 379.879 430.468 380.921C424.171 381.963 418.298 384.764 413.525 389H413.44C407.25 394.484 399.267 397.512 390.997 397.512C382.728 397.512 374.744 394.484 368.555 389H368.469C362.263 383.515 354.266 380.488 345.984 380.488C337.702 380.488 329.705 383.515 323.499 389C317.296 394.521 309.274 397.56 300.971 397.534C292.69 397.574 284.69 394.533 278.528 389C272.328 383.503 264.329 380.468 256.043 380.468C247.757 380.468 239.758 383.503 233.557 389H233.472C227.266 394.485 219.269 397.513 210.987 397.513C202.704 397.513 194.707 394.485 188.501 389C175.667 377.625 156.365 377.625 143.531 389C130.696 400.375 111.394 400.375 98.56 389C92.3573 383.479 84.3358 380.441 76.032 380.467C71.5172 380.445 67.0455 381.346 62.8906 383.112C59.1647 377.286 56.345 370.927 54.528 364.254L42.6666 320.734L256 303.667L469.333 320.734Z" fill="#F9EAB0"/>
<path d="M503.467 389.001V465.801C497.266 471.297 489.267 474.333 480.981 474.333C472.695 474.333 464.696 471.297 458.496 465.801C452.29 460.316 444.293 457.288 436.011 457.288C427.728 457.288 419.731 460.316 413.525 465.801H413.44C407.25 471.284 399.267 474.312 390.997 474.312C382.728 474.312 374.744 471.284 368.555 465.801H368.469C362.307 460.268 354.308 457.226 346.027 457.267C337.724 457.242 329.702 460.279 323.499 465.801C317.295 471.322 309.274 474.359 300.971 474.334C292.69 474.375 284.69 471.333 278.528 465.801C272.322 460.316 264.325 457.288 256.043 457.288C247.76 457.288 239.763 460.316 233.557 465.801H233.472C227.31 471.333 219.31 474.375 211.029 474.334C202.726 474.36 194.704 471.322 188.501 465.801C175.667 454.426 156.365 454.426 143.531 465.801C130.697 477.175 111.394 477.175 98.56 465.801C92.3539 460.316 84.3571 457.288 76.0747 457.288C67.7922 457.288 59.7954 460.316 53.5893 465.801H53.504C47.2979 471.285 39.3011 474.313 31.0187 474.313C22.7362 474.313 14.7394 471.285 8.53333 465.801V389.001C14.7394 394.485 22.7362 397.513 31.0187 397.513C39.3011 397.513 47.2979 394.485 53.504 389.001H53.5893C56.2944 386.475 59.4517 384.478 62.8907 383.113C67.0455 381.346 71.5172 380.446 76.032 380.467C84.3358 380.441 92.3574 383.48 98.56 389.001C111.394 400.375 130.697 400.375 143.531 389.001C156.365 377.626 175.667 377.626 188.501 389.001C194.707 394.485 202.704 397.513 210.987 397.513C219.269 397.513 227.266 394.485 233.472 389.001H233.557C239.758 383.504 247.757 380.468 256.043 380.468C264.329 380.468 272.328 383.504 278.528 389.001C284.69 394.533 292.69 397.575 300.971 397.534C309.274 397.56 317.296 394.522 323.499 389.001C329.705 383.516 337.702 380.488 345.984 380.488C354.266 380.488 362.263 383.516 368.469 389.001H368.555C374.744 394.484 382.728 397.512 390.997 397.512C399.267 397.512 407.25 394.484 413.44 389.001H413.525C418.298 384.764 424.171 381.963 430.468 380.921C436.764 379.879 443.226 380.639 449.109 383.113C452.565 384.495 455.748 386.492 458.496 389.001C464.702 394.485 472.699 397.513 480.981 397.513C489.264 397.513 497.261 394.485 503.467 389.001Z" fill="#2FA8CC"/>
<path d="M480.981 405.998C470.566 406.076 460.497 402.263 452.745 395.306C448.125 391.223 442.172 388.97 436.006 388.97C429.841 388.97 423.888 391.223 419.268 395.306C411.469 402.2 401.419 406.005 391.01 406.005C380.601 406.005 370.551 402.2 362.752 395.306C358.134 391.224 352.182 388.971 346.018 388.971C339.854 388.971 333.903 391.224 329.284 395.306C321.485 402.202 311.433 406.009 301.022 406.009C290.611 406.009 280.559 402.202 272.759 395.306C268.141 391.224 262.19 388.971 256.026 388.971C249.862 388.971 243.91 391.224 239.292 395.306C231.493 402.2 221.443 406.005 211.034 406.005C200.624 406.005 190.574 402.2 182.775 395.306C178.157 391.224 172.206 388.971 166.042 388.971C159.878 388.971 153.926 391.224 149.308 395.306C141.509 402.2 131.459 406.005 121.05 406.005C110.64 406.005 100.59 402.2 92.7915 395.306C88.173 391.224 82.2216 388.971 76.0576 388.971C69.8936 388.971 63.9422 391.224 59.3237 395.306C51.5248 402.2 41.4747 406.005 31.0656 406.005C20.6565 406.005 10.6064 402.2 2.80745 395.306C1.95292 394.557 1.25652 393.646 0.759103 392.624C0.261684 391.603 -0.0267392 390.492 -0.0892478 389.358C-0.151756 388.223 0.0129083 387.088 0.395087 386.018C0.777266 384.948 1.36926 383.965 2.13635 383.127C2.90344 382.289 3.83018 381.612 4.86219 381.137C5.89421 380.662 7.01073 380.397 8.14626 380.36C9.28179 380.322 10.4135 380.511 11.4749 380.916C12.5363 381.321 13.5061 381.934 14.3274 382.72C18.9434 386.797 24.8899 389.047 31.0485 389.047C37.2072 389.047 43.1536 386.797 47.7696 382.72C55.5685 375.826 65.6186 372.02 76.0277 372.02C86.4369 372.02 96.4869 375.826 104.286 382.72C108.906 386.798 114.857 389.049 121.02 389.049C127.183 389.049 133.133 386.798 137.754 382.72C145.553 375.823 155.605 372.017 166.016 372.017C176.427 372.017 186.479 375.823 194.278 382.72C198.895 386.801 204.845 389.054 211.008 389.054C217.171 389.054 223.121 386.801 227.738 382.72C235.537 375.823 245.589 372.017 256 372.017C266.411 372.017 276.463 375.823 284.262 382.72C293.82 391.168 308.173 391.168 317.73 382.72C325.529 375.826 335.579 372.02 345.988 372.02C356.397 372.02 366.447 375.826 374.246 382.72C383.804 391.168 398.165 391.168 407.723 382.72C415.521 375.828 425.569 372.024 435.977 372.024C446.384 372.024 456.432 375.828 464.23 382.72C473.788 391.168 488.149 391.168 497.707 382.72C499.385 381.249 501.572 380.494 503.8 380.617C506.028 380.74 508.119 381.73 509.625 383.376C511.132 385.022 511.933 387.193 511.859 389.422C511.784 391.652 510.84 393.765 509.227 395.306C501.472 402.265 491.4 406.078 480.981 405.998ZM480.981 482.798C470.566 482.876 460.497 479.063 452.745 472.106C448.125 468.023 442.172 465.77 436.006 465.77C429.841 465.77 423.888 468.023 419.268 472.106C411.469 479 401.419 482.805 391.01 482.805C380.601 482.805 370.551 479 362.752 472.106C358.134 468.022 352.183 465.768 346.018 465.768C339.854 465.768 333.902 468.022 329.284 472.106C321.485 479.002 311.433 482.809 301.022 482.809C290.611 482.809 280.559 479.002 272.759 472.106C268.142 468.022 262.19 465.768 256.026 465.768C249.861 465.768 243.909 468.022 239.292 472.106C231.493 479 221.443 482.805 211.034 482.805C200.624 482.805 190.574 479 182.775 472.106C178.157 468.024 172.206 465.771 166.042 465.771C159.878 465.771 153.926 468.024 149.308 472.106C141.509 479 131.459 482.805 121.05 482.805C110.64 482.805 100.59 479 92.7915 472.106C88.1738 468.022 82.2221 465.768 76.0576 465.768C69.8931 465.768 63.9413 468.022 59.3237 472.106C51.5248 479 41.4747 482.805 31.0656 482.805C20.6565 482.805 10.6064 479 2.80745 472.106C1.95292 471.357 1.25652 470.446 0.759103 469.424C0.261684 468.403 -0.0267392 467.292 -0.0892478 466.158C-0.151756 465.023 0.0129083 463.888 0.395087 462.818C0.777266 461.748 1.36926 460.765 2.13635 459.927C2.90344 459.089 3.83018 458.412 4.86219 457.937C5.89421 457.462 7.01073 457.197 8.14626 457.16C9.28179 457.122 10.4135 457.311 11.4749 457.716C12.5363 458.121 13.5061 458.734 14.3274 459.52C18.9434 463.597 24.8899 465.847 31.0485 465.847C37.2072 465.847 43.1536 463.597 47.7696 459.52C55.5685 452.626 65.6186 448.82 76.0277 448.82C86.4369 448.82 96.4869 452.626 104.286 459.52C113.843 467.968 128.196 467.968 137.754 459.52C145.553 452.623 155.605 448.817 166.016 448.817C176.427 448.817 186.479 452.623 194.278 459.52C198.895 463.601 204.845 465.854 211.008 465.854C217.171 465.854 223.121 463.601 227.738 459.52C235.537 452.623 245.589 448.817 256 448.817C266.411 448.817 276.463 452.623 284.262 459.52C288.882 463.598 294.833 465.849 300.996 465.849C307.159 465.849 313.11 463.598 317.73 459.52C325.529 452.626 335.579 448.82 345.988 448.82C356.397 448.82 366.447 452.626 374.246 459.52C383.804 467.968 398.165 467.968 407.723 459.52C415.521 452.628 425.569 448.824 435.977 448.824C446.384 448.824 456.432 452.628 464.23 459.52C473.788 467.968 488.149 467.968 497.707 459.52C499.385 458.049 501.572 457.294 503.8 457.417C506.028 457.54 508.119 458.53 509.625 460.176C511.132 461.822 511.933 463.993 511.859 466.222C511.784 468.452 510.84 470.565 509.227 472.106C501.472 479.065 491.4 482.878 480.981 482.798Z" fill="#67B9CC"/>
<path d="M503.467 303.667C503.433 308.183 501.624 312.504 498.431 315.697C495.238 318.891 490.916 320.7 486.4 320.733H25.6C21.0778 320.72 16.7447 318.917 13.547 315.72C10.3493 312.522 8.54685 308.189 8.53335 303.667C8.50775 299.144 10.3253 294.792 13.568 291.635C16.7253 288.392 21.0773 286.574 25.6 286.6H486.4C490.922 286.613 495.255 288.416 498.453 291.613C501.651 294.811 503.453 299.144 503.467 303.667Z" fill="#BDC3C7"/>
<path d="M230.4 167.133V175.667C230.4 177.93 229.501 180.1 227.901 181.701C226.3 183.301 224.13 184.2 221.867 184.2H59.7333C57.4701 184.2 55.2996 183.301 53.6993 181.701C52.099 180.1 51.2 177.93 51.2 175.667V167.133C51.2 160.344 53.8971 153.832 58.698 149.031C63.499 144.23 70.0104 141.533 76.8 141.533H204.8C211.59 141.533 218.101 144.23 222.902 149.031C227.703 153.832 230.4 160.344 230.4 167.133Z" fill="#464F5D"/>
<path d="M409.6 96.2215V107.4C409.6 109.663 408.701 111.834 407.101 113.434C405.5 115.034 403.33 115.934 401.067 115.934H281.6C279.337 115.934 277.166 115.034 275.566 113.434C273.966 111.834 273.067 109.663 273.067 107.4V51.4215C273.064 50.0442 273.397 48.6869 274.036 47.467C274.676 46.2471 275.603 45.2013 276.737 44.4199C277.871 43.6385 279.179 43.1451 280.546 42.9823C281.914 42.8195 283.301 42.9922 284.587 43.4855L404.053 88.2855C407.381 89.5143 409.591 92.6802 409.6 96.2215Z" fill="#C03A2B"/>
<path d="M273.067 56.2002V90.3335H238.933C234.417 90.3 230.096 88.4912 226.902 85.2978C223.709 82.1044 221.9 77.7829 221.867 73.2669C221.88 68.7447 223.683 64.4115 226.88 61.2138C230.078 58.0161 234.411 56.2137 238.933 56.2002H273.067Z" fill="#464F5D"/>
<path d="M93.8667 226.866H85.3334C83.0702 226.866 80.8997 225.967 79.2994 224.367C77.6991 222.767 76.8 220.596 76.8 218.333C76.8 216.07 77.6991 213.899 79.2994 212.299C80.8997 210.699 83.0702 209.8 85.3334 209.8H93.8667C96.1299 209.8 98.3004 210.699 99.9007 212.299C101.501 213.899 102.4 216.07 102.4 218.333C102.4 220.596 101.501 222.767 99.9007 224.367C98.3004 225.967 96.1299 226.866 93.8667 226.866ZM179.2 226.866H128C125.737 226.866 123.566 225.967 121.966 224.367C120.366 222.767 119.467 220.596 119.467 218.333C119.467 216.07 120.366 213.899 121.966 212.299C123.566 210.699 125.737 209.8 128 209.8H179.2C181.463 209.8 183.634 210.699 185.234 212.299C186.834 213.899 187.733 216.07 187.733 218.333C187.733 220.596 186.834 222.767 185.234 224.367C183.634 225.967 181.463 226.866 179.2 226.866ZM204.8 261H110.933C108.67 261 106.5 260.101 104.899 258.5C103.299 256.9 102.4 254.73 102.4 252.466C102.4 250.203 103.299 248.033 104.899 246.432C106.5 244.832 108.67 243.933 110.933 243.933H204.8C207.063 243.933 209.234 244.832 210.834 246.432C212.434 248.033 213.333 250.203 213.333 252.466C213.333 254.73 212.434 256.9 210.834 258.5C209.234 260.101 207.063 261 204.8 261Z" fill="#802F34"/>
<path d="M472.576 218.333H435.2C432.937 218.333 430.766 217.434 429.166 215.834C427.566 214.234 426.667 212.063 426.667 209.8C426.667 207.537 427.566 205.366 429.166 203.766C430.766 202.166 432.937 201.267 435.2 201.267H463.872C467.098 206.788 469.999 212.488 472.576 218.333ZM483.157 252.467H409.6C407.337 252.467 405.166 251.568 403.566 249.967C401.966 248.367 401.067 246.196 401.067 243.933C401.067 241.67 401.966 239.5 403.566 237.899C405.166 236.299 407.337 235.4 409.6 235.4H478.891C480.64 240.998 482.065 246.698 483.157 252.467Z" fill="#F29C1F"/>
<path d="M76.7999 261H68.2666C66.0034 261 63.8329 260.101 62.2326 258.501C60.6323 256.901 59.7333 254.73 59.7333 252.467C59.7333 250.204 60.6323 248.033 62.2326 246.433C63.8329 244.833 66.0034 243.934 68.2666 243.934H76.7999C79.0631 243.934 81.2336 244.833 82.8339 246.433C84.4342 248.033 85.3333 250.204 85.3333 252.467C85.3333 254.73 84.4342 256.901 82.8339 258.501C81.2336 260.101 79.0631 261 76.7999 261Z" fill="#802F34"/>
</g>
</g>
</g>
<defs>
<clipPath id="clip0_185_57">
<rect width="512" height="512" fill="white"/>
</clipPath>
<clipPath id="clip1_185_57">
<rect width="512" height="512" fill="white"/>
</clipPath>
<clipPath id="clip2_185_57">
<rect width="512" height="512" fill="white" transform="translate(0 5)"/>
</clipPath>
</defs>
</svg>
