<svg width="512" height="512" viewBox="0 0 512 512" fill="none" xmlns="http://www.w3.org/2000/svg">
<g clip-path="url(#clip0_185_68)">
<rect width="512" height="512" fill="white"/>
<g clip-path="url(#clip1_185_68)">
<path d="M1.66791 508.02L149.336 483.004C155.279 481.996 161.281 481.371 167.305 481.133L272.773 476.949C296.843 475.992 320.753 481.219 342.23 492.125L373.91 508.211C375.785 509.161 375.11 511.992 373.004 511.992H1.99991C-0.450095 511.992 -0.750095 508.43 1.66791 508.02Z" fill="#B3E5FC"/>
<path d="M342.23 492.125C320.754 481.218 296.841 475.993 272.773 476.949L261.055 477.414C278.892 479.023 296.26 484.015 312.23 492.121L351.36 511.992H373.004C375.109 511.992 375.785 509.16 373.91 508.211L342.23 492.125Z" fill="#81D4FA"/>
<path d="M323.316 404.453L308.094 405.164L324.605 287.371C325.011 284.471 324.56 281.515 323.306 278.869C322.053 276.222 320.052 274 317.551 272.477L229.223 218.699L236.867 184.352L192.687 167.449L182.707 212.281C182.027 215.34 182.322 218.534 183.549 221.417C184.777 224.299 186.875 226.725 189.551 228.355L293.527 292.973L275.871 418.906C275.564 421.089 275.743 423.313 276.395 425.419C277.047 427.525 278.155 429.462 279.641 431.09C281.125 432.721 282.951 434.004 284.988 434.848C287.025 435.692 289.223 436.076 291.426 435.973L324.715 434.418C332.988 434.035 339.383 427.012 338.996 418.738C338.613 410.465 331.594 404.066 323.316 404.453Z" fill="#607D8B"/>
<path d="M283.617 1.4919C270.633 -3.2071 256.301 3.5119 251.605 16.4959C246.91 29.4799 253.629 43.8159 266.613 48.5119C279.598 53.2069 293.93 46.4879 298.625 33.5039C303.32 20.5199 296.602 6.1879 283.617 1.4919Z" fill="#FFAB91"/>
<path d="M235.727 218.11L182.527 198.871C182.103 198.718 181.714 198.483 181.382 198.18C181.049 197.876 180.78 197.51 180.589 197.103C180.397 196.695 180.289 196.254 180.268 195.804C180.247 195.354 180.316 194.905 180.469 194.481L226.914 66.0472C232.551 50.4692 249.746 42.4072 265.328 48.0392C280.91 53.6722 288.973 70.8712 283.34 86.4532L235.727 218.11Z" fill="#F06292"/>
<path d="M265.328 48.0396C260.377 46.2422 255.038 45.7878 249.855 46.7226C256.52 54.6476 258.902 65.8126 255.125 76.2496L207.515 207.906L235.727 218.109L283.34 86.4526C288.973 70.8706 280.91 53.6726 265.328 48.0396Z" fill="#EC407A"/>
<path d="M281.582 169.902C280.89 169.201 280.067 168.643 279.16 168.26C278.253 167.877 277.279 167.677 276.294 167.67C275.309 167.664 274.333 167.851 273.42 168.222C272.508 168.593 271.678 169.14 270.977 169.832L94.0779 344.359C91.1329 347.269 91.1019 352.019 94.0079 354.965C94.7049 355.674 95.5361 356.236 96.453 356.62C97.3699 357.004 98.354 357.201 99.3479 357.199C101.32 357.202 103.213 356.424 104.613 355.035L281.512 180.508C282.213 179.817 282.771 178.994 283.154 178.086C283.538 177.179 283.738 176.205 283.745 175.22C283.751 174.235 283.563 173.258 283.192 172.346C282.821 171.433 282.274 170.603 281.582 169.902Z" fill="#455A64"/>
<path d="M268.133 185.914L207.69 127.88C207.5 127.697 207.347 127.479 207.242 127.238C207.136 126.996 207.079 126.736 207.075 126.472C207.07 126.209 207.118 125.947 207.215 125.702C207.312 125.456 207.456 125.233 207.64 125.044L253.218 78.0789C258.843 72.2819 259.226 62.9739 253.702 57.0829C247.804 50.7899 237.917 50.7669 231.983 56.8829L174.21 116.415C168.42 122.38 168.589 131.923 174.585 137.681L247.659 207.849C253.808 213.751 263.683 213.376 269.354 206.884C274.671 200.802 273.956 191.509 268.132 185.915L268.133 185.914Z" fill="#FDD835"/>
<path d="M511.438 412.676C510.683 410.835 509.228 409.37 507.393 408.603C505.557 407.835 503.493 407.828 501.652 408.582L485.965 415.02C474.916 419.557 463.167 422.157 451.235 422.707L158.68 436.347C156.734 436.451 154.904 437.309 153.58 438.739C152.255 440.169 151.539 442.059 151.584 444.008C151.628 445.956 152.43 447.811 153.819 449.179C155.207 450.547 157.074 451.32 159.023 451.336C159.141 451.336 159.258 451.336 159.379 451.328L451.929 437.691C465.578 437.062 479.017 434.087 491.656 428.895L507.344 422.461C509.184 421.706 510.649 420.251 511.417 418.416C512.185 416.581 512.192 414.516 511.438 412.676Z" fill="#F06292"/>
</g>
</g>
<defs>
<clipPath id="clip0_185_68">
<rect width="512" height="512" fill="white"/>
</clipPath>
<clipPath id="clip1_185_68">
<rect width="512" height="512" fill="white"/>
</clipPath>
</defs>
</svg>
