<svg width="512" height="512" viewBox="0 0 512 512" fill="none" xmlns="http://www.w3.org/2000/svg">
<g clip-path="url(#clip0_185_46)">
<rect width="512" height="512" fill="white"/>
<path d="M245.237 302.354L208.193 272.215C198.421 264.265 192.071 252.869 190.452 240.375C189.621 233.968 190.061 227.459 191.745 221.222C193.43 214.984 196.327 209.139 200.27 204.021L215.453 184.321L219.782 178.204L366.191 164.78L367.397 168.343C370.806 178.418 370.807 189.333 367.402 199.409C363.996 209.484 357.372 218.16 348.55 224.1C339.607 230.122 328.912 232.991 318.156 232.252L253.356 227.808L288.81 268.06L245.237 302.354Z" fill="#0A9ACD"/>
<path d="M193.442 101.748L236.642 105.471C269.693 108.843 301.966 117.625 332.169 131.465C347.035 138.277 359.064 150.056 366.186 164.776L183.718 188.43L173.149 190.043L177.549 140.828L193.442 101.748Z" fill="#E82F3E"/>
<path d="M115.107 156.99L124.069 163.896L147.87 160.81L195.845 109.604L177.548 108.119L154.481 87.3506" fill="#0A9ACD"/>
<path d="M288.812 268.058L245.237 302.358L269.946 322.458L249.356 336.32C246.361 338.336 243.829 340.966 241.928 344.036C240.027 347.106 238.801 350.544 238.331 354.124C237.86 357.704 238.157 361.343 239.2 364.799C240.243 368.256 242.01 371.451 244.382 374.173L322.907 356.931L333.963 323.567L333.288 322.491C320.786 302.566 305.845 284.28 288.812 268.058Z" fill="#EA9D2D"/>
<path d="M97.183 143.179L116.87 108.359L141.699 113.208L143.756 129.075L115.107 156.989L97.183 143.179Z" fill="#FBB540"/>
<path d="M141.699 113.208L154.481 87.35L136.557 73.54L115.956 110.789L141.699 113.208Z" fill="#C38325"/>
<path d="M38.111 255.64C36.0494 255.643 34.0664 254.849 32.5757 253.425C31.0849 252.001 30.2014 250.057 30.1095 247.997C30.0175 245.938 30.7242 243.922 32.0821 242.371C33.44 240.82 35.3444 239.853 37.398 239.671L452 217.061C454.114 216.869 456.217 217.524 457.847 218.883C459.478 220.242 460.502 222.193 460.694 224.306C460.886 226.42 460.231 228.523 458.872 230.154C457.513 231.784 455.563 232.808 453.449 233L38.849 255.61C38.5996 255.63 38.3536 255.64 38.111 255.64Z" fill="#CBCBCB"/>
<path d="M438.906 250.954C436.964 250.951 435.089 250.242 433.631 248.959C432.173 247.676 431.231 245.907 430.982 243.981L426.869 212.246C426.608 210.147 427.189 208.031 428.484 206.36C429.778 204.688 431.682 203.597 433.779 203.325C435.876 203.053 437.996 203.623 439.674 204.909C441.352 206.195 442.453 208.093 442.736 210.189L446.85 241.925C446.985 242.967 446.914 244.025 446.64 245.039C446.366 246.053 445.894 247.004 445.253 247.836C444.612 248.668 443.813 249.366 442.902 249.889C441.991 250.413 440.986 250.752 439.944 250.887C439.6 250.931 439.253 250.954 438.906 250.954Z" fill="#A8A8A8"/>
<path d="M43.59 418.95L480.837 321.734C482.679 330.018 481.154 338.693 476.599 345.853C472.044 353.012 464.832 358.069 456.549 359.91L81.765 443.238C73.4819 445.08 64.8066 443.555 57.6475 439C50.4883 434.445 45.4317 427.233 43.59 418.95Z" fill="#FBB540"/>
<path d="M35.1 461.673C33.1285 461.673 31.2262 460.946 29.7579 459.631C28.2896 458.315 27.3589 456.504 27.1442 454.544C26.9295 452.584 27.446 450.614 28.5947 449.012C29.7433 447.409 31.4431 446.288 33.368 445.862L486.268 344.962C487.296 344.725 488.362 344.694 489.402 344.871C490.442 345.048 491.438 345.428 492.33 345.991C493.223 346.554 493.995 347.288 494.603 348.151C495.211 349.014 495.642 349.989 495.871 351.019C496.1 352.049 496.124 353.114 495.94 354.153C495.755 355.192 495.368 356.185 494.798 357.074C494.229 357.962 493.489 358.729 492.622 359.331C491.755 359.932 490.778 360.357 489.746 360.579L36.846 461.479C36.2728 461.607 35.6873 461.672 35.1 461.673Z" fill="#EAEAE8"/>
<path d="M81.1 484.209C79.1307 484.207 77.2313 483.478 75.7655 482.163C74.2997 480.848 73.3705 479.039 73.1558 477.081C72.9411 475.124 73.4559 473.156 74.6018 471.554C75.7476 469.952 77.4439 468.83 79.366 468.401L118.409 459.701C120.476 459.251 122.636 459.637 124.419 460.776C126.201 461.915 127.46 463.714 127.92 465.778C128.38 467.843 128.003 470.005 126.873 471.793C125.743 473.581 123.95 474.848 121.888 475.318L82.845 484.018C82.2721 484.145 81.6869 484.209 81.1 484.209Z" fill="#CBCBCB"/>
<path d="M166.991 465.071C165.02 465.07 163.119 464.342 161.652 463.027C160.185 461.711 159.255 459.9 159.041 457.942C158.826 455.983 159.342 454.014 160.49 452.412C161.638 450.81 163.336 449.688 165.26 449.261L282.389 423.161C283.417 422.924 284.483 422.893 285.523 423.07C286.563 423.247 287.559 423.628 288.451 424.191C289.344 424.754 290.116 425.488 290.724 426.351C291.332 427.213 291.763 428.188 291.992 429.218C292.221 430.248 292.245 431.313 292.061 432.353C291.876 433.392 291.489 434.384 290.919 435.273C290.35 436.161 289.61 436.929 288.743 437.53C287.876 438.132 286.899 438.556 285.867 438.778L168.738 464.878C168.164 465.006 167.579 465.071 166.991 465.071Z" fill="#EAEAE8"/>
<path d="M323.163 430.278C321.192 430.278 319.291 429.55 317.824 428.234C316.357 426.918 315.427 425.108 315.213 423.149C314.998 421.19 315.514 419.221 316.662 417.619C317.81 416.017 319.508 414.895 321.432 414.468L360.474 405.768C362.539 405.324 364.695 405.714 366.473 406.853C368.252 407.992 369.507 409.788 369.966 411.85C370.426 413.911 370.051 416.071 368.924 417.857C367.797 419.643 366.01 420.911 363.952 421.385L324.91 430.085C324.337 430.213 323.751 430.278 323.163 430.278Z" fill="#CBCBCB"/>
<path d="M393.439 414.621C391.468 414.621 389.567 413.893 388.1 412.577C386.633 411.262 385.703 409.451 385.489 407.492C385.274 405.533 385.79 403.564 386.938 401.962C388.086 400.36 389.784 399.238 391.708 398.811L461.985 383.153C463.01 382.925 464.071 382.901 465.106 383.082C466.141 383.263 467.13 383.647 468.016 384.211C468.903 384.774 469.67 385.507 470.273 386.367C470.877 387.227 471.305 388.197 471.533 389.223C471.762 390.248 471.786 391.309 471.605 392.344C471.423 393.378 471.04 394.367 470.476 395.254C469.913 396.141 469.18 396.908 468.32 397.511C467.46 398.115 466.489 398.543 465.464 398.771L395.187 414.428C394.613 414.557 394.027 414.621 393.439 414.621ZM275.462 473.69C273.491 473.69 271.59 472.962 270.123 471.647C268.655 470.331 267.725 468.52 267.511 466.561C267.296 464.603 267.812 462.633 268.96 461.031C270.108 459.429 271.806 458.307 273.73 457.88L375.241 435.264C377.308 434.814 379.468 435.201 381.251 436.34C383.033 437.479 384.292 439.277 384.752 441.342C385.212 443.406 384.835 445.569 383.705 447.356C382.575 449.144 380.782 450.412 378.72 450.881L277.209 473.5C276.635 473.628 276.05 473.691 275.462 473.69Z" fill="#EAEAE8"/>
<path d="M198.214 490.9C196.243 490.9 194.342 490.172 192.875 488.857C191.407 487.541 190.477 485.73 190.263 483.771C190.048 481.812 190.564 479.843 191.712 478.241C192.86 476.639 194.558 475.517 196.482 475.09L230.282 467.56C232.349 467.11 234.509 467.497 236.292 468.636C238.074 469.775 239.333 471.573 239.793 473.637C240.253 475.702 239.876 477.865 238.746 479.652C237.616 481.44 235.823 482.707 233.761 483.177L199.961 490.707C199.388 490.836 198.802 490.9 198.214 490.9Z" fill="#CBCBCB"/>
<path d="M349.987 293.164C348.016 293.164 346.115 292.436 344.648 291.12C343.181 289.805 342.251 287.994 342.037 286.035C341.822 284.076 342.338 282.107 343.486 280.505C344.634 278.903 346.332 277.781 348.256 277.354L402.916 265.176C404.983 264.726 407.143 265.113 408.926 266.252C410.708 267.391 411.967 269.189 412.427 271.254C412.887 273.318 412.51 275.481 411.38 277.268C410.25 279.056 408.457 280.323 406.395 280.793L351.734 292.971C351.161 293.1 350.575 293.164 349.987 293.164ZM364.755 322.658C362.784 322.658 360.883 321.93 359.416 320.615C357.948 319.299 357.018 317.488 356.804 315.529C356.589 313.571 357.105 311.601 358.253 309.999C359.401 308.397 361.099 307.275 363.023 306.848L386.449 301.629C388.516 301.179 390.676 301.566 392.459 302.705C394.241 303.844 395.5 305.642 395.96 307.707C396.42 309.771 396.043 311.934 394.913 313.721C393.783 315.509 391.99 316.776 389.928 317.246L366.5 322.465C365.927 322.593 365.342 322.658 364.755 322.658ZM222.3 51.1393C220.329 51.1401 218.426 50.4129 216.958 49.0973C215.49 47.7816 214.559 45.9702 214.344 44.0104C214.13 42.0507 214.646 40.0807 215.795 38.4784C216.943 36.8761 218.643 35.7543 220.568 35.3283L306.462 16.1913C307.487 15.9629 308.548 15.9388 309.583 16.1202C310.618 16.3017 311.607 16.6852 312.493 17.2488C313.38 17.8125 314.147 18.5452 314.75 19.4053C315.354 20.2653 315.782 21.2358 316.01 22.2613C316.238 23.2868 316.262 24.3472 316.081 25.382C315.9 26.4169 315.516 27.4058 314.952 28.2924C314.389 29.179 313.656 29.946 312.796 30.5494C311.936 31.1528 310.965 31.5809 309.94 31.8093L224.049 50.9453C223.475 51.0741 222.888 51.1392 222.3 51.1393ZM252.686 77.1533C250.715 77.153 248.814 76.4253 247.347 75.1098C245.879 73.7943 244.949 71.9834 244.735 70.0245C244.52 68.0655 245.036 66.0963 246.184 64.4943C247.332 62.8923 249.03 61.7702 250.954 61.3433L274.38 56.1243C275.408 55.8876 276.474 55.8567 277.514 56.0335C278.554 56.2102 279.55 56.591 280.442 57.1541C281.335 57.7171 282.107 58.4511 282.715 59.314C283.323 60.1768 283.754 61.1513 283.983 62.1814C284.212 63.2115 284.236 64.2769 284.052 65.316C283.867 66.3552 283.48 67.3476 282.91 68.2362C282.341 69.1248 281.601 69.892 280.734 70.4936C279.867 71.0951 278.89 71.5192 277.858 71.7413L254.433 76.9603C253.86 77.0887 253.274 77.1534 252.686 77.1533ZM307.346 64.9763C305.375 64.9771 303.472 64.2499 302.004 62.9343C300.536 61.6186 299.605 59.8072 299.39 57.8474C299.176 55.8877 299.692 53.9177 300.841 52.3154C301.989 50.7131 303.689 49.5913 305.614 49.1653L352.466 38.7283C353.494 38.4916 354.56 38.4607 355.6 38.6375C356.64 38.8142 357.636 39.195 358.528 39.7581C359.421 40.3211 360.193 41.0551 360.801 41.918C361.409 42.7808 361.84 43.7553 362.069 44.7854C362.298 45.8155 362.322 46.8809 362.138 47.92C361.953 48.9592 361.566 49.9516 360.996 50.8402C360.427 51.7288 359.687 52.496 358.82 53.0976C357.953 53.6991 356.976 54.1232 355.944 54.3453L309.093 64.7823C308.52 64.911 307.934 64.976 307.346 64.9763Z" fill="#B0D2FD"/>
<path d="M97.526 145.824L86.992 139.624C82.1147 136.751 77.958 132.802 74.8385 128.079C71.7191 123.356 69.7194 117.982 68.992 112.369C67.9047 103.982 69.7099 95.4742 74.1096 88.2512C78.5093 81.0282 85.2405 75.5214 93.192 72.6399L134.5 57.6719L136.557 73.5399L97.526 145.824Z" fill="#E82F3E"/>
<path d="M72.647 202.828L56.78 204.885L47.818 197.98L26.074 216.932L41.165 255.395L77.79 242.496L72.647 202.828Z" fill="#EA9D2D"/>
<path d="M181.37 109.242L134.06 178.733L72.647 202.833L77.79 242.5L161.974 207.387L218.83 155.51C223.549 151.204 227.16 145.824 229.357 139.826C231.555 133.828 232.273 127.388 231.452 121.053C230.52 113.869 226.774 107.349 221.036 102.928C218.195 100.739 214.95 99.1306 211.487 98.1955C208.024 97.2603 204.411 97.0165 200.854 97.4778L200.437 97.5318C196.612 98.027 192.936 99.3265 189.649 101.345C186.363 103.363 183.541 106.055 181.37 109.242Z" fill="#E82F3E"/>
<path d="M182.585 188.577L218.83 155.506L205.091 185.66L182.585 188.577Z" fill="#961B20"/>
</g>
<defs>
<clipPath id="clip0_185_46">
<rect width="512" height="512" fill="white"/>
</clipPath>
</defs>
</svg>
