<svg width="512" height="512" viewBox="0 0 512 512" fill="none" xmlns="http://www.w3.org/2000/svg">
<g clip-path="url(#clip0_185_35)">
<rect width="512" height="512" fill="white"/>
<path d="M66.206 365.464L45.951 391.497L24 381.794L24.691 320.871L64 323.528L66.206 365.464ZM138.684 458.732L125.746 488H93.244L96 424L120 414.188L138.684 458.732ZM147.86 104L142.831 93.1991L130.584 61.5441L158.156 38.7461L169.556 52.5321L191.506 62.2351L178.568 91.5031L147.86 104Z" fill="#CBCBCB"/>
<path d="M410.323 220.2L354.331 247.928L303.113 225.286L264 312L252.381 387.524C251.048 396.185 247.463 404.343 241.985 411.181C236.507 418.02 229.327 423.299 221.166 426.489L138.684 458.732L120 414.188L200 381.481L218.009 318.863L203.376 312.394L149.576 356.878C139.85 364.92 127.442 368.987 114.842 368.262L66.205 365.462L64 323.528L120 320L169.178 271.035L192.667 237.685L215.309 186.467L178.725 170.294L147.86 104L178.568 91.5L209.532 140.175L348.553 201.632L390.759 185.303L410.323 220.2Z" fill="#0A9ACD"/>
<path d="M390.759 185.306L397.228 170.672L411.015 159.272L422.414 173.059L454.916 178.68L449.295 211.182L410.323 220.195L390.759 185.306Z" fill="#CBCBCB"/>
<path d="M273.841 220.345C272.728 220.345 271.628 220.111 270.611 219.66L241.343 206.723C240.382 206.299 239.514 205.689 238.789 204.928C238.064 204.168 237.495 203.273 237.116 202.293C236.737 201.313 236.555 200.268 236.579 199.218C236.604 198.167 236.835 197.132 237.26 196.171C237.685 195.21 238.295 194.342 239.055 193.617C239.815 192.892 240.711 192.324 241.69 191.944C242.67 191.565 243.715 191.383 244.766 191.407C245.816 191.432 246.851 191.663 247.812 192.088L277.08 205.025C278.76 205.766 280.134 207.062 280.972 208.697C281.809 210.331 282.059 212.203 281.679 214C281.3 215.797 280.313 217.408 278.886 218.563C277.459 219.719 275.677 220.348 273.841 220.345Z" fill="#656666"/>
<path d="M199.13 231.052C197.042 231.05 195.037 230.232 193.544 228.772C192.05 227.312 191.187 225.326 191.139 223.238C191.09 221.151 191.859 219.127 193.283 217.599C194.706 216.071 196.671 215.16 198.757 215.061L229.557 213.599L253.434 159.586C253.859 158.625 254.469 157.757 255.229 157.032C255.989 156.307 256.884 155.738 257.864 155.359C258.844 154.98 259.889 154.798 260.939 154.823C261.99 154.847 263.025 155.079 263.986 155.503C264.946 155.928 265.814 156.538 266.539 157.298C267.265 158.058 267.833 158.954 268.212 159.934C268.591 160.913 268.774 161.958 268.749 163.009C268.724 164.059 268.493 165.094 268.068 166.055L242.19 224.59C241.589 225.949 240.622 227.113 239.397 227.954C238.172 228.794 236.737 229.276 235.253 229.347L199.516 231.047C199.387 231.049 199.258 231.052 199.13 231.052ZM286.944 269.866C285.765 269.868 284.601 269.609 283.534 269.107C282.467 268.606 281.525 267.875 280.774 266.966L257.974 239.394C257.027 238.249 256.418 236.863 256.215 235.391C256.011 233.92 256.221 232.421 256.822 231.062L282.7 172.524C283.558 170.583 285.151 169.063 287.13 168.297C289.109 167.532 291.311 167.584 293.252 168.441C295.192 169.299 296.712 170.893 297.478 172.872C298.244 174.85 298.192 177.052 297.334 178.993L273.456 233.007L293.104 256.769C294.072 257.938 294.687 259.359 294.877 260.865C295.068 262.371 294.826 263.9 294.18 265.274C293.534 266.647 292.51 267.809 291.229 268.622C289.947 269.436 288.461 269.868 286.943 269.869L286.944 269.866ZM203.383 320.4C202.185 320.399 201.002 320.13 199.921 319.611C198.841 319.093 197.891 318.338 197.141 317.404C196.39 316.469 195.859 315.378 195.587 314.211C195.315 313.044 195.307 311.831 195.566 310.661L197.475 302.079C199.016 295.076 198.091 287.756 194.858 281.356C191.625 274.957 186.28 269.87 179.729 266.956C178.76 266.536 177.884 265.929 177.151 265.169C176.419 264.41 175.843 263.512 175.459 262.529C175.074 261.546 174.888 260.497 174.911 259.441C174.934 258.386 175.166 257.345 175.592 256.38C176.019 255.415 176.633 254.543 177.398 253.816C178.163 253.089 179.065 252.52 180.051 252.143C181.037 251.766 182.088 251.588 183.143 251.618C184.198 251.649 185.237 251.889 186.199 252.323C196.128 256.739 204.227 264.448 209.128 274.147C214.028 283.846 215.429 294.939 213.093 305.552L211.185 314.134C210.791 315.91 209.803 317.498 208.385 318.637C206.966 319.776 205.202 320.398 203.383 320.4Z" fill="#A8A8A8"/>
<path d="M218 326.863C216.535 326.862 215.099 326.459 213.847 325.697C212.596 324.935 211.578 323.845 210.904 322.544C210.23 321.243 209.926 319.782 210.025 318.321C210.124 316.859 210.623 315.453 211.467 314.255L216.53 307.067C222.807 298.197 231.955 291.766 242.427 288.863C252.899 285.96 264.052 286.763 274 291.135C274.969 291.555 275.845 292.162 276.578 292.922C277.31 293.682 277.886 294.579 278.27 295.562C278.655 296.545 278.841 297.595 278.818 298.65C278.795 299.705 278.563 300.746 278.137 301.711C277.71 302.677 277.096 303.548 276.331 304.275C275.566 305.003 274.664 305.571 273.678 305.948C272.692 306.325 271.641 306.504 270.586 306.473C269.531 306.442 268.492 306.203 267.53 305.768C260.966 302.884 253.607 302.355 246.698 304.27C239.788 306.186 233.753 310.429 229.611 316.281L224.547 323.47C223.808 324.52 222.828 325.377 221.688 325.967C220.549 326.558 219.284 326.865 218 326.863Z" fill="#A8A8A8"/>
<path d="M455.966 337.359C455.984 336.908 456 336.459 456 336C455.999 328.925 453.653 322.05 449.33 316.45C445.007 310.85 438.949 306.84 432.105 305.048C425.261 303.256 418.016 303.783 411.503 306.546C404.99 309.309 399.576 314.153 396.108 320.319C391.686 321.048 387.556 323 384.185 325.953C380.813 328.906 378.336 332.744 377.031 337.031C372.105 338.528 367.79 341.568 364.723 345.704C361.657 349.84 360.001 354.852 360 360C360 366.366 362.529 372.47 367.029 376.971C371.53 381.472 377.635 384 384 384H448C454.365 384 460.47 381.472 464.971 376.971C469.471 372.47 472 366.366 472 360C471.999 355.031 470.457 350.184 467.585 346.129C464.713 342.074 460.653 339.01 455.966 337.359ZM119.966 145.359C119.984 144.908 120 144.459 120 144C119.999 136.925 117.653 130.05 113.33 124.45C109.007 118.85 102.949 114.84 96.1051 113.048C89.2609 111.256 82.0158 111.783 75.5027 114.546C68.9897 117.309 63.5759 122.153 60.108 128.319C55.6859 129.048 51.5558 131 48.1846 133.953C44.8134 136.906 42.3355 140.744 41.031 145.031C36.1046 146.528 31.7898 149.568 28.7232 153.704C25.6566 157.84 24.0008 162.852 24 168C24 174.366 26.5286 180.47 31.0294 184.971C35.5303 189.472 41.6348 192 48 192H112C118.365 192 124.47 189.472 128.971 184.971C133.471 180.47 136 174.366 136 168C135.999 163.031 134.457 158.184 131.585 154.129C128.713 150.074 124.653 147.01 119.966 145.359ZM302.1 432.1C303.494 429.642 305.515 427.597 307.956 426.174C310.398 424.751 313.174 424.001 316 424C316.455 424 316.9 424.031 317.348 424.068C319.221 418.719 322.927 414.204 327.809 411.325C332.691 408.446 338.435 407.388 344.023 408.338C349.611 409.288 354.682 412.185 358.338 416.516C361.995 420.847 364 426.332 364 432C366.626 432 369.227 432.518 371.654 433.523C374.08 434.528 376.285 436.001 378.142 437.858C379.999 439.715 381.473 441.92 382.478 444.347C383.483 446.773 384 449.374 384 452C384 454.627 383.483 457.227 382.478 459.654C381.473 462.081 379.999 464.285 378.142 466.142C376.285 468 374.08 469.473 371.654 470.478C369.227 471.483 366.626 472 364 472H304C298.696 472 293.609 469.893 289.858 466.142C286.107 462.392 284 457.305 284 452C284.002 447.027 285.858 442.232 289.205 438.553C292.551 434.873 297.149 432.573 302.1 432.1Z" fill="#C4F8FF"/>
<path d="M408 96C405.878 96 403.843 95.1571 402.343 93.6569C400.843 92.1566 400 90.1217 400 88V72C400 69.8783 400.843 67.8434 402.343 66.3431C403.843 64.8429 405.878 64 408 64C410.122 64 412.157 64.8429 413.657 66.3431C415.157 67.8434 416 69.8783 416 72V88C416 90.1217 415.157 92.1566 413.657 93.6569C412.157 95.1571 410.122 96 408 96ZM440 136C437.878 136 435.843 135.157 434.343 133.657C432.843 132.157 432 130.122 432 128V56C432 53.8783 432.843 51.8434 434.343 50.3431C435.843 48.8429 437.878 48 440 48C442.122 48 444.157 48.8429 445.657 50.3431C447.157 51.8434 448 53.8783 448 56V128C448 130.122 447.157 132.157 445.657 133.657C444.157 135.157 442.122 136 440 136ZM408 128C405.878 128 403.843 127.157 402.343 125.657C400.843 124.157 400 122.122 400 120V112C400 109.878 400.843 107.843 402.343 106.343C403.843 104.843 405.878 104 408 104C410.122 104 412.157 104.843 413.657 106.343C415.157 107.843 416 109.878 416 112V120C416 122.122 415.157 124.157 413.657 125.657C412.157 127.157 410.122 128 408 128ZM224 96C221.878 96 219.843 95.1571 218.343 93.6569C216.843 92.1566 216 90.1217 216 88V80C216 77.8783 216.843 75.8434 218.343 74.3431C219.843 72.8429 221.878 72 224 72C226.122 72 228.157 72.8429 229.657 74.3431C231.157 75.8434 232 77.8783 232 80V88C232 90.1217 231.157 92.1566 229.657 93.6569C228.157 95.1571 226.122 96 224 96ZM224 56C221.878 56 219.843 55.1571 218.343 53.6569C216.843 52.1566 216 50.1217 216 48V24C216 21.8783 216.843 19.8434 218.343 18.3431C219.843 16.8429 221.878 16 224 16C226.122 16 228.157 16.8429 229.657 18.3431C231.157 19.8434 232 21.8783 232 24V48C232 50.1217 231.157 52.1566 229.657 53.6569C228.157 55.1571 226.122 56 224 56ZM256 72C253.878 72 251.843 71.1571 250.343 69.6569C248.843 68.1566 248 66.1217 248 64V32C248 29.8783 248.843 27.8434 250.343 26.3431C251.843 24.8429 253.878 24 256 24C258.122 24 260.157 24.8429 261.657 26.3431C263.157 27.8434 264 29.8783 264 32V64C264 66.1217 263.157 68.1566 261.657 69.6569C260.157 71.1571 258.122 72 256 72ZM64 296C61.8783 296 59.8434 295.157 58.3431 293.657C56.8429 292.157 56 290.122 56 288V280C56 277.878 56.8429 275.843 58.3431 274.343C59.8434 272.843 61.8783 272 64 272C66.1217 272 68.1566 272.843 69.6569 274.343C71.1571 275.843 72 277.878 72 280V288C72 290.122 71.1571 292.157 69.6569 293.657C68.1566 295.157 66.1217 296 64 296ZM64 256C61.8783 256 59.8434 255.157 58.3431 253.657C56.8429 252.157 56 250.122 56 248V224C56 221.878 56.8429 219.843 58.3431 218.343C59.8434 216.843 61.8783 216 64 216C66.1217 216 68.1566 216.843 69.6569 218.343C71.1571 219.843 72 221.878 72 224V248C72 250.122 71.1571 252.157 69.6569 253.657C68.1566 255.157 66.1217 256 64 256ZM96 272C93.8783 272 91.8434 271.157 90.3431 269.657C88.8429 268.157 88 266.122 88 264V232C88 229.878 88.8429 227.843 90.3431 226.343C91.8434 224.843 93.8783 224 96 224C98.1217 224 100.157 224.843 101.657 226.343C103.157 227.843 104 229.878 104 232V264C104 266.122 103.157 268.157 101.657 269.657C100.157 271.157 98.1217 272 96 272Z" fill="#FBB540"/>
<path d="M276.213 108.328L320.133 127.72L303.973 164.32C302.7 167.204 300.871 169.809 298.591 171.986C296.311 174.163 293.625 175.87 290.685 177.008C287.745 178.147 284.61 178.696 281.459 178.623C278.307 178.55 275.201 177.857 272.317 176.584C269.433 175.311 266.828 173.482 264.651 171.202C262.474 168.922 260.768 166.236 259.629 163.296C258.49 160.357 257.941 157.222 258.014 154.07C258.087 150.918 258.78 147.812 260.053 144.928L276.213 108.328Z" fill="#FDC9A6"/>
<path d="M255.82 134.4L277.771 144.104L288.322 140.022L292.405 150.573L314.355 160.277L320.825 145.643L319.977 127.775L276.075 108.367L262.289 119.766L255.82 134.4Z" fill="#FD7422"/>
<path d="M314.341 81.4185C318.186 83.1162 321.659 85.5547 324.562 88.5946C327.465 91.6346 329.74 95.2165 331.259 99.1359C332.777 103.055 333.509 107.235 333.412 111.437C333.314 115.64 332.391 119.781 330.693 123.626L327.461 130.946L268.901 105.09L272.133 97.7705C273.831 93.9254 276.269 90.4523 279.309 87.5496C282.349 84.6469 285.931 82.3713 289.85 80.8529C293.77 79.3345 297.95 78.6029 302.152 78.6999C306.354 78.797 310.496 79.7207 314.341 81.4185Z" fill="#0276B4"/>
</g>
<defs>
<clipPath id="clip0_185_35">
<rect width="512" height="512" fill="white"/>
</clipPath>
</defs>
</svg>
