<svg width="512" height="512" viewBox="0 0 512 512" fill="none" xmlns="http://www.w3.org/2000/svg">
<g clip-path="url(#clip0_185_24)">
<rect width="512" height="512" fill="white"/>
<g clip-path="url(#clip1_185_24)">
<g clip-path="url(#clip2_185_24)">
<path d="M414.843 242.567L404.965 321.967H273.161C268.466 228.183 191.142 154.509 97.2429 154.345H44.3096L72.7172 338.815C76.6806 364.648 98.9004 383.718 125.035 383.723H421.019C447.882 383.925 470.639 363.976 473.952 337.315L485.42 242.567H414.843Z" fill="#FF3314"/>
<path d="M447.486 357.256H212.021C151.146 357.239 99.3581 312.865 90.0098 252.713L74.8334 154.345H44.3096L72.7194 338.814C76.6828 364.648 98.9026 383.719 125.037 383.723H421.019C431.211 383.694 441.178 380.723 449.723 375.167C458.268 369.611 465.027 361.706 469.188 352.401C462.379 355.537 454.981 357.191 447.485 357.256H447.486Z" fill="#B21800"/>
<path d="M493.717 207.278H399.318C390.37 207.205 382.789 213.84 381.674 222.717L373.82 286.678H304.212C283.401 188.975 197.139 119.111 97.2429 119.056H17.8429C15.2854 119.027 12.7522 119.554 10.4188 120.601C8.08538 121.649 6.00761 123.191 4.32947 125.121C2.65177 127.051 1.41345 129.323 0.700182 131.779C-0.0130839 134.235 -0.184271 136.817 0.198464 139.346C1.5207 148.047 9.04605 154.444 17.8429 154.345H97.2429C191.142 154.509 268.466 228.183 273.161 321.967H403.729L413.697 242.567H494.156C499.335 242.622 504.275 240.406 507.669 236.502C509.348 234.571 510.587 232.299 511.301 229.842C512.014 227.385 512.185 224.803 511.801 222.274C510.462 213.404 502.682 206.951 493.717 207.278Z" fill="#F7F9F2"/>
<path d="M476.599 419.012C476.599 448.244 452.901 471.945 423.665 471.945H53.1318C43.3877 471.945 35.4874 479.841 35.4874 489.589C35.4874 499.334 43.3877 507.234 53.1318 507.234H423.665C472.389 507.234 511.887 467.732 511.887 419.012C511.887 409.263 503.992 401.367 494.243 401.367C484.499 401.367 476.599 409.263 476.599 419.012Z" fill="#D5AD56"/>
<path d="M44.3096 480.767H414.843C422.846 480.759 430.743 478.937 437.94 475.438C445.137 471.939 451.447 466.853 456.396 460.564C447.071 467.922 435.543 471.93 423.665 471.945H53.1318C49.7184 471.966 46.3846 472.978 43.5347 474.857C40.6848 476.735 38.4413 479.401 37.0765 482.529C39.3346 481.434 41.8006 480.833 44.3096 480.767ZM494.243 401.367C490.849 401.373 487.529 402.359 484.681 404.205C481.834 406.051 479.579 408.68 478.188 411.775C480.459 410.74 482.925 410.199 485.421 410.189C495.169 410.189 503.065 418.085 503.065 427.834C503.051 449.069 495.377 469.586 481.453 485.618C491 477.343 498.658 467.114 503.909 455.622C509.159 444.131 511.88 431.646 511.887 419.012C511.887 409.263 503.992 401.367 494.243 401.367Z" fill="#F8E19F"/>
<path d="M158.999 383.899H194.287V472.122H158.999V383.899ZM335.443 383.899H370.732V472.122H335.443V383.899Z" fill="#D5AD56"/>
<path d="M171.353 273.622L197.82 254.212L194.287 286.855L224.286 300.089L194.287 313.322L197.82 345.962L171.353 326.555L144.886 345.962L148.414 313.322L118.418 300.089L148.414 286.855L144.885 254.212L171.353 273.622Z" fill="#F8E19F"/>
<path d="M145.765 338.022L144.886 345.874L151.236 341.287C149.65 340.228 147.531 339.612 145.765 338.022Z" fill="#D5AD56"/>
<path d="M158.999 383.899H194.287V410.366H158.999V383.899ZM335.443 383.899H370.732V410.366H335.443V383.899Z" fill="#95793C"/>
<path d="M273.161 321.967C268.466 228.183 191.142 154.509 97.2429 154.345H44.3096L47.0445 171.989H88.4207C182.32 172.153 259.644 245.828 264.339 339.611H394.907L405.935 321.967H273.161ZM485.421 242.743H414.843L412.637 260.388H483.215L485.421 242.743Z" fill="#B21800"/>
<path d="M123.71 198.456H114.887V189.634C114.887 187.294 113.958 185.05 112.303 183.395C110.649 181.741 108.405 180.812 106.065 180.812C103.725 180.812 101.481 181.741 99.8269 183.395C98.1724 185.05 97.2429 187.294 97.2429 189.634V198.456H88.4207C86.0809 198.456 83.8369 199.385 82.1825 201.04C80.528 202.694 79.5985 204.938 79.5985 207.278C79.5985 209.618 80.528 211.862 82.1825 213.516C83.8369 215.171 86.0809 216.1 88.4207 216.1H97.2429V224.923C97.2429 227.262 98.1724 229.506 99.8269 231.161C101.481 232.815 103.725 233.745 106.065 233.745C108.405 233.745 110.649 232.815 112.303 231.161C113.958 229.506 114.887 227.262 114.887 224.923V216.1H123.71C126.049 216.1 128.293 215.171 129.948 213.516C131.602 211.862 132.532 209.618 132.532 207.278C132.532 204.938 131.602 202.694 129.948 201.04C128.293 199.385 126.049 198.456 123.71 198.456Z" fill="#F8E19F"/>
<path d="M84.186 215.041L82.0709 201.364C81.1656 202.341 80.4928 203.51 80.1026 204.783C79.7125 206.056 79.6152 207.401 79.8179 208.718C80.0229 210.032 80.5221 211.284 81.2783 212.379C82.0344 213.474 83.0291 214.384 84.186 215.041Z" fill="#D5AD56"/>
<path d="M176.643 216.277C176.643 218.617 175.713 220.861 174.059 222.516C172.404 224.171 170.16 225.1 167.82 225.1C165.48 225.1 163.236 224.171 161.582 222.516C159.927 220.861 158.997 218.617 158.997 216.277C158.997 213.938 159.927 211.694 161.581 210.039C163.236 208.385 165.48 207.455 167.82 207.455C170.159 207.455 172.403 208.385 174.058 210.039C175.712 211.694 176.643 213.938 176.643 216.277ZM256.043 348.611C256.043 350.951 255.113 353.195 253.459 354.849C251.804 356.504 249.56 357.433 247.22 357.433C244.88 357.433 242.636 356.504 240.982 354.849C239.327 353.195 238.397 350.951 238.397 348.611C238.397 346.271 239.327 344.027 240.981 342.372C242.636 340.718 244.88 339.788 247.22 339.788C249.559 339.788 251.803 340.718 253.458 342.372C255.112 344.027 256.043 346.271 256.043 348.611Z" fill="#F8E19F"/>
<path d="M114.887 339.788C114.887 340.947 114.659 342.094 114.216 343.164C113.772 344.235 113.123 345.207 112.303 346.027C111.484 346.846 110.511 347.496 109.441 347.939C108.37 348.383 107.223 348.611 106.065 348.611C104.906 348.611 103.759 348.383 102.688 347.939C101.618 347.496 100.645 346.846 99.826 346.027C99.0067 345.207 98.3568 344.235 97.9134 343.164C97.47 342.094 97.2418 340.947 97.2418 339.788C97.2418 337.448 98.1713 335.204 99.8258 333.55C101.48 331.895 103.724 330.966 106.064 330.966C108.404 330.966 110.648 331.895 112.302 333.55C113.957 335.204 114.887 337.448 114.887 339.788Z" fill="#D5AD56"/>
<path d="M450.132 295.678C450.132 298.018 449.202 300.262 447.548 301.916C445.893 303.571 443.649 304.5 441.309 304.5C438.969 304.5 436.725 303.571 435.07 301.916C433.416 300.262 432.486 298.018 432.486 295.678C432.486 293.338 433.416 291.094 435.07 289.439C436.725 287.785 438.969 286.855 441.309 286.855C443.648 286.855 445.892 287.785 447.547 289.439C449.201 291.094 450.131 293.338 450.131 295.678H450.132ZM432.487 348.611C432.487 350.951 431.558 353.195 429.903 354.85C428.249 356.504 426.005 357.434 423.665 357.434C421.325 357.434 419.081 356.504 417.426 354.85C415.771 353.195 414.842 350.951 414.842 348.611C414.842 346.271 415.771 344.027 417.426 342.373C419.08 340.718 421.324 339.789 423.664 339.789C426.004 339.789 428.248 340.718 429.902 342.373C431.557 344.027 432.486 346.271 432.486 348.611H432.487Z" fill="#F8E19F"/>
<path d="M291.332 163.167H247.221V182.043C275.883 210.717 295.67 247.046 304.212 286.678H308.976V180.811C308.976 171.063 301.08 163.167 291.332 163.167Z" fill="#D5AD56"/>
<path d="M291.332 163.167H247.221L261.866 168.987C270.745 172.548 278.494 178.448 284.288 186.06C290.083 193.672 293.706 202.713 294.773 212.22C297.949 240.271 302.45 278.21 304.212 286.679H308.976V180.813C308.976 171.064 301.08 163.167 291.332 163.167Z" fill="#F8E19F"/>
<path d="M314.27 120.995C312.398 119.592 310.045 118.99 307.729 119.321C305.413 119.653 303.323 120.89 301.92 122.762L290.186 138.377C286.39 125.897 274.075 118.04 261.161 119.867C248.245 121.693 238.584 132.656 238.399 145.7V163.344C238.399 165.684 239.328 167.928 240.983 169.582C242.637 171.237 244.881 172.166 247.221 172.166H282.51C283.795 172.145 285.061 171.844 286.218 171.284L287.011 170.755C287.821 170.265 288.562 169.671 289.217 168.988L315.683 133.699C316.453 132.785 317.028 131.724 317.375 130.58C317.721 129.437 317.832 128.235 317.699 127.047C317.568 125.859 317.196 124.709 316.606 123.669C316.017 122.628 315.222 121.719 314.27 120.995ZM256.043 154.345V145.523C256.043 143.778 256.56 142.073 257.53 140.622C258.499 139.171 259.877 138.04 261.489 137.372C263.101 136.705 264.875 136.53 266.586 136.87C268.298 137.211 269.87 138.051 271.103 139.285C272.337 140.519 273.178 142.091 273.518 143.802C273.858 145.513 273.684 147.287 273.016 148.899C272.348 150.511 271.217 151.889 269.767 152.859C268.316 153.828 266.61 154.345 264.865 154.345H256.043Z" fill="#FF3314"/>
<path d="M247.221 181.958V66.123C247.221 56.3744 239.325 48.4785 229.576 48.4785H123.71C113.965 48.4785 106.065 56.3744 106.065 66.123V119.056C159.39 121.369 209.846 143.852 247.221 181.958Z" fill="#018667"/>
<path d="M229.576 48.4785H123.71C114.332 48.462 106.581 55.79 106.065 65.1492H158.998C197.978 65.1492 229.576 96.7516 229.576 135.727V166.076C235.765 170.955 241.657 176.2 247.221 181.781V66.123C247.221 56.3744 239.325 48.4785 229.576 48.4785Z" fill="#39B99B"/>
<path d="M194.287 143.051V48.4785H158.999V128.408C171.177 132.221 182.987 137.122 194.287 143.051Z" fill="#FF3314"/>
<path d="M194.287 74.9452V48.4785H158.999V65.3268C171.402 65.3774 183.574 68.6949 194.287 74.9452Z" fill="#FF7561"/>
<path d="M304.212 286.679H344.265V260.212C344.265 257.872 343.336 255.628 341.681 253.974C340.027 252.319 337.783 251.39 335.443 251.39H293.361C298.023 262.806 301.654 274.616 304.212 286.679Z" fill="#FF3314"/>
<path d="M335.443 251.39H293.361L306.331 254.212C314.675 256.103 322.437 259.988 328.952 265.534C335.467 271.081 340.541 278.123 343.739 286.059V286.855V260.212C343.742 257.961 342.885 255.794 341.343 254.154C339.801 252.514 337.69 251.525 335.443 251.39Z" fill="#FF7561"/>
<path d="M213.343 49.3574C222.541 39.01 222.21 23.3263 212.582 13.3748C202.959 3.42447 187.291 2.57533 176.643 11.4229C165.977 2.83007 150.512 3.795 140.996 13.6549C131.481 23.5116 131.063 39.0012 140.031 49.3574L124.682 79.9727C123.636 82.056 123.456 84.469 124.184 86.6841C124.911 88.8992 126.486 90.7362 128.564 91.7934C129.799 92.4044 131.154 92.7365 132.532 92.766C134.177 92.7771 135.792 92.3285 137.195 91.4708C138.599 90.6131 139.735 89.3804 140.475 87.9116L155.823 57.3007C156.879 57.3869 157.941 57.3869 158.997 57.3007H194.286C195.376 57.3867 196.465 57.3867 197.551 57.3007L212.905 88.0881C213.637 89.5428 214.758 90.7663 216.143 91.6231C217.529 92.48 219.124 92.9366 220.753 92.9425C222.135 92.9331 223.495 92.6 224.724 91.9698C225.814 91.4871 226.795 90.7886 227.607 89.9164C228.42 89.0442 229.047 88.0164 229.451 86.8951C229.855 85.7738 230.028 84.5822 229.959 83.3922C229.89 82.2023 229.58 81.0386 229.049 79.9716L213.343 49.3574ZM150.176 30.834C150.176 28.4942 151.106 26.2503 152.76 24.5958C154.415 22.9413 156.659 22.0118 158.998 22.0118C161.338 22.0118 163.582 22.9413 165.237 24.5958C166.891 26.2503 167.821 28.4942 167.821 30.834V39.6562H158.998C156.659 39.6562 154.415 38.7268 152.76 37.0723C151.106 35.4178 150.176 33.1738 150.176 30.834ZM185.465 39.6562V30.834C185.465 29.0891 185.983 27.3835 186.952 25.9327C187.921 24.4818 189.299 23.3511 190.911 22.6833C192.523 22.0156 194.297 21.8409 196.009 22.1813C197.72 22.5217 199.292 23.362 200.526 24.5958C201.759 25.8296 202.6 27.4015 202.94 29.1129C203.281 30.8242 203.106 32.5981 202.438 34.2101C201.77 35.8222 200.64 37.2 199.189 38.1694C197.738 39.1388 196.032 39.6562 194.287 39.6562H185.465Z" fill="#FF3314"/>
</g>
</g>
</g>
<defs>
<clipPath id="clip0_185_24">
<rect width="512" height="512" fill="white"/>
</clipPath>
<clipPath id="clip1_185_24">
<rect width="512" height="512" fill="white"/>
</clipPath>
<clipPath id="clip2_185_24">
<rect width="512" height="512" fill="white" transform="translate(0 5)"/>
</clipPath>
</defs>
</svg>
