<svg width="512" height="512" viewBox="0 0 512 512" fill="none" xmlns="http://www.w3.org/2000/svg">
<g clip-path="url(#clip0_170_6725)">
<path d="M256 490.058C385.266 490.058 490.057 385.267 490.057 256.001C490.057 126.734 385.266 21.9434 256 21.9434C126.734 21.9434 21.9429 126.734 21.9429 256.001C21.9429 385.267 126.734 490.058 256 490.058Z" fill="#4DA0DC"/>
<path opacity="0.1" d="M381.341 134.316H331.933V184.31H329.465L314.167 169.012C314.133 168.977 314.099 168.943 314.065 168.909L313.984 168.829L313.999 168.854C311.815 166.713 308.879 165.513 305.821 165.512C300.957 165.512 296.777 168.489 294.996 172.716L290.82 168.54V168.569C289.734 167.42 288.426 166.504 286.975 165.878C285.524 165.252 283.96 164.928 282.379 164.927C280.625 164.93 278.895 165.329 277.317 166.094C275.739 166.859 274.354 167.97 273.265 169.345L267.498 163.577C267.286 163.347 267.066 163.125 266.836 162.912L266.47 162.546V162.612C264.368 160.79 261.682 159.782 258.9 159.77C252.427 159.77 247.161 165.036 247.161 171.51V171.93L244.637 169.407L244.612 169.451C243.524 168.048 242.132 166.911 240.539 166.127C238.947 165.343 237.196 164.933 235.421 164.927C228.948 164.927 223.682 170.193 223.682 176.666V177.946L180.052 134.316H130.644V184.31H116.198V202.083L130.644 216.529V252.113L219.001 340.47V377.699L321.891 480.589C419.065 452.122 490.057 362.379 490.057 256.001C490.057 251.51 489.9 247.055 489.655 242.626L381.341 134.316Z" fill="black"/>
<path d="M223.693 181.906V224.095L218.712 214.733L218.61 198.093C218.582 193.479 216.731 189.064 213.459 185.811C210.187 182.558 205.76 180.732 201.147 180.732H197.665V220.039C197.665 222.68 198.477 225.254 199.991 227.416L234.602 276.846H311.384L317.564 254.812V185.015L223.693 181.906Z" fill="#F4C44E"/>
<path d="M116.217 184.32H395.783V202.094H116.217V184.32Z" fill="#EDEDED"/>
<path d="M331.933 134.309H381.341V252.105H331.933V134.309Z" fill="#344D5B"/>
<path d="M346.694 134.309H349.18V252.105H346.694V134.309ZM364.094 134.309H366.581V252.105H364.094V134.309Z" fill="#467082"/>
<path d="M130.662 134.309H180.07V252.105H130.662V134.309Z" fill="#344D5B"/>
<path d="M145.419 134.309H147.906V252.105H145.419V134.309ZM162.823 134.309H165.31V252.105H162.823V134.309Z" fill="#467082"/>
<path d="M235.429 164.926C233.888 164.925 232.362 165.228 230.938 165.818C229.514 166.407 228.22 167.271 227.13 168.361C226.041 169.45 225.176 170.744 224.586 172.167C223.996 173.591 223.693 175.117 223.693 176.658V210.742C223.693 213.855 224.929 216.839 227.13 219.04C229.33 221.24 232.315 222.476 235.427 222.476C238.539 222.476 241.523 221.24 243.724 219.04C245.924 216.839 247.161 213.855 247.161 210.742V176.658C247.161 173.546 245.925 170.562 243.725 168.362C241.524 166.162 238.54 164.926 235.429 164.926ZM281.995 164.926C278.883 164.926 275.899 166.162 273.699 168.362C271.499 170.562 270.263 173.546 270.263 176.658V210.742C270.263 213.855 271.499 216.839 273.7 219.04C275.9 221.24 278.885 222.476 281.997 222.476C285.109 222.476 288.093 221.24 290.294 219.04C292.495 216.839 293.731 213.855 293.731 210.742V176.658C293.731 175.117 293.427 173.591 292.837 172.167C292.248 170.744 291.383 169.45 290.293 168.361C289.203 167.271 287.91 166.407 286.486 165.818C285.062 165.228 283.536 164.925 281.995 164.926Z" fill="#FEDA6F"/>
<path d="M305.097 165.522C301.986 165.522 299.001 166.758 296.801 168.958C294.601 171.159 293.365 174.143 293.365 177.254V203.001C293.365 206.113 294.601 209.097 296.802 211.298C299.002 213.498 301.987 214.735 305.099 214.735C308.211 214.735 311.196 213.498 313.396 211.298C315.597 209.097 316.833 206.113 316.833 203.001V177.254C316.833 175.713 316.529 174.187 315.939 172.764C315.35 171.34 314.485 170.047 313.395 168.957C312.306 167.868 311.012 167.004 309.588 166.414C308.164 165.825 306.638 165.522 305.097 165.522ZM258.896 159.77C257.355 159.769 255.829 160.072 254.406 160.662C252.982 161.251 251.688 162.115 250.598 163.204C249.508 164.294 248.644 165.587 248.054 167.011C247.464 168.435 247.161 169.961 247.161 171.502V221.762C247.161 224.874 248.397 227.858 250.597 230.059C252.798 232.259 255.783 233.496 258.895 233.496C262.007 233.496 264.991 232.259 267.192 230.059C269.392 227.858 270.629 224.874 270.629 221.762V171.502C270.629 168.39 269.392 165.406 267.192 163.206C264.992 161.006 262.008 159.77 258.896 159.77Z" fill="#FEDA6F"/>
<path d="M218.99 267.002H319.214V377.693H218.99V267.002Z" fill="#DE594E"/>
</g>
<defs>
<clipPath id="clip0_170_6725">
<rect width="512" height="512" fill="white"/>
</clipPath>
</defs>
</svg>
