<svg width="512" height="512" viewBox="0 0 512 512" fill="none" xmlns="http://www.w3.org/2000/svg">
<g clip-path="url(#clip0_185_13)">
<rect width="512" height="512" fill="white"/>
<path d="M288 16C288 28.7304 293.057 40.9394 302.059 49.9411C311.061 58.9429 323.27 64 336 64H352C364.73 64 376.939 69.0571 385.941 78.0589C394.943 87.0606 400 99.2696 400 112V152H112V112C112 99.2696 117.057 87.0606 126.059 78.0589C135.061 69.0571 147.27 64 160 64H176C188.73 64 200.939 58.9429 209.941 49.9411C218.943 40.9394 224 28.7304 224 16H288Z" fill="#FBE1CA"/>
<path d="M333.04 200H179C176.762 194.417 173.804 189.151 170.2 184.336C167.6 180.84 164.48 176.672 161.568 172.776C155.353 164.47 151.996 154.374 152 144C152 133.614 155.369 123.509 161.6 115.2L176 96V64C187.808 64.0222 199.207 59.6736 208 51.792V104C208 108.243 209.686 112.313 212.686 115.314C215.687 118.314 219.757 120 224 120H288C292.243 120 296.313 118.314 299.314 115.314C302.314 112.313 304 108.243 304 104V51.816C312.798 59.6863 324.195 64.0258 336 64V96L350.4 115.2C356.627 123.511 359.995 133.615 360 144C359.995 154.385 356.627 164.489 350.4 172.8L342.048 183.928C338.356 188.869 335.328 194.272 333.04 200Z" fill="#78A0D4"/>
<path d="M332.472 264H179.576C182.51 256.136 184.009 247.809 184 239.416V235.056L183.92 225.096C183.85 217.018 182.366 209.014 179.536 201.448C179.359 200.979 179.178 200.513 178.992 200.048L179.136 200H333.04L332.48 201.448C329.526 209.328 328.009 217.673 328 226.088V239.416C328.008 247.812 329.527 256.138 332.472 264Z" fill="#FBE1CA"/>
<path d="M272 496L264.44 360C264.325 357.839 263.386 355.805 261.816 354.317C260.245 352.828 258.164 351.999 256 352C253.836 351.999 251.753 352.828 250.181 354.316C248.61 355.804 247.669 357.839 247.552 360L240 496H160L145.6 394.888C144.551 387.639 144.016 380.325 144 373V371.76C144 343.146 151.931 315.091 166.912 290.712C167.632 288.904 168.432 287.128 169.312 285.384L176.584 270.84C177.706 268.617 178.705 266.333 179.576 264H332.464C333.33 266.333 334.324 268.616 335.44 270.84L342.712 285.384C343.581 287.128 344.381 288.904 345.112 290.712C360.085 315.096 368.008 343.153 368 371.768V373C367.987 380.325 367.453 387.639 366.4 394.888L352 496H272Z" fill="#78A0D4"/>
<path d="M85.656 194.344L74.344 205.656L92.688 224H16V240H92.688L74.344 258.344L85.656 269.656L117.656 237.656C119.156 236.156 119.998 234.121 119.998 232C119.998 229.878 119.156 227.844 117.656 226.344L85.656 194.344ZM496 224H419.312L437.656 205.656L426.344 194.344L394.344 226.344C392.844 227.844 392.002 229.878 392.002 232C392.002 234.121 392.844 236.156 394.344 237.656L426.344 269.656L437.656 258.344L419.312 240H496V224Z" fill="#9DA1BF"/>
<path d="M403.36 473.056L387.52 470.792L389.816 454.792L405.648 457.048L403.36 473.056ZM407.936 440.992L392.104 438.728L394.392 422.728L410.232 424.992L407.936 440.992ZM412.52 408.928L396.68 406.664L398.92 390.784L414.808 392.736L412.52 408.928ZM416 375.752L400 375.464V371.768C400 367.842 399.845 363.941 399.536 360.064L415.488 358.784C415.835 363.098 416.005 367.429 416 371.776V375.752ZM397.536 344.848C396.599 339.814 395.397 334.834 393.936 329.928L409.272 325.36C410.891 330.807 412.226 336.334 413.272 341.92L397.536 344.848ZM388.8 315.464C386.832 310.736 384.621 306.114 382.176 301.616L396.232 293.968C398.944 298.956 401.392 304.083 403.568 309.328L388.8 315.464ZM374.56 287.016L367.256 272.32L381.752 265.56L388.872 279.856L374.56 287.016ZM108.64 473.056L106.352 457.056L122.184 454.8L124.48 470.8L108.64 473.056ZM104.064 440.992L101.768 424.992L117.608 422.728L119.896 438.728L104.064 440.992ZM99.48 408.928L97.192 392.736L113.08 390.784L115.32 406.664L99.48 408.928ZM96 375.752V371.752C96 367.416 96.168 363.08 96.512 358.768L112.464 360.048C112.155 363.941 112 367.845 112 371.76V375.464L96 375.752ZM114.464 344.848L98.736 341.92C99.7818 336.334 101.117 330.807 102.736 325.36L118.072 329.928C116.616 334.834 115.42 339.815 114.488 344.848H114.464ZM123.2 315.464L108.432 309.328C110.608 304.083 113.056 298.956 115.768 293.968L129.824 301.616C127.379 306.114 125.168 310.736 123.2 315.464ZM137.416 287.016L123.104 279.816L130.224 265.52L144.72 272.28L137.416 287.016Z" fill="#C8CDED"/>
<path d="M342.712 285.384L335.44 270.84C334.324 268.616 333.33 266.333 332.464 264H179.576C179.504 264.192 179.408 264.376 179.328 264.568C182.174 321.969 205.19 376.523 244.32 418.616L247.576 360C247.691 357.838 248.631 355.803 250.202 354.314C251.773 352.825 253.855 351.994 256.02 351.994C258.185 351.994 260.267 352.825 261.838 354.314C263.409 355.803 264.349 357.838 264.464 360L269.016 441.872C293.9 462.235 322.556 477.488 353.344 486.76L366.464 394.904C367.517 387.655 368.051 380.341 368.064 373.016V371.784C368.062 343.166 360.128 315.109 345.144 290.728C344.381 288.909 343.571 287.128 342.712 285.384ZM342.072 183.928L350.4 172.8C356.631 164.491 360 154.386 360 144C360 133.614 356.631 123.509 350.4 115.2L336 96V64C324.195 64.0288 312.797 59.6889 304 51.816V104C304 108.243 302.314 112.313 299.314 115.314C296.313 118.314 292.243 120 288 120H224C219.757 120 215.687 118.314 212.686 115.314C209.686 112.313 208 108.243 208 104V51.792C202.93 56.257 196.973 59.5994 190.52 61.6V74.496C190.518 107.778 203.737 139.698 227.268 163.235C250.8 186.771 282.718 199.996 316 200H333.04C335.335 194.271 338.372 188.868 342.072 183.928Z" fill="#93BEE5"/>
</g>
<defs>
<clipPath id="clip0_185_13">
<rect width="512" height="512" fill="white"/>
</clipPath>
</defs>
</svg>
