<svg width="512" height="512" viewBox="0 0 512 512" fill="none" xmlns="http://www.w3.org/2000/svg">
<g clip-path="url(#clip0_170_7759)">
<g clip-path="url(#clip1_170_7759)">
<path d="M136.535 153.496L86.758 167.72L17.066 153.497L8.703 118.509C8.42974 117.138 8.49699 115.721 8.89886 114.382C9.30073 113.043 10.0249 111.823 11.008 110.829L25.602 93.7627L69.332 96.6027C96.469 105.649 112.98 129.943 133.207 150.169L136.535 153.496Z" fill="#9FC9D3"/>
<path d="M341.332 68.1597C339.926 68.1616 338.542 67.816 337.303 67.1535C336.063 66.491 335.006 65.5323 334.227 64.3627C321.837 46.5508 307.917 29.8536 292.625 14.4607C291.07 12.8516 290.21 10.6961 290.23 8.45868C290.249 6.2213 291.147 4.08121 292.73 2.49967C294.312 0.916946 296.452 0.0189935 298.689 -0.000647482C300.926 -0.0202884 303.082 0.839955 304.691 2.39467C320.8 18.559 335.437 36.1272 348.426 54.8907C349.283 56.1758 349.775 57.6694 349.85 59.2123C349.925 60.7551 349.58 62.2894 348.852 63.6517C348.125 65.0139 347.041 66.1528 345.716 66.9468C344.392 67.7408 342.876 68.16 341.332 68.1597Z" fill="#4482C3"/>
<path d="M332.8 50.4954C332.629 55.4454 353.043 84.9724 348.262 100.159L298.668 85.2264L271.785 49.4724C274.719 48.0955 277.2 45.9117 278.939 43.1764C280.677 40.4411 281.601 37.2674 281.602 34.0264C281.602 34.0264 302.934 40.0854 332.801 50.4964L332.8 50.4954Z" fill="#285680"/>
<path d="M281.602 34.0269C281.601 37.2679 280.677 40.4417 278.939 43.177C277.2 45.9123 274.719 48.0961 271.785 49.4729C269.514 50.5319 267.041 51.0846 264.535 51.0929C255.109 51.0929 247.465 43.4529 247.465 34.0269C247.465 24.6019 255.109 16.9609 264.535 16.9609C273.961 16.9609 281.602 24.6009 281.602 34.0269Z" fill="#4482C3"/>
<path d="M473.602 285.762C472.277 285.761 470.97 285.453 469.785 284.86C468.599 284.268 467.568 283.408 466.773 282.348L436.906 243.949C436.007 242.75 435.44 241.336 435.261 239.849C435.081 238.362 435.297 236.854 435.885 235.476C436.473 234.099 437.414 232.9 438.612 232.001C439.81 231.102 441.224 230.534 442.711 230.355C444.198 230.176 445.706 230.391 447.084 230.98C448.461 231.568 449.66 232.508 450.559 233.707L480.426 272.109C481.378 273.375 481.957 274.883 482.1 276.461C482.243 278.039 481.943 279.625 481.234 281.043C480.525 282.46 479.436 283.652 478.088 284.486C476.74 285.319 475.187 285.761 473.602 285.762ZM349.867 298.563C348.37 298.571 346.898 298.181 345.602 297.433C343.638 296.31 342.2 294.454 341.605 292.272C341.009 290.09 341.304 287.761 342.426 285.797L376.559 226.062C377.283 224.724 378.35 223.604 379.651 222.817C380.953 222.03 382.44 221.605 383.961 221.586C385.482 221.568 386.98 221.956 388.3 222.711C389.621 223.466 390.716 224.559 391.473 225.879C392.229 227.198 392.618 228.696 392.6 230.216C392.582 231.737 392.157 233.225 391.371 234.527L357.238 294.262C356.495 295.562 355.423 296.644 354.129 297.399C352.835 298.154 351.366 298.555 349.868 298.562L349.867 298.563Z" fill="#7F8C8D"/>
<path d="M451.73 298.563H324.266C323.145 298.562 322.036 298.342 321 297.913C319.965 297.483 319.024 296.855 318.232 296.062C317.44 295.269 316.811 294.328 316.383 293.293C315.954 292.257 315.734 291.147 315.734 290.027C315.734 285.317 319.554 281.497 324.266 281.497H451.73C460.734 281.469 469.364 277.894 475.75 271.547L497.434 249.863C499.045 248.315 501.198 247.46 503.432 247.483C505.666 247.505 507.802 248.403 509.381 249.982C510.961 251.562 511.858 253.698 511.88 255.932C511.902 258.165 511.048 260.319 509.5 261.93L487.816 283.613C478.222 293.148 465.257 298.52 451.73 298.563Z" fill="#95A5A5"/>
<path d="M162.133 187.629H16.895C14.6789 187.624 12.5551 186.741 10.9884 185.174C9.42162 183.606 8.53949 181.482 8.535 179.266V161.859C8.53818 159.643 9.41988 157.518 10.9869 155.95C12.5539 154.383 14.6785 153.5 16.895 153.496H136.535L162.133 187.629Z" fill="#4482C3"/>
<path d="M17.066 187.629L34.133 230.297L129.426 257.32L228.266 230.297H378.742C382.232 230.294 385.708 230.721 389.094 231.567L445.32 246.84C448.01 247.529 450.828 247.548 453.526 246.894C456.225 246.241 458.723 244.936 460.8 243.094C482.262 223.75 494.934 187.629 494.934 187.629H17.066Z" fill="#285680"/>
<path d="M326.91 85.2263C317.441 115.011 294.629 158.468 231.824 158.468L228.977 155.988C225.051 155.988 221.184 156.14 220.247 159.894L213.332 187.628H162.132L136.535 153.495L133.207 150.167C112.949 129.929 88.2624 114.68 61.097 105.624L25.603 93.7613L29.443 86.0813C30.864 83.2695 33.0342 80.9049 35.7141 79.2484C38.3941 77.592 41.4795 76.7081 44.63 76.6943C60.302 76.7143 75.892 78.8943 90.966 83.1793L178.516 108.183C184.544 109.903 190.938 109.874 196.95 108.097L270.677 85.9093C272.264 85.4756 273.899 85.246 275.544 85.2263H326.91Z" fill="#3B97D3"/>
<path d="M494.934 153.496L228.977 155.988C291.781 155.988 317.441 115.028 326.91 85.2271C330.34 73.9475 332.319 62.2769 332.8 50.4971C352.852 57.4101 376.746 66.2851 400.64 76.5231L385.195 102.297C384.339 103.743 383.93 105.41 384.018 107.088C384.106 108.767 384.688 110.381 385.691 111.73C386.694 113.079 388.073 114.101 389.654 114.67C391.236 115.238 392.95 115.328 394.582 114.926L444.16 101.867C463.612 116.395 480.733 133.804 494.934 153.496Z" fill="#BDC3C7"/>
<path d="M38.398 230.297H226.133C242.629 230.297 256 243.668 256 260.16C256 276.656 242.629 290.027 226.133 290.027H38.398C21.906 290.027 8.535 276.657 8.535 260.16C8.535 243.668 21.906 230.297 38.398 230.297Z" fill="#2C3E50"/>
<path d="M68.266 260.16C68.266 276.656 54.895 290.027 38.398 290.027C21.906 290.027 8.535 276.657 8.535 260.16C8.535 243.668 21.906 230.297 38.398 230.297C54.895 230.297 68.266 243.668 68.266 260.16ZM162.133 260.16C162.133 276.656 148.762 290.027 132.266 290.027C115.773 290.027 102.398 276.657 102.398 260.16C102.398 243.668 115.773 230.297 132.266 230.297C148.762 230.297 162.133 243.668 162.133 260.16ZM256 260.16C256 276.656 242.629 290.027 226.133 290.027C209.637 290.027 196.266 276.657 196.266 260.16C196.266 243.668 209.636 230.297 226.133 230.297C242.629 230.297 256 243.668 256 260.16Z" fill="#3F5C6C"/>
<path d="M503.465 332.695H162.133C161.012 332.695 159.903 332.474 158.868 332.045C157.833 331.616 156.892 330.987 156.1 330.194C155.308 329.402 154.679 328.461 154.251 327.426C153.822 326.39 153.602 325.281 153.602 324.16C153.602 319.45 157.422 315.629 162.132 315.629H503.465C505.728 315.629 507.899 316.528 509.499 318.128C511.099 319.728 511.998 321.899 511.998 324.162C511.998 326.425 511.099 328.595 509.499 330.196C507.899 331.796 505.728 332.695 503.465 332.695ZM128 332.695H59.734C58.6024 332.712 57.4787 332.504 56.4283 332.083C55.3778 331.662 54.4216 331.036 53.6153 330.242C52.8089 329.448 52.1686 328.502 51.7315 327.458C51.2945 326.414 51.0694 325.294 51.0694 324.162C51.0694 323.03 51.2945 321.91 51.7315 320.866C52.1686 319.822 52.8089 318.876 53.6153 318.081C54.4216 317.287 55.3778 316.662 56.4283 316.241C57.4787 315.82 58.6024 315.612 59.734 315.629H128C132.71 315.629 136.535 319.449 136.535 324.16C136.535 326.423 135.635 328.594 134.035 330.195C132.434 331.795 130.264 332.695 128 332.695ZM25.602 332.695H8.535C7.40344 332.712 6.27973 332.504 5.22928 332.083C4.17883 331.662 3.22261 331.036 2.41628 330.242C1.60995 329.448 0.969609 328.502 0.53253 327.458C0.0954509 326.414 -0.129639 325.294 -0.129639 324.162C-0.129639 323.03 0.0954509 321.91 0.53253 320.866C0.969609 319.822 1.60995 318.876 2.41628 318.081C3.22261 317.287 4.17883 316.662 5.22928 316.241C6.27973 315.82 7.40344 315.612 8.535 315.629H25.602C30.312 315.629 34.132 319.449 34.132 324.16C34.1325 326.423 33.2342 328.593 31.6345 330.194C30.0349 331.794 27.8649 332.694 25.602 332.695Z" fill="#7F8C8D"/>
<path d="M444.16 101.866L394.582 114.925C392.95 115.327 391.236 115.238 389.655 114.669C388.073 114.101 386.695 113.078 385.692 111.729C384.689 110.381 384.107 108.766 384.019 107.088C383.93 105.41 384.339 103.743 385.195 102.296L400.641 76.5225C400.812 76.6085 400.895 76.6085 401.066 76.6945C416.384 83.334 430.852 91.7848 444.16 101.866Z" fill="#F5EFCA"/>
<path d="M503.465 161.86V179.266C503.461 181.482 502.578 183.606 501.012 185.174C499.445 186.741 497.321 187.624 495.105 187.629H213.332L220.246 159.895C220.719 158.061 221.789 156.436 223.288 155.277C224.787 154.119 226.629 153.492 228.523 153.496H495.105C497.322 153.5 499.446 154.383 501.013 155.95C502.58 157.518 503.462 159.643 503.465 161.859V161.86Z" fill="#4482C3"/>
<path d="M298.668 264.43C297.547 264.43 296.437 264.209 295.402 263.78C294.366 263.351 293.425 262.723 292.633 261.93C291.84 261.138 291.211 260.197 290.782 259.161C290.354 258.126 290.133 257.016 290.133 255.895C290.133 218.504 251.086 196.16 213.332 196.16H19.199C16.9365 196.159 14.7668 195.261 13.167 193.661C11.5671 192.061 10.6683 189.891 10.668 187.629C10.6677 186.508 10.8882 185.399 11.3168 184.363C11.7454 183.328 12.3737 182.387 13.1658 181.594C13.958 180.802 14.8985 180.173 15.9337 179.744C16.9689 179.315 18.0784 179.094 19.199 179.094H213.332C259.472 179.094 307.199 207.816 307.199 255.894C307.199 257.014 306.979 258.124 306.551 259.16C306.122 260.195 305.494 261.136 304.702 261.929C303.909 262.721 302.969 263.35 301.934 263.779C300.898 264.208 299.789 264.429 298.668 264.43Z" fill="#2C3E50"/>
</g>
</g>
<defs>
<clipPath id="clip0_170_7759">
<rect width="512" height="512" fill="white"/>
</clipPath>
<clipPath id="clip1_170_7759">
<rect width="512" height="512" fill="white"/>
</clipPath>
</defs>
</svg>
