<svg width="512" height="512" viewBox="0 0 512 512" fill="none" xmlns="http://www.w3.org/2000/svg">
<g clip-path="url(#clip0_170_7806)">
<path d="M243.802 92.7891H268.189V337.159H243.802V92.7891Z" fill="#FF9300"/>
<path d="M274.786 362.815V337.361C274.786 335.661 273.396 334.271 271.695 334.271H240.306C239.487 334.274 238.703 334.601 238.124 335.179C237.545 335.758 237.219 336.543 237.216 337.361V362.815H274.786Z" fill="#86A9BF"/>
<path d="M220.29 480.817C220.535 481.341 220.925 481.784 221.413 482.095C221.901 482.405 222.468 482.57 223.046 482.57L223.403 482.561C223.631 482.554 223.86 482.546 224.09 482.546C232.054 482.544 239.758 485.383 245.816 490.554C246.136 490.828 246.509 491.033 246.913 491.155C247.316 491.277 247.74 491.314 248.158 491.264C248.576 491.214 248.98 491.077 249.342 490.863C249.705 490.649 250.019 490.361 250.265 490.019C266.04 468.087 291.666 454.993 318.815 454.993C332.42 454.993 345.395 458.194 356.917 463.969V368.809C356.917 363.867 352.863 359.822 347.906 359.822H164.093C159.137 359.822 155.083 363.866 155.083 368.809V438.286C182.969 438.97 208.428 455.504 220.29 480.817Z" fill="#3A5792"/>
<path opacity="0.1" d="M187.059 446.467V368.807C187.059 363.865 191.113 359.82 196.069 359.82H164.093C159.137 359.82 155.083 363.864 155.083 368.807V438.284C166.39 438.562 177.295 441.447 187.059 446.467Z" fill="#210035"/>
<path d="M356.919 378.592V368.808C356.919 363.866 352.865 359.821 347.908 359.821H164.093C159.137 359.821 155.083 363.865 155.083 368.808V378.592H356.919Z" fill="#0481BF"/>
<path d="M256.001 68.2497C251.73 68.2497 247.631 67.5287 243.806 66.2197V98.5137H268.194V66.2188C264.27 67.5647 260.15 68.251 256.001 68.2497Z" fill="#86A9BF"/>
<path d="M197.66 453.09V397.381C197.66 396.381 197.463 395.391 197.081 394.468C196.698 393.544 196.138 392.705 195.431 391.998C194.724 391.292 193.885 390.731 192.962 390.349C192.038 389.966 191.049 389.769 190.049 389.77C189.049 389.769 188.06 389.966 187.136 390.349C186.213 390.731 185.374 391.292 184.667 391.998C183.96 392.705 183.4 393.544 183.017 394.468C182.635 395.391 182.438 396.381 182.438 397.381V444.288C187.841 446.612 192.95 449.567 197.66 453.09ZM220.29 480.817C220.535 481.34 220.925 481.783 221.413 482.094C221.901 482.404 222.468 482.569 223.046 482.57L223.403 482.561C223.631 482.554 223.86 482.546 224.09 482.546C226.302 482.546 228.492 482.773 230.635 483.2V397.382C230.635 396.382 230.438 395.392 230.056 394.469C229.673 393.545 229.113 392.706 228.406 391.999C227.699 391.293 226.86 390.732 225.937 390.35C225.013 389.967 224.024 389.77 223.024 389.771C222.024 389.77 221.035 389.967 220.111 390.35C219.188 390.732 218.349 391.293 217.642 391.999C216.935 392.706 216.375 393.545 215.992 394.469C215.61 395.392 215.413 396.382 215.413 397.382V472.051C217.237 474.858 218.866 477.787 220.29 480.817ZM250.267 490.017C254.125 484.657 258.604 479.774 263.612 475.47V397.381C263.612 396.381 263.415 395.391 263.033 394.468C262.651 393.544 262.09 392.705 261.383 391.998C260.676 391.292 259.837 390.731 258.914 390.349C257.99 389.966 257.001 389.769 256.001 389.77C255.001 389.769 254.012 389.966 253.088 390.349C252.165 390.731 251.325 391.292 250.619 391.998C249.912 392.705 249.351 393.544 248.968 394.468C248.586 395.391 248.389 396.381 248.389 397.381V491.209C249.143 491.063 249.814 490.637 250.267 490.017ZM296.589 457.97V397.381C296.566 395.377 295.754 393.463 294.329 392.055C292.904 390.646 290.981 389.856 288.978 389.856C286.974 389.856 285.051 390.646 283.626 392.055C282.201 393.463 281.389 395.377 281.366 397.381V463.742C286.244 461.334 291.342 459.402 296.589 457.97ZM318.817 454.991C322.451 454.991 326.037 455.231 329.566 455.674V397.381C329.543 395.377 328.731 393.463 327.306 392.055C325.881 390.646 323.958 389.856 321.955 389.856C319.951 389.856 318.028 390.646 316.603 392.055C315.178 393.463 314.366 395.377 314.343 397.381V455.117C315.833 455.035 317.325 454.993 318.817 454.991Z" fill="#0481BF"/>
<path d="M256.001 75.8606C231.095 75.8606 210.833 55.6426 210.833 30.7906V17.7946C210.833 16.7951 211.03 15.8053 211.412 14.8818C211.795 13.9584 212.355 13.1193 213.062 12.4125C213.769 11.7057 214.608 11.1451 215.531 10.7627C216.455 10.3802 217.444 10.1835 218.444 10.1836H293.555C294.555 10.1835 295.544 10.3802 296.468 10.7627C297.391 11.1451 298.231 11.7057 298.937 12.4125C299.644 13.1192 300.205 13.9583 300.588 14.8818C300.97 15.8052 301.167 16.795 301.167 17.7946V30.7906C301.167 55.6426 280.905 75.8606 256.001 75.8606ZM226.056 25.4056V30.7906C226.056 47.2486 239.489 60.6376 256.001 60.6376C272.513 60.6376 285.945 47.2486 285.945 30.7906V25.4056H226.056Z" fill="#3A5792"/>
<path d="M309.684 14.033C309.684 16.865 307.366 19.184 304.534 19.184H207.468C204.634 19.184 202.318 16.866 202.318 14.033V5.15C202.318 2.318 204.635 0 207.468 0H304.534C307.366 0 309.684 2.318 309.684 5.15V14.033Z" fill="#86A9BF"/>
<path d="M363.12 259.951C371.462 259.951 378.224 253.189 378.224 244.847C378.224 236.505 371.462 229.743 363.12 229.743C354.778 229.743 348.016 236.505 348.016 244.847C348.016 253.189 354.778 259.951 363.12 259.951Z" fill="#D7F7FF"/>
<path d="M151.378 317.807C159.719 317.807 166.481 311.045 166.481 302.704C166.481 294.362 159.719 287.601 151.378 287.601C143.037 287.601 136.275 294.362 136.275 302.704C136.275 311.045 143.037 317.807 151.378 317.807Z" fill="#A2E8F9"/>
<path d="M79.322 196.557C87.6632 196.557 94.425 189.792 94.425 181.448C94.425 173.103 87.6632 166.339 79.322 166.339C70.9809 166.339 64.219 173.103 64.219 181.448C64.219 189.792 70.9809 196.557 79.322 196.557Z" fill="#D7F7FF"/>
<path d="M428.934 342.509C437.275 342.509 444.037 335.747 444.037 327.406C444.037 319.065 437.275 312.303 428.934 312.303C420.593 312.303 413.831 319.065 413.831 327.406C413.831 335.747 420.593 342.509 428.934 342.509Z" fill="#A2E8F9"/>
<path d="M434.059 156.373C442.401 156.373 449.163 149.611 449.163 141.269C449.163 132.927 442.401 126.165 434.059 126.165C425.717 126.165 418.955 132.927 418.955 141.269C418.955 149.611 425.717 156.373 434.059 156.373Z" fill="#A2E8F9"/>
<path d="M397.795 512H478.34C478.34 474.755 448.07 444.562 410.73 444.562C390.684 444.562 372.685 453.271 360.302 467.094C377.509 477.239 390.897 493.078 397.795 512Z" fill="#D7F7FF"/>
<path opacity="0.1" d="M381.197 484.277C389.661 465.591 406.418 451.444 426.787 446.493C421.53 445.212 416.139 444.564 410.729 444.562C390.683 444.562 372.684 453.272 360.301 467.095C368.117 471.701 375.167 477.498 381.197 484.277Z" fill="#210035"/>
<path d="M224.434 482.656C212.877 454.805 185.378 435.206 153.279 435.206C127.101 435.206 103.989 448.249 90.079 468.164C110.446 472.939 125.839 490.563 127.181 511.999H191.482C194.412 496.115 207.872 483.883 224.434 482.656Z" fill="#E2EEFD"/>
<path opacity="0.1" d="M153.279 435.207C127.101 435.207 103.989 448.25 90.079 468.165C99.4977 470.377 108.035 475.367 114.582 482.49C124.169 459.549 144.592 442.24 169.478 436.925C164.154 435.784 158.724 435.208 153.279 435.207Z" fill="#210035"/>
<path d="M187.964 512C189.722 493.765 205.223 479.501 224.09 479.501C232.782 479.486 241.192 482.586 247.794 488.24C263.593 466.273 289.516 451.946 318.815 451.946C357.696 451.946 390.622 477.17 401.846 512H187.964Z" fill="#E2EEFD"/>
<g opacity="0.1">
<path d="M240.077 483.18C235.098 480.752 229.63 479.494 224.09 479.501C205.223 479.501 189.723 493.765 187.964 512H219.944C221.166 499.314 229.045 488.557 240.077 483.18Z" fill="#1B003F"/>
</g>
<path d="M33.662 512C33.662 485.396 55.284 463.83 81.955 463.83C108.626 463.83 130.248 485.396 130.248 512H33.662Z" fill="#D7F7FF"/>
<path opacity="0.1" d="M97.957 466.55C92.8143 464.747 87.4036 463.828 81.954 463.83C55.282 463.83 33.661 485.396 33.661 512H65.667C65.667 490.993 79.153 473.138 97.957 466.55Z" fill="#210035"/>
</g>
<defs>
<clipPath id="clip0_170_7806">
<rect width="512" height="512" fill="white"/>
</clipPath>
</defs>
</svg>
