<svg width="512" height="512" viewBox="0 0 512 512" fill="none" xmlns="http://www.w3.org/2000/svg">
<g clip-path="url(#clip0_170_8088)">
<g clip-path="url(#clip1_170_8088)">
<path d="M70.763 284.847C40.392 284.847 24.387 273.515 15.982 262.231C-1.49396 238.77 4.92104 203.641 19.032 179.235C37.828 146.725 35.539 108.092 26.659 92.7024C25.363 90.4554 22.735 86.6844 19.709 86.6844C17.66 86.6844 15.6948 85.8704 14.2459 84.4215C12.797 82.9726 11.983 81.0075 11.983 78.9584C11.983 76.9094 12.797 74.9442 14.2459 73.4953C15.6948 72.0464 17.66 71.2324 19.709 71.2324C27.707 71.2324 34.929 76.1144 40.044 84.9804C52.374 106.352 52.962 151.422 32.41 186.969C16.344 214.758 18.806 240.156 28.374 253C40.934 269.862 68.25 273.847 107.371 264.528C111.528 263.539 115.689 266.102 116.678 270.253C117.667 274.404 115.104 278.571 110.953 279.56C95.34 283.28 82.057 284.847 70.763 284.847Z" fill="#FFE177"/>
<path d="M469.289 214.096C459.111 207.369 447.913 201.291 435.901 195.944C384.907 173.28 319.181 163.885 253.59 174.815L286.097 92.6911C286.097 92.6911 366.299 50.7221 472.759 60.2691L469.289 214.096Z" fill="#C8EFFE"/>
<path d="M403.45 339.3C406.788 345.533 404.274 353.3 397.908 356.38L388.678 360.861C386.835 361.754 385.241 363.088 384.037 364.745C382.833 366.402 382.056 368.33 381.776 370.359L380.365 380.537C379.459 387.099 373.597 391.725 367.117 391.24C366.688 391.218 366.261 391.167 365.84 391.085L355.724 389.293C353.709 388.933 351.637 389.076 349.691 389.708C347.745 390.341 345.985 391.444 344.567 392.919L337.438 400.316C332.534 405.405 324.386 405.405 319.482 400.316L312.353 392.919C310.935 391.444 309.175 390.341 307.229 389.708C305.283 389.076 303.21 388.933 301.196 389.293L291.08 391.085C284.126 392.321 277.533 387.531 276.554 380.536L275.143 370.358C274.863 368.329 274.086 366.401 272.882 364.744C271.678 363.088 270.084 361.753 268.241 360.86L259.011 356.389C252.644 353.298 250.131 345.531 253.469 339.298L258.301 330.253C259.27 328.446 259.777 326.427 259.777 324.376C259.777 322.325 259.27 320.306 258.301 318.498L253.469 309.453C250.131 303.21 252.645 295.453 259.011 292.362L268.241 287.891C270.084 286.998 271.678 285.664 272.882 284.007C274.086 282.35 274.863 280.422 275.143 278.393L276.554 268.215C277.522 261.21 284.115 256.419 291.08 257.656L301.196 259.459C305.286 260.18 309.468 258.82 312.353 255.833L319.482 248.426C324.386 243.337 332.534 243.337 337.438 248.426L344.567 255.833C345.988 257.305 347.748 258.405 349.693 259.037C351.639 259.67 353.71 259.814 355.724 259.459L356.425 259.335L365.841 257.656C372.795 256.42 379.388 261.21 380.367 268.215L381.778 278.393C382.058 280.422 382.835 282.35 384.039 284.007C385.243 285.664 386.837 286.998 388.68 287.891L397.91 292.362C404.277 295.453 406.79 303.21 403.452 309.453L398.62 318.498C397.651 320.306 397.144 322.325 397.144 324.376C397.144 326.427 397.651 328.446 398.62 330.253L403.45 339.3Z" fill="#017297"/>
<path d="M403.45 339.3C406.788 345.533 404.274 353.3 397.908 356.38L388.678 360.861C386.835 361.754 385.241 363.089 384.037 364.745C382.833 366.402 382.056 368.331 381.776 370.359L380.365 380.537C379.459 387.099 373.597 391.725 367.117 391.24C374.4 337.052 364.212 287.078 356.424 259.336L365.84 257.657C372.794 256.421 379.387 261.211 380.366 268.216L381.777 278.394C382.057 280.423 382.834 282.351 384.038 284.008C385.242 285.665 386.836 286.999 388.679 287.892L397.909 292.363C404.276 295.454 406.789 303.211 403.451 309.454L398.619 318.499C397.65 320.307 397.143 322.326 397.143 324.377C397.143 326.428 397.65 328.447 398.619 330.254L403.45 339.3Z" fill="#025F80"/>
<path d="M512 304.361V469.839C512 480.656 503.223 489.433 492.406 489.433H19.594C8.777 489.433 0 480.655 0 469.839V457.127C0 446.31 8.777 437.533 19.594 437.533H296.517C296.401 436.038 296.339 434.54 296.332 433.041C296.332 397.634 325.043 368.923 360.45 368.923C361.037 368.923 361.614 368.954 362.191 368.975C368.887 340.717 394.261 319.681 424.568 319.681C433.598 319.678 442.527 321.588 450.765 325.285C456.06 308.256 468.257 294.277 484.091 286.612C497.001 280.357 512 290.01 512 304.361Z" fill="#DFF6FD"/>
<path d="M512 304.361V469.839C512 480.656 503.223 489.433 492.406 489.433H450.766C484.298 413.57 450.766 325.284 450.766 325.284C456.061 308.255 468.258 294.276 484.092 286.611C497.001 280.357 512 290.01 512 304.361Z" fill="#C8EFFE"/>
<path d="M148.745 368.925C140.777 368.925 133.489 363.603 131.338 355.539L59.644 86.805H19.709C9.75203 86.805 1.68103 78.734 1.68103 68.777C1.68103 58.82 9.75203 50.749 19.709 50.749H73.493C81.66 50.749 88.807 56.239 90.912 64.13L166.176 346.245C168.742 355.865 163.024 365.745 153.404 368.311C151.848 368.726 150.284 368.925 148.745 368.925Z" fill="#017297"/>
<path d="M153.403 368.312C151.884 368.718 150.319 368.926 148.747 368.93C145.354 368.931 142.031 367.966 139.166 366.148C145.677 362.058 149.056 354.064 146.975 346.245L71.7091 64.13C70.6857 60.2918 68.4231 56.899 65.2729 54.4791C62.1227 52.0591 58.2614 50.7475 54.2891 50.748H73.4921C77.4641 50.7489 81.3247 52.061 84.4746 54.4807C87.6245 56.9005 89.8875 60.2924 90.9121 64.13L166.177 346.245C168.742 355.867 163.025 365.747 153.403 368.312Z" fill="#025F80"/>
<path d="M290.449 112.046C290.444 123.347 286.235 134.241 278.643 142.611C252.693 171.25 211.692 229.445 206.407 315.414L166.23 346.979L161.244 350.894L99.9889 315.415C99.9889 315.415 88.461 161.506 273.575 87.7354C278.396 85.8194 283.877 88.0034 286.092 92.6904C288.959 98.7403 290.448 105.351 290.449 112.046Z" fill="#FD8087"/>
<path d="M290.449 112.046C290.444 123.346 286.235 134.241 278.643 142.611C252.693 171.25 211.692 229.445 206.407 315.414L166.23 346.979C166.207 346.736 166.19 346.492 166.179 346.248C154.795 162.103 290.449 112.046 290.449 112.046Z" fill="#FE646F"/>
<path d="M99.994 315.418H268.238V400.085H99.994V315.418Z" fill="#FFE177"/>
<path d="M99.994 374.747H268.238V400.085H99.994V374.747Z" fill="#FECE85"/>
<path d="M333.601 133.222C331.759 133.22 329.979 132.559 328.58 131.36C327.182 130.161 326.258 128.502 325.975 126.682C325.66 124.658 326.162 122.591 327.371 120.937C328.579 119.283 330.396 118.176 332.42 117.861C333.365 117.714 355.922 114.251 386.32 113.917L386.407 113.916C388.456 113.905 390.426 114.709 391.882 116.15C393.339 117.591 394.163 119.552 394.174 121.601C394.185 123.65 393.382 125.619 391.941 127.076C390.5 128.533 388.539 129.357 386.49 129.368C357.27 129.689 335.017 133.095 334.796 133.13C334.4 133.191 334.001 133.222 333.601 133.222Z" fill="#DFF6FD"/>
<path d="M99.9941 437.533C137.982 437.533 168.777 406.738 168.777 368.75C168.777 330.762 137.982 299.967 99.9941 299.967C62.0063 299.967 31.2111 330.762 31.2111 368.75C31.2111 406.738 62.0063 437.533 99.9941 437.533Z" fill="#017297"/>
<path d="M168.778 368.749C168.778 406.742 137.986 437.534 99.993 437.534C94.7186 437.538 89.4611 436.936 84.324 435.741C114.766 428.653 137.44 401.354 137.44 368.748C137.44 336.153 114.766 308.843 84.324 301.756C89.4611 300.56 94.7186 299.959 99.993 299.963C137.986 299.964 168.778 330.766 168.778 368.749Z" fill="#025F80"/>
<path d="M99.994 400.085C117.3 400.085 131.33 386.055 131.33 368.749C131.33 351.443 117.3 337.413 99.994 337.413C82.6876 337.413 68.658 351.443 68.658 368.749C68.658 386.055 82.6876 400.085 99.994 400.085Z" fill="#DFF6FD"/>
<path d="M359.389 224.13V288.403C359.389 296.542 354.959 304.031 347.83 307.946L335.674 314.622C332.174 316.548 329.254 319.379 327.221 322.818C325.188 326.258 324.115 330.18 324.115 334.175V415.24C324.115 429.693 310.599 440.243 296.527 436.915C289.178 435.173 282.013 432.73 275.13 429.621C233.634 410.892 204.8 369.077 204.964 320.556C205.149 267.388 240.619 222.678 288.944 207.432C300.472 203.785 312.721 201.828 325.402 201.828H337.084C349.406 201.827 359.389 211.819 359.389 224.13Z" fill="#FD8087"/>
<path d="M359.389 224.13V288.403C359.389 296.542 354.959 304.031 347.83 307.946L335.674 314.622C332.174 316.548 329.254 319.379 327.221 322.818C325.188 326.258 324.115 330.18 324.115 334.175V415.24C324.115 429.693 310.599 440.243 296.527 436.915C289.178 435.173 282.013 432.73 275.13 429.621C319.902 325.356 300.771 241.695 288.945 207.432C300.473 203.785 312.722 201.828 325.403 201.828H337.085C349.406 201.827 359.389 211.819 359.389 224.13Z" fill="#FE646F"/>
<path d="M494.065 102.445C504.706 97.0262 512 85.9832 512 73.2192C512 55.1192 497.33 40.4492 479.23 40.4492C474.934 40.4492 470.834 41.2732 467.074 42.7772C454.99 47.5982 446.45 59.4152 446.45 73.2192C446.45 77.4742 447.274 81.5332 448.747 85.2622C446.617 84.5205 444.378 84.1409 442.123 84.1392C430.884 84.1392 421.787 93.2352 421.787 104.475C421.787 112.665 426.639 119.701 433.613 122.925C423.6 126.397 416.409 135.915 416.409 147.114C416.409 159.394 425.062 169.654 436.611 172.137C434.724 176.113 433.749 180.46 433.757 184.86C433.757 197.273 441.349 207.905 452.135 212.386C455.752 213.889 459.632 214.659 463.549 214.652C480.001 214.652 493.332 201.311 493.332 184.859C493.342 177.958 490.945 171.269 486.553 165.945C501.213 161.979 511.998 148.597 511.998 132.68C512 119.639 504.747 108.286 494.065 102.445Z" fill="#DFF6FD"/>
<path d="M512 132.681C512 148.597 501.214 161.98 486.555 165.946C490.946 171.27 493.344 177.959 493.334 184.86C493.334 201.312 480.003 214.653 463.551 214.653C459.502 214.653 455.65 213.849 452.137 212.387C501.802 150.792 479.808 74.5692 467.075 42.7782C470.941 41.2343 475.068 40.4441 479.231 40.4502C497.331 40.4502 512.001 55.1202 512.001 73.2202C512.001 85.9842 504.707 97.0272 494.066 102.446C504.747 108.286 512 119.639 512 132.681Z" fill="#C8EFFE"/>
<path d="M66.368 52.9114L72.148 39.1344C72.2051 39.0137 72.2286 38.8799 72.2159 38.747C72.2032 38.6141 72.1549 38.4871 72.076 38.3794C71.838 38.0204 71.525 38.0204 71.407 38.0204H23.976C21.9269 38.0204 19.9618 37.2064 18.5129 35.7575C17.064 34.3086 16.25 32.3434 16.25 30.2944C16.25 28.2453 17.064 26.2802 18.5129 24.8313C19.9618 23.3824 21.9269 22.5684 23.976 22.5684H71.408C74.0882 22.5652 76.7275 23.2263 79.0898 24.4925C81.4521 25.7587 83.4638 27.5906 84.945 29.8244C86.4316 32.0543 87.3424 34.6179 87.596 37.286C87.8495 39.954 87.4379 42.6433 86.398 45.1134L80.618 58.8904C79.377 61.8474 64.717 56.8464 66.368 52.9114Z" fill="#025F80"/>
</g>
</g>
<defs>
<clipPath id="clip0_170_8088">
<rect width="512" height="512" fill="white"/>
</clipPath>
<clipPath id="clip1_170_8088">
<rect width="512" height="512" fill="white"/>
</clipPath>
</defs>
</svg>
