<svg width="512" height="512" viewBox="0 0 512 512" fill="none" xmlns="http://www.w3.org/2000/svg">
<g clip-path="url(#clip0_170_7853)">
<g clip-path="url(#clip1_170_7853)">
<path d="M441.714 295.313H403.009C390.522 295.313 378.545 290.352 369.715 281.522L369.239 281.045C344.161 255.814 330.324 221.526 330.324 185.952V35.2031H147.299V226.186C147.299 241.785 144.357 257.244 138.628 271.752L129.408 295.097C120.966 316.472 120.733 340.215 128.755 361.752L138.539 388.022C139.276 390 140.6 391.706 142.333 392.91C144.066 394.114 146.126 394.759 148.237 394.76H181.616C203.327 394.76 224.416 402.006 241.543 415.349L244.797 417.885C261.923 431.228 283.012 438.473 304.721 438.473H502.83V356.429C502.83 322.676 475.467 295.313 441.714 295.313Z" fill="url(#paint0_linear_170_7853)"/>
<path d="M330.323 185.948V35.2041H218.794V312.87C234.486 310.07 249.324 302.681 261.201 291.1C271.905 280.659 284.532 272.393 298.384 266.762C312.236 261.124 327.05 258.225 342.006 258.226C347.547 258.226 352.692 260.943 355.947 265.412C339.318 242.478 330.323 214.631 330.323 185.948Z" fill="url(#paint1_linear_170_7853)"/>
<path d="M330.323 185.948V35.2041H210.824V312.87C226.516 310.07 249.324 302.681 261.202 291.1C271.906 280.659 284.533 272.393 298.385 266.762C312.237 261.124 327.051 258.225 342.007 258.226C347.548 258.226 352.693 260.943 355.948 265.412C339.317 242.478 330.323 214.631 330.323 185.948Z" fill="url(#paint2_linear_170_7853)"/>
<path d="M330.437 191.281C330.364 189.505 330.326 187.728 330.323 185.951V35.2031H147.298V191.281H330.437Z" fill="url(#paint3_linear_170_7853)"/>
<path d="M275.337 80.4434C272.048 80.4436 268.863 81.5947 266.333 83.6971L239.768 105.782C236.852 108.209 236.852 112.68 239.768 115.108L266.335 137.195C268.863 139.296 272.047 140.447 275.335 140.447H330.346C331.918 140.447 333.425 139.823 334.536 138.711C335.647 137.6 336.272 136.093 336.272 134.522V86.3675C336.272 84.7961 335.647 83.289 334.536 82.1778C333.425 81.0666 331.918 80.4424 330.346 80.4424L275.337 80.4434Z" fill="url(#paint4_linear_170_7853)"/>
<path d="M330.346 80.4434H284.931V140.447H330.346C331.918 140.447 333.425 139.822 334.536 138.711C335.647 137.6 336.272 136.093 336.272 134.522V86.3675C336.271 84.7962 335.647 83.2894 334.536 82.1784C333.425 81.0675 331.918 80.4434 330.346 80.4434Z" fill="url(#paint5_linear_170_7853)"/>
<path d="M238.83 114.131C239.099 114.481 239.411 114.81 239.769 115.107L266.334 137.192C268.864 139.294 272.049 140.446 275.338 140.446H330.347C331.919 140.446 333.426 139.821 334.537 138.71C335.648 137.599 336.273 136.092 336.273 134.521V114.13L238.83 114.131Z" fill="url(#paint6_linear_170_7853)"/>
<path d="M239.768 105.782L266.333 83.6971C268.861 81.5947 272.046 80.4436 275.334 80.4434H310.6V140.447H275.334C272.046 140.447 268.861 139.295 266.333 137.193L239.768 115.108C236.852 112.68 236.852 108.209 239.768 105.782Z" fill="url(#paint7_linear_170_7853)"/>
<path d="M275.337 140.446C272.048 140.446 268.863 141.598 266.333 143.7L239.768 165.785C236.852 168.212 236.852 172.683 239.768 175.111L266.335 197.198C268.863 199.299 272.047 200.45 275.335 200.45H330.346C331.918 200.45 333.425 199.825 334.536 198.714C335.647 197.603 336.272 196.096 336.272 194.525V146.37C336.272 144.799 335.647 143.292 334.536 142.181C333.425 141.07 331.918 140.445 330.346 140.445L275.337 140.446Z" fill="url(#paint8_linear_170_7853)"/>
<path d="M330.346 140.446H284.931V200.45H330.346C331.918 200.45 333.425 199.825 334.536 198.714C335.647 197.603 336.272 196.096 336.272 194.525V146.37C336.271 144.799 335.647 143.292 334.536 142.181C333.425 141.07 331.918 140.446 330.346 140.446Z" fill="url(#paint9_linear_170_7853)"/>
<path d="M238.83 174.134C239.099 174.484 239.411 174.812 239.769 175.11L266.334 197.195C268.864 199.297 272.049 200.448 275.338 200.449H330.347C331.919 200.449 333.426 199.824 334.537 198.713C335.648 197.602 336.273 196.095 336.273 194.523V174.133L238.83 174.134Z" fill="url(#paint10_linear_170_7853)"/>
<path d="M239.768 165.785L266.333 143.7C268.861 141.598 272.046 140.446 275.334 140.446H310.6V200.45H275.334C272.046 200.449 268.861 199.298 266.333 197.196L239.768 175.111C236.852 172.683 236.852 168.212 239.768 165.785Z" fill="url(#paint11_linear_170_7853)"/>
<path d="M275.337 80.4434C272.048 80.4436 268.863 81.5947 266.333 83.6971L239.768 105.782C236.852 108.209 236.852 112.68 239.768 115.108L266.335 137.195C268.863 139.296 272.047 140.447 275.335 140.447H330.346C331.918 140.447 333.425 139.823 334.536 138.711C335.647 137.6 336.272 136.093 336.272 134.522V86.3675C336.272 84.7961 335.647 83.289 334.536 82.1778C333.425 81.0666 331.918 80.4424 330.346 80.4424L275.337 80.4434Z" fill="url(#paint12_linear_170_7853)"/>
<path d="M502.83 356.429C502.83 322.676 475.468 295.313 441.714 295.313H403.009C396.825 295.313 390.702 294.095 384.988 291.728C379.275 289.361 374.084 285.892 369.711 281.518L369.239 281.045C364.422 276.197 359.989 270.983 355.978 265.45C352.719 260.955 347.562 258.229 342.01 258.229C311.817 258.228 282.82 270.025 261.201 291.102C238.623 313.115 205.338 320.057 175.843 308.906L130.695 291.838L129.408 295.098C120.966 316.473 120.733 340.216 128.755 361.752L138.539 388.023C139.276 390 140.6 391.706 142.333 392.91C144.067 394.114 146.127 394.76 148.238 394.76H181.617C203.329 394.76 224.419 402.006 241.546 415.35L244.798 417.885C261.923 431.228 283.011 438.474 304.72 438.474H502.831V356.429H502.83Z" fill="url(#paint13_linear_170_7853)"/>
<path d="M502.83 356.429C502.83 322.676 475.468 295.313 441.714 295.313H403.009C396.825 295.313 390.702 294.095 384.988 291.728C379.275 289.361 374.084 285.892 369.711 281.518L369.239 281.045C364.422 276.197 359.989 270.983 355.978 265.45C352.719 260.955 347.562 258.229 342.01 258.229C311.817 258.228 282.82 270.025 261.201 291.102C238.623 313.115 205.338 320.057 175.843 308.906L130.695 291.838L129.408 295.098C120.966 316.473 120.733 340.216 128.755 361.752L138.539 388.023C139.276 390 140.6 391.706 142.333 392.91C144.067 394.114 146.127 394.76 148.238 394.76H181.617C203.329 394.76 224.419 402.006 241.546 415.35L244.798 417.885C261.923 431.228 283.011 438.474 304.72 438.474H502.831V356.429H502.83Z" fill="url(#paint14_linear_170_7853)"/>
<path d="M502.83 356.429C502.83 322.676 475.468 295.313 441.714 295.313H403.009C396.825 295.313 390.702 294.095 384.988 291.728C379.275 289.361 374.084 285.892 369.711 281.518L369.239 281.045C364.422 276.197 359.989 270.983 355.978 265.45C352.719 260.955 347.562 258.229 342.01 258.229C311.817 258.228 282.82 270.025 261.201 291.102C238.623 313.115 205.338 320.057 175.843 308.906L130.695 291.838L129.408 295.098C120.966 316.473 120.733 340.216 128.755 361.752L138.539 388.023C139.276 390 140.6 391.706 142.333 392.91C144.067 394.114 146.127 394.76 148.238 394.76H181.617C203.329 394.76 224.419 402.006 241.546 415.35L244.798 417.885C261.923 431.228 283.011 438.474 304.72 438.474H502.831V356.429H502.83Z" fill="url(#paint15_linear_170_7853)"/>
<path d="M441.714 295.313H403.009C396.825 295.313 390.702 294.095 384.988 291.728C379.275 289.361 374.084 285.892 369.711 281.518L369.239 281.045C364.422 276.197 359.988 270.983 355.978 265.45C354.946 264.027 353.708 262.765 352.305 261.706V438.473H502.83V356.428C502.83 322.676 475.467 295.313 441.714 295.313Z" fill="url(#paint16_linear_170_7853)"/>
<path d="M162.436 24.8851L167.785 28.0223C181.55 36.0929 197.947 34.8952 210.751 24.8861L215.728 20.9959C227.343 11.9154 242.475 11.9154 254.091 20.9959C269.973 33.4114 290.311 34.8962 307.384 24.8861C307.796 24.5217 308.214 24.1683 308.635 23.825C327.06 8.81632 352.304 24.9192 352.304 51.226V67.3189C352.304 93.6256 327.06 109.73 308.635 94.7199C308.213 94.3765 307.796 94.0232 307.384 93.6587C293.079 81.0304 273.373 81.0304 259.068 93.6587C244.763 106.287 225.057 106.287 210.752 93.6587C196.447 81.0304 176.741 81.0304 162.437 93.6587C162.024 94.0232 161.606 94.3765 161.186 94.7199C142.761 109.73 117.516 93.6256 117.516 67.3189V51.226C117.516 24.9192 142.761 8.81532 161.186 23.825C161.605 24.1673 162.023 24.5217 162.436 24.8851Z" fill="url(#paint17_linear_170_7853)"/>
<path d="M162.436 24.8851L167.785 28.0223C181.55 36.0929 197.947 34.8952 210.751 24.8861L215.728 20.9959C227.343 11.9154 242.475 11.9154 254.091 20.9959C269.973 33.4114 290.311 34.8962 307.384 24.8861C307.796 24.5217 308.214 24.1683 308.635 23.825C327.06 8.81632 352.304 24.9192 352.304 51.226V67.3189C352.304 93.6256 327.06 109.73 308.635 94.7199C308.213 94.3765 307.796 94.0232 307.384 93.6587C293.079 81.0304 273.373 81.0304 259.068 93.6587C244.763 106.287 225.057 106.287 210.752 93.6587C196.447 81.0304 176.741 81.0304 162.437 93.6587C162.024 94.0232 161.606 94.3765 161.186 94.7199C142.761 109.73 117.516 93.6256 117.516 67.3189V51.226C117.516 24.9192 142.761 8.81532 161.186 23.825C161.605 24.1673 162.023 24.5217 162.436 24.8851Z" fill="url(#paint18_linear_170_7853)"/>
<path d="M254.091 20.9947C269.973 33.4102 290.311 34.895 307.384 24.8859C307.796 24.5215 308.214 24.1681 308.635 23.8248C327.06 8.81612 352.304 24.919 352.304 51.2258V67.3187C352.304 93.6254 327.06 109.729 308.635 94.7197C308.213 94.3763 307.796 94.023 307.384 93.6585C293.079 81.0302 273.373 81.0302 259.068 93.6585C250.689 101.055 240.457 104.113 230.543 102.844V14.5294C238.637 13.3217 247.016 15.4641 254.091 20.9947Z" fill="url(#paint19_linear_170_7853)"/>
<path d="M486.895 404.087H393.56C318.203 404.087 242.919 398.11 168.678 385.184C161.192 383.881 154.317 383.069 148.8 383.068C136.664 383.068 126.4 392.052 124.801 404.083L122.089 424.505C121.292 430.426 121.615 436.444 123.04 442.247C125.619 452.717 133.618 461.022 143.844 464.443C145.079 464.857 146.242 465.365 147.303 465.969L154.389 470.008C161.111 473.84 172.112 473.84 178.835 470.008L185.92 465.969C192.642 462.137 203.643 462.137 210.366 465.969L217.451 470.008L217.515 470.044C221.662 472.407 226.954 470.635 228.823 466.242C229.896 463.715 230.448 460.998 230.444 458.252C230.444 451.182 238.314 446.946 244.223 450.84L280.515 470.007C287.237 473.839 298.238 473.839 304.96 470.007L312.046 465.968C318.601 462.232 329.1 462.135 335.884 465.656C336.211 465.733 343.819 470.007 343.819 470.007C350.569 473.855 361.514 473.855 368.264 470.007L375.35 465.968C382.072 462.136 393.073 462.136 399.796 465.968L406.881 470.007C413.604 473.839 424.605 473.839 431.327 470.007L438.413 465.968C445.135 462.136 456.136 462.136 462.858 465.968L469.945 470.007C476.667 473.839 487.667 473.838 494.389 470.007L501.475 465.968C502.519 465.373 503.671 464.882 504.884 464.47C506.408 462.9 507.82 461.224 509.109 459.455C511.367 456.337 512.22 452.83 511.951 449.478L512 449.48V429.191C512 415.327 500.76 404.087 486.895 404.087Z" fill="url(#paint20_linear_170_7853)"/>
<path d="M486.895 404.087H393.56C318.203 404.087 242.919 398.11 168.678 385.184C161.192 383.881 154.317 383.069 148.8 383.068C136.664 383.068 126.4 392.052 124.801 404.083L122.089 424.505C121.292 430.426 121.615 436.444 123.04 442.247C125.619 452.717 133.618 461.022 143.844 464.443C145.079 464.857 146.242 465.365 147.303 465.969L154.389 470.008C161.111 473.84 172.112 473.84 178.835 470.008L185.92 465.969C192.642 462.137 203.643 462.137 210.366 465.969L217.451 470.008L217.515 470.044C221.662 472.407 226.954 470.635 228.823 466.242C229.896 463.715 230.448 460.998 230.444 458.252C230.444 451.182 238.314 446.946 244.223 450.84L280.515 470.007C287.237 473.839 298.238 473.839 304.96 470.007L312.046 465.968C318.601 462.232 329.1 462.135 335.884 465.656C336.211 465.733 343.819 470.007 343.819 470.007C350.569 473.855 361.514 473.855 368.264 470.007L375.35 465.968C382.072 462.136 393.073 462.136 399.796 465.968L406.881 470.007C413.604 473.839 424.605 473.839 431.327 470.007L438.413 465.968C445.135 462.136 456.136 462.136 462.858 465.968L469.945 470.007C476.667 473.839 487.667 473.838 494.389 470.007L501.475 465.968C502.519 465.373 503.671 464.882 504.884 464.47C506.408 462.9 507.82 461.224 509.109 459.455C511.367 456.337 512.22 452.83 511.951 449.478L512 449.48V429.191C512 415.327 500.76 404.087 486.895 404.087Z" fill="url(#paint21_linear_170_7853)"/>
<path d="M486.895 404.088H393.56C389.67 404.088 385.78 404.061 381.891 404.029V463.649C387.956 462.456 394.974 463.222 399.796 465.969L406.881 470.008C413.604 473.84 424.605 473.84 431.327 470.008L438.413 465.969C445.135 462.137 456.136 462.137 462.858 465.969L469.945 470.009C476.667 473.84 487.668 473.84 494.39 470.009L501.476 465.97C502.52 465.375 503.672 464.884 504.885 464.472C506.409 462.902 507.821 461.226 509.11 459.457C511.369 456.339 512.221 452.832 511.952 449.48L512.001 449.482V429.193C512 415.327 500.76 404.088 486.895 404.088Z" fill="url(#paint22_linear_170_7853)"/>
<path d="M324.2 320.235H285.495C273.008 320.235 261.031 315.274 252.201 306.444L251.725 305.967C226.647 280.736 212.81 246.448 212.81 210.874V60.125H29.7833V251.108C29.7831 266.707 26.8411 282.166 21.1114 296.674L11.8914 320.019C3.44974 341.394 3.2173 365.137 11.2389 386.674L21.0231 412.944C21.7597 414.922 23.0835 416.627 24.8168 417.832C26.5502 419.036 28.6103 419.681 30.721 419.682H64.1003C85.8109 419.682 106.9 426.928 124.026 440.271L127.281 442.807C144.407 456.15 165.495 463.395 187.205 463.395H385.315V381.351C385.315 347.598 357.953 320.235 324.2 320.235Z" fill="url(#paint23_linear_170_7853)"/>
<path d="M212.809 210.871V60.126H101.28V337.792C116.972 334.992 131.81 327.603 143.687 316.022C154.391 305.581 167.018 297.315 180.87 291.684C194.722 286.045 209.536 283.147 224.492 283.148C230.033 283.148 235.178 285.865 238.433 290.334C221.803 267.4 212.809 239.553 212.809 210.871Z" fill="url(#paint24_linear_170_7853)"/>
<path d="M212.923 216.203C212.85 214.427 212.812 212.65 212.809 210.873V60.125H29.7833V216.203H212.923Z" fill="url(#paint25_linear_170_7853)"/>
<path d="M157.822 105.364C154.534 105.364 151.348 106.516 148.819 108.618L122.254 130.703C119.338 133.13 119.338 137.601 122.254 140.029L148.821 162.116C151.349 164.217 154.533 165.368 157.82 165.368H212.832C214.404 165.368 215.911 164.743 217.022 163.632C218.133 162.521 218.758 161.014 218.758 159.443V111.288C218.758 109.717 218.133 108.21 217.022 107.099C215.911 105.988 214.404 105.363 212.832 105.363L157.822 105.364Z" fill="url(#paint26_linear_170_7853)"/>
<path d="M212.832 105.364H167.417V165.368H212.832C214.404 165.368 215.911 164.743 217.022 163.632C218.133 162.521 218.758 161.014 218.758 159.443V111.288C218.757 109.717 218.133 108.211 217.021 107.1C215.91 105.989 214.404 105.365 212.832 105.364Z" fill="url(#paint27_linear_170_7853)"/>
<path d="M121.316 139.052C121.585 139.402 121.897 139.73 122.255 140.028L148.82 162.113C151.349 164.215 154.535 165.366 157.824 165.367H212.833C214.405 165.367 215.912 164.742 217.023 163.631C218.134 162.52 218.759 161.013 218.759 159.441V139.051H121.316V139.052Z" fill="url(#paint28_linear_170_7853)"/>
<path d="M122.254 130.703L148.819 108.618C151.347 106.516 154.532 105.364 157.819 105.364H193.086V165.368H157.819C154.532 165.367 151.347 164.216 148.819 162.114L122.254 140.029C119.338 137.601 119.338 133.13 122.254 130.703Z" fill="url(#paint29_linear_170_7853)"/>
<path d="M157.822 165.368C154.534 165.368 151.348 166.519 148.819 168.622L122.254 190.707C119.338 193.134 119.338 197.605 122.254 200.033L148.821 222.12C151.349 224.221 154.533 225.372 157.82 225.372H212.832C214.404 225.372 215.911 224.747 217.022 223.636C218.133 222.525 218.758 221.018 218.758 219.446V171.292C218.758 169.721 218.133 168.214 217.022 167.103C215.911 165.991 214.404 165.367 212.832 165.367H157.822V165.368Z" fill="url(#paint30_linear_170_7853)"/>
<path d="M212.832 165.368H167.417V225.372H212.832C214.404 225.372 215.911 224.747 217.022 223.636C218.133 222.525 218.758 221.018 218.758 219.446V171.292C218.757 169.721 218.133 168.214 217.021 167.104C215.91 165.993 214.404 165.368 212.832 165.368Z" fill="url(#paint31_linear_170_7853)"/>
<path d="M121.316 199.056C121.585 199.406 121.897 199.734 122.255 200.032L148.82 222.117C151.349 224.219 154.535 225.37 157.824 225.37H212.833C214.405 225.37 215.912 224.746 217.023 223.635C218.134 222.524 218.759 221.017 218.759 219.445V199.055H121.316V199.056Z" fill="url(#paint32_linear_170_7853)"/>
<path d="M122.254 190.707L148.819 168.622C151.347 166.519 154.532 165.368 157.819 165.368H193.086V225.372H157.819C154.532 225.371 151.347 224.22 148.819 222.118L122.254 200.033C119.338 197.605 119.338 193.134 122.254 190.707Z" fill="url(#paint33_linear_170_7853)"/>
<path d="M157.822 105.364C154.534 105.364 151.348 106.516 148.819 108.618L122.254 130.703C119.338 133.13 119.338 137.601 122.254 140.029L148.821 162.116C151.349 164.217 154.533 165.368 157.82 165.368H212.832C214.404 165.368 215.911 164.743 217.022 163.632C218.133 162.521 218.758 161.014 218.758 159.443V111.288C218.758 109.717 218.133 108.21 217.022 107.099C215.911 105.988 214.404 105.363 212.832 105.363L157.822 105.364Z" fill="url(#paint34_linear_170_7853)"/>
<path d="M385.315 381.351C385.315 347.598 357.953 320.235 324.199 320.235H285.494C279.31 320.235 273.187 319.016 267.473 316.65C261.76 314.283 256.569 310.814 252.196 306.44L251.724 305.967C246.907 301.119 242.474 295.905 238.463 290.372C235.204 285.877 230.047 283.15 224.495 283.15C194.302 283.15 165.305 294.947 143.686 316.024C121.108 338.037 87.8231 344.979 58.3279 333.828L13.1795 316.76L11.8925 320.019C3.45084 341.395 3.2184 365.137 11.24 386.674L21.0242 412.944C21.761 414.922 23.0849 416.628 24.8185 417.832C26.552 419.036 28.6123 419.682 30.7231 419.682H64.1025C85.8138 419.682 106.904 426.928 124.031 440.272L127.283 442.807C144.408 456.15 165.496 463.396 187.205 463.395H385.315V381.351Z" fill="url(#paint35_linear_170_7853)"/>
<path d="M385.315 381.351C385.315 347.598 357.953 320.235 324.199 320.235H285.494C279.31 320.235 273.187 319.016 267.473 316.65C261.76 314.283 256.569 310.814 252.196 306.44L251.724 305.967C246.907 301.119 242.474 295.905 238.463 290.372C235.204 285.877 230.047 283.15 224.495 283.15C194.302 283.15 165.305 294.947 143.686 316.024C121.108 338.037 87.8231 344.979 58.3279 333.828L13.1795 316.76L11.8925 320.019C3.45084 341.395 3.2184 365.137 11.24 386.674L21.0242 412.944C21.761 414.922 23.0849 416.628 24.8185 417.832C26.552 419.036 28.6123 419.682 30.7231 419.682H64.1025C85.8138 419.682 106.904 426.928 124.031 440.272L127.283 442.807C144.408 456.15 165.496 463.396 187.205 463.395H385.315V381.351Z" fill="url(#paint36_linear_170_7853)"/>
<path d="M385.315 381.351C385.315 347.598 357.953 320.235 324.199 320.235H285.494C279.31 320.235 273.187 319.016 267.473 316.65C261.76 314.283 256.569 310.814 252.196 306.44L251.724 305.967C246.907 301.119 242.474 295.905 238.463 290.372C235.204 285.877 230.047 283.15 224.495 283.15C194.302 283.15 165.305 294.947 143.686 316.024C121.108 338.037 87.8231 344.979 58.3279 333.828L13.1795 316.76L11.8925 320.019C3.45084 341.395 3.2184 365.137 11.24 386.674L21.0242 412.944C21.761 414.922 23.0849 416.628 24.8185 417.832C26.552 419.036 28.6123 419.682 30.7231 419.682H64.1025C85.8138 419.682 106.904 426.928 124.031 440.272L127.283 442.807C144.408 456.15 165.496 463.396 187.205 463.395H385.315V381.351Z" fill="url(#paint37_linear_170_7853)"/>
<path d="M324.2 320.235H285.495C279.311 320.235 273.187 319.016 267.474 316.65C261.761 314.283 256.57 310.814 252.197 306.44L251.725 305.966C246.908 301.119 242.474 295.905 238.463 290.372C237.432 288.949 236.194 287.687 234.791 286.628V463.394H385.315V381.35C385.315 347.598 357.953 320.235 324.2 320.235Z" fill="url(#paint38_linear_170_7853)"/>
<path d="M44.9205 49.807L50.2704 52.9442C64.0351 61.0147 80.4322 59.8171 93.2362 49.808L98.2127 45.9178C109.828 36.8373 124.96 36.8373 136.576 45.9178C152.458 58.3333 172.796 59.8181 189.869 49.808C190.281 49.4435 190.699 49.0902 191.12 48.7468C209.545 33.7382 234.789 49.8411 234.789 76.1479V92.2407C234.789 118.547 209.545 134.651 191.12 119.642C190.698 119.298 190.281 118.945 189.869 118.581C175.564 105.952 155.858 105.952 141.553 118.581C127.248 131.209 107.542 131.209 93.2372 118.581C78.9323 105.952 59.2264 105.952 44.9215 118.581C44.5089 118.945 44.0912 119.298 43.6706 119.642C25.2446 134.649 0 118.546 0 92.2397V76.1469C0 49.8401 25.2446 33.7362 43.6696 48.7458C44.0912 49.0882 44.5079 49.4425 44.9205 49.807Z" fill="url(#paint39_linear_170_7853)"/>
<path d="M44.9205 49.807L50.2704 52.9442C64.0351 61.0147 80.4322 59.8171 93.2362 49.808L98.2127 45.9178C109.828 36.8373 124.96 36.8373 136.576 45.9178C152.458 58.3333 172.796 59.8181 189.869 49.808C190.281 49.4435 190.699 49.0902 191.12 48.7468C209.545 33.7382 234.789 49.8411 234.789 76.1479V92.2407C234.789 118.547 209.545 134.651 191.12 119.642C190.698 119.298 190.281 118.945 189.869 118.581C175.564 105.952 155.858 105.952 141.553 118.581C127.248 131.209 107.542 131.209 93.2372 118.581C78.9323 105.952 59.2264 105.952 44.9215 118.581C44.5089 118.945 44.0912 119.298 43.6706 119.642C25.2446 134.649 0 118.546 0 92.2397V76.1469C0 49.8401 25.2446 33.7362 43.6696 48.7458C44.0912 49.0882 44.5079 49.4425 44.9205 49.807Z" fill="url(#paint40_linear_170_7853)"/>
<path d="M136.577 45.9162C152.459 58.3317 172.797 59.8165 189.87 49.8074C190.282 49.443 190.7 49.0896 191.121 48.7463C209.546 33.7376 234.79 49.8405 234.79 76.1473V92.2402C234.79 118.547 209.546 134.651 191.121 119.641C190.699 119.298 190.282 118.944 189.87 118.58C175.565 105.952 155.859 105.952 141.554 118.58C133.175 125.977 122.943 129.035 113.029 127.766V39.451C121.123 38.2442 129.501 40.3856 136.577 45.9162Z" fill="url(#paint41_linear_170_7853)"/>
<path d="M369.381 429.008H276.046C200.689 429.008 125.405 423.031 51.1638 410.105C43.6776 408.801 36.8027 407.99 31.2862 407.989C19.1498 407.989 8.88566 416.973 7.28742 429.004L4.57482 449.426C3.77825 455.347 4.10075 461.365 5.52553 467.167C8.10461 477.638 16.1039 485.943 26.3298 489.364C27.5646 489.778 28.7282 490.286 29.7893 490.89L36.875 494.929C43.5973 498.761 54.5982 498.761 61.3205 494.929L68.4062 490.89C75.1284 487.058 86.1294 487.058 92.8517 490.89L99.9373 494.929L100.001 494.965C104.148 497.328 109.44 495.556 111.309 491.163C112.382 488.636 112.934 485.918 112.93 483.173C112.93 476.103 120.8 471.867 126.709 475.761L163.001 494.928C169.723 498.76 180.724 498.76 187.446 494.928L194.532 490.889C201.087 487.152 211.586 487.056 218.37 490.577C218.697 490.654 226.305 494.928 226.305 494.928C233.055 498.776 244 498.776 250.75 494.928L257.836 490.889C264.558 487.057 275.559 487.057 282.282 490.889L289.367 494.928C296.09 498.76 307.091 498.76 313.813 494.928L320.898 490.889C327.621 487.057 338.622 487.057 345.344 490.889L352.431 494.928C359.153 498.76 370.153 498.759 376.875 494.928L383.961 490.889C385.005 490.294 386.157 489.803 387.37 489.391C388.894 487.82 390.306 486.144 391.595 484.376C393.854 481.257 394.706 477.751 394.437 474.399L394.486 474.401V454.111C394.486 440.248 383.246 429.008 369.381 429.008Z" fill="url(#paint42_linear_170_7853)"/>
<path d="M369.381 429.008H276.046C200.689 429.008 125.405 423.031 51.1638 410.105C43.6776 408.801 36.8027 407.99 31.2862 407.989C19.1498 407.989 8.88566 416.973 7.28742 429.004L4.57482 449.426C3.77825 455.347 4.10075 461.365 5.52553 467.167C8.10461 477.638 16.1039 485.943 26.3298 489.364C27.5646 489.778 28.7282 490.286 29.7893 490.89L36.875 494.929C43.5973 498.761 54.5982 498.761 61.3205 494.929L68.4062 490.89C75.1284 487.058 86.1294 487.058 92.8517 490.89L99.9373 494.929L100.001 494.965C104.148 497.328 109.44 495.556 111.309 491.163C112.382 488.636 112.934 485.918 112.93 483.173C112.93 476.103 120.8 471.867 126.709 475.761L163.001 494.928C169.723 498.76 180.724 498.76 187.446 494.928L194.532 490.889C201.087 487.152 211.586 487.056 218.37 490.577C218.697 490.654 226.305 494.928 226.305 494.928C233.055 498.776 244 498.776 250.75 494.928L257.836 490.889C264.558 487.057 275.559 487.057 282.282 490.889L289.367 494.928C296.09 498.76 307.091 498.76 313.813 494.928L320.898 490.889C327.621 487.057 338.622 487.057 345.344 490.889L352.431 494.928C359.153 498.76 370.153 498.759 376.875 494.928L383.961 490.889C385.005 490.294 386.157 489.803 387.37 489.391C388.894 487.82 390.306 486.144 391.595 484.376C393.854 481.257 394.706 477.751 394.437 474.399L394.486 474.401V454.111C394.486 440.248 383.246 429.008 369.381 429.008Z" fill="url(#paint43_linear_170_7853)"/>
<path d="M369.381 429.008H276.046C272.156 429.008 268.266 428.982 264.377 428.95V488.57C270.442 487.376 277.46 488.142 282.282 490.89L289.367 494.929C296.09 498.761 307.091 498.761 313.813 494.929L320.898 490.89C327.621 487.058 338.622 487.058 345.344 490.89L352.431 494.93C359.153 498.761 370.154 498.761 376.876 494.93L383.962 490.891C385.006 490.296 386.158 489.805 387.371 489.393C388.895 487.823 390.307 486.147 391.596 484.378C393.856 481.26 394.707 477.753 394.438 474.401L394.487 474.403V454.113C394.486 440.248 383.246 429.008 369.381 429.008Z" fill="url(#paint44_linear_170_7853)"/>
</g>
</g>
<defs>
<linearGradient id="paint0_linear_170_7853" x1="154.392" y1="168.84" x2="315.09" y2="257.584" gradientUnits="userSpaceOnUse">
<stop stop-color="#B9ACAC"/>
<stop offset="1" stop-color="#766E6E"/>
</linearGradient>
<linearGradient id="paint1_linear_170_7853" x1="242.497" y1="166.726" x2="321.647" y2="140.942" gradientUnits="userSpaceOnUse">
<stop stop-color="#384949" stop-opacity="0"/>
<stop offset="0.304" stop-color="#354545" stop-opacity="0.304"/>
<stop offset="0.586" stop-color="#2E3A3A" stop-opacity="0.586"/>
<stop offset="0.858" stop-color="#222727" stop-opacity="0.858"/>
<stop offset="1" stop-color="#1A1A1A"/>
</linearGradient>
<linearGradient id="paint2_linear_170_7853" x1="286.118" y1="174.037" x2="205.246" y2="174.037" gradientUnits="userSpaceOnUse">
<stop stop-color="#384949" stop-opacity="0"/>
<stop offset="0.304" stop-color="#354545" stop-opacity="0.304"/>
<stop offset="0.586" stop-color="#2E3A3A" stop-opacity="0.586"/>
<stop offset="0.858" stop-color="#222727" stop-opacity="0.858"/>
<stop offset="1" stop-color="#1A1A1A"/>
</linearGradient>
<linearGradient id="paint3_linear_170_7853" x1="235.571" y1="150.205" x2="243.966" y2="56.0656" gradientUnits="userSpaceOnUse">
<stop stop-color="#384949" stop-opacity="0"/>
<stop offset="0.304" stop-color="#354545" stop-opacity="0.304"/>
<stop offset="0.586" stop-color="#2E3A3A" stop-opacity="0.586"/>
<stop offset="0.858" stop-color="#222727" stop-opacity="0.858"/>
<stop offset="1" stop-color="#1A1A1A"/>
</linearGradient>
<linearGradient id="paint4_linear_170_7853" x1="287.293" y1="99.5209" x2="304.369" y2="150.747" gradientUnits="userSpaceOnUse">
<stop stop-color="#B9ACAC"/>
<stop offset="1" stop-color="#766E6E"/>
</linearGradient>
<linearGradient id="paint5_linear_170_7853" x1="309.481" y1="110.445" x2="351.994" y2="110.445" gradientUnits="userSpaceOnUse">
<stop stop-color="#384949" stop-opacity="0"/>
<stop offset="0.304" stop-color="#354545" stop-opacity="0.304"/>
<stop offset="0.586" stop-color="#2E3A3A" stop-opacity="0.586"/>
<stop offset="0.858" stop-color="#222727" stop-opacity="0.858"/>
<stop offset="1" stop-color="#1A1A1A"/>
</linearGradient>
<linearGradient id="paint6_linear_170_7853" x1="287.55" y1="119.172" x2="287.55" y2="156.221" gradientUnits="userSpaceOnUse">
<stop stop-color="#384949" stop-opacity="0"/>
<stop offset="0.304" stop-color="#354545" stop-opacity="0.304"/>
<stop offset="0.586" stop-color="#2E3A3A" stop-opacity="0.586"/>
<stop offset="0.858" stop-color="#222727" stop-opacity="0.858"/>
<stop offset="1" stop-color="#1A1A1A"/>
</linearGradient>
<linearGradient id="paint7_linear_170_7853" x1="280.407" y1="114.348" x2="253.93" y2="157.252" gradientUnits="userSpaceOnUse">
<stop stop-color="#384949" stop-opacity="0"/>
<stop offset="0.304" stop-color="#354545" stop-opacity="0.304"/>
<stop offset="0.586" stop-color="#2E3A3A" stop-opacity="0.586"/>
<stop offset="0.858" stop-color="#222727" stop-opacity="0.858"/>
<stop offset="1" stop-color="#1A1A1A"/>
</linearGradient>
<linearGradient id="paint8_linear_170_7853" x1="287.293" y1="159.524" x2="304.369" y2="210.751" gradientUnits="userSpaceOnUse">
<stop stop-color="#B9ACAC"/>
<stop offset="1" stop-color="#766E6E"/>
</linearGradient>
<linearGradient id="paint9_linear_170_7853" x1="309.481" y1="170.447" x2="351.994" y2="170.447" gradientUnits="userSpaceOnUse">
<stop stop-color="#384949" stop-opacity="0"/>
<stop offset="0.304" stop-color="#354545" stop-opacity="0.304"/>
<stop offset="0.586" stop-color="#2E3A3A" stop-opacity="0.586"/>
<stop offset="0.858" stop-color="#222727" stop-opacity="0.858"/>
<stop offset="1" stop-color="#1A1A1A"/>
</linearGradient>
<linearGradient id="paint10_linear_170_7853" x1="287.55" y1="179.175" x2="287.55" y2="216.224" gradientUnits="userSpaceOnUse">
<stop stop-color="#384949" stop-opacity="0"/>
<stop offset="0.304" stop-color="#354545" stop-opacity="0.304"/>
<stop offset="0.586" stop-color="#2E3A3A" stop-opacity="0.586"/>
<stop offset="0.858" stop-color="#222727" stop-opacity="0.858"/>
<stop offset="1" stop-color="#1A1A1A"/>
</linearGradient>
<linearGradient id="paint11_linear_170_7853" x1="280.407" y1="174.351" x2="253.93" y2="217.255" gradientUnits="userSpaceOnUse">
<stop stop-color="#384949" stop-opacity="0"/>
<stop offset="0.304" stop-color="#354545" stop-opacity="0.304"/>
<stop offset="0.586" stop-color="#2E3A3A" stop-opacity="0.586"/>
<stop offset="0.858" stop-color="#222727" stop-opacity="0.858"/>
<stop offset="1" stop-color="#1A1A1A"/>
</linearGradient>
<linearGradient id="paint12_linear_170_7853" x1="287.314" y1="116.46" x2="289.714" y2="79.2839" gradientUnits="userSpaceOnUse">
<stop stop-color="#384949" stop-opacity="0"/>
<stop offset="0.304" stop-color="#354545" stop-opacity="0.304"/>
<stop offset="0.586" stop-color="#2E3A3A" stop-opacity="0.586"/>
<stop offset="0.858" stop-color="#222727" stop-opacity="0.858"/>
<stop offset="1" stop-color="#1A1A1A"/>
</linearGradient>
<linearGradient id="paint13_linear_170_7853" x1="158.357" y1="132.773" x2="440.777" y2="533.019" gradientUnits="userSpaceOnUse">
<stop stop-color="#384949" stop-opacity="0"/>
<stop offset="0.304" stop-color="#354545" stop-opacity="0.304"/>
<stop offset="0.586" stop-color="#2E3A3A" stop-opacity="0.586"/>
<stop offset="0.858" stop-color="#222727" stop-opacity="0.858"/>
<stop offset="1" stop-color="#1A1A1A"/>
</linearGradient>
<linearGradient id="paint14_linear_170_7853" x1="315.589" y1="349.268" x2="311.091" y2="403.234" gradientUnits="userSpaceOnUse">
<stop stop-color="#384949" stop-opacity="0"/>
<stop offset="0.304" stop-color="#354545" stop-opacity="0.304"/>
<stop offset="0.586" stop-color="#2E3A3A" stop-opacity="0.586"/>
<stop offset="0.858" stop-color="#222727" stop-opacity="0.858"/>
<stop offset="1" stop-color="#1A1A1A"/>
</linearGradient>
<linearGradient id="paint15_linear_170_7853" x1="357.14" y1="273.734" x2="321.669" y2="354.048" gradientUnits="userSpaceOnUse">
<stop stop-color="#384949" stop-opacity="0"/>
<stop offset="0.304" stop-color="#354545" stop-opacity="0.304"/>
<stop offset="0.586" stop-color="#2E3A3A" stop-opacity="0.586"/>
<stop offset="0.858" stop-color="#222727" stop-opacity="0.858"/>
<stop offset="1" stop-color="#1A1A1A"/>
</linearGradient>
<linearGradient id="paint16_linear_170_7853" x1="391.843" y1="357.833" x2="474.591" y2="410.899" gradientUnits="userSpaceOnUse">
<stop stop-color="#384949" stop-opacity="0"/>
<stop offset="0.304" stop-color="#354545" stop-opacity="0.304"/>
<stop offset="0.586" stop-color="#2E3A3A" stop-opacity="0.586"/>
<stop offset="0.858" stop-color="#222727" stop-opacity="0.858"/>
<stop offset="1" stop-color="#1A1A1A"/>
</linearGradient>
<linearGradient id="paint17_linear_170_7853" x1="207.514" y1="10.5892" x2="280.491" y2="140.272" gradientUnits="userSpaceOnUse">
<stop stop-color="#EAF9FA"/>
<stop offset="1" stop-color="#B3DAFE"/>
</linearGradient>
<linearGradient id="paint18_linear_170_7853" x1="234.91" y1="52.5602" x2="234.91" y2="107.336" gradientUnits="userSpaceOnUse">
<stop stop-color="#B3DAFE" stop-opacity="0"/>
<stop offset="0.244" stop-color="#ACD5FA" stop-opacity="0.244"/>
<stop offset="0.589" stop-color="#9AC5F0" stop-opacity="0.589"/>
<stop offset="0.993" stop-color="#7CACDF" stop-opacity="0.993"/>
<stop offset="1" stop-color="#7BACDF"/>
</linearGradient>
<linearGradient id="paint19_linear_170_7853" x1="293.893" y1="58.6638" x2="363.584" y2="58.6638" gradientUnits="userSpaceOnUse">
<stop stop-color="#B3DAFE" stop-opacity="0"/>
<stop offset="0.244" stop-color="#ACD5FA" stop-opacity="0.244"/>
<stop offset="0.589" stop-color="#9AC5F0" stop-opacity="0.589"/>
<stop offset="0.993" stop-color="#7CACDF" stop-opacity="0.993"/>
<stop offset="1" stop-color="#7BACDF"/>
</linearGradient>
<linearGradient id="paint20_linear_170_7853" x1="316.832" y1="411.721" x2="316.832" y2="456.323" gradientUnits="userSpaceOnUse">
<stop stop-color="#5B5555"/>
<stop offset="1" stop-color="#433F43"/>
</linearGradient>
<linearGradient id="paint21_linear_170_7853" x1="317.517" y1="423.07" x2="315.718" y2="468.641" gradientUnits="userSpaceOnUse">
<stop stop-color="#384949" stop-opacity="0"/>
<stop offset="0.304" stop-color="#354545" stop-opacity="0.304"/>
<stop offset="0.586" stop-color="#2E3A3A" stop-opacity="0.586"/>
<stop offset="0.858" stop-color="#222727" stop-opacity="0.858"/>
<stop offset="1" stop-color="#1A1A1A"/>
</linearGradient>
<linearGradient id="paint22_linear_170_7853" x1="445.45" y1="438.456" x2="510.22" y2="438.456" gradientUnits="userSpaceOnUse">
<stop stop-color="#384949" stop-opacity="0"/>
<stop offset="0.304" stop-color="#354545" stop-opacity="0.304"/>
<stop offset="0.586" stop-color="#2E3A3A" stop-opacity="0.586"/>
<stop offset="0.858" stop-color="#222727" stop-opacity="0.858"/>
<stop offset="1" stop-color="#1A1A1A"/>
</linearGradient>
<linearGradient id="paint23_linear_170_7853" x1="36.878" y1="193.762" x2="197.576" y2="282.506" gradientUnits="userSpaceOnUse">
<stop stop-color="#B9ACAC"/>
<stop offset="1" stop-color="#766E6E"/>
</linearGradient>
<linearGradient id="paint24_linear_170_7853" x1="124.983" y1="191.648" x2="204.133" y2="165.864" gradientUnits="userSpaceOnUse">
<stop stop-color="#384949" stop-opacity="0"/>
<stop offset="0.304" stop-color="#354545" stop-opacity="0.304"/>
<stop offset="0.586" stop-color="#2E3A3A" stop-opacity="0.586"/>
<stop offset="0.858" stop-color="#222727" stop-opacity="0.858"/>
<stop offset="1" stop-color="#1A1A1A"/>
</linearGradient>
<linearGradient id="paint25_linear_170_7853" x1="118.057" y1="175.127" x2="126.452" y2="80.9875" gradientUnits="userSpaceOnUse">
<stop stop-color="#384949" stop-opacity="0"/>
<stop offset="0.304" stop-color="#354545" stop-opacity="0.304"/>
<stop offset="0.586" stop-color="#2E3A3A" stop-opacity="0.586"/>
<stop offset="0.858" stop-color="#222727" stop-opacity="0.858"/>
<stop offset="1" stop-color="#1A1A1A"/>
</linearGradient>
<linearGradient id="paint26_linear_170_7853" x1="169.779" y1="124.442" x2="186.855" y2="175.669" gradientUnits="userSpaceOnUse">
<stop stop-color="#B9ACAC"/>
<stop offset="1" stop-color="#766E6E"/>
</linearGradient>
<linearGradient id="paint27_linear_170_7853" x1="191.967" y1="135.365" x2="234.479" y2="135.365" gradientUnits="userSpaceOnUse">
<stop stop-color="#384949" stop-opacity="0"/>
<stop offset="0.304" stop-color="#354545" stop-opacity="0.304"/>
<stop offset="0.586" stop-color="#2E3A3A" stop-opacity="0.586"/>
<stop offset="0.858" stop-color="#222727" stop-opacity="0.858"/>
<stop offset="1" stop-color="#1A1A1A"/>
</linearGradient>
<linearGradient id="paint28_linear_170_7853" x1="170.036" y1="144.092" x2="170.036" y2="181.142" gradientUnits="userSpaceOnUse">
<stop stop-color="#384949" stop-opacity="0"/>
<stop offset="0.304" stop-color="#354545" stop-opacity="0.304"/>
<stop offset="0.586" stop-color="#2E3A3A" stop-opacity="0.586"/>
<stop offset="0.858" stop-color="#222727" stop-opacity="0.858"/>
<stop offset="1" stop-color="#1A1A1A"/>
</linearGradient>
<linearGradient id="paint29_linear_170_7853" x1="162.893" y1="139.269" x2="136.415" y2="182.173" gradientUnits="userSpaceOnUse">
<stop stop-color="#384949" stop-opacity="0"/>
<stop offset="0.304" stop-color="#354545" stop-opacity="0.304"/>
<stop offset="0.586" stop-color="#2E3A3A" stop-opacity="0.586"/>
<stop offset="0.858" stop-color="#222727" stop-opacity="0.858"/>
<stop offset="1" stop-color="#1A1A1A"/>
</linearGradient>
<linearGradient id="paint30_linear_170_7853" x1="169.779" y1="184.446" x2="186.855" y2="235.673" gradientUnits="userSpaceOnUse">
<stop stop-color="#B9ACAC"/>
<stop offset="1" stop-color="#766E6E"/>
</linearGradient>
<linearGradient id="paint31_linear_170_7853" x1="191.967" y1="195.369" x2="234.479" y2="195.369" gradientUnits="userSpaceOnUse">
<stop stop-color="#384949" stop-opacity="0"/>
<stop offset="0.304" stop-color="#354545" stop-opacity="0.304"/>
<stop offset="0.586" stop-color="#2E3A3A" stop-opacity="0.586"/>
<stop offset="0.858" stop-color="#222727" stop-opacity="0.858"/>
<stop offset="1" stop-color="#1A1A1A"/>
</linearGradient>
<linearGradient id="paint32_linear_170_7853" x1="170.036" y1="204.096" x2="170.036" y2="241.146" gradientUnits="userSpaceOnUse">
<stop stop-color="#384949" stop-opacity="0"/>
<stop offset="0.304" stop-color="#354545" stop-opacity="0.304"/>
<stop offset="0.586" stop-color="#2E3A3A" stop-opacity="0.586"/>
<stop offset="0.858" stop-color="#222727" stop-opacity="0.858"/>
<stop offset="1" stop-color="#1A1A1A"/>
</linearGradient>
<linearGradient id="paint33_linear_170_7853" x1="162.893" y1="199.273" x2="136.415" y2="242.177" gradientUnits="userSpaceOnUse">
<stop stop-color="#384949" stop-opacity="0"/>
<stop offset="0.304" stop-color="#354545" stop-opacity="0.304"/>
<stop offset="0.586" stop-color="#2E3A3A" stop-opacity="0.586"/>
<stop offset="0.858" stop-color="#222727" stop-opacity="0.858"/>
<stop offset="1" stop-color="#1A1A1A"/>
</linearGradient>
<linearGradient id="paint34_linear_170_7853" x1="169.8" y1="141.381" x2="172.199" y2="104.205" gradientUnits="userSpaceOnUse">
<stop stop-color="#384949" stop-opacity="0"/>
<stop offset="0.304" stop-color="#354545" stop-opacity="0.304"/>
<stop offset="0.586" stop-color="#2E3A3A" stop-opacity="0.586"/>
<stop offset="0.858" stop-color="#222727" stop-opacity="0.858"/>
<stop offset="1" stop-color="#1A1A1A"/>
</linearGradient>
<linearGradient id="paint35_linear_170_7853" x1="40.8416" y1="157.695" x2="323.263" y2="557.941" gradientUnits="userSpaceOnUse">
<stop stop-color="#384949" stop-opacity="0"/>
<stop offset="0.304" stop-color="#354545" stop-opacity="0.304"/>
<stop offset="0.586" stop-color="#2E3A3A" stop-opacity="0.586"/>
<stop offset="0.858" stop-color="#222727" stop-opacity="0.858"/>
<stop offset="1" stop-color="#1A1A1A"/>
</linearGradient>
<linearGradient id="paint36_linear_170_7853" x1="198.074" y1="374.19" x2="193.577" y2="428.156" gradientUnits="userSpaceOnUse">
<stop stop-color="#384949" stop-opacity="0"/>
<stop offset="0.304" stop-color="#354545" stop-opacity="0.304"/>
<stop offset="0.586" stop-color="#2E3A3A" stop-opacity="0.586"/>
<stop offset="0.858" stop-color="#222727" stop-opacity="0.858"/>
<stop offset="1" stop-color="#1A1A1A"/>
</linearGradient>
<linearGradient id="paint37_linear_170_7853" x1="225.897" y1="364.426" x2="309.994" y2="283.478" gradientUnits="userSpaceOnUse">
<stop stop-color="#384949" stop-opacity="0"/>
<stop offset="0.304" stop-color="#354545" stop-opacity="0.304"/>
<stop offset="0.586" stop-color="#2E3A3A" stop-opacity="0.586"/>
<stop offset="0.858" stop-color="#222727" stop-opacity="0.858"/>
<stop offset="1" stop-color="#1A1A1A"/>
</linearGradient>
<linearGradient id="paint38_linear_170_7853" x1="274.329" y1="382.754" x2="357.076" y2="435.821" gradientUnits="userSpaceOnUse">
<stop stop-color="#384949" stop-opacity="0"/>
<stop offset="0.304" stop-color="#354545" stop-opacity="0.304"/>
<stop offset="0.586" stop-color="#2E3A3A" stop-opacity="0.586"/>
<stop offset="0.858" stop-color="#222727" stop-opacity="0.858"/>
<stop offset="1" stop-color="#1A1A1A"/>
</linearGradient>
<linearGradient id="paint39_linear_170_7853" x1="89.9996" y1="35.5101" x2="162.977" y2="165.193" gradientUnits="userSpaceOnUse">
<stop stop-color="#EAF9FA"/>
<stop offset="1" stop-color="#B3DAFE"/>
</linearGradient>
<linearGradient id="paint40_linear_170_7853" x1="117.396" y1="77.4811" x2="117.396" y2="132.257" gradientUnits="userSpaceOnUse">
<stop stop-color="#B3DAFE" stop-opacity="0"/>
<stop offset="0.244" stop-color="#ACD5FA" stop-opacity="0.244"/>
<stop offset="0.589" stop-color="#9AC5F0" stop-opacity="0.589"/>
<stop offset="0.993" stop-color="#7CACDF" stop-opacity="0.993"/>
<stop offset="1" stop-color="#7BACDF"/>
</linearGradient>
<linearGradient id="paint41_linear_170_7853" x1="176.379" y1="83.5854" x2="246.07" y2="83.5854" gradientUnits="userSpaceOnUse">
<stop stop-color="#B3DAFE" stop-opacity="0"/>
<stop offset="0.244" stop-color="#ACD5FA" stop-opacity="0.244"/>
<stop offset="0.589" stop-color="#9AC5F0" stop-opacity="0.589"/>
<stop offset="0.993" stop-color="#7CACDF" stop-opacity="0.993"/>
<stop offset="1" stop-color="#7BACDF"/>
</linearGradient>
<linearGradient id="paint42_linear_170_7853" x1="199.318" y1="436.642" x2="199.318" y2="481.243" gradientUnits="userSpaceOnUse">
<stop stop-color="#5B5555"/>
<stop offset="1" stop-color="#433F43"/>
</linearGradient>
<linearGradient id="paint43_linear_170_7853" x1="200.003" y1="447.991" x2="198.204" y2="493.562" gradientUnits="userSpaceOnUse">
<stop stop-color="#384949" stop-opacity="0"/>
<stop offset="0.304" stop-color="#354545" stop-opacity="0.304"/>
<stop offset="0.586" stop-color="#2E3A3A" stop-opacity="0.586"/>
<stop offset="0.858" stop-color="#222727" stop-opacity="0.858"/>
<stop offset="1" stop-color="#1A1A1A"/>
</linearGradient>
<linearGradient id="paint44_linear_170_7853" x1="327.936" y1="463.377" x2="392.706" y2="463.377" gradientUnits="userSpaceOnUse">
<stop stop-color="#384949" stop-opacity="0"/>
<stop offset="0.304" stop-color="#354545" stop-opacity="0.304"/>
<stop offset="0.586" stop-color="#2E3A3A" stop-opacity="0.586"/>
<stop offset="0.858" stop-color="#222727" stop-opacity="0.858"/>
<stop offset="1" stop-color="#1A1A1A"/>
</linearGradient>
<clipPath id="clip0_170_7853">
<rect width="512" height="512" fill="white"/>
</clipPath>
<clipPath id="clip1_170_7853">
<rect width="512" height="512" fill="white"/>
</clipPath>
</defs>
</svg>
