<svg width="512" height="512" viewBox="0 0 512 512" fill="none" xmlns="http://www.w3.org/2000/svg">
<g clip-path="url(#clip0_170_7712)">
<path d="M14.9986 255.97C14.9477 286.283 20.6611 316.328 31.8344 344.506C40.1618 365.505 51.3801 385.238 65.1646 403.135C103.749 453.277 160.536 486.197 223.222 494.763C224.366 494.884 225.511 494.994 226.655 495.225C236.273 496.369 246.011 496.942 255.97 496.942C308.887 496.942 357.798 479.875 397.533 451.012C419.861 434.741 439.265 414.798 454.917 392.032C466.32 375.489 475.558 357.553 482.404 338.663C503.453 280.733 501.611 216.955 477.254 160.337C477.023 159.875 476.792 159.303 476.562 158.841C451.7 102.739 406.468 58.1673 350.007 34.1337C320.262 21.5384 288.282 15.0714 255.98 15.1194C242.929 15.1194 230.209 16.1434 217.731 18.091C187.337 22.9045 158.164 33.5618 131.825 49.4736C130.68 50.1663 129.536 50.849 128.392 51.6521C103.955 66.8877 82.462 86.401 64.9437 109.257C64.1406 110.181 63.4478 111.094 62.7652 112.128C31.672 153.634 14.908 204.11 14.9986 255.97Z" fill="#D4D6D6"/>
<path d="M497.001 255.92C497 287.861 490.688 319.488 478.429 348.983C472.004 364.243 464.173 378.699 454.937 392.052C408.129 421.193 352.75 433.417 298.024 426.687C296.82 426.587 295.715 426.386 294.611 426.285C230.46 417.551 174.341 383.518 136.493 334.627C122.694 316.741 111.474 297.005 103.163 275.998C94.8305 254.916 89.3089 232.227 87.3011 208.635C86.6987 201.708 86.3975 194.681 86.3975 187.553C86.3975 137.156 101.858 90.3732 128.361 51.6219C129.566 50.8187 130.67 50.116 131.875 49.5136C147.737 39.876 164.804 32.0454 182.874 26.323C194.118 22.7089 205.764 19.9983 217.71 18.0909C230.259 16.1834 242.909 15.0791 255.96 15.0791C289.29 15.0791 321.114 21.9058 350.027 34.1536C406.487 58.1584 451.707 102.732 476.521 158.841C476.823 159.343 477.023 159.845 477.224 160.347C490.262 190.523 496.992 223.047 497.001 255.92Z" fill="#E0E2E2"/>
<path d="M497.001 255.92C497 287.861 490.688 319.488 478.429 348.983C455.339 356.412 430.642 360.428 405.143 360.428C395.304 360.428 385.466 359.826 375.828 358.721C374.623 358.621 373.519 358.32 372.314 358.22C308.264 349.485 252.145 315.553 214.297 266.561C200.441 248.713 189.216 228.969 180.967 207.932C172.634 186.85 167.113 164.262 165.105 140.67C164.503 133.642 164.101 126.615 164.101 119.587C164.101 86.5583 170.727 55.0352 182.874 26.323C194.118 22.7089 205.764 19.9983 217.71 18.0909C230.259 16.1834 242.909 15.0791 255.96 15.0791C289.29 15.0791 321.114 21.9058 350.027 34.1536C406.487 58.1584 451.707 102.732 476.521 158.841C476.823 159.343 477.023 159.845 477.224 160.347C490.262 190.523 496.992 223.047 497.001 255.92ZM128.05 234.667C140.76 269.704 156.562 306.819 175.114 345.299C170.426 350.921 166.079 356.754 162.174 362.938C152.886 354.203 144.309 344.743 136.523 334.647C122.698 316.778 111.476 297.039 103.193 276.018C97.0579 260.612 92.5656 244.601 89.7908 228.252C101.938 231.464 114.758 233.633 128.04 234.667H128.05Z" fill="#ECF0F1"/>
<path d="M477.596 162.053L461.332 166.29L460.87 164.573L460.529 162.967L476.562 158.851C476.793 159.192 476.913 159.654 477.134 159.985L477.254 160.336L477.596 162.053Z" fill="#ECF0F1"/>
<path opacity="0.5" d="M265.507 169.984C265.491 179.89 267.358 189.708 271.009 198.917C273.749 205.844 277.454 212.289 281.911 218.092C294.52 234.479 313.077 245.238 333.563 248.039C337.111 248.51 340.686 248.745 344.265 248.742C360.892 248.769 377.099 243.513 390.546 233.733C397.839 228.415 404.177 221.897 409.289 214.458C413.017 209.049 416.036 203.185 418.274 197.01C425.154 178.074 424.551 157.227 416.587 138.722L416.366 138.24C408.241 119.904 393.458 105.336 375.005 97.4807C365.284 93.3607 354.833 91.2438 344.275 91.2564C329.974 91.2029 315.934 95.0897 303.696 102.49C303.315 102.721 302.943 102.942 302.572 103.203C294.246 108.394 286.968 115.103 281.118 122.98C270.958 136.542 265.48 153.038 265.507 169.984Z" fill="white"/>
<path opacity="0.5" d="M265.507 169.984C265.507 213.052 300.353 248.742 344.275 248.742C387.002 248.742 423.033 214.287 423.033 169.984C423.033 154.518 418.478 139.394 409.937 126.5C401.396 113.606 389.246 103.513 375.005 97.4809C323.504 75.6055 265.507 113.393 265.507 169.984Z" fill="white"/>
<path d="M64.4317 393.196C81.7794 404.942 105.633 413.586 139.093 420.292C157.485 444.316 186.78 462.507 222.459 477.264C222.439 482.766 222.8 489.352 223.202 494.733C224.346 494.903 225.511 495.054 226.675 495.184C226.208 489.366 225.947 483.533 225.892 477.696V477.676C260.056 473.259 290.224 462.095 316.858 444.938L316.838 445.219C321.847 445.581 326.977 445.761 332.198 445.761C354.585 445.761 378.669 442.438 401.769 436.104L397.553 450.982C436.338 422.8 465.861 383.716 482.364 338.703L470.518 345.7C465.559 306.286 459.776 279.181 452.849 262.957C463.661 231.123 466.673 198.385 460.91 164.623L461.342 166.29L477.636 162.053L476.772 158.72L460.479 162.957L460.91 164.623C439.748 136.333 414.409 114.628 384.994 99.338L385.335 99.1372C371.24 74.2199 355.147 52.9669 337.448 35.9103L349.977 34.0831C320.239 21.4857 288.266 15.0153 255.97 15.0588C243.147 15.0519 230.344 16.0624 217.68 18.0806L226.585 22.1666C204.228 34.8361 180.746 52.2441 159.895 71.6599C128.572 79.9021 100.493 93.9871 76.3081 115.15L76.298 115.13C72.7008 112.784 68.8767 110.806 64.8834 109.227C64.1405 110.18 63.4077 111.134 62.7049 112.098C67.2427 113.604 72.1217 116.555 74.1195 117.83C59.4924 147.496 51.3907 178.768 53.0271 212.44C39.6147 234.486 28.2905 262.656 22.8091 287.553C20.0176 284.427 17.6975 280.909 15.9222 277.112C19.8863 322.971 36.971 366.717 65.1344 403.125C64.3815 399.25 64.1004 395.907 64.4317 393.196ZM131.333 233.572L202.27 142.507C244.304 145.559 284.341 150.488 321.275 157.164L364.925 260.889C345.981 291.047 322.861 322.58 292.483 359.695L178.276 344.034C159.794 305.634 144.013 268.509 131.333 233.572ZM381.069 98.6353C357.507 113.142 337.147 130.952 321.636 153.751C284.722 147.085 244.736 142.165 202.752 139.093C192.743 113.654 179.832 91.4773 164.141 72.4229C185.424 52.8966 209.277 35.5288 231.765 23.2307C263.429 21.6044 297 26.122 331.967 35.1975L331.826 35.3481C350.037 52.1738 366.582 73.4569 381.069 98.6353ZM318.856 441.906C314.599 412.562 306.768 385.907 294.661 362.466C325.23 325.16 348.501 293.456 367.576 263.148C392.333 270.256 420.242 270.246 450.209 265.577C456.935 282.042 462.597 309.389 467.476 349.043C450.785 379.566 429.668 407.449 404.811 431.787L404.791 431.686C376.129 440.019 345.69 443.633 318.856 441.906ZM138.571 416.688C104.86 409.841 81.2072 400.996 64.3112 388.939C43.8111 355.699 30.479 323.343 25.0177 291.981L25.359 292.051C30.3385 267.013 41.723 237.96 55.3462 215.251C77.071 226.143 101.366 232.548 128.08 234.717C140.78 269.704 156.572 306.879 175.074 345.319C158.057 365.929 145.508 389.471 138.571 416.688Z" fill="#5B5E71"/>
<path d="M428.233 406.347C420.938 415.264 413.139 423.754 404.872 431.777L404.751 431.656C376.119 440.019 345.66 443.573 318.856 441.856C318.166 437.259 317.403 432.674 316.567 428.102C310.361 427.936 304.167 427.481 298.004 426.737C296.87 426.616 295.715 426.385 294.571 426.275C243.602 419.398 197.793 396.499 162.173 362.938C151.405 379.419 143.434 397.567 138.581 416.647C104.91 409.781 81.1972 400.966 64.251 388.939C43.8714 355.719 30.469 323.313 24.9675 291.93L25.3088 292.041C30.3485 266.963 41.6928 237.99 55.3261 215.19C66.1986 220.692 77.6533 225.039 89.7907 228.241C88.6591 221.757 87.8216 215.225 87.2809 208.665C86.6844 201.653 86.3763 194.62 86.3573 187.583C86.3573 154.493 93.0033 122.88 105.131 94.248C94.9015 100.307 85.2442 107.282 76.2779 115.089C74.5612 113.945 69.7525 111.084 64.9336 109.247C64.1305 110.17 63.4478 111.084 62.7652 112.118C67.2326 113.604 72.1518 116.585 74.1095 117.84C60.6971 144.986 52.7962 173.508 52.7962 203.977C52.7962 206.828 52.9167 209.579 53.0271 212.44C39.6248 234.426 28.2905 262.606 22.789 287.573C20.1587 284.712 17.9702 281.279 15.9222 277.153C20.0383 324.337 37.7976 367.636 65.1645 403.145C64.3614 399.249 64.1405 395.916 64.4819 393.176C81.7694 404.972 105.592 413.555 139.154 420.322C157.475 444.366 186.8 462.466 222.419 477.244C222.419 482.736 222.76 489.392 223.222 494.763C224.366 494.883 225.511 494.993 226.655 495.224C226.314 489.843 225.852 483.197 225.852 477.696C260.096 473.228 290.224 462.125 316.908 444.948L316.797 445.169C321.837 445.631 326.987 445.741 332.258 445.741C354.585 445.741 378.639 442.428 401.779 436.124L397.533 451.012C419.861 434.741 439.265 414.797 454.917 392.031C446.359 397.406 437.443 402.189 428.233 406.347ZM477.254 160.336L477.134 159.985L476.792 158.73L476.562 158.84L460.529 162.966L460.87 164.573L461.332 166.279L477.596 162.053L477.254 160.336Z" fill="#525566"/>
</g>
<defs>
<clipPath id="clip0_170_7712">
<rect width="512" height="512" fill="white"/>
</clipPath>
</defs>
</svg>
