<svg width="512" height="512" viewBox="0 0 512 512" fill="none" xmlns="http://www.w3.org/2000/svg">
<g clip-path="url(#clip0_170_7665)">
<g clip-path="url(#clip1_170_7665)">
<path d="M426.782 15.378L273.682 176.53L194.243 282.449L35.3657 450.153L25.3586 445.149C22.9847 443.965 20.3682 443.349 17.7154 443.349C15.0626 443.349 12.4461 443.965 10.0722 445.149L9.51608 445.42C6.67242 446.845 4.28162 449.033 2.61158 451.74C0.941533 454.447 0.0582399 457.565 0.060674 460.746C0.060674 465.28 1.86128 469.628 5.06421 472.836L39.1897 506.961C41.1084 508.87 43.4526 510.296 46.0297 511.123C48.6067 511.949 51.3431 512.152 54.014 511.716C56.6849 511.279 59.214 510.215 61.3937 508.61C63.5733 507.006 65.3411 504.908 66.552 502.487L66.8234 501.931C68.0075 499.556 68.6239 496.939 68.6239 494.285C68.6239 491.631 68.0075 489.014 66.8234 486.639L61.8463 476.632L229.55 317.755L335.468 238.316L496.626 85.2179C501.479 80.6047 505.344 75.0537 507.986 68.9018C510.629 62.7498 511.994 56.1251 511.999 49.4296C511.999 22.1314 489.87 0 462.57 0C455.874 0.00465123 449.249 1.3702 443.097 4.01372C436.944 6.65725 431.393 10.5236 426.781 15.378H426.782Z" fill="#F98500"/>
<path d="M427.018 53.5838L439.21 40.7412L452.011 52.8997L439.819 65.7379L427.018 53.5838ZM315.535 170.906L415.886 65.29L428.686 77.4485L328.332 183.069L315.535 170.906Z" fill="#FF9419"/>
<path d="M497.312 273.86C494.778 273.427 492.18 273.554 489.7 274.23C487.22 274.906 484.918 276.116 482.954 277.775C480.99 279.434 479.412 281.501 478.331 283.833C477.249 286.165 476.69 288.705 476.693 291.276C476.693 281.527 468.789 273.623 459.04 273.623C449.291 273.623 441.387 281.527 441.387 291.276C441.387 281.527 433.483 273.623 423.734 273.623C413.985 273.623 406.081 281.527 406.081 291.276C406.082 288.705 405.523 286.166 404.441 283.834C403.36 281.503 401.782 279.435 399.819 277.777C397.855 276.118 395.553 274.908 393.074 274.232C390.594 273.555 387.997 273.428 385.463 273.86C376.765 275.618 370.577 283.349 370.775 292.219V300.102L368.913 303.826C364.169 313.316 356.876 321.297 347.851 326.875C338.825 332.454 328.425 335.408 317.815 335.408V336.351C318.014 327.482 311.824 319.751 303.128 317.992C300.594 317.56 297.996 317.687 295.516 318.363C293.037 319.039 290.734 320.249 288.77 321.908C286.807 323.566 285.229 325.634 284.147 327.966C283.066 330.298 282.507 332.838 282.509 335.408V393.952C281.855 455.997 329.797 507.737 391.712 511.805C407.229 512.556 422.737 510.148 437.296 504.727C451.855 499.306 465.161 490.985 476.409 480.269C487.656 469.552 496.61 456.663 502.728 442.383C508.845 428.103 512 412.729 511.999 397.194V292.219C512.197 283.349 506.008 275.618 497.312 273.86Z" fill="#95573A"/>
<path d="M344.295 406.02C358.918 406.02 370.775 394.164 370.775 379.54V300.102L368.913 303.825C364.169 313.315 356.876 321.297 347.851 326.875C338.826 332.453 328.425 335.408 317.815 335.408V379.54C317.815 394.164 329.672 406.02 344.295 406.02Z" fill="#743B20"/>
<path d="M498.802 274.256C472.659 394.91 359.793 437.487 297.568 451.92C322.349 498.091 375.421 521.42 426.195 508.461C476.973 495.501 512.375 449.597 512 397.194V292.219C512.062 288.195 510.805 284.261 508.422 281.018C506.039 277.775 502.661 275.399 498.802 274.256Z" fill="#8F4D2E"/>
<path d="M335.468 494.285C333.814 492.629 332.885 490.385 332.885 488.044C332.885 485.704 333.814 483.459 335.468 481.803L338.292 478.981C351.1 466.174 368.471 458.979 386.584 458.979H409.533C419.093 458.969 428.548 460.971 437.283 464.856C446.018 468.74 453.838 474.419 460.234 481.524C461.056 482.474 461.666 483.589 462.022 484.794C462.379 485.999 462.475 487.266 462.302 488.51C462.073 490.176 461.373 491.741 460.285 493.022C459.196 494.303 457.764 495.247 456.157 495.741C454.551 496.236 452.836 496.261 451.216 495.814C449.595 495.366 448.136 494.466 447.01 493.217C442.277 487.999 436.505 483.828 430.064 480.972C423.624 478.115 416.658 476.637 409.612 476.632H386.575C373.147 476.632 360.269 481.966 350.774 491.462L347.95 494.285C347.131 495.105 346.158 495.755 345.087 496.199C344.016 496.643 342.868 496.871 341.709 496.871C340.55 496.871 339.402 496.643 338.332 496.199C337.261 495.755 336.288 495.105 335.468 494.285ZM344.295 414.846C341.494 414.846 338.706 414.515 335.981 413.859L340.119 396.698C343.964 397.611 347.997 397.223 351.597 395.603L358.949 411.661C354.35 413.764 349.352 414.851 344.295 414.846ZM316.544 401.369C311.657 395.142 308.997 387.457 308.989 379.54H326.642C326.628 383.498 327.957 387.344 330.413 390.449L316.544 401.369ZM375.684 395.72L360.001 387.617C361.293 385.121 361.961 382.35 361.948 379.54V374.48H379.601V379.54C379.601 385.168 378.258 390.715 375.684 395.719V395.72ZM379.601 356.84H361.948V339.187H379.601V356.84Z" fill="#662E13"/>
<path d="M386.566 466.155L378.718 450.364L394.509 442.473L402.4 458.272L386.566 466.155ZM370.775 434.582L362.832 418.79L378.631 410.903L386.523 426.69L370.775 434.582ZM379.601 326.581H361.948V300.102C361.948 297.761 362.878 295.516 364.533 293.861C366.189 292.205 368.434 291.275 370.775 291.275C373.115 291.275 375.361 292.205 377.016 293.861C378.671 295.516 379.601 297.761 379.601 300.102V326.581ZM326.642 361.888H308.989V335.408C308.989 333.067 309.919 330.822 311.574 329.167C313.229 327.511 315.474 326.581 317.815 326.581C320.156 326.581 322.401 327.511 324.057 329.167C325.712 330.822 326.642 333.067 326.642 335.408V361.888Z" fill="#662E13"/>
<path d="M220.724 158.877C220.724 193.003 193.064 220.663 158.938 220.663C124.818 220.663 97.1523 193.003 97.1523 158.877C97.1523 124.752 124.818 97.0918 158.938 97.0918C193.064 97.0918 220.724 124.752 220.724 158.877Z" fill="#D6D6D4"/>
<path d="M150.111 158.878C149.757 148.983 147.04 139.316 142.186 130.686C137.332 122.056 130.482 114.714 122.21 109.273C118.64 111.918 115.362 114.936 112.431 118.276L109.888 122.071C116.398 125.864 121.866 131.211 125.805 137.634C129.744 144.057 132.029 151.356 132.458 158.878C132.027 166.398 129.74 173.694 125.801 180.115C121.863 186.536 116.396 191.882 109.888 195.675L112.431 199.472C115.361 202.815 118.639 205.836 122.21 208.484C130.482 203.043 137.332 195.7 142.187 187.07C147.041 178.44 149.759 168.773 150.113 158.878H150.111ZM205.446 199.48L207.988 195.684C201.479 191.89 196.011 186.543 192.072 180.12C188.134 173.698 185.847 166.4 185.418 158.878C185.849 151.357 188.136 144.061 192.075 137.64C196.013 131.219 201.48 125.873 207.988 122.08L205.446 118.283C202.514 114.942 199.235 111.922 195.666 109.271C187.394 114.713 180.544 122.055 175.69 130.686C170.836 139.316 168.118 148.982 167.765 158.878C168.119 168.773 170.837 178.439 175.691 187.069C180.545 195.699 187.395 203.042 195.667 208.483C199.237 205.837 202.515 202.819 205.446 199.48Z" fill="#A3A3A1"/>
<path d="M476.693 291.275C479.034 291.275 481.279 292.205 482.934 293.861C484.589 295.516 485.519 297.761 485.519 300.102V370.714C485.519 373.055 484.589 375.3 482.934 376.955C481.279 378.611 479.034 379.541 476.693 379.541C474.352 379.541 472.107 378.611 470.452 376.955C468.796 375.3 467.866 373.055 467.866 370.714V300.102C467.866 297.761 468.796 295.516 470.452 293.861C472.107 292.205 474.352 291.275 476.693 291.275ZM441.387 291.275C443.728 291.275 445.973 292.205 447.628 293.861C449.283 295.516 450.213 297.761 450.213 300.102V370.714C450.213 373.055 449.283 375.3 447.628 376.955C445.973 378.611 443.728 379.541 441.387 379.541C439.046 379.541 436.801 378.611 435.145 376.955C433.49 375.3 432.56 373.055 432.56 370.714V300.102C432.56 297.761 433.49 295.516 435.145 293.861C436.801 292.205 439.046 291.275 441.387 291.275ZM406.081 291.275C408.422 291.275 410.667 292.205 412.322 293.861C413.977 295.516 414.907 297.761 414.907 300.102V370.714C414.907 373.055 413.977 375.3 412.322 376.955C410.667 378.611 408.422 379.541 406.081 379.541C403.74 379.541 401.495 378.611 399.839 376.955C398.184 375.3 397.254 373.055 397.254 370.714V300.102C397.254 297.761 398.184 295.516 399.839 293.861C401.495 292.205 403.74 291.275 406.081 291.275Z" fill="#662E13"/>
</g>
</g>
<defs>
<clipPath id="clip0_170_7665">
<rect width="512" height="512" fill="white"/>
</clipPath>
<clipPath id="clip1_170_7665">
<rect width="512" height="512" fill="white"/>
</clipPath>
</defs>
</svg>
