<svg width="512" height="512" viewBox="0 0 512 512" fill="none" xmlns="http://www.w3.org/2000/svg">
<g clip-path="url(#clip0_170_7148)">
<g clip-path="url(#clip1_170_7148)">
<path d="M489.724 395.615C482.233 366.769 458.488 345.021 429.098 340.086L343.09 327.737H261.404L175.395 340.086C146.004 345.021 122.259 366.769 114.769 395.615L126.993 497.402H497.774C507.078 497.402 513.877 488.614 511.538 479.608L489.724 395.615Z" fill="#CB97E7"/>
<path d="M429.096 340.081V497.399H407.577V336.996L429.096 340.081ZM153.873 347.148V497.402H175.395V340.085C167.907 341.344 160.651 343.725 153.873 347.148ZM489.724 395.614C482.233 366.768 458.488 345.02 429.097 340.085V347.148C448.176 356.776 462.652 374.244 468.202 395.614L490.666 482.117C492.386 488.739 488.507 495.524 481.928 497.402H497.772C507.076 497.402 513.875 488.613 511.536 479.607L489.724 395.614Z" fill="#BD80E1"/>
<path d="M343.089 274.204L302.248 265.878L261.403 274.204V331.859C261.403 354.39 279.669 372.656 302.2 372.656H302.292C324.823 372.656 343.089 354.39 343.089 331.859V274.204Z" fill="#FFE5C2"/>
<path d="M321.568 274.204V331.858C321.568 350.681 308.818 366.517 291.486 371.223C294.978 372.174 298.581 372.655 302.2 372.656H302.292C324.824 372.656 343.089 354.39 343.089 331.858V274.204L327.969 271.121L321.568 274.204Z" fill="#FED2A4"/>
<path d="M126.992 497.402H67.328C60.1288 497.402 54.5289 491.143 55.3265 483.989L60.0633 441.485H126.992V497.402Z" fill="#FFE5C2"/>
<path d="M105.47 441.485H126.991V497.402H105.47V441.485Z" fill="#FED2A4"/>
<path d="M199.536 366.772V387.2C199.536 393.743 198.341 400.223 196.015 406.34L182.794 441.017C180.619 446.728 176.76 451.642 171.728 455.108C166.696 458.575 160.729 460.43 154.619 460.428H30.149C13.5011 460.428 0 446.937 0 430.289V327.234H142.904L199.536 366.772Z" fill="#FEE97D"/>
<path d="M142.901 327.231H121.379L178.013 366.772V387.203C178.013 393.743 176.819 400.228 174.49 406.339L161.27 441.022C159.095 446.73 155.236 451.642 150.206 455.108C145.176 458.574 139.212 460.43 133.103 460.43H154.624C160.732 460.43 166.697 458.574 171.727 455.108C176.757 451.642 180.616 446.73 182.791 441.022L196.011 406.339C198.34 400.228 199.534 393.743 199.534 387.203V366.772L142.901 327.231Z" fill="#FEDF30"/>
<path d="M111.73 304.362H169.76V190.421C169.76 178.63 160.201 169.071 148.41 169.071H133.079C121.289 169.071 111.73 178.63 111.73 190.421V304.362Z" fill="#FEE97D"/>
<path d="M148.41 169.07H133.079C132.025 169.07 130.997 169.172 129.984 169.32C140.304 170.822 148.239 179.683 148.239 190.42V304.362H169.761V190.421C169.76 178.629 160.201 169.07 148.41 169.07Z" fill="#FEDF30"/>
<path d="M111.727 283.708V351.089H80.8508C74.8273 351.089 69.2607 349.137 64.7534 345.814C58.0444 340.87 53.6929 332.915 53.6929 323.931V283.708C53.6929 272.783 62.5517 263.935 73.4772 263.935H91.9425C102.868 263.935 111.727 272.783 111.727 283.708Z" fill="#FEE97D"/>
<path d="M87.0614 351.09H80.8508C74.8273 351.09 69.2607 349.137 64.7534 345.814C58.0444 340.87 53.6929 332.915 53.6929 323.932V323.869L53.724 323.932C53.724 334.608 62.4167 343.3 73.0929 343.3H79.2723C83.5718 343.3 87.0614 346.79 87.0614 351.09ZM91.9498 263.932H73.4792C72.9641 263.932 72.4594 263.97 71.9536 264.008C82.1625 264.789 90.2081 273.302 90.2081 283.711V351.093H111.729V283.711C111.73 272.787 102.874 263.932 91.9498 263.932Z" fill="#FEDF30"/>
<path d="M53.6928 283.708V323.931C53.6928 338.938 41.5418 351.089 26.5348 351.089C12.2133 351.089 0.540044 339.738 0.0207709 325.541C0.0103855 325.209 0 324.887 0 324.554V285.277C0 275.057 7.17635 266.521 16.7725 264.433C16.7933 264.433 16.8244 264.423 16.8556 264.412C18.3096 264.101 19.8051 263.935 21.3525 263.935H33.9189C44.8444 263.935 53.6928 272.783 53.6928 283.708ZM199.536 325.707V366.771H107.614C107.386 366.771 107.147 366.761 106.918 366.751C95.4527 366.398 86.272 356.988 86.272 345.419V325.707C86.272 314.283 95.2347 304.968 106.513 304.396C106.877 304.376 107.24 304.365 107.614 304.365H178.183C178.557 304.365 178.921 304.376 179.284 304.396C190.563 304.968 199.536 314.283 199.536 325.707Z" fill="#FEE97D"/>
<path d="M178.184 304.361H156.663C168.454 304.361 178.012 313.92 178.012 325.71V366.771H199.533V325.71C199.534 313.92 189.976 304.361 178.184 304.361ZM148.741 378.154L131.023 412.197C130.363 413.46 129.369 414.518 128.149 415.256C126.93 415.994 125.532 416.384 124.106 416.383C122.891 416.383 121.666 416.102 120.513 415.51C118.681 414.554 117.304 412.911 116.683 410.94C116.062 408.97 116.248 406.834 117.2 405L128.998 382.35H107.614C91.5478 382.35 78.4829 369.274 78.4829 353.208V333.496C78.4829 317.804 90.9558 304.968 106.513 304.396C95.2346 304.968 86.272 314.283 86.272 325.707V345.419C86.272 356.988 95.4527 366.398 106.918 366.751C107.147 366.761 107.386 366.771 107.614 366.771H141.824C144.555 366.771 147.079 368.194 148.491 370.521C149.904 372.847 149.997 375.744 148.741 378.154ZM53.6928 283.708V323.931C53.6928 338.938 41.5418 351.089 26.5348 351.089C12.2133 351.089 0.540025 339.738 0.020752 325.541C0.540025 335.418 8.77569 343.3 18.7769 343.3H18.8392C22.7961 343.29 26.4414 341.067 28.4458 337.661C30.894 333.5 32.1815 328.759 32.1741 323.931V283.708C32.1741 274.299 25.5897 266.427 16.7725 264.433C16.7933 264.433 16.8244 264.423 16.8556 264.412C18.3095 264.101 19.805 263.935 21.3525 263.935H33.9189C44.8444 263.935 53.6928 272.783 53.6928 283.708ZM65.4284 460.427H49.7879L48.1366 442.637C47.7419 438.358 50.8887 434.557 55.1779 434.163C59.4567 433.768 63.2578 436.925 63.6525 441.204L65.4284 460.427ZM137.815 443.001L135.385 460.427H119.661L122.393 440.84C122.985 436.582 126.931 433.612 131.179 434.204C135.437 434.806 138.417 438.743 137.815 443.001ZM100.292 441.796V460.427H84.7142V441.796C84.7142 437.496 88.1933 434.007 92.5033 434.007C96.8028 434.007 100.292 437.496 100.292 441.796Z" fill="#FEDF30"/>
<path d="M353.517 497.402C331.259 497.402 313.152 479.294 313.152 457.037V424.461C313.152 422.395 313.972 420.414 315.433 418.953C316.894 417.492 318.875 416.672 320.941 416.672H386.093C388.159 416.672 390.14 417.492 391.601 418.953C393.061 420.414 393.882 422.395 393.882 424.461V457.037C393.883 479.294 375.775 497.402 353.517 497.402ZM328.73 432.25V457.037C328.73 470.705 339.85 481.824 353.517 481.824C367.184 481.824 378.304 470.704 378.304 457.037V432.25H328.73Z" fill="#BD80E1"/>
<path d="M200.478 194.771H184.505C172.61 194.771 162.966 185.127 162.966 173.232V154.791C162.966 142.896 172.61 133.252 184.505 133.252H200.478L210.57 161.282L200.478 194.771Z" fill="#FFE5C2"/>
<path d="M184.504 133.251C182.583 133.251 180.729 133.527 178.956 133.999V194.023C180.729 194.495 182.583 194.77 184.504 194.77H200.477L210.569 161.28L200.477 133.25H184.504V133.251Z" fill="#FED2A4"/>
<path d="M404.014 194.771H419.987C431.882 194.771 441.526 185.127 441.526 173.232V154.791C441.526 142.896 431.882 133.252 419.987 133.252H404.014L396.933 165.678L404.014 194.771Z" fill="#FFE5C2"/>
<path d="M419.988 133.252H404.015V134C413.218 136.451 420.007 144.817 420.007 154.791V173.232C420.007 183.206 413.218 191.573 404.015 194.024V194.771H419.988C431.883 194.771 441.527 185.127 441.527 173.232V154.791C441.527 142.895 431.883 133.252 419.988 133.252Z" fill="#FED2A4"/>
<path d="M404.015 103.469V210.471C404.015 245.667 375.476 274.206 340.28 274.206H264.217C229.01 274.206 200.481 245.667 200.481 210.471V103.469L302.248 91.5986L386.318 101.403L404.015 103.469Z" fill="#FFE5C2"/>
<path d="M404.015 103.469V210.47C404.015 245.667 375.476 274.206 340.279 274.206H318.761C353.957 274.206 382.496 245.667 382.496 210.47V103.469L386.318 101.402L404.015 103.469Z" fill="#FED2A4"/>
<path d="M404.014 103.465V72.8704C404.014 40.6879 377.925 14.5986 345.742 14.5986H207.59C187.362 14.5986 170.964 30.9962 170.964 51.224V57.7294C170.964 67.1044 174.559 76.1221 181.008 82.9256L200.478 103.465H404.014Z" fill="#838383"/>
<path d="M345.742 14.5977H324.22C356.403 14.5977 382.492 40.687 382.492 72.8694V103.464H404.013V72.8705C404.014 40.687 377.925 14.5977 345.742 14.5977Z" fill="#6D6D6D"/>
<path d="M302.246 192.41C300.18 192.41 298.199 191.589 296.738 190.129C295.278 188.668 294.457 186.687 294.457 184.621V160.851C294.457 156.549 297.943 153.062 302.246 153.062C306.549 153.062 310.035 156.549 310.035 160.851V184.621C310.035 186.687 309.214 188.668 307.754 190.129C306.293 191.589 304.312 192.41 302.246 192.41ZM302.246 233.026C293.003 233.026 284.374 229.366 277.948 222.717C276.513 221.231 275.726 219.236 275.762 217.171C275.797 215.105 276.652 213.138 278.137 211.703C279.623 210.267 281.618 209.481 283.683 209.516C285.748 209.551 287.715 210.406 289.151 211.891C292.613 215.474 297.264 217.448 302.245 217.448C307.226 217.448 311.875 215.475 315.338 211.891C316.049 211.155 316.897 210.567 317.836 210.159C318.774 209.752 319.783 209.533 320.806 209.516C321.829 209.498 322.845 209.682 323.796 210.058C324.748 210.433 325.616 210.992 326.352 211.703C327.837 213.138 328.692 215.105 328.727 217.171C328.763 219.236 327.976 221.231 326.541 222.717C320.117 229.365 311.489 233.026 302.246 233.026Z" fill="#FED2A4"/>
</g>
</g>
<defs>
<clipPath id="clip0_170_7148">
<rect width="512" height="512" fill="white"/>
</clipPath>
<clipPath id="clip1_170_7148">
<rect width="512" height="512" fill="white"/>
</clipPath>
</defs>
</svg>
