<svg width="512" height="512" viewBox="0 0 512 512" fill="none" xmlns="http://www.w3.org/2000/svg">
<g clip-path="url(#clip0_170_6020)">
<g clip-path="url(#clip1_170_6020)">
<path d="M72.567 434.573C27.661 388.452 0 325.457 0 256C0 114.615 114.615 0 256 0C397.385 0 512 114.615 512 256C512 325.457 484.339 388.452 439.433 434.573H72.567Z" fill="#FFCE00"/>
<path d="M511.992 258.052L457.103 203.163L448.554 216.196L331.598 99.2412L145.209 247.722L200.708 303.199L193.61 308.582L319.6 434.572H439.432C483.897 388.907 511.453 326.697 511.992 258.052Z" fill="#FFA300"/>
<path d="M256 358.425L210.257 348.651C207.016 351.742 203.126 354.07 198.872 355.468L150.906 371.181L140.274 374.664C118.236 381.883 99.1662 396.115 85.9749 415.187L72.5669 434.572C94.8559 457.464 121.393 476.198 150.906 489.501C182.97 503.956 218.545 512 256 512C256.401 512 256.799 511.986 257.199 511.984V358.169L256 358.425Z" fill="white"/>
<path d="M422.997 450.036C428.699 445.125 434.182 439.965 439.432 434.573L426.024 415.188C412.832 396.116 393.762 381.885 371.725 374.665L361.093 371.182L313.127 355.469C308.872 354.072 304.983 351.743 301.742 348.652L256 358.399V511.998C293.531 511.98 329.064 503.94 361.094 489.502C363.981 488.201 366.843 486.846 369.679 485.438L422.997 450.036Z" fill="#E9EDF5"/>
<path d="M292.317 326.752V287.402H219.683V326.752C219.683 335.23 216.132 343.069 210.257 348.651C234.912 375.342 277.087 375.342 301.742 348.651C295.868 343.07 292.317 335.23 292.317 326.752Z" fill="#E09380"/>
<path d="M292.317 326.752V287.402H256V368.666C272.788 368.634 289.445 361.964 301.743 348.651C295.868 343.07 292.317 335.23 292.317 326.752Z" fill="#D47F6C"/>
<path d="M256 368.67L226.074 404.25L198.872 355.469L210.257 348.652L256 368.67Z" fill="#E9EDF5"/>
<path d="M256 368.67L285.926 404.25L313.128 355.469L301.743 348.652L256 368.67Z" fill="#CDD2E1"/>
<path d="M256 408.79C262.196 408.79 267.219 403.767 267.219 397.571C267.219 391.375 262.196 386.352 256 386.352C249.804 386.352 244.781 391.375 244.781 397.571C244.781 403.767 249.804 408.79 256 408.79Z" fill="#E9EDF5"/>
<path d="M267.219 397.571C267.219 391.416 262.261 386.424 256.001 386.358V408.783C262.26 408.718 267.219 403.726 267.219 397.571Z" fill="#CDD2E1"/>
<path d="M256 449.84C262.196 449.84 267.219 444.817 267.219 438.621C267.219 432.425 262.196 427.402 256 427.402C249.804 427.402 244.781 432.425 244.781 438.621C244.781 444.817 249.804 449.84 256 449.84Z" fill="#E9EDF5"/>
<path d="M267.219 438.621C267.219 432.465 262.261 427.474 256.001 427.408V449.833C262.26 449.768 267.219 444.776 267.219 438.621Z" fill="#CDD2E1"/>
<path d="M386.338 199.524H406.338V389.662H386.338V199.524ZM424.394 203.904H444.394V378.52H424.394V203.904ZM348.283 203.904H368.283V378.52H348.283V203.904Z" fill="white"/>
<path d="M318.868 298.583H473.808V318.583H318.868V298.583ZM331.598 223.075H461.08V243.075H331.598V223.075ZM327.947 336.638H470.24V356.638H327.947V336.638ZM327.947 260.527H470.24V280.527H327.947V260.527Z" fill="white"/>
<path d="M396.482 199.525H406.338V389.662H396.482V199.525ZM424.394 203.904H444.394V378.52H424.394V203.904Z" fill="#E9EDF5"/>
<path d="M396.482 298.583H473.809V318.583H396.482V298.583ZM396.482 223.075H461.08V243.075H396.482V223.075ZM396.482 336.638H470.24V356.638H396.482V336.638ZM396.482 260.528H470.24V280.528H396.482V260.528Z" fill="#E9EDF5"/>
<path d="M390.78 440.415L430.65 361.907L457.41 375.497L417.54 454.005L390.78 440.415Z" fill="#7584F2"/>
<path d="M462.968 210.085C445.431 187.493 421.768 175.05 396.338 175.05C370.908 175.05 347.246 187.492 329.709 210.085C313.045 231.554 303.868 259.883 303.868 289.856C303.868 319.829 313.045 348.159 329.709 369.627C331.928 372.489 334.291 375.236 336.791 377.857L380.35 463.671L407.102 450.092L383.496 403.586C387.739 404.303 392.035 404.663 396.338 404.662C421.768 404.662 445.431 392.22 462.968 369.627C479.631 348.159 488.809 319.829 488.809 289.856C488.809 259.883 479.631 231.554 462.968 210.085ZM439.269 351.232C427.541 366.341 412.295 374.662 396.338 374.662C380.382 374.662 365.136 366.341 353.408 351.232C340.807 334.999 333.868 313.202 333.868 289.856C333.868 266.511 340.807 244.713 353.408 228.48C365.136 213.371 380.382 205.05 396.338 205.05C412.295 205.05 427.541 213.371 439.269 228.48C451.87 244.713 458.809 266.51 458.809 289.855C458.809 313.2 451.869 334.999 439.269 351.232Z" fill="#7584F2"/>
<path d="M369.679 485.437C388.861 475.91 406.773 464.017 422.997 450.035V445.648H369.679V485.437Z" fill="#414952"/>
<path d="M462.967 210.085C445.463 187.535 421.857 175.099 396.482 175.052V205.055C412.386 205.105 427.576 213.417 439.269 228.48C451.869 244.713 458.809 266.511 458.809 289.856C458.809 313.201 451.869 334.999 439.269 351.232C427.576 366.296 412.386 374.607 396.482 374.657V404.659C400.738 404.653 404.986 404.294 409.182 403.586L396.482 428.605V455.482L407.101 450.092L406.206 448.328L417.265 453.942L455.884 377.859C458.384 375.238 460.748 372.49 462.968 369.628C479.632 348.159 488.809 319.83 488.809 289.857C488.809 259.883 479.631 231.554 462.967 210.085Z" fill="#606AEA"/>
<path d="M422.997 445.648H396.482V470.025C405.742 463.941 414.599 457.263 422.997 450.035V445.648Z" fill="#23272B"/>
<path d="M167.059 256C185.271 256 200.034 241.236 200.034 223.025C200.034 204.813 185.271 190.05 167.059 190.05C148.847 190.05 134.084 204.813 134.084 223.025C134.084 241.236 148.847 256 167.059 256Z" fill="#E09380"/>
<path d="M344.941 256C363.153 256 377.916 241.236 377.916 223.025C377.916 204.813 363.153 190.05 344.941 190.05C326.729 190.05 311.966 204.813 311.966 223.025C311.966 241.236 326.729 256 344.941 256Z" fill="#D47F6C"/>
<path d="M256 332.337C204.18 332.337 162.172 290.329 162.172 238.509V180.543C162.172 128.723 204.18 86.7148 256 86.7148C307.82 86.7148 349.828 128.723 349.828 180.543V238.509C349.828 290.328 307.82 332.337 256 332.337Z" fill="#FAA68E"/>
<path d="M256.121 86.7168V332.335C307.885 332.27 349.828 290.288 349.828 238.509V180.543C349.828 128.764 307.885 86.7818 256.121 86.7168Z" fill="#E09380"/>
<path d="M359.61 177.715C359.61 114.334 313.222 62.9551 256 62.9551C198.778 62.9551 152.39 114.335 152.39 177.715V227.06L306.361 179.004L359.611 227.06V177.715H359.61Z" fill="#636978"/>
<path d="M256.121 62.957V194.685L306.361 179.005L359.611 227.061V177.716C359.61 114.379 313.287 63.029 256.121 62.957Z" fill="#414952"/>
<path d="M152.124 130.139H359.875V178.005H152.124V130.139Z" fill="white"/>
<path d="M256.121 130.139H359.876V178.005H256.121V130.139Z" fill="#E9EDF5"/>
</g>
</g>
<defs>
<clipPath id="clip0_170_6020">
<rect width="512" height="512" fill="white"/>
</clipPath>
<clipPath id="clip1_170_6020">
<rect width="512" height="512" fill="white"/>
</clipPath>
</defs>
</svg>
