<svg width="512" height="512" viewBox="0 0 512 512" fill="none" xmlns="http://www.w3.org/2000/svg">
<g clip-path="url(#clip0_169_1843)">
<path d="M208 48L200 64L208 72L216 88H232V120L264 96L256 72L240 40L208 48ZM184 104L208 112V128L232 136V168L168 136L184 104Z" fill="#FDC5CA"/>
<path d="M24 424H440V456H24V424Z" fill="#68737F"/>
<path d="M144 248L81.6001 456H49.6001L112 248H144Z" fill="#3E454D"/>
<path d="M463.985 488H175.985V456H451.985C453.227 456 454.452 456.289 455.563 456.845C456.673 457.4 457.64 458.206 458.385 459.2L470.385 475.2C471.276 476.389 471.819 477.802 471.953 479.282C472.086 480.761 471.805 482.249 471.14 483.578C470.476 484.907 469.455 486.024 468.191 486.805C466.927 487.586 465.471 488 463.985 488Z" fill="#4F5761"/>
<path d="M336 488H40L47.5 456H324C325.242 456 326.467 456.289 327.578 456.845C328.689 457.4 329.655 458.206 330.4 459.2L342.4 475.2C343.291 476.389 343.834 477.802 343.968 479.282C344.101 480.761 343.82 482.249 343.155 483.578C342.491 484.907 341.47 486.024 340.206 486.805C338.942 487.586 337.486 488 336 488Z" fill="#3E454D"/>
<path d="M192 488H72V456H180C181.242 456 182.467 456.289 183.578 456.845C184.689 457.4 185.655 458.206 186.4 459.2L198.4 475.2C199.291 476.389 199.834 477.802 199.968 479.282C200.101 480.761 199.82 482.249 199.155 483.578C198.491 484.907 197.47 486.024 196.206 486.805C194.942 487.586 193.486 488 192 488Z" fill="#4F5761"/>
<path d="M112 248L40 176L72 144L144 216V248H112Z" fill="#68737F"/>
<path d="M144 216H192C196.243 216 200.313 217.686 203.314 220.686C206.314 223.687 208 227.757 208 232C208 236.243 206.314 240.313 203.314 243.314C200.313 246.314 196.243 248 192 248H144V216Z" fill="#4F5761"/>
<path d="M89.9499 456L80.3499 488H31.6499L41.2499 456H89.9499ZM440 464H480L488 416H440V464Z" fill="#8F9EB0"/>
<path d="M224 392L215.17 409.67L208 424L152 392C152.477 391.049 153.005 390.125 153.58 389.23C156.207 385.172 159.807 381.835 164.053 379.525C168.299 377.214 173.056 376.002 177.89 376H200L224 392ZM416 320V384C411.276 384.001 406.661 382.585 402.75 379.936C398.839 377.288 395.812 373.527 394.06 369.14L384 344V320H416Z" fill="#529DDF"/>
<path d="M304 200C303.999 225.609 293.826 250.169 275.72 268.28L268.8 275.2L240 304L248 328L224 392L200 376L206.94 299.63C207.641 291.918 209.46 284.349 212.34 277.16L217.21 264.97L240 208L304 200Z" fill="#FDC5CA"/>
<path d="M384 320V344L303.4 323.85C298.615 322.652 294.171 320.364 290.415 317.165C286.66 313.967 283.694 309.944 281.75 305.41L276.71 293.65L268.8 275.2L240 208L304 200C314.515 221.048 319.992 244.252 320 267.78V288H344L384 320Z" fill="#FDC5CA"/>
<path d="M320 267.78V272L276.71 293.65L275.59 291.04L268.8 275.2L251.56 292.44L217.21 264.97L240 208L304 200C314.514 221.048 319.992 244.252 320 267.78Z" fill="#529DDF"/>
<path d="M301.35 262.06C297.175 268.371 292.378 274.247 287.03 279.6L275.59 291.04L268.8 275.2L275.72 268.28C280.307 263.691 284.421 258.652 288 253.24L301.35 262.06Z" fill="#317ECE"/>
<path d="M217.21 131.07L223 148.929L210.133 157.067L232 168V136L217.21 131.07Z" fill="#FC979E"/>
<path d="M227.888 116.562C229.106 110.473 232.099 104.88 236.49 100.489C240.88 96.0986 246.473 93.1056 252.562 91.8877L260.975 90.2047C264.276 89.5447 267.696 89.832 270.841 91.0335C273.985 92.235 276.726 94.3017 278.746 96.9947L283.894 103.858C291.814 114.418 296.694 126.942 298.008 140.077L304 200L240 208L228.3 155.35C225.465 142.59 225.324 129.379 227.888 116.562Z" fill="#E04446"/>
<path d="M264.419 91.8951C259.729 93.0676 255.566 95.7742 252.591 99.5847C249.616 103.395 248 108.091 248 112.925V112.979C248 117.391 249.347 121.699 251.86 125.325C254.373 128.952 257.934 131.725 262.065 133.274L269.333 136L288 152C277.478 152 267.101 154.45 257.69 159.155L256 160L240 152L216 160L224 192L306.554 172.95C309.014 172.383 311.304 171.241 313.238 169.619C315.172 167.997 316.695 165.94 317.682 163.617C318.67 161.293 319.093 158.769 318.918 156.251C318.743 153.733 317.975 151.292 316.676 149.127L288.263 101.772C285.872 97.7875 282.264 94.6765 277.971 92.8982C273.678 91.1198 268.927 90.7682 264.419 91.8951Z" fill="#FDC5CA"/>
<path d="M256 72L232 48H208C201.635 48 195.53 45.4714 191.029 40.9706C186.529 36.4697 184 30.3652 184 24H248L256 72Z" fill="#BA8B5D"/>
<path d="M215.17 409.67L208 424L152 392L153.58 389.23C156.027 385.436 159.333 382.27 163.23 379.99L215.17 409.67ZM416 320V384C410.073 383.999 404.363 381.772 400 377.76V320H416Z" fill="#D4E4F0"/>
</g>
<defs>
<clipPath id="clip0_169_1843">
<rect width="512" height="512" fill="white"/>
</clipPath>
</defs>
</svg>
