<svg width="512" height="512" viewBox="0 0 512 512" fill="none" xmlns="http://www.w3.org/2000/svg">
<g clip-path="url(#clip0_169_1044)">
<path d="M231.696 147.293L159.886 257.764L123.986 312.984L117.966 309.764L82.7061 290.893L83.9061 288.744L116.886 229.293L163.386 145.473L142.097 57.6327L132.479 24.4327L184.866 24.4307L217.736 71.0127L227.926 126.704L231.696 147.293Z" fill="#FAC1AC"/>
<path d="M227.926 126.704L132.479 24.4327L176.866 24.4307L217.736 71.0127L227.926 126.704Z" fill="#FB9D6E"/>
<path d="M159.886 257.764L154.886 265.463L123.986 312.984L117.966 309.764L83.906 288.744L112.416 237.343L116.886 229.293L159.886 257.764Z" fill="#549080"/>
<path d="M154.886 265.463L123.986 312.984L117.966 309.764L83.906 288.744L112.416 237.343L154.886 265.463Z" fill="#195240"/>
<path d="M100.774 367.357C97.3653 349.823 90.5647 333.123 80.7541 318.195L78.8401 315.291C71.4117 303.983 66.1519 291.392 63.3291 278.16L44.7871 292.39L37.5891 297.911C32.6311 301.268 31.2681 307.975 34.5151 313.013L63.0951 350.468L97.3901 395.42L103.177 399.168V399.166C103.617 388.506 102.81 377.83 100.774 367.357Z" fill="#DB5E3B"/>
<path d="M62.959 346.93L63.096 350.469L34.516 313.014C31.269 307.977 32.632 301.27 37.59 297.912L44.788 292.391L44.835 292.401L45.1 292.786C56.0483 308.784 62.2404 327.557 62.959 346.93Z" fill="#FB9D6E"/>
<path d="M173.876 419.123C173.876 419.103 173.876 419.074 173.866 419.053L173.696 414.094C173.696 412.274 173.706 410.494 173.626 408.783C173.256 399.763 170.727 392.773 153.756 392.773L142.437 362.314L137.957 298.914C137.617 294.184 133.877 290.793 129.607 290.404C127.985 290.246 126.351 290.528 124.877 291.222L124.617 291.343L121.237 292.923C119.837 293.583 118.386 294.042 116.926 294.323C116.046 294.503 115.166 294.602 114.286 294.641C111.05 294.793 107.831 294.093 104.951 292.61C102.071 291.127 99.6314 288.914 97.8759 286.192C96.1959 283.573 95.0759 280.983 94.5859 278.442C93.5059 272.881 95.3759 267.532 100.676 262.602C100.945 262.364 101.16 262.071 101.308 261.743C101.456 261.416 101.532 261.061 101.532 260.701C101.532 260.342 101.456 259.987 101.308 259.659C101.16 259.331 100.945 259.039 100.676 258.801L95.8259 254.532C95.5759 254.312 95.2859 254.152 94.9759 254.042C94.5802 253.905 94.1567 253.868 93.7433 253.934C93.3298 254.001 92.9391 254.168 92.6059 254.422L76.6159 266.692L63.0959 277.073C63.1649 277.432 63.2549 277.792 63.3249 278.163C66.1535 291.394 71.4165 303.984 78.8459 315.292L80.7549 318.192C90.5646 333.119 97.3655 349.818 100.776 367.352C102.796 377.772 103.616 388.442 103.175 399.163V399.173L103.295 400.314L134.316 420.414C135.598 421.238 136.965 421.922 138.394 422.453H172.961C173.348 421.999 173.631 421.465 173.789 420.89C173.947 420.314 173.977 419.711 173.876 419.123Z" fill="#FCE48C"/>
<path d="M112.339 304.944C111.687 305.018 111.055 305.221 110.481 305.539C109.906 305.857 109.4 306.286 108.991 306.8C108.583 307.314 108.279 307.903 108.098 308.535C107.917 309.166 107.863 309.827 107.937 310.479L114.087 364.375L127.325 392.383C127.606 392.977 128 393.51 128.487 393.951C128.973 394.392 129.541 394.733 130.16 394.954C130.778 395.176 131.433 395.273 132.089 395.242C132.745 395.21 133.388 395.049 133.982 394.768H133.983C134.577 394.488 135.109 394.093 135.55 393.606C135.991 393.12 136.332 392.551 136.554 391.933C136.775 391.315 136.872 390.659 136.84 390.003C136.808 389.347 136.647 388.704 136.366 388.11L123.835 361.599L117.872 309.345C117.722 308.028 117.054 306.824 116.017 305.999C114.979 305.174 113.656 304.794 112.339 304.944Z" fill="#EA9807"/>
<path d="M321.496 68.5336L292.576 216.933L284.496 258.414L235.477 255.784L239.416 210.043L249.406 94.2526L142.386 24.4326H262.986L321.496 68.5336Z" fill="#FAC1AC"/>
<path d="M292.576 216.933L291.076 224.643L281.347 274.584L235.477 255.784L238.746 217.853L239.416 210.043L292.576 216.933Z" fill="#549080"/>
<path d="M291.076 224.643L281.347 274.584L235.477 255.784L238.746 217.853L291.076 224.643Z" fill="#195240"/>
<path d="M306.339 320.561C292.901 308.792 277.294 299.761 260.394 293.975L257.104 292.854C244.305 288.468 232.433 281.74 222.094 273.014L216.159 295.619L213.854 304.394C211.993 310.085 215.024 316.22 220.677 318.212L266.213 330.3L320.858 344.812L327.729 344.228L327.727 344.226C321.543 335.532 314.365 327.59 306.339 320.561Z" fill="#DB5E3B"/>
<path d="M363.781 308.184L336.177 291.051L293.786 243.684C290.623 240.156 285.589 239.767 281.967 242.077C280.593 242.951 279.478 244.177 278.738 245.628L278.609 245.879L276.904 249.204C275.805 251.348 274.296 253.256 272.461 254.818C269.998 256.921 267.026 258.34 263.842 258.932C260.658 259.524 257.374 259.269 254.32 258.193C251.383 257.158 248.919 255.792 246.968 254.084C242.706 250.353 240.906 244.981 242.076 237.833C242.143 237.48 242.134 237.117 242.049 236.767C241.965 236.418 241.808 236.091 241.587 235.807C241.367 235.523 241.088 235.29 240.771 235.122C240.453 234.954 240.104 234.855 239.745 234.833L233.299 234.427C232.969 234.408 232.639 234.455 232.328 234.564C231.931 234.697 231.574 234.927 231.287 235.232C231.001 235.538 230.795 235.909 230.688 236.314L221.241 272.295C221.522 272.539 221.81 272.774 222.094 273.014C232.433 281.74 244.305 288.468 257.104 292.854L260.394 293.975C277.294 299.762 292.901 308.792 306.339 320.561C314.318 327.549 327.73 344.229 327.73 344.229H396.581V335.499C396.581 320.186 384.162 307.745 368.848 307.772C366.026 307.777 364.073 307.893 363.781 308.184Z" fill="#FCE48C"/>
<path d="M263.937 327.588L266.214 330.301L220.678 318.213C215.025 316.221 211.993 310.086 213.855 304.395L216.16 295.62L216.203 295.6L216.648 295.743C235.103 301.677 251.499 312.718 263.937 327.588Z" fill="#FB9D6E"/>
<path d="M276.752 264.024C276.296 264.497 275.938 265.054 275.697 265.665C275.457 266.276 275.339 266.928 275.351 267.585C275.363 268.241 275.503 268.888 275.765 269.49C276.027 270.092 276.406 270.637 276.878 271.092L315.318 308.186L315.913 308.762L343.947 321.948C345.147 322.513 346.522 322.577 347.769 322.128C348.387 321.906 348.955 321.564 349.44 321.122C349.926 320.68 350.32 320.146 350.599 319.552C350.878 318.958 351.038 318.315 351.069 317.659C351.1 317.003 351.001 316.348 350.779 315.73C350.556 315.112 350.214 314.545 349.772 314.059C349.33 313.574 348.797 313.18 348.203 312.9L321.666 300.418L283.82 263.898C283.348 263.442 282.79 263.084 282.179 262.843C281.568 262.603 280.916 262.485 280.26 262.497C279.603 262.509 278.956 262.65 278.354 262.912C277.752 263.174 277.208 263.552 276.752 264.024Z" fill="#EA9807"/>
<path d="M416.033 250.66V344.188H233.601V422.453H51.167V487.568H233.601V486.939H416.033V487.568H479.247V250.66H416.033Z" fill="#A6E0F6"/>
<path d="M51.167 465.407H479.247V486.938H51.167V465.407Z" fill="#2E426A"/>
<path d="M51.167 465.407H479.247V470.79H51.167V465.407Z" fill="white"/>
<path d="M416.033 250.812H479.247V272.344H416.033V250.812Z" fill="#3196CA"/>
<path d="M323.558 383.906C322.751 382.854 321.56 382.165 320.245 381.991C318.931 381.817 317.601 382.172 316.548 382.978L259.152 426.962C258.123 427.777 257.456 428.964 257.294 430.266C257.132 431.569 257.489 432.883 258.287 433.924C259.086 434.966 260.261 435.653 261.561 435.835C262.861 436.018 264.181 435.682 265.235 434.9L322.631 390.916C323.683 390.109 324.372 388.917 324.546 387.603C324.72 386.288 324.364 384.959 323.558 383.906ZM396.407 388.088C395.6 387.036 394.409 386.347 393.094 386.173C391.78 385.999 390.45 386.354 389.397 387.16L342.915 422.781C342.394 423.18 341.956 423.678 341.628 424.247C341.299 424.815 341.085 425.443 340.999 426.094C340.913 426.745 340.956 427.406 341.125 428.041C341.295 428.675 341.588 429.27 341.987 429.791C342.794 430.843 343.985 431.532 345.3 431.706C346.614 431.88 347.944 431.525 348.997 430.719L395.479 395.098C396 394.699 396.438 394.201 396.767 393.632C397.096 393.064 397.309 392.436 397.395 391.785C397.481 391.134 397.439 390.473 397.269 389.838C397.099 389.204 396.807 388.609 396.407 388.088ZM313.248 429.27L329.201 417.045C329.722 416.646 330.16 416.148 330.488 415.579C330.817 415.011 331.031 414.383 331.117 413.732C331.203 413.081 331.16 412.42 330.991 411.785C330.821 411.151 330.528 410.556 330.129 410.035C329.322 408.983 328.131 408.294 326.816 408.12C325.502 407.946 324.172 408.301 323.119 409.107L307.166 421.332C306.645 421.731 306.207 422.229 305.879 422.798C305.55 423.366 305.336 423.994 305.25 424.645C305.164 425.296 305.207 425.957 305.376 426.592C305.546 427.226 305.839 427.821 306.238 428.342C307.045 429.394 308.236 430.083 309.551 430.257C310.865 430.431 312.195 430.076 313.248 429.27Z" fill="#5CB4E2"/>
<path d="M172.962 422.453H51.167V443.984H233.601V422.453H172.962ZM233.601 344.188H416.034V365.719H233.601V344.188Z" fill="#3196CA"/>
</g>
<defs>
<clipPath id="clip0_169_1044">
<rect width="512" height="512" fill="white"/>
</clipPath>
</defs>
</svg>
