<svg width="512" height="512" viewBox="0 0 512 512" fill="none" xmlns="http://www.w3.org/2000/svg">
<g clip-path="url(#clip0_170_5456)">
<path d="M127.436 362.064L104.788 373.7C93.8376 379.326 83.9442 386.806 75.546 395.808L38.128 435.914L31.316 441.364L16.014 453.606C14.984 454.43 13.718 455.216 12.812 456.164C9.26405 459.872 9.86405 465.294 10.646 469.91C11.05 472.294 11.356 476.808 13.732 478.178C15.734 479.332 36.528 477.718 38.134 475.93C39.278 474.658 39.664 472.884 39.854 471.182C40.456 465.788 42.82 453.514 43.194 452.798L103.778 413.572C111.482 408.584 119.605 404.273 128.054 400.688L162.636 386.016L138.166 357.294L127.436 362.064Z" fill="#F5D3A6"/>
<path d="M138.166 357.296L127.436 362.066L104.788 373.702C95.4926 378.483 86.9506 384.606 79.436 391.872C82.544 392.382 88.084 391.476 97.784 387.714C121.06 378.688 135.184 366.412 140.986 360.608L138.166 357.296Z" fill="#F0C792"/>
<path d="M209.898 174.784L196.392 196.732L174.444 262.574L152.496 292.962L122.108 341.922L85.3602 373.878C84.5068 374.621 83.9468 375.644 83.7811 376.763C83.6153 377.882 83.8546 379.024 84.456 379.982C85.0574 380.941 85.9813 381.653 87.0612 381.991C88.1411 382.328 89.3061 382.269 90.3462 381.824L108.602 374L105.608 379.24C104.4 381.354 106.574 383.792 108.812 382.834C111.991 381.471 114.749 379.285 116.8 376.5L137.302 348.676L179.508 299.716L208.078 253.104C210.414 249.294 212.467 245.318 214.222 241.208L235.306 194.522L209.898 174.784ZM39.7142 39.4217L70.1262 44.7117L65.4642 48.5957C62.9942 50.6537 63.6202 54.6017 66.6042 55.7957C67.1783 56.0254 67.7955 56.1268 68.4129 56.0929C69.0302 56.0591 69.6327 55.8907 70.1782 55.5997L93.7602 43.0217L135.848 52.7337C137.052 53.0117 138.266 53.2337 139.49 53.4017L174.796 58.2157L241.974 108.942L297.948 119.342C290.636 111.635 282.859 104.383 274.66 97.6277C254.334 80.8877 233.616 57.1317 209.192 47.2917C200.712 43.8757 192.116 40.5257 184.926 37.9577C161.29 29.5157 93.7602 29.5157 93.7602 29.5157L40.6702 26.0117C38.9993 26.0653 37.4076 26.7363 36.2026 27.8951C34.9976 29.0539 34.2649 30.6182 34.146 32.2857C34.0271 33.9532 34.5306 35.6056 35.559 36.9236C36.5874 38.2416 38.0678 39.1316 39.7142 39.4217Z" fill="#F5D3A6"/>
<path d="M239.546 149.243L240.952 147.189C247.13 138.159 244.654 125.673 235.69 119.397L221.536 121.563L210.928 144.729L214.962 156.211C219.228 158.108 224.024 158.45 228.515 157.177C233.007 155.904 236.91 153.097 239.546 149.243Z" fill="#F0C792"/>
<path d="M304.472 249.45C334.542 247.012 356.094 242.886 370.556 239.17L352.18 208.834C342.698 214.296 325.538 223.48 310.632 227.684C296.326 231.718 273.34 231.478 259.062 230.82C259.306 231.838 259.534 232.862 259.708 233.9C260.599 239.321 260.496 244.86 259.402 250.244C268.366 251.144 282.426 251.238 304.472 249.45Z" fill="#F5D3A6"/>
<path d="M310.63 227.683C325.538 223.479 342.698 214.295 352.178 208.833C352.178 208.833 327.606 140.857 297.974 119.347C286.45 110.981 241.974 108.943 241.974 108.943L235.688 119.401C244.652 125.675 247.128 138.161 240.95 147.193L239.544 149.247C236.908 153.1 233.005 155.907 228.513 157.181C224.022 158.454 219.226 158.113 214.96 156.217L209.896 174.787L245.86 208.181C252.398 214.261 256.99 222.139 259.06 230.823C273.338 231.477 296.324 231.717 310.63 227.683Z" fill="#7F8B4B"/>
<path d="M495.638 470.22L460.626 458.508L470.932 357.158C453.49 365.498 435.59 363.066 427.552 361.264L435.722 459.982L433.986 465.59C433.274 467.892 433.111 470.328 433.513 472.704C433.914 475.079 434.868 477.327 436.298 479.266C437.728 481.206 439.593 482.782 441.743 483.868C443.894 484.954 446.269 485.52 448.678 485.52H493.148C495.013 485.521 496.817 484.859 498.237 483.651C499.658 482.443 500.603 480.77 500.902 478.93C501.202 477.089 500.836 475.202 499.872 473.607C498.908 472.011 497.407 470.811 495.638 470.22Z" fill="#F5D3A6"/>
<path d="M470.932 357.158L474.206 324.958C474.323 323.876 474.223 322.782 473.911 321.74C473.6 320.698 473.083 319.728 472.392 318.888C461.894 306.138 448.56 296.018 433.456 289.336L389.038 269.684L370.556 239.172C356.094 242.888 334.542 247.014 304.472 249.452C282.426 251.24 268.368 251.146 259.4 250.248C258.545 254.571 257.062 258.745 254.998 262.638C254.998 262.638 245.572 276.546 239.53 280.666L222.81 292.066C215.337 297.162 208.223 302.766 201.52 308.84L157.562 348.678L138.166 357.298L162.636 386.02L171.068 382.442L222.862 360.762C236.685 354.976 249.802 347.629 261.958 338.866L306.538 306.726C327.382 314.992 386.632 337.564 426.068 343.33L427.552 361.264C435.588 363.066 453.49 365.498 470.932 357.158Z" fill="#514654"/>
<path d="M137.866 137.394L162.198 159.922C160.58 166.21 154.906 170.83 148.186 172.62C143.427 173.887 138.359 173.213 134.097 170.744C129.835 168.275 126.728 164.215 125.46 159.456C122.938 149.992 128.752 140.546 137.866 137.394Z" fill="#704C0F"/>
<path d="M146.198 165.074L146.264 165.056C148.954 164.33 149.548 160.772 147.348 159.062C141.484 154.502 136.758 148.594 134.526 142.294C134.2 141.357 133.915 140.407 133.67 139.446C134.982 138.599 136.39 137.91 137.864 137.394L162.196 159.922C162.019 160.587 161.793 161.238 161.52 161.87C161.269 162.459 160.982 163.032 160.658 163.586C160.228 164.342 159.739 165.062 159.194 165.74L159.184 165.752C156.526 169.034 152.596 171.442 148.19 172.618C141.614 174.372 134.55 172.102 129.88 167.15C126.336 163.394 125.032 159.426 124.892 155.592C128.79 163.218 137.59 167.368 146.198 165.074Z" fill="#5E400D"/>
<path d="M166.564 86.6055C175.618 86.8515 185.068 90.5355 185.068 90.5355L198.656 86.8775L202.292 95.9995C202.292 95.9995 212.982 98.6595 217.186 102.333C221.982 106.523 224.508 116.285 225.52 122.213C226.34 127.027 225.388 131.537 223.47 135.749C220.988 141.203 216.89 146.159 212.936 150.629C208.722 155.391 201.634 157.511 195.718 159.125C193.79 159.651 191.8 160.117 189.778 160.525C179.85 150.343 166.564 86.6075 166.564 86.6055Z" fill="#F5D3A6"/>
<path d="M141.984 99.8977C146.008 93.1897 154.918 87.5197 162.736 86.7317C164.008 86.6091 165.287 86.567 166.564 86.6057C166.564 86.6057 179.85 150.342 189.778 160.526C184.302 161.628 178.586 162.252 173.174 162.146C158.76 161.862 142.328 150.05 137.512 136.454C133.342 124.684 135.696 110.382 141.984 99.8977Z" fill="#704C0F"/>
<path d="M147.12 114.555C152.74 106.715 161.924 102.413 169.566 100.065L170.07 102.215C162.766 104.487 154.068 108.575 148.878 115.815C144.018 122.593 140.874 131.801 138.904 139.661C138.376 138.621 137.911 137.549 137.512 136.451L137.494 136.393C139.532 129.023 142.596 120.867 147.12 114.555ZM164.932 140.485C169.688 137.689 173.78 133.549 177.104 129.369C177.352 130.227 177.602 131.075 177.854 131.925C174.576 135.847 170.618 139.653 166.032 142.351C160.246 145.753 153.71 148.847 148.05 151.305C147.46 150.781 146.886 150.245 146.326 149.695C152.106 147.211 158.936 144.009 164.932 140.485ZM151.262 153.919C157.236 153.719 164.17 153.103 169.824 151.527C174.374 150.259 178.528 147.599 181.982 144.731C182.248 145.473 182.512 146.191 182.778 146.901C179.254 149.731 175.058 152.317 170.404 153.613C165.428 154.999 159.598 155.669 154.24 155.969C153.221 155.325 152.228 154.641 151.262 153.919Z" fill="#5E400D"/>
<path d="M257.826 226.658C267.552 224.428 282.402 223.352 299.044 219.942C328.61 213.884 307.74 203.392 281.038 208.834C254.336 214.276 246.87 197.306 232.956 184.262C223.546 175.44 222.494 164.25 222.796 157.918C220.096 157.888 217.43 157.308 214.962 156.214L209.898 174.784L245.862 208.178C251.313 213.257 255.423 219.606 257.826 226.658Z" fill="#727D43"/>
<path d="M347.74 259.913C335.566 267.739 389.038 269.683 389.038 269.683L383.724 260.911C367.944 258.099 352.854 256.625 347.74 259.913ZM321.652 306.723L326 292.955L306.536 306.723C321.812 312.781 357.712 326.517 391.328 335.695L321.652 306.723ZM407.462 339.763C413.968 341.249 420.238 342.475 426.066 343.329L423.392 334.695L407.462 339.763ZM187.068 321.933C201.554 312.703 224.728 297.861 239.912 287.737C263.39 272.085 267.738 278.171 282.52 279.911C296.46 281.551 270.966 269.273 256.348 259.847C255.93 260.789 255.484 261.721 254.996 262.635C254.996 262.635 245.57 276.543 239.528 280.663L222.808 292.063C215.334 297.159 208.221 302.764 201.518 308.837L187.068 321.933Z" fill="#403742"/>
</g>
<defs>
<clipPath id="clip0_170_5456">
<rect width="512" height="512" fill="white"/>
</clipPath>
</defs>
</svg>
