<svg width="512" height="512" viewBox="0 0 512 512" fill="none" xmlns="http://www.w3.org/2000/svg">
<g clip-path="url(#clip0_183_24)">
<path d="M53.3936 446.406C129.415 418.965 275.84 356.113 347.096 341.797C363.522 338.497 384.747 336.738 396.724 338.198C445.397 344.128 255.188 416.551 226.579 430.383C161.342 461.914 85.4209 477.023 53.3936 446.406Z" fill="#E4EFFB"/>
<path d="M255.763 369.329L268.387 364.898C278.963 371.424 284.68 377.513 299.963 385.363C278.956 398.826 259.68 379.693 255.763 369.329ZM142.413 412.253L165.188 403.367C175.388 412.037 186.702 422.985 196.902 431.656C171.46 431.581 160.572 427.79 142.413 412.253Z" fill="#DAE4F0"/>
<path d="M53.3938 446.406C16.8802 440.37 56.7059 480.396 140.986 470.638C195.439 464.333 278.447 424.878 399.763 350.443C407.383 343.449 406.345 341.746 399.763 339.375C328.78 372.886 227.303 441.52 136.569 455.798C107.342 460.397 78.9153 454.623 53.3938 446.406Z" fill="#DAE4F0"/>
<path d="M280.253 94.0264C214.246 119.741 192.841 149.88 141.012 194.449C131.763 203.981 116.547 221.281 128.889 235.416C134.736 242.114 138.461 239.34 142.223 234.259C141.185 230.956 140.144 227.654 139.106 224.347C139.604 215.96 142.359 212.634 147.936 206.012C154.195 196.953 168.928 189.197 183.632 178.288C191.608 172.368 239.885 131.65 243.06 155.925C243.543 159.626 242.704 163.378 241.63 168.021C212.526 208.017 208.837 230.349 209.952 276.386C210.371 284.568 209.324 287.385 209.739 295.565C210.717 314.805 213.907 306.424 202.839 324.616C179.182 346.962 181.863 353.654 172.195 384.079C163.043 400.927 151.406 408.533 166.69 419.463C184.564 432.234 207.844 438.184 198.176 421.737C198.176 421.737 184.666 405.553 184.666 403.239C184.666 385.872 191.97 379.672 202.842 367.893C206.803 362.255 221.596 339.152 226.928 335.52C241.595 325.525 244.452 312.605 244.921 300.769C245.197 293.841 234.821 259.579 243.471 251.852C246.916 248.776 262.897 250.758 269.246 259.062C295.7 293.673 291.609 311.417 277.687 363.18C276.975 365.824 273.857 368.469 271.422 371.415C264.753 379.478 275.429 385.241 283.038 388.374C286.736 389.595 302.088 391.617 302.088 383.585C302.088 381.603 289.69 372.364 290.378 370.478C300.043 344.038 321.302 341.258 318.002 301.837C315.578 272.893 293.744 231.257 289.617 228.16C280.96 221.671 323.713 163.134 344.346 142.597C353.582 147.22 361.435 157.793 370.67 162.419C398.427 176.92 408.455 173.687 437.934 181.446C451.737 186.515 468.971 196.247 470.88 192.428C476.786 180.615 461.645 170.777 443.771 171.343C415.362 167.139 391.549 155.396 370.823 140.872C350.765 126.817 334.828 110.946 314.001 97.1712C301.871 97.1689 292.383 94.0264 280.253 94.0264Z" fill="#FFD1C4"/>
<path d="M291.595 110.795C312.541 131.544 327.447 126.676 327.447 106.587C324.175 105.769 315.457 96.6896 310.718 95.718C297.751 93.0601 286.084 93.7894 277.48 96.3233C279.077 98.749 289.998 108.373 291.595 110.795Z" fill="#F7C5B7"/>
<path d="M137.539 195.882C145.228 197.525 146.641 198.187 150.107 204.799C165.316 194.313 180.801 182.07 197.936 170.686C207.254 164.493 221.575 152.926 231.869 149.955C248.71 145.099 235.105 167.668 230.712 173.309C226.345 178.91 221.759 184.87 221.579 185.382C216.185 200.761 258.592 231.039 288.428 224.198C291.079 221.059 293.729 217.918 296.38 214.783C301.788 206.931 340.214 146.927 345.639 151.031C381.232 177.97 401.509 177.347 440.959 188.167C442.054 181.618 443.144 175.07 444.235 168.521C409.6 160.915 369.348 137.099 342.571 114.34C331.171 104.648 323.075 101.315 315.229 97.9533C314.82 123.921 302.478 119.524 294.876 111.306C287.662 103.51 285.291 92.4487 280.245 94.0257C223.232 111.832 177.369 154.177 137.539 195.882Z" fill="#F5F2E3"/>
<path d="M288.428 224.198C291.079 221.059 293.729 217.919 296.38 214.783C301.788 206.931 340.214 146.927 345.639 151.031C381.239 177.977 401.51 177.345 440.96 188.167L442.101 181.319C416.103 173.869 395.846 169.393 376.127 161.347C366.935 157.596 359.168 150.864 348.606 146.691C328.631 138.799 292.979 204.669 247.911 210.586C256.61 220.643 275.065 227.258 288.428 224.198Z" fill="#EDE9D5"/>
<path d="M221.154 189.151C196.703 215.089 195.245 275.244 210.791 307.081C206.248 281.406 244.129 277.501 244.658 297.59C245.054 312.669 247.918 260.696 247.918 258.404C269.246 262.898 279.011 294.939 284.422 314.554C299.973 301.929 300.535 301.53 320.936 306.535C316.968 267.706 306.452 247.056 290.142 222.169C251.897 220.111 246.024 205.927 221.154 189.151Z" fill="#FF7D7F"/>
<path d="M247.914 258.407C269.243 262.9 279.007 294.941 284.419 314.556C287.981 311.663 290.627 309.422 292.843 307.742L292.849 307.739C287.625 282.882 283.561 245.772 249.318 250.488L247.914 258.407Z" fill="#FF6B6D"/>
<path d="M278.999 94.0258C314.34 139.077 334.214 66.9432 306.85 50.7367C281.942 35.9809 256.055 54.3355 278.999 94.0258Z" fill="#FFD1C4"/>
<path d="M271.63 77.1447C273.745 45.7523 312.258 82.7722 313.072 74.0056C313.844 65.6281 322.544 75.6918 318.062 88.4395C324.59 74.1979 326.805 52.4675 309.857 43.7202C299.806 38.5285 284.345 37.0085 274.663 48.8254C268.759 56.0287 267.569 64.7225 271.63 77.1447Z" fill="#4C4E4F"/>
</g>
<defs>
<clipPath id="clip0_183_24">
<rect width="512" height="512" fill="white"/>
</clipPath>
</defs>
</svg>
