<svg width="512" height="512" viewBox="0 0 512 512" fill="none" xmlns="http://www.w3.org/2000/svg">
<g clip-path="url(#clip0_183_71)">
<path d="M472 352V464H40V352L44.72 347.28C47.7466 350.205 51.791 351.84 56 351.84C60.209 351.84 64.2534 350.205 67.28 347.28L70.64 344H121.36L124.72 347.28C127.747 350.205 131.791 351.84 136 351.84C140.209 351.84 144.253 350.205 147.28 347.28L150.64 344H201.36L204.72 347.28C207.747 350.205 211.791 351.84 216 351.84C220.209 351.84 224.253 350.205 227.28 347.28L230.64 344H281.36L284.72 347.28C287.747 350.205 291.791 351.84 296 351.84C300.209 351.84 304.253 350.205 307.28 347.28L310.64 344H361.36L364.72 347.28C367.747 350.205 371.791 351.84 376 351.84C380.209 351.84 384.253 350.205 387.28 347.28L390.64 344H441.36L444.72 347.28C447.747 350.205 451.791 351.84 456 351.84C460.209 351.84 464.253 350.205 467.28 347.28L472 352Z" fill="#3CB3F0"/>
<path d="M488 244.96V267.04C488.01 268.411 487.667 269.761 487.005 270.961C486.343 272.161 485.384 273.17 484.219 273.893C483.055 274.616 481.724 275.027 480.355 275.088C478.986 275.149 477.624 274.857 476.4 274.24L456 264L449.92 282.32C449.372 283.955 448.315 285.373 446.905 286.366C445.495 287.358 443.804 287.875 442.08 287.84L441.12 287.76C439.026 287.697 437.041 286.816 435.59 285.305C434.139 283.794 433.338 281.775 433.36 279.68L433.84 253.6L285.28 189.44C281.632 187.941 277.56 187.838 273.841 189.151C270.122 190.465 267.017 193.102 265.12 196.56L224 272V320L264 304L290.8 350.96L296 360H274.88C274.337 359.59 273.828 359.135 273.36 358.64L267.28 352.56C264.244 349.654 260.203 348.031 256 348.031C251.797 348.031 247.756 349.654 244.72 352.56L238.64 358.64C238.172 359.135 237.663 359.59 237.12 360H194.88C194.337 359.59 193.828 359.135 193.36 358.64L187.28 352.56C184.244 349.654 180.203 348.031 176 348.031C171.797 348.031 167.756 349.654 164.72 352.56L158.64 358.64C158.172 359.135 157.663 359.59 157.12 360H114.88C114.337 359.59 113.828 359.135 113.36 358.64L107.28 352.56C104.244 349.654 100.203 348.031 96 348.031C91.797 348.031 87.7561 349.654 84.72 352.56L78.64 358.64C78.1719 359.135 77.6635 359.59 77.12 360H40V328L168 248L236.08 145.92C239.754 140.398 244.738 135.872 250.587 132.745C256.436 129.618 262.968 127.988 269.6 128C276.426 128.021 283.137 129.754 289.12 133.04L424 208L483.6 237.76C484.931 238.431 486.049 239.461 486.826 240.733C487.604 242.005 488.01 243.469 488 244.96Z" fill="#FEC093"/>
<path d="M272.512 282.968L328.448 251.864C332.121 249.821 336.16 248.522 340.335 248.041C344.51 247.559 348.738 247.905 352.78 249.058C356.821 250.211 360.595 252.149 363.888 254.76C367.18 257.372 369.926 260.607 371.968 264.28L379.744 278.264C381.787 281.936 383.086 285.976 383.567 290.15C384.048 294.325 383.703 298.554 382.55 302.595C381.397 306.636 379.459 310.411 376.847 313.703C374.236 316.996 371.001 319.741 367.328 321.784L304.4 356.776C301.645 358.307 298.616 359.282 295.485 359.643C292.354 360.004 289.182 359.745 286.151 358.88C283.12 358.015 280.29 356.562 277.82 354.603C275.351 352.644 273.292 350.218 271.76 347.464L260.096 326.488C258.054 322.815 256.755 318.776 256.273 314.601C255.792 310.426 256.137 306.197 257.29 302.156C258.443 298.115 260.381 294.34 262.993 291.048C265.604 287.756 268.839 285.01 272.512 282.968Z" fill="#FEC093"/>
<path d="M321.584 255.76L328.576 251.872C332.249 249.83 336.288 248.531 340.463 248.05C344.638 247.568 348.866 247.914 352.908 249.067C356.949 250.22 360.723 252.157 364.016 254.769C367.308 257.381 370.054 260.616 372.096 264.288L379.872 278.272C381.914 281.945 383.213 285.984 383.695 290.159C384.176 294.334 383.831 298.563 382.678 302.604C381.525 306.645 379.587 310.42 376.975 313.712C374.364 317.005 371.129 319.75 367.456 321.792L360.464 325.68L321.584 255.76Z" fill="#EA4747"/>
<path d="M352.632 311.864L348.752 304.872C347.381 302.415 345.383 300.365 342.962 298.931C340.54 297.498 337.782 296.732 334.968 296.712L332.976 292.712C334.391 290.322 335.157 287.604 335.197 284.827C335.238 282.05 334.552 279.31 333.208 276.88L329.328 269.888C328.307 268.05 326.935 266.43 325.288 265.122C323.642 263.814 321.754 262.843 319.732 262.265C317.71 261.687 315.594 261.512 313.505 261.752C311.416 261.991 309.395 262.639 307.556 263.66C305.718 264.681 304.098 266.053 302.79 267.7C301.482 269.346 300.511 271.235 299.933 273.256C299.355 275.278 299.18 277.394 299.42 279.483C299.659 281.572 300.307 283.594 301.328 285.432L305.216 292.424C306.587 294.88 308.584 296.929 311.004 298.362C313.423 299.795 316.18 300.562 318.992 300.584L320.984 304.584C319.571 306.973 318.807 309.69 318.766 312.465C318.725 315.241 319.41 317.978 320.752 320.408L324.64 327.408C325.661 329.247 327.033 330.866 328.68 332.174C330.326 333.482 332.214 334.453 334.236 335.031C336.258 335.61 338.374 335.784 340.463 335.545C342.552 335.305 344.574 334.657 346.412 333.636C348.251 332.615 349.87 331.243 351.178 329.596C352.486 327.95 353.457 326.062 354.035 324.04C354.614 322.018 354.788 319.902 354.549 317.813C354.309 315.724 353.661 313.703 352.64 311.864H352.632Z" fill="#0B9CE6"/>
<path d="M80 192C88.84 192 128 176 128 176C128 176 88.84 160 80 160C75.7565 160 71.6869 161.686 68.6863 164.686C65.6857 167.687 64 171.757 64 176C64 180.244 65.6857 184.313 68.6863 187.314C71.6869 190.314 75.7565 192 80 192ZM98.744 129.376C104.992 135.624 144 152 144 152C144 152 127.624 112.992 121.376 106.744C118.375 103.743 114.304 102.057 110.06 102.057C105.816 102.057 101.745 103.743 98.744 106.744C95.7428 109.745 94.0568 113.816 94.0568 118.06C94.0568 122.304 95.7428 126.375 98.744 129.376ZM478.064 201.088C473.955 171.296 461.927 143.153 443.236 119.593C424.546 96.0327 399.876 77.919 371.8 67.1406C343.724 56.3623 313.27 53.3143 283.615 58.3144C253.96 63.3145 226.19 76.1797 203.2 95.5681L192.888 83.3361C218.066 62.1027 248.48 48.0137 280.958 42.5387C313.436 37.0636 346.788 40.4031 377.535 52.2087C408.283 64.0143 435.3 83.8537 455.768 109.658C476.236 135.461 489.406 166.285 493.904 198.912L478.064 201.088ZM173.216 128.304L160.504 118.592L165.36 112.232C167.24 109.784 169.184 107.368 171.184 105.032L176.36 98.9281L188.56 109.272L183.392 115.376C181.563 117.509 179.792 119.709 178.08 121.976L173.216 128.304Z" fill="#3CB3F0"/>
<path d="M456 412.105C451.798 412.111 447.637 411.287 443.755 409.681C439.872 408.074 436.345 405.717 433.376 402.745L427.32 396.689C424.272 393.777 420.219 392.153 416.004 392.153C411.789 392.153 407.736 393.777 404.688 396.689L398.632 402.745C395.66 405.716 392.133 408.073 388.25 409.682C384.368 411.29 380.206 412.118 376.004 412.118C371.801 412.118 367.64 411.29 363.758 409.682C359.875 408.073 356.347 405.716 353.376 402.745L347.32 396.689C345.834 395.202 344.07 394.023 342.128 393.219C340.187 392.414 338.106 392 336.004 392C333.902 392 331.821 392.414 329.879 393.219C327.938 394.023 326.174 395.202 324.688 396.689L318.632 402.745C315.66 405.716 312.133 408.073 308.25 409.682C304.368 411.29 300.206 412.118 296.004 412.118C291.801 412.118 287.64 411.29 283.758 409.682C279.875 408.073 276.347 405.716 273.376 402.745L267.32 396.689C265.834 395.202 264.07 394.023 262.128 393.219C260.187 392.414 258.106 392 256.004 392C253.902 392 251.821 392.414 249.879 393.219C247.938 394.023 246.174 395.202 244.688 396.689L238.632 402.745C235.66 405.716 232.133 408.073 228.25 409.682C224.368 411.29 220.206 412.118 216.004 412.118C211.801 412.118 207.64 411.29 203.758 409.682C199.875 408.073 196.347 405.716 193.376 402.745L187.32 396.689C185.834 395.202 184.07 394.023 182.128 393.219C180.187 392.414 178.106 392 176.004 392C173.902 392 171.821 392.414 169.879 393.219C167.938 394.023 166.174 395.202 164.688 396.689L158.632 402.745C155.66 405.716 152.133 408.073 148.25 409.682C144.368 411.29 140.206 412.118 136.004 412.118C131.801 412.118 127.64 411.29 123.758 409.682C119.875 408.073 116.347 405.716 113.376 402.745L107.32 396.689C105.834 395.202 104.07 394.023 102.128 393.219C100.187 392.414 98.1056 392 96.0039 392C93.9022 392 91.8211 392.414 89.8794 393.219C87.9378 394.023 86.1737 395.202 84.6879 396.689L78.6319 402.745C75.6604 405.716 72.1326 408.073 68.2501 409.682C64.3676 411.29 60.2063 412.118 56.0039 412.118C51.8014 412.118 47.6401 411.29 43.7576 409.682C39.8751 408.073 36.3474 405.716 33.3759 402.745L44.6879 391.433C47.6938 394.425 51.7625 396.105 56.0039 396.105C60.2452 396.105 64.3139 394.425 67.3199 391.433L73.3759 385.377C79.4755 379.564 87.5781 376.321 96.0039 376.321C104.43 376.321 112.532 379.564 118.632 385.377L124.688 391.433C127.694 394.425 131.763 396.105 136.004 396.105C140.245 396.105 144.314 394.425 147.32 391.433L153.376 385.377C156.347 382.405 159.875 380.048 163.758 378.439C167.64 376.831 171.801 376.003 176.004 376.003C180.206 376.003 184.368 376.831 188.25 378.439C192.133 380.048 195.66 382.405 198.632 385.377L204.688 391.433C207.694 394.425 211.763 396.105 216.004 396.105C220.245 396.105 224.314 394.425 227.32 391.433L233.376 385.377C236.347 382.405 239.875 380.048 243.758 378.439C247.64 376.831 251.801 376.003 256.004 376.003C260.206 376.003 264.368 376.831 268.25 378.439C272.133 380.048 275.66 382.405 278.632 385.377L284.688 391.433C287.694 394.425 291.762 396.105 296.004 396.105C300.245 396.105 304.314 394.425 307.32 391.433L313.376 385.377C316.347 382.405 319.875 380.048 323.758 378.439C327.64 376.831 331.801 376.003 336.004 376.003C340.206 376.003 344.368 376.831 348.25 378.439C352.133 380.048 355.66 382.405 358.632 385.377L364.688 391.433C367.694 394.425 371.762 396.105 376.004 396.105C380.245 396.105 384.314 394.425 387.32 391.433L393.376 385.377C396.347 382.405 399.875 380.048 403.758 378.439C407.64 376.831 411.801 376.003 416.004 376.003C420.206 376.003 424.368 376.831 428.25 378.439C432.133 380.048 435.66 382.405 438.632 385.377L444.688 391.433C447.694 394.425 451.762 396.105 456.004 396.105C460.245 396.105 464.314 394.425 467.32 391.433L478.632 402.745C475.662 405.718 472.133 408.076 468.25 409.682C464.366 411.288 460.203 412.112 456 412.105ZM478.64 358.641C476.664 360.612 474.43 362.308 472 363.681C467.147 366.521 461.623 368.012 456 368.001C451.796 368.004 447.633 367.179 443.749 365.573C439.864 363.967 436.334 361.611 433.36 358.641L427.28 352.561C424.244 349.654 420.203 348.032 416 348.032C411.797 348.032 407.756 349.654 404.72 352.561L398.64 358.641C392.629 364.634 384.488 367.999 376 367.999C367.512 367.999 359.37 364.634 353.36 358.641L347.28 352.561C344.244 349.654 340.203 348.032 336 348.032C331.797 348.032 327.756 349.654 324.72 352.561L318.64 358.641C312.539 364.46 304.431 367.707 296 367.707C287.568 367.707 279.461 364.46 273.36 358.641L267.28 352.561C264.244 349.654 260.203 348.032 256 348.032C251.797 348.032 247.756 349.654 244.72 352.561L238.64 358.641C232.539 364.46 224.431 367.707 216 367.707C207.568 367.707 199.461 364.46 193.36 358.641L187.28 352.561C184.244 349.654 180.203 348.032 176 348.032C171.797 348.032 167.756 349.654 164.72 352.561L158.64 358.641C152.629 364.634 144.488 367.999 136 367.999C127.512 367.999 119.37 364.634 113.36 358.641L107.28 352.561C104.244 349.654 100.203 348.032 95.9999 348.032C91.7968 348.032 87.756 349.654 84.7199 352.561L78.6399 358.641C73.564 363.469 67.0806 366.554 60.1318 367.446C53.183 368.338 46.1307 366.991 39.9999 363.601C37.5543 362.283 35.3168 360.612 33.3599 358.641L39.9999 352.001L44.7199 347.281C47.7465 350.205 51.7909 351.84 55.9999 351.84C60.2088 351.84 64.2533 350.205 67.2799 347.281L70.6399 344.001L73.3599 341.281C79.4607 335.461 87.5684 332.214 95.9999 332.214C104.431 332.214 112.539 335.461 118.64 341.281L121.36 344.001L124.72 347.281C127.746 350.205 131.791 351.84 136 351.84C140.209 351.84 144.253 350.205 147.28 347.281L150.64 344.001L153.36 341.281C159.461 335.461 167.568 332.214 176 332.214C184.431 332.214 192.539 335.461 198.64 341.281L201.36 344.001L204.72 347.281C207.746 350.205 211.791 351.84 216 351.84C220.209 351.84 224.253 350.205 227.28 347.281L230.64 344.001L233.36 341.281C239.37 335.287 247.512 331.922 256 331.922C264.488 331.922 272.629 335.287 278.64 341.281L281.36 344.001L284.72 347.281C287.746 350.205 291.791 351.84 296 351.84C300.209 351.84 304.253 350.205 307.28 347.281L310.64 344.001L313.36 341.281C319.461 335.461 327.568 332.214 336 332.214C344.431 332.214 352.539 335.461 358.64 341.281L361.36 344.001L364.72 347.281C367.746 350.205 371.791 351.84 376 351.84C380.209 351.84 384.253 350.205 387.28 347.281L390.64 344.001L393.36 341.281C399.461 335.461 407.568 332.214 416 332.214C424.431 332.214 432.539 335.461 438.64 341.281L441.36 344.001L444.72 347.281C447.746 350.205 451.791 351.84 456 351.84C460.209 351.84 464.253 350.205 467.28 347.281L472 352.001L478.64 358.641Z" fill="#0182C3"/>
<path d="M456 452.264C451.796 452.276 447.632 451.453 443.748 449.844C439.865 448.234 436.339 445.87 433.376 442.888L427.312 436.84C424.265 433.929 420.214 432.305 416 432.305C411.786 432.305 407.735 433.929 404.688 436.84L398.624 442.904C392.525 448.714 384.424 451.955 376 451.955C367.576 451.955 359.475 448.714 353.376 442.904L347.312 436.856C344.265 433.945 340.214 432.321 336 432.321C331.786 432.321 327.735 433.945 324.688 436.856L318.624 442.92C312.525 448.73 304.424 451.971 296 451.971C287.576 451.971 279.475 448.73 273.376 442.92L267.312 436.872C264.265 433.961 260.214 432.337 256 432.337C251.786 432.337 247.735 433.961 244.688 436.872L238.624 442.936C232.525 448.746 224.424 451.987 216 451.987C207.576 451.987 199.475 448.746 193.376 442.936L187.312 436.888C184.265 433.977 180.214 432.353 176 432.353C171.786 432.353 167.735 433.977 164.688 436.888L158.624 442.952C152.525 448.762 144.424 452.003 136 452.003C127.576 452.003 119.475 448.762 113.376 442.952L107.312 436.904C104.265 433.993 100.214 432.369 96 432.369C91.7863 432.369 87.7348 433.993 84.688 436.904L78.624 442.968C72.5248 448.778 64.4238 452.019 56 452.019C47.5761 452.019 39.4752 448.778 33.376 442.968L44.688 431.656C47.7348 434.567 51.7863 436.191 56 436.191C60.2136 436.191 64.2652 434.567 67.312 431.656L73.376 425.592C79.4752 419.782 87.5761 416.541 96 416.541C104.424 416.541 112.525 419.782 118.624 425.592L124.688 431.64C127.733 434.554 131.785 436.181 136 436.181C140.215 436.181 144.267 434.554 147.312 431.64L153.376 425.576C159.475 419.766 167.576 416.525 176 416.525C184.424 416.525 192.525 419.766 198.624 425.576L204.688 431.624C207.733 434.538 211.785 436.165 216 436.165C220.215 436.165 224.267 434.538 227.312 431.624L233.376 425.56C239.475 419.75 247.576 416.509 256 416.509C264.424 416.509 272.525 419.75 278.624 425.56L284.688 431.608C287.733 434.522 291.785 436.149 296 436.149C300.215 436.149 304.267 434.522 307.312 431.608L313.376 425.544C319.475 419.734 327.576 416.493 336 416.493C344.424 416.493 352.525 419.734 358.624 425.544L364.688 431.592C367.733 434.506 371.785 436.133 376 436.133C380.215 436.133 384.267 434.506 387.312 431.592L393.376 425.528C399.475 419.718 407.576 416.477 416 416.477C424.424 416.477 432.525 419.718 438.624 425.528L444.688 431.576C447.733 434.49 451.785 436.117 456 436.117C460.215 436.117 464.267 434.49 467.312 431.576L478.624 442.888C475.661 445.87 472.135 448.234 468.252 449.844C464.368 451.453 460.204 452.276 456 452.264Z" fill="#0182C3"/>
</g>
<defs>
<clipPath id="clip0_183_71">
<rect width="512" height="512" fill="white"/>
</clipPath>
</defs>
</svg>
