<svg width="512" height="512" viewBox="0 0 512 512" fill="none" xmlns="http://www.w3.org/2000/svg">
<g clip-path="url(#clip0_183_118)">
<g clip-path="url(#clip1_183_118)">
<path d="M45.1765 481.882H105.412V301.176L79.9795 291.137L45.1765 301.176V481.882Z" fill="#455E80"/>
<path d="M406.588 481.882H466.824V301.176L436.706 291.137L406.588 301.176V481.882Z" fill="#354367"/>
<path d="M507.589 207.705L481.046 181.16C486.531 171.906 489.421 161.345 489.412 150.588C489.412 117.374 462.39 90.3525 429.176 90.3525C395.963 90.3525 368.941 117.374 368.941 150.588C368.941 183.802 395.963 210.823 429.176 210.823C439.934 210.833 450.496 207.943 459.75 202.457L486.294 229L507.589 207.705Z" fill="#FF415C"/>
<path d="M82.8234 30.1172C49.6097 30.1172 22.5881 57.1387 22.5881 90.3525C22.5785 101.11 25.4684 111.672 30.9538 120.926L4.41113 147.47L25.7073 168.766L52.251 142.223C61.5051 147.708 72.0661 150.597 82.8234 150.588C116.037 150.588 143.059 123.566 143.059 90.3525C143.059 57.1387 116.037 30.1172 82.8234 30.1172Z" fill="#FF7C45"/>
<path d="M248.471 276.203L256 271.058L266.039 249.599L256 225.882H240.941V271.058L248.471 276.203Z" fill="#FFD82C"/>
<path d="M271.059 271.058V225.882H256V271.058L263.529 276.203L271.059 271.058Z" fill="#FFBE00"/>
<path d="M225.882 135.529C225.882 152.136 239.393 165.646 256 165.646L271.059 135.529L256 105.411C239.393 105.411 225.882 118.922 225.882 135.529Z" fill="#F4F4FF"/>
<path d="M286.118 135.529C286.118 118.922 272.607 105.411 256 105.411V165.646C272.607 165.646 286.118 152.136 286.118 135.529Z" fill="#DBE9FF"/>
<path d="M0 271.059V301.176H256L266.039 286.117L256 271.059H0Z" fill="#66D41C"/>
<path d="M256 271.059H512V301.176H256V271.059Z" fill="#00C364"/>
</g>
</g>
<defs>
<clipPath id="clip0_183_118">
<rect width="512" height="512" fill="white"/>
</clipPath>
<clipPath id="clip1_183_118">
<rect width="512" height="512" fill="white"/>
</clipPath>
</defs>
</svg>
