<svg width="512" height="512" viewBox="0 0 512 512" fill="none" xmlns="http://www.w3.org/2000/svg">
<g clip-path="url(#clip0_183_165)">
<path d="M264 72V48C264 39.5131 267.371 31.3737 273.373 25.3726C279.374 19.3714 287.513 16 296 16H340C343.183 16 346.235 17.2643 348.485 19.5147C350.736 21.7652 352 24.8174 352 28C352 31.1826 353.264 34.2348 355.515 36.4853C357.765 38.7357 360.817 40 364 40C367.183 40 370.235 41.2643 372.485 43.5147C374.736 45.7652 376 48.8174 376 52V72H264Z" fill="#886F65"/>
<path d="M376 52C376 48.8174 374.736 45.7652 372.485 43.5147C370.235 41.2643 367.183 40 364 40C360.817 40 357.765 38.7357 355.515 36.4853C353.264 34.2348 352 31.1826 352 28C352 24.8174 350.736 21.7652 348.485 19.5147C346.235 17.2643 343.183 16 340 16H296C294.662 20.6507 294.419 25.5482 295.291 30.3084C296.162 35.0687 298.125 39.5624 301.024 43.4372C303.923 47.3121 307.68 50.4628 312.001 52.6424C316.322 54.822 321.089 55.9712 325.928 56H376V52Z" fill="#9D8980"/>
<path d="M375.2 312H384L448 376L440 464H392V384L337.6 356.8C331.28 353.642 324.313 351.999 317.248 352C308.59 352.001 300.112 354.471 292.808 359.12L128 464L96 432L264 312" fill="#747574"/>
<path d="M440 240L400 160L344 136H296L232 152L200 192C200 198.365 202.529 204.47 207.029 208.971C211.53 213.471 217.635 216 224 216H264V312H364L368 320L375.2 312H384V302.224L440 240Z" fill="#6CC2F1"/>
<path d="M344 136H296L282.056 139.488C286.98 171.98 300.507 202.564 321.235 228.066C341.962 253.568 369.136 273.06 399.936 284.52L440 240L400 160L344 136Z" fill="#93D3F5"/>
<path d="M296 129.6V136C296 142.365 298.529 148.469 303.029 152.97C307.53 157.471 313.635 160 320 160C326.365 160 332.47 157.471 336.971 152.97C341.471 148.469 344 142.365 344 136V129.6" fill="#EEB8AB"/>
<path d="M352 288H328C323.757 288 319.687 289.686 316.686 292.686C313.686 295.687 312 299.757 312 304C312 308.243 313.686 312.313 316.686 315.314C319.687 318.314 323.757 320 328 320H368" fill="#FFE1D3"/>
<path d="M440 464C444.808 466.404 448.851 470.099 451.677 474.671C454.503 479.244 456 484.513 456 489.888V496H392V464" fill="#745749"/>
<path d="M440 464H412.44C415.224 468.852 419.237 472.885 424.075 475.694C428.913 478.503 434.406 479.988 440 480H454.184C451.677 473.048 446.601 467.322 440 464Z" fill="#886F65"/>
<path d="M105.232 441.232L63.256 467.464C61.0356 468.853 59.2047 470.784 57.9355 473.075C56.6662 475.365 56.0002 477.941 56 480.56C56 484.655 57.6267 488.583 60.5223 491.478C63.4178 494.374 67.3451 496 71.44 496C87.1662 496 102.248 489.753 113.368 478.632L128 464" fill="#745749"/>
<path d="M288 176H308C310.626 176 313.227 176.517 315.654 177.522C318.08 178.528 320.285 180.001 322.142 181.858C323.999 183.715 325.473 185.92 326.478 188.346C327.483 190.773 328 193.374 328 196C328 198.626 327.483 201.227 326.478 203.654C325.473 206.08 323.999 208.285 322.142 210.142C320.285 211.999 318.08 213.472 315.654 214.478C313.227 215.483 310.626 216 308 216H288" fill="#FFE1D3"/>
<path d="M400 328H391.2C318.878 328.001 248.364 350.598 189.512 392.632L112 448L128 464L292.8 359.12C299.431 354.897 307.044 352.464 314.895 352.059C322.747 351.653 330.569 353.29 337.6 356.808L392 384V464H440L448 376L400 328Z" fill="#9D9E9D"/>
<path d="M128 464L114.464 450.464L87.264 467.464C85.0236 468.858 83.1793 470.804 81.9083 473.116C80.6373 475.429 79.9824 478.029 80.0065 480.667C80.0306 483.306 80.7329 485.894 82.0459 488.182C83.3589 490.471 85.2385 492.383 87.504 493.736C97.2804 491.003 106.19 485.801 113.376 478.632L128 464Z" fill="#886F65"/>
<path d="M358.152 293.128L345.848 282.872L382.808 238.536L368.568 202.968L383.432 197.032L399.432 237.032C399.963 238.373 400.124 239.831 399.899 241.255C399.673 242.679 399.07 244.017 398.152 245.128L358.152 293.128ZM248 168H288V184H248V168Z" fill="#47A7ED"/>
<path d="M320 160C324.949 159.991 329.773 158.448 333.808 155.582C337.843 152.716 340.889 148.67 342.528 144H297.472C299.111 148.67 302.157 152.716 306.192 155.582C310.227 158.448 315.051 159.991 320 160Z" fill="#FFE1D3"/>
<path d="M368 88C368 100.73 362.943 112.939 353.941 121.941C344.939 130.943 332.73 136 320 136C307.27 136 295.061 130.943 286.059 121.941C277.057 112.939 272 100.73 272 88V72H302.704C310.071 72 317.25 69.6822 323.226 65.3747C329.202 61.0673 333.671 54.9886 336 48L336.408 49.232C338.618 55.8626 342.858 61.6296 348.528 65.716C354.199 69.8024 361.011 72.0009 368 72V88Z" fill="#EEB8AB"/>
<path d="M272 72H264C259.757 72 255.687 73.6857 252.686 76.6863C249.686 79.6869 248 83.7565 248 88C248 92.2435 249.686 96.3131 252.686 99.3137C255.687 102.314 259.757 104 264 104H274.736M368 72H376C380.243 72 384.313 73.6857 387.314 76.6863C390.314 79.6869 392 83.7565 392 88C392 92.2435 390.314 96.3131 387.314 99.3137C384.313 102.314 380.243 104 376 104H365.264" fill="#D8A89E"/>
<path d="M336.408 57.232L336 56C333.671 62.9886 329.202 69.0673 323.226 73.3747C317.25 77.6822 310.071 80 302.704 80H272V88C272 100.73 277.057 112.939 286.059 121.941C295.061 130.943 307.27 136 320 136C332.73 136 344.939 130.943 353.941 121.941C362.943 112.939 368 100.73 368 88V80C361.011 80.0009 354.199 77.8024 348.528 73.716C342.858 69.6296 338.618 63.8626 336.408 57.232Z" fill="#FFE1D3"/>
</g>
<defs>
<clipPath id="clip0_183_165">
<rect width="512" height="512" fill="white"/>
</clipPath>
</defs>
</svg>
