<svg width="512" height="512" viewBox="0 0 512 512" fill="none" xmlns="http://www.w3.org/2000/svg">
<g clip-path="url(#clip0_183_212)">
<rect width="512" height="512" fill="white"/>
<path d="M176 192C224.601 192 264 152.601 264 104C264 55.3989 224.601 16 176 16C127.399 16 88 55.3989 88 104C88 152.601 127.399 192 176 192Z" fill="#006BDB"/>
<path d="M424 504H256L240 448L212 436.8C191.753 428.718 173.935 415.547 160.27 398.56C146.606 381.574 137.557 361.348 134 339.84L133.12 334.8C129.68 314.24 125.44 293.92 120.4 273.68C120.144 272.551 120.01 271.398 120 270.24C120.008 266.466 121.511 262.849 124.18 260.18C126.849 257.511 130.466 256.008 134.24 256C139.567 256.007 144.787 257.492 149.32 260.288C153.854 263.084 157.523 267.083 159.92 271.84L168 288L176.88 314.56C181.551 328.677 189.47 341.501 200 352V321.28C199.986 304.531 197.285 287.893 192 272L145.6 132.88C144.55 129.65 144.011 126.276 144 122.88C143.994 118.45 145.547 114.16 148.387 110.761C151.227 107.361 155.172 105.069 159.532 104.287C163.892 103.505 168.389 104.282 172.233 106.482C176.078 108.682 179.026 112.165 180.56 116.32L189.04 139.28L184.8 109.68C184.252 105.892 183.985 102.068 184 98.24C183.995 93.8415 185.579 89.5893 188.462 86.2673C191.345 82.9454 195.332 80.7777 199.688 80.1638C204.043 79.55 208.474 80.5314 212.162 82.9271C215.851 85.3228 218.55 88.9713 219.76 93.2C227.908 121.7 237.657 149.718 248.96 177.12L267.28 221.68C269.428 217.762 272.536 214.453 276.312 212.063C280.088 209.674 284.409 208.282 288.87 208.018C293.331 207.755 297.786 208.627 301.817 210.555C305.849 212.483 309.325 215.402 311.92 219.04L312.96 220.56C314.196 216.91 316.541 213.737 319.667 211.485C322.794 209.234 326.547 208.015 330.4 208C334.653 208.002 338.855 208.934 342.711 210.731C346.566 212.527 349.982 215.145 352.72 218.4L363.52 231.44C370.056 239.338 375.196 248.293 378.72 257.92C382.197 267.568 383.983 277.744 384 288C383.988 309.316 382.652 330.61 380 351.76L376 384L424 504Z" fill="#D08D78"/>
<path d="M376 384L380 351.76C382.652 330.61 383.988 309.316 384 288C383.983 277.744 382.197 267.569 378.72 257.92C375.196 248.293 370.056 239.338 363.52 231.44L352.72 218.4C349.982 215.145 346.566 212.527 342.711 210.731C338.855 208.934 334.653 208.002 330.4 208C326.547 208.015 322.794 209.234 319.667 211.486C316.541 213.738 314.195 216.91 312.96 220.56L311.92 219.04C309.325 215.402 305.849 212.483 301.817 210.555C297.786 208.628 293.331 207.755 288.87 208.019C284.409 208.282 280.088 209.674 276.312 212.064C272.536 214.453 269.428 217.762 267.28 221.68L248.96 177.12C237.657 149.718 227.908 121.7 219.76 93.2002C218.539 88.9828 215.837 85.3475 212.151 82.9618C208.465 80.5761 204.042 79.6 199.694 80.2127C195.347 80.8255 191.366 82.986 188.483 86.2976C185.6 89.6091 184.008 93.8495 184 98.2402C183.985 102.068 184.252 105.892 184.8 109.68L189.04 139.28L180.56 116.32C179.026 112.165 176.078 108.682 172.233 106.482C168.389 104.282 163.892 103.505 159.532 104.287C155.172 105.07 151.227 107.361 148.387 110.761C145.547 114.16 143.994 118.451 144 122.88C144.011 126.276 144.55 129.65 145.6 132.88L192 272C197.285 287.893 199.986 304.531 200 321.28V352C189.47 341.501 181.551 328.677 176.88 314.56L168 288L159.92 271.84C157.668 267.384 154.292 263.591 150.127 260.837C145.962 258.083 141.151 256.463 136.168 256.136C136.232 256.648 136.288 257.168 136.4 257.68C141.44 277.92 145.68 298.24 149.12 318.8L150 323.84C151.342 331.918 153.459 339.848 156.32 347.52C162.551 364.028 172.138 379.063 184.476 391.676C196.814 404.289 211.634 414.206 228 420.8L256 432C260.61 448.133 270.35 462.325 283.745 472.429C297.14 482.533 313.461 487.999 330.24 488H417.6L376 384Z" fill="#F2B9A1"/>
<path d="M181.496 142.136L196.504 136.6L239.48 253.12L224.472 258.656L181.496 142.136ZM260.024 224.72L274.824 218.624L295.56 268.96L280.76 275.056L260.024 224.72ZM306.48 225.416L319.512 216.12L350.528 259.576L337.504 268.872L306.48 225.416Z" fill="#D08D78"/>
</g>
<defs>
<clipPath id="clip0_183_212">
<rect width="512" height="512" fill="white"/>
</clipPath>
</defs>
</svg>
