<svg width="512" height="512" viewBox="0 0 512 512" fill="none" xmlns="http://www.w3.org/2000/svg">
<g clip-path="url(#clip0_183_306)">
<g clip-path="url(#clip1_183_306)">
<path d="M171.856 110.818H196.677V423.328H171.856V110.818Z" fill="#D7E5E8"/>
<path d="M196.678 426.013H171.856C171.144 426.013 170.461 425.73 169.957 425.227C169.454 424.723 169.171 424.041 169.171 423.329V110.818C169.171 110.105 169.454 109.423 169.957 108.919C170.461 108.416 171.144 108.133 171.856 108.133H196.678C197.39 108.133 198.073 108.416 198.576 108.919C199.079 109.423 199.362 110.105 199.362 110.818V423.328C199.362 423.68 199.293 424.029 199.158 424.355C199.023 424.681 198.826 424.977 198.576 425.227C198.327 425.476 198.031 425.674 197.705 425.809C197.379 425.944 197.03 426.013 196.678 426.013ZM174.54 420.643H193.992V113.503H174.54V420.643Z" fill="#4C2D18"/>
<path d="M242.172 423.327H126.362C125.278 412.505 133.348 402.597 144.455 402.671H224.079C235.176 402.597 243.266 412.506 242.172 423.327Z" fill="#9DABBA"/>
<path d="M242.172 426.013H126.362C125.65 426.013 124.967 425.73 124.463 425.226C123.96 424.723 123.677 424.04 123.677 423.328V420.766C123.677 409.309 132.998 399.987 144.455 399.987H224.08C235.537 399.987 244.858 409.309 244.858 420.766V423.328C244.858 424.04 244.574 424.723 244.071 425.226C243.567 425.73 242.884 426.012 242.172 426.013ZM129.046 420.642H239.487C239.421 412.203 232.534 405.357 224.079 405.357H144.454C135.999 405.357 129.112 412.203 129.046 420.642Z" fill="#4C2D18"/>
<path d="M330.656 110.818H37.8777C18.4414 110.818 2.68469 126.575 2.68469 146.011V320.163H365.848V146.011C365.848 126.574 350.092 110.818 330.656 110.818Z" fill="#D7E5E8"/>
<path d="M365.848 322.847H2.68471C1.97268 322.847 1.28981 322.564 0.786333 322.06C0.282852 321.557 0 320.874 0 320.162L0 146.011C0 125.125 16.9917 108.133 37.8777 108.133H330.656C351.541 108.133 368.533 125.124 368.533 146.011V320.162C368.533 320.515 368.464 320.864 368.329 321.189C368.194 321.515 367.996 321.811 367.747 322.061C367.497 322.31 367.201 322.508 366.875 322.643C366.549 322.777 366.2 322.847 365.848 322.847ZM5.37043 317.477H363.163V146.011C363.163 128.087 348.58 113.503 330.656 113.503H37.8777C19.9529 113.503 5.37043 128.087 5.37043 146.011V317.477Z" fill="#4C2D18"/>
<path d="M365.848 146.011V320.163H2.68274V146.011C2.68274 126.57 18.4465 110.816 37.8777 110.816H330.653C350.094 110.816 365.848 126.57 365.848 146.011Z" fill="#D7E5E8"/>
<path d="M179.022 110.816L164.89 124.949L70.5704 219.279L2.68274 287.166V218.043L109.899 110.816H179.022ZM365.848 146.011V182.554L228.249 320.163H79.8706L289.207 110.816H330.653C350.094 110.816 365.848 126.57 365.848 146.011Z" fill="#E7EFF1"/>
<path d="M365.848 322.847H2.68471C1.97268 322.847 1.28981 322.564 0.786333 322.06C0.282852 321.557 0 320.874 0 320.162L0 146.011C0 125.125 16.9917 108.133 37.8777 108.133H330.656C351.541 108.133 368.533 125.124 368.533 146.011V320.162C368.533 320.515 368.464 320.864 368.329 321.189C368.194 321.515 367.996 321.811 367.747 322.061C367.497 322.31 367.201 322.508 366.875 322.643C366.549 322.777 366.2 322.847 365.848 322.847ZM5.37043 317.477H363.163V146.011C363.163 128.087 348.58 113.503 330.656 113.503H37.8777C19.9529 113.503 5.37043 128.087 5.37043 146.011V317.477Z" fill="#4C2D18"/>
<path d="M2.68469 320.162H365.848C367.992 342.997 355.809 362.106 331.665 362.909H36.9314C18.1516 362.909 2.88832 347.758 2.74953 328.978L2.68469 320.162Z" fill="#9DABBA"/>
<path d="M331.666 365.595H36.9314C16.7515 365.595 0.213718 349.177 0.0637795 328.998L-4.5601e-05 320.183C-0.00272003 319.828 0.0647814 319.477 0.198566 319.149C0.332351 318.821 0.529772 318.522 0.779444 318.271C1.02912 318.019 1.3261 317.82 1.65327 317.684C1.98044 317.547 2.33132 317.477 2.68567 317.478H365.849C366.201 317.478 366.55 317.547 366.876 317.682C367.202 317.817 367.498 318.015 367.747 318.264C367.996 318.513 368.194 318.809 368.329 319.135C368.464 319.461 368.533 319.81 368.533 320.162V328.726C368.533 349.056 351.993 365.595 331.666 365.595ZM5.38862 322.847L5.43421 328.958C5.56084 346.199 19.6905 360.223 36.9314 360.223H331.666C349.034 360.223 363.163 346.093 363.163 328.725V322.846H5.38862V322.847Z" fill="#4C2D18"/>
<path d="M21.0127 317.97C22.7897 294.865 42.1003 276.671 65.6599 276.671H110.441C134 276.671 153.311 294.865 155.088 317.97" fill="#C3BDE6"/>
<path d="M155.086 320.654C154.41 320.653 153.759 320.397 153.264 319.937C152.768 319.478 152.464 318.849 152.411 318.175C150.738 296.406 132.301 279.355 110.441 279.355H65.6609C43.8003 279.355 25.3649 296.406 23.6903 318.175C23.5758 319.653 22.278 320.741 20.807 320.646C20.4554 320.619 20.1126 320.523 19.7982 320.363C19.4837 320.204 19.2038 319.984 18.9743 319.716C18.7448 319.448 18.5704 319.138 18.4609 318.803C18.3514 318.467 18.309 318.114 18.3361 317.762C20.2245 293.214 41.0122 273.983 65.6609 273.983H110.442C135.09 273.983 155.878 293.213 157.767 317.762C157.795 318.132 157.747 318.503 157.625 318.852C157.503 319.202 157.31 319.522 157.058 319.794C156.807 320.066 156.501 320.282 156.162 320.43C155.823 320.578 155.456 320.654 155.086 320.654Z" fill="#4C2D18"/>
<path d="M49.74 230.584C51.0226 281.113 125.086 281.103 126.361 230.583C125.079 180.056 51.0155 180.067 49.74 230.584Z" fill="#C3BDE6"/>
<path d="M88.0503 271.581C33.9925 270.16 34.0036 191.002 88.0513 189.589C142.109 191.01 142.098 270.168 88.0503 271.581ZM88.0503 194.959C41.074 196.193 41.0841 264.984 88.0513 266.21C135.028 264.976 135.019 196.186 88.0503 194.959Z" fill="#4C2D18"/>
<path d="M383.79 235.111C382.459 287.495 305.676 287.485 304.354 235.11C305.684 182.726 382.467 182.737 383.79 235.111Z" fill="#FFB74C"/>
<path d="M344.071 277.512C288.157 276.042 288.168 194.169 344.072 192.707C399.986 194.177 399.975 276.051 344.071 277.512ZM344.071 198.077C295.239 199.36 295.249 270.867 344.072 272.142C392.905 270.859 392.895 199.353 344.071 198.077Z" fill="#4C2D18"/>
<path d="M376.245 276.775L298.348 335.901C289.893 342.319 288.787 354.617 295.962 362.44C298.686 365.41 302.326 367.381 306.301 368.039C310.277 368.698 314.358 368.005 317.894 366.071L385.057 329.338C393.388 324.781 403.792 326.908 409.666 334.369L432.156 362.934C436.511 368.465 432.986 376.621 425.973 377.24L263.77 389.676C255.204 390.431 248.58 397.511 248.394 406.108C248.191 415.537 255.759 423.299 265.19 423.334L464.257 423.982C500.095 424.113 521.558 384.186 501.68 354.366L459.275 290.755C440.8 263.036 402.779 256.636 376.245 276.775Z" fill="#FFB74C"/>
<path d="M264.817 426.012C259.668 425.902 254.865 423.817 251.258 420.118C239.748 408.828 247.418 388.059 263.535 387.002L425.739 374.566C428.034 374.363 429.95 372.98 430.865 370.865C431.78 368.75 431.474 366.406 430.049 364.594L407.559 336.029C405.113 332.907 401.636 330.756 397.75 329.962C393.864 329.167 389.822 329.781 386.347 331.693L319.183 368.426C315.123 370.655 310.432 371.456 305.862 370.7C301.293 369.943 297.11 367.674 293.984 364.255C292.039 362.13 290.558 359.623 289.635 356.894C288.711 354.165 288.366 351.273 288.621 348.404C288.882 345.535 289.737 342.751 291.133 340.231C292.528 337.71 294.433 335.508 296.726 333.764L374.623 274.636C388.052 264.442 404.6 260.372 421.227 263.17C437.852 265.968 452.158 275.236 461.51 289.263L503.914 352.875C513.809 367.719 514.673 385.961 506.228 401.674C497.781 417.389 482.088 426.73 464.249 426.666L265.182 426.017C265.061 426.016 264.939 426.014 264.817 426.012ZM394.884 324.254C398.15 324.325 401.359 325.12 404.28 326.582C407.201 328.044 409.761 330.136 411.775 332.707L434.265 361.272C436.93 364.657 437.502 369.04 435.792 372.994C434.083 376.948 430.5 379.534 426.21 379.913L264.006 392.349C252.378 393.001 246.755 408.313 255.102 416.368C257.778 419.112 261.348 420.6 265.2 420.647L464.267 421.295C497.169 422.364 518.484 382.701 499.446 355.853L457.041 292.242C448.52 279.459 435.485 271.014 420.336 268.463C405.185 265.911 390.106 269.624 377.869 278.912L299.972 338.039C292.848 343.181 291.849 354.293 297.942 360.624C300.256 363.156 303.355 364.838 306.74 365.398C310.125 365.959 313.6 365.365 316.607 363.714L383.77 326.981C387.172 325.113 391.004 324.172 394.884 324.254Z" fill="#4C2D18"/>
<path d="M309.724 124.029V173.807C309.724 193.693 293.601 209.816 273.715 209.816H176.07C172.873 209.816 169.781 209.404 166.835 208.619L144.253 221.302L151.78 200.395C144.577 193.807 140.061 184.337 140.061 173.807V124.029C140.061 104.142 156.184 88.0195 176.07 88.0195H273.715C293.601 88.0195 309.724 104.142 309.724 124.029Z" fill="#FFB74C"/>
<path d="M144.254 223.985C143.823 223.986 143.398 223.883 143.015 223.684C142.633 223.486 142.303 223.198 142.055 222.845C141.808 222.493 141.648 222.086 141.591 221.658C141.534 221.231 141.581 220.796 141.727 220.391L148.665 201.124C141.47 193.893 137.376 184.038 137.376 173.805V124.028C137.376 102.692 154.733 85.334 176.07 85.334H273.715C295.051 85.334 312.409 102.692 312.409 124.028V173.806C312.409 195.143 295.05 212.5 273.715 212.5H176.07C173.067 212.5 170.096 212.158 167.219 211.481L145.568 223.641C145.157 223.872 144.704 223.985 144.254 223.985ZM176.07 90.7044C157.695 90.7044 142.745 105.654 142.745 124.029V173.807C142.751 178.436 143.718 183.014 145.585 187.25C147.453 191.486 150.179 195.288 153.593 198.415C153.983 198.773 154.26 199.238 154.387 199.752C154.513 200.266 154.485 200.807 154.306 201.305L149.219 215.433L165.52 206.279C166.13 205.937 166.849 205.846 167.525 206.025C170.313 206.763 173.186 207.135 176.07 207.132H273.715C292.09 207.132 307.039 192.182 307.039 173.807V124.028C307.039 105.653 292.09 90.7034 273.715 90.7034L176.07 90.7044Z" fill="#4C2D18"/>
<path d="M274.814 122.736H174.97C171.458 122.719 171.46 117.38 174.97 117.365H274.814C278.326 117.381 278.324 122.72 274.814 122.736ZM274.814 151.603H174.97C171.458 151.587 171.46 146.248 174.97 146.232H274.814C278.326 146.249 278.324 151.588 274.814 151.603ZM274.814 180.469H174.97C171.458 180.453 171.46 175.114 174.97 175.099H274.814C278.326 175.115 278.324 180.454 274.814 180.469Z" fill="#4C2D18"/>
</g>
</g>
<defs>
<clipPath id="clip0_183_306">
<rect width="512" height="512" fill="white"/>
</clipPath>
<clipPath id="clip1_183_306">
<rect width="512" height="512" fill="white"/>
</clipPath>
</defs>
</svg>
