<svg width="512" height="512" viewBox="0 0 512 512" fill="none" xmlns="http://www.w3.org/2000/svg">
<g clip-path="url(#clip0_183_259)">
<g clip-path="url(#clip1_183_259)">
<path d="M341.077 164.012C339.844 164.016 338.625 163.751 337.505 163.235C336.385 162.719 335.391 161.965 334.592 161.025L302.421 123.393C301.693 122.541 301.139 121.554 300.792 120.489C300.445 119.423 300.312 118.3 300.399 117.183C300.486 116.065 300.792 114.976 301.3 113.977C301.808 112.978 302.508 112.089 303.36 111.361C304.212 110.633 305.198 110.079 306.264 109.732C307.33 109.385 308.453 109.251 309.57 109.338C310.688 109.426 311.777 109.732 312.776 110.24C313.775 110.748 314.664 111.448 315.392 112.3L347.554 149.932C348.614 151.171 349.297 152.688 349.521 154.303C349.746 155.917 349.503 157.563 348.822 159.044C348.14 160.526 347.049 161.781 345.676 162.661C344.304 163.541 342.708 164.01 341.077 164.012Z" fill="#C03A2B"/>
<path d="M280.661 136.448C276.498 136.44 272.347 136.008 268.271 135.16L265.165 134.494C256.313 132.036 247.866 128.299 240.094 123.401C239.111 122.813 238.256 122.032 237.581 121.106C236.906 120.18 236.424 119.128 236.165 118.012C235.905 116.896 235.873 115.739 236.07 114.611C236.267 113.482 236.69 112.404 237.312 111.442C237.935 110.481 238.745 109.654 239.694 109.012C240.643 108.37 241.711 107.925 242.836 107.705C243.96 107.484 245.117 107.493 246.238 107.73C247.36 107.966 248.422 108.426 249.361 109.082C255.462 112.922 262.067 115.883 268.988 117.88L271.787 118.477C276.956 119.705 282.329 119.813 287.543 118.793C292.758 117.773 297.694 115.649 302.02 112.564C306.017 109.419 309.322 105.484 311.73 101.004C314.138 96.5247 315.597 91.5969 316.015 86.5285C316.015 86.281 316.015 86.0335 316.066 85.8543C316.203 84.745 316.262 83.6442 316.262 82.5349C316.399 68.0781 311.641 54.0004 302.763 42.5903L302.131 41.737L301.542 41.0714C283.196 17.9205 253.44 10.2405 235.255 23.8938C227.837 29.5851 222.981 37.9887 221.756 47.2581C220.607 56.3668 221.468 65.6166 224.28 74.3564C227.091 83.0962 231.784 91.1134 238.029 97.8437C239.466 99.5502 240.18 101.751 240.017 103.976C239.854 106.202 238.828 108.275 237.157 109.754C235.487 111.233 233.304 112.001 231.075 111.893C228.847 111.785 226.748 110.81 225.229 109.176C217.256 100.57 211.299 90.2979 207.788 79.1045C204.276 67.9111 203.3 56.0768 204.928 44.4591C206.834 30.8365 214.071 18.5284 225.05 10.2405C250.897 -9.13021 290.21 -0.375006 314.65 30.1743C315.324 30.9338 315.955 31.7274 316.535 32.5551C327.605 46.9378 333.517 64.6253 333.321 82.7738C333.321 84.3525 333.218 85.9311 333.039 87.4927V88.073C332.377 95.5091 330.195 102.73 326.628 109.288C323.061 115.847 318.185 121.603 312.303 126.2C303.152 132.969 292.043 136.568 280.661 136.448Z" fill="#E64C3C"/>
<path d="M408.235 475.136C405.233 476.646 401.963 477.548 398.611 477.791C395.26 478.033 391.894 477.611 388.706 476.548C385.519 475.486 382.572 473.804 380.037 471.599C377.501 469.394 375.426 466.711 373.931 463.702L327.339 370.518L245.589 341.334L242.688 340.31L242.859 341.334L251.392 397.142C252.035 401.117 251.72 405.188 250.473 409.017C249.226 412.846 247.084 416.323 244.224 419.158L167.424 495.958C165.051 498.337 162.231 500.226 159.127 501.514C156.022 502.802 152.694 503.466 149.333 503.466C145.972 503.466 142.644 502.802 139.54 501.514C136.436 500.226 133.616 498.337 131.243 495.958C126.449 491.158 123.756 484.651 123.756 477.867C123.756 471.083 126.449 464.576 131.243 459.776L198.827 392.107L183.808 294.059C183.571 292.735 183.457 291.393 183.467 290.048V209.067C183.473 201.477 185.729 194.059 189.949 187.751C194.169 181.442 200.164 176.525 207.176 173.622C214.189 170.718 221.904 169.958 229.349 171.437C236.793 172.916 243.632 176.567 249.003 181.931C250.795 183.689 252.407 185.634 253.781 187.734C257.237 192.819 259.379 198.682 260.011 204.8H289.792L334.763 159.83C338.769 155.824 344.202 153.573 349.867 153.573C355.532 153.573 360.965 155.824 364.971 159.83C368.977 163.835 371.227 169.268 371.227 174.934C371.227 180.599 368.977 186.032 364.971 190.038L313.771 241.238C309.76 245.231 304.324 247.467 298.667 247.467H260.267V292.182L354.219 325.718C360.422 327.975 365.522 332.526 368.469 338.432L419.669 440.832C422.693 446.899 423.188 453.917 421.044 460.348C418.901 466.779 414.294 472.097 408.235 475.136Z" fill="#3B97D3"/>
<path d="M260.267 247.467V264.533H226.133C223.87 264.533 221.7 263.634 220.099 262.034C218.499 260.434 217.6 258.263 217.6 256C217.6 253.737 218.499 251.566 220.099 249.966C221.7 248.366 223.87 247.467 226.133 247.467H260.267ZM260.011 204.8H226.133C223.87 204.8 221.7 203.901 220.099 202.301C218.499 200.7 217.6 198.53 217.6 196.267C217.6 194.004 218.499 191.833 220.099 190.233C221.7 188.632 223.87 187.733 226.133 187.733H253.781C257.237 192.819 259.379 198.682 260.011 204.8Z" fill="#2980BA"/>
<path d="M198.281 315.683C193.894 315.683 189.542 315.555 185.25 315.291C162.739 314.328 140.624 309.047 120.107 299.734C118.101 298.746 116.564 297.011 115.824 294.901C115.085 292.791 115.204 290.476 116.154 288.452C117.104 286.429 118.81 284.859 120.906 284.08C123.002 283.302 125.319 283.377 127.36 284.289C145.929 292.619 165.908 297.358 186.24 298.258C213.838 299.668 241.463 296.065 267.776 287.625C273.749 285.808 279.509 283.82 284.979 281.652C375.245 246.469 429.338 168.159 405.572 107C400.392 94.8045 392.721 83.8257 383.05 74.7677C373.38 65.7097 361.923 58.7725 349.414 54.4009C347.314 53.5567 345.635 51.9128 344.747 49.8308C343.859 47.7488 343.834 45.3992 344.678 43.299C345.523 41.1988 347.166 39.5199 349.248 38.6317C351.33 37.7436 353.68 37.7188 355.78 38.563C370.473 43.786 383.91 52.0269 395.227 62.7555C406.543 73.484 415.488 86.4626 421.487 100.856C448.649 170.736 390.204 258.988 291.183 297.584C285.321 299.879 279.134 302.021 272.819 303.941C248.705 311.581 223.576 315.539 198.281 315.683ZM89.6 276.481C88.4595 276.485 87.3296 276.261 86.2773 275.821C85.2249 275.382 84.2714 274.735 83.473 273.921C74.2418 264.437 67.0052 253.199 62.1909 240.871C61.403 238.771 61.4742 236.444 62.389 234.395C63.3038 232.347 64.9886 230.741 67.0787 229.925C69.1688 229.11 71.496 229.15 73.5566 230.037C75.6171 230.925 77.2453 232.588 78.0885 234.668C82.0829 244.858 88.0807 254.143 95.7269 261.974C96.9052 263.176 97.7017 264.7 98.0161 266.354C98.3305 268.007 98.1488 269.717 97.4939 271.268C96.839 272.818 95.7401 274.141 94.3355 275.068C92.9308 275.996 91.2832 276.487 89.6 276.481Z" fill="#81CCB8"/>
<path d="M260.267 128C260.267 136.439 257.764 144.688 253.076 151.704C248.388 158.721 241.724 164.19 233.928 167.419C226.132 170.648 217.553 171.493 209.276 169.847C201 168.201 193.397 164.137 187.43 158.17C181.463 152.203 177.399 144.6 175.753 136.324C174.107 128.047 174.952 119.469 178.181 111.672C181.41 103.876 186.879 97.2123 193.896 92.524C200.912 87.8357 209.161 85.3334 217.6 85.3334C218.255 85.3175 218.911 85.346 219.563 85.4187C229.811 85.8826 239.546 90.0319 246.978 97.1031C254.41 104.174 259.038 113.692 260.011 123.904C260.181 125.269 260.267 126.635 260.267 128Z" fill="#FDD7AD"/>
<path d="M448 512H98.1333C95.8701 512 93.6996 511.101 92.0993 509.501C90.499 507.901 89.6 505.73 89.6 503.467C89.6 501.204 90.499 499.033 92.0993 497.433C93.6996 495.833 95.8701 494.934 98.1333 494.934H448C450.263 494.934 452.434 495.833 454.034 497.433C455.634 499.033 456.533 501.204 456.533 503.467C456.533 505.73 455.634 507.901 454.034 509.501C452.434 511.101 450.263 512 448 512Z" fill="#71C285"/>
</g>
</g>
<defs>
<clipPath id="clip0_183_259">
<rect width="512" height="512" fill="white"/>
</clipPath>
<clipPath id="clip1_183_259">
<rect width="512" height="512" fill="white"/>
</clipPath>
</defs>
</svg>
