<svg width="512" height="512" viewBox="0 0 512 512" fill="none" xmlns="http://www.w3.org/2000/svg">
<g clip-path="url(#clip0_183_353)">
<g clip-path="url(#clip1_183_353)">
<path d="M355.427 497C355.427 505.28 348.707 511.999 340.427 511.999H69.7093C50.3395 511.999 33.6897 500.88 26.2797 482.98C18.8598 465.08 22.7698 445.44 36.4696 431.74L56.0195 412.19L72.2233 416.726L77.2292 433.41L57.6794 452.96C50.2195 460.42 52.9695 469.03 53.9895 471.5C55.0095 473.96 59.1594 482 69.7093 482H340.427C348.707 482 355.427 488.72 355.427 497Z" fill="#405580"/>
<path d="M243.608 245.352L172.808 348.652L65.4504 423.5C61.9827 420.013 58.8273 416.229 56.0205 412.191C32.9407 379.071 36.1606 333.061 65.6804 303.542L121.68 247.532C112.66 218.802 120.19 186.813 141.87 165.123L152.63 154.373L207.86 193.727L243.608 245.352Z" fill="#80BFFF"/>
<path d="M335.057 336.802L324.297 347.552C302.617 369.241 270.617 376.771 241.888 367.741L185.888 423.741C169.318 440.311 147.549 448.601 125.789 448.601C108.769 448.601 91.7591 443.541 77.2292 433.411C73.1017 430.534 69.2367 427.298 65.6794 423.741C65.5994 423.661 65.5194 423.581 65.4494 423.501L243.608 245.353L296.772 280.087L335.057 336.802Z" fill="#4DA6FF"/>
<path d="M349.667 139.294L340.431 169.791L307.247 181.714L269.708 162.387L258.487 132.954C285.797 112.504 324.767 114.614 349.667 139.294Z" fill="#FFDE00"/>
<path d="M370.407 189.014C370.407 204.334 365.517 218.904 356.477 230.944L320.516 217.281L307.247 181.714L349.667 139.294C349.747 139.364 349.827 139.444 349.907 139.524C363.127 152.744 370.407 170.324 370.407 189.014Z" fill="#FFBB00"/>
<path d="M307.247 181.713L295.991 205.811L264.817 224.133L214.713 182.718L173.838 133.154L186.768 120.224C203.038 103.954 229.498 103.964 245.758 120.224L307.247 181.713Z" fill="#EFEDFF"/>
<path d="M381.416 273.162C381.416 284.302 377.086 294.772 369.206 302.652L356.277 315.592L304.206 274.937L264.817 224.132L307.247 181.713L369.206 243.672C377.086 251.542 381.416 262.022 381.416 273.162Z" fill="#D4D4FF"/>
<path d="M392.116 96.8439L388.42 117.089L370.836 118.124C357.537 104.914 340.727 95.2139 322.087 90.734C314.037 88.794 309.077 80.6941 311.017 72.6441C312.957 64.5842 321.057 59.6343 329.117 61.5742C352.907 67.2942 374.686 79.4941 392.116 96.8439ZM434.546 54.4143L430.134 70.1302L413.486 75.4741C389.626 51.7143 358.407 35.3345 323.277 29.8246C315.087 28.5346 309.497 20.8646 310.787 12.6747C312.067 4.4948 319.747 -1.10515 327.927 0.184842C368.476 6.55478 405.336 25.3046 434.546 54.4143Z" fill="#80BFFF"/>
<path d="M416.786 178.403C415.606 178.693 414.426 178.823 413.256 178.823C406.486 178.823 400.346 174.213 398.686 167.333C394.146 148.473 384.286 131.493 370.836 118.123L392.116 96.8436L392.346 97.0736C409.826 114.543 422.096 136.413 427.856 160.313C429.796 168.363 424.836 176.463 416.786 178.403ZM476.745 178.643C475.955 178.763 475.175 178.823 474.405 178.823C467.145 178.823 460.765 173.543 459.605 166.153C454.056 130.803 437.506 99.3936 413.486 75.4739L434.546 54.4141C434.626 54.4841 434.706 54.5641 434.786 54.6441C464.025 83.8838 482.855 120.833 489.235 161.493C490.525 169.683 484.935 177.353 476.745 178.643Z" fill="#4DA6FF"/>
<path d="M264.817 224.132L259.076 241.711L243.608 245.353L152.629 154.374L173.838 133.154L264.817 224.132Z" fill="#405580"/>
<path d="M356.277 315.592L335.057 336.802L243.608 245.353L264.817 224.133L356.277 315.592Z" fill="#283D66"/>
<path d="M154.169 334.792C148.296 329.334 139.059 329.48 133.388 335.077C127.667 340.724 127.456 350.064 132.959 355.992C138.757 361.945 148.242 362.15 154.07 356.781C160.223 351.113 160.45 340.937 154.169 334.792Z" fill="#FF4D88"/>
<path d="M218.288 270.673L201.512 293.37L178.088 310.873C172.458 305.003 172.538 295.673 178.318 289.893L197.318 270.893C203.098 265.123 212.418 265.043 218.288 270.673Z" fill="#EFEDFF"/>
<path d="M218.528 292.112L199.528 311.112C198.138 312.506 196.485 313.611 194.666 314.364C192.847 315.118 190.897 315.504 188.928 315.502C185.088 315.502 181.248 314.042 178.318 311.112C178.238 311.032 178.158 310.952 178.088 310.872L218.288 270.672C218.368 270.732 218.448 270.812 218.528 270.892C224.388 276.752 224.388 286.252 218.528 292.112Z" fill="#D4D4FF"/>
</g>
</g>
<defs>
<clipPath id="clip0_183_353">
<rect width="512" height="512" fill="white"/>
</clipPath>
<clipPath id="clip1_183_353">
<rect width="512" height="512" fill="white"/>
</clipPath>
</defs>
</svg>
