<svg width="512" height="512" viewBox="0 0 512 512" fill="none" xmlns="http://www.w3.org/2000/svg">
<g clip-path="url(#clip0_183_400)">
<g clip-path="url(#clip1_183_400)">
<path d="M195.989 250H512V120H195.989C87.921 120 0 207.925 0 316L65.406 354L129.993 316C129.993 274.094 154.085 250 195.989 250Z" fill="#EDF5FF"/>
<path d="M195.989 512H512V382H195.989C154.085 382 129.993 357.906 129.993 316H0C0 424.075 87.921 512 195.989 512Z" fill="#D5E8FE"/>
<path d="M408.464 120L393.465 128.041L378.465 120V70.0004L393.465 64.2354L408.464 70.0004V120Z" fill="#61729B"/>
<path d="M195.989 150H512V120H481.974L466.975 128.041L451.975 120H195.989C87.921 120 0 207.925 0 316L11.545 328.765L29.998 316C29.998 224.468 104.462 150 195.989 150Z" fill="#FF6C6C"/>
<path d="M195.989 512H391.978L406.977 504.647L421.977 512H512V482H195.989C104.461 482 29.998 407.532 29.998 316H0C0 424.075 87.921 512 195.989 512Z" fill="#FF415B"/>
<path d="M195.989 210H512V180H195.989C121.002 180 59.996 241.01 59.996 316L75.779 328.765L89.995 316C89.995 257.552 137.544 210 195.989 210Z" fill="#FF6C6C"/>
<path d="M195.989 452H451.975L466.974 444.529L481.974 452H512V422H421.977L406.978 431.471L391.979 422H195.989C137.543 422 89.995 374.448 89.995 316H59.997C59.997 390.99 121.003 452 195.989 452Z" fill="#FF415B"/>
<path d="M195.989 270H451.975L466.974 261.706L481.974 270H512V240H195.989C154.085 240 119.993 274.094 119.993 316L135.427 328.765L149.992 316C149.992 290.636 170.626 270 195.989 270Z" fill="#FF6C6C"/>
<path d="M195.989 392H512V362H481.974L466.975 372.177L451.975 362H195.989C170.626 362 149.992 341.364 149.992 316H119.994C119.993 357.906 154.085 392 195.989 392Z" fill="#FF415B"/>
<path d="M451.975 362H481.973V452H451.975V362ZM391.979 422H421.977V512H391.979V422Z" fill="#47568C"/>
<path d="M451.975 120H481.973V270H451.975V120Z" fill="#61729B"/>
<path d="M512 0H378.465V35L431.284 52.5L481.488 35L512 0Z" fill="#22DC83"/>
<path d="M378.465 35V70H512L481.488 35H378.465Z" fill="#19AE8F"/>
</g>
</g>
<defs>
<clipPath id="clip0_183_400">
<rect width="512" height="512" fill="white"/>
</clipPath>
<clipPath id="clip1_183_400">
<rect width="512" height="512" fill="white"/>
</clipPath>
</defs>
</svg>
