<svg width="512" height="512" viewBox="0 0 512 512" fill="none" xmlns="http://www.w3.org/2000/svg">
<g clip-path="url(#clip0_183_494)">
<g clip-path="url(#clip1_183_494)">
<path d="M256 22C121.383 22 12.141 130.575 11.026 264.929L13.849 266.14C168.94 332.659 344.057 335.077 500.925 272.864C500.971 270.914 500.999 268.96 500.999 267C501 131.69 391.31 22 256 22Z" fill="#FEF0AE"/>
<path d="M410.557 242.137C451.469 254.998 474 271.948 474 289.864V307.669C474 310.028 473.584 312.437 472.763 314.827L472.307 316.152H496.065C498.963 301.894 500.59 287.408 500.926 272.864C493.005 263.706 481.494 257.738 468.578 257.157C470.514 252.027 471.504 246.589 471.5 241.106C471.5 215.977 451.129 195.606 426 195.606C415.532 195.591 405.381 199.202 397.274 205.826C389.503 200.147 380.125 197.093 370.5 197.106C351.294 197.106 334.88 209.012 328.203 225.84C358.85 229.2 386.937 234.711 410.557 242.137ZM39.693 316.152L39.237 314.827C38.417 312.438 38 310.03 38 307.669V289.864C38 271.948 60.531 254.998 101.443 242.137C127.535 233.935 159.075 228.066 193.5 224.856C186.957 207.755 170.402 195.606 151 195.606C140.532 195.591 130.381 199.202 122.274 205.826C114.503 200.147 105.125 197.093 95.5 197.106C70.371 197.106 50 217.477 50 242.606C50 244.91 50.175 247.174 50.505 249.386C48.843 249.201 47.1722 249.108 45.5 249.106C31.714 249.106 19.37 255.244 11.026 264.928C11.02 265.619 11 266.308 11 267C11 283.836 12.709 300.271 15.944 316.152H39.693Z" fill="#4FC123"/>
<path d="M472.662 315.152C467.292 330.265 445.722 344.341 410.557 355.396C369.287 368.369 314.398 375.514 256 375.514C197.602 375.514 142.713 368.369 101.443 355.396C66.278 344.341 44.708 330.265 39.338 315.152H15.743C38.116 427.402 137.173 512 256 512C374.827 512 473.884 427.402 496.257 315.152H472.662Z" fill="#80D261"/>
<path d="M146.5 427H123.5C121.511 427 119.603 426.21 118.197 424.803C116.79 423.397 116 421.489 116 419.5C116 417.511 116.79 415.603 118.197 414.197C119.603 412.79 121.511 412 123.5 412H146.5C148.489 412 150.397 412.79 151.803 414.197C153.21 415.603 154 417.511 154 419.5C154 421.489 153.21 423.397 151.803 424.803C150.397 426.21 148.489 427 146.5 427Z" fill="#68CA44"/>
<path d="M256.5 473H233.5C231.511 473 229.603 472.21 228.197 470.803C226.79 469.397 226 467.489 226 465.5C226 463.511 226.79 461.603 228.197 460.197C229.603 458.79 231.511 458 233.5 458H256.5C258.489 458 260.397 458.79 261.803 460.197C263.21 461.603 264 463.511 264 465.5C264 467.489 263.21 469.397 261.803 470.803C260.397 472.21 258.489 473 256.5 473Z" fill="#4FC123"/>
<path d="M280.5 420H257.5C255.511 420 253.603 419.21 252.197 417.803C250.79 416.397 250 414.489 250 412.5C250 410.511 250.79 408.603 252.197 407.197C253.603 405.79 255.511 405 257.5 405H280.5C282.489 405 284.397 405.79 285.803 407.197C287.21 408.603 288 410.511 288 412.5C288 414.489 287.21 416.397 285.803 417.803C284.397 419.21 282.489 420 280.5 420Z" fill="#68CA44"/>
<path d="M392.5 433H369.5C367.511 433 365.603 432.21 364.197 430.803C362.79 429.397 362 427.489 362 425.5C362 423.511 362.79 421.603 364.197 420.197C365.603 418.79 367.511 418 369.5 418H392.5C394.489 418 396.397 418.79 397.803 420.197C399.21 421.603 400 423.511 400 425.5C400 427.489 399.21 429.397 397.803 430.803C396.397 432.21 394.489 433 392.5 433Z" fill="#4FC123"/>
<path d="M62 401.02H84.203C84.466 401.02 84.722 401.049 84.971 401.098V349.605C75.762 345.985 67.82 342.123 61.231 338.069V401.098C61.4842 401.047 61.7417 401.021 62 401.02Z" fill="#ACACAC"/>
<path d="M71.26 343.571C67.637 341.781 64.282 339.947 61.231 338.069V401.098C61.48 401.049 61.736 401.02 62 401.02H71.26V343.571Z" fill="#9C9C9C"/>
<path d="M84.202 400.02H62C60.6739 400.02 59.4021 400.546 58.4645 401.484C57.5268 402.422 57 403.693 57 405.02V409.923C62.7398 417.899 68.9519 425.525 75.603 432.76H84.202C85.5281 432.76 86.7999 432.233 87.7375 431.295C88.6752 430.357 89.202 429.086 89.202 427.76V405.02C89.202 403.693 88.6752 402.422 87.7375 401.484C86.7999 400.546 85.5281 400.02 84.202 400.02Z" fill="#5A5A5A"/>
<path d="M67.798 405.02C67.798 403.693 68.3248 402.422 69.2625 401.484C70.2001 400.546 71.4719 400.02 72.798 400.02H62C60.6739 400.02 59.4021 400.546 58.4645 401.484C57.5268 402.422 57 403.693 57 405.02V409.923C60.429 414.689 64.044 419.308 67.798 423.809V405.02Z" fill="#444444"/>
<path d="M427.798 401.02H450C450.263 401.02 450.52 401.049 450.769 401.098V338.069C444.18 342.123 436.238 345.985 427.029 349.605V401.098C427.278 401.049 427.534 401.02 427.798 401.02Z" fill="#ACACAC"/>
<path d="M437.26 345.239C433.894 346.795 430.482 348.251 427.029 349.605V401.098C427.282 401.047 427.54 401.021 427.798 401.02H437.26V345.239Z" fill="#9C9C9C"/>
<path d="M455 409.923V405.02C455 403.693 454.473 402.422 453.535 401.484C452.598 400.546 451.326 400.02 450 400.02H427.798C426.472 400.02 425.2 400.546 424.262 401.484C423.325 402.422 422.798 403.693 422.798 405.02V427.76C422.798 429.086 423.325 430.357 424.262 431.295C425.2 432.233 426.472 432.76 427.798 432.76H436.397C443.048 425.525 449.26 417.899 455 409.923Z" fill="#5A5A5A"/>
<path d="M433 427.76V405.02C433 403.693 433.527 402.422 434.464 401.484C435.402 400.546 436.674 400.02 438 400.02H427.798C426.472 400.02 425.2 400.546 424.262 401.484C423.325 402.422 422.798 403.693 422.798 405.02V427.76C422.798 429.086 423.325 430.357 424.262 431.295C425.2 432.233 426.472 432.76 427.798 432.76H436.397C436.465 432.686 436.529 432.61 436.597 432.536C434.523 431.926 433 430.031 433 427.76Z" fill="#444444"/>
<path d="M177.797 432.26H200C200.263 432.26 200.52 432.289 200.769 432.338V373.311C192.841 372.669 184.926 371.87 177.029 370.915V432.338C177.278 432.289 177.534 432.26 177.797 432.26Z" fill="#ACACAC"/>
<path d="M187.26 372.058C183.846 371.707 180.436 371.326 177.029 370.914V432.337C177.278 432.288 177.534 432.259 177.797 432.259H187.26V372.058Z" fill="#9C9C9C"/>
<path d="M200 464H177.798C176.472 464 175.2 463.473 174.262 462.535C173.325 461.598 172.798 460.326 172.798 459V436.26C172.798 434.934 173.325 433.662 174.262 432.724C175.2 431.787 176.472 431.26 177.798 431.26H200C201.326 431.26 202.598 431.787 203.536 432.724C204.473 433.662 205 434.934 205 436.26V459C205 460.326 204.473 461.598 203.536 462.535C202.598 463.473 201.326 464 200 464Z" fill="#5A5A5A"/>
<path d="M183 459V436.26C183 434.934 183.527 433.662 184.464 432.724C185.402 431.787 186.674 431.26 188 431.26H177.798C176.472 431.26 175.2 431.787 174.262 432.724C173.325 433.662 172.798 434.934 172.798 436.26V459C172.798 460.326 173.325 461.598 174.262 462.535C175.2 463.473 176.472 464 177.798 464H188C186.674 464 185.402 463.473 184.464 462.535C183.527 461.598 183 460.326 183 459Z" fill="#444444"/>
<path d="M312 432.26H334.202C334.465 432.26 334.722 432.289 334.971 432.338V370.915C327.074 371.87 319.159 372.669 311.231 373.311V432.338C311.484 432.287 311.742 432.261 312 432.26Z" fill="#ACACAC"/>
<path d="M321.26 372.407C317.942 372.731 314.602 373.036 311.231 373.31V432.337C311.48 432.288 311.736 432.259 312 432.259H321.26V372.407Z" fill="#9C9C9C"/>
<path d="M334.202 464H312C310.674 464 309.402 463.473 308.464 462.535C307.527 461.598 307 460.326 307 459V436.26C307 434.934 307.527 433.662 308.464 432.724C309.402 431.787 310.674 431.26 312 431.26H334.202C335.528 431.26 336.8 431.787 337.738 432.724C338.675 433.662 339.202 434.934 339.202 436.26V459C339.202 460.326 338.675 461.598 337.738 462.535C336.8 463.473 335.528 464 334.202 464Z" fill="#5A5A5A"/>
<path d="M317.798 459V436.26C317.798 434.934 318.325 433.662 319.262 432.724C320.2 431.787 321.472 431.26 322.798 431.26H312C310.674 431.26 309.402 431.787 308.464 432.724C307.527 433.662 307 434.934 307 436.26V459C307 460.326 307.527 461.598 308.464 462.535C309.402 463.473 310.674 464 312 464H322.798C321.472 464 320.2 463.473 319.262 462.535C318.325 461.598 317.798 460.326 317.798 459Z" fill="#444444"/>
<path d="M474 289.864C474 307.78 451.469 324.73 410.557 337.591C369.287 350.564 314.399 357.709 256 357.709C197.602 357.709 142.713 350.564 101.443 337.591C60.531 324.73 38 307.78 38 289.864H37V307.669C37 345.691 135.05 376.515 256 376.515C376.95 376.515 475 345.692 475 307.669V289.864H474Z" fill="#FAC600"/>
<path d="M256 358.71C376.95 358.71 475 327.886 475 289.864C475 251.841 376.95 221.018 256 221.018C135.05 221.018 37 251.841 37 289.864C37 327.886 135.05 358.71 256 358.71Z" fill="#FEDF30"/>
<path d="M256 337C350.337 337 426.813 317.071 426.813 292.488C426.813 267.904 350.337 247.976 256 247.976C161.663 247.976 85.187 267.904 85.187 292.488C85.187 317.071 161.663 337 256 337Z" fill="#5A5A5A"/>
<path d="M127 292.488C127 269.749 192.432 250.995 276.906 248.308C269.94 248.086 262.97 247.975 256 247.976C161.663 247.976 85.187 267.905 85.187 292.488C85.187 317.071 161.663 337 256 337C263.078 337 270.054 336.886 276.906 336.668C192.432 333.981 127 315.227 127 292.488Z" fill="#444444"/>
<path d="M246.6 275.893C245.195 274.488 243.429 273.499 241.497 273.033L206.413 229.722C205.995 229.205 205.79 228.547 205.84 227.884C205.89 227.22 206.192 226.601 206.683 226.152L213.454 219.978L195.875 200.7L189.104 206.874C177.889 217.101 176.588 234.35 186.141 246.143L219.635 287.492L217.821 289.306C213.578 293.549 213.578 300.428 217.821 304.671C222.064 308.914 228.943 308.914 233.186 304.671L246.6 291.257C250.843 287.015 250.843 280.136 246.6 275.893Z" fill="#FFBD86"/>
<path d="M228.034 303.637C224.627 299.269 225.29 292.964 229.207 289.046C229.633 288.62 229.887 288.05 229.919 287.448C229.95 286.846 229.758 286.253 229.378 285.784L192.805 240.634C185.744 231.917 186.703 219.208 194.992 211.649L200.926 206.238L195.875 200.698L189.104 206.872C177.874 217.112 176.574 234.332 186.141 246.142L219.635 287.491L218.052 289.074C214.002 293.124 213.511 299.693 217.24 304.041C220.799 308.19 226.653 308.938 231.057 306.313C229.892 305.617 228.867 304.709 228.034 303.637Z" fill="#F6A96C"/>
<path d="M331.129 263.017C330.077 261.965 328.82 261.141 327.436 260.596C327.259 260.422 327.09 260.243 326.901 260.078L286.145 224.371H256.139C257.275 230.799 260.569 236.647 265.477 240.95L304.043 274.738L302.35 276.431C298.107 280.674 298.107 287.553 302.35 291.796C306.593 296.039 313.472 296.039 317.715 291.796L331.129 278.382C335.372 274.139 335.372 267.26 331.129 263.017Z" fill="#FFBD86"/>
<path d="M310.741 288.913C307.434 284.555 308.082 278.356 311.95 274.488C312.754 273.684 312.71 272.368 311.855 271.619L274.868 239.215C270.692 235.554 267.668 230.76 266.162 225.414H256.335C257.634 231.44 260.839 236.887 265.475 240.949L304.041 274.737L302.61 276.168C298.436 280.342 298.044 287.168 302.058 291.495C305.898 295.634 312.127 296.071 316.488 292.835C314.193 292.195 312.174 290.816 310.741 288.913Z" fill="#F6A96C"/>
<path d="M221.984 45.874H224.861V40.7C224.862 39.5817 225.307 38.5096 226.098 37.7189C226.889 36.9281 227.961 36.4833 229.079 36.482H281.257C282.375 36.4833 283.447 36.9281 284.238 37.7189C285.029 38.5096 285.474 39.5817 285.475 40.7V45.874H288.353C289.735 45.874 291.04 46.192 292.215 46.744V37.047C292.216 16.586 275.629 0 255.169 0C234.709 0 218.122 16.586 218.122 37.047V46.744C219.329 46.1723 220.648 45.8751 221.984 45.874Z" fill="#5A5A5A"/>
<path d="M221.985 44.874H223.862V40.7C223.862 40.0148 223.997 39.3362 224.259 38.7032C224.521 38.0701 224.906 37.4949 225.39 37.0103C225.875 36.5258 226.45 36.1414 227.083 35.8792C227.716 35.617 228.395 35.482 229.08 35.482H239.027C239.698 19.337 250.707 5.868 265.605 1.501C262.216 0.505447 258.701 -9.31927e-06 255.169 1.28868e-10C234.709 1.28868e-10 218.122 16.586 218.122 37.047V45.641C219.347 45.1336 220.659 44.873 221.985 44.874Z" fill="#444444"/>
<path d="M224.905 54.278V44.873H221.984C216.393 44.873 211.86 49.406 211.86 54.997C211.86 60.588 216.393 65.121 221.984 65.121H226.867C225.571 61.6529 224.906 57.9805 224.905 54.278Z" fill="#FFBD86"/>
<path d="M288.353 44.874H285.432V54.93C285.432 58.458 284.832 61.894 283.681 65.122H288.353C293.944 65.122 298.477 60.589 298.477 54.998C298.477 49.406 293.944 44.874 288.353 44.874Z" fill="#F6A96C"/>
<path d="M220.687 92.4358C220.687 90.5648 221.241 88.8238 222.185 87.3548L174.206 39.3758C173.721 38.8913 173.337 38.316 173.075 37.6828C172.813 37.0497 172.678 36.3711 172.678 35.6858V20.8488C172.678 20.1962 172.532 19.5518 172.252 18.9623C171.972 18.3728 171.565 17.853 171.059 17.4404C170.553 17.0279 169.962 16.733 169.329 16.577C168.695 16.4211 168.034 16.408 167.395 16.5388C165.307 16.9468 163.885 18.9108 163.885 21.0378C163.885 21.8178 162.942 22.2078 162.391 21.6568L157.446 16.7118C155.854 15.1199 153.695 14.2256 151.443 14.2256C149.192 14.2256 147.033 15.1199 145.441 16.7118L136.784 25.3688C135.192 26.9608 134.298 29.12 134.298 31.3713C134.298 33.6227 135.192 35.7818 136.784 37.3738L148.521 49.1108C150.516 51.1117 153.184 52.2999 156.006 52.4448C157.24 52.5098 158.393 53.0798 159.266 53.9528L220.689 115.376V92.4358H220.687Z" fill="#FFBD86"/>
<path d="M219.687 104.003L163.13 47.4456C162.256 46.5716 161.104 46.0016 159.87 45.9376C157.048 45.7927 154.38 44.6045 152.385 42.6036L140.648 30.8666C139.748 29.9676 139.062 28.8774 138.642 27.677C138.221 26.4765 138.076 25.1967 138.218 23.9326L136.783 25.3676C135.191 26.9596 134.297 29.1188 134.297 31.3701C134.297 33.6215 135.191 35.7806 136.783 37.3726L148.52 49.1096C150.515 51.1105 153.183 52.2987 156.005 52.4436C157.239 52.5086 158.392 53.0786 159.265 53.9516L219.688 114.375V104.003H219.687Z" fill="#F6A96C"/>
<path d="M375.217 25.3679L366.56 16.7109C364.968 15.1189 362.809 14.2246 360.557 14.2246C358.306 14.2246 356.147 15.1189 354.555 16.7109L349.609 21.6559C349.058 22.2069 348.115 21.8169 348.115 21.0369C348.115 18.9099 346.693 16.9459 344.605 16.5379C343.966 16.4071 343.305 16.4201 342.671 16.576C342.038 16.732 341.447 17.0269 340.941 17.4394C340.435 17.852 340.028 18.3718 339.748 18.9613C339.468 19.5508 339.322 20.1952 339.322 20.8478V35.6849C339.322 37.0689 338.772 38.3959 337.794 39.3749L289.43 87.7388C290.257 89.1656 290.693 90.7855 290.694 92.4348V115.991L352.735 53.9499C353.609 53.0759 354.761 52.5059 355.995 52.4419C358.817 52.297 361.485 51.1087 363.48 49.1079L375.217 37.3708C376.005 36.5827 376.63 35.6471 377.057 34.6174C377.484 33.5876 377.703 32.4839 377.703 31.3694C377.703 30.2548 377.484 29.1511 377.057 28.1213C376.63 27.0916 376.005 26.156 375.217 25.3679Z" fill="#FFBD86"/>
<path d="M344.606 16.5375C343.967 16.4067 343.306 16.4198 342.672 16.5757C342.039 16.7316 341.448 17.0266 340.942 17.4391C340.436 17.8517 340.029 18.3715 339.749 18.961C339.469 19.5505 339.323 20.1949 339.323 20.8475V35.6845C339.323 37.0685 338.773 38.3955 337.795 39.3745L290.16 87.0095C291.163 88.6418 291.694 90.5199 291.694 92.4355V93.8245L344.056 41.4625C344.541 40.978 344.925 40.4027 345.187 39.7695C345.449 39.1364 345.584 38.4578 345.584 37.7725V22.9355C345.584 21.3345 346.443 19.9395 347.721 19.1705C347.166 17.8565 346.052 16.8205 344.606 16.5375Z" fill="#F6A96C"/>
<path d="M286.476 172.834H224.906C224.339 172.833 223.779 172.718 223.258 172.495C222.737 172.272 222.267 171.946 221.875 171.537L194.702 196.315C194.398 196.592 194.152 196.926 193.977 197.298C193.802 197.67 193.703 198.073 193.684 198.484C193.665 198.895 193.727 199.305 193.867 199.692C194.006 200.079 194.221 200.434 194.498 200.738L214.854 223.061C215.134 223.368 215.472 223.616 215.849 223.791C216.226 223.966 216.634 224.064 217.049 224.08C217.465 224.096 217.879 224.028 218.268 223.882C218.657 223.736 219.013 223.514 219.315 223.229L244.215 199.754C246.045 198.029 249.059 199.056 249.454 201.54L252.831 222.774C252.948 223.51 253.324 224.18 253.89 224.663C254.457 225.147 255.178 225.413 255.923 225.413H286.645C287.475 225.413 288.272 225.083 288.859 224.496C289.446 223.909 289.776 223.112 289.776 222.282V171.211C289.003 172.192 287.818 172.834 286.476 172.834Z" fill="#5A5A5A"/>
<path d="M216.013 196.316L240.667 173.835H224.905C224.199 173.834 223.501 173.69 222.853 173.411C222.205 173.132 221.621 172.723 221.136 172.211L194.701 196.316C194.397 196.593 194.151 196.927 193.976 197.299C193.801 197.671 193.702 198.074 193.683 198.485C193.664 198.896 193.726 199.306 193.866 199.693C194.005 200.08 194.22 200.435 194.497 200.739L214.853 223.062C215.133 223.369 215.471 223.617 215.848 223.792C216.225 223.967 216.633 224.065 217.048 224.081C217.464 224.097 217.878 224.029 218.267 223.883C218.656 223.737 219.012 223.515 219.314 223.23L228.457 214.61L215.808 200.739C215.249 200.125 214.957 199.314 214.995 198.485C215.033 197.656 215.4 196.875 216.013 196.316Z" fill="#444444"/>
<path d="M281.258 82H268.811C264.581 84.1356 259.907 85.2445 255.169 85.237H255.168C250.506 85.2415 245.91 84.1314 241.764 81.999H230.123C224.36 81.999 219.687 86.671 219.687 92.435V168.616C219.687 170 220.237 171.327 221.215 172.306C222.194 173.284 223.521 173.834 224.905 173.834H286.476C287.86 173.834 289.187 173.284 290.166 172.306C291.144 171.327 291.694 170 291.694 168.616V92.436C291.694 86.672 287.022 82 281.258 82Z" fill="#FE646F"/>
<path d="M241.081 168.616V92.436C241.081 89.626 242.201 87.085 244.009 85.21C244.007 85.132 243.998 85.055 243.998 84.976V84.134C242.48 83.54 241.011 82.8264 239.605 82H230.124C224.361 82 219.688 86.672 219.688 92.436V168.617C219.688 170.001 220.238 171.328 221.216 172.307C222.195 173.285 223.522 173.835 224.906 173.835H246.299C244.915 173.834 243.588 173.284 242.61 172.306C241.631 171.327 241.081 170 241.081 168.616Z" fill="#FD4755"/>
<path d="M255.169 85.2373C251.336 85.2418 247.539 84.4912 243.996 83.0283V84.9753C243.996 91.0633 248.769 96.2083 254.854 96.3753C261.168 96.5483 266.34 91.4823 266.34 85.2073V83.1113C262.784 84.5203 258.994 85.2417 255.169 85.2373Z" fill="#F6A96C"/>
<path d="M254.746 86.2258C254.593 86.2238 254.442 86.2288 254.289 86.2248C250.66 86.1248 247.199 85.3888 243.997 84.1338V84.9758C243.997 91.0638 248.77 96.2088 254.855 96.3758C256.833 96.4312 258.789 95.9583 260.523 95.0058C257.358 93.2518 255.156 89.9828 254.746 86.2258Z" fill="#EA9B58"/>
<path d="M223.862 40.6994V54.2784C223.862 71.3374 237.237 85.7574 254.289 86.2244C271.981 86.7094 286.476 72.5124 286.476 54.9294V40.6994C286.476 40.0142 286.341 39.3357 286.079 38.7026C285.817 38.0695 285.432 37.4943 284.948 37.0098C284.463 36.5252 283.888 36.1409 283.255 35.8786C282.622 35.6164 281.943 35.4814 281.258 35.4814H229.08C228.395 35.4814 227.716 35.6164 227.083 35.8786C226.45 36.1409 225.875 36.5252 225.39 37.0098C224.906 37.4943 224.521 38.0695 224.259 38.7026C223.997 39.3357 223.862 40.0142 223.862 40.6994Z" fill="#FFBD86"/>
<path d="M234.819 54.2794V40.6994C234.819 39.3155 235.369 37.9883 236.347 37.0098C237.326 36.0312 238.653 35.4814 240.037 35.4814H229.08C227.696 35.4814 226.369 36.0312 225.39 37.0098C224.412 37.9883 223.862 39.3155 223.862 40.6994V54.2784C223.862 71.3374 237.237 85.7574 254.289 86.2244C256.472 86.2844 258.606 86.1184 260.671 85.7524C245.862 83.0974 234.819 69.7784 234.819 54.2794Z" fill="#F6A96C"/>
<path d="M239.515 63.6579C243.838 63.6579 247.342 60.1536 247.342 55.8309C247.342 51.5082 243.838 48.0039 239.515 48.0039C235.192 48.0039 231.688 51.5082 231.688 55.8309C231.688 60.1536 235.192 63.6579 239.515 63.6579Z" fill="#5A5A5A"/>
<path d="M270.822 63.6579C275.145 63.6579 278.649 60.1536 278.649 55.8309C278.649 51.5082 275.145 48.0039 270.822 48.0039C266.499 48.0039 262.995 51.5082 262.995 55.8309C262.995 60.1536 266.499 63.6579 270.822 63.6579Z" fill="#5A5A5A"/>
</g>
</g>
<defs>
<clipPath id="clip0_183_494">
<rect width="512" height="512" fill="white"/>
</clipPath>
<clipPath id="clip1_183_494">
<rect width="512" height="512" fill="white"/>
</clipPath>
</defs>
</svg>
