<svg width="512" height="512" viewBox="0 0 512 512" fill="none" xmlns="http://www.w3.org/2000/svg">
<g clip-path="url(#clip0_183_447)">
<g clip-path="url(#clip1_183_447)">
<path d="M478.815 308.911L347.219 319.272L357.58 211.487V158.995C357.58 156.867 358.425 154.827 359.93 153.322C361.434 151.818 363.475 150.973 365.602 150.973H427.325C428.764 150.973 430.188 151.263 431.511 151.828C432.834 152.393 434.029 153.219 435.024 154.258L457.313 177.517L477.301 209.189C479.188 211.157 480.241 213.778 480.241 216.504L490.601 223.986V297.124C490.602 303.633 485.325 308.911 478.815 308.911Z" fill="#FBFBFB"/>
<path d="M316.963 211.486H357.581V315.809H316.963V211.486Z" fill="#8C818F"/>
<path d="M297.711 307.987H10.3357V140.807C10.3357 138.393 11.2946 136.078 13.0015 134.371C14.7084 132.664 17.0235 131.705 19.4374 131.705H288.609C291.023 131.705 293.338 132.664 295.045 134.371C296.752 136.078 297.711 138.393 297.711 140.807V307.987Z" fill="#77D1B3"/>
<path d="M318.654 131.705H287.573C288.768 131.705 289.952 131.94 291.056 132.398C292.16 132.855 293.163 133.526 294.009 134.371C294.854 135.216 295.524 136.219 295.982 137.324C296.439 138.428 296.675 139.612 296.675 140.807V307.986L308.804 288.279L327.756 253.564V140.807C327.756 138.393 326.797 136.078 325.09 134.371C323.383 132.664 321.068 131.705 318.654 131.705Z" fill="#67B59F"/>
<path d="M477.301 209.189L457.312 177.517L435.023 154.258C434.025 153.219 432.828 152.392 431.502 151.827C430.177 151.263 428.75 150.972 427.31 150.973H396.228C399.143 150.973 401.93 152.16 403.941 154.258L456.58 209.188C458.466 211.156 459.519 213.777 459.52 216.503V297.123C459.52 303.632 454.242 308.91 447.733 308.91H478.815C485.325 308.91 490.601 303.633 490.601 297.123V223.985L480.241 216.503C480.241 213.777 479.188 211.156 477.301 209.189Z" fill="#E7E7E7"/>
<path d="M36.8162 253.564L10.3357 307.986L303.055 315.809L314.642 253.564H36.8162Z" fill="#56988C"/>
<path d="M10.3357 253.564H36.8162V307.986H10.3357V253.564Z" fill="#E27F86"/>
<path d="M296.675 253.564H327.756V315.809H296.675V253.564Z" fill="#477D73"/>
<path d="M498.116 335.805H13.8831C6.2153 335.805 0 329.589 0 321.922C0 314.254 6.2153 308.039 13.8831 308.039H498.116C505.784 308.039 511.999 314.255 511.999 321.922C512 329.59 505.784 335.805 498.116 335.805Z" fill="#C8C3CA"/>
<path d="M422.301 380.294C447.02 380.294 467.058 360.375 467.058 335.805C467.058 311.234 447.02 291.315 422.301 291.315C397.583 291.315 377.545 311.234 377.545 335.805C377.545 360.375 397.583 380.294 422.301 380.294Z" fill="#8C818F"/>
<path d="M203.295 380.294C228.013 380.294 248.051 360.375 248.051 335.805C248.051 311.234 228.013 291.315 203.295 291.315C178.576 291.315 158.538 311.234 158.538 335.805C158.538 360.375 178.576 380.294 203.295 380.294Z" fill="#8C818F"/>
<path d="M68.332 380.294C93.0504 380.294 113.089 360.375 113.089 335.805C113.089 311.234 93.0504 291.315 68.332 291.315C43.6136 291.315 23.5754 311.234 23.5754 335.805C23.5754 360.375 43.6136 380.294 68.332 380.294Z" fill="#8C818F"/>
<path d="M422.301 291.315C416.836 291.315 411.602 292.292 406.761 294.074C423.817 300.353 435.975 316.666 435.975 335.804C435.975 354.942 423.816 371.254 406.761 377.534C411.737 379.364 416.999 380.298 422.301 380.293C447.02 380.293 467.057 360.375 467.057 335.804C467.057 311.235 447.02 291.315 422.301 291.315ZM203.294 291.315C197.829 291.315 192.594 292.292 187.753 294.074C204.809 300.353 216.969 316.666 216.969 335.804C216.969 354.942 204.809 371.254 187.753 377.534C192.73 379.364 197.991 380.298 203.294 380.293C228.012 380.293 248.05 360.375 248.05 335.804C248.05 311.235 228.012 291.315 203.294 291.315ZM68.332 291.315C62.8668 291.315 57.6326 292.292 52.7911 294.074C69.8477 300.353 82.0058 316.666 82.0058 335.804C82.0058 354.942 69.8467 371.254 52.7911 377.534C57.7679 379.364 63.0294 380.298 68.332 380.293C93.0502 380.293 113.089 360.375 113.089 335.804C113.088 311.235 93.0502 291.315 68.332 291.315Z" fill="#766D78"/>
<path d="M274.991 210.107C273.825 210.107 272.685 209.761 271.715 209.114C270.746 208.466 269.99 207.545 269.543 206.468C269.097 205.39 268.98 204.205 269.208 203.061C269.436 201.917 269.997 200.867 270.822 200.042L277.095 193.769L270.822 187.496C269.716 186.39 269.095 184.89 269.095 183.327C269.095 181.763 269.717 180.264 270.822 179.158C271.928 178.053 273.428 177.432 274.991 177.432C276.555 177.432 278.054 178.053 279.16 179.159L289.601 189.6C290.149 190.147 290.583 190.797 290.879 191.513C291.176 192.228 291.328 192.994 291.328 193.769C291.328 194.543 291.176 195.309 290.879 196.025C290.583 196.74 290.149 197.39 289.601 197.937L279.16 208.379C278.613 208.927 277.964 209.362 277.248 209.659C276.533 209.955 275.765 210.108 274.991 210.107ZM251.153 210.107C249.987 210.107 248.847 209.761 247.878 209.114C246.908 208.466 246.152 207.545 245.706 206.468C245.26 205.39 245.143 204.205 245.37 203.061C245.598 201.917 246.16 200.867 246.984 200.042L253.258 193.769L246.984 187.496C246.437 186.948 246.003 186.298 245.706 185.583C245.41 184.868 245.258 184.101 245.258 183.327C245.258 182.553 245.41 181.786 245.707 181.071C246.003 180.355 246.437 179.706 246.985 179.158C247.532 178.611 248.182 178.177 248.898 177.88C249.613 177.584 250.38 177.432 251.154 177.432C251.928 177.432 252.695 177.584 253.41 177.881C254.125 178.177 254.775 178.611 255.322 179.159L265.764 189.6C266.311 190.147 266.746 190.797 267.042 191.513C267.338 192.228 267.491 192.994 267.491 193.769C267.491 194.543 267.338 195.309 267.042 196.025C266.746 196.74 266.311 197.39 265.764 197.937L255.322 208.379C254.776 208.927 254.126 209.362 253.41 209.659C252.695 209.955 251.928 210.108 251.153 210.107Z" fill="#56988C"/>
<path d="M403.347 259.709H394.851C390.559 259.709 387.081 256.23 387.081 251.938C387.081 247.647 390.559 244.168 394.851 244.168H403.347C405.408 244.168 407.384 244.987 408.841 246.444C410.299 247.901 411.117 249.878 411.117 251.938C411.117 253.999 410.299 255.976 408.841 257.433C407.384 258.89 405.408 259.709 403.347 259.709Z" fill="#E7E7E7"/>
<path d="M422.301 351.414C430.974 351.414 438.004 344.425 438.004 335.805C438.004 327.184 430.974 320.195 422.301 320.195C413.629 320.195 406.599 327.184 406.599 335.805C406.599 344.425 413.629 351.414 422.301 351.414Z" fill="#C8C3CA"/>
<path d="M203.295 351.414C211.967 351.414 218.997 344.425 218.997 335.805C218.997 327.184 211.967 320.195 203.295 320.195C194.623 320.195 187.592 327.184 187.592 335.805C187.592 344.425 194.623 351.414 203.295 351.414Z" fill="#C8C3CA"/>
<path d="M68.332 351.414C77.0042 351.414 84.0344 344.425 84.0344 335.805C84.0344 327.184 77.0042 320.195 68.332 320.195C59.6597 320.195 52.6295 327.184 52.6295 335.805C52.6295 344.425 59.6597 351.414 68.332 351.414Z" fill="#C8C3CA"/>
<path d="M487.662 209.189L457.313 177.518H400.927C399.109 177.518 397.366 178.24 396.081 179.525C394.796 180.81 394.074 182.553 394.074 184.37V217.133C394.074 218.951 394.796 220.694 396.081 221.979C397.366 223.264 399.109 223.986 400.927 223.986H490.601V216.504C490.602 213.778 489.549 211.157 487.662 209.189Z" fill="#BED9FD"/>
<path d="M487.662 209.189L457.312 177.518H426.23L456.58 209.189C458.466 211.157 459.519 213.778 459.52 216.504V223.986H490.601V216.504C490.602 213.778 489.549 211.157 487.662 209.189Z" fill="#9EC8FC"/>
</g>
</g>
<defs>
<clipPath id="clip0_183_447">
<rect width="512" height="512" fill="white"/>
</clipPath>
<clipPath id="clip1_183_447">
<rect width="512" height="512" fill="white"/>
</clipPath>
</defs>
</svg>
