<svg width="512" height="512" viewBox="0 0 512 512" fill="none" xmlns="http://www.w3.org/2000/svg">
<g clip-path="url(#clip0_183_541)">
<g clip-path="url(#clip1_183_541)">
<path fill-rule="evenodd" clip-rule="evenodd" d="M353.597 339.97C307.517 338.888 261.118 354.073 214.533 378.602C166.238 339.651 81.846 330.802 49.168 350.488L129.996 244.07C140.679 229.988 151.826 202.245 152.681 177.562C152.722 176.604 152.743 175.646 152.743 174.688L152.774 162.109L152.836 136.365L152.867 120.912L152.929 95.1569L152.97 79.7039L153.073 35.9209H257.698L258.017 174.686C258.079 200.059 269.668 229.44 280.794 244.069L353.597 339.97Z" fill="#F9F7F8"/>
<path fill-rule="evenodd" clip-rule="evenodd" d="M15.4429 411.749C121.911 426.35 175.7 386.635 214.537 349.403C166.238 310.447 81.8459 330.801 49.1699 350.483L36.0299 367.771C26.8899 379.831 19.6769 395.367 15.4429 411.749Z" fill="#A1D4FF"/>
<path fill-rule="evenodd" clip-rule="evenodd" d="M72.8819 512H337.883C360.31 512 375.786 503.94 385.656 491.383C408.17 455.698 392.255 392.855 375.64 368.997L353.593 339.97C299.892 309.103 261.113 324.873 214.536 349.402C165.595 375.187 108.039 410.639 15.4419 411.748C3.29492 458.414 14.9759 512 72.8819 512Z" fill="#22A6FE"/>
<path fill-rule="evenodd" clip-rule="evenodd" d="M477.321 73.2363V267.116C463.269 276.491 440.492 276.491 426.482 267.116C412.43 257.741 389.684 257.741 375.643 267.116V73.2363H477.321Z" fill="#F9F7F8"/>
<path fill-rule="evenodd" clip-rule="evenodd" d="M375.641 83.547H479.423C491.22 83.547 500.886 73.151 500.886 60.448C500.886 47.716 491.22 37.32 479.423 37.32H373.538C361.711 37.32 352.075 47.716 352.075 60.448C352.075 73.151 361.711 83.547 373.538 83.547H375.641ZM153.069 46.227H262.398C275.13 46.227 285.525 35.831 285.525 23.099C285.526 10.396 275.101 0 262.398 0H148.367C135.664 0 125.24 10.396 125.24 23.099C125.24 35.831 135.636 46.227 148.367 46.227H153.069ZM184.986 258.876C184.986 270.148 194.126 279.288 205.369 279.288C216.641 279.288 225.781 270.148 225.781 258.876C225.781 247.604 216.641 238.493 205.369 238.493C194.126 238.493 184.986 247.604 184.986 258.876ZM254.251 436.367C254.251 453.655 268.268 467.672 285.526 467.672C302.813 467.672 316.83 453.655 316.83 436.367C316.83 419.079 302.813 405.092 285.526 405.092C268.268 405.091 254.251 419.079 254.251 436.367ZM109.179 472.928C119.691 472.928 128.218 464.401 128.218 453.888C128.218 443.404 119.691 434.877 109.179 434.877C98.6669 434.877 90.1399 443.404 90.1399 453.888C90.1399 464.401 98.6669 472.928 109.179 472.928Z" fill="#A1D4FF"/>
<path fill-rule="evenodd" clip-rule="evenodd" d="M258.018 174.687L257.697 46.2266H225.4L225.721 174.687C225.779 200.064 237.372 229.441 248.498 244.071L309.032 323.822C322.961 325.749 337.62 330.801 353.593 339.971L280.794 244.071C269.669 229.441 258.076 200.063 258.018 174.687Z" fill="#DDDAEC"/>
<path fill-rule="evenodd" clip-rule="evenodd" d="M374.735 367.771L353.593 339.971C337.62 330.802 322.961 325.75 309.032 323.822L321.326 339.971C352.864 381.554 360.66 512 290.899 512H337.884C360.311 512 375.787 503.94 385.657 491.383C379.379 482.914 375.641 472.46 375.641 461.159V368.997L374.735 367.771Z" fill="#0593FC"/>
<path fill-rule="evenodd" clip-rule="evenodd" d="M285.526 23.099C285.526 10.396 275.101 0 262.398 0H230.189C242.862 0.029 253.229 10.425 253.229 23.099C253.229 35.831 242.833 46.227 230.102 46.227H262.398C275.13 46.227 285.526 35.831 285.526 23.099Z" fill="#80B4FB"/>
<path fill-rule="evenodd" clip-rule="evenodd" d="M477.32 256.803V83.5469H451.214V263.812C460.616 263.928 470.107 261.592 477.32 256.803Z" fill="#DDDAEC"/>
<path fill-rule="evenodd" clip-rule="evenodd" d="M500.885 60.4483C500.885 47.7163 491.219 37.3203 479.422 37.3203H453.374C465.142 37.3493 474.779 47.7453 474.779 60.4483C474.779 73.1513 465.113 83.5473 453.316 83.5473H479.422C491.219 83.5473 500.885 73.1513 500.885 60.4483Z" fill="#80B4FB"/>
<path fill-rule="evenodd" clip-rule="evenodd" d="M375.641 368.997V461.159C375.641 472.46 379.379 482.915 385.657 491.383C394.738 503.59 409.164 511.65 425.4 512H427.561C455.01 511.416 477.32 488.755 477.32 461.159V256.803C463.274 266.177 440.497 266.177 426.481 256.803C412.435 247.429 389.687 247.429 375.642 256.803V368.997H375.641Z" fill="#EB5468"/>
<path fill-rule="evenodd" clip-rule="evenodd" d="M426.48 349.198C436.525 349.198 444.672 341.051 444.672 331.005C444.672 320.93 436.525 312.783 426.48 312.783C416.406 312.783 408.258 320.93 408.258 331.005C408.259 341.051 416.406 349.198 426.48 349.198Z" fill="#A1D4FF"/>
<path fill-rule="evenodd" clip-rule="evenodd" d="M477.32 461.159V256.803C470.107 261.592 460.617 263.928 451.214 263.812V461.16C451.214 484.609 435.095 504.496 413.428 510.307C417.337 511.35 421.356 511.918 425.401 512.001H427.562C455.01 511.416 477.32 488.755 477.32 461.159Z" fill="#E5384F"/>
<path d="M166.209 424.995C164.679 424.996 163.183 424.542 161.911 423.691C160.639 422.84 159.648 421.63 159.065 420.216C158.481 418.801 158.331 417.245 158.633 415.745C158.935 414.245 159.675 412.868 160.761 411.789L160.849 411.701C162.307 410.281 164.267 409.494 166.302 409.51C168.337 409.526 170.284 410.345 171.719 411.788C173.155 413.232 173.962 415.183 173.967 417.219C173.972 419.254 173.173 421.209 171.745 422.659L171.657 422.747C170.211 424.189 168.251 424.998 166.209 424.995ZM229.284 400.261C227.755 400.262 226.261 399.809 224.99 398.96C223.719 398.111 222.728 396.904 222.144 395.492C221.559 394.08 221.406 392.526 221.704 391.027C222.003 389.528 222.74 388.152 223.821 387.071L223.909 386.983C225.363 385.56 227.32 384.768 229.355 384.778C231.39 384.789 233.339 385.603 234.778 387.041C236.216 388.48 237.03 390.429 237.041 392.464C237.052 394.499 236.259 396.456 234.836 397.91L234.748 397.998C234.031 398.717 233.179 399.286 232.241 399.675C231.304 400.063 230.299 400.262 229.284 400.261ZM414.537 404.437C413.008 404.438 411.514 403.985 410.243 403.136C408.972 402.287 407.981 401.08 407.397 399.668C406.812 398.256 406.659 396.702 406.957 395.203C407.256 393.704 407.993 392.328 409.074 391.247L409.162 391.159C410.616 389.736 412.573 388.944 414.608 388.954C416.643 388.965 418.592 389.779 420.031 391.218C421.469 392.656 422.283 394.605 422.294 396.64C422.305 398.675 421.512 400.632 420.089 402.086L420 402.174C419.283 402.893 418.432 403.462 417.494 403.851C416.557 404.239 415.552 404.438 414.537 404.437ZM431.006 463.454C429.476 463.455 427.98 463.001 426.708 462.15C425.436 461.299 424.445 460.089 423.862 458.675C423.278 457.26 423.128 455.704 423.43 454.204C423.732 452.704 424.472 451.327 425.558 450.248L425.646 450.16C427.104 448.74 429.064 447.953 431.099 447.969C433.134 447.985 435.081 448.804 436.516 450.247C437.952 451.691 438.759 453.642 438.764 455.678C438.769 457.713 437.97 459.668 436.542 461.118L436.454 461.206C435.008 462.648 433.048 463.457 431.006 463.454Z" fill="#A1D4FF"/>
<path d="M194.372 87.4311C194.372 88.4458 194.173 89.4507 193.785 90.3883C193.397 91.3259 192.828 92.1778 192.11 92.8954C191.393 93.6129 190.541 94.182 189.603 94.5701C188.666 94.9581 187.661 95.1576 186.646 95.1571H152.928L152.969 79.7041H186.646C187.661 79.7038 188.666 79.9035 189.603 80.2918C190.541 80.68 191.392 81.2492 192.11 81.9668C192.827 82.6843 193.397 83.5363 193.785 84.4739C194.173 85.4115 194.372 86.4163 194.372 87.4311ZM194.372 128.639C194.372 129.654 194.173 130.659 193.785 131.596C193.397 132.534 192.828 133.386 192.11 134.103C191.393 134.821 190.541 135.39 189.603 135.778C188.666 136.166 187.661 136.366 186.646 136.365H152.835L152.866 120.912H186.646C187.661 120.911 188.666 121.11 189.604 121.498C190.542 121.885 191.395 122.455 192.112 123.172C192.83 123.89 193.399 124.743 193.787 125.681C194.175 126.619 194.373 127.624 194.372 128.639ZM194.372 169.836C194.373 170.851 194.174 171.856 193.787 172.794C193.399 173.732 192.83 174.584 192.112 175.302C191.394 176.02 190.542 176.589 189.604 176.977C188.666 177.364 187.661 177.563 186.646 177.562H152.68C152.721 176.605 152.742 175.646 152.742 174.688L152.773 162.109H186.645C187.66 162.109 188.665 162.308 189.603 162.696C190.54 163.084 191.392 163.653 192.11 164.371C192.828 165.089 193.397 165.941 193.785 166.878C194.173 167.816 194.372 168.821 194.372 169.836ZM416.953 124.755C416.952 126.804 416.138 128.769 414.689 130.217C413.24 131.666 411.276 132.48 409.227 132.481H375.643V117.028H409.227C410.242 117.028 411.247 117.228 412.184 117.616C413.122 118.004 413.973 118.573 414.691 119.291C415.408 120.008 415.978 120.86 416.366 121.798C416.754 122.735 416.953 123.74 416.953 124.755ZM416.953 165.952C416.953 166.967 416.754 167.972 416.366 168.909C415.978 169.847 415.409 170.699 414.691 171.416C413.974 172.134 413.122 172.703 412.184 173.091C411.247 173.479 410.242 173.679 409.227 173.678H375.643V158.225H409.227C411.276 158.226 413.241 159.041 414.689 160.49C416.138 161.938 416.952 163.903 416.953 165.952ZM416.953 207.19C416.952 209.239 416.138 211.204 414.689 212.652C413.24 214.101 411.276 214.915 409.227 214.916H375.643V199.463H409.227C411.276 199.464 413.241 200.279 414.689 201.728C416.138 203.176 416.952 205.141 416.953 207.19Z" fill="#2B4D66"/>
</g>
</g>
<defs>
<clipPath id="clip0_183_541">
<rect width="512" height="512" fill="white"/>
</clipPath>
<clipPath id="clip1_183_541">
<rect width="512" height="512" fill="white"/>
</clipPath>
</defs>
</svg>
