<svg width="512" height="512" viewBox="0 0 512 512" fill="none" xmlns="http://www.w3.org/2000/svg">
<g clip-path="url(#clip0_183_1105)">
<path d="M368 160L384 136L392 144L408 136L424 168L384 184L368 176V160ZM128 200H104L88 208V232L128 224L136 208L128 200Z" fill="#EEB58E"/>
<path d="M216 128H211.088C207.831 128 204.652 128.994 201.975 130.849C199.298 132.704 197.251 135.332 196.107 138.382L176 192L128 200V224H184C186.484 224 188.934 223.422 191.155 222.311C193.377 221.2 195.31 219.587 196.8 217.6L216 192L224 184L216 128ZM296 128H299.931C303.407 128 306.79 129.131 309.565 131.224C312.341 133.317 314.36 136.258 315.316 139.6L328 184L368 160L384 184L332.462 216.211C329.063 218.336 324.99 219.107 321.049 218.372C317.108 217.637 313.587 215.45 311.182 212.243L296 192L288 176L296 128Z" fill="#C7463B"/>
<path d="M296 256V271.5C296 277.069 297.453 282.541 300.216 287.376L323 327.245C324.498 329.866 325.224 332.858 325.093 335.874C324.963 338.891 323.982 341.809 322.263 344.291L256 440L293.274 343.088C294.126 340.873 294.474 338.496 294.294 336.13C294.114 333.763 293.41 331.467 292.232 329.406L264 280V248L296 256Z" fill="#3775A4"/>
<path d="M400 112C398.949 112.001 397.908 111.795 396.938 111.393C395.967 110.991 395.085 110.401 394.343 109.657L378.343 93.6567C376.843 92.1563 376 90.1214 376 87.9997C376 85.8779 376.843 83.843 378.343 82.3427C379.843 80.8423 381.878 79.9995 384 79.9995C386.122 79.9995 388.157 80.8423 389.657 82.3427L405.657 98.3427C406.776 99.4615 407.538 100.887 407.847 102.439C408.155 103.991 407.997 105.599 407.391 107.061C406.786 108.523 405.76 109.772 404.445 110.652C403.129 111.531 401.582 112 400 112ZM429.221 105.342C428.17 105.343 427.129 105.137 426.158 104.735C425.187 104.333 424.305 103.743 423.563 103L407.563 86.9997C406.063 85.4992 405.22 83.4642 405.22 81.3423C405.22 79.2204 406.063 77.1855 407.563 75.6852C409.064 74.1848 411.099 73.342 413.221 73.3421C415.343 73.3422 417.378 74.1852 418.878 75.6857L434.878 91.6857C435.997 92.8045 436.759 94.23 437.068 95.7819C437.376 97.3337 437.218 98.9423 436.612 100.404C436.007 101.866 434.981 103.115 433.666 103.995C432.35 104.874 430.803 105.342 429.221 105.342ZM168.255 71.5997C166.442 71.6018 164.681 70.9878 163.263 69.8583C161.844 68.7288 160.851 67.1508 160.447 65.3831C160.042 63.6153 160.251 61.7626 161.038 60.1288C161.824 58.4949 163.143 57.1769 164.777 56.3907L185.164 46.5717C186.111 46.1119 187.139 45.8435 188.19 45.7819C189.241 45.7204 190.294 45.8668 191.288 46.2129C192.282 46.5589 193.198 47.0978 193.984 47.7986C194.769 48.4994 195.409 49.3483 195.866 50.2967C196.322 51.2451 196.588 52.2744 196.646 53.3255C196.704 54.3765 196.554 55.4288 196.205 56.4219C195.856 57.415 195.314 58.3294 194.611 59.1127C193.908 59.896 193.057 60.5328 192.107 60.9867L171.721 70.8057C170.64 71.328 169.455 71.5994 168.255 71.5997ZM171.62 41.8207C169.806 41.8231 168.046 41.2091 166.627 40.0795C165.208 38.9498 164.215 37.3716 163.811 35.6035C163.406 33.8354 163.615 31.9824 164.402 30.3485C165.189 28.7145 166.508 27.3965 168.143 26.6107L188.528 16.7917C190.44 15.8708 192.639 15.7471 194.642 16.4478C196.645 17.1484 198.287 18.616 199.208 20.5277C200.129 22.4393 200.253 24.6385 199.552 26.6414C198.851 28.6443 197.384 30.2868 195.472 31.2077L175.086 41.0257C174.005 41.5483 172.82 41.82 171.62 41.8207ZM98.679 148.8C97.4015 148.799 96.1428 148.492 95.0081 147.905C93.8734 147.318 92.8957 146.468 92.1565 145.426C91.4174 144.384 90.9383 143.181 90.7594 141.916C90.5805 140.651 90.7068 139.362 91.128 138.156L98.6 116.8C98.9341 115.792 99.4655 114.861 100.163 114.061C100.861 113.26 101.711 112.607 102.663 112.138C103.616 111.67 104.652 111.396 105.712 111.332C106.772 111.268 107.834 111.416 108.836 111.766C109.838 112.117 110.76 112.664 111.549 113.374C112.338 114.085 112.977 114.946 113.43 115.906C113.882 116.866 114.139 117.907 114.186 118.968C114.232 120.028 114.067 121.087 113.7 122.084L106.228 143.442C105.68 145.007 104.66 146.364 103.307 147.323C101.955 148.283 100.337 148.799 98.679 148.8ZM80 125.36C78.7222 125.36 77.4629 125.054 76.3275 124.468C75.1922 123.881 74.2139 123.031 73.4744 121.989C72.7349 120.947 72.2559 119.743 72.0773 118.478C71.8987 117.212 72.0258 115.923 72.448 114.717L79.92 93.3577C80.6458 91.3882 82.1165 89.7829 84.015 88.8878C85.9135 87.9927 88.0877 87.8796 90.0689 88.5729C92.05 89.2662 93.6793 90.7103 94.6055 92.5938C95.5317 94.4773 95.6805 96.6494 95.02 98.6417L87.552 120C87.0044 121.566 85.9835 122.923 84.6304 123.884C83.2774 124.844 81.6592 125.36 80 125.36Z" fill="#C0F5F9"/>
<path d="M256 488C295.765 488 328 455.765 328 416C328 376.235 295.765 344 256 344C216.235 344 184 376.235 184 416C184 455.765 216.235 488 256 488Z" fill="#EAEAE8"/>
<path d="M208 456L264 472L272 456L256 440L216 432L208 456Z" fill="#C3C3C3"/>
<path d="M256 496C240.178 496 224.71 491.308 211.554 482.518C198.398 473.727 188.145 461.233 182.09 446.615C176.035 431.997 174.45 415.911 177.537 400.393C180.624 384.874 188.243 370.62 199.432 359.432C210.62 348.243 224.874 340.624 240.393 337.537C255.911 334.45 271.997 336.035 286.615 342.09C301.233 348.145 313.727 358.398 322.518 371.554C331.308 384.71 336 400.178 336 416C335.976 437.21 327.54 457.544 312.542 472.542C297.544 487.54 277.21 495.976 256 496ZM256 352C243.342 352 230.968 355.754 220.444 362.786C209.919 369.818 201.716 379.814 196.872 391.508C192.028 403.203 190.76 416.071 193.23 428.486C195.699 440.901 201.795 452.304 210.745 461.255C219.696 470.205 231.099 476.301 243.514 478.77C255.929 481.24 268.797 479.972 280.492 475.128C292.186 470.284 302.182 462.081 309.214 451.557C316.247 441.032 320 428.658 320 416C319.981 399.032 313.232 382.764 301.234 370.766C289.236 358.768 272.968 352.019 256 352Z" fill="#C7463B"/>
<path d="M216 248V266.54C216 275.294 218.735 283.829 223.823 290.952L256 336L216 432L256 440L293.274 343.088C294.126 340.873 294.474 338.496 294.294 336.13C294.114 333.763 293.41 331.467 292.232 329.406L264 280V248H216Z" fill="#428DC5"/>
<path d="M248 40H264C268.243 40 272.313 41.6857 275.314 44.6863C278.314 47.6869 280 51.7565 280 56V80H232V56C232 51.7565 233.686 47.6869 236.686 44.6863C239.687 41.6857 243.757 40 248 40Z" fill="#744630"/>
<path d="M232 80H280V104C280 110.365 277.471 116.47 272.971 120.971C268.47 125.471 262.365 128 256 128C249.635 128 243.53 125.471 239.029 120.971C234.529 116.47 232 110.365 232 104V80Z" fill="#EEB58E"/>
<path d="M296 256H216V232L224 224L216 216V200L224 192L216 184V128H296V184L288 192L296 200V216L288 224L296 232V256Z" fill="#EAEAE8"/>
<path d="M88 168C96.8366 168 104 160.837 104 152C104 143.163 96.8366 136 88 136C79.1634 136 72 143.163 72 152C72 160.837 79.1634 168 88 168Z" fill="#FBB540"/>
<path d="M144 96C157.255 96 168 85.2548 168 72C168 58.7452 157.255 48 144 48C130.745 48 120 58.7452 120 72C120 85.2548 130.745 96 144 96Z" fill="#99D8AA"/>
<path d="M376 96C384.837 96 392 88.8366 392 80C392 71.1634 384.837 64 376 64C367.163 64 360 71.1634 360 80C360 88.8366 367.163 96 376 96Z" fill="#C7463B"/>
<path d="M208 152H304V168H208V152ZM216 184H296V200H216V184ZM216 216H296V232H216V216Z" fill="#C7463B"/>
<path d="M304 88H208C205.878 88 203.843 87.1571 202.343 85.6569C200.843 84.1566 200 82.1217 200 80C200 77.8783 200.843 75.8434 202.343 74.3431C203.843 72.8429 205.878 72 208 72H304C306.122 72 308.157 72.8429 309.657 74.3431C311.157 75.8434 312 77.8783 312 80C312 82.1217 311.157 84.1566 309.657 85.6569C308.157 87.1571 306.122 88 304 88Z" fill="#5B3726"/>
</g>
<defs>
<clipPath id="clip0_183_1105">
<rect width="512" height="512" fill="white"/>
</clipPath>
</defs>
</svg>
