<svg width="512" height="512" viewBox="0 0 512 512" fill="none" xmlns="http://www.w3.org/2000/svg">
<g clip-path="url(#clip0_170_5879)">
<g clip-path="url(#clip1_170_5879)">
<path d="M243.829 330.196L214.919 301.286C214.549 300.907 214.108 300.606 213.621 300.4C213.134 300.193 212.611 300.085 212.082 300.082C211.553 300.079 211.028 300.181 210.539 300.382C210.049 300.583 209.605 300.879 209.231 301.253C208.857 301.627 208.56 302.072 208.359 302.561C208.158 303.051 208.056 303.575 208.059 304.104C208.062 304.633 208.17 305.156 208.376 305.643C208.583 306.13 208.884 306.572 209.262 306.942L238.172 335.852C238.953 336.633 239.977 337.024 241.001 337.024C242.025 337.024 243.048 336.633 243.83 335.852C244.58 335.101 245.001 334.084 245.001 333.024C245 331.963 244.579 330.946 243.829 330.196Z" fill="#F29A2E"/>
<path d="M244.347 329.677L237.652 336.371C237.349 336.674 237.108 337.034 236.944 337.43C236.779 337.827 236.695 338.252 236.695 338.68C236.695 339.109 236.779 339.534 236.944 339.93C237.108 340.327 237.349 340.687 237.652 340.99L269.284 372.622L280.598 361.308L248.966 329.677C248.353 329.065 247.523 328.721 246.657 328.721C245.79 328.721 244.96 329.065 244.347 329.677Z" fill="#1DB6F2"/>
<path d="M280 356.024C271.163 356.024 264 363.188 264 372.024V393.024H296V372.024C296 363.188 288.837 356.024 280 356.024Z" fill="#1689B5"/>
<path d="M128 395.138V412.912C128 414.799 128.749 416.608 130.083 417.942C131.417 419.276 133.227 420.025 135.113 420.025H376V388.025H135.113C134.179 388.025 133.254 388.209 132.391 388.567C131.528 388.924 130.744 389.448 130.083 390.108C129.423 390.769 128.899 391.553 128.541 392.416C128.184 393.279 128 394.204 128 395.138Z" fill="#F29A2E"/>
<path d="M496.887 420.024H372V257.496C372 250.056 378.031 244.024 385.472 244.024H463.326C465.913 244.024 468.444 244.769 470.619 246.17C472.794 247.57 474.52 249.567 475.59 251.921L510.646 329.044C511.539 331.008 512.001 333.141 512.001 335.298V404.911C512 413.258 505.234 420.024 496.887 420.024Z" fill="#D94929"/>
<path d="M476.792 356.024H427.207C425.295 356.024 423.462 355.265 422.11 353.913C420.758 352.561 419.999 350.728 419.999 348.816V266.646C419.999 264.89 420.697 263.205 421.939 261.963C423.181 260.721 424.866 260.023 426.622 260.023H455.906C457.136 260.023 458.342 260.366 459.388 261.012C460.434 261.659 461.279 262.584 461.829 263.684L481.815 303.655C483.251 306.528 483.999 309.695 483.999 312.906V348.815C483.999 349.762 483.813 350.699 483.451 351.574C483.089 352.449 482.558 353.243 481.889 353.913C481.22 354.582 480.425 355.113 479.551 355.476C478.676 355.838 477.739 356.024 476.792 356.024Z" fill="#E16D54"/>
<path d="M420 300.024H480L461.83 263.685C461.28 262.585 460.435 261.66 459.389 261.014C458.342 260.367 457.137 260.024 455.907 260.024H426.623C424.866 260.024 423.182 260.722 421.94 261.964C420.698 263.206 420 264.891 420 266.647V300.024Z" fill="#77D3F7"/>
<path d="M290.995 200.226L236.77 146C234.268 143.491 231.067 141.798 227.585 141.142L222.86 106.656L266.711 62.804C267.089 62.4341 267.39 61.9928 267.597 61.5057C267.803 61.0186 267.911 60.4954 267.914 59.9664C267.917 59.4373 267.815 58.913 267.614 58.4236C267.413 57.9343 267.116 57.4897 266.742 57.1157C266.368 56.7416 265.924 56.4455 265.434 56.2444C264.945 56.0434 264.42 55.9414 263.891 55.9444C263.362 55.9474 262.839 56.0553 262.352 56.2619C261.865 56.4685 261.424 56.7697 261.054 57.148L215.799 102.403C215.363 102.839 215.033 103.371 214.837 103.956C214.64 104.54 214.581 105.163 214.665 105.774L219.558 141.483C216.624 142.291 213.95 143.848 211.799 146.001L61.407 296.392C54.511 303.288 54.511 314.467 61.407 321.363L115.632 375.589C122.528 382.485 133.707 382.485 140.603 375.589L290.995 225.197C297.89 218.301 297.89 207.121 290.995 200.226Z" fill="#1DB6F2"/>
<path d="M211.546 169.42L84.827 296.139C80.174 300.792 80.174 308.335 84.827 312.988L124.007 352.168C128.66 356.821 136.203 356.821 140.856 352.168L267.576 225.449C272.229 220.796 272.229 213.253 267.576 208.6L228.396 169.42C223.742 164.767 216.199 164.767 211.546 169.42Z" fill="#77D3F7"/>
<path d="M452 456.024C474.091 456.024 492 438.116 492 416.024C492 393.933 474.091 376.024 452 376.024C429.909 376.024 412 393.933 412 416.024C412 438.116 429.909 456.024 452 456.024Z" fill="#8F5420"/>
<path d="M216 456.024C238.091 456.024 256 438.116 256 416.024C256 393.933 238.091 376.024 216 376.024C193.909 376.024 176 393.933 176 416.024C176 438.116 193.909 456.024 216 456.024Z" fill="#8F5420"/>
<path d="M87.604 456.024H0L20.069 400.689C21.0931 397.866 23.1319 395.524 25.788 394.121L55.59 378.382C56.9946 377.641 58.2391 376.629 59.2525 375.406C60.2659 374.183 61.0283 372.772 61.496 371.254L73.232 333.188L119.723 379.678L90.868 453.79C90.6127 454.449 90.1643 455.014 89.5818 455.413C88.9993 455.811 88.3099 456.025 87.604 456.024Z" fill="#BF702A"/>
<path d="M452 438.024C464.15 438.024 474 428.175 474 416.024C474 403.874 464.15 394.024 452 394.024C439.85 394.024 430 403.874 430 416.024C430 428.175 439.85 438.024 452 438.024Z" fill="#F5AE58"/>
<path d="M216 438.024C228.15 438.024 238 428.175 238 416.024C238 403.874 228.15 394.024 216 394.024C203.85 394.024 194 403.874 194 416.024C194 428.175 203.85 438.024 216 438.024Z" fill="#F5AE58"/>
</g>
</g>
<defs>
<clipPath id="clip0_170_5879">
<rect width="512" height="512" fill="white"/>
</clipPath>
<clipPath id="clip1_170_5879">
<rect width="512" height="512" fill="white"/>
</clipPath>
</defs>
</svg>
