<svg width="512" height="512" viewBox="0 0 512 512" fill="none" xmlns="http://www.w3.org/2000/svg">
<g clip-path="url(#clip0_183_823)">
<path d="M162.18 8C155.182 8 148.342 10.075 142.524 13.9626C136.706 17.8502 132.171 23.3758 129.493 29.8407C126.815 36.3055 126.115 43.4192 127.48 50.2823C128.845 57.1453 132.215 63.4495 137.163 68.3974C142.11 73.3454 148.415 76.715 155.278 78.0802C162.141 79.4453 169.254 78.7447 175.719 76.0669C182.184 73.389 187.71 68.8543 191.597 63.0361C195.485 57.2179 197.56 50.3775 197.56 43.38C197.56 33.9966 193.832 24.9976 187.197 18.3626C180.562 11.7275 171.563 8 162.18 8Z" fill="#6B4932"/>
<path d="M170.136 287.2C181.576 259.296 172.772 219.228 172.772 219.228L240.928 226.628C240.928 226.628 232.128 266.696 243.564 294.6L170.136 287.2Z" fill="#F4BE78"/>
<path d="M313.028 422.436C313.028 422.436 315.192 433.696 301.052 460.864C297.854 466.938 295.597 473.461 294.356 480.212C292.702 488.115 293.131 496.312 295.6 504H138.448C142.984 486.504 132.668 453.828 125.58 434.664C119.497 418.661 115.917 401.817 114.964 384.724C111.472 309.676 155.024 277.924 155.024 277.924C161.016 274.155 165.268 268.164 166.848 261.264C167.131 260.133 167.828 259.148 168.801 258.504C169.773 257.86 170.952 257.603 172.104 257.784C185.088 259.784 222.944 267.488 248.384 291.892C249.29 292.781 249.81 293.991 249.832 295.26C250.322 311.127 255.738 326.449 265.328 339.1L313.028 422.436Z" fill="#3A697B"/>
<path d="M253.084 315.112C224.63 293.586 190.596 280.675 155.024 277.912C161.016 274.144 165.268 268.152 166.848 261.252C167.131 260.121 167.828 259.136 168.801 258.492C169.773 257.848 170.952 257.592 172.104 257.772C185.088 259.772 222.948 267.476 248.384 291.884C249.287 292.757 249.808 293.952 249.832 295.208C250.066 301.954 251.158 308.643 253.084 315.112Z" fill="#6A8E9C"/>
<path d="M211.476 242.136C249.44 242.136 280.216 204.479 280.216 158.028C280.216 111.576 249.44 73.9199 211.476 73.9199C173.512 73.9199 142.736 111.576 142.736 158.028C142.736 204.479 173.512 242.136 211.476 242.136Z" fill="#FDC87A"/>
<path d="M296.94 269.9C297.098 276.139 295.743 282.323 292.992 287.924C291.1 276.139 285.051 265.42 275.94 257.708C275.94 257.708 257.14 244.752 268.74 228.392C271.737 224.442 273.888 219.915 275.056 215.096C276.147 211.313 276.331 207.326 275.591 203.459C274.852 199.591 273.21 195.953 270.8 192.84C267.591 189.103 265.705 184.412 265.435 179.494C265.164 174.576 266.524 169.706 269.304 165.64C270.28 164.115 270.873 162.376 271.032 160.572L271.056 160.22C271.112 158.254 270.618 156.311 269.628 154.611C268.639 152.911 267.194 151.522 265.456 150.6C255.142 145.003 245.954 137.544 238.356 128.6C238.356 128.6 188.868 135.556 163.556 97.712C149.786 114.764 142.417 136.097 142.728 158.012C142.681 170.868 145.126 183.611 149.928 195.536C148.816 194.736 131.128 181.228 125.128 149.784C118.252 113.572 131.844 75.932 162.492 55.54C168.85 51.2876 175.748 47.9055 183.004 45.484C202.351 38.9756 223.366 39.439 242.408 46.7939C261.449 54.1487 277.319 67.9319 287.268 85.756C298.952 107.176 309.644 137.864 293.104 179.884C291.793 182.994 291.369 186.407 291.88 189.744C292.069 190.802 292.362 191.84 292.756 192.84C295.35 199.735 296.141 207.178 295.052 214.464C293.964 221.75 291.032 228.637 286.536 234.472C285.511 235.605 284.725 236.934 284.227 238.379C283.729 239.823 283.528 241.354 283.637 242.878C283.745 244.403 284.161 245.889 284.86 247.249C285.558 248.608 286.524 249.812 287.7 250.788C290.444 253.191 292.676 256.121 294.263 259.404C295.851 262.688 296.761 266.257 296.94 269.9Z" fill="#6B4932"/>
<path d="M237.94 45.252C234.444 45.412 138.092 50.976 126.8 157.028C126.164 154.72 125.6 152.336 125.132 149.792C118.256 113.58 131.848 75.94 162.496 55.548C168.854 51.2955 175.753 47.9135 183.008 45.492C200.82 39.5312 220.076 39.447 237.94 45.252Z" fill="#FD8087"/>
<path d="M236.612 12.46C228.041 12.46 219.822 15.8647 213.761 21.9251C207.701 27.9855 204.296 36.2052 204.296 44.776C212.867 44.776 221.086 41.3713 227.147 35.3108C233.207 29.2504 236.612 21.0307 236.612 12.46Z" fill="#FD8087"/>
<path d="M172 12.46C180.571 12.46 188.79 15.8647 194.851 21.9251C200.911 27.9855 204.316 36.2052 204.316 44.776C195.745 44.776 187.526 41.3713 181.465 35.3108C175.405 29.2504 172 21.0307 172 12.46Z" fill="#FD8087"/>
<path d="M362.156 211.452L336.044 359.452C325.721 357.369 315.514 354.75 305.464 351.604C283.843 344.707 262.951 335.705 243.088 324.728C166.94 283.464 152.52 331.2 152.52 331.2C152.52 331.2 126.048 381.284 225.14 412.4C273.229 424.276 322.76 429.267 372.252 427.224C377.435 427.094 382.446 425.335 386.572 422.196C392.12 417.768 397.576 409.36 397.216 393.44L395.456 207.668C395.436 205.948 395.36 204.248 395.224 202.528C393.9 187.592 393.991 172.566 395.496 157.648C395.819 155.515 395.384 153.337 394.268 151.492L384.452 135.516C383.682 134.264 382.62 133.217 381.357 132.466C380.094 131.714 378.668 131.28 377.2 131.2L347.124 129.6C345.358 129.506 343.603 129.93 342.075 130.82C340.547 131.71 339.311 133.026 338.52 134.608L332.832 146C332.696 146.261 332.469 146.463 332.194 146.568C331.919 146.672 331.615 146.672 331.34 146.568L324.748 143.932C323.197 143.311 321.479 143.253 319.89 143.769C318.301 144.284 316.943 145.339 316.052 146.752C315.285 147.968 314.903 149.388 314.955 150.825C315.007 152.262 315.491 153.65 316.344 154.808C321.639 162.433 328.071 169.202 335.416 174.88C336.635 175.713 337.486 176.983 337.792 178.428C339.016 183.848 343.252 197.044 356.076 200.992C356.388 201.086 356.694 201.201 356.992 201.336C358.853 202.209 360.371 203.678 361.306 205.509C362.241 207.341 362.54 209.431 362.156 211.452Z" fill="#FDC87A"/>
<path d="M225.14 412.4C126.048 381.292 152.52 331.2 152.52 331.2C152.52 331.2 169.144 277.3 257.148 332.036C257.148 332.044 209.4 351.96 225.14 412.4Z" fill="#6A8E9C"/>
</g>
<defs>
<clipPath id="clip0_183_823">
<rect width="512" height="512" fill="white"/>
</clipPath>
</defs>
</svg>
