<svg width="512" height="512" viewBox="0 0 512 512" fill="none" xmlns="http://www.w3.org/2000/svg">
<g clip-path="url(#clip0_183_964)">
<g clip-path="url(#clip1_183_964)">
<path d="M242.849 512C228.977 512 217.628 500.755 217.628 486.883V284.035C217.628 270.163 228.977 258.918 242.849 258.918C256.721 258.918 267.966 270.163 267.966 284.035V486.883C267.966 500.755 256.72 512 242.849 512Z" fill="#748488"/>
<path d="M358.954 170.965L338.023 180.454V286.608C338.023 298.168 347.394 307.539 358.954 307.539C370.514 307.539 379.885 298.168 379.885 286.608V180.455L358.954 170.965Z" fill="#FF7F49"/>
<path d="M295.789 83.4478L254.482 76.8828L253.1 79.6078C245.766 94.0708 255.386 111.803 271.577 112.701C272.014 112.725 272.454 112.738 272.898 112.738C287.091 112.738 298.232 100.135 296.232 86.0838L295.789 83.4478Z" fill="#BE4A1A"/>
<path d="M379.884 132.733C379.748 105.557 357.181 83.4481 329.58 83.4481H295.79C295.968 84.4653 296.081 85.4927 296.128 86.5241C296.658 98.3571 285.678 108.435 274.217 108.435C261.934 108.435 252.838 98.3961 252.307 86.5241C252.153 83.0951 252.972 79.8151 254.483 76.8831C237.91 73.9101 222.635 71.0631 222.635 71.0631C200.308 66.1521 176.954 76.6791 165.848 96.6651L152.406 120.857L190.513 139.251L202.775 117.185C204.918 113.329 209.246 111.371 213.562 112.321C214.715 112.575 215.746 113.214 216.486 114.134C217.225 115.054 217.628 116.199 217.628 117.379V284.036H329.245V125.31C333.63 125.31 337.979 128.926 338.022 132.907V180.455H379.884V132.839C379.885 132.804 379.885 132.768 379.884 132.733Z" fill="#E64937"/>
<path d="M304.068 512C290.125 512 278.861 500.697 278.861 486.754V343.63C278.861 329.687 290.125 318.384 304.068 318.384C318.011 318.384 329.245 329.687 329.245 343.63V486.754C329.245 500.697 318.011 512 304.068 512Z" fill="#46738C"/>
<path d="M278.86 283.925V380.902C278.86 394.82 290.182 406.103 304.1 406.103C318.018 406.103 329.244 394.82 329.244 380.902V261.278L278.86 283.925Z" fill="#55879B"/>
<path d="M316.738 281.117C315.29 281.117 313.901 281.693 312.876 282.717C311.852 283.741 311.277 285.13 311.277 286.578C311.277 288.027 311.852 289.416 312.876 290.44C313.901 291.464 315.29 292.039 316.738 292.039C318.186 292.039 319.575 291.464 320.6 290.44C321.624 289.416 322.199 288.027 322.199 286.578C322.199 285.13 321.624 283.741 320.6 282.717C319.575 281.693 318.186 281.117 316.738 281.117ZM304.101 384.881C302.653 384.881 301.264 385.457 300.24 386.481C299.215 387.505 298.64 388.894 298.64 390.342C298.64 391.791 299.215 393.18 300.24 394.204C301.264 395.228 302.653 395.803 304.101 395.803C305.549 395.803 306.938 395.228 307.963 394.204C308.987 393.18 309.562 391.791 309.562 390.342C309.562 388.894 308.987 387.505 307.963 386.481C306.938 385.457 305.549 384.881 304.101 384.881Z" fill="#B4D7DC"/>
<path d="M304.101 487.821C302.653 487.821 301.264 488.397 300.24 489.421C299.215 490.445 298.64 491.834 298.64 493.282C298.64 494.731 299.215 496.12 300.24 497.144C301.264 498.168 302.653 498.743 304.101 498.743C305.549 498.743 306.938 498.168 307.963 497.144C308.987 496.12 309.562 494.731 309.562 493.282C309.562 491.834 308.987 490.445 307.963 489.421C306.938 488.397 305.549 487.821 304.101 487.821Z" fill="#6C9BAA"/>
<path d="M149.821 230.926H217.181V246.428H149.821V230.926Z" fill="#55879B"/>
<path d="M176.983 324.039H192.485V493.087H176.983V324.039Z" fill="#87AFB9"/>
<path d="M192.26 512.001H177.208C175.778 512.001 174.406 511.432 173.395 510.421C172.384 509.41 171.816 508.039 171.816 506.609V495.578C171.816 494.147 172.384 492.776 173.395 491.765C174.406 490.754 175.778 490.186 177.208 490.186H192.26C193.69 490.186 195.061 490.754 196.073 491.765C197.084 492.776 197.652 494.147 197.652 495.578V506.609C197.652 507.317 197.513 508.018 197.242 508.672C196.971 509.326 196.574 509.921 196.073 510.422C195.572 510.922 194.978 511.319 194.324 511.59C193.669 511.861 192.968 512.001 192.26 512.001Z" fill="#46738C"/>
<path d="M317.958 50.7919C321.824 26.926 305.61 4.44544 281.744 0.580026C257.878 -3.28539 235.398 12.9281 231.532 36.7939C227.667 60.6598 243.88 83.1404 267.746 87.0058C291.612 90.8712 314.093 74.6577 317.958 50.7919Z" fill="#FF7F49"/>
<path d="M192.915 329.26C190.643 331.226 187.739 332.308 184.734 332.308C181.73 332.308 178.826 331.226 176.554 329.26L149.398 305.76C146.611 303.35 144.376 300.368 142.844 297.016C141.312 293.665 140.52 290.023 140.521 286.338V149.151C140.521 136.908 150.446 126.982 162.69 126.982H206.782C219.026 126.982 228.951 136.907 228.951 149.151V286.338C228.952 290.023 228.159 293.665 226.628 297.016C225.096 300.367 222.861 303.349 220.074 305.759V305.76L192.915 329.26ZM162.689 145.585C161.743 145.586 160.837 145.962 160.168 146.631C159.499 147.299 159.123 148.206 159.122 149.151V286.338C159.122 288.394 160.014 290.346 161.57 291.693L184.733 311.738L207.897 291.692C208.666 291.028 209.282 290.206 209.704 289.282C210.127 288.358 210.345 287.353 210.345 286.337V149.151C210.344 148.206 209.968 147.299 209.299 146.631C208.63 145.962 207.724 145.586 206.778 145.585H162.689Z" fill="#6C9BAA"/>
<path d="M161.5 250.344L133.303 169.827C132.317 167.013 131.939 164.021 132.192 161.049C132.446 158.078 133.326 155.194 134.774 152.586L149.001 126.983L170.042 133.39L185.992 147.386L176.307 164.816L201.37 236.382C205.226 247.392 199.426 259.443 188.416 263.298C177.455 267.137 165.372 261.4 161.5 250.344Z" fill="#FF7F49"/>
<path d="M149.001 126.983L162.287 103.074L199.677 122.758L185.992 147.385L149.001 126.983Z" fill="#E64937"/>
</g>
</g>
<defs>
<clipPath id="clip0_183_964">
<rect width="512" height="512" fill="white"/>
</clipPath>
<clipPath id="clip1_183_964">
<rect width="512" height="512" fill="white"/>
</clipPath>
</defs>
</svg>
