<svg width="512" height="512" viewBox="0 0 512 512" fill="none" xmlns="http://www.w3.org/2000/svg">
<g clip-path="url(#clip0_183_682)">
<path d="M456 305H56V25C56 14 65 5 76 5H436C447 5 456 14 456 25V305Z" fill="#B23998"/>
<path d="M426 285H86C80.5 285 76 280.5 76 275V35C76 29.5 80.5 25 86 25H426C431.5 25 436 29.5 436 35V275C436 280.5 431.5 285 426 285Z" fill="#F7971F"/>
<path d="M456 305H56L5 487C5 498 14 507 25 507H487C498 507 507 498 507 487L456 305Z" fill="#D8D6C1"/>
<path d="M324.4 487H187.6L193.1 415H318.9L324.4 487ZM440.3 395H71.7L87.8 325H424.2L440.3 395Z" fill="#B23998"/>
<path d="M424.2 325H87.8L71.7 395H440.2L424.2 325ZM109.4 385H79.1L81.4 375H111.1L109.4 385ZM112.9 365H83.7L86 355H114.7L112.9 365ZM116.5 345H88.3L90.6 335H118.3L116.5 345ZM149.9 385H119.6L121.4 375H151.2L149.9 385ZM152.4 365H123.1L124.9 355H153.7L152.4 365ZM155 345H126.7L128.5 335H156.3L155 345ZM190.3 385H159.9L161.2 375H191.1L190.3 385ZM191.9 365H162.5L163.8 355H192.7L191.9 365ZM193.4 345H165L166.3 335H194.1L193.4 345ZM230.8 385H200.4L201.2 375H231L230.8 385ZM231.3 365H201.9L202.7 355H231.6L231.3 365ZM231.8 345H203.4L204.2 335H232.1L231.8 345ZM242.1 335H270L270.3 345H241.9L242.1 335ZM241.6 355H270.5L270.8 365H241.4L241.6 355ZM240.8 385L241.1 375H271L271.3 385H240.8ZM279.9 335H307.8L308.6 345H280.2L279.9 335ZM280.5 355H309.4L310.2 365H280.8L280.5 355ZM281.2 385L280.9 375H310.8L311.6 385H281.2ZM317.9 335H345.7L347 345H318.7L317.9 335ZM319.4 355H348.3L349.6 365H320.2L319.4 355ZM321.7 385L320.9 375H350.8L352.1 385H321.7ZM355.8 335H383.6L385.4 345H357L355.8 335ZM358.3 355H387.1L388.9 365H359.6L358.3 355ZM362.1 385L360.8 375H390.6L392.4 385H362.1ZM393.7 335H421.4L423.7 345H395.5L393.7 335ZM397.3 355H426L428.3 365H399.1L397.3 355ZM402.6 385L400.8 375H430.5L432.8 385H402.6Z" fill="#8C2E77"/>
<path d="M487 507H25C14 507 5 498 5 487H507C507 498 498 507 487 507Z" fill="#C5C2A1"/>
<path d="M287 62V47.8L280.9 35.5C280.9 35.5 268.6 30 255.9 30C243.2 30 231.1 35.5 231.1 35.5L225 47.8V62L236.2 75H276L287 62Z" fill="#B23998"/>
<path d="M232.6 65.6998L225 61.7998L227.1 72.6998C228 77.0998 231.1 80.6998 235.3 82.1998L241 73.3998L232.6 65.6998ZM279.4 65.6998L287 61.7998L284.9 72.6998C284 77.0998 280.9 80.6998 276.7 82.1998L271 73.3998L279.4 65.6998Z" fill="#F3AA7D"/>
<path d="M282.5 200.8L297.8 231.2H347.8C357.3 231.2 365 238.9 365 248.4C365 251.8 364 255.1 362.1 257.9C358.4 263.5 353.3 268.2 347.5 271.6L345.3 272.9C337.1 277.6 327.9 280 318.4 280H193.5C184.1 280 174.8 277.5 166.6 272.9L164.4 271.6C158.5 268.2 153.5 263.6 149.8 257.9C147.9 255.1 146.9 251.8 146.9 248.4C146.9 238.9 154.6 231.2 164.1 231.2H214.1L229.4 200.8" fill="#D84861"/>
<path d="M246 98.2002V107.2L218.6 118.7L211.6 120.8C204.6 122.9 199.2 128.4 197.1 135.4C196.5 137.4 196.2 139.6 196.2 141.7C196.2 145.3 195.9 148.8 195.2 152.3L188.5 196.6L155.8 217.1L143.4 209.8H131V217.3L140.7 231.2H160.9L206.1 208.2L218.2 150.8L229.5 200.8H282.6L293.9 150.8L306 208.2L351.2 231.2H371.4L381.1 217.3V209.8H368.6L356.2 217.1L323.5 196.6L316.8 152.3C316.1 148.8 315.8 145.3 315.8 141.7C315.8 139.6 315.5 137.4 314.9 135.4C312.8 128.4 307.4 123 300.4 120.8L293.4 118.7L266 107.2V98.2002" fill="#F6C9AA"/>
<path d="M254.8 271.1L185.9 254H170V244H186.5C186.9 244 187.3 244 187.7 244.1L257.2 261.3L254.8 271.1Z" fill="#C22945"/>
<path d="M257.2 271.1L254.8 261.4L324.3 244.2C324.7 244.1 325.1 244.1 325.5 244.1H342V254.1H326.1L257.2 271.1Z" fill="#C22945"/>
<path d="M229.5 200.8L218.2 150.8L230.9 113.6L235.7 111.6C235.7 111.6 229.3 146.8 256 146.8C282.7 146.8 276.3 111.6 276.3 111.6L281.1 113.6L293.8 150.8L282.5 200.8" fill="#B3D34C"/>
<path d="M272.3 58.1998L261.1 53.1998L256 46.2998L240.9 48.6998L239.7 58.1998L232.6 65.6998L235.6 84.0998C236.2 87.6998 238 90.9998 240.6 93.3998L244.8 97.2998C247.8 100.1 251.8 101.6 255.9 101.6C260 101.6 264 99.9998 267 97.2998L271.2 93.3998C273.9 90.8998 275.6 87.5998 276.2 84.0998L279.2 65.6998L272.3 58.1998Z" fill="#F6C9AA"/>
<path d="M246.4 74.7998C245.8 74.7998 245.2 74.6998 244.6 74.5998C240.6 73.6998 238.6 69.7998 238.6 69.5998L242.2 67.7998C242.2 67.7998 243.5 70.1998 245.6 70.6998C246.9 70.9998 248.4 70.4998 250 69.2998L252.4 72.4998C250.4 73.9998 248.4 74.7998 246.4 74.7998ZM265.6 74.7998C263.6 74.7998 261.6 73.9998 259.6 72.4998L262 69.2998C263.6 70.4998 265.1 70.9998 266.4 70.6998C268.5 70.1998 269.8 67.7998 269.8 67.7998L273.4 69.5998C273.3 69.7998 271.3 73.5998 267.4 74.5998C266.8 74.6998 266.2 74.7998 265.6 74.7998Z" fill="#8C2E77"/>
<path d="M251 87H261V91H251V87ZM145 222.3L143.5 218.5L138.1 217L137.5 216.7L129.8 211.4L132.1 208.1L139.5 213.2L145.6 214.9C146.2 215.1 146.7 215.5 146.9 216.1L148.7 220.8L145 222.3ZM367 222.3L363.3 220.8L365.1 216.1C365.3 215.5 365.8 215.1 366.4 214.9L372.5 213.2L379.9 208.1L382.2 211.4L374.5 216.7L373.9 217L368.5 218.5L367 222.3Z" fill="#F3AA7D"/>
<path d="M250.9 251.7L253.5 248.8C255.1 247.1 257.3 246.1 259.7 246.1C263.3 246.1 266.4 248.4 267.6 251.7L268.1 253.1C268.8 255.2 270.4 257 272.5 257.9L293.4 267.5L302.9 275.8V279.9H238.2V261.6C242.9 259.1 247.2 255.7 250.9 251.7Z" fill="#F6C9AA"/>
</g>
<defs>
<clipPath id="clip0_183_682">
<rect width="512" height="512" fill="white"/>
</clipPath>
</defs>
</svg>
