<svg width="512" height="512" viewBox="0 0 512 512" fill="none" xmlns="http://www.w3.org/2000/svg">
<g clip-path="url(#clip0_183_1058)">
<g clip-path="url(#clip1_183_1058)">
<path d="M398.379 372.598C392.126 372.605 386.101 370.249 381.511 366.003L300.502 291.26C298.661 289.561 297.087 287.594 295.834 285.425L239.215 187.479C232.337 175.581 236.407 160.361 248.305 153.483C260.202 146.606 312.125 214.165 319.001 226.063L337.027 257.247L415.258 329.427C425.357 338.745 425.991 354.488 416.673 364.587C411.767 369.904 405.083 372.598 398.379 372.598Z" fill="#FFAB8F"/>
<path d="M272.961 249.152L319.001 226.064L282.299 162.573C275.423 150.676 260.202 146.607 248.305 153.483C236.408 160.36 232.338 175.58 239.215 187.478L272.961 249.152Z" fill="#4699F2"/>
<path d="M319.151 394.882L297.785 380.407L316.778 348.374C316.045 334.011 305.561 322.024 291.423 319.384L250.18 311.685L217.627 325.393L235.871 372.294L255.903 376.034L263.04 388.129L256.865 394.883L258.945 435.658L295.211 474.995L321.171 434.479L319.151 394.882Z" fill="#FFB69E"/>
<path d="M250.18 311.685L111.754 285.842V349.123L235.871 372.294L250.18 311.685Z" fill="#414B82"/>
<path d="M316.778 348.374L255.903 376.034L256.865 394.882H319.151L316.778 348.374ZM321.171 434.478L258.945 435.657L261.334 482.48C262.183 499.097 275.92 512 292.37 512C292.904 512 293.442 511.986 293.981 511.958C311.136 511.083 324.334 496.466 323.459 479.311L321.171 434.478Z" fill="#E2F4F7"/>
<path d="M430.531 139.335L410.748 141.706C407.102 142.816 403.578 144.292 400.23 146.113L379.838 180.375C379.838 211.792 414.938 243.682 446.354 243.682L479.129 219.668L484.082 200.266C484.18 198.901 484.23 197.522 484.23 196.132C484.23 165.785 460.466 140.988 430.531 139.335Z" fill="#5F6E9B"/>
<path d="M452.834 225.101C421.417 225.101 395.949 199.632 395.949 168.216C395.94 160.582 397.472 153.025 400.454 145.997C382.6 155.593 370.459 174.443 370.459 196.131C370.459 208.792 374.596 220.489 381.592 229.941L395.569 236.601L396.124 243.69C405.086 249.586 415.815 253.016 427.344 253.016C450.364 253.016 470.189 239.341 479.142 219.673C471.599 222.955 462.719 224.631 452.834 225.101Z" fill="#414B82"/>
<path d="M431.339 185.791C421.394 167.868 426.178 149.612 430.531 139.34C429.47 139.28 428.408 139.248 427.345 139.246C421.723 139.243 416.13 140.074 410.751 141.712C406.389 156.532 404.625 177.446 417.811 198.009C416.524 201.692 414.781 205.199 412.623 208.449L410.607 219.666L427.184 218.985C430.254 214.46 432.903 209.277 434.91 203.341C455.617 200.339 471.061 211.676 479.129 219.666C481.916 213.544 483.587 206.973 484.064 200.263C472.232 191.024 454.249 182.05 431.339 185.791Z" fill="#FFDA52"/>
<path d="M412.619 208.448C403.98 221.428 390.494 227.335 381.598 229.937C385.605 235.327 390.522 239.977 396.128 243.678L396.132 243.681C406.505 239.284 418.513 231.754 427.178 218.982C421.798 216.262 416.885 212.707 412.619 208.448Z" fill="#F2C41B"/>
<path d="M201.212 380.598L185.674 362.625L124.975 348.374L126.782 389.621L131.2 394.731L132.419 401.318L124.975 398.92L92.2366 420.952C92.2366 420.952 77.7876 454.629 87.378 468.88L129.136 471.1L167.761 445.108L171.348 428.344L195.05 426.744C198.701 424.287 201.789 421.084 204.11 417.346C206.43 413.607 207.931 409.419 208.513 405.057C209.096 400.696 208.747 396.26 207.488 392.044C206.229 387.827 204.09 383.926 201.212 380.598Z" fill="#FFB69E"/>
<path d="M125.128 292.596C113.893 279.602 94.2509 278.176 81.257 289.41C68.2622 300.645 66.837 320.286 78.0722 333.28L126.783 389.621L185.675 362.625L125.128 292.596Z" fill="#5F6E9B"/>
<path d="M131.201 394.731L124.975 398.921L167.761 445.108L195.049 426.744L131.201 394.731ZM92.2376 420.953L41.5124 455.09C27.2601 464.681 23.4831 484.008 33.0735 498.259C39.0796 507.183 48.9016 512.001 58.9055 512C64.8766 512 70.9157 510.282 76.2416 506.698L129.137 471.102L92.2376 420.953Z" fill="#E2F4F7"/>
<path d="M73.8378 298.909L162.888 330.132C185.329 338 210.163 328.417 221.502 307.513L280.933 197.956C291.323 178.803 284.219 154.853 265.066 144.463L216.323 118.022C197.052 107.568 172.954 114.716 162.5 133.988L73.8378 298.909Z" fill="#64AFFF"/>
<path d="M245.028 111.094C275.702 111.094 300.568 86.2284 300.568 55.5545C300.568 24.8807 275.702 0.0146484 245.028 0.0146484C214.355 0.0146484 189.489 24.8807 189.489 55.5545C189.489 86.2284 214.355 111.094 245.028 111.094Z" fill="#FFB69E"/>
<path d="M380.743 317.114C377.34 317.114 373.884 316.413 370.577 314.93L261.71 266.116C257.838 264.38 254.474 261.681 251.938 258.278L227.94 226.065C219.73 215.044 217.059 192.925 228.08 184.714C239.098 176.504 258.503 183.79 266.71 194.809L287.977 223.356L390.937 269.523C403.477 275.144 409.083 289.868 403.461 302.407C399.322 311.639 390.247 317.114 380.743 317.114Z" fill="#FFB69E"/>
<path d="M221.347 133.918C213.138 122.899 197.547 120.621 186.528 128.831C175.508 137.041 173.231 152.629 181.44 163.65L227.941 226.066L266.712 194.81L221.347 133.918Z" fill="#4699F2"/>
</g>
</g>
<defs>
<clipPath id="clip0_183_1058">
<rect width="512" height="512" fill="white"/>
</clipPath>
<clipPath id="clip1_183_1058">
<rect width="512" height="512" fill="white"/>
</clipPath>
</defs>
</svg>
