<svg width="512" height="512" viewBox="0 0 512 512" fill="none" xmlns="http://www.w3.org/2000/svg">
<g clip-path="url(#clip0_183_776)">
<g clip-path="url(#clip1_183_776)">
<path d="M197.507 229.599L194.31 231.73C194.31 231.73 177.259 245.584 194.31 282.882C194.31 282.882 198.573 318.049 187.916 346.822C187.916 346.822 180.456 367.07 177.259 372.398C174.062 377.726 161.274 403.302 154.88 427.813C148.486 452.323 149.552 446.995 149.552 446.995C149.552 446.995 145.289 454.455 147.421 460.849L141.027 477.9C141.027 477.9 145.29 483.228 155.946 483.228C155.946 483.228 170.865 481.097 171.931 482.162V473.637C170.865 471.506 172.997 470.44 172.997 470.44C172.997 470.44 174.063 469.374 171.931 464.046C171.931 464.046 177.259 442.733 181.522 435.273C184.719 427.813 202.835 388.384 202.835 388.384C202.835 388.384 219.886 364.939 225.214 348.954C230.542 332.969 240.133 309.524 240.133 309.524L197.507 229.599Z" fill="#344A5E"/>
<path d="M268.906 224.27C268.906 224.27 269.972 235.992 266.775 239.189C266.775 239.189 266.775 241.32 268.906 242.386C271.037 243.452 271.037 249.846 271.037 249.846L283.825 291.407L293.417 336.165C293.417 336.165 304.074 361.741 301.942 373.463L313.664 431.009C313.664 431.009 316.861 456.585 326.452 468.307L331.78 475.767C331.78 475.767 322.189 492.818 304.073 490.686C304.073 490.686 299.81 483.226 300.876 480.029C300.876 480.029 301.942 478.963 299.81 477.898C299.81 477.898 293.416 460.847 291.285 453.388L278.496 422.484C278.496 422.484 273.168 404.368 272.102 390.514C272.102 390.514 269.971 386.251 271.036 385.186C272.102 383.055 268.905 380.923 268.905 380.923C268.905 380.923 267.839 377.726 268.905 376.66C269.971 375.594 266.774 374.529 266.774 374.529C266.774 374.529 249.723 328.705 234.804 309.523C219.885 290.341 207.097 276.487 207.097 276.487C207.097 276.487 178.324 256.239 197.506 225.335L268.906 224.27Z" fill="#425A6B"/>
<path d="M206.032 83.6016C206.032 83.6016 210.295 66.5506 209.229 60.1566C208.163 53.7625 206.032 38.8435 206.032 38.8435L220.951 35.6465L249.724 60.1566V71.8786C249.724 71.8786 241.199 69.7476 239.067 74.0096C236.936 78.2726 233.739 85.7316 233.739 88.9286L206.032 83.6016Z" fill="#F5B54C"/>
<path d="M250.79 13.2674C250.79 13.2674 256.118 17.5304 257.184 31.3834C257.184 31.3834 256.118 35.6464 257.184 36.7114C258.25 38.8424 262.512 46.3025 262.512 46.3025C262.512 46.3025 262.512 49.4995 259.315 49.4995C259.315 49.4995 257.184 49.4995 257.184 51.6305V53.7615C257.184 53.7615 257.184 55.8925 255.053 55.8925C255.053 55.8925 257.184 56.9585 257.184 58.0235C257.184 58.0235 253.987 61.2205 255.053 63.3515C256.119 65.4825 255.053 74.0085 247.593 72.9425C239.068 71.8765 210.295 49.4975 210.295 26.0534C210.295 24.9904 231.608 -6.97969 250.79 13.2674Z" fill="#FFD15C"/>
<path d="M253.987 11.136C253.987 11.136 243.33 -2.71804 222.017 0.478971C200.704 3.67598 196.441 17.53 196.441 17.53C196.441 17.53 192.178 30.3181 193.244 37.7781C194.31 45.2381 195.375 42.0411 195.375 42.0411C196.441 40.9751 198.572 42.0411 198.572 44.1721C199.638 45.2381 199.638 47.3691 198.572 48.4351C198.572 49.5011 197.506 51.6321 197.506 52.6981C197.506 55.8951 198.572 59.0921 201.769 60.1581C202.835 61.2241 203.9 61.2241 204.966 62.2891C204.966 62.2891 206.032 63.3552 206.032 64.4202C208.163 64.4202 209.229 64.4202 211.36 63.3542C214.557 61.2231 215.623 56.9601 214.557 53.7631C214.557 52.6971 213.491 51.6321 213.491 49.5001C212.425 46.3031 212.425 42.0401 215.622 38.8431C217.753 36.7121 219.885 36.7121 223.082 36.7121V31.3841H234.804C235.87 30.3181 236.935 30.3181 236.935 30.3181C239.066 30.3181 242.263 28.1871 243.329 26.055C245.46 24.989 246.526 22.858 245.46 20.727C245.46 19.661 245.46 17.53 246.526 15.399C247.592 14.333 248.657 14.333 249.723 14.333C250.789 14.333 251.854 16.464 252.92 15.399C253.986 15.399 253.986 14.333 253.986 13.268C255.053 13.267 253.987 12.202 253.987 11.136Z" fill="#425A6B"/>
<path d="M240.133 29.2517C238.002 30.3177 234.805 32.4488 233.739 34.5798C232.673 36.7108 231.608 39.9078 232.673 43.1048C231.607 40.9738 231.607 37.7768 232.673 35.6448C230.542 39.9078 230.542 44.1698 232.673 47.3668C230.542 45.2358 231.607 42.0388 229.476 39.9068C227.345 37.7758 225.213 36.7098 222.016 35.6438C220.95 35.6438 218.819 35.6438 217.753 36.7098C216.687 36.7098 216.687 37.7758 215.622 37.7758C214.556 37.7758 213.491 36.7098 213.491 35.6448V32.4478C214.557 28.1847 217.754 24.9877 220.951 22.8567C224.148 21.7907 228.411 20.7257 232.673 21.7907C234.804 22.8567 236.936 23.9217 238.001 24.9877" fill="#425A6B"/>
<path d="M214.557 43.1062C214.557 42.0402 213.491 40.9752 213.491 38.8432C213.491 36.7112 214.557 35.6462 216.688 34.5802C217.754 34.5802 218.819 33.5142 219.885 34.5802C222.016 34.5802 224.148 35.6462 225.213 37.7772C226.279 39.9082 228.41 43.1052 228.41 45.2373C228.41 48.4343 230.541 52.6973 228.41 53.7623C226.279 54.8283 225.213 54.8283 223.082 53.7623C220.951 52.6963 216.688 47.3683 216.688 47.3683C216.689 47.3693 215.623 44.1723 214.557 43.1062ZM325.388 107.046C325.388 107.046 325.388 105.98 324.322 103.849C323.256 102.783 316.862 104.915 316.862 104.915V103.849C318.993 101.718 317.928 98.5214 317.928 98.5214C317.928 97.4554 316.862 97.4554 316.862 97.4554L313.665 101.718C310.468 102.784 310.468 103.849 310.468 103.849L308.337 110.243C308.337 111.309 307.271 112.374 307.271 112.374V127.293C305.14 132.622 289.154 146.476 289.154 146.476C271.038 163.527 259.315 161.395 259.315 161.395L264.643 193.365C264.643 193.365 276.365 184.84 281.694 179.511C287.023 174.182 288.088 175.248 300.877 162.46C312.599 148.606 315.796 144.344 315.796 144.344C315.796 144.344 320.059 137.95 324.321 135.819C327.518 134.753 332.846 127.293 334.978 125.161C336.044 124.095 336.044 124.095 336.044 123.03C336.044 121.965 336.044 120.899 334.978 120.899C334.978 120.899 336.044 114.505 331.781 115.571C331.781 115.571 333.912 112.374 329.65 110.243C328.585 111.309 328.585 107.046 325.388 107.046Z" fill="#FFD15C"/>
<path d="M196.441 78.2736C196.441 77.2076 197.507 76.1426 198.572 76.1426C200.703 75.0766 204.966 74.0116 212.426 76.1426C223.083 79.3396 232.674 87.8646 232.674 87.8646C232.674 87.8646 239.068 94.2587 243.331 95.3247C247.594 96.3907 257.185 118.77 257.185 118.77C257.185 118.77 269.973 128.361 266.776 145.412C266.776 145.412 266.776 160.331 268.907 164.594C271.038 168.857 271.038 188.039 271.038 188.039C271.038 188.039 274.235 205.09 273.169 213.615C272.103 223.206 274.235 229.6 274.235 229.6C274.235 229.6 248.659 232.797 240.134 238.125L238.003 226.403V234.928C238.003 234.928 210.296 235.994 198.573 225.337C198.573 225.337 202.836 212.549 206.033 211.483C206.033 211.483 202.836 206.155 208.164 201.892C208.164 201.892 208.164 181.644 202.836 172.053C197.508 162.462 192.179 133.689 192.179 133.689C192.179 133.689 188.982 123.032 190.048 117.704C191.114 112.376 194.311 99.5877 194.311 97.4557L197.508 91.0617L199.639 85.7336C199.638 85.7336 195.375 81.4706 196.441 78.2736Z" fill="#E8EAE8"/>
<path d="M197.507 39.9092C193.244 45.2372 192.179 51.6312 195.376 58.0252C197.507 62.2882 200.704 66.5503 203.901 69.7473C207.098 74.0103 209.229 78.2723 209.229 83.6013C208.163 87.8643 206.032 91.0613 203.901 94.2583C201.77 97.4553 200.704 101.718 202.835 105.98C200.704 101.717 199.638 96.3893 201.769 91.0613C193.244 105.98 191.112 125.162 195.375 142.213C196.441 145.41 197.506 148.607 197.506 151.804C197.506 155.002 197.506 158.199 195.375 161.396C186.85 157.133 181.521 147.541 181.521 139.016C181.521 141.147 180.455 143.279 180.455 145.41C179.389 144.344 179.389 141.147 179.389 140.082C179.389 137.951 180.455 135.819 180.455 133.688C180.455 130.491 178.324 128.36 177.258 126.228C176.192 123.031 177.258 118.768 177.258 114.506C178.324 110.243 178.324 107.046 176.192 103.849C176.192 108.112 175.126 111.309 174.061 115.571C172.995 119.834 172.995 124.096 174.061 127.293C171.93 124.096 171.93 119.833 171.93 116.636C171.93 114.505 172.996 111.308 172.996 109.176C174.062 102.782 176.193 97.4543 177.259 91.0603C179.39 80.4033 175.128 68.6813 177.259 59.0902C178.325 54.8272 180.456 50.5652 182.587 47.3682C184.718 44.1712 190.047 40.9742 194.309 40.9742" fill="#425A6B"/>
<path d="M223.083 139.017C223.083 139.017 220.952 141.148 219.886 141.148L192.179 132.623C192.179 132.623 192.179 119.835 203.901 118.769C216.689 117.703 226.28 121.966 226.28 121.966C226.28 121.966 228.411 133.689 223.083 139.017Z" fill="#425A6B"/>
<path d="M226.28 129.426L216.689 147.542C216.689 147.542 207.098 174.184 204.967 177.381C202.836 180.578 199.639 192.3 199.639 192.3C199.639 192.3 197.508 217.876 195.376 225.336C192.179 234.927 190.048 245.584 190.048 245.584L188.982 256.241C188.982 256.241 186.851 266.898 188.982 271.16C191.113 275.422 190.048 283.948 190.048 283.948C190.048 283.948 188.982 290.342 188.982 292.473L186.851 296.736C186.851 296.736 185.785 300.999 185.785 302.064C185.785 302.064 182.588 302.064 182.588 298.867C182.588 298.867 181.522 303.13 178.325 302.064C178.325 302.064 176.194 300.998 176.194 298.867C176.194 298.867 175.128 300.998 171.931 300.998C171.931 300.998 169.8 299.932 169.8 296.735C169.8 296.735 168.734 298.866 166.603 297.801C164.472 296.735 165.537 292.473 165.537 292.473V291.407C165.537 291.407 164.471 293.538 162.34 292.473C160.209 291.408 161.274 287.145 161.274 287.145L163.405 278.62C163.405 278.62 166.602 270.095 168.733 266.898C170.864 263.701 172.996 257.307 172.996 257.307C172.996 257.307 174.062 250.913 175.127 239.191C176.193 227.469 181.521 193.367 181.521 193.367C181.521 193.367 183.652 185.907 184.718 182.71L187.915 164.594L194.309 133.69C194.309 133.69 196.44 120.902 203.9 121.968C202.835 121.966 216.689 118.769 226.28 129.426Z" fill="#F5B54C"/>
<path d="M192.178 131.556C192.178 131.556 193.244 121.965 202.835 120.899C212.426 119.833 219.886 123.03 222.017 125.162C224.148 126.228 229.477 133.687 219.886 140.081C219.886 140.081 228.411 139.015 230.543 125.162C232.674 111.308 232.674 100.652 223.083 94.2582C217.755 91.0612 212.426 92.1272 209.229 93.1922C204.966 95.3232 201.769 98.5202 199.638 101.717C195.375 108.112 190.047 119.834 192.178 131.556Z" fill="#F3F3F3"/>
<path d="M304.074 504.541C304.074 504.541 301.943 512.001 308.337 512.001C314.731 512.001 321.125 512.001 322.191 510.935C323.257 510.935 339.242 505.608 347.767 503.475C354.161 501.344 359.489 499.212 364.818 496.015C368.015 493.884 371.212 491.752 373.343 489.621C379.737 482.161 377.606 480.03 375.474 477.899L353.095 486.424L304.074 504.541Z" fill="#56BFEB"/>
<path d="M304.074 489.621C304.074 489.621 312.599 492.818 318.993 489.621C325.387 486.424 328.584 477.899 328.584 474.702C328.584 474.702 347.766 480.03 358.423 477.899C370.145 475.768 373.342 476.833 374.408 477.899C374.408 477.899 375.474 485.359 361.62 491.753C347.766 498.147 326.453 506.672 315.796 507.738C306.205 508.804 303.008 505.607 303.008 505.607C304.074 500.278 303.009 494.95 304.074 489.621Z" fill="#E8EAE8"/>
<path d="M136.764 489.621C136.764 489.621 131.436 494.949 136.764 498.146C142.092 501.343 148.486 503.474 149.552 503.474C150.618 503.474 166.603 506.671 175.128 508.802C181.522 509.868 186.85 510.933 193.244 509.868C196.441 509.868 200.704 508.802 203.901 507.737C212.426 504.54 212.426 501.343 211.361 499.212L187.916 496.015L136.764 489.621Z" fill="#56BFEB"/>
<path d="M143.158 476.833C143.158 476.833 149.552 484.293 155.946 483.227C163.406 483.227 169.8 476.833 171.931 474.702C171.931 474.702 185.785 488.556 197.507 491.753C208.164 494.95 211.361 497.081 212.426 499.213C212.426 499.213 210.295 505.607 194.31 504.541C179.391 503.475 155.946 500.278 146.355 497.081C136.764 492.818 136.764 489.621 136.764 489.621L143.158 476.833Z" fill="#E8EAE8"/>
<path d="M191.113 38.8429L194.31 44.1709C196.441 44.1709 197.507 44.1709 197.507 42.0399L193.244 36.7119C192.178 36.7119 191.113 37.7779 191.113 38.8429Z" fill="#F26F5A"/>
</g>
</g>
<defs>
<clipPath id="clip0_183_776">
<rect width="512" height="512" fill="white"/>
</clipPath>
<clipPath id="clip1_183_776">
<rect width="512" height="512" fill="white"/>
</clipPath>
</defs>
</svg>
