<svg width="512" height="512" viewBox="0 0 512 512" fill="none" xmlns="http://www.w3.org/2000/svg">
<path d="M369.706 353L387.471 392.971L405.235 446.265C413.065 446.265 419.891 451.594 421.792 459.189L423 464.029L387.466 468.471L365.265 401.853L343.059 370.765L334.176 415.176L298.647 450.706C304.092 453.428 307.529 458.993 307.529 465.078V468.471H304.167C298.193 468.471 292.278 467.295 286.758 465.008C281.239 462.722 276.224 459.371 272 455.147L311.971 401.853L320.853 353" fill="#1D549C"/>
<path d="M280.882 455.147C288.07 462.317 297.451 466.876 307.529 468.098V465.078C307.529 458.993 304.092 453.428 298.647 450.706L334.176 415.176L343.059 370.765L365.265 401.853L387.466 468.471L423 464.029L421.792 459.189C420.868 455.497 418.737 452.22 415.737 449.878C412.737 447.537 409.041 446.265 405.235 446.265L387.471 392.971L369.706 353H329.735L320.853 401.853L280.882 455.147Z" fill="#2B6BB2"/>
<path d="M357.075 277.079L358.932 264.111L341.62 256.001L335.54 269.933L357.075 277.079Z" fill="#D69578"/>
<path d="M340.319 258.98L335.54 269.932L357.075 277.078L358.301 268.493C351.283 267.831 344.815 264.409 340.319 258.98ZM369.706 313.03L383.03 326.353L389.296 328.44C391.62 329.218 393.592 330.796 394.859 332.893C396.127 334.991 396.607 337.47 396.214 339.889C395.821 342.308 394.58 344.508 392.714 346.096C390.848 347.685 388.478 348.558 386.027 348.559C384.073 348.559 382.159 347.982 380.534 346.894L369.706 339.677" fill="#E8A989"/>
<path d="M324.628 287.089C324.823 282.958 326.264 278.983 328.761 275.686C331.258 272.39 334.694 269.926 338.617 268.618L344.085 270.181C351.466 272.29 357.96 276.745 362.583 282.874C367.206 289.003 369.706 296.471 369.706 304.148V353.001H320.853L324.628 287.089Z" fill="#52A04F"/>
<path d="M344.085 270.181L344.058 270.172C341.004 271.859 338.432 274.299 336.586 277.26C334.74 280.22 333.681 283.604 333.51 287.088L329.735 353H369.706V304.147C369.707 296.47 367.206 289.002 362.583 282.873C357.96 276.745 351.466 272.289 344.085 270.181Z" fill="#6DB569"/>
<path d="M329.735 317.471L314.249 348.448C313.421 350.109 312.055 351.441 310.374 352.228C308.694 353.016 306.796 353.212 304.99 352.786C303.184 352.36 301.574 351.336 300.423 349.88C299.272 348.424 298.646 346.622 298.647 344.766C298.647 341.409 299.331 338.087 300.65 335L311.971 308.588L330.579 286.258C331.705 284.907 333.114 283.82 334.706 283.074C336.299 282.328 338.036 281.941 339.795 281.941H339.946C342.433 281.938 344.859 282.709 346.889 284.146C348.919 285.583 350.452 287.615 351.275 289.962C352.099 292.309 352.173 294.853 351.486 297.244C350.799 299.634 349.386 301.752 347.442 303.303L329.735 317.471Z" fill="#F6BB95"/>
<path d="M351.941 293.937C351.942 292.362 351.632 290.801 351.029 289.346C350.427 287.89 349.543 286.568 348.429 285.454C347.315 284.34 345.992 283.456 344.537 282.853C343.081 282.251 341.521 281.941 339.946 281.941H339.795C338.036 281.941 336.299 282.328 334.706 283.074C333.114 283.82 331.705 284.907 330.579 286.258L322.065 296.477L337.139 311.551L347.442 303.303C348.846 302.179 349.979 300.753 350.757 299.132C351.536 297.511 351.941 295.736 351.941 293.937Z" fill="#40873C"/>
<path d="M360.824 202C353.756 202 346.979 204.807 341.981 209.805C336.984 214.802 334.177 221.58 334.177 228.647V237.529C334.177 244.597 336.984 251.374 341.981 256.372C346.979 261.369 353.756 264.176 360.824 264.176C367.891 264.176 374.669 261.369 379.666 256.372C384.663 251.374 387.471 244.597 387.471 237.529V228.647C387.471 221.58 384.663 214.802 379.666 209.805C374.669 204.807 367.891 202 360.824 202Z" fill="#E8A989"/>
<path d="M360.824 202C354.843 201.998 349.036 204.017 344.347 207.729C340.635 212.419 338.616 218.225 338.618 224.206V233.088C338.618 240.155 341.425 246.933 346.422 251.931C351.42 256.928 358.197 259.735 365.265 259.735C371.246 259.737 377.052 257.718 381.741 254.006C385.454 249.317 387.473 243.51 387.471 237.529V228.647C387.471 221.58 384.663 214.802 379.666 209.805C374.669 204.807 367.891 202 360.824 202Z" fill="#F6BB95"/>
<path d="M301.441 374.886C294.046 371.958 287.705 366.868 283.246 360.283C278.787 353.697 276.415 345.92 276.441 337.967V335.235H285.323V337.967C285.304 344.144 287.145 350.183 290.608 355.298C294.07 360.414 298.994 364.367 304.736 366.643L301.441 374.886ZM276.441 317.471H285.323V326.353H276.441V317.471Z" fill="#92E0F7"/>
<path d="M356.382 228.647H387.471C387.471 221.58 384.663 214.802 379.666 209.805C374.669 204.807 367.891 202 360.824 202C353.756 202 346.979 204.807 341.981 209.805C336.984 214.802 334.177 221.58 334.177 228.647V237.529C334.176 241.966 335.286 246.333 337.403 250.232C339.521 254.131 342.579 257.439 346.301 259.855L356.382 246.412V228.647Z" fill="#3F4042"/>
<path d="M360.824 202C354.843 201.998 349.036 204.017 344.347 207.729C340.635 212.419 338.616 218.225 338.618 224.206V233.088C338.617 237.374 339.651 241.597 341.634 245.397C343.617 249.197 346.489 252.461 350.005 254.912L356.382 246.412V228.647H387.471C387.471 221.58 384.663 214.802 379.666 209.805C374.669 204.807 367.891 202 360.824 202Z" fill="#5A5B5D"/>
<path d="M272 455.147C280.531 463.678 292.101 468.47 304.167 468.47H307.529V465.077C307.529 458.993 304.092 453.428 298.647 450.706L281.691 442.228L272 455.147ZM423 464.029L421.792 459.188C420.868 455.497 418.737 452.22 415.737 449.878C412.737 447.536 409.041 446.265 405.235 446.265L381.999 452.074L387.466 468.47L423 464.029Z" fill="#969696"/>
<path d="M292.527 463.559C297.208 465.913 302.28 467.454 307.53 468.094V465.078C307.53 458.994 304.092 453.429 298.647 450.706L288.148 445.457C283.6 451.524 285.754 460.153 292.527 463.559ZM421.792 459.189C420.868 455.497 418.737 452.22 415.737 449.879C412.737 447.537 409.041 446.265 405.235 446.265L387.746 450.64C389.721 454.47 392.823 457.603 396.635 459.615C400.446 461.626 404.783 462.42 409.059 461.889L422.059 460.264L421.792 459.189Z" fill="#B5B5B5"/>
<path d="M136.284 155.661C136.284 155.661 116.895 137.595 117.887 130.911C118.88 124.228 149.32 93.0596 149.32 93.0596C149.32 93.0596 153.489 131.97 136.284 155.661Z" fill="#C22945"/>
<path d="M145.35 136.602C143.299 143.352 140.387 149.903 136.284 155.66C136.284 155.66 116.895 137.595 117.887 130.911C118.152 129.058 120.733 125.286 124.306 120.786L145.35 136.602ZM183.996 79.9564L177.312 95.7721L159.908 84.2577L162.82 72.6772C165.599 56.1997 191.606 57.9202 183.533 81.0814" fill="#F3AB7D"/>
<path d="M169.504 66.2582L162.82 72.6772C162.82 72.6772 155.806 62.8833 152.894 54.1483C146.74 35.5532 167.386 28.8696 182.011 29.0019C199.613 29.2004 208.282 36.7444 208.282 36.7444C208.282 36.7444 208.282 42.5015 200.077 42.7662" fill="#FFC96F"/>
<path d="M200.077 42.6998C200.077 42.6998 195.18 58.714 205.304 63.7433L201.003 85.1177C201.003 85.1177 186.908 84.6545 182.209 79.9561C177.511 75.2577 174.666 66.7212 174.666 66.7212C174.666 66.7212 169.504 70.6917 166.261 59.7067C163.019 48.7217 173.144 49.3172 176.188 54.0156L183.665 42.3027L200.077 42.6998Z" fill="#F6C9AA"/>
<path d="M159.908 84.2578C131.784 99.2133 146.409 135.874 131.784 169.491L175.79 177.564C180.555 153.741 180.092 145.138 180.092 145.138L177.379 95.8384L159.908 84.2578Z" fill="#D84861"/>
<path d="M178.835 159.433C180.224 149.176 180.026 145.139 180.026 145.139L178.173 110.728L156.335 103.118C156.335 118.735 168.511 145.139 178.835 159.433Z" fill="#C22945"/>
<path d="M131.718 169.425C117.954 185.042 107.035 222.298 107.035 222.298L137.541 235.004L155.475 215.681L183.996 221.372L198.819 193.248L175.724 177.564" fill="#399349"/>
<path d="M215.76 320.237L176.584 302.171C174.599 290.723 188.628 279.87 188.628 279.87L201.598 284.37C195.113 301.509 233.23 306.538 215.76 320.237Z" fill="#D84861"/>
<path d="M231.907 220.18L201.599 284.369L188.628 279.869C188.628 279.869 193.062 241.29 203.451 227.393L183.996 221.305L198.819 193.181C215.826 203.107 231.907 220.18 231.907 220.18Z" fill="#F6C9AA"/>
<path d="M75.4696 361.198L40 338.765C42.7793 323.744 56.4775 317.722 56.4775 317.722L68.5874 322.817C61.0435 335.854 94.4617 351.537 75.4696 361.198Z" fill="#D84861"/>
<path d="M137.607 235.003L120.865 255.318L111.998 259.686L68.5873 322.817L56.4773 317.787C56.4773 317.787 71.4328 268.62 74.8077 263.657C78.1164 258.627 95.1233 248.635 95.1233 248.635L107.167 222.43L137.607 235.003Z" fill="#F6C9AA"/>
<path d="M195.643 122.639L180.026 145.073C166.526 129.323 149.519 103.383 159.181 95.9049C173.673 84.589 188.364 109.669 195.643 122.639Z" fill="#D84861"/>
<path d="M255.068 118.337C250.634 123.168 236.936 126.741 236.936 126.741C236.936 126.741 200.077 160.292 192.996 157.512C190.878 156.718 185.783 151.821 180.026 145.138L195.643 122.704C197.76 126.476 199.282 129.189 199.944 129.719C203.054 132.167 230.914 114.499 230.914 114.499C230.914 114.499 240.245 99.2785 243.553 99.2785C246.862 99.2124 259.501 113.506 255.068 118.337Z" fill="#F6C9AA"/>
</svg>
