<svg width="512" height="512" viewBox="0 0 512 512" fill="none" xmlns="http://www.w3.org/2000/svg">
<g clip-path="url(#clip0_183_917)">
<g clip-path="url(#clip1_183_917)">
<g clip-path="url(#clip2_183_917)">
<path d="M216.354 200.879L197.988 223.944L249.165 233.131L260.814 211.857V199.241L253.154 194.871L216.354 200.879Z" fill="#BA6746"/>
<path d="M367.432 0.0742188L350.834 2.0634C347.775 2.99528 344.819 4.23398 342.009 5.7606L324.9 34.5067C324.9 60.8653 354.348 87.6212 380.708 87.6212L408.206 67.4742L412.362 51.1956C412.445 50.0414 412.486 48.8846 412.486 47.7275C412.486 22.2654 392.548 1.46004 367.432 0.0742188Z" fill="#5F6E9B"/>
<path d="M386.145 72.0325C359.787 72.0325 338.418 50.6648 338.418 24.3051C338.41 17.9004 339.695 11.56 342.197 5.66406C327.218 13.7158 317.031 29.5302 317.031 47.727C317.015 57.9408 320.291 67.8878 326.372 76.0939L338.099 81.6822L338.564 87.6307C346.34 92.7489 355.449 95.4694 364.759 95.4544C384.073 95.4544 400.706 83.9816 408.217 67.4788C401.889 70.2314 394.438 71.6372 386.145 72.0325Z" fill="#414B82"/>
<path d="M368.111 39.0512C359.767 24.0143 363.781 8.69716 367.432 0.0790469C366.542 0.0280325 365.65 0.00167347 364.759 0C359.915 0 355.241 0.727432 350.836 2.06923C347.176 14.5036 345.696 32.05 356.759 49.3033C355.679 52.393 354.216 55.3355 352.406 58.0625L350.715 67.4741L364.622 66.9027C367.198 63.1065 369.421 58.7569 371.105 53.7769C388.479 51.2584 401.436 60.7701 408.205 67.4741C410.543 62.337 411.945 56.8241 412.346 51.1944C402.421 43.4418 387.332 35.9123 368.111 39.0512Z" fill="#FFDA52"/>
<path d="M352.404 58.0605C345.156 68.951 333.841 73.907 326.377 76.0902C329.74 80.6136 333.866 84.5157 338.57 87.6211C347.273 83.9319 357.348 77.6142 364.619 66.8988C360.106 64.6167 355.983 61.6336 352.404 58.0605Z" fill="#F2C41B"/>
<path d="M460.612 84.542C452.983 75.7197 439.646 74.7531 430.827 82.3827L354.287 148.574L324.9 163.198C314.459 168.394 255.176 208.454 260.373 218.896L339.25 203.231L375.492 185.197C377.078 184.408 378.557 183.422 379.897 182.263L458.453 114.327C467.275 106.698 468.241 93.3622 460.612 84.542ZM342.386 446.734L324.558 406.44C318.658 393.108 267.786 307.335 254.453 313.235C241.121 319.134 268.82 410.94 274.717 424.271L281.361 439.288L252.018 446.487C237.859 449.961 225.926 471.364 229.4 485.523L266.263 497.351L306.958 487.366C306.958 487.366 338.491 476.068 341.936 469.059C345.381 462.05 345.545 453.876 342.386 446.734ZM135.047 463.242H135.004C127.591 463.229 96.8525 434.111 96.8525 434.111L78.9409 414.445C69.124 403.667 63.8419 374.944 74.6193 365.129C85.3967 355.311 109.588 369.694 119.405 380.472L135.111 397.716L150.524 380.903C160.375 370.158 226.146 315.901 236.894 325.754C247.639 335.606 197.74 407.523 187.89 418.268L154.505 454.684C152.032 457.381 149.025 459.534 145.675 461.007C142.326 462.481 138.706 463.242 135.047 463.242Z" fill="#FA8A5E"/>
<path d="M274.716 424.27L324.557 406.44L289.272 326.693C283.372 313.361 267.785 307.334 254.452 313.234C241.12 319.133 235.095 334.723 240.993 348.054L274.716 424.27Z" fill="#748488"/>
<path d="M252.018 446.486L197.096 459.961C182.938 463.435 174.276 477.729 177.751 491.887C180.706 503.933 191.492 512.001 203.366 512C205.448 512 207.564 511.752 209.676 511.234L266.264 497.35L252.018 446.486ZM281.361 439.287L276.178 440.559L306.959 487.366L324.537 483.053C328.283 482.134 331.783 480.404 334.789 477.987C337.796 475.569 340.235 472.522 341.937 469.06L281.361 439.287Z" fill="#DFE8EA"/>
<path d="M119.404 380.472L92.1537 350.553C82.3359 339.776 65.641 338.994 54.8646 348.813C44.0872 358.63 43.3077 375.324 53.1235 386.102L78.9399 414.446L119.404 380.472ZM96.8515 434.111L115.532 454.62C118 457.331 121.007 459.497 124.359 460.982C127.712 462.466 131.337 463.236 135.003 463.242H135.046L135.109 397.715L96.8515 434.111Z" fill="#DFE8EA"/>
<path d="M236.893 325.753C226.145 315.901 209.449 316.627 199.598 327.372L150.523 380.902L187.888 418.267L238.513 363.047C248.363 352.302 247.639 335.605 236.893 325.753Z" fill="#748488"/>
<path d="M163.605 184.074L133.889 171.444L146.698 96.7454C148.669 85.2505 140.949 74.334 129.454 72.3629C117.951 70.3917 107.043 78.1123 105.071 89.6061L89.4381 180.772C88.6341 185.46 89.4361 190.282 91.7143 194.457C93.9925 198.632 97.6134 201.915 101.991 203.776L145.846 222.416L222.819 232.188C227.383 221.455 174.34 188.637 163.605 184.074Z" fill="#FA8A5E"/>
<path d="M339.25 203.232L324.9 163.198L266.493 192.693L253.154 194.87C253.289 195.686 253.395 196.51 253.432 197.351C253.887 207.49 244.479 216.125 234.658 216.125C225.378 216.125 218.229 209.434 216.353 200.878L206.806 202.437L163.604 184.075L145.846 222.417L177.306 235.789L179.654 345.889C180.034 363.713 195.581 377.398 213.311 375.512L275.604 368.885C286.224 367.756 294.224 358.705 294.043 348.027L291.982 226.753L339.25 203.232Z" fill="#FFDA52"/>
<path d="M225.973 182.303C250.582 182.303 270.532 162.354 270.532 137.745C270.532 113.136 250.582 93.1865 225.973 93.1865C201.364 93.1865 181.415 113.136 181.415 137.745C181.415 162.354 201.364 182.303 225.973 182.303Z" fill="#FA8A5E"/>
</g>
</g>
</g>
<defs>
<clipPath id="clip0_183_917">
<rect width="512" height="512" fill="white"/>
</clipPath>
<clipPath id="clip1_183_917">
<rect width="512" height="512" fill="white"/>
</clipPath>
<clipPath id="clip2_183_917">
<rect width="512" height="512" fill="white"/>
</clipPath>
</defs>
</svg>
