<svg width="512" height="512" viewBox="0 0 512 512" fill="none" xmlns="http://www.w3.org/2000/svg">
<g clip-path="url(#clip0_183_1011)">
<g clip-path="url(#clip1_183_1011)">
<path d="M512 1.913C511.999 1.66046 511.948 1.41059 511.85 1.17796C511.752 0.945325 511.608 0.734586 511.427 0.558021C511.247 0.381457 511.033 0.2426 510.798 0.149542C510.563 0.0564847 510.312 0.0110887 510.06 0.016C479.985 0.505 479.338 12.363 447.996 12.363C415.994 12.362 415.994 0 383.992 0C351.991 0 351.991 12.362 319.991 12.362C318.62 12.362 317.307 12.339 316.049 12.296L263.091 20.452L224.148 6.122C216.097 9.232 208.098 12.362 191.996 12.362C159.996 12.362 159.996 0 127.996 0C95.996 0 95.996 12.362 63.997 12.362C32.659 12.362 32.012 0.505 1.94 0.015C1.68745 0.010223 1.43648 0.0557442 1.2017 0.148912C0.966921 0.24208 0.753026 0.381033 0.572473 0.557676C0.391921 0.73432 0.248321 0.945124 0.150037 1.17781C0.0517533 1.41049 0.000750804 1.66041 0 1.913L0 510.105C0 511.151 0.849 512 1.896 512H510.104C510.607 512 511.089 511.8 511.445 511.445C511.8 511.089 512 510.607 512 510.104V1.913Z" fill="#D3EFFB"/>
<path d="M224.147 6.122V111.239L268.762 122.113L316.048 111.239V12.296C287.932 11.325 286.62 0 255.991 0C240.095 0 232.095 3.051 224.147 6.122Z" fill="#FFECE4"/>
<path d="M510.06 0.0159849C489.703 0.346985 482.829 5.88598 470.793 9.43198V377.346C470.793 440.335 419.73 491.397 356.742 491.397H0V510.105C0 511.151 0.849 512 1.896 512H510.104C510.607 512 511.089 511.8 511.445 511.445C511.8 511.089 512 510.607 512 510.104V1.91298C511.999 1.66044 511.948 1.41057 511.85 1.17794C511.752 0.945309 511.608 0.73457 511.427 0.558006C511.247 0.381442 511.033 0.242585 510.798 0.149527C510.563 0.0564696 510.312 0.0110736 510.06 0.0159849Z" fill="#B1E4F9"/>
<path d="M246.2 32.2275H215.704C213.641 32.2275 211.663 33.0469 210.205 34.5054C208.746 35.9638 207.927 37.942 207.927 40.0045V69.7345C207.927 71.0622 208.454 72.3355 209.393 73.2743C210.332 74.2131 211.605 74.7405 212.933 74.7405H221.159C229.659 74.7405 237.874 77.4765 244.898 82.2635C248.538 84.7463 252.862 86.031 257.267 85.9385C269.034 85.7155 278.255 75.6745 278.108 63.9065L278.106 63.7375C277.886 46.2715 263.666 32.2275 246.2 32.2275Z" fill="#75CEF9"/>
<path d="M369.761 403.735C371.824 399.992 371.047 395.313 368.025 392.291L329.609 353.875L409.404 215.666C422.125 193.633 410.484 165.531 385.91 158.946L358.026 151.475L337.292 172.878L343.523 205.599L352.901 208.111L342.747 221.387C335.705 232.291 330.743 244.405 328.111 257.117C324.055 276.718 316.509 295.43 306.501 312.764L284.64 350.629C278.468 361.319 282.131 374.987 292.821 381.159L344.25 410.851C353.225 416.034 364.734 412.857 369.761 403.735Z" fill="#FFECE4"/>
<path d="M126.939 393.477C123.634 396.782 121.511 401.085 120.901 405.72C120.291 410.354 121.228 415.061 123.565 419.109L145.385 456.902C147.743 460.985 147.234 466.193 143.967 469.593C136.007 477.877 122.836 477.977 114.751 469.891L68.4271 423.567C58.7991 413.939 58.7991 398.328 68.4271 388.699L84.0311 373.095C95.2011 361.924 104.12 348.752 110.664 334.373C116.413 321.739 124.385 310.242 134.201 300.429C146.772 287.856 162.067 278.344 178.903 272.63C181.486 271.75 183.812 270.247 185.675 268.254C187.538 266.26 188.881 263.839 189.585 261.203L197.209 232.751L234.732 226.437L245.235 260.479L235.055 278.111C228.516 289.437 220.521 299.856 211.273 309.104L126.939 393.477Z" fill="#FFDDCE"/>
<path d="M224.147 132.209L197.206 232.753L245.233 260.481L276.973 205.505L224.147 132.209Z" fill="#5766CB"/>
<path d="M318.736 140.942L358.026 151.475L343.524 205.599L280.277 205.601C249.278 205.602 224.148 180.472 224.148 149.473V111.24H316.049V137.44C316.049 138.238 316.312 139.014 316.798 139.647C317.284 140.281 317.965 140.736 318.736 140.942Z" fill="#707DD3"/>
<path d="M171.391 226.439C153.951 226.439 144.737 222.879 136.607 219.739C129.07 216.827 121.951 214.077 107.392 214.077C92.833 214.077 85.713 216.828 78.176 219.739C70.047 222.88 60.832 226.439 43.392 226.439C41.343 226.439 39.3778 225.625 37.9289 224.176C36.48 222.728 35.666 220.762 35.666 218.713C35.666 216.664 36.48 214.699 37.9289 213.25C39.3778 211.801 41.343 210.987 43.392 210.987C57.951 210.987 65.07 208.237 72.607 205.325C80.736 202.185 89.951 198.625 107.391 198.625C124.831 198.625 134.045 202.185 142.174 205.325C149.711 208.237 156.83 210.987 171.389 210.987C173.438 210.987 175.403 211.801 176.852 213.25C178.301 214.699 179.115 216.664 179.115 218.713C179.115 219.728 178.916 220.733 178.528 221.67C178.14 222.607 177.571 223.459 176.854 224.177C176.136 224.894 175.285 225.463 174.347 225.852C173.41 226.24 172.406 226.44 171.391 226.439ZM473.024 103.922C455.582 103.922 446.368 100.363 438.238 97.2224C430.7 94.3114 423.581 91.5604 409.02 91.5604C394.46 91.5604 387.34 94.3114 379.803 97.2224C371.673 100.363 362.459 103.922 345.018 103.922C342.969 103.922 341.004 103.108 339.555 101.66C338.106 100.211 337.292 98.2455 337.292 96.1964C337.292 94.1473 338.106 92.1822 339.555 90.7333C341.004 89.2844 342.969 88.4704 345.018 88.4704C359.578 88.4704 366.697 85.7204 374.234 82.8084C382.364 79.6684 391.578 76.1084 409.019 76.1084C426.461 76.1084 435.675 79.6674 443.805 82.8084C451.343 85.7194 458.462 88.4704 473.023 88.4704C475.072 88.4703 477.037 89.2841 478.486 90.7329C479.935 92.1817 480.749 94.1468 480.75 96.1959C480.75 98.245 479.936 100.21 478.487 101.659C477.038 103.108 475.073 103.922 473.024 103.922Z" fill="#B1E4F9"/>
<path d="M470.793 103.901C471.522 103.914 472.265 103.921 473.024 103.921C474.039 103.921 475.043 103.721 475.981 103.333C476.918 102.945 477.77 102.376 478.487 101.658C479.205 100.941 479.774 100.089 480.162 99.1519C480.55 98.2145 480.75 97.2099 480.75 96.1953C480.75 95.1807 480.55 94.176 480.162 93.2387C479.774 92.3013 479.205 91.4496 478.487 90.7322C477.77 90.0147 476.918 89.4456 475.981 89.0574C475.043 88.6691 474.039 88.4693 473.024 88.4693C472.26 88.4693 471.517 88.4613 470.793 88.4473V103.901Z" fill="#90D8F9"/>
<path d="M350.22 211.212C347.527 214.451 345.032 217.849 342.747 221.388L342.867 221.422L344.899 221.966C349.806 223.28 354.852 223.938 359.9 223.938C364.948 223.938 369.997 223.28 374.905 221.965C376.861 221.413 378.52 220.114 379.525 218.347C380.529 216.581 380.797 214.49 380.271 212.528C379.745 210.565 378.468 208.889 376.715 207.861C374.961 206.834 372.874 206.538 370.905 207.039C363.696 208.968 356.107 208.968 348.898 207.04C350.733 207.53 351.434 209.751 350.22 211.212Z" fill="#FFDDCE"/>
<path d="M321.566 66.8114H261.964C259.915 66.8114 257.95 65.9974 256.501 64.5485C255.052 63.0996 254.238 61.1344 254.238 59.0854C254.238 57.0363 255.052 55.0712 256.501 53.6223C257.95 52.1734 259.915 51.3594 261.964 51.3594H321.566C323.615 51.3594 325.58 52.1734 327.029 53.6223C328.478 55.0712 329.292 57.0363 329.292 59.0854C329.292 61.1344 328.478 63.0996 327.029 64.5485C325.58 65.9974 323.615 66.8114 321.566 66.8114Z" fill="#2B4D66"/>
<path d="M316.048 137.439V124.223L299.603 119.816C297.634 119.316 295.547 119.611 293.794 120.639C292.041 121.666 290.763 123.342 290.237 125.305C289.711 127.268 289.979 129.358 290.983 131.125C291.988 132.891 293.647 134.191 295.603 134.742L318.736 140.941C317.965 140.735 317.284 140.279 316.798 139.646C316.312 139.013 316.048 138.237 316.048 137.439Z" fill="#5766CB"/>
</g>
</g>
<defs>
<clipPath id="clip0_183_1011">
<rect width="512" height="512" fill="white"/>
</clipPath>
<clipPath id="clip1_183_1011">
<rect width="512" height="512" fill="white"/>
</clipPath>
</defs>
</svg>
