<svg width="512" height="512" viewBox="0 0 512 512" fill="none" xmlns="http://www.w3.org/2000/svg">
<g clip-path="url(#clip0_183_870)">
<g clip-path="url(#clip1_183_870)">
<path d="M299.077 14.1904C302.787 38.2274 300.162 68.6854 281.002 103.364C292.572 112.043 304.397 115.458 313.723 116.628C323.052 104.414 328.604 89.1614 328.604 72.6054C328.604 48.6394 316.982 27.4064 299.077 14.1904Z" fill="#DFEBFA"/>
<path d="M300.834 15.5174C290.779 7.61538 278.588 2.30737 265.267 0.609375C271.726 15.9344 272.869 41.5374 252.852 72.5984C260.379 87.2434 272.528 97.1584 281.656 103.844C302.87 69.0104 305.078 38.6614 300.834 15.5174ZM467.629 338.246C449.999 355.25 421.251 354.027 405.214 334.648C404.785 334.123 404.245 333.699 403.632 333.408C403.019 333.116 402.349 332.965 401.671 332.965C400.992 332.965 400.322 333.116 399.709 333.408C399.096 333.699 398.556 334.123 398.127 334.648C381.006 355.334 349.473 355.302 332.379 334.648C331.95 334.123 331.41 333.699 330.797 333.408C330.184 333.116 329.514 332.965 328.836 332.965C328.157 332.965 327.487 333.116 326.874 333.408C326.261 333.699 325.721 334.123 325.292 334.648C308.173 355.334 276.637 355.302 259.544 334.648C259.115 334.123 258.575 333.699 257.962 333.408C257.349 333.116 256.679 332.965 256.001 332.965C255.322 332.965 254.652 333.116 254.039 333.408C253.426 333.699 252.886 334.123 252.457 334.648C235.364 355.302 203.828 355.334 186.709 334.648C186.28 334.123 185.74 333.699 185.127 333.408C184.514 333.116 183.844 332.965 183.166 332.965C182.487 332.965 181.817 333.116 181.204 333.408C180.591 333.699 180.051 334.123 179.622 334.648C162.528 355.302 130.995 355.334 113.874 334.648C113.445 334.123 112.905 333.699 112.292 333.408C111.679 333.116 111.009 332.965 110.331 332.965C109.652 332.965 108.982 333.116 108.369 333.408C107.756 333.699 107.216 334.123 106.787 334.648C90.7501 354.026 62.0021 355.25 44.3721 338.246C43.1201 337.038 41.0391 337.887 41.0391 339.627V397.337C41.0391 395.598 43.1201 394.748 44.3721 395.956C62.0021 412.96 90.7501 411.737 106.787 392.358C107.216 391.832 107.756 391.409 108.369 391.118C108.982 390.826 109.652 390.675 110.331 390.675C111.009 390.675 111.679 390.826 112.292 391.118C112.905 391.409 113.445 391.832 113.874 392.358C130.995 413.044 162.528 413.012 179.622 392.358C180.051 391.832 180.591 391.409 181.204 391.118C181.817 390.826 182.487 390.675 183.166 390.675C183.844 390.675 184.514 390.826 185.127 391.118C185.74 391.409 186.28 391.832 186.709 392.358C203.828 413.044 235.364 413.012 252.457 392.358C252.886 391.832 253.426 391.409 254.039 391.118C254.652 390.826 255.322 390.675 256.001 390.675C256.679 390.675 257.349 390.826 257.962 391.118C258.575 391.409 259.115 391.832 259.544 392.358C276.637 413.012 308.173 413.044 325.292 392.358C325.721 391.832 326.261 391.409 326.874 391.118C327.487 390.826 328.157 390.675 328.836 390.675C329.514 390.675 330.184 390.826 330.797 391.118C331.41 391.409 331.95 391.832 332.379 392.358C349.474 413.012 381.006 413.044 398.127 392.358C398.556 391.832 399.096 391.409 399.709 391.118C400.322 390.826 400.992 390.675 401.671 390.675C402.349 390.675 403.019 390.826 403.632 391.118C404.245 391.409 404.785 391.832 405.214 392.358C421.251 411.736 449.999 412.96 467.629 395.956C468.881 394.748 470.962 395.597 470.962 397.337V339.627C470.962 337.888 468.881 337.038 467.629 338.246Z" fill="#23A8FE"/>
<path d="M109.921 333.009C109.316 333.059 108.726 333.23 108.188 333.512C107.65 333.793 107.173 334.179 106.786 334.648C90.7491 354.026 62.0011 355.25 44.3711 338.246C43.1191 337.038 41.0381 337.887 41.0381 339.627V397.337C41.0381 395.598 43.1191 394.748 44.3711 395.956C62.0011 412.96 90.7491 411.737 106.786 392.358C107.173 391.889 107.649 391.503 108.188 391.221C108.726 390.94 109.316 390.769 109.921 390.719V333.009Z" fill="#0193FA"/>
<path d="M256 276.06C279.368 276.06 298.311 257.117 298.311 233.749C298.311 210.382 279.368 191.438 256 191.438C232.632 191.438 213.689 210.382 213.689 233.749C213.689 257.117 232.632 276.06 256 276.06Z" fill="#FED2A4"/>
<path d="M256 276.06C279.368 276.06 298.311 257.117 298.311 233.749C298.311 210.382 279.368 191.438 256 191.438C232.632 191.438 213.689 210.382 213.689 233.749C213.689 257.117 232.632 276.06 256 276.06Z" fill="#FED2A4"/>
<path d="M194.476 336.757L194.552 336.858C200.587 344.83 204.13 354.406 204.13 364.405V404.515C220.582 410.902 240.219 406.689 252.456 391.904C252.885 391.378 253.425 390.954 254.038 390.663C254.651 390.372 255.321 390.221 256 390.221C256.678 390.221 257.348 390.372 257.961 390.663C258.574 390.954 259.114 391.378 259.543 391.904C271.779 406.69 291.416 410.901 307.868 404.515V364.405C307.868 354.406 311.41 344.83 317.446 336.859L317.523 336.757L361.91 277.491C364.051 274.576 365.206 271.054 365.206 267.438V188.781C365.206 179.64 358.182 171.775 349.05 171.344C339.301 170.885 331.252 178.653 331.252 188.301V261.869L300.53 300.766C299.58 301.968 298.371 302.94 296.992 303.608C295.613 304.277 294.1 304.624 292.568 304.624H219.428C217.896 304.623 216.383 304.276 215.004 303.608C213.625 302.94 212.416 301.968 211.466 300.766L180.743 261.869V188.78C180.743 179.639 173.719 171.774 164.588 171.343C154.839 170.884 146.79 178.652 146.79 188.3V267.436C146.79 271.053 147.945 274.575 150.087 277.489L194.476 336.757Z" fill="#FED2A4"/>
<path d="M256 233.75C256 218.092 264.512 204.43 277.156 197.113C270.728 193.388 263.43 191.43 256.001 191.439C232.633 191.439 213.69 210.382 213.69 233.75C213.69 257.118 232.633 276.061 256.001 276.061C263.71 276.061 270.931 273.989 277.156 270.387C264.512 263.07 256 249.408 256 233.75ZM247.49 361.258C247.49 351.259 243.948 341.683 237.912 333.711L237.836 333.61L215.532 303.829C213.939 303.17 212.54 302.116 211.468 300.767L180.745 261.87V188.781C180.745 179.64 173.721 171.775 164.59 171.344C154.841 170.885 146.792 178.653 146.792 188.301V267.437C146.792 271.054 147.947 274.576 150.089 277.49L194.475 336.756L194.551 336.857C200.586 344.829 204.129 354.405 204.129 364.404V404.514C218.505 410.094 235.311 407.582 247.489 396.994V361.258H247.49Z" fill="#FFBD86"/>
<path d="M270.068 36.113C271.94 21.517 268.963 9.378 265.268 0.609C262.195 0.210127 259.099 0.00671822 256 0C218.781 0 188.122 28.01 183.908 64.097C202.704 49.034 230.33 36.295 270.068 36.113Z" fill="#DFEBFA"/>
<path d="M260.016 0.126C258.679 0.045249 257.34 0.00323141 256 0C218.781 0 188.122 28.01 183.908 64.097C192.81 56.962 203.698 50.352 216.911 45.348C224.428 24.982 240.124 8.58 260.016 0.126Z" fill="#B1DBFC"/>
<path d="M217.132 78.751C203.665 84.436 194.706 93.044 188.993 100.592C199.95 126.794 225.822 145.209 256 145.209C266.182 145.209 275.87 143.108 284.663 139.322C262.287 131.181 237.063 113.98 217.132 78.751Z" fill="#DFEBFA"/>
<path d="M212.498 80.9111C203.272 85.6046 195.235 92.3347 188.993 100.592C199.95 126.794 225.822 145.209 256 145.209C257.355 145.209 258.7 145.166 260.037 145.092C234.267 134.15 215.535 109.868 212.498 80.9111Z" fill="#B1DBFC"/>
<path d="M467.629 394.424C449.999 411.428 421.251 410.205 405.214 390.826C404.785 390.3 404.245 389.876 403.632 389.585C403.019 389.294 402.349 389.143 401.671 389.143C400.992 389.143 400.322 389.294 399.709 389.585C399.096 389.876 398.556 390.3 398.127 390.826C381.006 411.512 349.473 411.479 332.379 390.826C331.95 390.3 331.41 389.876 330.797 389.585C330.184 389.294 329.514 389.143 328.836 389.143C328.157 389.143 327.487 389.294 326.874 389.585C326.261 389.876 325.721 390.3 325.292 390.826C308.173 411.512 276.637 411.479 259.544 390.826C259.115 390.3 258.575 389.876 257.962 389.585C257.349 389.294 256.679 389.143 256.001 389.143C255.322 389.143 254.652 389.294 254.039 389.585C253.426 389.876 252.886 390.3 252.457 390.826C235.364 411.479 203.828 411.512 186.709 390.826C186.28 390.3 185.74 389.876 185.127 389.585C184.514 389.294 183.844 389.143 183.166 389.143C182.487 389.143 181.817 389.294 181.204 389.585C180.591 389.876 180.051 390.3 179.622 390.826C162.528 411.479 130.995 411.512 113.874 390.826C113.445 390.3 112.905 389.876 112.292 389.585C111.679 389.294 111.009 389.143 110.331 389.143C109.652 389.143 108.982 389.294 108.369 389.585C107.756 389.876 107.216 390.3 106.787 390.826C90.7501 410.204 62.0021 411.428 44.3721 394.424C43.1201 393.216 41.0391 394.065 41.0391 395.805V453.515C41.0391 451.776 43.1201 450.926 44.3721 452.134C62.0021 469.138 90.7501 467.915 106.787 448.536C107.216 448.01 107.756 447.586 108.369 447.295C108.982 447.004 109.652 446.853 110.331 446.853C111.009 446.853 111.679 447.004 112.292 447.295C112.905 447.586 113.445 448.01 113.874 448.536C130.995 469.222 162.528 469.19 179.622 448.536C180.051 448.01 180.591 447.586 181.204 447.295C181.817 447.004 182.487 446.853 183.166 446.853C183.844 446.853 184.514 447.004 185.127 447.295C185.74 447.586 186.28 448.01 186.709 448.536C203.828 469.222 235.364 469.19 252.457 448.536C252.886 448.01 253.426 447.586 254.039 447.295C254.652 447.004 255.322 446.853 256.001 446.853C256.679 446.853 257.349 447.004 257.962 447.295C258.575 447.586 259.115 448.01 259.544 448.536C276.637 469.19 308.173 469.222 325.292 448.536C325.721 448.01 326.261 447.586 326.874 447.295C327.487 447.004 328.157 446.853 328.836 446.853C329.514 446.853 330.184 447.004 330.797 447.295C331.41 447.586 331.95 448.01 332.379 448.536C349.474 469.19 381.006 469.222 398.127 448.536C398.556 448.01 399.096 447.586 399.709 447.295C400.322 447.004 400.992 446.853 401.671 446.853C402.349 446.853 403.019 447.004 403.632 447.295C404.245 447.586 404.785 448.01 405.214 448.536C421.251 467.914 449.999 469.138 467.629 452.134C468.881 450.926 470.962 451.775 470.962 453.515V395.805C470.962 394.066 468.881 393.216 467.629 394.424Z" fill="#60B8FE"/>
<path d="M109.921 389.188C109.316 389.238 108.726 389.409 108.188 389.69C107.65 389.972 107.173 390.358 106.786 390.826C90.7491 410.204 62.0011 411.428 44.3711 394.424C43.1191 393.216 41.0381 394.065 41.0381 395.805V453.516C41.0381 451.777 43.1191 450.926 44.3711 452.134C62.0011 469.138 90.7491 467.915 106.786 448.536C107.173 448.068 107.649 447.681 108.188 447.4C108.726 447.119 109.316 446.948 109.921 446.897V389.188Z" fill="#23A8FE"/>
<path d="M467.629 449.539C449.999 466.543 421.252 465.319 405.214 445.941C404.785 445.415 404.245 444.991 403.632 444.7C403.019 444.409 402.349 444.258 401.671 444.258C400.992 444.258 400.322 444.409 399.709 444.7C399.096 444.991 398.556 445.415 398.127 445.941C381.006 466.627 349.473 466.595 332.378 445.941C331.949 445.415 331.409 444.991 330.796 444.7C330.183 444.409 329.513 444.258 328.835 444.258C328.156 444.258 327.486 444.409 326.873 444.7C326.26 444.991 325.72 445.415 325.291 445.941C308.172 466.627 276.637 466.595 259.544 445.941C259.115 445.415 258.575 444.991 257.962 444.7C257.349 444.409 256.679 444.258 256 444.258C255.322 444.258 254.651 444.409 254.038 444.7C253.425 444.991 252.885 445.415 252.456 445.941C235.363 466.595 203.828 466.627 186.709 445.941C186.28 445.415 185.74 444.991 185.127 444.7C184.514 444.409 183.844 444.258 183.166 444.258C182.487 444.258 181.817 444.409 181.204 444.7C180.591 444.991 180.051 445.415 179.622 445.941C162.527 466.595 130.995 466.627 113.873 445.941C113.444 445.415 112.904 444.991 112.291 444.7C111.678 444.409 111.008 444.258 110.33 444.258C109.651 444.258 108.981 444.409 108.368 444.7C107.755 444.991 107.215 445.415 106.786 445.941C90.7491 465.319 62.0021 466.543 44.3711 449.539C43.1191 448.331 41.0381 449.18 41.0381 450.92V498.095C41.0381 505.775 47.2641 512 54.9431 512H457.057C464.736 512 470.962 505.774 470.962 498.095V450.92C470.962 449.18 468.881 448.331 467.629 449.539Z" fill="#8BCAFF"/>
<path d="M109.921 500.193V444.302C109.316 444.352 108.726 444.523 108.188 444.805C107.65 445.086 107.173 445.472 106.786 445.941C90.7491 465.319 62.0021 466.543 44.3711 449.539C43.1191 448.331 41.0381 449.18 41.0381 450.92V498.095C41.0381 505.775 47.2641 512 54.9431 512H116.507C112.559 509.547 109.921 505.183 109.921 500.193Z" fill="#60B8FE"/>
<path d="M184.134 62.3359C182.318 74.9949 183.817 88.2069 189.006 100.592C199.049 87.3359 219.076 70.8189 255.984 72.6239C264.904 58.7829 268.989 46.0289 270.216 34.7809C229.442 33.8269 202.054 47.0889 184.134 62.3359Z" fill="#FFD301"/>
<path d="M212.059 72.6035C212.051 62.3565 214.05 52.2071 217.943 42.7285C204.071 47.8125 192.953 54.8315 184.134 62.3345C182.319 74.9935 183.817 88.2055 189.006 100.591C194.039 93.9465 201.582 86.4845 212.499 80.9205C212.207 78.1578 212.061 75.3816 212.059 72.6035Z" fill="#FFC20C"/>
<path d="M283.028 139.965C294.898 135.208 305.591 127.304 313.723 116.617C297.221 114.548 272.904 105.462 256.013 72.5968C239.567 71.7928 226.479 74.6308 216.124 79.1938C235.684 114.982 260.863 132.069 283.028 139.965Z" fill="#FF8188"/>
</g>
</g>
<defs>
<clipPath id="clip0_183_870">
<rect width="512" height="512" fill="white"/>
</clipPath>
<clipPath id="clip1_183_870">
<rect width="512" height="512" fill="white"/>
</clipPath>
</defs>
</svg>
