<svg width="512" height="512" viewBox="0 0 512 512" fill="none" xmlns="http://www.w3.org/2000/svg">
<g clip-path="url(#clip0_183_635)">
<g clip-path="url(#clip1_183_635)">
<path d="M186.675 329.02C159.886 327.733 158.116 316.781 127.997 316.781C95.997 316.781 95.997 329.143 63.998 329.143C32.66 329.143 32.013 317.286 1.941 316.796C1.68841 316.791 1.43739 316.837 1.20255 316.93C0.967714 317.023 0.753753 317.162 0.573121 317.339C0.39249 317.515 0.248795 317.726 0.150402 317.959C0.0520092 318.192 0.000883185 318.442 0 318.694L0 510.105C0 511.151 0.849 512 1.896 512H510.105C510.608 512 511.09 511.8 511.446 511.445C511.801 511.089 512.001 510.607 512.001 510.104V318.694C512 318.442 511.949 318.192 511.851 317.959C511.753 317.727 511.609 317.516 511.428 317.339C511.248 317.163 511.034 317.024 510.799 316.931C510.564 316.838 510.314 316.792 510.061 316.797C479.986 317.286 479.339 329.144 447.997 329.144C415.995 329.144 415.995 316.782 383.993 316.782C353.877 316.782 352.103 327.731 325.326 329.021L186.675 329.02Z" fill="#D3EFFB"/>
<path d="M422.129 28.377C421.78 28.986 421.599 29.606 421.599 30.235V50.449C421.599 51.76 422.293 53.037 423.605 54.264H298.922V28.377H422.129ZM218.126 50.45V30.236C218.126 29.607 218.321 28.987 218.696 28.378H86.1899V54.265H220.283C218.872 53.038 218.126 51.761 218.126 50.45Z" fill="#365E7D"/>
<path d="M164.365 14.8408H138.541C130.038 14.8408 123.146 21.7338 123.146 30.2358V50.4498C123.146 60.0338 130.915 67.8028 140.499 67.8028H162.407C171.991 67.8028 179.76 60.0338 179.76 50.4498V30.2358C179.761 21.7328 172.868 14.8408 164.365 14.8408ZM347.635 14.8408H373.459C381.962 14.8408 388.854 21.7338 388.854 30.2358V50.4498C388.854 60.0338 381.085 67.8028 371.501 67.8028H349.593C340.009 67.8028 332.24 60.0338 332.24 50.4498V30.2358C332.239 21.7328 339.132 14.8408 347.635 14.8408Z" fill="#D3EFFB"/>
<path d="M93.303 82.644H64.431C63.3467 82.6437 62.3068 82.2128 61.54 81.4461C60.7732 80.6793 60.3423 79.6394 60.342 78.555V4.089C60.342 3.00453 60.7728 1.96448 61.5397 1.19764C62.3065 0.430804 63.3466 0 64.431 0H93.303C94.3874 0.000265099 95.4273 0.431154 96.1941 1.19793C96.9609 1.96471 97.3918 3.00461 97.392 4.089V78.555C97.3918 79.6394 96.9609 80.6793 96.1941 81.4461C95.4273 82.2128 94.3874 82.6437 93.303 82.644ZM209.604 82.644H238.476C239.56 82.6437 240.6 82.2128 241.367 81.4461C242.134 80.6793 242.565 79.6394 242.565 78.555V4.089C242.565 3.00461 242.134 1.96471 241.367 1.19793C240.6 0.431154 239.56 0.000265099 238.476 0L209.604 0C208.52 0.000265099 207.48 0.431154 206.713 1.19793C205.946 1.96471 205.515 3.00461 205.515 4.089V78.555C205.515 79.6394 205.946 80.6793 206.713 81.4461C207.48 82.2128 208.52 82.6437 209.604 82.644ZM418.697 82.644H447.569C448.653 82.6437 449.693 82.2128 450.46 81.4461C451.227 80.6793 451.658 79.6394 451.658 78.555V4.089C451.658 3.00461 451.227 1.96471 450.46 1.19793C449.693 0.431154 448.653 0.000265099 447.569 0L418.697 0C417.613 0.000265099 416.573 0.431154 415.806 1.19793C415.039 1.96471 414.608 3.00461 414.608 4.089V78.555C414.608 79.6394 415.039 80.6793 415.806 81.4461C416.573 82.2128 417.613 82.6437 418.697 82.644ZM302.396 82.644H273.524C272.44 82.6437 271.4 82.2128 270.633 81.4461C269.866 80.6793 269.435 79.6394 269.435 78.555V4.089C269.435 3.00461 269.866 1.96471 270.633 1.19793C271.4 0.431154 272.44 0.000265099 273.524 0H302.396C303.48 0.000265099 304.52 0.431154 305.287 1.19793C306.054 1.96471 306.485 3.00461 306.485 4.089V78.555C306.485 79.6394 306.054 80.6793 305.287 81.4461C304.52 82.2128 303.48 82.6437 302.396 82.644Z" fill="#707DD3"/>
<path d="M332.629 282.427L378.048 203.758C382.111 196.713 384.252 188.724 384.255 180.592V62.2158C381.084 65.6508 340.007 65.6508 336.836 62.2148V169.065C336.833 175.389 335.169 181.602 332.009 187.081L316.523 213.903C314.901 216.712 312.568 219.045 309.758 220.667C306.949 222.289 303.762 223.143 300.518 223.143H289.247C287.776 223.143 286.365 222.559 285.325 221.518C284.285 220.478 283.701 219.068 283.701 217.597V199.748C274.739 207.643 237.26 207.643 228.297 199.748V217.597C228.297 219.068 227.713 220.478 226.673 221.518C225.632 222.559 224.222 223.143 222.751 223.143H211.479C208.235 223.143 205.048 222.289 202.238 220.667C199.429 219.045 197.096 216.712 195.474 213.903L179.989 187.082C176.829 181.603 175.164 175.39 175.162 169.066V62.2158C171.991 65.6518 130.914 65.6518 127.743 62.2158V180.592C127.746 188.724 129.886 196.713 133.95 203.758L179.369 282.425C182.397 287.67 184.191 293.535 184.613 299.577L191.022 391.177C191.343 391.18 191.666 391.181 191.994 391.181C223.992 391.181 223.992 378.819 255.99 378.819C287.988 378.819 287.988 391.181 319.986 391.181C320.319 391.181 320.648 391.18 320.974 391.177L327.383 299.579C327.807 293.537 329.601 287.672 332.629 282.427Z" fill="#F1B986"/>
<path d="M510.06 316.796C489.703 317.127 482.829 322.666 470.793 326.212V377.343C470.793 440.333 419.73 491.396 356.74 491.396H0V510.104C0 511.151 0.849 512 1.896 512H510.105C510.608 512 511.09 511.8 511.446 511.445C511.801 511.089 512.001 510.607 512.001 510.104V318.694C512 318.442 511.949 318.192 511.85 317.959C511.752 317.726 511.608 317.516 511.428 317.339C511.247 317.163 511.033 317.024 510.798 316.93C510.564 316.837 510.313 316.792 510.06 316.796Z" fill="#B1E4F9"/>
<path d="M292.565 297.274H270.395C268.736 297.272 267.146 296.612 265.973 295.439C264.8 294.266 264.14 292.676 264.138 291.017V263.551C264.138 261.502 263.324 259.537 261.875 258.088C260.426 256.639 258.461 255.825 256.412 255.825C254.363 255.825 252.398 256.639 250.949 258.088C249.5 259.537 248.686 261.502 248.686 263.551V291.017C248.684 292.676 248.024 294.266 246.851 295.439C245.678 296.612 244.088 297.272 242.429 297.274H220.258C218.209 297.274 216.244 298.088 214.795 299.537C213.346 300.986 212.532 302.951 212.532 305C212.532 307.049 213.346 309.014 214.795 310.463C216.244 311.912 218.209 312.726 220.258 312.726H242.429C247.549 312.731 252.504 310.918 256.412 307.61C260.32 310.917 265.275 312.73 270.395 312.726H292.565C293.58 312.726 294.584 312.526 295.522 312.138C296.459 311.75 297.311 311.181 298.028 310.463C298.746 309.746 299.315 308.894 299.703 307.957C300.091 307.019 300.291 306.015 300.291 305C300.291 303.985 300.091 302.981 299.703 302.043C299.315 301.106 298.746 300.254 298.028 299.537C297.311 298.819 296.459 298.25 295.522 297.862C294.584 297.474 293.58 297.274 292.565 297.274ZM204.411 245.971C206.46 245.971 208.425 245.157 209.874 243.708C211.323 242.259 212.137 240.294 212.137 238.245V230.424C212.137 227.987 212.008 225.557 211.752 223.144H211.48C208.236 223.144 205.049 222.29 202.24 220.668C199.43 219.046 197.097 216.713 195.475 213.904L190 204.419C194.381 212.386 196.681 221.33 196.684 230.423V238.244C196.684 240.293 197.498 242.258 198.947 243.707C200.397 245.156 202.362 245.971 204.411 245.971ZM307.589 245.971C305.54 245.971 303.575 245.157 302.126 243.708C300.677 242.259 299.863 240.294 299.863 238.245V230.424C299.863 227.987 299.992 225.557 300.248 223.144H300.52C303.764 223.144 306.951 222.29 309.76 220.668C312.57 219.046 314.903 216.713 316.525 213.904L322.001 204.42C317.62 212.387 315.32 221.331 315.317 230.424V238.245C315.316 240.294 314.502 242.259 313.053 243.708C311.604 245.157 309.638 245.971 307.589 245.971Z" fill="#E2A770"/>
<path d="M447.996 460.944C430.554 460.944 421.34 457.385 413.21 454.244C405.672 451.333 398.552 448.582 383.992 448.582C369.432 448.582 362.313 451.333 354.775 454.244C346.646 457.385 337.432 460.944 319.991 460.944C302.55 460.944 293.336 457.384 285.206 454.244C277.67 451.332 270.55 448.582 255.991 448.582C241.432 448.582 234.313 451.332 226.777 454.244C218.648 457.384 209.434 460.944 191.995 460.944C189.946 460.944 187.981 460.13 186.532 458.681C185.083 457.232 184.269 455.267 184.269 453.218C184.269 451.169 185.083 449.204 186.532 447.755C187.981 446.306 189.946 445.492 191.995 445.492C206.553 445.492 213.672 442.742 221.209 439.83C229.338 436.69 238.552 433.13 255.992 433.13C273.432 433.13 282.646 436.689 290.776 439.83C298.312 442.741 305.432 445.492 319.991 445.492C334.55 445.492 341.669 442.742 349.206 439.83C357.336 436.69 366.55 433.13 383.992 433.13C401.434 433.13 410.648 436.689 418.778 439.83C426.316 442.741 433.436 445.492 447.996 445.492C450.045 445.492 452.01 446.306 453.459 447.755C454.908 449.204 455.722 451.169 455.722 453.218C455.722 455.267 454.908 457.232 453.459 458.681C452.01 460.13 450.045 460.944 447.996 460.944Z" fill="#B1E4F9"/>
<path d="M435.122 460.194C438.873 460.665 443.111 460.944 447.995 460.944C450.02 460.934 451.959 460.129 453.397 458.703C454.834 457.277 455.654 455.344 455.681 453.32C455.708 451.295 454.939 449.341 453.54 447.878C452.141 446.414 450.224 445.558 448.2 445.494C444.27 450.76 439.895 455.678 435.122 460.194Z" fill="#90D8F9"/>
<path d="M319.988 398.906C302.548 398.906 293.335 395.346 285.205 392.206C277.669 389.294 270.55 386.544 255.991 386.544C241.432 386.544 234.313 389.294 226.777 392.206C218.648 395.346 209.434 398.906 191.995 398.906C174.555 398.906 165.341 395.346 157.211 392.206C149.674 389.294 142.555 386.544 127.996 386.544C125.947 386.544 123.982 385.73 122.533 384.281C121.084 382.832 120.27 380.867 120.27 378.818C120.27 376.769 121.084 374.804 122.533 373.355C123.982 371.906 125.947 371.092 127.996 371.092C145.436 371.092 154.65 374.651 162.779 377.792C170.316 380.703 177.435 383.454 191.994 383.454C206.552 383.454 213.671 380.704 221.208 377.792C229.337 374.652 238.551 371.092 255.991 371.092C273.431 371.092 282.644 374.652 290.774 377.792C298.31 380.704 305.429 383.454 319.987 383.454C334.546 383.454 341.665 380.704 349.201 377.792C357.331 374.652 366.545 371.092 383.985 371.092C386.034 371.092 387.999 371.906 389.448 373.355C390.897 374.804 391.711 376.769 391.711 378.818C391.711 380.867 390.897 382.832 389.448 384.281C387.999 385.73 386.034 386.544 383.985 386.544C369.426 386.544 362.307 389.294 354.771 392.206C346.642 395.347 337.428 398.906 319.988 398.906Z" fill="#B1E4F9"/>
<path d="M164.365 14.8408H138.541C130.038 14.8408 123.146 21.7338 123.146 30.2358V50.4498C123.146 60.0338 130.915 67.8028 140.499 67.8028H162.407C171.991 67.8028 179.76 60.0338 179.76 50.4498V30.2358C179.761 21.7328 172.868 14.8408 164.365 14.8408ZM347.635 14.8408H373.459C381.962 14.8408 388.854 21.7338 388.854 30.2358V50.4498C388.854 60.0338 381.085 67.8028 371.501 67.8028H349.593C340.009 67.8028 332.24 60.0338 332.24 50.4498V30.2358C332.239 21.7328 339.132 14.8408 347.635 14.8408ZM230.464 115.35L213.903 158.837L215.176 176.122C216.751 197.505 243.112 212.324 256 212.324C268.887 212.324 295.249 197.505 296.824 176.122L298.922 147.638L230.464 115.35Z" fill="#F1D0A5"/>
<path d="M239.548 124.376L242.652 127.48C249.043 133.871 256.63 138.941 264.98 142.399C273.329 145.858 282.279 147.638 291.317 147.638H298.922L299.811 135.564C301.686 110.1 281.533 88.4082 256 88.4082C230.467 88.4082 210.314 110.101 212.189 135.564L213.903 158.837L233.326 125.195C234.626 122.943 237.709 122.537 239.548 124.376Z" fill="#FFE07D"/>
</g>
</g>
<defs>
<clipPath id="clip0_183_635">
<rect width="512" height="512" fill="white"/>
</clipPath>
<clipPath id="clip1_183_635">
<rect width="512" height="512" fill="white"/>
</clipPath>
</defs>
</svg>
