<svg width="512" height="512" viewBox="0 0 512 512" fill="none" xmlns="http://www.w3.org/2000/svg">
<g clip-path="url(#clip0_183_729)">
<g clip-path="url(#clip1_183_729)">
<path d="M510.06 316.796C483.479 317.228 479.885 326.541 457.771 328.699L392.176 317.084C389.453 316.876 386.723 316.774 383.992 316.78C351.992 316.78 351.992 329.142 319.991 329.142C312.461 329.142 306.703 328.457 301.883 327.41L162.771 324.023C153.732 320.622 145.838 316.779 127.997 316.779C95.997 316.779 95.997 329.141 63.998 329.141C32.66 329.141 32.013 317.284 1.941 316.794C1.68835 316.79 1.43734 316.836 1.20255 316.929C0.967769 317.023 0.753879 317.162 0.573302 317.339C0.392725 317.515 0.249059 317.726 0.150643 317.959C0.0522268 318.192 0.00102167 318.442 0 318.694L0 510.105C0 511.151 0.849 512 1.896 512H510.105C510.608 512 511.09 511.801 511.446 511.445C511.801 511.089 512.001 510.607 512.001 510.104V318.694C512 318.442 511.949 318.192 511.85 317.959C511.752 317.727 511.608 317.516 511.428 317.339C511.247 317.163 511.033 317.024 510.798 316.93C510.564 316.837 510.313 316.792 510.06 316.796Z" fill="#D3EFFB"/>
<path d="M222.374 90.1004C202.919 95.6724 189.129 114.303 190.694 135.563L192.644 162.042L255.069 150.397C269.236 133.045 245.281 85.7514 222.374 90.1004Z" fill="#707DD3"/>
<path d="M234.506 88.4072C230.291 88.4072 226.222 88.9992 222.375 90.1012C232.981 100.826 238.93 115.301 238.93 130.384V134.257L259.94 147.71L278.394 134.257C279.499 109.362 259.601 88.4072 234.506 88.4072Z" fill="#DD636E"/>
<path d="M163.488 34.4023L89.5591 21.5693C87.3261 31.4383 81.7051 46.6623 81.7051 53.3273C81.7051 59.9923 87.3251 75.2153 89.5591 85.0853L163.488 72.2533C165.721 66.3713 166.944 59.9923 166.944 53.3283C166.944 46.6643 165.721 40.2833 163.488 34.4023Z" fill="#FFE07D"/>
<path d="M130.106 104.056C145.474 99.0637 157.781 87.2827 163.488 72.2527H87.8139C93.5209 87.2827 114.739 99.0637 130.106 104.056ZM130.106 2.59766C114.739 7.58966 92.2119 19.3707 86.5049 34.4017H163.488C157.781 19.3707 145.474 7.58966 130.106 2.59766Z" fill="#F9F6F6"/>
<path d="M474.551 315.175L469.752 306.862C466.208 300.724 458.359 298.62 452.221 302.164L447.609 304.827C446.846 305.268 446.003 305.555 445.128 305.67C444.254 305.786 443.366 305.728 442.514 305.5C441.662 305.272 440.864 304.878 440.164 304.342C439.464 303.805 438.877 303.136 438.436 302.372L404.133 242.957C400.654 236.932 395.65 231.928 389.624 228.45C383.598 224.972 376.763 223.142 369.805 223.143H265.693C264.222 223.143 262.812 222.559 261.771 221.519C260.731 220.479 260.147 219.068 260.147 217.597V205.541C254.819 209.877 216.689 205.836 204.743 195.255V217.596C204.743 219.067 204.159 220.478 203.119 221.518C202.079 222.558 200.668 223.142 199.197 223.142H180.522C164.834 223.142 149.214 221.086 134.06 217.025L118.713 212.913C115.383 212.021 112.439 210.054 110.341 207.319C108.242 204.583 107.104 201.231 107.104 197.783V123.493C107.104 114.369 101.643 106.104 93.2141 102.61C73.8851 94.6002 60.2891 75.5502 60.2891 53.3252H54.3591C42.7841 53.3252 34.4561 64.4522 37.7151 75.5592C40.9621 86.6272 46.5711 96.6962 53.9551 105.18C57.6281 109.401 59.6851 114.778 59.6851 120.373V230.343C59.6851 240.213 66.3151 248.846 75.8481 251.401L140.816 268.809C146.197 270.251 150.994 273.336 154.537 277.635C158.081 281.933 160.194 287.23 160.583 292.787L167.219 387.634C173.362 389.633 180.676 391.179 191.993 391.179C223.991 391.179 223.991 378.817 255.989 378.817C278.108 378.817 284.937 384.724 297.615 388.372L304.061 296.241C305.042 282.223 316.7 271.352 330.753 271.352H362.342C363.385 271.352 364.409 271.627 365.312 272.148C366.215 272.669 366.965 273.419 367.486 274.322L395.556 322.94C405.523 340.203 427.598 346.118 444.861 336.151L473.334 319.712C473.712 319.494 474.043 319.204 474.309 318.858C474.575 318.512 474.77 318.117 474.883 317.696C474.996 317.275 475.025 316.835 474.968 316.403C474.911 315.97 474.769 315.553 474.551 315.175Z" fill="#FFDDCE"/>
<path d="M232.13 134.257C225.002 134.257 218 136.133 211.828 139.697C205.655 143.261 200.529 148.386 196.965 154.559L192.645 162.042L193.682 176.121C195.257 197.504 230.745 212.323 243.633 212.323C256.52 212.323 273.755 197.504 275.33 176.121L278.317 135.563C278.349 135.126 278.374 134.691 278.393 134.257H232.13Z" fill="#FFECE4"/>
<path d="M93.269 53.327C93.269 29.63 108.725 9.54402 130.107 2.59802C124.781 0.871465 119.216 -0.00528105 113.617 2.39305e-05C84.165 2.39305e-05 60.29 23.875 60.29 53.327C60.29 82.779 84.165 106.654 113.617 106.654C119.372 106.654 124.914 105.742 130.107 104.056C108.725 97.11 93.269 77.024 93.269 53.327Z" fill="#707DD3"/>
<path d="M510.06 316.796C489.703 317.127 482.829 322.666 470.793 326.212V377.343C470.793 440.333 419.73 491.396 356.74 491.396H0V510.104C0 511.151 0.849 512 1.896 512H510.105C510.608 512 511.09 511.8 511.446 511.445C511.801 511.089 512.001 510.607 512.001 510.104V318.694C512 318.442 511.949 318.192 511.85 317.959C511.752 317.726 511.608 317.516 511.428 317.339C511.247 317.163 511.033 317.024 510.798 316.93C510.564 316.837 510.313 316.792 510.06 316.796Z" fill="#B1E4F9"/>
<path d="M447.996 460.944C430.554 460.944 421.34 457.385 413.21 454.244C405.672 451.333 398.552 448.582 383.992 448.582C369.432 448.582 362.313 451.333 354.775 454.244C346.646 457.385 337.432 460.944 319.991 460.944C302.55 460.944 293.336 457.384 285.206 454.244C277.67 451.332 270.55 448.582 255.991 448.582C241.433 448.582 234.314 451.332 226.778 454.244C218.648 457.384 209.435 460.944 191.995 460.944C189.946 460.944 187.981 460.13 186.532 458.681C185.083 457.232 184.269 455.267 184.269 453.218C184.269 451.169 185.083 449.204 186.532 447.755C187.981 446.306 189.946 445.492 191.995 445.492C206.553 445.492 213.672 442.742 221.208 439.83C229.338 436.69 238.551 433.13 255.991 433.13C273.432 433.13 282.646 436.69 290.776 439.83C298.312 442.742 305.432 445.492 319.991 445.492C334.55 445.492 341.669 442.742 349.206 439.83C357.336 436.69 366.55 433.13 383.992 433.13C401.434 433.13 410.648 436.689 418.778 439.83C426.316 442.741 433.436 445.492 447.996 445.492C450.045 445.492 452.01 446.306 453.459 447.755C454.908 449.204 455.722 451.169 455.722 453.218C455.722 455.267 454.908 457.232 453.459 458.681C452.01 460.13 450.045 460.944 447.996 460.944Z" fill="#B1E4F9"/>
<path d="M435.122 460.194C438.873 460.665 443.111 460.944 447.995 460.944C450.02 460.934 451.959 460.129 453.397 458.703C454.834 457.277 455.654 455.344 455.681 453.32C455.708 451.295 454.939 449.341 453.54 447.878C452.141 446.414 450.224 445.558 448.2 445.494C444.27 450.76 439.895 455.678 435.122 460.194Z" fill="#90D8F9"/>
<path d="M319.988 398.906C302.548 398.906 293.335 395.346 285.205 392.206C277.669 389.294 270.55 386.544 255.991 386.544C241.433 386.544 234.314 389.294 226.778 392.206C218.648 395.346 209.435 398.906 191.995 398.906C174.555 398.906 165.341 395.347 157.211 392.206C149.675 389.295 142.555 386.544 127.996 386.544C125.947 386.544 123.982 385.73 122.533 384.281C121.084 382.832 120.27 380.867 120.27 378.818C120.27 376.769 121.084 374.804 122.533 373.355C123.982 371.906 125.947 371.092 127.996 371.092C145.437 371.092 154.651 374.652 162.781 377.792C170.317 380.704 177.437 383.454 191.995 383.454C206.553 383.454 213.672 380.704 221.208 377.792C229.338 374.652 238.551 371.092 255.991 371.092C273.432 371.092 282.645 374.652 290.775 377.792C298.311 380.704 305.43 383.454 319.988 383.454C324.256 383.454 327.714 386.913 327.714 391.18C327.714 395.447 324.256 398.906 319.988 398.906Z" fill="#B1E4F9"/>
<path d="M269.011 297.274H246.841C245.182 297.272 243.592 296.612 242.419 295.439C241.246 294.266 240.586 292.675 240.584 291.017V263.551C240.584 261.501 239.77 259.536 238.321 258.087C236.872 256.639 234.907 255.825 232.858 255.825C230.809 255.825 228.844 256.639 227.395 258.087C225.946 259.536 225.132 261.501 225.132 263.551V291.017C225.13 292.675 224.47 294.266 223.297 295.439C222.124 296.612 220.534 297.272 218.875 297.274H196.704C194.655 297.274 192.69 298.088 191.241 299.536C189.792 300.985 188.978 302.95 188.978 305C188.978 307.049 189.792 309.014 191.241 310.463C192.69 311.912 194.655 312.726 196.704 312.726H218.875C223.995 312.73 228.95 310.918 232.858 307.611C236.766 310.918 241.721 312.73 246.841 312.726H269.011C273.279 312.726 276.737 309.267 276.737 305C276.737 300.733 273.279 297.274 269.011 297.274ZM366.162 257.957C366.662 257.073 366.982 256.1 367.106 255.093C367.229 254.086 367.153 253.065 366.882 252.087C366.61 251.109 366.149 250.194 365.524 249.395C364.899 248.596 364.123 247.927 363.24 247.428C362.357 246.928 361.384 246.607 360.377 246.484C359.37 246.36 358.348 246.436 357.371 246.707C356.393 246.979 355.478 247.44 354.679 248.064C353.879 248.689 353.211 249.465 352.711 250.349C349.073 256.78 348.024 264.297 349.558 271.353H362.343C363.386 271.353 364.41 271.627 365.313 272.148C366.216 272.67 366.966 273.42 367.487 274.323L366.225 272.139C364.987 269.983 364.33 267.542 364.319 265.056C364.308 262.57 364.943 260.123 366.162 257.957ZM93.716 216.684C95.225 218.193 97.203 218.947 99.18 218.947C101.157 218.947 103.135 218.192 104.644 216.684C106.454 214.879 108.706 213.581 111.175 212.919C113.645 212.258 116.244 212.256 118.714 212.914C115.422 212.031 112.508 210.1 110.413 207.412C108.319 204.724 107.158 201.426 107.107 198.019C102.044 199.384 97.427 202.052 93.716 205.757C92.2671 207.206 91.4531 209.171 91.4531 211.22C91.4531 213.269 92.2671 215.234 93.716 216.684Z" fill="#FFCBBE"/>
</g>
</g>
<defs>
<clipPath id="clip0_183_729">
<rect width="512" height="512" fill="white"/>
</clipPath>
<clipPath id="clip1_183_729">
<rect width="512" height="512" fill="white"/>
</clipPath>
</defs>
</svg>
