<svg width="512" height="512" viewBox="0 0 512 512" fill="none" xmlns="http://www.w3.org/2000/svg">
<g clip-path="url(#clip0_183_588)">
<g clip-path="url(#clip1_183_588)">
<path d="M411.826 94.6088C411.826 112.974 396.8 128 378.435 128H306.087L281.155 146.699L272.696 143.137L210.143 116.424L272.696 69.5648L274.922 67.8948C280.708 63.5728 287.734 61.2311 294.957 61.2168H378.435C396.8 61.2168 411.826 76.2428 411.826 94.6088Z" fill="#F29A36"/>
<path d="M411.825 94.6088C411.825 112.974 396.799 128 378.434 128H306.086L281.154 146.699L272.695 143.137V69.5648L274.921 67.8948C280.708 63.5728 287.734 61.2311 294.956 61.2168H378.434C396.799 61.2168 411.825 76.2428 411.825 94.6088Z" fill="#E7812E"/>
<path d="M333.913 272.696L272.696 256.668L269.244 255.778L266.017 256.223C263.234 234.853 255.108 214.15 242.643 196.342L232.736 182.206L186.991 216.487C181.204 220.809 174.178 223.151 166.956 223.165H83.4779C65.1129 223.165 50.0869 208.139 50.0869 189.774C50.0869 171.409 65.1129 156.383 83.4779 156.383H155.826L213.704 112.974C225.057 104.516 240.307 104.404 250.212 110.525C258.115 115.868 265.683 121.989 272.695 128.89C310.205 164.619 333.69 218.379 333.913 272.696Z" fill="#F9BC35"/>
<path d="M333.912 272.696L272.695 256.668V128.89C310.204 164.619 333.689 218.379 333.912 272.696Z" fill="#F39E31"/>
<path d="M491.296 249.099C478.385 252.327 465.807 257.224 454.009 263.569C417.166 283.492 373.091 283.492 336.248 263.569C316.325 252.772 294.62 246.651 272.693 245.092C243.421 242.866 213.703 249.099 186.878 263.569C150.035 283.492 105.96 283.492 69.1169 263.569C53.5872 255.185 36.7761 249.43 19.366 246.539C9.239 244.87 1.58873e-05 252.772 1.58873e-05 263.012V478.608C-0.00301194 480.801 0.426775 482.974 1.26475 485.001C2.10273 487.028 3.33243 488.869 4.8834 490.42C6.43437 491.971 8.27612 493.201 10.3031 494.039C12.3301 494.877 14.5026 495.307 16.696 495.304H495.304C497.497 495.307 499.67 494.877 501.697 494.039C503.724 493.201 505.566 491.971 507.117 490.42C508.668 488.869 509.897 487.028 510.735 485.001C511.573 482.974 512.003 480.801 512 478.608V265.35C511.999 254.553 501.982 246.539 491.296 249.099Z" fill="#54CCFF"/>
<path d="M511.999 265.35V478.609C512.002 480.802 511.573 482.975 510.735 485.002C509.897 487.029 508.667 488.87 507.116 490.421C505.565 491.972 503.723 493.202 501.696 494.04C499.669 494.878 497.497 495.308 495.303 495.305H272.695V245.092C294.622 246.65 316.325 252.772 336.25 263.569C373.093 283.492 417.168 283.492 454.011 263.569C465.808 257.225 478.386 252.327 491.298 249.099C501.982 246.539 511.999 254.553 511.999 265.35Z" fill="#4BB8E6"/>
<path d="M469.816 292.952C423.068 318.218 367.193 318.218 320.447 292.952C305.678 284.955 289.427 280.069 272.697 278.594C248.878 276.368 224.501 281.154 202.687 292.952C155.939 318.218 100.064 318.218 53.318 292.952C46.9176 289.535 40.2556 286.632 33.395 284.27V461.912H478.612V288.611C475.603 289.947 472.71 291.394 469.816 292.952Z" fill="#5AF1FF"/>
<path d="M478.608 288.612V461.913H272.695V278.595C289.168 280.042 305.417 284.828 320.445 292.953C367.193 318.219 423.068 318.219 469.814 292.953C472.69 291.395 475.623 289.947 478.608 288.612Z" fill="#51DAE6"/>
<path d="M372.845 245.043C365.008 245.043 358.008 239.489 356.475 231.499C354.418 220.828 351.669 210.302 348.246 199.988C345.344 191.238 350.083 181.786 358.833 178.885C367.605 175.988 377.029 180.722 379.942 189.478C383.812 201.13 386.942 213.147 389.257 225.184C391.007 234.239 385.072 242.994 376.017 244.738C374.972 244.939 373.91 245.041 372.845 245.043Z" fill="#DAE2F2"/>
<path d="M389.119 452.118C375.986 465.252 354.95 465.141 341.926 452.118C310.872 421.064 298.963 395.575 272.806 348.271C272.806 348.605 272.695 348.939 272.695 349.273C266.35 403.367 265.35 409.6 265.35 422.734C265.35 448.334 250.545 461.913 231.847 461.913C213.481 461.913 198.567 446.887 198.567 428.522C198.567 378.769 208.695 337.698 215.929 320.668C225.946 316.327 247.093 311.541 265.349 311.541C267.798 311.541 270.245 311.652 272.694 311.764C306.866 313.656 331.463 328.237 346.045 334.693C356.284 359.291 371.421 386.004 389.898 405.816C402.253 418.95 401.919 439.318 389.119 452.118Z" fill="#54CCFF"/>
<path d="M194.783 116.87C167.164 116.87 144.696 94.4023 144.696 66.7833C144.696 39.1643 167.164 16.6963 194.783 16.6963C222.402 16.6963 244.87 39.1643 244.87 66.7833C244.87 94.4023 222.402 116.87 194.783 116.87Z" fill="#F9BC35"/>
<path d="M389.119 452.118C375.986 465.252 354.95 465.141 341.926 452.118C310.872 421.064 298.963 395.575 272.806 348.271C272.806 348.605 272.695 348.939 272.695 349.273V311.763C306.867 313.655 331.464 328.236 346.046 334.692C356.285 359.29 371.422 386.003 389.899 405.815C402.253 418.95 401.919 439.318 389.119 452.118Z" fill="#4BB8E6"/>
</g>
</g>
<defs>
<clipPath id="clip0_183_588">
<rect width="512" height="512" fill="white"/>
</clipPath>
<clipPath id="clip1_183_588">
<rect width="512" height="512" fill="white"/>
</clipPath>
</defs>
</svg>
