<svg width="512" height="512" viewBox="0 0 512 512" fill="none" xmlns="http://www.w3.org/2000/svg">
<g clip-path="url(#clip0_183_1152)">
<path d="M306.29 58.0078C317.687 88.4138 232.02 166.547 244.691 208.113L328.395 180.933C328.395 180.933 320.992 124.102 320.992 64.7658C320.992 5.42985 244.692 16.4178 244.692 16.4178" fill="#3E4754"/>
<path d="M206.164 58.0078C194.766 88.4138 280.434 166.547 267.766 208.113L184.059 180.933C184.059 180.933 191.461 124.102 191.461 64.7658C191.461 5.42985 267.766 16.4178 267.766 16.4178" fill="#3E4754"/>
<path d="M176.04 251.074H337.008V309.605H176.039L176.04 251.074Z" fill="#D89F7D"/>
<path d="M192.04 248.867H319.785V339.461H192.04V248.867Z" fill="#F7D5B9"/>
<path d="M319.793 276.773H192.043V163.367H194.855C209.238 163.367 221.656 154.997 227.496 142.847C228.687 140.4 229.589 137.823 230.184 135.168L281.723 135.5C282.352 138.155 283.282 140.729 284.496 143.172C290.391 155.141 302.711 163.367 316.969 163.367H319.781L319.793 276.773Z" fill="#F7D5B9"/>
<path d="M239.82 135.23C237.523 151.348 237.39 195.855 226.629 195.855H224.863L217.766 258.105L192.039 258.102V163.372H194.852C212.098 163.372 226.532 151.312 230.18 135.168L239.82 135.23Z" fill="#D89F7D"/>
<path d="M255.918 135.336L239.824 135.226C239.824 135.211 239.832 135.184 239.832 135.168L255.918 135.336ZM143.785 204.762V258.102H66.0548C50.8668 258.102 38.5508 270.414 38.5508 285.602C38.5508 300.793 50.8668 313.105 66.0548 313.105H154.422C175.199 313.105 192.039 296.262 192.039 275.488V163.368H185.179C162.316 163.368 143.785 181.898 143.785 204.762Z" fill="#F7D5B9"/>
<path d="M53.6328 285.602C53.6328 270.414 65.9488 258.102 81.1368 258.102H66.0548C50.8668 258.102 38.5508 270.414 38.5508 285.602C38.5508 300.793 50.8668 313.105 66.0548 313.105H81.1368C65.9488 313.105 53.6328 300.793 53.6328 285.602ZM158.867 204.762C158.867 184.715 173.117 168 192.039 164.187V163.367H185.176C162.316 163.367 143.786 181.898 143.786 204.762V258.102H158.867V204.762ZM217.766 248.867H192.039V339.461H217.766V248.867Z" fill="#D89F7D"/>
<path d="M368.04 204.761V258.101H445.773C460.961 258.101 473.273 270.413 473.273 285.601C473.273 300.792 460.961 313.104 445.773 313.104H357.403C336.629 313.104 319.789 296.261 319.789 275.487V163.367H326.649C349.508 163.367 368.039 181.897 368.039 204.761H368.04Z" fill="#F7D5B9"/>
<path d="M374.258 313.109H357.398C336.628 313.109 319.793 296.269 319.793 275.491V224.941C329.098 224.941 336.641 232.483 336.641 241.792V275.492C336.641 296.269 353.492 313.109 374.258 313.109Z" fill="#D89F7D"/>
<path d="M319.781 163.375V258.105H192.043V163.375H194.852C200.039 163.381 205.167 162.265 209.882 160.102C212.32 163.301 214.953 166.301 217.766 169.051C228.52 179.574 241.828 186.441 256.23 186.441C274.3 186.441 290.672 175.625 302.41 160.312C306.996 162.336 311.956 163.379 316.969 163.375H319.781Z" fill="#8FC4D8"/>
<path d="M217.766 169.047V258.102H192.043V163.372H194.852C200.039 163.379 205.167 162.264 209.882 160.102C212.32 163.301 214.953 166.301 217.766 169.047Z" fill="#71ADBF"/>
<path d="M284.496 143.172C275.953 148.848 266.371 152.246 256.23 152.246C245.914 152.246 236.152 148.723 227.496 142.852C228.687 140.403 229.589 137.825 230.184 135.168L281.723 135.5C282.352 138.155 283.282 140.729 284.496 143.172Z" fill="#D89F7D"/>
<path d="M320.992 64.766C320.992 28.996 291.996 0 256.227 0C220.457 0 191.461 28.996 191.461 64.766C191.461 100.536 220.457 142.84 256.227 142.84C291.997 142.84 320.992 100.531 320.992 64.766Z" fill="#F7D5B9"/>
<path d="M256.227 142.836C220.465 142.836 191.461 100.527 191.461 64.766C191.46 28.992 220.465 0 256.227 0C237.507 0 222.328 28.992 222.328 64.766C222.328 100.527 237.508 142.836 256.227 142.836Z" fill="#D89F7D"/>
<path d="M320.992 64.7699C320.992 78.4569 316.75 93.0979 309.492 105.96C297.695 66.1679 254.141 81.6519 222.469 70.7379C210.953 66.7619 201.008 59.3129 194.727 44.4339C203.254 18.6249 227.57 0.00390625 256.227 0.00390625C291.997 0.00390625 320.992 28.9959 320.992 64.7699Z" fill="#3E4754"/>
<path d="M222.328 64.7699C222.328 66.7379 222.371 68.7339 222.468 70.7379C210.953 66.7619 201.008 59.3129 194.727 44.4339C203.254 18.6249 227.57 0.00390625 256.227 0.00390625C237.507 0.00390625 222.328 28.9959 222.328 64.7699Z" fill="#29313A"/>
<path d="M492.277 306.017V441.481C492.277 479.872 461.16 510.989 422.777 510.989H63.1408C41.2538 510.989 23.5078 493.247 23.5078 471.356V306.016L492.277 306.017Z" fill="#996136"/>
<path d="M492.277 348.34V470.676C492.277 492.941 474.227 510.988 451.961 510.988H168.273C129.883 510.988 98.7661 479.871 98.7661 441.48V380.14C98.7661 362.578 113.004 348.34 130.566 348.34H492.277Z" fill="#C28E63"/>
<path d="M512 306.945C512 311.023 510.348 314.703 507.684 317.379C504.916 320.145 501.163 321.697 497.25 321.695H14.738C6.594 321.695 0 315.09 0 306.945C0 302.871 1.652 299.191 4.316 296.515C5.68294 295.144 7.30744 294.057 9.09606 293.317C10.8847 292.576 12.8021 292.196 14.738 292.199H497.25C505.395 292.199 512 298.805 512 306.945Z" fill="#996136"/>
<path d="M512 306.944C512 311.022 510.348 314.702 507.684 317.378C504.916 320.143 501.163 321.696 497.25 321.694H86.8899C78.7499 321.694 72.1519 315.089 72.1519 306.944C72.1519 302.87 73.8049 299.19 76.4689 296.514C77.8367 295.145 79.4612 294.059 81.2495 293.318C83.0377 292.578 84.9544 292.198 86.8899 292.199H497.25C505.395 292.199 512 298.805 512 306.945V306.944Z" fill="#C28E63"/>
<path d="M463.633 193.417C462.078 193.419 460.558 192.955 459.27 192.085C455.676 189.671 454.715 184.8 457.129 181.206C469.766 162.386 460.477 144.136 449.715 123.003C438.985 101.929 426.825 78.0423 442.813 54.2293C443.972 52.504 445.769 51.3095 447.809 50.9082C449.849 50.507 451.964 50.9318 453.691 52.0893C457.285 54.5033 458.246 59.3743 455.832 62.9683C444.977 79.1363 453.648 96.1712 463.688 115.894C475.047 138.198 487.918 163.479 470.148 189.948C469.43 191.017 468.46 191.892 467.324 192.497C466.188 193.102 464.92 193.418 463.633 193.417ZM415.031 193.417C413.476 193.419 411.956 192.955 410.668 192.085C407.074 189.671 406.113 184.8 408.528 181.206C421.164 162.386 411.875 144.136 401.113 123.003C390.383 101.929 378.223 78.0423 394.211 54.2293C395.37 52.5037 397.168 51.309 399.207 50.9078C401.247 50.5065 403.363 50.9314 405.09 52.0893C408.684 54.5033 409.645 59.3743 407.23 62.9683C396.375 79.1363 405.047 96.1713 415.086 115.89C426.446 138.198 439.316 163.48 421.546 189.944C420.829 191.014 419.86 191.891 418.723 192.497C417.587 193.103 416.319 193.419 415.031 193.417ZM107.734 193.417C106.313 193.416 104.92 193.028 103.703 192.296C102.485 191.564 101.49 190.515 100.822 189.261C100.155 188.008 99.8407 186.596 99.9131 185.177C99.9856 183.759 100.442 182.387 101.234 181.207C113.871 162.386 104.578 144.136 93.8198 123.003C83.0898 101.929 70.9298 78.0423 86.9178 54.2293C88.0773 52.5037 89.8745 51.309 91.9144 50.9078C93.9543 50.5065 96.07 50.9314 97.7968 52.0893C99.5227 53.2486 100.717 55.046 101.118 57.0862C101.519 59.1264 101.093 61.2422 99.9338 62.9683C89.0778 79.1363 97.7498 96.1713 107.793 115.89C119.148 138.198 132.02 163.48 114.253 189.944C113.536 191.015 112.565 191.891 111.428 192.497C110.291 193.103 109.022 193.419 107.734 193.417ZM59.1328 193.417C57.7124 193.416 56.3191 193.028 55.1018 192.296C53.8845 191.564 52.8889 190.515 52.2214 189.261C51.554 188.008 51.2397 186.596 51.3121 185.177C51.3846 183.759 51.841 182.387 52.6328 181.207C65.2698 162.386 55.9768 144.136 45.2188 123.003C34.4888 101.929 22.3288 78.0423 38.3158 54.2293C39.4754 52.5034 41.2727 51.3085 43.3128 50.9073C45.353 50.506 47.469 50.9311 49.1958 52.0893C50.9216 53.2487 52.1161 55.0463 52.5167 57.0864C52.9173 59.1266 52.491 61.2423 51.3318 62.9683C40.4768 79.1363 49.1478 96.1713 59.1918 115.89C70.5468 138.198 83.4218 163.48 65.6518 189.944C64.9345 191.015 63.9642 191.892 62.8269 192.498C61.6895 193.103 60.4214 193.419 59.1328 193.417Z" fill="#D8E4EF"/>
<path d="M71.3161 479.059C69.2369 479.058 67.2431 478.232 65.7729 476.762C64.3028 475.292 63.4766 473.298 63.4761 471.219V366.695C63.4761 362.367 66.9881 358.855 71.3161 358.855C75.6441 358.855 79.1561 362.367 79.1561 366.695V471.22C79.1555 473.299 78.3294 475.293 76.8592 476.763C75.389 478.233 73.3952 479.059 71.3161 479.06V479.059ZM444.469 479.059C442.39 479.059 440.396 478.233 438.925 476.762C437.455 475.292 436.629 473.298 436.629 471.219V366.695C436.612 365.655 436.803 364.622 437.189 363.657C437.576 362.691 438.15 361.812 438.88 361.071C439.609 360.33 440.479 359.741 441.438 359.339C442.398 358.937 443.427 358.73 444.467 358.73C445.507 358.73 446.537 358.937 447.496 359.339C448.455 359.741 449.325 360.33 450.054 361.071C450.784 361.812 451.358 362.691 451.745 363.657C452.131 364.622 452.322 365.655 452.305 366.695V471.22C452.305 473.298 451.48 475.292 450.01 476.762C448.541 478.232 446.548 479.059 444.469 479.06V479.059ZM382.273 479.059C380.194 479.058 378.201 478.231 376.732 476.761C375.262 475.291 374.437 473.297 374.437 471.219V366.695C374.42 365.655 374.611 364.622 374.997 363.657C375.384 362.691 375.958 361.812 376.688 361.071C377.417 360.33 378.287 359.741 379.246 359.339C380.206 358.937 381.235 358.73 382.275 358.73C383.315 358.73 384.345 358.937 385.304 359.339C386.263 359.741 387.133 360.33 387.862 361.071C388.592 361.812 389.166 362.691 389.553 363.657C389.939 364.622 390.13 365.655 390.113 366.695V471.22C390.113 473.299 389.287 475.293 387.817 476.763C386.346 478.234 384.352 479.06 382.273 479.06V479.059ZM320.082 479.059C318.003 479.058 316.01 478.231 314.541 476.761C313.071 475.291 312.246 473.297 312.246 471.219V366.695C312.229 365.655 312.42 364.622 312.806 363.657C313.193 362.691 313.767 361.812 314.497 361.071C315.226 360.33 316.096 359.741 317.055 359.339C318.015 358.937 319.044 358.73 320.084 358.73C321.124 358.73 322.154 358.937 323.113 359.339C324.072 359.741 324.942 360.33 325.671 361.071C326.401 361.812 326.975 362.691 327.362 363.657C327.748 364.622 327.939 365.655 327.922 366.695V471.22C327.922 473.299 327.096 475.293 325.626 476.763C324.156 478.234 322.161 479.06 320.082 479.06V479.059ZM257.89 479.059C255.811 479.058 253.817 478.232 252.347 476.762C250.877 475.292 250.051 473.298 250.05 471.219V366.695C250.05 365.665 250.253 364.646 250.647 363.694C251.041 362.743 251.618 361.879 252.346 361.151C253.074 360.423 253.939 359.845 254.89 359.451C255.841 359.057 256.861 358.855 257.89 358.855C258.92 358.855 259.939 359.057 260.89 359.451C261.841 359.845 262.706 360.423 263.434 361.151C264.162 361.879 264.739 362.743 265.133 363.694C265.527 364.646 265.73 365.665 265.73 366.695V471.22C265.73 473.299 264.904 475.293 263.434 476.763C261.964 478.234 259.969 479.06 257.89 479.06V479.059ZM195.7 479.059C193.621 479.058 191.627 478.232 190.157 476.762C188.687 475.292 187.861 473.298 187.86 471.219V366.695C187.86 364.615 188.686 362.621 190.156 361.151C191.627 359.681 193.621 358.855 195.7 358.855C197.779 358.855 199.774 359.681 201.244 361.151C202.714 362.621 203.54 364.615 203.54 366.695V471.22C203.54 473.299 202.714 475.293 201.244 476.763C199.774 478.234 197.779 479.06 195.7 479.06V479.059ZM133.508 479.059C131.429 479.058 129.435 478.232 127.965 476.762C126.495 475.292 125.669 473.298 125.668 471.219V366.695C125.669 364.616 126.495 362.622 127.965 361.152C129.435 359.681 131.429 358.855 133.508 358.855C135.587 358.855 137.581 359.681 139.051 361.152C140.521 362.622 141.348 364.616 141.348 366.695V471.22C141.348 473.299 140.521 475.293 139.051 476.763C137.581 478.233 135.587 479.059 133.508 479.06V479.059Z" fill="#7A4A29"/>
<path d="M192.043 248.867H319.781V258.102H192.043V248.867Z" fill="#71ADBF"/>
<path d="M201.648 83.2303C201.648 71.7303 195.801 62.4062 188.582 62.4062C181.367 62.4062 175.52 71.7303 175.52 83.2303C175.52 94.7343 181.367 104.059 188.582 104.059C195.801 104.059 201.648 94.7343 201.648 83.2303Z" fill="#D89F7D"/>
<path d="M235.309 60.035C232.363 65.141 225.836 66.887 220.734 63.941C220.189 63.6224 219.664 63.2718 219.16 62.891C219.246 63.578 219.29 64.219 219.29 64.777C219.29 70.672 214.508 75.453 208.613 75.453C202.723 75.453 197.941 70.672 197.941 64.777C197.941 64.219 197.984 63.578 198.071 62.887C197.511 63.305 196.977 63.664 196.492 63.941C191.387 66.887 184.863 65.141 181.918 60.035C178.968 54.93 180.723 48.406 185.824 45.457C186.375 45.1481 186.942 44.8703 187.524 44.625C186.883 44.348 186.312 44.066 185.824 43.789C180.723 40.839 178.969 34.316 181.918 29.211C184.863 24.105 191.391 22.359 196.492 25.305C196.977 25.585 197.512 25.941 198.07 26.363C197.989 25.7348 197.946 25.1023 197.941 24.469C197.941 18.574 202.723 13.793 208.613 13.793C214.508 13.793 219.289 18.574 219.289 24.469C219.289 25.031 219.246 25.664 219.16 26.359C219.715 25.941 220.25 25.586 220.734 25.305C225.84 22.359 232.364 24.105 235.309 29.211C238.258 34.316 236.508 40.84 231.406 43.789C230.918 44.066 230.344 44.348 229.703 44.621C230.343 44.898 230.918 45.18 231.406 45.457C236.508 48.407 238.258 54.93 235.309 60.035Z" fill="#C9508B"/>
<path d="M208.613 44.6246C207.852 45.9446 206.297 46.7226 204.324 47.1016C199.406 48.0426 191.883 46.4836 187.527 44.6246H187.523C186.883 44.3476 186.313 44.0656 185.824 43.7886C180.719 40.8386 178.969 34.3156 181.918 29.2106C184.863 24.1046 191.387 22.3586 196.492 25.3046C196.977 25.5846 197.508 25.9446 198.066 26.3626C198.636 31.0656 201.046 38.3546 204.324 42.1476C205.637 43.6676 207.085 44.6246 208.613 44.6246Z" fill="#E08CA4"/>
<path d="M219.285 64.7804C219.285 70.6754 214.504 75.4484 208.613 75.4484C202.722 75.4484 197.941 70.6754 197.941 64.7804C197.941 64.2184 197.984 63.5774 198.071 62.8864C201.859 60.0424 206.969 54.3114 208.613 49.5814C209.277 47.6794 209.379 45.9444 208.613 44.6244C210.145 44.6244 211.593 45.5814 212.906 47.0974C216.18 50.8864 218.594 58.1834 219.16 62.8904C219.246 63.5854 219.285 64.2184 219.285 64.7804ZM231.406 43.7844C230.918 44.0654 230.344 44.3474 229.703 44.6244C225.348 42.7614 217.824 41.2024 212.906 42.1474C210.934 42.5224 209.379 43.3004 208.613 44.6244C207.852 43.3004 207.953 41.5614 208.613 39.6644C210.262 34.9374 215.371 29.1984 219.16 26.3584C219.715 25.9404 220.25 25.5814 220.734 25.3044C225.84 22.3544 232.364 24.1044 235.309 29.2104C238.258 34.3154 236.508 40.8394 231.406 43.7844Z" fill="#E08CA4"/>
</g>
<defs>
<clipPath id="clip0_183_1152">
<rect width="512" height="512" fill="white"/>
</clipPath>
</defs>
</svg>
