<svg width="512" height="512" viewBox="0 0 512 512" fill="none" xmlns="http://www.w3.org/2000/svg">
<g clip-path="url(#clip0_183_1246)">
<path d="M400.52 425.246C384.162 425.246 371.903 412.083 370.56 410.582C368.21 408.003 360.343 401.246 352.52 401.246C344.697 401.246 336.829 408.003 334.457 410.606C333.136 412.083 320.877 425.246 304.52 425.246C288.163 425.246 275.903 412.083 274.56 410.582C272.21 408.003 264.343 401.246 256.52 401.246C248.697 401.246 240.829 408.003 238.457 410.606C237.136 412.083 224.877 425.246 208.52 425.246C192.163 425.246 179.903 412.083 178.56 410.582C176.21 408.003 168.343 401.246 160.52 401.246C152.697 401.246 144.829 408.003 142.457 410.606C141.136 412.083 128.877 425.246 112.52 425.246C96.1627 425.246 83.8997 412.083 82.5597 410.582C81.1545 409.002 80.432 406.93 80.5501 404.819C80.6682 402.708 81.6174 400.729 83.19 399.316C84.7627 397.902 86.831 397.169 88.9428 397.276C91.0546 397.383 93.0381 398.322 94.4597 399.887C96.8337 402.493 104.698 409.246 112.52 409.246C120.342 409.246 128.21 402.488 130.582 399.885C131.903 398.408 144.162 385.246 160.52 385.246C176.878 385.246 189.136 398.408 190.479 399.909C192.829 402.488 200.696 409.246 208.52 409.246C216.344 409.246 224.21 402.488 226.582 399.885C227.903 398.408 240.162 385.246 256.52 385.246C272.878 385.246 285.136 398.408 286.479 399.909C288.829 402.488 296.696 409.246 304.52 409.246C312.344 409.246 320.21 402.488 322.582 399.885C323.903 398.408 336.162 385.246 352.52 385.246C368.878 385.246 381.136 398.408 382.479 399.909C384.829 402.488 392.696 409.246 400.52 409.246C408.344 409.246 416.21 402.488 418.582 399.885C420.001 398.307 421.988 397.357 424.107 397.245C426.227 397.132 428.304 397.866 429.882 399.285C431.46 400.704 432.409 402.692 432.522 404.811C432.635 406.93 431.901 409.007 430.482 410.585C429.136 412.083 416.877 425.246 400.52 425.246Z" fill="#66AADD"/>
<path d="M304.52 464.518C288.162 464.518 275.903 451.355 274.56 449.855C272.21 447.275 264.343 440.518 256.52 440.518C248.62 440.518 240.648 447.433 238.479 449.855C237.136 451.355 224.879 464.518 208.52 464.518C192.161 464.518 179.903 451.355 178.56 449.855C176.21 447.275 168.343 440.518 160.52 440.518C158.398 440.518 156.363 439.675 154.863 438.174C153.362 436.674 152.52 434.639 152.52 432.518C152.52 430.396 153.362 428.361 154.863 426.861C156.363 425.36 158.398 424.518 160.52 424.518C176.877 424.518 189.136 437.681 190.479 439.182C192.829 441.761 200.696 448.518 208.52 448.518C216.42 448.518 224.391 441.604 226.56 439.182C227.903 437.682 240.16 424.518 256.52 424.518C272.88 424.518 285.136 437.681 286.479 439.182C288.829 441.761 296.696 448.518 304.52 448.518C312.42 448.518 320.391 441.604 322.56 439.182C323.903 437.682 336.16 424.518 352.52 424.518C354.641 424.518 356.676 425.36 358.176 426.861C359.677 428.361 360.52 430.396 360.52 432.518C360.52 434.639 359.677 436.674 358.176 438.174C356.676 439.675 354.641 440.518 352.52 440.518C344.62 440.518 336.648 447.433 334.479 449.855C333.136 451.355 320.877 464.518 304.52 464.518Z" fill="#66AADD"/>
<path d="M355.7 136.173V192.854L328.19 161.24C325.722 158.404 322.675 156.129 319.253 154.571C315.831 153.012 312.115 152.206 308.355 152.206H201.407V152.212C196.415 152.245 191.487 153.344 186.954 155.434L107.459 192.125C105.537 192.838 103.779 193.933 102.292 195.344C100.805 196.755 99.6191 198.453 98.807 200.335C95.444 208.135 99.495 217.335 107.34 220.58L168.146 245.767C171.39 247.125 174.914 247.681 178.419 247.388C183.038 246.983 189.333 245.694 193.881 241.913V293.763H320.33V198.573L358.255 242.136C361.906 246.536 365.775 249.001 371.212 248.906C375.223 248.791 379.029 247.11 381.816 244.223C384.603 241.337 386.15 237.475 386.125 233.462V123.632C386.125 117.728 355.7 128.983 355.7 136.173ZM192.381 222.873L157.052 208.239L193.884 198.578L193.913 198.567L193.884 198.75V223.58C193.393 223.32 192.89 223.083 192.377 222.868L192.381 222.873Z" fill="#FCD3C4"/>
<path d="M193.88 198.574V293.764H320.33V198.574C320.33 198.574 303.274 192.361 298.298 180.083C292.804 166.528 297.09 152.207 297.09 152.207H216.89C216.89 152.207 221.403 166.528 215.91 180.083C210.933 192.361 193.878 198.574 193.878 198.574H193.88Z" fill="#F9B534"/>
<path d="M257.032 137.624C254.14 137.624 248.639 135.365 243.723 131.047C242.342 129.839 241.075 128.507 239.939 127.066V157.166C239.939 157.166 243.021 171.515 257.859 171.515C272.697 171.515 274.242 157.166 274.242 157.166V126.957C269.347 133.156 261.447 137.624 257.032 137.624Z" fill="#FCD3C4"/>
<path d="M257.091 150.8C266.805 147.276 272.741 143.2 274.242 139.919V126.959C269.342 133.159 261.442 137.626 257.032 137.626C254.14 137.626 248.639 135.367 243.723 131.049C242.342 129.841 241.075 128.509 239.939 127.068V157.168C240.855 160.698 242.676 163.928 245.221 166.539C245.227 159.021 248.6 153.88 257.091 150.8Z" fill="#FFC7B5"/>
<path d="M273.919 82.8382C268.87 86.4182 266.319 87.8763 261.299 87.8763C259.736 87.8623 258.175 87.742 256.629 87.5163C251.828 86.8946 247.202 85.31 243.029 82.8573L235.5 77.7812L232.386 86.3112C231.347 88.6731 230.062 90.9189 228.553 93.0113V116.243C228.553 131.973 247.023 144.725 257.035 144.725C267.047 144.725 285.635 131.973 285.635 116.243V83.6763C284.801 82.8475 283.812 82.1912 282.725 81.7451C281.637 81.2989 280.472 81.0717 279.297 81.0762C277.364 81.0886 275.484 81.7047 273.919 82.8382Z" fill="#FCD3C4"/>
<path d="M292.861 50.0454C292.861 50.0454 287.186 56.7534 280.461 55.4124C272 53.7264 265.654 48.9004 248.973 48.9004C236.597 48.9004 218.185 51.8214 214.1 70.7864C209.691 91.2554 228.55 103.012 228.55 103.012C230.128 101.952 231.516 100.634 232.656 99.1124C237.424 92.8934 238.156 88.4254 238.156 88.4254C243.226 91.4915 248.879 93.4684 254.756 94.2304C265.84 95.7664 270.499 93.0124 277.131 88.3104C282.113 84.7784 285.631 103.01 285.631 103.01C285.631 103.01 294.079 94.9644 296.92 88.7344C307.542 65.4454 292.861 50.0454 292.861 50.0454Z" fill="#56585E"/>
<path d="M252.285 170.74V293.763H260.285V171.375C259.48 171.47 258.67 171.517 257.859 171.517C255.973 171.529 254.096 171.267 252.285 170.74ZM282.1 231.765H320.33V215.765H282.1C279.978 215.765 277.943 216.608 276.443 218.108C274.943 219.609 274.1 221.643 274.1 223.765C274.1 225.887 274.943 227.922 276.443 229.422C277.943 230.922 279.978 231.765 282.1 231.765ZM282.1 242.152C279.978 242.152 277.943 242.995 276.443 244.495C274.943 245.996 274.1 248.03 274.1 250.152C274.1 252.274 274.943 254.309 276.443 255.809C277.943 257.309 279.978 258.152 282.1 258.152H320.33V242.152H282.1ZM232.112 215.765H193.88V231.765H232.112C234.234 231.765 236.268 230.922 237.769 229.422C239.269 227.922 240.112 225.887 240.112 223.765C240.112 221.643 239.269 219.609 237.769 218.108C236.268 216.608 234.234 215.765 232.112 215.765ZM232.112 258.152C234.234 258.152 236.268 257.309 237.769 255.809C239.269 254.309 240.112 252.274 240.112 250.152C240.112 248.03 239.269 245.996 237.769 244.495C236.268 242.995 234.234 242.152 232.112 242.152H193.88V258.152H232.112Z" fill="#F9CB4E"/>
<path d="M350.065 291.611H161.935C140.984 291.611 124 308.595 124 329.546C124 350.497 140.984 367.481 161.935 367.481H350.065C371.016 367.481 388 350.497 388 329.546C388 308.595 371.016 291.611 350.065 291.611Z" fill="#F0534A"/>
<path d="M290.944 291.611L256 324.085L221.056 291.611H209.305L253.277 332.476C254.017 333.164 254.989 333.546 256 333.546C257.01 333.546 257.983 333.164 258.723 332.476L302.7 291.611H290.944Z" fill="#C1EAFE"/>
<path d="M397.217 130.549L400.154 122.523L106.743 259.64L114.783 262.535L111.874 270.487L405.182 133.418L397.217 130.549Z" fill="#CDCDCD"/>
<path d="M39.8028 323.269L20.0928 281.093L86.3018 250.152L117.353 261.335L106.012 292.328L39.8028 323.269ZM491.907 111.992L472.197 69.8164L405.988 100.756L394.647 131.75L425.698 142.932L491.907 111.992Z" fill="#F0534A"/>
<path d="M216.892 152.207H201.652C196.576 152.207 191.56 153.308 186.952 155.435L107.457 192.126C105.534 192.838 103.776 193.933 102.289 195.344C100.802 196.756 99.6167 198.454 98.8045 200.336C95.4415 208.136 99.4925 217.336 107.338 220.581L168.144 245.768C171.388 247.126 174.912 247.682 178.417 247.389C183.678 246.928 191.117 245.322 195.666 240.189C202.09 232.944 200.139 226.083 192.376 222.868L185.015 219.819L157.047 208.234L193.879 198.573C193.879 198.573 210.934 192.36 215.911 180.082C221.406 166.528 216.892 152.207 216.892 152.207Z" fill="#FCD3C4"/>
<path d="M355.7 136.173C355.7 141.542 359.129 148.121 361.6 152.173C362.251 153.246 363.26 154.055 364.449 154.457C365.638 154.86 366.931 154.83 368.1 154.373L382.147 148.859C382.147 148.859 386.125 143.564 386.125 138.417V123.632C386.125 118.145 355.7 128.757 355.7 136.173Z" fill="#FFC7B5"/>
<path d="M388 329.545C387.999 326.856 387.713 324.174 387.147 321.545H124.853C124.287 324.174 124.001 326.856 124 329.545C124.001 332.234 124.287 334.916 124.853 337.545H387.147C387.713 334.916 387.999 332.234 388 329.545Z" fill="#E44D44"/>
<path d="M355.7 164.851L351.086 163.063C350.411 162.802 349.832 162.342 349.423 161.746C349.014 161.149 348.796 160.442 348.796 159.719V143.501C348.796 142.733 349.021 141.981 349.444 141.34C349.867 140.698 350.47 140.195 351.176 139.893L362.548 135.028C362.918 134.87 363.322 134.806 363.723 134.842C364.123 134.878 364.509 135.013 364.845 135.234C365.181 135.456 365.457 135.758 365.648 136.112C365.839 136.466 365.939 136.863 365.939 137.265V139.965C365.939 140.907 365.662 141.828 365.142 142.613C364.622 143.399 363.883 144.014 363.016 144.382L360.231 145.564L360.243 155.089L355.7 164.851Z" fill="#FCD3C4"/>
</g>
<defs>
<clipPath id="clip0_183_1246">
<rect width="512" height="512" fill="white"/>
</clipPath>
</defs>
</svg>
