<svg width="512" height="512" viewBox="0 0 512 512" fill="none" xmlns="http://www.w3.org/2000/svg">
<g clip-path="url(#clip0_183_1199)">
<g clip-path="url(#clip1_183_1199)">
<path d="M512 511.121V463.73C479.998 463.73 479.998 485.663 447.996 485.663C415.994 485.663 415.994 463.73 383.992 463.73C351.991 463.73 351.991 485.663 319.991 485.663C287.991 485.663 287.991 463.73 255.992 463.73C223.994 463.73 223.994 485.663 191.996 485.663C159.997 485.663 159.997 463.73 127.997 463.73C95.997 463.73 95.997 485.663 63.997 485.663C31.999 485.663 31.999 463.73 0 463.73V511.121H512Z" fill="#73C8F0"/>
<path d="M170.599 385.547L349.815 349.849C349.815 349.849 353.935 113.891 272.992 12.748C272.992 12.748 171.351 193.429 170.599 385.547Z" fill="#E64937"/>
<path d="M351.157 204.152C352.576 204.152 354.017 204.31 355.46 204.64L380.572 210.38C400.577 214.952 413.087 234.876 408.514 254.88L392.32 329.811L308.787 322.529L332.427 219.102C334.464 210.191 342.387 204.152 351.157 204.152Z" fill="white"/>
<path d="M256.011 503.126C347.887 493.518 420.619 469.002 418.461 448.368C416.304 427.734 340.073 418.796 248.196 428.404C156.32 438.012 83.5879 462.528 85.7457 483.162C87.9035 503.796 164.134 512.734 256.011 503.126Z" fill="#965028"/>
<path d="M344.616 373.999L360.16 361.194L343.169 348.593L310.036 352.102C307.109 354.513 304.951 357.727 303.828 361.35C302.705 364.972 302.665 368.843 303.714 372.488L322.832 438.904C325.802 449.224 336.575 455.181 346.895 452.211C357.215 449.241 363.172 438.467 360.202 428.148L344.616 373.999ZM287.663 338.126L256.939 332.839L238.662 342.315C234.815 344.308 231.745 347.53 229.939 351.469L192.044 434.075C187.566 443.836 191.849 455.378 201.609 459.855C211.384 464.34 222.92 460.033 227.389 450.29L262.496 373.761L286.735 361.194L287.663 338.126ZM380.828 135.999C363.523 132.044 346.288 142.866 342.332 160.171C338.377 177.476 349.199 194.712 366.504 198.667C383.809 202.622 401.044 191.8 405 174.495C408.956 157.19 398.133 139.954 380.828 135.999Z" fill="#FFB69E"/>
<path d="M171.268 485.115C169.278 485.114 167.364 484.349 165.92 482.979C164.477 481.608 163.613 479.737 163.508 477.749C163.468 477.001 159.67 401.839 170.718 306.627C177.215 250.641 187.499 198.707 201.284 152.267C218.595 93.9522 241.523 44.1362 269.433 4.20123C270.018 3.36396 270.762 2.65014 271.623 2.10055C272.484 1.55097 273.445 1.17637 274.451 0.998172C275.457 0.81997 276.488 0.841649 277.485 1.06197C278.483 1.28229 279.427 1.69694 280.264 2.28223C281.955 3.46405 283.107 5.2691 283.467 7.3003C283.827 9.3315 283.365 11.4225 282.183 13.1132C255.255 51.6422 233.068 99.9012 216.239 156.548C202.709 202.091 192.602 253.097 186.2 308.15C175.273 402.112 179.001 476.19 179.04 476.927C179.096 477.982 178.937 479.037 178.571 480.029C178.206 481.02 177.642 481.926 176.915 482.693C176.188 483.459 175.312 484.069 174.341 484.485C173.37 484.902 172.325 485.116 171.268 485.115Z" fill="#B48255"/>
<path d="M445.557 249.501L398.083 217.683C392.592 214.003 386.44 211.421 379.967 210.081L358.755 205.69C351.382 204.164 343.72 204.906 336.778 207.82L281.036 231.216L227.099 224.495C218.307 223.4 210.293 229.638 209.198 238.43C208.102 247.221 214.341 255.236 223.133 256.331L281.3 263.579C284.02 263.919 286.844 263.558 289.466 262.463L326.004 247.202L315.183 294.546L359.122 315.505L396.49 310.29L402.355 283.382L438.208 278.794C444.267 278.019 449.601 274.082 451.691 268.342C452.925 264.968 452.991 261.278 451.879 257.862C450.767 254.446 448.541 251.502 445.557 249.501Z" fill="#FFB69E"/>
<path d="M315.183 294.547L313.084 303.73L256.94 332.839L286.737 361.194L319.826 344.039L310.038 352.102L360.162 361.194L380.213 344.5C387.172 338.706 392.003 330.758 393.942 321.913L396.49 310.29L315.183 294.547Z" fill="#414B82"/>
</g>
</g>
<defs>
<clipPath id="clip0_183_1199">
<rect width="512" height="512" fill="white"/>
</clipPath>
<clipPath id="clip1_183_1199">
<rect width="512" height="512" fill="white"/>
</clipPath>
</defs>
</svg>
