<svg width="512" height="512" viewBox="0 0 512 512" fill="none" xmlns="http://www.w3.org/2000/svg">
<g clip-path="url(#clip0_113_19436)">
<g clip-path="url(#clip1_113_19436)">
<path d="M317.805 93.567C309.275 107.557 295.313 119.687 300.227 135.304C294.489 130.478 289.512 124.813 285.465 118.502C282.54 113.951 279.131 109.73 275.297 105.913C271.466 102.094 267.235 98.6988 262.677 95.786L212.796 63.923L227.167 31.668L262.182 46.505L271.944 59.438L290.986 58.71L319.563 66.869L317.805 93.567Z" fill="#FEDECF"/>
<path d="M164.07 68.7801L192.535 57.0981L225.143 78.3141L221.235 137.642L194.606 152.905L169.265 139.331L164.07 68.7801Z" fill="#C38678"/>
<path d="M225.147 78.314L223.828 98.248C222.111 98.6929 220.375 99.0643 218.626 99.361C216.397 99.7401 214.139 99.9298 211.878 99.928C205.991 99.9323 200.173 98.6567 194.827 96.1894C189.482 93.7221 184.737 90.1222 180.921 85.639C176.081 79.9608 172.299 73.4606 169.754 66.447L192.531 57.103L225.147 78.314Z" fill="#B56E5A"/>
<path d="M143.942 68.135H143.956L144.484 68.116L143.942 68.135ZM241.729 83.653L238.585 61.377L218.495 80.432C219.465 86.465 218.681 92.9459 218.309 98.979C218.305 99.049 217.826 99.416 217.822 99.485C217.086 110.966 213.956 122.167 208.634 132.367L207.896 133.782C206.266 136.906 203.725 139.46 200.609 141.107C197.494 142.753 193.951 143.412 190.452 142.998C179.955 141.755 172.991 131.504 175.704 121.288C178.869 109.367 177.884 96.7235 172.909 85.437L166.344 70.541C153.835 69.997 140.907 70.994 130.49 76.68L95.4471 174.401L83.3601 191.985C67.4541 206.449 55.7941 227.248 56.7931 248.727C57.7751 269.983 61.4477 291.029 67.7231 311.362C69.2681 316.369 66.7561 321.324 68.6101 326.228L103.672 330.533L134.305 311.445C133.361 303.772 132.238 296.123 130.935 288.503L140.503 292.816L149.553 307.426C154.546 311.64 160.057 315.989 165.612 320.212L200.387 307.427L209.796 268.321L179.086 239.558L172.171 194.931L179.48 191.628C193.332 185.369 205.551 175.996 215.185 164.239L238.584 129.885L238.714 129.58C244.195 116.722 246.121 102.627 244.289 88.77C244.291 88.77 242.086 85.41 241.729 83.653Z" fill="#FDF055"/>
<path d="M169.27 77.1912H150.047C146.153 77.3252 143.134 78.0152 139.601 79.3962L130.515 76.6252L132.73 70.4342C136.309 69.0406 140.099 68.264 143.938 68.1372H165.283L169.27 77.1912Z" fill="#FDE901"/>
<path d="M257.093 341.01C257.332 348.658 255.503 356.228 251.798 362.922L202.349 452.383L179.736 464.209L166.694 452.383C166.694 452.383 178.716 409.363 182.538 390.84C185.809 375.016 192.972 361.356 202.773 351.009C204.09 349.619 203.862 347.393 202.273 346.324C195.88 342.026 180.584 331.587 165.612 320.211L209.796 268.321L212.711 271.051C220.606 278.442 227.883 286.466 234.469 295.044C241.062 303.621 246.946 312.72 252.064 322.251C253.608 325.132 254.814 328.18 255.659 331.337C256.509 334.495 256.99 337.741 257.093 341.01ZM137.623 393.375L137.551 393.581C135.727 398.38 133.108 402.838 129.804 406.767C114.866 424.476 66.1019 482.194 66.1019 482.194L43.1709 483.726L58.1269 429.349C62.8039 412.578 72.4799 398.696 85.3469 386.962L98.1449 375.182C98.8759 374.515 99.0289 373.422 98.5099 372.579L96.5729 369.437C88.1459 355.746 74.2559 341.166 68.6099 326.228L134.305 311.445C134.902 316.296 135.427 321.156 135.881 326.022L140.311 373.565C140.941 380.287 140.021 387.064 137.623 393.375Z" fill="#C38678"/>
<path d="M76.1109 191.985C68.2552 199.129 62.0732 207.919 58.006 217.727C53.9388 227.535 52.0868 238.12 52.5819 248.727C53.8061 275.244 59.2159 301.401 68.6109 326.228L80.5479 333.441L88.5959 321.726C87.3683 318.298 86.2177 314.842 85.1449 311.362C78.8695 291.03 75.1969 269.983 74.2149 248.727C73.7199 238.121 75.572 227.535 79.6392 217.727C83.7064 207.919 89.8884 199.129 97.7439 191.985L104.381 185.948C100.66 182.749 96.4019 180.086 92.3859 177.183L76.1109 191.985Z" fill="#FDE901"/>
<path d="M112.417 370.994C113.454 372.672 113.134 374.852 111.677 376.182L101.227 385.721C88.3611 397.456 79.0574 412.575 74.3801 429.349L59.7511 482.537L37.7871 483.722L52.7451 429.349C57.4224 412.575 66.7261 397.456 79.5921 385.721L91.3261 375.017C91.679 374.692 91.908 374.254 91.9739 373.779C92.0397 373.303 91.9383 372.82 91.6871 372.411L89.7501 369.269C81.3524 355.626 74.274 341.214 68.6111 326.228L88.5971 321.726C89.1316 323.232 89.681 324.733 90.2451 326.228C95.6711 340.839 103.74 356.956 112.417 370.994Z" fill="#B56E5A"/>
<path d="M165.576 68.1352H165.59L166.118 68.1162L165.576 68.1352Z" fill="#C38678"/>
<path d="M382.456 86.5561L371.711 129.885L323.234 149.051L315.834 145.472C310.232 142.743 304.99 139.332 300.227 135.314V135.304C297.798 127.583 297.049 119.431 298.03 111.396C299.01 103.361 301.699 95.6294 305.914 88.7191L319.564 66.8691L346.806 79.2621L362.347 79.3551L369.229 81.4671C373.772 82.8571 378.191 84.5571 382.456 86.5561Z" fill="#FD9468"/>
<path d="M443.528 163.656L427.561 183.641L356.557 183.599L293.716 227.526C288.699 231.037 282.672 232.813 276.553 232.584C272.211 232.412 267.966 231.242 264.15 229.164C260.336 227.087 257.056 224.153 254.569 220.593L207.706 153.538C202.606 146.234 204.121 136.221 211.147 130.75C214.075 128.457 217.688 127.212 221.408 127.216C226.281 127.216 231.102 129.338 234.409 133.397L277.648 186.593C277.837 186.826 278.075 187.015 278.345 187.146C278.615 187.277 278.91 187.348 279.211 187.353C279.511 187.359 279.808 187.298 280.083 187.176C280.357 187.055 280.602 186.874 280.799 186.648L287.546 178.92C294.922 170.461 303.195 162.827 312.219 156.153C320.059 150.363 327.023 143.461 332.637 135.488L337.108 129.142C341.981 122.229 350.284 117.965 358.443 117.377L363.715 109.575L362.979 101.698L363.316 100.533C364.58 96.4551 367.125 92.8931 370.573 90.375C374.02 87.8569 378.188 86.5166 382.457 86.553C396.042 92.8615 408.087 102.059 417.751 113.503L420.131 116.326C425.919 123.171 431.391 130.276 436.531 137.62C436.531 137.63 436.541 137.63 436.541 137.641L439.491 141.927L443.528 163.656Z" fill="#FEDECF"/>
<path d="M485.309 242.721V243.391C485.385 250.303 483.78 257.129 480.632 263.282C477.484 269.436 472.889 274.732 467.24 278.716C466.982 278.901 466.725 279.087 466.457 279.272C459.778 283.99 454.416 290.338 450.881 297.712C450.819 297.836 450.758 297.97 450.696 298.093C448.109 303.478 444.919 308.551 441.187 313.216L376.368 323.26L345.72 284.597C350.675 264.866 358.264 245.891 368.281 228.184C370.339 223.893 371.413 219.197 371.424 214.438C371.434 209.679 370.382 204.978 368.343 200.678C367.385 198.649 366.107 196.434 364.614 194.157C363.131 191.88 358.351 185.854 356.558 183.598L364.418 178.097C367.133 176.201 370.253 174.965 373.53 174.49C376.807 174.014 380.15 174.311 383.291 175.357L391.131 177.963C395.769 179.505 400.625 180.291 405.512 180.291C412.619 180.29 419.628 178.632 425.982 175.449C439.972 168.433 444.886 150.889 436.541 137.641C450.633 157.742 462.197 179.502 470.97 202.429L472.041 205.221C474.369 211.309 477.243 217.171 480.293 222.94C483.511 229.043 485.23 235.823 485.309 242.721Z" fill="#FD9468"/>
<path d="M391.184 252.073C395.814 254.142 397.902 259.565 395.854 264.204L381.704 296.259C380.427 299.144 378.562 301.832 375.595 301.832C374.555 301.832 372.144 301.307 371.134 300.864C367.23 299.144 363.892 290.634 363.892 290.634L379.012 256.731C379.505 255.626 380.211 254.628 381.09 253.796C381.969 252.964 383.003 252.313 384.133 251.88C385.263 251.447 386.468 251.242 387.678 251.275C388.888 251.308 390.079 251.579 391.184 252.073Z" fill="#FD7D43"/>
<path d="M447.666 452.383L432.894 460.843L412.001 452.383L409.466 447.758L401.062 418.209L366.283 376.878L344.049 353.466L343.741 352.95C338.786 344.67 336.891 334.915 338.384 325.382L341.629 304.686C342.69 297.932 344.055 291.229 345.719 284.597L363.891 290.633L371.494 299.771L395.651 301.182L394.981 357.296L410.352 380.964C416.134 388.416 427.073 397.112 427.073 397.112C429.692 402.359 431.989 407.761 433.953 413.287L447.666 452.383Z" fill="#FDD0BF"/>
<path d="M427.075 397.113C425.409 406.74 422.668 416.15 418.904 425.166L409.468 447.758L398.064 426.948L363.285 385.617L344.051 353.465L344.803 345.914C345.83 335.628 348.48 325.569 352.653 316.111L363.892 290.635L395.653 301.184L394.983 357.298L412.012 373.152C417.808 380.625 422.854 388.651 427.075 397.113Z" fill="#FCC1AC"/>
<path d="M441.187 313.216C438.462 316.633 435.454 319.814 432.194 322.725C426.765 327.577 420.419 333.264 415.423 337.735C413.005 339.899 410.589 342.064 408.174 344.23C407.758 344.607 407.451 345.09 407.289 345.627C407.127 346.165 407.114 346.736 407.252 347.28C413.065 370.835 411.151 395.634 401.793 418.017L388.308 450.303L371.853 456.917L360.661 450.324L368.029 348.955C368.866 340.611 371.015 332.452 374.396 324.777L391.493 286.902L404.172 291.975L441.187 313.216Z" fill="#FEDECF"/>
<path d="M63.886 475.911H47.31C35.921 475.911 26.688 485.144 26.688 496.533V506.844C26.688 508.212 27.2312 509.523 28.1981 510.49C29.1651 511.457 30.4765 512 31.844 512H79.353C80.7204 512 82.0319 511.457 82.9988 510.49C83.9658 509.523 84.509 508.212 84.509 506.844V496.533C84.508 485.144 75.275 475.911 63.886 475.911Z" fill="#F2F0F3"/>
<path d="M319.563 66.869L312.375 93.373C307.997 100.553 297.96 112.022 297.96 112.022C280.375 103.523 267.714 86.968 264.283 67.487L262.81 59.163C262.07 54.9857 261.859 50.7319 262.182 46.502L290.986 58.71L319.563 66.869Z" fill="#FDD0BF"/>
<path d="M362.347 79.3551C358.761 90.4663 352.073 100.321 343.072 107.757C335.885 113.677 326.865 116.918 317.554 116.926C312.98 116.926 308.468 116.153 304.151 114.618C302.039 113.872 299.972 113.005 297.96 112.022C298.87 103.765 301.585 95.8096 305.913 88.7191L319.563 66.8691L349.047 75.2751L362.347 79.3551Z" fill="#FD7D43"/>
<path d="M310.355 97.1423C313.862 98.3867 317.631 98.7011 321.296 98.055C324.96 97.4088 328.394 95.8241 331.264 93.4553C337.098 88.639 341.551 82.3612 344.167 75.2624C346.783 68.1636 347.47 60.4979 346.156 53.0473L344.688 44.7223C341.591 27.1553 324.839 15.4263 307.273 18.5233C289.706 21.6203 277.977 38.3723 281.074 55.9383L282.542 64.2633C283.855 71.7142 287.121 78.6834 292.008 84.4596C296.894 90.2358 303.225 94.6122 310.355 97.1423Z" fill="#FEDECF"/>
<path d="M244.291 88.7699C236.643 94.1883 227.869 97.8088 218.626 99.3609C218.358 99.4019 218.09 99.4539 217.822 99.4849C218.214 93.3859 217.631 86.0539 216.653 79.9449L238.581 61.3789L243.412 83.4759C243.773 85.2369 244.064 86.9979 244.291 88.7699Z" fill="#FDE901"/>
<path d="M195.034 73.6111C197.517 76.5224 200.712 78.7405 204.308 80.0492C207.903 81.3578 211.776 81.7123 215.55 81.0781C223.222 79.7889 230.415 76.4874 236.395 71.5106C242.375 66.5338 246.927 60.0598 249.588 52.7491L252.561 44.5811C258.835 27.3441 249.947 8.28612 232.711 2.01212C215.474 -4.26188 196.416 4.62612 190.142 21.8621L187.169 30.0301C184.508 37.3408 183.834 45.2266 185.216 52.8828C186.597 60.539 189.985 67.6917 195.034 73.6111Z" fill="#C38678"/>
<path d="M388.163 124.93C386.765 126.135 384.981 126.797 383.136 126.795C382.02 126.798 380.917 126.557 379.903 126.091C378.889 125.625 377.989 124.945 377.264 124.096C375.908 122.518 374.312 121.162 372.536 120.078C370.702 118.956 368.698 118.138 366.602 117.657C364.645 117.204 360.431 117.235 358.443 117.379L362.976 101.7C365.366 101.762 367.735 102.061 370.074 102.596C373.787 103.457 377.338 104.907 380.592 106.892C383.752 108.818 386.589 111.231 388.998 114.041C391.769 117.276 391.398 122.159 388.163 124.93Z" fill="#FDD0BF"/>
<path d="M250.446 506.173V509.936C250.446 510.483 250.229 511.006 249.842 511.393C249.456 511.779 248.932 511.996 248.386 511.996L153.385 512C152.928 512 152.484 511.848 152.123 511.568C151.762 511.289 151.504 510.897 151.39 510.454L150.508 507.037C148.562 499.496 148.762 491.561 151.085 484.127L151.115 484.03C152.16 480.687 153.644 477.503 155.463 474.51C160.826 465.684 166.692 452.388 166.692 452.388H202.353L197.36 461.149C193.051 468.71 198.511 478.107 207.214 478.107H221.061C237.067 477.372 250.446 490.15 250.446 506.173Z" fill="#F2F0F3"/>
<path d="M363.909 506.173L397.408 508.935L403.194 511.999L460.172 512C461.581 512 462.812 511.046 463.165 509.682L463.847 507.038C465.793 499.497 465.593 491.562 463.27 484.128L463.24 484.031C462.195 480.688 460.711 477.504 458.892 474.511C453.529 465.685 447.663 452.389 447.663 452.389H412.002L416.995 461.15C421.304 468.711 415.844 478.108 407.141 478.108H405.831L394.208 482.195C378.202 481.458 363.909 490.15 363.909 506.173Z" fill="#685E68"/>
<path d="M403.193 511.999L382.932 512L363.912 506.169C363.912 490.15 377.284 477.376 393.293 478.107H405.83C408.303 489.109 407.397 500.996 403.193 511.999Z" fill="#554E56"/>
<path d="M286.928 511.996L382.932 512L384.8 507.929C389.18 498.386 390.046 487.42 386.374 477.583C382.168 466.318 388.302 450.302 388.302 450.302H373.627L356.976 454.929C354.746 468.755 343.111 475.387 326.907 477.461C324.76 477.892 322.576 478.108 320.386 478.107H309.793C295.46 478.107 283.84 489.732 283.839 504.065V508.912C283.839 509.318 283.919 509.719 284.074 510.094C284.229 510.468 284.457 510.809 284.744 511.095C285.031 511.382 285.371 511.609 285.746 511.763C286.121 511.918 286.522 511.997 286.928 511.996Z" fill="#685E68"/>
<path d="M404.172 291.974L390.223 323.58C386.842 331.254 384.693 339.414 383.856 347.758L373.626 450.302L360.66 456.916L353.033 450.302V450.323H353.023L363.253 347.758C364.09 339.414 366.239 331.254 369.62 323.58L387.731 282.538L404.172 291.974Z" fill="#FDD0BF"/>
<path d="M388.307 450.302L373.637 450.312H373.627L353.034 450.322V450.301H388.307V450.302Z" fill="#FDD0BF"/>
<path d="M373.638 450.323C372.383 458.075 368.41 465.127 362.43 470.216C356.451 475.315 348.85 478.113 340.992 478.107H320.388C328.246 478.113 335.847 475.315 341.826 470.216C347.806 465.127 351.779 458.075 353.034 450.323L373.627 450.313V450.323H373.638Z" fill="#554E56"/>
<path d="M388.307 450.302V450.312L373.637 450.322H373.627V450.312L353.034 450.322V450.301H388.307V450.302Z" fill="#FDD0BF"/>
<path d="M388.307 450.302V450.312L373.637 450.322H373.627V450.301H388.307V450.302Z" fill="#FDD0BF"/>
<path d="M388.307 450.302V450.312L373.637 450.322V450.301H388.307V450.302Z" fill="#FDD0BF"/>
<path d="M193.185 242.678C190.424 244.747 187.066 245.864 183.615 245.861C180.173 245.861 176.823 244.748 174.065 242.688L96.1981 182.63C89.4836 177.617 85.0249 170.151 83.7951 161.862C83.5686 160.32 83.455 158.764 83.4551 157.206C83.4551 151.705 84.8771 146.276 87.6271 141.465C95.6931 127.352 106.426 108.579 116.327 91.2409C120.262 84.3589 124.286 75.7219 131.477 72.9399L138.313 79.8719C138.479 80.0889 139.449 79.1719 139.611 79.3909C141.044 81.3227 142.329 83.3598 143.456 85.4849C151.759 101.133 150.832 120.377 140.51 135.315L124.348 156.19C124.155 156.44 124.022 156.73 123.959 157.039C123.895 157.349 123.904 157.668 123.984 157.974C124.064 158.279 124.213 158.562 124.42 158.801C124.627 159.039 124.885 159.227 125.176 159.35L129.96 161.368C143.666 167.16 155.778 176.163 165.275 187.617L195.665 224.271C199.785 229.239 200.259 235.977 197.472 241.322C196.432 243.313 195.109 241.237 193.185 242.678Z" fill="#C38678"/>
<path d="M197.466 241.321C196.4 243.381 194.878 245.17 193.016 246.553C190.255 248.622 186.897 249.739 183.446 249.736C180.004 249.736 176.654 248.623 173.896 246.563L90.8431 184.546C84.1286 179.533 79.6699 172.067 78.4401 163.778C78.2137 162.236 78.1 160.68 78.1001 159.122C78.1001 153.621 79.5221 148.192 82.2721 143.381C90.3381 129.268 105.564 102.627 115.465 85.2891C119.343 78.5012 125.44 73.2555 132.731 70.4341L139.118 78.7371C139.283 78.9531 139.448 79.1801 139.602 79.3961C139.447 79.6431 139.303 79.8901 139.159 80.1381C129.259 97.4761 114.033 124.116 105.966 138.23C103.228 143.024 101.79 148.45 101.794 153.971C101.794 155.527 101.907 157.082 102.134 158.627C103.364 166.916 107.822 174.382 114.537 179.395L197.466 241.321Z" fill="#B56E5A"/>
<path d="M189.672 71.0191C181.983 77.4711 170.521 76.4681 164.069 68.7791L158.353 61.9671C157.57 61.0335 156.978 59.9548 156.612 58.7925C156.245 57.6303 156.111 56.4072 156.217 55.1932C156.324 53.9791 156.668 52.7979 157.231 51.7169C157.793 50.636 158.564 49.6764 159.497 48.8931L173.122 37.4611C174.056 36.6778 175.134 36.086 176.297 35.7195C177.459 35.3531 178.682 35.2191 179.896 35.3254C181.11 35.4316 182.291 35.7759 183.372 36.3386C184.453 36.9014 185.413 37.6715 186.196 38.6051L191.912 45.4171C198.363 53.1051 197.361 64.5681 189.672 71.0191Z" fill="#FEDECF"/>
<path d="M149.554 307.425C141.117 300.296 134.151 293.561 130.936 288.502C129.267 278.818 127.486 269.155 125.25 259.667L125.157 259.265C124.158 255.113 126.723 250.941 130.864 249.952C135.016 248.953 139.188 251.518 140.187 255.659L140.29 256.092C144.267 273.031 147.36 290.165 149.554 307.425Z" fill="#FDE901"/>
</g>
</g>
<defs>
<clipPath id="clip0_113_19436">
<rect width="512" height="512" fill="white"/>
</clipPath>
<clipPath id="clip1_113_19436">
<rect width="512" height="512" fill="white"/>
</clipPath>
</defs>
</svg>
