<svg width="512" height="512" viewBox="0 0 512 512" fill="none" xmlns="http://www.w3.org/2000/svg">
<g clip-path="url(#clip0_113_19461)">
<path d="M328 152H344L336 136V72C336 63.5131 332.629 55.3737 326.627 49.3726C320.626 43.3714 312.487 40 304 40H272V64L296 72V120C296 128.487 299.371 136.626 305.373 142.627C311.374 148.629 319.513 152 328 152Z" fill="#61311C"/>
<path d="M200 288L208 336L200 368H312L304 336L312 288H200Z" fill="#FEC093"/>
<path d="M200 368L184 408L77.918 420.48C69.6758 421.45 62.0762 425.411 56.5613 431.613C51.0465 437.815 48 445.825 48 454.124C48 463.108 51.5691 471.725 57.9221 478.078C64.275 484.431 72.8915 488 81.876 488H430.124C439.108 488 447.725 484.431 454.078 478.078C460.431 471.725 464 463.108 464 454.124C464 445.825 460.954 437.815 455.439 431.613C449.924 425.411 442.324 421.45 434.082 420.48L328 408L312 368H200Z" fill="#B03B8D"/>
<path d="M248 328H264V368H248V328Z" fill="#F5A76E"/>
<path d="M392 396C392.002 397.576 391.693 399.138 391.091 400.595C390.488 402.052 389.605 403.375 388.49 404.49C387.375 405.605 386.051 406.489 384.595 407.091C383.138 407.693 381.576 408.002 380 408H376L296 448L231.77 462.6L120 488H80.5498C72.0176 487.995 63.8287 484.639 57.7457 478.656C51.6627 472.673 48.1721 464.541 48.0253 456.01C47.8785 447.479 51.0872 439.232 56.9607 433.043C62.8342 426.854 70.9029 423.219 79.4298 422.92L224.32 417.92L280 416L284.12 399.52C285.149 395.404 287.772 391.866 291.41 389.683C295.048 387.5 299.404 386.852 303.52 387.88L320 392L352 384H380C383.182 384 386.235 385.264 388.485 387.515C390.736 389.765 392 392.817 392 396Z" fill="#F7B488"/>
<path d="M231.77 462.6L120 488H80.5498C72.0176 487.994 63.8287 484.639 57.7457 478.656C51.6627 472.673 48.1721 464.541 48.0253 456.01C47.8785 447.479 51.0872 439.232 56.9607 433.043C62.8342 426.854 70.9029 423.219 79.4298 422.92L224.32 417.92L231.77 462.6Z" fill="#BC4598"/>
<path d="M463.98 456.614C463.363 474.238 448.442 488 430.807 488H392L280.23 462.6L216 448L136 408H132C128.817 408 125.765 406.736 123.515 404.485C121.264 402.235 120 399.183 120 396C120 392.817 121.264 389.765 123.515 387.515C125.765 385.264 128.817 384 132 384H160L192 392L208.478 387.881C212.594 386.853 216.95 387.501 220.589 389.684C224.227 391.867 226.849 395.406 227.878 399.522L232 416L287.68 417.92L432.57 422.92C436.846 423.066 441.051 424.054 444.945 425.827C448.839 427.6 452.345 430.124 455.262 433.254C458.179 436.383 460.451 440.057 461.947 444.066C463.443 448.074 464.134 452.338 463.98 456.614Z" fill="#FEC093"/>
<path d="M464 455.45C464 459.725 463.159 463.958 461.523 467.907C459.888 471.856 457.49 475.445 454.467 478.467C451.445 481.49 447.856 483.888 443.907 485.523C439.958 487.159 435.725 488 431.45 488H392L280.23 462.6L287.68 417.92L432.57 422.92C441.004 423.208 448.997 426.762 454.861 432.831C460.725 438.9 464.002 447.01 464 455.45Z" fill="#BC4598"/>
<path d="M488 400V424L464 432L451.45 427.82L442.85 424.95L440.81 424.27L426.91 419.64L416 416L392 387.2L389.33 384L336 320L320 232L296 256H216L192 232L176 320L122.67 384L120 387.2L96 416L85.09 419.64L71.19 424.27L69.15 424.95L60.55 427.82L48 432L24 424V400L56 384C51.7565 384 47.6869 382.314 44.6863 379.314C41.6857 376.313 40 372.243 40 368H88L136 304L155.11 202.1C156.485 194.764 160.381 188.14 166.124 183.374C171.868 178.607 179.097 175.999 186.56 176H232V120H280V176H325.44C332.903 175.999 340.132 178.607 345.876 183.374C351.619 188.14 355.515 194.764 356.89 202.1L376 304L424 368H472C472 372.243 470.314 376.313 467.314 379.314C464.313 382.314 460.243 384 456 384L488 400Z" fill="#FEC093"/>
<path d="M280 120V160.04C273.066 165.208 264.648 168 256 168C247.352 168 238.934 165.208 232 160.04V120H280Z" fill="#F5A76E"/>
<path d="M214 112H228V84.3328H214C210.309 84.3109 206.761 85.7562 204.135 88.3505C201.51 90.9448 200.022 94.4758 200 98.1668C200.022 101.858 201.51 105.389 204.135 107.983C206.761 110.577 210.309 112.022 214 112ZM299 84.3328H286V112H299C306.18 112 312 105.807 312 98.1668C312 90.5268 306.18 84.3328 299 84.3328Z" fill="#F7B488"/>
<path d="M256 152C238.369 152 223 140.655 218.724 124.483L217.53 119.967C216.515 116.133 216.001 112.185 216 108.219V85.819C216 64.932 233.909 48 256 48C278.091 48 296 64.932 296 85.818V108.218C295.999 112.184 295.485 116.132 294.47 119.966L293.276 124.482C289 140.655 273.631 152 256 152Z" fill="#FEC093"/>
<path d="M265.6 52.255C265.6 52.255 275.2 71.092 301.32 96C303.098 87.8165 303.997 79.4664 304 71.092C304 45.084 282.51 24 256 24C229.49 24 208 45.084 208 71.092C208.003 75.9374 208.305 80.7779 208.905 85.586C223.694 80.317 244.767 78.073 265.6 52.255Z" fill="#6E3C26"/>
<path d="M312 288C316.799 284.161 320.673 279.291 323.335 273.752C325.998 268.213 327.38 262.146 327.38 256C327.38 249.854 325.998 243.787 323.335 238.248C320.673 232.709 316.799 227.839 312 224L304 176H288L284.707 192.466C283.38 199.102 279.794 205.074 274.56 209.364C269.327 213.655 262.768 216 256 216C249.232 216 242.674 213.655 237.44 209.364C232.206 205.074 228.62 199.102 227.293 192.466L224 176H208L200 224C195.201 227.839 191.327 232.709 188.665 238.248C186.002 243.787 184.62 249.854 184.62 256C184.62 262.146 186.002 268.213 188.665 273.752C191.327 279.291 195.201 284.161 200 288H312Z" fill="#C378CB"/>
</g>
<defs>
<clipPath id="clip0_113_19461">
<rect width="512" height="512" fill="white"/>
</clipPath>
</defs>
</svg>
