<svg width="60" height="60" viewBox="0 0 60 60" fill="none" xmlns="http://www.w3.org/2000/svg">
<circle opacity="0.3" cx="30" cy="30" r="30" fill="white"/>
<path d="M18.8845 12.7434C19.3761 12.7384 19.8678 12.7334 20.3743 12.7282C20.9118 12.725 21.4494 12.7221 21.987 12.7195C22.394 12.7171 22.394 12.7171 22.8092 12.7146C24.2459 12.7065 25.6826 12.7009 27.1193 12.6972C28.5988 12.6929 30.078 12.6795 31.5573 12.664C32.6988 12.6537 33.8401 12.6505 34.9816 12.6491C35.5267 12.6472 36.0718 12.6427 36.6168 12.6354C40.2244 12.5903 42.4811 12.6692 45.1377 15.2539C47.0091 18.3036 46.6837 21.8095 46.6513 25.2637C46.6508 25.7886 46.6505 26.3135 46.6506 26.8384C46.633 30.6715 46.633 30.6715 46.1875 31.5625C43.1601 31.2207 43.1601 31.2207 42.2812 30.7813C42.2696 30.2996 42.2696 30.2996 42.2578 29.8082C42.2205 28.3502 42.1777 26.8925 42.1347 25.4346C42.1227 24.9293 42.1106 24.424 42.0981 23.9034C42.083 23.4162 42.0679 22.929 42.0523 22.4271C42.0401 21.9791 42.0278 21.5311 42.0151 21.0695C41.8886 19.8237 41.7393 18.9735 41.1093 17.8907C39.7399 17.2082 38.6208 17.011 37.1009 17.0083C36.7006 17.0059 36.3004 17.0034 35.8881 17.0009C35.46 17.0024 35.0319 17.004 34.5908 17.0056C34.1473 17.0049 33.7039 17.0042 33.247 17.0034C32.3106 17.0029 31.3741 17.0043 30.4377 17.0076C29.0052 17.0117 27.573 17.0076 26.1405 17.0026C25.23 17.0031 24.3196 17.0041 23.4092 17.0056C22.9811 17.0041 22.5529 17.0025 22.1119 17.0009C21.7117 17.0033 21.3114 17.0058 20.8991 17.0083C20.5485 17.0089 20.1978 17.0096 19.8366 17.0102C18.6882 17.1249 17.8986 17.3215 16.8906 17.8907C16.1377 19.2243 16.0109 20.3856 16.0083 21.8991C16.0058 22.2994 16.0033 22.6996 16.0008 23.1119C16.0024 23.54 16.004 23.9681 16.0056 24.4092C16.0045 25.0744 16.0045 25.0744 16.0033 25.753C16.0028 26.6894 16.0042 27.6259 16.0075 28.5623C16.0117 29.9948 16.0075 31.427 16.0025 32.8595C16.0031 33.77 16.0041 34.6804 16.0056 35.5909C16.004 36.019 16.0024 36.4471 16.0008 36.8881C16.0033 37.2884 16.0057 37.6886 16.0083 38.1009C16.0089 38.4515 16.0095 38.8022 16.0101 39.1634C16.1215 40.2783 16.3924 41.1077 16.8906 42.1094C18.4178 43.0193 19.8686 42.9795 21.6147 42.97C22.1513 42.9741 22.6879 42.9787 23.2245 42.9837C24.063 42.9878 24.9009 42.9883 25.7394 42.9805C30.3944 42.9474 30.3944 42.9474 31.7664 43.7673C32.7933 44.9172 32.9062 45.6505 32.9062 47.1875C30.627 47.236 28.348 47.2714 26.0684 47.2948C25.2939 47.3046 24.5195 47.3179 23.7452 47.3349C22.6281 47.3587 21.5114 47.3697 20.394 47.3783C19.8799 47.3934 19.8799 47.3934 19.3554 47.4088C16.8989 47.4099 15.2291 46.8809 13.375 45.2344C11.285 42.7688 11.584 39.9607 11.605 36.8604C11.6039 36.3103 11.6024 35.7603 11.6004 35.2102C11.5981 34.061 11.6014 32.912 11.6088 31.7628C11.6177 30.2956 11.6125 28.8289 11.6032 27.3617C11.5975 26.227 11.5993 25.0923 11.6034 23.9575C11.6044 23.4168 11.6032 22.8761 11.5995 22.3355C11.5718 17.0937 11.5718 17.0937 13.375 14.7657C15.1785 13.0941 16.4667 12.7648 18.8845 12.7434Z" fill="black"/>
<path d="M42.6719 34.6875C43.0586 34.6875 43.4453 34.6875 43.8438 34.6875C43.9485 35.0032 44.0532 35.3189 44.1611 35.6442C45.0623 38.1017 45.7294 39.7657 48.1132 40.9802C48.38 41.095 48.6469 41.2098 48.9219 41.3281C49.1888 41.451 49.4556 41.5739 49.7306 41.7004C50.3655 41.9832 51.01 42.2442 51.6562 42.5C51.6562 42.8867 51.6562 43.2734 51.6562 43.6719C51.336 43.7902 51.0157 43.9085 50.6858 44.0305C50.2648 44.1941 49.8439 44.3578 49.4102 44.5264C48.7848 44.7643 48.7848 44.7643 48.1467 45.007C46.1467 46.0563 45.2854 47.6671 44.332 49.6533C44.1649 49.9982 43.9977 50.3432 43.8254 50.6985C43.7026 50.9579 43.5797 51.2172 43.4531 51.4844C42.873 51.291 42.873 51.291 42.2812 51.0938C41.8357 50.0851 41.8357 50.0851 41.4023 48.8232C40.6367 46.784 40.6367 46.784 39.0342 45.4297C38.5588 45.2363 38.0835 45.043 37.5938 44.8438C37.0139 44.5548 36.4361 44.2619 35.8604 43.9648C35.4011 43.7393 34.9419 43.5137 34.4688 43.2812C35.3548 41.9522 35.6993 41.8555 37.1543 41.3525C39.1361 40.5866 40.2504 40.0412 41.1414 38.0307C41.4235 37.3299 41.6956 36.6249 41.9562 35.9158C42.2812 35.0781 42.2812 35.0781 42.6719 34.6875Z" fill="black"/>
<path d="M24.253 21.3682C25.0541 21.3809 25.8552 21.3936 26.6562 21.4063C27.3276 23.372 27.9951 25.339 28.659 27.3072C28.8853 27.9762 29.1126 28.645 29.341 29.3133C29.6696 30.2753 29.9943 31.2384 30.3184 32.2019C30.4209 32.4994 30.5234 32.7969 30.6291 33.1035C31.1247 34.5896 31.4756 35.8323 31.3438 37.4219C30.4414 37.4219 29.5391 37.4219 28.6094 37.4219C28.3516 36.6485 28.0938 35.8751 27.8281 35.0782C25.8945 34.9493 23.9609 34.8204 21.9688 34.6876C21.7109 35.5899 21.4531 36.4922 21.1875 37.4219C20.2852 37.4219 19.3828 37.4219 18.4531 37.4219C19.0495 34.3687 19.9783 31.4417 20.9408 28.4889C21.2146 27.648 21.4854 26.8061 21.7559 25.9641C23.2256 21.4225 23.2256 21.4225 24.253 21.3682ZM24.7031 25.7032C24.0586 27.8946 23.4141 30.086 22.75 32.3438C24.168 32.3438 25.5859 32.3438 27.0469 32.3438C26.5748 30.0198 25.9743 27.9046 25.0938 25.7032C24.9648 25.7032 24.8359 25.7032 24.7031 25.7032Z" fill="black"/>
<path d="M34.8594 21.4062C35.6328 21.4062 36.4063 21.4062 37.2031 21.4062C37.2031 26.6914 37.2031 31.9766 37.2031 37.4219C36.4297 37.4219 35.6562 37.4219 34.8594 37.4219C34.8594 32.1367 34.8594 26.8516 34.8594 21.4062Z" fill="black"/>
</svg>
