  <svg width="14" height="13" viewBox="0 0 14 13" fill="none"
                xmlns="http://www.w3.org/2000/svg">
                <path
                    d="M10.7312 9.52093C10.6826 9.52093 10.6332 9.50561 10.5912 9.47404C10.488 9.39697 10.4675 9.25164 10.545 9.14904C11.126 8.38064 11.433 7.46461 11.433 6.50029C11.433 6.19757 11.4018 5.89439 11.3402 5.59957C11.314 5.47375 11.3952 5.35118 11.5212 5.32518C11.6468 5.29918 11.7709 5.37996 11.797 5.50532C11.8652 5.83125 11.8997 6.166 11.8997 6.50029C11.8997 7.56582 11.56 8.57889 10.9178 9.42854C10.8716 9.48936 10.8016 9.52093 10.7312 9.52093Z"
                    stroke="currentColor" />
                <path
                    d="M2.43423 7.70017C2.32643 7.70017 2.22936 7.62496 2.20603 7.51585C2.13603 7.18296 2.1001 6.84124 2.1001 6.50046C2.1001 5.43956 2.43656 4.43067 3.07356 3.58381C3.15056 3.48074 3.2971 3.45938 3.40023 3.53692C3.50336 3.61399 3.52483 3.75931 3.44736 3.86192C2.87103 4.62799 2.56676 5.54031 2.56676 6.50046C2.56676 6.80921 2.59896 7.11888 2.6629 7.42021C2.6895 7.54556 2.60876 7.6686 2.48276 7.69506C2.46643 7.69878 2.4501 7.70017 2.43423 7.70017Z"
                    stroke="currentColor" />
                <path
                    d="M7.69984 8.82059H6.29984C6.17104 8.82059 6.0665 8.71659 6.0665 8.58845V7.42773H4.89984C4.77104 7.42773 4.6665 7.32373 4.6665 7.19559V5.80273C4.6665 5.67459 4.77104 5.57059 4.89984 5.57059H6.0665V4.40988C6.0665 4.28173 6.17104 4.17773 6.29984 4.17773H7.69984C7.82864 4.17773 7.93317 4.28173 7.93317 4.40988V5.57059H9.09984C9.22864 5.57059 9.33317 5.67459 9.33317 5.80273V7.19559C9.33317 7.32373 9.22864 7.42773 9.09984 7.42773H7.93317V8.58845C7.93317 8.71659 7.82864 8.82059 7.69984 8.82059ZM6.53317 8.35631H7.4665V7.19559C7.4665 7.06745 7.57104 6.96345 7.69984 6.96345H8.8665V6.03488H7.69984C7.57104 6.03488 7.4665 5.93088 7.4665 5.80273V4.64202H6.53317V5.80273C6.53317 5.93088 6.42864 6.03488 6.29984 6.03488H5.13317V6.96345H6.29984C6.42864 6.96345 6.53317 7.06745 6.53317 7.19559V8.35631Z"
                    stroke="currentColor" />
                <path
                    d="M7.99913 13.0011H5.55333C5.0974 13.0011 4.6522 12.8999 4.22987 12.7003L2.59513 11.91C2.17607 11.7099 1.72947 11.6083 1.2698 11.6083H0.233333C0.104533 11.6083 0 11.5043 0 11.3761C0 11.248 0.104533 11.144 0.233333 11.144H1.2698C1.79993 11.144 2.3142 11.261 2.79813 11.4922L4.4324 12.2819C4.78987 12.4505 5.1674 12.5368 5.55333 12.5368H7.95247L9.9904 11.7002C9.9904 11.6807 10.0179 11.501 9.92833 11.3483C9.7916 11.1143 9.47567 11.1068 9.23627 11.1417C8.8886 11.195 8.60113 11.2912 8.34773 11.3761L8.2516 11.4082C8.12887 11.4476 7.99727 11.3831 7.95667 11.261C7.91607 11.1393 7.98233 11.0079 8.1046 10.9675L8.19887 10.9364C8.47047 10.8454 8.778 10.7424 9.1672 10.6829C10.1295 10.5437 10.3698 11.1417 10.4216 11.3278C10.507 11.6347 10.4361 12.0187 10.1696 12.1297L8.0878 12.9844C8.0598 12.9951 8.02947 13.0011 7.99913 13.0011Z"
                    stroke="currentColor" />
                <path
                    d="M4.963 9.69335C4.87527 9.69335 4.7908 9.64367 4.75113 9.55917C4.2938 8.57999 3.10567 8.43978 2.22227 8.80424C2.1938 8.81585 2.16347 8.82188 2.13267 8.82188H0.233333C0.104533 8.82188 0 8.71788 0 8.58974C0 8.4616 0.104533 8.3576 0.233333 8.3576H2.0874C3.35067 7.85849 4.67087 8.28703 5.17487 9.3637C5.229 9.47978 5.1786 9.61813 5.06147 9.67245C5.02927 9.68638 4.99613 9.69335 4.963 9.69335Z"
                    stroke="currentColor" />
                <path
                    d="M7.17472 11.897C7.14439 11.897 7.11405 11.891 7.08559 11.8794L4.41345 10.7758C4.29445 10.7266 4.23799 10.591 4.28745 10.4722C4.33692 10.3538 4.47365 10.298 4.59265 10.3468L7.03005 11.3534C7.13225 10.8747 6.86905 10.5023 6.24372 10.2447L4.87032 9.6773C4.75132 9.62808 4.69485 9.49205 4.74432 9.37366C4.79379 9.25526 4.93052 9.19908 5.04952 9.2483L6.42245 9.81565C7.38425 10.2122 7.73705 10.9183 7.39032 11.7527C7.36652 11.8098 7.32125 11.8553 7.26385 11.8785C7.23539 11.891 7.20505 11.897 7.17472 11.897Z"
                    stroke="currentColor" />
                <path
                    d="M4.56006 2.33954C3.82599 2.33954 3.62533 1.84089 3.57866 1.67375C3.49326 1.36686 3.5642 0.982893 3.83066 0.871929L5.91246 0.0171785C5.94046 0.00603569 5.97079 0 6.00113 0H8.44646C8.9024 0 9.34759 0.101214 9.76993 0.300857L11.4047 1.09107C11.8242 1.29118 12.2708 1.39286 12.7305 1.39286H13.7669C13.8957 1.39286 14.0003 1.49686 14.0003 1.625C14.0003 1.75314 13.8957 1.85714 13.7669 1.85714H12.7305C12.2003 1.85714 11.6861 1.74014 11.2021 1.50893L9.56786 0.719643C9.21039 0.550643 8.83286 0.464286 8.44693 0.464286H6.04779L4.00939 1.30093C4.00939 1.32043 3.98186 1.50011 4.07146 1.65286C4.20866 1.88686 4.52366 1.89429 4.76353 1.85946C5.11119 1.80607 5.39866 1.70996 5.65206 1.625L5.7482 1.59296C5.87093 1.55304 6.00253 1.61804 6.04313 1.74014C6.08373 1.86179 6.01746 1.99318 5.89519 2.03357L5.80093 2.06468C5.52933 2.15568 5.22179 2.25875 4.83259 2.31818C4.73459 2.33304 4.64359 2.33954 4.56006 2.33954Z"
                    stroke="currentColor" />
                <path
                    d="M10.8545 4.84965C9.97251 4.84965 9.18758 4.41137 8.82544 3.63694C8.77131 3.52087 8.82171 3.38251 8.93884 3.32819C9.05598 3.27433 9.19458 3.32494 9.24918 3.44101C9.70604 4.41972 10.8937 4.55947 11.778 4.19594C11.8065 4.18479 11.8368 4.17876 11.8676 4.17876H13.767C13.8958 4.17876 14.0003 4.28276 14.0003 4.4109C14.0003 4.53904 13.8958 4.64304 13.767 4.64304H11.9129C11.5582 4.78279 11.1989 4.84965 10.8545 4.84965Z"
                    stroke="currentColor" />
                <path
                    d="M9.04069 3.77088C9.01082 3.77088 8.98049 3.7653 8.95109 3.75323L7.57816 3.18588C6.61636 2.78938 6.26356 2.0832 6.61029 1.24888C6.63409 1.19177 6.67936 1.14627 6.73676 1.12305C6.79416 1.09984 6.85809 1.09938 6.91549 1.12305L9.58762 2.22666C9.70662 2.27588 9.76309 2.41145 9.71362 2.5303C9.66416 2.64916 9.52836 2.70441 9.40842 2.65566L6.97102 1.64909C6.86882 2.12777 7.13202 2.50013 7.75736 2.7578L9.13076 3.32516C9.24976 3.37438 9.30622 3.51041 9.25676 3.6288C9.21896 3.71702 9.13216 3.77088 9.04069 3.77088Z"
                    stroke="currentColor" />
                <path
                    d="M10.0401 10.2304C9.98036 10.2304 9.92062 10.2077 9.87489 10.1626C9.78389 10.0721 9.78389 9.92492 9.87489 9.83438C9.96636 9.74385 10.1302 9.7276 10.2212 9.81813C10.3122 9.90867 10.3285 10.0396 10.2375 10.1301L10.2048 10.1626C10.1596 10.2077 10.0998 10.2304 10.0401 10.2304Z"
                    stroke="currentColor" />
                <path
                    d="M3.97363 3.26638C3.91343 3.26638 3.85323 3.24317 3.8075 3.1972C3.71697 3.10574 3.7179 2.95902 3.80983 2.86895L3.84296 2.83645C3.93443 2.74638 4.08237 2.74731 4.1729 2.83877C4.26343 2.93024 4.2625 3.07695 4.17056 3.16702L4.13743 3.19952C4.09216 3.24409 4.0329 3.26638 3.97363 3.26638Z"
                    stroke="currentColor" />
            </svg>