<svg width="13" height="15" viewBox="0 0 13 15" fill="none" xmlns="http://www.w3.org/2000/svg">
                    <path
                        d="M5.03324 11.3892L5.03341 11.3894C5.05535 11.411 5.05535 11.4437 5.03341 11.4653C5.02208 11.4765 5.00622 11.4833 4.9875 11.4833C4.96891 11.4833 4.95352 11.4766 4.94244 11.4656L4.94142 11.4646L4.54542 11.0752L4.29983 10.8336L4.05441 11.0753L3.65841 11.4653C3.64708 11.4765 3.63122 11.4833 3.6125 11.4833C3.59391 11.4833 3.57852 11.4766 3.56744 11.4656L3.56659 11.4648C3.54465 11.4432 3.54465 11.4104 3.56659 11.3888L3.96204 10.9994L4.21525 10.75L3.96204 10.5006L3.56604 10.1106C3.5441 10.089 3.5441 10.0563 3.56604 10.0347C3.59095 10.0101 3.6335 10.0101 3.65841 10.0347L4.05441 10.4247L4.3 10.6665L4.54559 10.4247L4.94159 10.0347C4.9665 10.0101 5.00905 10.0101 5.03396 10.0347C5.0559 10.0563 5.0559 10.089 5.03396 10.1106L4.63796 10.5006L4.38493 10.7498L4.63779 10.9992L5.03324 11.3892ZM4.7125 7.55625H4.3625V7.90625V8.17708C4.3625 8.20302 4.33946 8.23333 4.3 8.23333C4.26054 8.23333 4.2375 8.20302 4.2375 8.17708V7.90625V7.55625H3.8875H3.6125C3.57304 7.55625 3.55 7.52593 3.55 7.5C3.55 7.47407 3.57304 7.44375 3.6125 7.44375H3.8875H4.2375V7.09375V6.82292C4.2375 6.79699 4.26054 6.76667 4.3 6.76667C4.33946 6.76667 4.3625 6.79699 4.3625 6.82292V7.09375V7.44375H4.7125H4.9875C5.02696 7.44375 5.05 7.47407 5.05 7.5C5.05 7.52593 5.02696 7.55625 4.9875 7.55625H4.7125ZM10.4875 0.65H2.5125C1.48991 0.65 0.65 1.46956 0.65 2.48958V12.5104C0.65 13.5304 1.48991 14.35 2.5125 14.35H10.4875C11.5101 14.35 12.35 13.5304 12.35 12.5104V2.48958C12.35 1.46956 11.5101 0.65 10.4875 0.65ZM9.3875 11.4833H8.0125C7.97304 11.4833 7.95 11.453 7.95 11.4271C7.95 11.4012 7.97304 11.3708 8.0125 11.3708H9.3875C9.42696 11.3708 9.45 11.4012 9.45 11.4271C9.45 11.453 9.42696 11.4833 9.3875 11.4833ZM9.3875 10.1292H8.0125C7.97304 10.1292 7.95 10.0988 7.95 10.0729C7.95 10.047 7.97304 10.0167 8.0125 10.0167H9.3875C9.42696 10.0167 9.45 10.047 9.45 10.0729C9.45 10.0988 9.42696 10.1292 9.3875 10.1292ZM9.3875 7.69167H8.0125C7.97304 7.69167 7.95 7.66135 7.95 7.63542C7.95 7.60948 7.97304 7.57917 8.0125 7.57917H9.3875C9.42696 7.57917 9.45 7.60949 9.45 7.63542C9.45 7.66135 9.42696 7.69167 9.3875 7.69167ZM10 4.38542C10 4.70981 9.73001 4.98333 9.3875 4.98333H3.6125C3.26999 4.98333 3 4.70981 3 4.38542V3.57292C3 3.24853 3.26999 2.975 3.6125 2.975H9.3875C9.73001 2.975 10 3.24853 10 3.57292V4.38542Z"
                        stroke="currentColor" stroke-width="0.7" />
                </svg>