<svg width="14" height="15" viewBox="0 0 14 15" fill="none" xmlns="http://www.w3.org/2000/svg">
<path d="M13.7601 3.98586C13.4403 3.64317 12.9199 3.64317 12.6 3.98586L12.5108 4.08139C12.3736 4.22843 12.2266 4.34026 12.0705 4.42361L10.6974 2.95239C10.5906 2.83799 10.4174 2.83799 10.3107 2.95239C10.2039 3.06679 10.2039 3.2523 10.3107 3.3667L11.4699 4.60873C10.9963 4.66847 10.4586 4.57363 9.86119 4.43412C9.62155 3.25822 9.52327 2.31047 10.1906 1.59549L10.2798 1.49995C10.5996 1.15727 10.5996 0.599694 10.2798 0.257012C9.95993 -0.0856706 9.43952 -0.0856706 9.11968 0.257012L9.03051 0.352548C8.39805 1.03018 8.07569 1.84893 8.04506 2.85556C8.03295 3.25382 8.06637 3.64982 8.12297 4.04187C7.41599 3.92492 6.57889 3.88387 5.7956 4.21742C5.65524 4.27721 5.58669 4.44751 5.64247 4.59786C5.65666 4.63615 5.67753 4.6694 5.70309 4.6968C5.77796 4.77701 5.89297 4.80648 5.99759 4.76195C6.73043 4.44988 7.52512 4.52052 8.22802 4.6544C8.26863 4.86329 8.3126 5.07074 8.35681 5.27649C7.24045 5.03661 6.25013 4.98883 5.45279 5.84312C4.47235 6.89357 4.77278 8.2883 5.09087 9.76511C5.42843 11.3324 5.77744 12.953 4.58274 14.233L4.49357 14.3286C4.38695 14.4428 4.21348 14.4428 4.10687 14.3286C4.00026 14.2144 4.00026 14.0285 4.10687 13.9143L4.19604 13.8187C5.17648 12.7683 4.87605 11.3735 4.55799 9.8968C4.30492 8.72195 4.04324 7.5071 4.4441 6.42644C4.49986 6.27606 4.43136 6.10579 4.29098 6.04599C4.15065 5.98623 3.99167 6.05968 3.93589 6.21006C3.63607 7.01832 3.65294 7.87407 3.77226 8.70331C2.6305 8.51382 1.37645 8.55337 0.329049 9.67558L0.239881 9.77115C-0.0799602 10.1138 -0.0799602 10.6714 0.239881 11.0141C0.559721 11.3568 1.08013 11.3568 1.39997 11.0141L1.48914 10.9185C1.62638 10.7715 1.77332 10.6597 1.92946 10.5763L3.30261 12.0476C3.40938 12.162 3.58253 12.162 3.6893 12.0476C3.79608 11.9331 3.79608 11.7476 3.6893 11.6332L2.53006 10.3912C3.00368 10.3315 3.54135 10.4263 4.13878 10.5658C4.3784 11.7418 4.47667 12.6895 3.80937 13.4045L3.7202 13.5C3.40036 13.8427 3.40036 14.4003 3.7202 14.743C4.04004 15.0857 4.56045 15.0857 4.88029 14.743L4.96946 14.6474C5.60192 13.9698 5.92425 13.151 5.9549 12.1444C5.96702 11.746 5.93358 11.3499 5.87692 10.9577C7.0188 11.1473 8.273 11.1079 9.3206 9.98554C9.95306 9.30791 10.2754 8.48916 10.306 7.48255C10.3182 7.08447 10.2848 6.68864 10.2282 6.29674C11.3698 6.48618 12.6236 6.4466 13.671 5.32448L13.7601 5.22894C14.08 4.88611 14.08 4.32854 13.7601 3.98586ZM1.10241 10.5041L1.01325 10.5997C0.906632 10.7139 0.733163 10.7139 0.626549 10.5997C0.519936 10.4855 0.519936 10.2996 0.626549 10.1854L0.715718 10.0898C1.64872 9.09021 2.77881 9.1072 3.87691 9.31582C3.91768 9.5264 3.96173 9.73391 4.00543 9.93714C2.88942 9.69741 1.89957 9.65006 1.10241 10.5041ZM5.83951 6.2574C5.97675 6.11036 6.1237 5.99853 6.27983 5.91518L7.65298 7.3864C7.75976 7.50081 7.9329 7.50081 8.03968 7.3864C8.14646 7.272 8.14646 7.08649 8.03968 6.97209L6.88041 5.73006C7.35428 5.67026 7.89227 5.76527 8.49009 5.9049C8.72959 7.08031 8.82759 8.02773 8.16048 8.74248C8.02324 8.88952 7.8763 9.00135 7.72017 9.0847L6.34701 7.61348C6.24024 7.49908 6.0671 7.49908 5.96032 7.61348C5.85354 7.72788 5.85354 7.91339 5.96032 8.02779L7.11956 9.26982C6.64569 9.32962 6.1077 9.23464 5.50988 9.09501C5.27041 7.91954 5.17238 6.97215 5.83951 6.2574ZM8.93388 9.57111C8.0006 10.571 6.87016 10.5538 5.77184 10.345C5.73129 10.1363 5.68734 9.92906 5.64316 9.72351C6.75958 9.96339 7.74983 10.0111 8.54718 9.1568C9.52765 8.10631 9.22719 6.71155 8.9091 5.23486C8.57154 3.66758 8.22253 2.04692 9.41723 0.766861L9.5064 0.671325C9.61301 0.557097 9.78648 0.557097 9.8931 0.671325C9.99971 0.785552 9.99971 0.97141 9.8931 1.08564L9.80393 1.18117C8.82346 2.23166 9.12389 3.62645 9.44201 5.10317C9.77957 6.67045 10.1286 8.29105 8.93388 9.57111ZM13.3734 4.81448L13.2843 4.91002C12.3513 5.90965 11.2212 5.89268 10.1232 5.68406C10.0826 5.47541 10.0387 5.26823 9.99454 5.06274C11.1106 5.30245 12.1004 5.34976 12.8976 4.49571L12.9867 4.40017C13.0933 4.28594 13.2668 4.28594 13.3734 4.40017C13.48 4.5144 13.48 4.70028 13.3734 4.81448Z" fill="black"/>
<path d="M4.11429 4.98443C4.31925 4.98443 4.48541 4.81827 4.48541 4.61331C4.48541 4.40834 4.31925 4.24219 4.11429 4.24219C3.90932 4.24219 3.74316 4.40834 3.74316 4.61331C3.74316 4.81827 3.90932 4.98443 4.11429 4.98443Z" fill="black"/>
</svg>
