<svg width="14" height="15" viewBox="0 0 14 15" fill="none" xmlns="http://www.w3.org/2000/svg">
<path d="M7.02361 5.75977C6.67823 5.75977 6.34061 5.86184 6.05344 6.05309C5.76627 6.24434 5.54244 6.51617 5.41027 6.83421C5.2781 7.15224 5.24352 7.5022 5.3109 7.83983C5.37828 8.17745 5.5446 8.48758 5.78882 8.731C6.03304 8.97441 6.34419 9.14018 6.68293 9.20733C7.02168 9.27449 7.37279 9.24003 7.69188 9.10829C8.01097 8.97656 8.2837 8.75347 8.47558 8.46725C8.66747 8.18102 8.76988 7.84451 8.76988 7.50027C8.76938 7.03882 8.58524 6.5964 8.25786 6.2701C7.93048 5.9438 7.4866 5.76027 7.02361 5.75977ZM7.02361 8.79774C6.76615 8.79774 6.51447 8.72164 6.30039 8.57908C6.08632 8.43651 5.91947 8.23387 5.82094 7.99679C5.72241 7.75971 5.69663 7.49883 5.74686 7.24715C5.79709 6.99546 5.92107 6.76428 6.10313 6.58282C6.28518 6.40137 6.51714 6.2778 6.76965 6.22773C7.02217 6.17767 7.28391 6.20337 7.52178 6.30157C7.75964 6.39977 7.96295 6.56607 8.10599 6.77944C8.24903 6.9928 8.32538 7.24366 8.32538 7.50027C8.32501 7.84427 8.18774 8.17407 7.94369 8.41731C7.69964 8.66056 7.36875 8.79737 7.02361 8.79774Z" fill="black"/>
<path d="M7.78578 7.2793C7.72683 7.2793 7.6703 7.30264 7.62862 7.34418C7.58694 7.38572 7.56352 7.44207 7.56352 7.50082C7.56319 7.59502 7.53819 7.6875 7.49099 7.76911C7.44379 7.85072 7.37603 7.91864 7.29441 7.96613C7.26919 7.98079 7.24712 8.00025 7.22944 8.0234C7.21177 8.04656 7.19885 8.07296 7.19141 8.10109C7.18398 8.12922 7.18218 8.15854 7.18611 8.18737C7.19004 8.2162 7.19963 8.24397 7.21433 8.26911C7.22904 8.29424 7.24856 8.31624 7.27179 8.33386C7.29502 8.35147 7.32151 8.36435 7.34974 8.37176C7.37796 8.37917 7.40738 8.38097 7.4363 8.37705C7.46523 8.37313 7.49309 8.36357 7.51831 8.34892C7.66697 8.2623 7.79035 8.13848 7.87625 7.98973C7.96214 7.84098 8.00757 7.67244 8.00803 7.50082C8.00803 7.44207 7.98461 7.38572 7.94293 7.34418C7.90125 7.30264 7.84472 7.2793 7.78578 7.2793Z" fill="black"/>
<path d="M12.768 6.98228C12.849 7.00349 12.9324 7.01438 13.0162 7.01468C13.2108 7.01457 13.401 6.95698 13.5627 6.84918C13.7245 6.74139 13.8506 6.58823 13.925 6.40906C13.9995 6.22988 14.019 6.03272 13.9812 5.84249C13.9433 5.65226 13.8497 5.47749 13.7122 5.34025C13.696 5.3243 13.6789 5.30987 13.6614 5.29506C13.8265 4.69835 13.7884 4.17861 13.5403 3.75C13.0069 2.82848 11.6062 2.52658 9.68431 2.90797C9.05273 1.05835 8.08955 0 7.02375 0C5.95796 0 4.99491 1.05823 4.36269 2.9081C2.4404 2.52646 1.04008 2.82848 0.506802 3.74987C0.266389 4.1638 0.224224 4.68392 0.377515 5.26127C0.196578 5.40245 0.0709074 5.60229 0.0222861 5.82614C-0.0263351 6.04999 0.00515765 6.28374 0.111306 6.48687C0.217454 6.69 0.391567 6.84972 0.603464 6.93833C0.815362 7.02694 1.05169 7.03886 1.27148 6.97203C1.40331 7.14684 1.54771 7.32367 1.70328 7.50076C0.411805 8.96962 -0.0262227 10.3295 0.506675 11.25C0.889585 11.9116 1.7184 12.2548 2.86674 12.2548C3.36944 12.2487 3.87036 12.1939 4.36244 12.0913C4.99453 13.9414 5.95783 15 7.02375 15C7.50534 15 7.98033 14.7749 8.40718 14.3514C8.6172 14.4431 8.85276 14.4588 9.07317 14.3958C9.29358 14.3328 9.48498 14.1951 9.61431 14.0064C9.74364 13.8177 9.80278 13.5898 9.78149 13.3623C9.76021 13.1347 9.65985 12.9218 9.49774 12.7601C9.48174 12.7441 9.4646 12.7295 9.4477 12.7148C9.53089 12.5187 9.61052 12.3097 9.68571 12.0913C10.1776 12.194 10.6783 12.2487 11.1808 12.2548C12.329 12.2548 13.1579 11.9115 13.5408 11.25C14.0742 10.3295 13.6357 8.96962 12.3445 7.50089C12.4943 7.33038 12.6358 7.15696 12.768 6.98228ZM13.3977 6.41443C13.2964 6.51511 13.1592 6.57165 13.0161 6.57165C12.8731 6.57165 12.7359 6.51511 12.6346 6.41443C12.5591 6.33921 12.5078 6.2434 12.487 6.1391C12.4662 6.03481 12.477 5.92671 12.5178 5.82848C12.5586 5.73025 12.6278 5.64629 12.7165 5.58723C12.8052 5.52816 12.9095 5.49664 13.0162 5.49664C13.1229 5.49664 13.2272 5.52816 13.3159 5.58723C13.4046 5.64629 13.4737 5.73025 13.5146 5.82848C13.5554 5.92671 13.5661 6.03481 13.5454 6.1391C13.5246 6.2434 13.4731 6.33921 13.3977 6.41443ZM13.1558 3.97139C13.3296 4.27228 13.3632 4.64633 13.2585 5.08532C13.0498 5.03242 12.8294 5.04925 12.6313 5.13322C12.4331 5.2172 12.268 5.36368 12.1614 5.55018C12.0548 5.73668 12.0126 5.9529 12.0412 6.16564C12.0698 6.37838 12.1676 6.57589 12.3197 6.72785C12.3357 6.74392 12.3529 6.75835 12.3698 6.77316C12.2666 6.907 12.1577 7.03983 12.0431 7.17165C11.4983 6.60783 10.905 6.09274 10.2699 5.63228C10.187 4.85415 10.0365 4.08465 9.82033 3.33241C11.4952 3.00962 12.7339 3.24253 13.1558 3.97139ZM9.38458 11.5737C8.76626 11.4233 8.16012 11.2269 7.57126 10.9862C7.95036 10.8035 8.32793 10.6051 8.6984 10.3919C9.07178 10.1767 9.4331 9.94987 9.77791 9.71506C9.69359 10.3435 9.56212 10.9648 9.38458 11.5737ZM4.66292 11.5737C4.48525 10.9648 4.35365 10.3435 4.26922 9.71506C4.61492 9.94987 4.97611 10.177 5.34937 10.3919C5.71945 10.6051 6.09664 10.8038 6.47638 10.9862C5.88747 11.2269 5.28129 11.4233 4.66292 11.5737ZM4.66292 3.42633C5.28125 3.57669 5.8874 3.77306 6.47625 4.0138C6.09702 4.19646 5.71958 4.39494 5.34911 4.60873C4.97573 4.82392 4.61441 5.05076 4.26897 5.28557C4.35343 4.65687 4.48512 4.03538 4.66292 3.42633ZM3.72172 8.77013C3.21756 8.38319 2.74366 7.95859 2.30413 7.5C2.7437 7.04145 3.21759 6.61685 3.72172 6.22987C3.69035 6.64759 3.67371 7.07329 3.67371 7.5C3.67371 7.92671 3.69009 8.3519 3.72172 8.77013ZM5.57175 10.0081C5.09067 9.73127 4.63029 9.43405 4.19924 9.12494C4.14616 8.59443 4.11822 8.04899 4.11822 7.5C4.11822 6.95101 4.14616 6.4057 4.19924 5.87506C4.6299 5.5662 5.09041 5.26886 5.57175 4.9919C6.048 4.7176 6.5362 4.46823 7.02388 4.24785C7.51195 4.46835 8.00002 4.71772 8.47627 4.9919C8.95735 5.26873 9.41773 5.56595 9.84878 5.87506C9.90186 6.40557 9.9298 6.95101 9.9298 7.5C9.9298 8.04899 9.90186 8.5943 9.84878 9.12494C9.41811 9.4338 8.95761 9.73114 8.47627 10.0081C8.00002 10.2824 7.51182 10.5318 7.02414 10.7522C6.53581 10.5316 6.04775 10.2823 5.57149 10.0081H5.57175ZM9.38484 3.42582C9.56251 4.03468 9.69412 4.65596 9.77854 5.28443C9.43285 5.04962 9.07165 4.82253 8.69903 4.60759C8.32806 4.39494 7.95086 4.1962 7.57113 4.0138C8.16003 3.77308 8.76622 3.5767 9.38458 3.42633L9.38484 3.42582ZM10.3258 6.22987C10.83 6.61681 11.3039 7.04141 11.7434 7.5C11.3038 7.95855 10.8299 8.38315 10.3258 8.77013C10.3572 8.3524 10.3738 7.92671 10.3738 7.5C10.3738 7.07329 10.3574 6.6481 10.3258 6.22987ZM7.02375 0.443038C7.86679 0.443038 8.68913 1.39608 9.24819 3.00316C8.4861 3.19199 7.74181 3.4461 7.02363 3.76266C6.30554 3.44606 5.56134 3.19195 4.79932 3.00316C5.35851 1.39595 6.18072 0.443038 7.02375 0.443038ZM0.601164 6.41443C0.512585 6.32641 0.457375 6.2105 0.444946 6.08644C0.432517 5.96239 0.463638 5.83789 0.533005 5.73414C0.602371 5.6304 0.705688 5.55385 0.825345 5.51754C0.945002 5.48123 1.07359 5.4874 1.18919 5.535C1.3048 5.58261 1.40025 5.6687 1.4593 5.77861C1.51834 5.88851 1.53731 6.01542 1.51298 6.13771C1.48865 6.26 1.42252 6.37009 1.32587 6.44922C1.22921 6.52834 1.10801 6.57161 0.982931 6.57165C0.912004 6.57194 0.841724 6.55819 0.776168 6.5312C0.710612 6.50422 0.651212 6.46452 0.601164 6.41443ZM1.67877 5.34025C1.56377 5.22583 1.42212 5.14156 1.26649 5.09498C1.11085 5.0484 0.946068 5.04095 0.78684 5.07329C0.684223 4.63962 0.718514 4.26949 0.891617 3.97203C1.31364 3.24278 2.55229 3.01 4.22718 3.33291C4.01096 4.08521 3.8605 4.85475 3.77747 5.63291C3.14237 6.09288 2.54898 6.60752 2.00415 7.17089C1.88045 7.02861 1.76488 6.88717 1.65744 6.74658C1.66442 6.74 1.67191 6.73392 1.67877 6.72722C1.86313 6.54313 1.96668 6.29365 1.96668 6.03354C1.96668 5.77344 1.86313 5.52396 1.67877 5.33987V5.34025ZM0.891363 11.0285C0.47048 10.3004 0.887299 9.11443 2.00478 7.82911C2.54945 8.39266 3.14266 8.9075 3.7776 9.36772C3.86055 10.1458 4.01097 10.9153 4.22718 11.6676C2.55216 11.9901 1.31352 11.7575 0.891617 11.0285H0.891363ZM9.18341 13.8342C9.09509 13.9225 8.97876 13.9775 8.85427 13.9899C8.72977 14.0023 8.60482 13.9713 8.5007 13.9022C8.39659 13.833 8.31975 13.73 8.28331 13.6107C8.24686 13.4914 8.25305 13.3632 8.30083 13.248C8.34861 13.1327 8.43501 13.0376 8.54531 12.9787C8.65561 12.9198 8.78298 12.9009 8.9057 12.9252C9.02843 12.9495 9.13891 13.0154 9.21831 13.1118C9.29772 13.2081 9.34113 13.329 9.34115 13.4537C9.34119 13.5963 9.28446 13.7332 9.18341 13.8342ZM8.80241 12.473C8.6151 12.473 8.43168 12.5263 8.2737 12.6266C8.11572 12.7269 7.98976 12.8701 7.91061 13.0393C7.83146 13.2085 7.80242 13.3967 7.82689 13.5818C7.85137 13.7669 7.92835 13.9412 8.04878 14.0842C7.71858 14.3977 7.37466 14.557 7.02439 14.557C6.18135 14.557 5.35902 13.6039 4.79996 11.9968C5.56204 11.808 6.30633 11.5539 7.02452 11.2373C7.74277 11.554 8.48715 11.8081 9.24933 11.9968C9.1871 12.1747 9.12233 12.3449 9.05451 12.5063C8.97206 12.4844 8.88711 12.4732 8.80177 12.473H8.80241ZM13.1565 11.0285C12.7345 11.7576 11.4959 11.9905 9.82096 11.6676C10.0372 10.9153 10.1876 10.1458 10.2707 9.36759C10.9054 8.9074 11.4983 8.3926 12.0427 7.82911C13.1602 9.11443 13.577 10.3004 13.1559 11.0285H13.1565Z" fill="black"/>
</svg>
