<svg width="14" height="15" viewBox="0 0 14 15" fill="none" xmlns="http://www.w3.org/2000/svg">
<path d="M8.34905 6.79688C8.16284 6.79688 8.01172 6.92812 8.01172 7.08984C8.01172 7.25156 8.16284 7.38281 8.34905 7.38281C8.53526 7.38281 8.68639 7.25156 8.68639 7.08984C8.68639 6.92812 8.53526 6.79688 8.34905 6.79688Z" fill="black"/>
<path d="M6.99993 5.03906C6.81372 5.03906 6.6626 5.17031 6.6626 5.33203C6.6626 5.49375 6.81372 5.625 6.99993 5.625C7.18614 5.625 7.33727 5.49375 7.33727 5.33203C7.33727 5.17031 7.18614 5.03906 6.99993 5.03906Z" fill="black"/>
<path d="M2.95208 12.6562C2.76587 12.6562 2.61475 12.7875 2.61475 12.9492C2.61475 13.1109 2.76587 13.2422 2.95208 13.2422C3.13829 13.2422 3.28941 13.1109 3.28941 12.9492C3.28941 12.7875 3.13829 12.6562 2.95208 12.6562Z" fill="black"/>
<path d="M13.6933 11.9437L9.36134 5.2553V1.7076C9.75403 1.58669 10.036 1.26088 10.036 0.878906C10.036 0.394277 9.58202 0 9.024 0H4.97599C4.41798 0 3.96399 0.394277 3.96399 0.878906C3.96399 1.26088 4.24597 1.58669 4.63866 1.7076V5.2553L0.306748 11.9437C-0.109118 12.5858 -0.10173 13.3487 0.326448 13.9846C0.754593 14.6204 1.51656 15 2.36469 15H11.6353C12.4834 15 13.2454 14.6204 13.6736 13.9846C14.1017 13.3487 14.1091 12.5858 13.6933 11.9437ZM5.27001 5.47564C5.29842 5.43182 5.31333 5.38233 5.31333 5.33203V1.75781H5.65066C5.83694 1.75781 5.988 1.62662 5.988 1.46484C5.988 1.30307 5.83694 1.17188 5.65066 1.17188H4.97599C4.78999 1.17188 4.63866 1.04045 4.63866 0.878906C4.63866 0.717363 4.78999 0.585938 4.97599 0.585938H9.024C9.21001 0.585938 9.36134 0.717363 9.36134 0.878906C9.36134 1.04045 9.21001 1.17188 9.024 1.17188H8.34934C8.16306 1.17188 8.012 1.30307 8.012 1.46484C8.012 1.62662 8.16306 1.75781 8.34934 1.75781H8.68667V5.33203C8.68667 5.38236 8.70158 5.43179 8.72998 5.47564L10.7183 8.54558C9.50403 8.46018 8.29401 8.67346 7.18229 9.17341C5.75314 9.81571 4.16218 9.9288 2.66202 9.50232L5.27001 5.47564ZM13.0911 13.6888C12.7853 14.1429 12.2411 14.4141 11.6353 14.4141H2.36469C1.7589 14.4141 1.21465 14.1429 0.908856 13.6888C0.602995 13.2346 0.597699 12.6896 0.894789 12.2309L2.32536 10.0222C3.01946 10.2327 3.73676 10.3389 4.4653 10.3389C4.57315 10.3389 4.68126 10.3366 4.78958 10.332C5.73091 10.2915 6.64027 10.0767 7.49244 9.69375C8.63236 9.18117 9.88613 9.00422 11.1283 9.17868L13.1052 12.2309C13.4023 12.6896 13.397 13.2346 13.0911 13.6888Z" fill="black"/>
<path d="M5.65067 6.79688C5.09266 6.79688 4.63867 7.19115 4.63867 7.67578C4.63867 8.16041 5.09266 8.55469 5.65067 8.55469C6.20869 8.55469 6.66268 8.16041 6.66268 7.67578C6.66268 7.19115 6.20869 6.79688 5.65067 6.79688ZM5.65067 7.96875C5.46467 7.96875 5.31334 7.83732 5.31334 7.67578C5.31334 7.51424 5.46467 7.38281 5.65067 7.38281C5.83668 7.38281 5.98801 7.51424 5.98801 7.67578C5.98801 7.83732 5.83668 7.96875 5.65067 7.96875Z" fill="black"/>
<path d="M11.0479 12.6562H4.3012C4.11493 12.6562 3.96387 12.7874 3.96387 12.9492C3.96387 13.111 4.11493 13.2422 4.3012 13.2422H11.0479C11.2342 13.2422 11.3852 13.111 11.3852 12.9492C11.3852 12.7874 11.2342 12.6562 11.0479 12.6562Z" fill="black"/>
</svg>
