<svg width="14" height="14" viewBox="0 0 14 14" fill="none" xmlns="http://www.w3.org/2000/svg">
<path d="M7 14C5.61553 14 4.26215 13.5895 3.11101 12.8203C1.95987 12.0511 1.06266 10.9579 0.532846 9.67879C0.00303299 8.3997 -0.13559 6.99224 0.134506 5.63437C0.404603 4.2765 1.07129 3.02922 2.05026 2.05026C3.02922 1.07129 4.2765 0.404603 5.63437 0.134506C6.99224 -0.13559 8.3997 0.00303299 9.67879 0.532846C10.9579 1.06266 12.0511 1.95987 12.8203 3.11101C13.5895 4.26215 14 5.61553 14 7C13.9983 8.85599 13.2602 10.6355 11.9478 11.9478C10.6355 13.2602 8.85599 13.9983 7 14ZM7 0.976747C5.80871 0.976747 4.64418 1.33 3.65366 1.99185C2.66314 2.65369 1.89113 3.5944 1.43524 4.695C0.979354 5.79561 0.860074 7.00668 1.09248 8.17508C1.32489 9.34348 1.89855 10.4167 2.74092 11.2591C3.58328 12.1015 4.65653 12.6751 5.82492 12.9075C6.99332 13.1399 8.2044 13.0206 9.305 12.5648C10.4056 12.1089 11.3463 11.3369 12.0082 10.3463C12.67 9.35582 13.0233 8.19129 13.0233 7C13.0215 5.40306 12.3864 3.87203 11.2572 2.74282C10.128 1.61362 8.59694 0.978471 7 0.976747Z" fill="black"/>
<path d="M7.65105 10.7443H6.34872C6.2192 10.7443 6.09498 10.6929 6.00339 10.6013C5.91181 10.5097 5.86035 10.3855 5.86035 10.256C5.86035 10.1264 5.91181 10.0022 6.00339 9.91062C6.09498 9.81903 6.2192 9.76758 6.34872 9.76758H7.65105C7.78057 9.76758 7.90479 9.81903 7.99638 9.91062C8.08797 10.0022 8.13942 10.1264 8.13942 10.256C8.13942 10.3855 8.08797 10.5097 7.99638 10.6013C7.90479 10.6929 7.78057 10.7443 7.65105 10.7443Z" fill="black"/>
<path d="M7.00014 10.7439C6.87114 10.7422 6.7479 10.6902 6.65667 10.599C6.56545 10.5078 6.51345 10.3845 6.51177 10.2555V6.15971C6.40178 6.1223 6.30872 6.0469 6.24932 5.94705C6.18992 5.8472 6.16806 5.72945 6.18767 5.61493C6.20728 5.50042 6.26707 5.39664 6.35631 5.32225C6.44555 5.24785 6.55838 5.2077 6.67456 5.20902H7.00014C7.12914 5.2107 7.25238 5.2627 7.34361 5.35392C7.43483 5.44515 7.48683 5.56839 7.48851 5.69739V10.2555C7.48683 10.3845 7.43483 10.5078 7.34361 10.599C7.25238 10.6902 7.12914 10.7422 7.00014 10.7439Z" fill="black"/>
<path d="M6.9998 4.39608C7.35942 4.39608 7.65096 4.10454 7.65096 3.74491C7.65096 3.38529 7.35942 3.09375 6.9998 3.09375C6.64017 3.09375 6.34863 3.38529 6.34863 3.74491C6.34863 4.10454 6.64017 4.39608 6.9998 4.39608Z" fill="black"/>
</svg>
