<svg width="13" height="15" viewBox="0 0 13 15" fill="none" xmlns="http://www.w3.org/2000/svg">
<path d="M10.4873 0.650391C11.5098 0.650391 12.3494 1.46938 12.3496 2.48926V12.5107C12.3494 13.5306 11.5098 14.3496 10.4873 14.3496H2.5127C1.49021 14.3496 0.650569 13.5306 0.650391 12.5107V2.48926C0.650569 1.46938 1.49021 0.650391 2.5127 0.650391H10.4873ZM4.96289 10.0205L4.94141 10.0342L4.5459 10.4248L4.2998 10.667L4.05469 10.4248L3.6582 10.0342C3.63964 10.0162 3.61129 10.0116 3.58789 10.0205L3.56641 10.0342C3.54447 10.0558 3.54447 10.0887 3.56641 10.1104L3.96191 10.501L4.21484 10.75L3.96191 10.999L3.56641 11.3887C3.54982 11.405 3.54617 11.4278 3.55469 11.4473L3.56641 11.4648L3.56738 11.4658L3.58691 11.4785C3.59448 11.4816 3.60299 11.4834 3.6123 11.4834C3.63084 11.4834 3.6469 11.4768 3.6582 11.4658L4.05469 11.0752L4.2998 10.834L4.5459 11.0752L4.94141 11.4648L4.94238 11.4658L4.96191 11.4785C4.96948 11.4816 4.97799 11.4834 4.9873 11.4834C5.00584 11.4834 5.0219 11.4768 5.0332 11.4658L5.0459 11.4473C5.05132 11.4344 5.05137 11.4201 5.0459 11.4072L5.0332 11.3896L4.6377 10.999L4.38477 10.75L4.6377 10.501L5.03418 10.1104L5.0459 10.0928C5.05425 10.0734 5.0507 10.0504 5.03418 10.0342C5.01549 10.0159 4.98648 10.0113 4.96289 10.0205ZM8.0127 11.3711C7.9734 11.3711 7.95039 11.4009 7.9502 11.4268C7.9502 11.4527 7.97324 11.4834 8.0127 11.4834H9.3877C9.42703 11.4833 9.4502 11.4526 9.4502 11.4268C9.45 11.4009 9.42687 11.3712 9.3877 11.3711H8.0127ZM8.0127 10.0166C7.97324 10.0166 7.9502 10.0473 7.9502 10.0732C7.95039 10.0991 7.9734 10.1289 8.0127 10.1289H9.3877C9.42687 10.1288 9.45 10.0991 9.4502 10.0732C9.4502 10.0474 9.42703 10.0167 9.3877 10.0166H8.0127ZM4.2998 6.7666C4.26047 6.7667 4.2373 6.79735 4.2373 6.82324V7.44336H3.6123C3.57297 7.44346 3.5498 7.47411 3.5498 7.5C3.5498 7.52589 3.57297 7.55654 3.6123 7.55664H4.2373V8.17676C4.2373 8.20265 4.26047 8.2333 4.2998 8.2334C4.33926 8.2334 4.3623 8.20269 4.3623 8.17676V7.55664H4.9873C5.02676 7.55664 5.0498 7.52593 5.0498 7.5C5.0498 7.47407 5.02676 7.44336 4.9873 7.44336H4.3623V6.82324C4.3623 6.79731 4.33926 6.7666 4.2998 6.7666ZM8.0127 7.5791C7.97324 7.5791 7.9502 7.60981 7.9502 7.63574C7.95039 7.6616 7.9734 7.69141 8.0127 7.69141H9.3877C9.42687 7.69131 9.45 7.66156 9.4502 7.63574C9.4502 7.60985 9.42703 7.5792 9.3877 7.5791H8.0127ZM3.6123 2.97461C3.26989 2.97471 3 3.24891 3 3.57324V4.38574C3.00018 4.70993 3.27 4.98329 3.6123 4.9834H9.3877C9.73 4.98329 9.99982 4.70993 10 4.38574V3.57324C10 3.24891 9.73011 2.97471 9.3877 2.97461H3.6123Z" stroke="black" stroke-width="0.7"/>
</svg>
