<svg width="14" height="15" viewBox="0 0 14 15" fill="none" xmlns="http://www.w3.org/2000/svg">
<path d="M12.8042 9.66062C12.8803 10.0413 12.9189 10.4185 12.9189 10.7816C12.9189 13.9172 10.4359 14.5597 6.70787 14.5597C2.97982 14.5597 0.496879 13.9172 0.496879 10.7816C0.496879 9.0306 1.34045 7.46785 2.0481 6.46517L1.62662 6.23242C0.884577 7.28383 0 8.92652 0 10.7816C0 12.4575 0.660849 13.5949 2.02028 14.2588C3.06889 14.7709 4.51458 14.9992 6.70787 14.9992C8.90116 14.9992 10.3468 14.7709 11.3955 14.2588C12.7549 13.5949 13.4157 12.4575 13.4157 10.7816C13.4157 10.3929 13.3746 9.99001 13.2935 9.58412L12.8042 9.66062Z" fill="black"/>
<path d="M6.66853 10.9258C6.16483 10.9289 6.04571 10.9123 5.67891 10.7L5.47102 10.5798L4.60059 11.7567L4.80848 11.877C5.19906 12.1031 5.51607 12.2256 5.87876 12.2847V12.8411H7.46877V12.2086C7.74586 12.1194 7.99738 11.9838 8.21846 11.8041C8.59619 11.4971 8.85116 11.0812 8.93632 10.6331C9.01642 10.2115 8.93844 9.78222 8.71677 9.42412C8.46912 9.02421 8.05973 8.72571 7.5328 8.56097C7.07498 8.4178 6.51254 8.22793 6.22588 8.02912C6.2125 8.01737 6.18288 7.95158 6.20587 7.84381C6.21385 7.80642 6.26338 7.61731 6.45686 7.56574C6.93042 7.43953 7.24302 7.6564 7.25409 7.66422L7.43571 7.79924L8.50609 6.77262L8.32347 6.62365C8.10819 6.44802 7.79843 6.30007 7.46874 6.21216V5.66211H5.87873V6.25474C5.24322 6.46565 4.77499 6.96537 4.64332 7.58335C4.51333 8.19341 4.74336 8.788 5.24361 9.13508C5.61978 9.39608 6.12948 9.61397 7.00286 9.88709C7.29274 9.97775 7.4157 10.1502 7.36827 10.3999C7.3205 10.6515 7.08111 10.9234 6.66853 10.9258ZM7.16856 9.47267C6.34977 9.21663 5.88094 9.01864 5.55032 8.78923C5.19658 8.5438 5.03615 8.11292 5.13165 7.66472C5.23696 7.17051 5.62393 6.77781 6.14151 6.63988C6.15416 6.63651 6.16675 6.6335 6.17927 6.63045L6.37564 6.58245V6.10164H6.97189V6.5603L7.16862 6.59734C7.41534 6.64378 7.62734 6.72773 7.78624 6.81479L7.36903 7.2149C7.15342 7.12058 6.78102 7.02028 6.31346 7.14487C5.95047 7.24163 5.76762 7.52732 5.71754 7.76238C5.66341 8.01634 5.74033 8.25078 5.91828 8.37423C6.26076 8.61181 6.8429 8.81145 7.36721 8.97539C7.777 9.10353 8.09298 9.3317 8.28094 9.63527C8.44925 9.90713 8.50798 10.2356 8.44626 10.5602C8.37932 10.9124 8.17904 11.2393 7.88227 11.4804C7.67256 11.6508 7.42799 11.7704 7.15534 11.8358L6.97189 11.8797V12.4015H6.37564V11.8963L6.15297 11.8757C5.84225 11.847 5.59156 11.7757 5.29218 11.6244L5.61896 11.1825C5.94782 11.3446 6.17659 11.3684 6.67178 11.3653C7.37122 11.3612 7.77713 10.8998 7.85832 10.4727C7.89135 10.299 7.93912 9.71365 7.16856 9.47267Z" fill="black"/>
<path d="M13.9071 3.04364C14.0049 2.88389 14.0265 2.70002 13.9679 2.52591C13.8471 2.16649 13.4183 1.96094 13.0118 2.06795L9.91561 2.88269C9.85844 2.81969 9.78997 2.76513 9.71292 2.72126L10.1832 2.37172C10.4125 2.20124 10.5463 1.95139 10.5502 1.68623C10.554 1.42964 10.4333 1.18617 10.219 1.01821C10.0094 0.853886 9.73806 0.776382 9.45474 0.799677C9.30528 0.812043 9.15966 0.818313 9.02189 0.818313C8.53117 0.818313 8.29489 0.651029 8.02131 0.457344C7.71848 0.242971 7.3753 0 6.71021 0C6.04515 0 5.70198 0.242971 5.39918 0.457344C5.12563 0.651029 4.88938 0.818313 4.39866 0.818313C4.25977 0.818313 4.11309 0.811955 3.96273 0.799443C3.67968 0.775826 3.40825 0.853358 3.19857 1.01757C2.98431 1.18541 2.86347 1.42879 2.86711 1.68533C2.87086 1.95036 3.00435 2.20016 3.23338 2.37076L3.70363 2.721C3.47 2.85383 3.31477 3.0856 3.31477 3.349C3.31477 3.61655 3.47486 3.85156 3.71469 3.9833C3.06024 4.52019 2.44083 5.16 1.90625 5.85428L2.3169 6.10168C2.90289 5.34065 3.59355 4.64874 4.31817 4.0952H9.09881C10.4026 5.08115 12.103 6.99603 12.7057 9.24032L13.1892 9.13873C12.9124 8.10824 12.3764 7.03374 11.6391 6.03141C11.1675 5.39031 10.6154 4.78453 10.0384 4.26934L10.2226 4.22088L12.6651 5.39075C12.7811 5.44631 12.9063 5.47268 13.0299 5.47268C13.3032 5.47268 13.5682 5.34364 13.7073 5.11652C13.9091 4.78675 13.7701 4.37322 13.3973 4.19465L12.307 3.67243L13.4502 3.37162C13.647 3.31987 13.8093 3.20337 13.9071 3.04364ZM3.36396 1.67991C3.36211 1.54931 3.42037 1.43099 3.528 1.34668C3.60269 1.28817 3.73082 1.22159 3.91623 1.23707C4.08198 1.25087 4.24433 1.25787 4.3987 1.25787C5.06375 1.25787 5.40693 1.0149 5.70969 0.800527C5.98328 0.606812 6.21953 0.439528 6.71021 0.439528C7.20093 0.439528 7.43721 0.606812 7.71079 0.800498C8.01359 1.01487 8.35677 1.25784 9.02186 1.25784C9.175 1.25784 9.33618 1.25096 9.50098 1.23733C9.68632 1.22162 9.81478 1.28858 9.88951 1.34718C9.99707 1.43151 10.0553 1.54989 10.0533 1.68049C10.0513 1.81777 9.98209 1.94705 9.86347 2.03519L9.09984 2.6028H5.71841V3.04233H9.25771C9.44888 3.04233 9.60443 3.1799 9.60443 3.349C9.60443 3.5181 9.44891 3.6557 9.25771 3.6557H4.15837C3.96721 3.6557 3.81165 3.51813 3.81165 3.349C3.81165 3.1799 3.96717 3.04233 4.15837 3.04233H5.21742V2.6028H4.31641L3.55344 2.03452C3.43495 1.94635 3.36588 1.81707 3.36396 1.67991ZM13.1607 4.58123C13.2925 4.64438 13.3417 4.79065 13.2704 4.90727C13.199 5.02392 13.0336 5.06747 12.9017 5.00429L10.8962 4.04372L11.6334 3.84974L13.1607 4.58123ZM13.3085 2.95038L9.87964 3.85261C10.0172 3.71978 10.1013 3.54295 10.1013 3.349C10.1013 3.33013 10.1003 3.31152 10.0987 3.29303L13.1535 2.48919C13.2971 2.45142 13.449 2.52403 13.4917 2.6512C13.5124 2.7128 13.5048 2.77779 13.4702 2.83431C13.4356 2.89083 13.3782 2.93206 13.3085 2.95038Z" fill="black"/>
<path d="M1.78624 12.8709C1.67749 12.7574 1.58103 12.6321 1.49948 12.4985C1.49282 12.4876 1.48633 12.4767 1.47987 12.4657L1.9207 12.2629C1.926 12.2719 1.93136 12.2808 1.93676 12.2897C2.00192 12.3965 2.07887 12.4965 2.16539 12.5869L1.78624 12.8709ZM1.27734 12.0213C1.22831 11.879 1.18856 11.7251 1.15915 11.5641L1.6497 11.494C1.6755 11.6355 1.71015 11.7698 1.75265 11.8931L1.27734 12.0213ZM1.10353 11.1049C1.09671 11.0009 1.09326 10.8923 1.09326 10.7822C1.09326 10.7494 1.09359 10.7165 1.09429 10.6836L1.59107 10.6915C1.59044 10.7218 1.59014 10.752 1.59014 10.7822C1.59014 10.8839 1.59332 10.9839 1.59958 11.0795L1.10353 11.1049Z" fill="black"/>
</svg>
