 <svg width="30" class=" hover:text-white duration-300" height="30"
viewBox="0 0 30 30" fill="none" xmlns="http://www.w3.org/2000/svg">
<path fill="#F7BB0D"
d="M15 0C12.0333 0 9.13317 0.879733 6.66644 2.52795C4.19971 4.17617 2.27712 6.51884 1.14181 9.25973C0.00649921 12.0006 -0.29055 15.0166 0.288227 17.9263C0.867004 20.836 2.29561 23.5088 4.39339 25.6065C6.49118 27.7043 9.16392 29.1329 12.0736 29.7117C14.9833 30.2905 17.9993 29.9934 20.7402 28.8581C23.4811 27.7228 25.8238 25.8002 27.472 23.3335C29.1202 20.8668 29.9999 17.9667 29.9999 15C29.9999 11.0217 28.4196 7.20643 25.6065 4.39339C22.7935 1.58035 18.9782 0 15 0ZM10.6381 22.8947H7.36578V12.3533H10.6381V22.8947ZM8.99999 10.9144C8.62338 10.916 8.25477 10.8059 7.94074 10.598C7.62671 10.3901 7.38137 10.0938 7.23572 9.74645C7.09007 9.39915 7.05065 9.01646 7.12245 8.64676C7.19425 8.27706 7.37404 7.93694 7.6391 7.6694C7.90416 7.40186 8.24258 7.2189 8.6116 7.14366C8.98061 7.06842 9.36365 7.10427 9.7123 7.24667C10.0609 7.38908 10.3595 7.63165 10.5704 7.94373C10.7812 8.25581 10.8947 8.62337 10.8967 8.99998C10.8977 9.50498 10.6988 9.98986 10.3434 10.3486C9.98798 10.7074 9.50497 10.9108 8.99999 10.9144ZM22.8947 22.8947H19.6243V17.7631C19.6243 16.5394 19.6006 14.9704 17.923 14.9704C16.2454 14.9704 15.9493 16.3006 15.9493 17.6743V22.8947H12.6908V12.3533H15.8309V13.7901H15.8763C16.3125 12.9612 17.3802 12.0868 18.973 12.0868C22.2848 12.0868 22.8947 14.2697 22.8947 17.1039V22.8947Z" />
</svg>