<svg width="125" height="43" viewBox="0 0 125 43" fill="none" xmlns="http://www.w3.org/2000/svg">
<path d="M117.578 25.0103V13.9058H119.782V25.0103H117.578ZM119.198 25.0103V23.099H125V25.0103H119.198Z" fill="black"/>
<path d="M105.277 25.0103L109.864 13.9058H111.662L116.232 25.0103H113.883L110.35 15.8961H111.16L107.579 25.0103H105.277ZM107.708 22.941V21.1403H113.834V22.941H107.708Z" fill="black"/>
<path d="M100.578 25.1682C99.7464 25.1682 98.9739 25.026 98.2609 24.7417C97.5478 24.4468 96.9212 24.0414 96.381 23.5254C95.8517 22.9989 95.4411 22.3881 95.1494 21.6931C94.8685 20.9981 94.7281 20.2504 94.7281 19.4501C94.7281 18.6497 94.8685 17.9021 95.1494 17.207C95.4411 16.512 95.8517 15.9065 96.381 15.3905C96.9212 14.8745 97.5424 14.4691 98.2447 14.1742C98.9577 13.8794 99.7356 13.7319 100.578 13.7319C101.486 13.7319 102.285 13.8794 102.977 14.1742C103.668 14.4585 104.279 14.8534 104.808 15.3589L103.317 16.8121C103.004 16.4752 102.62 16.2119 102.166 16.0223C101.713 15.8328 101.183 15.738 100.578 15.738C100.049 15.738 99.5627 15.8275 99.1198 16.0065C98.6876 16.175 98.3095 16.4278 97.9854 16.7648C97.6613 17.0912 97.4128 17.4861 97.2399 17.9495C97.0671 18.4023 96.9807 18.9025 96.9807 19.4501C96.9807 20.0082 97.0671 20.5137 97.2399 20.9665C97.4128 21.4193 97.6613 21.8142 97.9854 22.1512C98.3095 22.4776 98.6876 22.7304 99.1198 22.9094C99.5627 23.0884 100.049 23.1779 100.578 23.1779C101.216 23.1779 101.761 23.0831 102.215 22.8936C102.68 22.704 103.069 22.4355 103.382 22.088L104.873 23.5412C104.343 24.0572 103.728 24.4574 103.025 24.7417C102.323 25.026 101.507 25.1682 100.578 25.1682Z" fill="black"/>
<path d="M90.7533 25.0103V13.9058H92.9572V25.0103H90.7533Z" fill="black"/>
<path d="M78.979 25.0103V13.9058H80.5186L81.183 16.054V25.0103H78.979ZM86.8549 25.0103L80.0972 16.4805L80.5186 13.9058L87.2763 22.4356L86.8549 25.0103ZM86.8549 25.0103L86.2229 22.9252V13.9058H88.443V25.0103H86.8549Z" fill="black"/>
<path d="M67.2997 25.0103V13.9058H69.5036V25.0103H67.2997ZM74.4463 25.0103V13.9058H76.6502V25.0103H74.4463ZM68.6933 20.2241V18.3286H75.0621V20.2241H68.6933Z" fill="black"/>
<path d="M61.4731 25.1682C60.6412 25.1682 59.8687 25.026 59.1557 24.7417C58.4427 24.4468 57.816 24.0414 57.2759 23.5254C56.7465 22.9989 56.3359 22.3881 56.0442 21.6931C55.7633 20.9981 55.6229 20.2504 55.6229 19.4501C55.6229 18.6497 55.7633 17.9021 56.0442 17.207C56.3359 16.512 56.7465 15.9065 57.2759 15.3905C57.816 14.8745 58.4372 14.4691 59.1395 14.1742C59.8525 13.8794 60.6304 13.7319 61.4731 13.7319C62.3806 13.7319 63.1801 13.8794 63.8715 14.1742C64.5629 14.4585 65.1733 14.8534 65.7027 15.3589L64.2118 16.8121C63.8985 16.4752 63.515 16.2119 63.0612 16.0223C62.6075 15.8328 62.0781 15.738 61.4731 15.738C60.9437 15.738 60.4575 15.8275 60.0146 16.0065C59.5824 16.175 59.2043 16.4278 58.8802 16.7648C58.5561 17.0912 58.3076 17.4861 58.1347 17.9495C57.9619 18.4023 57.8755 18.9025 57.8755 19.4501C57.8755 20.0082 57.9619 20.5137 58.1347 20.9665C58.3076 21.4193 58.5561 21.8142 58.8802 22.1512C59.2043 22.4776 59.5824 22.7304 60.0146 22.9094C60.4575 23.0884 60.9437 23.1779 61.4731 23.1779C62.1105 23.1779 62.6561 23.0831 63.1098 22.8936C63.5744 22.704 63.9633 22.4355 64.2766 22.088L65.7675 23.5412C65.2382 24.0572 64.6223 24.4574 63.9201 24.7417C63.2179 25.026 62.4022 25.1682 61.4731 25.1682Z" fill="black"/>
<path d="M46.6471 25.0103V13.9058H48.851V25.0103H46.6471ZM48.2676 25.0103V23.1148H54.5716V25.0103H48.2676ZM48.2676 20.2557V18.4234H54.0044V20.2557H48.2676ZM48.2676 15.8013V13.9058H54.4906V15.8013H48.2676Z" fill="black"/>
<path d="M39.2752 25.0103V14.1427H41.4953V25.0103H39.2752ZM35.6451 15.8171V13.9058H45.1254V15.8171H35.6451Z" fill="black"/>
<path d="M114.114 37.9105V33.786H114.744V37.9105H114.114ZM114.744 35.506L114.483 35.3919C114.483 34.8712 114.612 34.4588 114.87 34.1546C115.134 33.8504 115.494 33.6982 115.95 33.6982C116.16 33.6982 116.352 33.7363 116.526 33.8123C116.7 33.8825 116.863 33.9966 117.013 34.1546L116.598 34.5846C116.496 34.4734 116.382 34.3944 116.256 34.3476C116.136 34.3008 115.998 34.2774 115.842 34.2774C115.518 34.2774 115.254 34.3827 115.05 34.5933C114.846 34.7981 114.744 35.1023 114.744 35.506Z" fill="black"/>
<path d="M107.403 37.9982C106.995 37.9982 106.623 37.9017 106.287 37.7087C105.957 37.5156 105.692 37.2553 105.494 36.9276C105.302 36.6 105.206 36.2344 105.206 35.8307C105.206 35.4329 105.302 35.0731 105.494 34.7513C105.692 34.4295 105.957 34.175 106.287 33.9878C106.623 33.7948 106.995 33.6982 107.403 33.6982C107.817 33.6982 108.189 33.7918 108.519 33.9791C108.85 34.1663 109.111 34.4237 109.303 34.7513C109.501 35.0731 109.6 35.4329 109.6 35.8307C109.6 36.2402 109.501 36.6088 109.303 36.9364C109.111 37.2582 108.85 37.5156 108.519 37.7087C108.189 37.9017 107.817 37.9982 107.403 37.9982ZM107.403 37.4015C107.703 37.4015 107.967 37.3342 108.195 37.1997C108.429 37.0651 108.612 36.8779 108.745 36.638C108.883 36.3982 108.952 36.1291 108.952 35.8307C108.952 35.5323 108.883 35.2691 108.745 35.0409C108.612 34.8069 108.429 34.6226 108.195 34.488C107.967 34.3535 107.703 34.2862 107.403 34.2862C107.109 34.2862 106.845 34.3535 106.611 34.488C106.377 34.6226 106.194 34.8069 106.062 35.0409C105.93 35.2691 105.864 35.5323 105.864 35.8307C105.864 36.1349 105.93 36.407 106.062 36.6468C106.194 36.8808 106.377 37.0651 106.611 37.1997C106.845 37.3342 107.109 37.4015 107.403 37.4015Z" fill="black"/>
<path d="M99.563 37.9104V32.0483H100.193V37.9104H99.563ZM98.4917 34.3388V33.7859H101.256V34.3388H98.4917Z" fill="black"/>
<path d="M92 37.9982C91.5979 37.9982 91.2377 37.9046 90.9196 37.7174C90.6015 37.5244 90.3494 37.267 90.1634 36.9452C89.9833 36.6234 89.8933 36.2607 89.8933 35.857C89.8933 35.4475 89.9833 35.0818 90.1634 34.7601C90.3494 34.4325 90.6015 34.175 90.9196 33.9878C91.2377 33.7948 91.5949 33.6982 91.991 33.6982C92.3151 33.6982 92.6032 33.7626 92.8553 33.8913C93.1134 34.0142 93.3204 34.1897 93.4765 34.4178C93.6385 34.6401 93.7376 34.9005 93.7736 35.1989V36.4889C93.7376 36.7872 93.6385 37.0505 93.4765 37.2787C93.3204 37.5068 93.1134 37.6853 92.8553 37.814C92.6032 37.9368 92.3181 37.9982 92 37.9982ZM92.099 37.4103C92.5372 37.4103 92.8883 37.267 93.1524 36.9803C93.4225 36.6936 93.5575 36.3163 93.5575 35.8482C93.5575 35.5382 93.4945 35.2661 93.3685 35.0321C93.2484 34.7923 93.0774 34.608 92.8553 34.4793C92.6392 34.3447 92.3841 34.2774 92.09 34.2774C91.7899 34.2774 91.5228 34.3447 91.2888 34.4793C91.0607 34.6138 90.8776 34.801 90.7396 35.0409C90.6075 35.2749 90.5415 35.544 90.5415 35.8482C90.5415 36.1525 90.6075 36.4216 90.7396 36.6556C90.8776 36.8896 91.0637 37.0739 91.2978 37.2085C91.5318 37.343 91.7989 37.4103 92.099 37.4103ZM93.5215 37.9105V36.8048L93.6476 35.7868L93.5215 34.7952V33.786H94.1517V37.9105H93.5215Z" fill="black"/>
<path d="M84.7443 37.9103V31.6973H85.3745V37.9103H84.7443Z" fill="black"/>
<path d="M78.2743 37.9981C77.9322 37.9981 77.6261 37.9221 77.356 37.77C77.0859 37.612 76.8728 37.3985 76.7167 37.1294C76.5667 36.8602 76.4917 36.5443 76.4917 36.1816V33.7859H77.1309V36.1553C77.1309 36.4068 77.1759 36.6262 77.2659 36.8134C77.362 37.0007 77.497 37.1469 77.6711 37.2522C77.8451 37.3575 78.0462 37.4102 78.2743 37.4102C78.6284 37.4102 78.9075 37.2961 79.1116 37.0679C79.3216 36.8398 79.4267 36.5356 79.4267 36.1553V33.7859H80.0569V36.1816C80.0569 36.5385 79.9819 36.8544 79.8318 37.1294C79.6818 37.4043 79.4717 37.6179 79.2016 37.77C78.9315 37.9221 78.6224 37.9981 78.2743 37.9981Z" fill="black"/>
<path d="M70.5928 37.9982C70.1786 37.9982 69.8035 37.9046 69.4674 37.7174C69.1373 37.5244 68.8732 37.264 68.6751 36.9364C68.4831 36.6088 68.387 36.2431 68.387 35.8395C68.387 35.4358 68.4831 35.0731 68.6751 34.7513C68.8732 34.4237 69.1373 34.1663 69.4674 33.9791C69.8035 33.7918 70.1786 33.6982 70.5928 33.6982C70.9109 33.6982 71.208 33.7567 71.4841 33.8738C71.7602 33.9908 71.9942 34.1546 72.1863 34.3652L71.7722 34.7776C71.6281 34.6197 71.4541 34.4997 71.25 34.4178C71.0459 34.3301 70.8268 34.2862 70.5928 34.2862C70.2927 34.2862 70.0256 34.3535 69.7915 34.488C69.5574 34.6226 69.3744 34.8069 69.2423 35.0409C69.1103 35.2691 69.0442 35.5353 69.0442 35.8395C69.0442 36.1378 69.1103 36.407 69.2423 36.6468C69.3744 36.8808 69.5574 37.0651 69.7915 37.1997C70.0256 37.3342 70.2927 37.4015 70.5928 37.4015C70.8329 37.4015 71.0549 37.3606 71.259 37.2787C71.4631 37.1909 71.6371 37.068 71.7812 36.9101L72.2043 37.3225C72.0063 37.539 71.7662 37.7057 71.4841 37.8227C71.208 37.9397 70.9109 37.9982 70.5928 37.9982Z" fill="black"/>
<path d="M63.247 37.9103V31.6973H63.8773V37.9103H63.247Z" fill="black"/>
<path d="M56.306 37.9982C55.9039 37.9982 55.5438 37.9046 55.2257 37.7174C54.9076 37.5244 54.6555 37.267 54.4694 36.9452C54.2893 36.6234 54.1993 36.2607 54.1993 35.857C54.1993 35.4475 54.2893 35.0818 54.4694 34.7601C54.6555 34.4325 54.9076 34.175 55.2257 33.9878C55.5438 33.7948 55.9009 33.6982 56.297 33.6982C56.6211 33.6982 56.9092 33.7626 57.1613 33.8913C57.4194 34.0142 57.6265 34.1897 57.7825 34.4178C57.9446 34.6401 58.0436 34.9005 58.0796 35.1989V36.4889C58.0436 36.7872 57.9446 37.0505 57.7825 37.2787C57.6265 37.5068 57.4194 37.6853 57.1613 37.814C56.9092 37.9368 56.6241 37.9982 56.306 37.9982ZM56.4051 37.4103C56.8432 37.4103 57.1943 37.267 57.4584 36.9803C57.7285 36.6936 57.8636 36.3163 57.8636 35.8482C57.8636 35.5382 57.8005 35.2661 57.6745 35.0321C57.5545 34.7923 57.3834 34.608 57.1613 34.4793C56.9452 34.3447 56.6902 34.2774 56.3961 34.2774C56.096 34.2774 55.8289 34.3447 55.5948 34.4793C55.3667 34.6138 55.1836 34.801 55.0456 35.0409C54.9136 35.2749 54.8475 35.544 54.8475 35.8482C54.8475 36.1525 54.9136 36.4216 55.0456 36.6556C55.1836 36.8896 55.3697 37.0739 55.6038 37.2085C55.8379 37.343 56.105 37.4103 56.4051 37.4103ZM57.8275 37.9105V36.8048L57.9536 35.7868L57.8275 34.7952V33.786H58.4578V37.9105H57.8275Z" fill="black"/>
<path d="M47.8362 37.9982C47.3921 37.9982 46.9779 37.9192 46.5938 37.7613C46.2157 37.6033 45.8856 37.381 45.6035 37.0943C45.3214 36.8077 45.1023 36.4771 44.9462 36.1027C44.7962 35.7224 44.7212 35.3158 44.7212 34.8829C44.7212 34.45 44.7962 34.0463 44.9462 33.6719C45.1023 33.2916 45.3184 32.9611 45.5945 32.6803C45.8766 32.3994 46.2067 32.1801 46.5848 32.0221C46.9629 31.8641 47.3711 31.7852 47.8092 31.7852C48.2834 31.7852 48.7065 31.8671 49.0786 32.0309C49.4568 32.1947 49.7869 32.4199 50.069 32.7066L49.6188 33.1454C49.4027 32.9113 49.1417 32.73 48.8356 32.6013C48.5295 32.4667 48.1873 32.3994 47.8092 32.3994C47.4611 32.3994 47.14 32.4609 46.8459 32.5837C46.5578 32.7066 46.3027 32.8821 46.0806 33.1103C45.8645 33.3326 45.6965 33.5958 45.5765 33.9001C45.4624 34.1984 45.4054 34.526 45.4054 34.8829C45.4054 35.2398 45.4654 35.5703 45.5855 35.8746C45.7055 36.1788 45.8736 36.445 46.0896 36.6731C46.3057 36.8954 46.5608 37.068 46.8549 37.1909C47.149 37.3137 47.4701 37.3752 47.8182 37.3752C48.2143 37.3752 48.5655 37.3079 48.8716 37.1733C49.1837 37.0388 49.4478 36.8545 49.6638 36.6205L50.114 37.068C49.8379 37.3547 49.5078 37.5829 49.1237 37.7525C48.7395 37.9163 48.3104 37.9982 47.8362 37.9982Z" fill="black"/>
<path d="M32.8649 17.5969C32.8482 17.4986 32.7811 17.4151 32.6876 17.3783L26.4539 14.917C27.084 12.7751 27.5248 11.4684 27.5392 11.4266C27.5823 11.2989 27.5344 11.1564 27.4218 11.0852C26.418 10.4318 25.0716 9.84967 23.3969 9.34121C23.4353 9.20366 23.4951 9.04154 23.567 8.87206C23.567 8.87206 23.567 8.87206 23.567 8.8696C23.567 8.8696 23.567 8.8696 23.567 8.86715C23.797 8.32676 24.1492 7.7004 24.3193 7.41792C24.4007 7.28528 24.3624 7.10843 24.233 7.02246C23.4257 6.48452 20.3495 5.60762 17.7334 4.92477L18.0831 4.37209C18.1263 4.30086 18.1406 4.21489 18.1167 4.13383C18.0951 4.05277 18.0376 3.98645 17.9634 3.94961L9.68363 0.0268778C9.58541 -0.0197922 9.46801 -0.00505429 9.38416 0.0661788C7.2759 1.84701 6.73206 4.96161 6.60988 5.94414C5.18441 5.78447 4.07757 5.74272 3.97695 5.7378C3.87154 5.73289 3.7781 5.78693 3.7254 5.87781C2.64012 7.71268 2.54668 11.5887 2.54189 12.6228C1.09725 12.9004 0 14.2023 0 15.762V39.8044C0 41.5656 1.39672 43.0001 3.11687 43.0001H18.9863C20.7041 43.0001 22.1032 41.5656 22.1032 39.8044V37.8516C22.1344 37.3014 22.1727 36.7463 22.2206 36.1912C22.8866 27.1175 32.6805 17.958 32.7787 17.8646C32.8506 17.7958 32.8841 17.6951 32.8673 17.5969H32.8649ZM18.9839 12.5664H15.5317C15.594 11.9326 15.8407 11.0827 16.1066 10.3065C16.157 10.3065 16.2097 10.3164 16.2576 10.3164C17.6783 10.3164 18.4808 9.29209 18.7587 8.85732C21.2144 9.29946 23.2819 9.84476 24.8967 10.476C24.8919 10.9771 25.0428 12.1586 26.3772 13.2075C26.2215 13.7135 26.0442 14.3079 25.8478 14.976C25.8478 14.9809 25.843 14.9834 25.8406 14.9858C25.8382 14.9956 25.8406 15.0055 25.8358 15.0128C24.7002 18.9184 23.0184 25.3711 22.1008 32.0916V15.762C22.1008 14.0008 20.7017 12.5664 18.9839 12.5664ZM16.3103 9.73177C16.4995 9.21349 16.6768 8.77626 16.7775 8.53554C17.2446 8.60432 17.6974 8.67555 18.1406 8.7517C17.846 9.13734 17.247 9.70966 16.3103 9.73423V9.73177ZM26.5593 12.6155C25.7304 11.8982 25.5172 11.1515 25.4716 10.7118C26.0203 10.9501 26.5114 11.1982 26.933 11.4561C26.8564 11.6821 26.7294 12.0775 26.5593 12.6155ZM16.6409 7.92883C16.5163 7.90918 16.3941 7.98042 16.3438 8.09832C16.2911 8.22114 15.1028 10.9747 14.9615 12.5664H10.8599C11.399 10.6308 12.2016 8.03937 12.8891 6.29539C14.4009 6.09643 15.4215 5.30795 15.7545 5.01565C16.2288 5.13355 16.7224 5.25882 17.2231 5.38901C17.2303 5.38901 17.2374 5.39392 17.2422 5.39392C18.742 5.78202 20.2968 6.20696 21.545 6.59506C21.5881 7.07158 21.8157 8.18184 22.9609 8.87452C22.9202 8.98259 22.8866 9.08576 22.8603 9.18647C21.1114 8.69275 19.039 8.27272 16.6409 7.93129V7.92883ZM13.1479 5.66412C13.3779 5.13601 13.5863 4.73563 13.7588 4.53175C14.1469 4.62264 14.5805 4.7258 15.0405 4.83879C14.6452 5.11881 13.9912 5.48972 13.1479 5.66166V5.66412ZM23.1885 8.33658C22.4698 7.87234 22.2278 7.20668 22.1439 6.78419C22.8076 7.00281 23.349 7.20422 23.6892 7.37371C23.555 7.60951 23.361 7.96568 23.1861 8.33658H23.1885ZM17.1584 4.77247C16.8661 4.69878 16.5834 4.62509 16.3127 4.55632C16.0372 4.17068 15.9629 3.85136 15.9557 3.6352L17.4363 4.33525L17.1584 4.77247ZM9.60936 0.633587L10.5102 1.06099C10.067 1.30662 9.3626 1.63576 8.69898 1.69471C8.95772 1.31153 9.25958 0.950451 9.60697 0.633587H9.60936ZM8.3492 2.2744C8.39711 2.27686 8.44503 2.28423 8.49294 2.28423C9.57822 2.28423 10.7521 1.60383 11.145 1.3582L15.4095 3.37483C15.3759 3.60081 15.3807 3.94961 15.5532 4.36718C14.5446 4.11909 13.8355 3.95206 13.7348 3.9275C13.651 3.90785 13.5624 3.9275 13.4953 3.984C13.1862 4.237 12.8101 4.97635 12.422 5.92448C12.4196 5.93185 12.4172 5.93677 12.4124 5.94659C12.2591 6.32732 12.1009 6.74489 11.9476 7.1772C10.6443 6.57295 8.77564 6.21924 7.17288 6.01291C7.25673 5.37673 7.53704 3.7531 8.3468 2.2744H8.3492ZM4.12788 6.32486C4.33871 6.33469 4.73161 6.35679 5.23951 6.39855C4.99754 6.75472 4.51599 7.27546 3.68467 7.49898C3.80446 7.06176 3.9506 6.65892 4.12549 6.32486H4.12788ZM3.53613 8.12534C4.964 7.86988 5.64439 6.88245 5.87199 6.45259C7.62808 6.61962 10.1867 6.9807 11.7584 7.72251C11.0828 9.68019 10.4814 11.8074 10.273 12.5639H3.10969C3.11687 11.8196 3.17198 9.82757 3.53374 8.12534H3.53613ZM3.11927 13.146H18.9863C20.3926 13.146 21.5378 14.3202 21.5378 15.762V26.6214L11.3367 29.1219V26.4887C11.3367 26.4003 11.2984 26.3168 11.2313 26.2628C11.1642 26.2087 11.078 26.1866 10.9917 26.2063L0.565398 28.5471V15.762C0.565398 14.3202 1.70817 13.146 3.11687 13.146H3.11927ZM18.9863 42.4179H3.11687C1.71057 42.4179 0.565398 41.2438 0.565398 39.8019V29.1416L10.7665 26.8474V29.4879C10.7665 29.5763 10.8072 29.6623 10.8743 29.7163C10.9246 29.7581 10.9869 29.7777 11.0492 29.7777C11.0708 29.7777 11.0923 29.7777 11.1163 29.7704L21.5354 27.2158V39.7995C21.5354 41.2413 20.3926 42.4155 18.9839 42.4155L18.9863 42.4179ZM26.2958 15.4746L29.7529 16.8403C29.5971 17.339 29.4606 18.3706 30.3877 19.4858C28.1549 21.9224 24.6379 26.2677 22.81 31.1533C23.7203 25.01 25.2273 19.1812 26.2958 15.4746ZM30.7782 19.0658C30.0667 18.1839 30.1625 17.4151 30.2751 17.0467L32.0624 17.7541C31.7773 18.0316 31.3293 18.4787 30.7782 19.0658Z" fill="black"/>
<path d="M3.47125 22.8804H18.7729C19.7097 22.8804 20.4739 22.0993 20.4739 21.1364V16.8502C20.4739 15.8898 19.7121 15.1062 18.7729 15.1062H3.47125C2.53451 15.1062 1.77026 15.8873 1.77026 16.8502V21.1364C1.77026 22.0969 2.53451 22.8804 3.47125 22.8804Z" fill="black"/>
<path d="M5.24171 33.9167C4.49902 33.9167 3.89529 34.5357 3.89529 35.2972C3.89529 36.0587 4.49902 36.6776 5.24171 36.6776C5.98439 36.6776 6.58812 36.0587 6.58812 35.2972C6.58812 34.5357 5.98439 33.9167 5.24171 33.9167Z" fill="black"/>
<path d="M11.0518 33.9167C10.3091 33.9167 9.70538 34.5357 9.70538 35.2972C9.70538 36.0587 10.3091 36.6776 11.0518 36.6776C11.7945 36.6776 12.3982 36.0587 12.3982 35.2972C12.3982 34.5357 11.7945 33.9167 11.0518 33.9167Z" fill="black"/>
<path d="M17.2852 33.9167C16.5425 33.9167 15.9388 34.5357 15.9388 35.2972C15.9388 36.0587 16.5425 36.6776 17.2852 36.6776C18.0279 36.6776 18.6316 36.0587 18.6316 35.2972C18.6316 34.5357 18.0279 33.9167 17.2852 33.9167Z" fill="black"/>
<path d="M5.24171 37.552C4.49902 37.552 3.89529 38.171 3.89529 38.9324C3.89529 39.6939 4.49902 40.3129 5.24171 40.3129C5.98439 40.3129 6.58812 39.6939 6.58812 38.9324C6.58812 38.171 5.98439 37.552 5.24171 37.552Z" fill="black"/>
<path d="M11.0518 37.552C10.3091 37.552 9.70538 38.171 9.70538 38.9324C9.70538 39.6939 10.3091 40.3129 11.0518 40.3129C11.7945 40.3129 12.3982 39.6939 12.3982 38.9324C12.3982 38.171 11.7945 37.552 11.0518 37.552Z" fill="black"/>
<path d="M17.2852 37.552C16.5425 37.552 15.9388 38.171 15.9388 38.9324C15.9388 39.6939 16.5425 40.3129 17.2852 40.3129C18.0279 40.3129 18.6316 39.6939 18.6316 38.9324C18.6316 38.171 18.0279 37.552 17.2852 37.552Z" fill="black"/>
<path d="M2.26652 31.0156H9.56399C9.71971 31.0156 9.84669 31.1458 9.84669 31.3055V32.3961C9.84669 32.5557 9.71971 32.6859 9.56399 32.6859H2.26652C2.1108 32.6859 1.98383 32.5557 1.98383 32.3961V31.3055C1.98383 31.1458 2.1108 31.0156 2.26652 31.0156Z" fill="black"/>
<path d="M12.7167 31.0156H20.0142C20.1699 31.0156 20.2969 31.1458 20.2969 31.3055V32.3961C20.2969 32.5557 20.1699 32.6859 20.0142 32.6859H12.7191C12.5634 32.6859 12.4364 32.5557 12.4364 32.3961V31.3055C12.4364 31.1458 12.5634 31.0156 12.7191 31.0156H12.7167Z" fill="black"/>
</svg>
