<svg width="125" height="43" viewBox="0 0 125 43" fill="none" xmlns="http://www.w3.org/2000/svg">
<path d="M117.578 25.0108V13.9062H119.782V25.0108H117.578ZM119.198 25.0108V23.0995H125V25.0108H119.198Z" fill="#99EA48"/>
<path d="M105.277 25.0108L109.864 13.9062H111.662L116.232 25.0108H113.882L110.35 15.8965H111.16L107.579 25.0108H105.277ZM107.708 22.9415V21.1408H113.834V22.9415H107.708Z" fill="#99EA48"/>
<path d="M100.578 25.1687C99.7464 25.1687 98.9739 25.0265 98.2609 24.7422C97.5478 24.4473 96.9212 24.0419 96.381 23.5259C95.8516 22.9994 95.4411 22.3886 95.1494 21.6936C94.8685 20.9986 94.7281 20.2509 94.7281 19.4506C94.7281 18.6502 94.8685 17.9026 95.1494 17.2075C95.4411 16.5125 95.8516 15.907 96.381 15.391C96.9212 14.875 97.5424 14.4696 98.2447 14.1747C98.9577 13.8799 99.7356 13.7324 100.578 13.7324C101.486 13.7324 102.285 13.8799 102.977 14.1747C103.668 14.459 104.278 14.8539 104.808 15.3594L103.317 16.8126C103.004 16.4757 102.62 16.2124 102.166 16.0228C101.713 15.8333 101.183 15.7385 100.578 15.7385C100.049 15.7385 99.5627 15.828 99.1197 16.007C98.6876 16.1755 98.3095 16.4283 97.9854 16.7652C97.6613 17.0917 97.4128 17.4866 97.2399 17.9499C97.0671 18.4028 96.9806 18.903 96.9806 19.4506C96.9806 20.0087 97.0671 20.5141 97.2399 20.967C97.4128 21.4198 97.6613 21.8147 97.9854 22.1517C98.3095 22.4781 98.6876 22.7308 99.1197 22.9099C99.5627 23.0889 100.049 23.1784 100.578 23.1784C101.216 23.1784 101.761 23.0836 102.215 22.8941C102.68 22.7045 103.068 22.436 103.382 22.0885L104.873 23.5417C104.343 24.0577 103.728 24.4579 103.025 24.7422C102.323 25.0265 101.507 25.1687 100.578 25.1687Z" fill="#99EA48"/>
<path d="M90.7532 25.0108V13.9062H92.9572V25.0108H90.7532Z" fill="#99EA48"/>
<path d="M78.979 25.0108V13.9062H80.5186L81.183 16.0545V25.0108H78.979ZM86.8549 25.0108L80.0972 16.481L80.5186 13.9062L87.2763 22.4361L86.8549 25.0108ZM86.8549 25.0108L86.2229 22.9257V13.9062H88.443V25.0108H86.8549Z" fill="#99EA48"/>
<path d="M67.2996 25.0108V13.9062H69.5035V25.0108H67.2996ZM74.4462 25.0108V13.9062H76.6502V25.0108H74.4462ZM68.6933 20.2246V18.3291H75.062V20.2246H68.6933Z" fill="#99EA48"/>
<path d="M61.473 25.1687C60.6411 25.1687 59.8687 25.0265 59.1556 24.7422C58.4426 24.4473 57.816 24.0419 57.2758 23.5259C56.7464 22.9994 56.3359 22.3886 56.0442 21.6936C55.7633 20.9986 55.6228 20.2509 55.6228 19.4506C55.6228 18.6502 55.7633 17.9026 56.0442 17.2075C56.3359 16.5125 56.7464 15.907 57.2758 15.391C57.816 14.875 58.4372 14.4696 59.1394 14.1747C59.8525 13.8799 60.6303 13.7324 61.473 13.7324C62.3805 13.7324 63.18 13.8799 63.8714 14.1747C64.5629 14.459 65.1733 14.8539 65.7027 15.3594L64.2118 16.8126C63.8984 16.4757 63.5149 16.2124 63.0612 16.0228C62.6074 15.8333 62.078 15.7385 61.473 15.7385C60.9436 15.7385 60.4575 15.828 60.0145 16.007C59.5824 16.1755 59.2042 16.4283 58.8801 16.7652C58.556 17.0917 58.3075 17.4866 58.1347 17.9499C57.9618 18.4028 57.8754 18.903 57.8754 19.4506C57.8754 20.0087 57.9618 20.5141 58.1347 20.967C58.3075 21.4198 58.556 21.8147 58.8801 22.1517C59.2042 22.4781 59.5824 22.7308 60.0145 22.9099C60.4575 23.0889 60.9436 23.1784 61.473 23.1784C62.1104 23.1784 62.656 23.0836 63.1098 22.8941C63.5743 22.7045 63.9633 22.436 64.2766 22.0885L65.7675 23.5417C65.2381 24.0577 64.6223 24.4579 63.92 24.7422C63.2178 25.0265 62.4021 25.1687 61.473 25.1687Z" fill="#99EA48"/>
<path d="M46.647 25.0108V13.9062H48.851V25.0108H46.647ZM48.2676 25.0108V23.1153H54.5715V25.0108H48.2676ZM48.2676 20.2562V18.4239H54.0043V20.2562H48.2676ZM48.2676 15.8018V13.9062H54.4905V15.8018H48.2676Z" fill="#99EA48"/>
<path d="M39.2751 25.0108V14.1432H41.4952V25.0108H39.2751ZM35.6451 15.8176V13.9062H45.1253V15.8176H35.6451Z" fill="#99EA48"/>
<path d="M114.113 37.9105V33.786H114.744V37.9105H114.113ZM114.744 35.506L114.482 35.3919C114.482 34.8712 114.611 34.4588 114.87 34.1546C115.134 33.8504 115.494 33.6982 115.95 33.6982C116.16 33.6982 116.352 33.7363 116.526 33.8123C116.7 33.8825 116.862 33.9966 117.012 34.1546L116.598 34.5846C116.496 34.4734 116.382 34.3944 116.256 34.3476C116.136 34.3008 115.998 34.2774 115.842 34.2774C115.518 34.2774 115.254 34.3827 115.05 34.5933C114.846 34.7981 114.744 35.1023 114.744 35.506Z" fill="#99EA48"/>
<path d="M107.403 37.9982C106.995 37.9982 106.623 37.9017 106.286 37.7087C105.956 37.5156 105.692 37.2553 105.494 36.9276C105.302 36.6 105.206 36.2344 105.206 35.8307C105.206 35.4329 105.302 35.0731 105.494 34.7513C105.692 34.4295 105.956 34.175 106.286 33.9878C106.623 33.7948 106.995 33.6982 107.403 33.6982C107.817 33.6982 108.189 33.7918 108.519 33.9791C108.849 34.1663 109.11 34.4237 109.302 34.7513C109.501 35.0731 109.6 35.4329 109.6 35.8307C109.6 36.2402 109.501 36.6088 109.302 36.9364C109.11 37.2582 108.849 37.5156 108.519 37.7087C108.189 37.9017 107.817 37.9982 107.403 37.9982ZM107.403 37.4015C107.703 37.4015 107.967 37.3342 108.195 37.1997C108.429 37.0651 108.612 36.8779 108.744 36.638C108.882 36.3982 108.951 36.1291 108.951 35.8307C108.951 35.5323 108.882 35.2691 108.744 35.0409C108.612 34.8069 108.429 34.6226 108.195 34.488C107.967 34.3535 107.703 34.2862 107.403 34.2862C107.109 34.2862 106.845 34.3535 106.611 34.488C106.376 34.6226 106.193 34.8069 106.061 35.0409C105.929 35.2691 105.863 35.5323 105.863 35.8307C105.863 36.1349 105.929 36.407 106.061 36.6468C106.193 36.8808 106.376 37.0651 106.611 37.1997C106.845 37.3342 107.109 37.4015 107.403 37.4015Z" fill="#99EA48"/>
<path d="M99.5629 37.9099V32.0479H100.193V37.9099H99.5629ZM98.4915 34.3383V33.7854H101.255V34.3383H98.4915Z" fill="#99EA48"/>
<path d="M91.9998 37.9982C91.5977 37.9982 91.2376 37.9046 90.9194 37.7174C90.6013 37.5244 90.3492 37.267 90.1632 36.9452C89.9831 36.6234 89.8931 36.2607 89.8931 35.857C89.8931 35.4475 89.9831 35.0818 90.1632 34.7601C90.3492 34.4325 90.6013 34.175 90.9194 33.9878C91.2376 33.7948 91.5947 33.6982 91.9908 33.6982C92.3149 33.6982 92.603 33.7626 92.8551 33.8913C93.1132 34.0142 93.3203 34.1897 93.4763 34.4178C93.6384 34.6401 93.7374 34.9005 93.7734 35.1989V36.4889C93.7374 36.7872 93.6384 37.0505 93.4763 37.2787C93.3203 37.5068 93.1132 37.6853 92.8551 37.814C92.603 37.9368 92.3179 37.9982 91.9998 37.9982ZM92.0988 37.4103C92.537 37.4103 92.8881 37.267 93.1522 36.9803C93.4223 36.6936 93.5573 36.3163 93.5573 35.8482C93.5573 35.5382 93.4943 35.2661 93.3683 35.0321C93.2482 34.7923 93.0772 34.608 92.8551 34.4793C92.639 34.3447 92.3839 34.2774 92.0898 34.2774C91.7897 34.2774 91.5226 34.3447 91.2886 34.4793C91.0605 34.6138 90.8774 34.801 90.7394 35.0409C90.6073 35.2749 90.5413 35.544 90.5413 35.8482C90.5413 36.1525 90.6073 36.4216 90.7394 36.6556C90.8774 36.8896 91.0635 37.0739 91.2976 37.2085C91.5317 37.343 91.7987 37.4103 92.0988 37.4103ZM93.5213 37.9105V36.8048L93.6474 35.7868L93.5213 34.7952V33.786H94.1515V37.9105H93.5213Z" fill="#99EA48"/>
<path d="M84.7442 37.9103V31.6973H85.3744V37.9103H84.7442Z" fill="#99EA48"/>
<path d="M78.2741 37.9984C77.932 37.9984 77.6259 37.9223 77.3558 37.7702C77.0857 37.6123 76.8726 37.3987 76.7166 37.1296C76.5665 36.8605 76.4915 36.5446 76.4915 36.1819V33.7861H77.1307V36.1555C77.1307 36.4071 77.1757 36.6265 77.2657 36.8137C77.3618 37.0009 77.4968 37.1472 77.6709 37.2525C77.8449 37.3578 78.046 37.4104 78.2741 37.4104C78.6282 37.4104 78.9073 37.2963 79.1114 37.0682C79.3214 36.84 79.4265 36.5358 79.4265 36.1555V33.7861H80.0567V36.1819C80.0567 36.5387 79.9817 36.8546 79.8316 37.1296C79.6816 37.4046 79.4715 37.6181 79.2014 37.7702C78.9313 37.9223 78.6222 37.9984 78.2741 37.9984Z" fill="#99EA48"/>
<path d="M70.5925 37.9982C70.1784 37.9982 69.8032 37.9046 69.4671 37.7174C69.137 37.5244 68.8729 37.264 68.6748 36.9364C68.4828 36.6088 68.3867 36.2431 68.3867 35.8395C68.3867 35.4358 68.4828 35.0731 68.6748 34.7513C68.8729 34.4237 69.137 34.1663 69.4671 33.9791C69.8032 33.7918 70.1784 33.6982 70.5925 33.6982C70.9106 33.6982 71.2077 33.7567 71.4838 33.8738C71.7599 33.9908 71.994 34.1546 72.186 34.3652L71.7719 34.7776C71.6278 34.6197 71.4538 34.4997 71.2497 34.4178C71.0457 34.3301 70.8266 34.2862 70.5925 34.2862C70.2924 34.2862 70.0253 34.3535 69.7912 34.488C69.5571 34.6226 69.3741 34.8069 69.242 35.0409C69.11 35.2691 69.044 35.5353 69.044 35.8395C69.044 36.1378 69.11 36.407 69.242 36.6468C69.3741 36.8808 69.5571 37.0651 69.7912 37.1997C70.0253 37.3342 70.2924 37.4015 70.5925 37.4015C70.8326 37.4015 71.0547 37.3606 71.2587 37.2787C71.4628 37.1909 71.6369 37.068 71.7809 36.9101L72.204 37.3225C72.006 37.539 71.7659 37.7057 71.4838 37.8227C71.2077 37.9397 70.9106 37.9982 70.5925 37.9982Z" fill="#99EA48"/>
<path d="M63.2469 37.9103V31.6973H63.8771V37.9103H63.2469Z" fill="#99EA48"/>
<path d="M56.306 37.9982C55.9038 37.9982 55.5437 37.9046 55.2256 37.7174C54.9075 37.5244 54.6554 37.267 54.4693 36.9452C54.2893 36.6234 54.1992 36.2607 54.1992 35.857C54.1992 35.4475 54.2893 35.0818 54.4693 34.7601C54.6554 34.4325 54.9075 34.175 55.2256 33.9878C55.5437 33.7948 55.9008 33.6982 56.297 33.6982C56.6211 33.6982 56.9092 33.7626 57.1613 33.8913C57.4193 34.0142 57.6264 34.1897 57.7825 34.4178C57.9445 34.6401 58.0436 34.9005 58.0796 35.1989V36.4889C58.0436 36.7872 57.9445 37.0505 57.7825 37.2787C57.6264 37.5068 57.4193 37.6853 57.1613 37.814C56.9092 37.9368 56.6241 37.9982 56.306 37.9982ZM56.405 37.4103C56.8431 37.4103 57.1943 37.267 57.4584 36.9803C57.7284 36.6936 57.8635 36.3163 57.8635 35.8482C57.8635 35.5382 57.8005 35.2661 57.6744 35.0321C57.5544 34.7923 57.3833 34.608 57.1613 34.4793C56.9452 34.3447 56.6901 34.2774 56.396 34.2774C56.0959 34.2774 55.8288 34.3447 55.5947 34.4793C55.3666 34.6138 55.1836 34.801 55.0455 35.0409C54.9135 35.2749 54.8475 35.544 54.8475 35.8482C54.8475 36.1525 54.9135 36.4216 55.0455 36.6556C55.1836 36.8896 55.3696 37.0739 55.6037 37.2085C55.8378 37.343 56.1049 37.4103 56.405 37.4103ZM57.8275 37.9105V36.8048L57.9535 35.7868L57.8275 34.7952V33.786H58.4577V37.9105H57.8275Z" fill="#99EA48"/>
<path d="M47.836 37.9982C47.3919 37.9982 46.9777 37.9192 46.5936 37.7613C46.2155 37.6033 45.8854 37.381 45.6033 37.0943C45.3212 36.8077 45.1021 36.4771 44.9461 36.1027C44.796 35.7224 44.721 35.3158 44.721 34.8829C44.721 34.45 44.796 34.0463 44.9461 33.6719C45.1021 33.2916 45.3182 32.9611 45.5943 32.6803C45.8764 32.3994 46.2065 32.1801 46.5846 32.0221C46.9627 31.8641 47.3709 31.7852 47.809 31.7852C48.2832 31.7852 48.7063 31.8671 49.0785 32.0309C49.4566 32.1947 49.7867 32.4199 50.0688 32.7066L49.6186 33.1454C49.4026 32.9113 49.1415 32.73 48.8354 32.6013C48.5293 32.4667 48.1872 32.3994 47.809 32.3994C47.4609 32.3994 47.1398 32.4609 46.8457 32.5837C46.5576 32.7066 46.3025 32.8821 46.0804 33.1103C45.8644 33.3326 45.6963 33.5958 45.5763 33.9001C45.4622 34.1984 45.4052 34.526 45.4052 34.8829C45.4052 35.2398 45.4652 35.5703 45.5853 35.8746C45.7053 36.1788 45.8734 36.445 46.0894 36.6731C46.3055 36.8954 46.5606 37.068 46.8547 37.1909C47.1488 37.3137 47.4699 37.3752 47.818 37.3752C48.2142 37.3752 48.5653 37.3079 48.8714 37.1733C49.1835 37.0388 49.4476 36.8545 49.6637 36.6205L50.1138 37.068C49.8377 37.3547 49.5076 37.5829 49.1235 37.7525C48.7393 37.9163 48.3102 37.9982 47.836 37.9982Z" fill="#99EA48"/>
<path d="M32.8649 17.5969C32.8482 17.4986 32.7811 17.4151 32.6876 17.3783L26.4539 14.917C27.084 12.7751 27.5248 11.4684 27.5392 11.4266C27.5823 11.2989 27.5344 11.1564 27.4218 11.0852C26.418 10.4318 25.0716 9.84967 23.3969 9.34121C23.4353 9.20366 23.4951 9.04154 23.567 8.87206C23.567 8.87206 23.567 8.87206 23.567 8.8696C23.567 8.8696 23.567 8.8696 23.567 8.86715C23.797 8.32676 24.1492 7.7004 24.3193 7.41792C24.4007 7.28528 24.3624 7.10843 24.233 7.02246C23.4257 6.48452 20.3495 5.60762 17.7334 4.92477L18.0831 4.37209C18.1263 4.30086 18.1406 4.21489 18.1167 4.13383C18.0951 4.05277 18.0376 3.98645 17.9634 3.94961L9.68363 0.0268778C9.58541 -0.0197922 9.46801 -0.00505429 9.38416 0.0661788C7.2759 1.84701 6.73206 4.96161 6.60988 5.94414C5.18441 5.78447 4.07757 5.74272 3.97695 5.7378C3.87154 5.73289 3.7781 5.78693 3.7254 5.87781C2.64012 7.71268 2.54668 11.5887 2.54189 12.6228C1.09725 12.9004 0 14.2023 0 15.762V39.8044C0 41.5656 1.39672 43.0001 3.11687 43.0001H18.9863C20.7041 43.0001 22.1032 41.5656 22.1032 39.8044V37.8516C22.1344 37.3014 22.1727 36.7463 22.2206 36.1912C22.8866 27.1175 32.6805 17.958 32.7787 17.8646C32.8506 17.7958 32.8841 17.6951 32.8673 17.5969H32.8649ZM18.9839 12.5664H15.5317C15.594 11.9326 15.8407 11.0827 16.1066 10.3065C16.157 10.3065 16.2097 10.3164 16.2576 10.3164C17.6783 10.3164 18.4808 9.29209 18.7587 8.85732C21.2144 9.29946 23.2819 9.84476 24.8967 10.476C24.8919 10.9771 25.0428 12.1586 26.3772 13.2075C26.2215 13.7135 26.0442 14.3079 25.8478 14.976C25.8478 14.9809 25.843 14.9834 25.8406 14.9858C25.8382 14.9956 25.8406 15.0055 25.8358 15.0128C24.7002 18.9184 23.0184 25.3711 22.1008 32.0916V15.762C22.1008 14.0008 20.7017 12.5664 18.9839 12.5664ZM16.3103 9.73177C16.4995 9.21349 16.6768 8.77626 16.7775 8.53554C17.2446 8.60432 17.6974 8.67555 18.1406 8.7517C17.846 9.13734 17.247 9.70966 16.3103 9.73423V9.73177ZM26.5593 12.6155C25.7304 11.8982 25.5172 11.1515 25.4716 10.7118C26.0203 10.9501 26.5114 11.1982 26.933 11.4561C26.8564 11.6821 26.7294 12.0775 26.5593 12.6155ZM16.6409 7.92883C16.5163 7.90918 16.3941 7.98042 16.3438 8.09832C16.2911 8.22114 15.1028 10.9747 14.9615 12.5664H10.8599C11.399 10.6308 12.2016 8.03937 12.8891 6.29539C14.4009 6.09643 15.4215 5.30795 15.7545 5.01565C16.2288 5.13355 16.7224 5.25882 17.2231 5.38901C17.2303 5.38901 17.2374 5.39392 17.2422 5.39392C18.742 5.78202 20.2968 6.20696 21.545 6.59506C21.5881 7.07158 21.8157 8.18184 22.9609 8.87452C22.9202 8.98259 22.8866 9.08576 22.8603 9.18647C21.1114 8.69275 19.039 8.27272 16.6409 7.93129V7.92883ZM13.1479 5.66412C13.3779 5.13601 13.5863 4.73563 13.7588 4.53175C14.1469 4.62264 14.5805 4.7258 15.0405 4.83879C14.6452 5.11881 13.9912 5.48972 13.1479 5.66166V5.66412ZM23.1885 8.33658C22.4698 7.87234 22.2278 7.20668 22.1439 6.78419C22.8076 7.00281 23.349 7.20422 23.6892 7.37371C23.555 7.60951 23.361 7.96568 23.1861 8.33658H23.1885ZM17.1584 4.77247C16.8661 4.69878 16.5834 4.62509 16.3127 4.55632C16.0372 4.17068 15.9629 3.85136 15.9557 3.6352L17.4363 4.33525L17.1584 4.77247ZM9.60936 0.633587L10.5102 1.06099C10.067 1.30662 9.3626 1.63576 8.69898 1.69471C8.95772 1.31153 9.25958 0.950451 9.60697 0.633587H9.60936ZM8.3492 2.2744C8.39711 2.27686 8.44503 2.28423 8.49294 2.28423C9.57822 2.28423 10.7521 1.60383 11.145 1.3582L15.4095 3.37483C15.3759 3.60081 15.3807 3.94961 15.5532 4.36718C14.5446 4.11909 13.8355 3.95206 13.7348 3.9275C13.651 3.90785 13.5624 3.9275 13.4953 3.984C13.1862 4.237 12.8101 4.97635 12.422 5.92448C12.4196 5.93185 12.4172 5.93677 12.4124 5.94659C12.2591 6.32732 12.1009 6.74489 11.9476 7.1772C10.6443 6.57295 8.77564 6.21924 7.17288 6.01291C7.25673 5.37673 7.53704 3.7531 8.3468 2.2744H8.3492ZM4.12788 6.32486C4.33871 6.33469 4.73161 6.35679 5.23951 6.39855C4.99754 6.75472 4.51599 7.27546 3.68467 7.49898C3.80446 7.06176 3.9506 6.65892 4.12549 6.32486H4.12788ZM3.53613 8.12534C4.964 7.86988 5.64439 6.88245 5.87199 6.45259C7.62808 6.61962 10.1867 6.9807 11.7584 7.72251C11.0828 9.68019 10.4814 11.8074 10.273 12.5639H3.10969C3.11687 11.8196 3.17198 9.82757 3.53374 8.12534H3.53613ZM3.11927 13.146H18.9863C20.3926 13.146 21.5378 14.3202 21.5378 15.762V26.6214L11.3367 29.1219V26.4887C11.3367 26.4003 11.2984 26.3168 11.2313 26.2628C11.1642 26.2087 11.078 26.1866 10.9917 26.2063L0.565398 28.5471V15.762C0.565398 14.3202 1.70817 13.146 3.11687 13.146H3.11927ZM18.9863 42.4179H3.11687C1.71057 42.4179 0.565398 41.2438 0.565398 39.8019V29.1416L10.7665 26.8474V29.4879C10.7665 29.5763 10.8072 29.6623 10.8743 29.7163C10.9246 29.7581 10.9869 29.7777 11.0492 29.7777C11.0708 29.7777 11.0923 29.7777 11.1163 29.7704L21.5354 27.2158V39.7995C21.5354 41.2413 20.3926 42.4155 18.9839 42.4155L18.9863 42.4179ZM26.2958 15.4746L29.7529 16.8403C29.5971 17.339 29.4606 18.3706 30.3877 19.4858C28.1549 21.9224 24.6379 26.2677 22.81 31.1533C23.7203 25.01 25.2273 19.1812 26.2958 15.4746ZM30.7782 19.0658C30.0667 18.1839 30.1625 17.4151 30.2751 17.0467L32.0624 17.7541C31.7773 18.0316 31.3293 18.4787 30.7782 19.0658Z" fill="#99EA48"/>
<path d="M3.47125 22.8807H18.7729C19.7097 22.8807 20.4739 22.0996 20.4739 21.1367V16.8504C20.4739 15.89 19.7121 15.1064 18.7729 15.1064H3.47125C2.53451 15.1064 1.77026 15.8876 1.77026 16.8504V21.1367C1.77026 22.0971 2.53451 22.8807 3.47125 22.8807Z" fill="#99EA48"/>
<path d="M5.24168 33.917C4.49899 33.917 3.89526 34.536 3.89526 35.2974C3.89526 36.0589 4.49899 36.6779 5.24168 36.6779C5.98436 36.6779 6.58809 36.0589 6.58809 35.2974C6.58809 34.536 5.98436 33.917 5.24168 33.917Z" fill="#99EA48"/>
<path d="M11.0517 33.917C10.3091 33.917 9.70532 34.536 9.70532 35.2974C9.70532 36.0589 10.3091 36.6779 11.0517 36.6779C11.7944 36.6779 12.3981 36.0589 12.3981 35.2974C12.3981 34.536 11.7944 33.917 11.0517 33.917Z" fill="#99EA48"/>
<path d="M17.2851 33.917C16.5425 33.917 15.9387 34.536 15.9387 35.2974C15.9387 36.0589 16.5425 36.6779 17.2851 36.6779C18.0278 36.6779 18.6315 36.0589 18.6315 35.2974C18.6315 34.536 18.0278 33.917 17.2851 33.917Z" fill="#99EA48"/>
<path d="M5.24168 37.5518C4.49899 37.5518 3.89526 38.1707 3.89526 38.9322C3.89526 39.6937 4.49899 40.3127 5.24168 40.3127C5.98436 40.3127 6.58809 39.6937 6.58809 38.9322C6.58809 38.1707 5.98436 37.5518 5.24168 37.5518Z" fill="#99EA48"/>
<path d="M11.0517 37.5518C10.3091 37.5518 9.70532 38.1707 9.70532 38.9322C9.70532 39.6937 10.3091 40.3127 11.0517 40.3127C11.7944 40.3127 12.3981 39.6937 12.3981 38.9322C12.3981 38.1707 11.7944 37.5518 11.0517 37.5518Z" fill="#99EA48"/>
<path d="M17.2851 37.5518C16.5425 37.5518 15.9387 38.1707 15.9387 38.9322C15.9387 39.6937 16.5425 40.3127 17.2851 40.3127C18.0278 40.3127 18.6315 39.6937 18.6315 38.9322C18.6315 38.1707 18.0278 37.5518 17.2851 37.5518Z" fill="#99EA48"/>
<path d="M2.26659 31.0156H9.56405C9.71977 31.0156 9.84675 31.1458 9.84675 31.3055V32.3961C9.84675 32.5557 9.71977 32.6859 9.56405 32.6859H2.26659C2.11086 32.6859 1.98389 32.5557 1.98389 32.3961V31.3055C1.98389 31.1458 2.11086 31.0156 2.26659 31.0156Z" fill="#99EA48"/>
<path d="M12.7168 31.0156H20.0143C20.17 31.0156 20.297 31.1458 20.297 31.3055V32.3961C20.297 32.5557 20.17 32.6859 20.0143 32.6859H12.7192C12.5635 32.6859 12.4365 32.5557 12.4365 32.3961V31.3055C12.4365 31.1458 12.5635 31.0156 12.7192 31.0156H12.7168Z" fill="#99EA48"/>
</svg>
