<svg width="31" height="30" class="hover:text-white duration-300"
viewBox="0 0 31 30" fill="none" xmlns="http://www.w3.org/2000/svg">
<path fill-rule="evenodd" clip-rule="evenodd"
d="M15.5383 0C6.96543 0 0 6.69113 0 15.0002C0 23.3089 6.96543 30 15.5383 30C24.1111 30 31 23.3089 31 15.0002C31 6.69113 24.1111 0 15.5383 0ZM16.763 19.0442C15.6148 18.9706 15.1556 18.3826 14.237 17.8678C13.7778 20.3676 13.1654 22.7204 11.4049 23.9705C10.8692 20.2207 12.1704 17.4267 12.7827 14.4118C11.7111 12.7206 12.9358 9.1913 15.1556 10.0735C17.9111 11.103 12.7827 16.5441 16.2272 17.2057C19.9012 17.9411 21.3556 11.103 19.1358 8.89708C15.8444 5.73525 9.64445 8.82343 10.4099 13.3822C10.6395 14.4854 11.7877 14.8529 10.9457 16.3972C8.80247 15.9561 8.19013 14.3381 8.26665 12.2795C8.41973 8.82343 11.4815 6.39689 14.6197 6.02945C18.5234 5.58835 22.1975 7.42644 22.6568 10.9557C23.2691 15.0002 20.8963 19.3384 16.763 19.0442Z"
fill="#F7BB0D" />
</svg>