
<svg width="16" height="15" viewBox="0 0 16 15" fill="none" xmlns="http://www.w3.org/2000/svg">
<path d="M7.14864 0C3.43837 0 0.416016 3.02132 0.416016 6.73034C0.416016 10.4393 3.43837 13.4665 7.14864 13.4665C8.7334 13.4665 10.1909 12.9113 11.3428 11.9895L14.1472 14.7915C14.2888 14.9271 14.4778 15.002 14.6738 15C14.8698 14.998 15.0573 14.9193 15.196 14.7808C15.3347 14.6423 15.4137 14.4551 15.416 14.2591C15.4182 14.0632 15.3437 13.8741 15.2082 13.7324L12.4038 10.929C13.3267 9.77569 13.8827 8.3164 13.8827 6.73034C13.8827 3.02132 10.8589 0 7.14864 0ZM7.14864 1.49598C10.0502 1.49598 12.3848 3.82981 12.3848 6.73034C12.3848 9.63087 10.0502 11.9706 7.14864 11.9706C4.24712 11.9706 1.91248 9.63087 1.91248 6.73034C1.91248 3.82981 4.24712 1.49598 7.14864 1.49598Z" fill="#1A1A1A"/>
</svg>
