<svg width="60" height="60" viewBox="0 0 60 60" fill="none" xmlns="http://www.w3.org/2000/svg">
<circle opacity="0.3" cx="30" cy="30" r="30" fill="white"/>
<path d="M36.043 25.0859C30.0013 25.0859 25.0859 30.0013 25.0859 36.043C25.0859 42.0847 30.0013 47 36.043 47C42.0847 47 47 42.0847 47 36.043C47 30.0013 42.0847 25.0859 36.043 25.0859ZM36.043 35.0469C37.6908 35.0469 39.0312 36.3874 39.0312 38.0352C39.0312 39.3321 38.196 40.4274 37.0391 40.84V43.0156H35.0469V40.84C33.8899 40.4274 33.0547 39.3321 33.0547 38.0352H35.0469C35.0469 38.5847 35.4934 39.0312 36.043 39.0312C36.5925 39.0312 37.0391 38.5847 37.0391 38.0352C37.0391 37.4856 36.5925 37.0391 36.043 37.0391C34.3952 37.0391 33.0547 35.6986 33.0547 34.0508C33.0547 32.7539 33.8899 31.6586 35.0469 31.246V29.0703H37.0391V31.246C38.196 31.6586 39.0312 32.7539 39.0312 34.0508H37.0391C37.0391 33.5012 36.5925 33.0547 36.043 33.0547C35.4934 33.0547 35.0469 33.5012 35.0469 34.0508C35.0469 34.6004 35.4934 35.0469 36.043 35.0469Z" fill="black"/>
<path d="M24.0898 25.0859C30.2337 25.0859 35.0469 22.4605 35.0469 19.1094C35.0469 15.7582 30.2337 13 24.0898 13C17.9459 13 13 15.7582 13 19.1094C13 22.4605 17.9459 25.0859 24.0898 25.0859Z" fill="black"/>
<path d="M13 35.416V37.0391C13 40.3902 17.9459 43.0156 24.0898 43.0156C24.4383 43.0156 24.776 42.9835 25.1191 42.9667C24.3551 41.7654 23.7852 40.4323 23.4497 39.0073C19.0068 38.8846 15.149 37.5194 13 35.416Z" fill="black"/>
<path d="M23.1416 36.9883C23.1188 36.675 23.0938 36.362 23.0938 36.043C23.0938 35.0046 23.2298 33.9996 23.4618 33.0312C19.0134 32.9107 15.151 31.5447 13 29.4395V31.0625C13 34.2358 17.4666 36.7297 23.1416 36.9883Z" fill="black"/>
<path d="M24.0898 31.0625C24.0909 31.0625 24.0918 31.0624 24.0929 31.0624C24.7499 29.4922 25.7048 28.0769 26.8908 26.891C25.9912 27.0047 25.0615 27.0781 24.0898 27.0781C19.3606 27.0781 15.2529 25.6678 13 23.4629V25.0859C13 28.4371 17.9459 31.0625 24.0898 31.0625Z" fill="black"/>
</svg>
