<svg width="60" height="60" viewBox="0 0 60 60" fill="none" xmlns="http://www.w3.org/2000/svg">
<circle opacity="0.3" cx="30" cy="30" r="30" fill="white"/>
<path d="M43.6846 42.6766L39.2329 33.6523H32.4283C32.0156 34.8862 30.8594 35.7773 29.5001 35.7773C28.1409 35.7773 26.9847 34.8862 26.572 33.6523H19.7675L15.3164 42.6753C14.3316 44.6644 15.7657 47 17.9629 47H41.0374C43.2418 47 44.6652 44.6575 43.6846 42.6766ZM25.2918 42.6836C23.5877 42.6836 22.2014 41.2835 22.2014 39.5625C22.2014 37.8415 23.5877 36.4414 25.2918 36.4414C26.9959 36.4414 28.3823 37.8415 28.3823 39.5625C28.3823 41.2835 26.9959 42.6836 25.2918 42.6836ZM32.586 41.7858C32.528 42.35 32.0305 42.7332 31.507 42.6789C30.9452 42.6201 30.5688 42.115 30.6232 41.5899C30.6673 41.0388 31.1919 40.5957 31.7969 40.7107C32.277 40.8117 32.63 41.2414 32.586 41.7858ZM33.6381 37.5358C33.5846 38.0563 33.1399 38.4768 32.5597 38.4289C31.9993 38.3714 31.6207 37.8656 31.6746 37.3399C31.7321 36.7691 32.2549 36.3478 32.849 36.4607C33.372 36.5708 33.6873 37.0512 33.6381 37.5358ZM36.7943 39.6608C36.7362 40.2261 36.2379 40.6081 35.7153 40.5539C35.154 40.4951 34.7769 39.9897 34.8309 39.4649C34.8882 38.8952 35.4096 38.4724 36.0052 38.5857C36.5303 38.6962 36.8432 39.1787 36.7943 39.6608Z" fill="black"/>
<path d="M23.1218 14.9922H24.3054V24.4531L20.7501 31.6602H26.5719C26.9846 30.4263 28.1408 29.5352 29.5 29.5352C30.8592 29.5352 32.0155 30.4263 32.4281 31.6602H38.2499L34.6946 24.4531V14.9922H35.8782C36.4229 14.9922 36.8645 14.5462 36.8645 13.9961C36.8645 13.446 36.4229 13 35.8782 13C32.8504 13 25.7736 13 23.1218 13C22.5771 13 22.1355 13.446 22.1355 13.9961C22.1355 14.5462 22.5771 14.9922 23.1218 14.9922Z" fill="black"/>
<path d="M29.5001 33.7852C30.1175 33.7852 30.6179 33.2797 30.6179 32.6562C30.6179 32.0328 30.1175 31.5273 29.5001 31.5273C28.8827 31.5273 28.3823 32.0328 28.3823 32.6562C28.3823 33.2797 28.8827 33.7852 29.5001 33.7852Z" fill="black"/>
<path d="M25.2918 40.6914C25.9092 40.6914 26.4096 40.186 26.4096 39.5625C26.4096 38.939 25.9092 38.4336 25.2918 38.4336C24.6744 38.4336 24.174 38.939 24.174 39.5625C24.174 40.186 24.6744 40.6914 25.2918 40.6914Z" fill="black"/>
</svg>
