<?xml version="1.0" encoding="UTF-8"?>
<svg version="1.1" xmlns="http://www.w3.org/2000/svg" width="128" height="128">
<path d="M0 0 C1.25850769 -0.01283524 2.51701538 -0.02567047 3.81365967 -0.03889465 C5.1898967 -0.04706344 6.5661382 -0.05450691 7.94238281 -0.0612793 C8.98427639 -0.06739259 8.98427639 -0.06739259 10.04721832 -0.07362938 C13.72516073 -0.09447432 17.40306603 -0.10878168 21.08105469 -0.11816406 C24.86841357 -0.12921331 28.65518247 -0.16359964 32.44233322 -0.20333576 C35.36441086 -0.22956003 38.28634929 -0.23786108 41.20853424 -0.24144554 C42.60391465 -0.24629813 43.99928939 -0.25787421 45.39455414 -0.27648354 C54.62991814 -0.39198424 60.40718059 -0.19001912 67.20800781 6.42700195 C71.99881917 14.23425009 71.1658541 23.20925079 71.08300781 32.05200195 C71.08154863 33.39575132 71.08089129 34.73950181 71.08105469 36.08325195 C71.03608865 45.89584028 71.03608865 45.89584028 69.89550781 48.17700195 C62.14550781 47.30200195 62.14550781 47.30200195 59.89550781 46.17700195 C59.86577881 44.94397339 59.86577881 44.94397339 59.83544922 43.68603516 C59.74006179 39.95354069 59.63043692 36.22159526 59.52050781 32.48950195 C59.48957031 31.19592773 59.45863281 29.90235352 59.42675781 28.56958008 C59.38808594 27.32241211 59.34941406 26.07524414 59.30957031 24.7902832 C59.27814941 23.64342041 59.24672852 22.49655762 59.21435547 21.31494141 C58.89027411 18.12549448 58.50820137 15.94918239 56.89550781 13.17700195 C53.38984157 11.42996576 50.52479363 10.9251106 46.63378906 10.91821289 C45.60922607 10.91190857 44.58466309 10.90560425 43.52905273 10.89910889 C42.43310791 10.90315735 41.33716309 10.90720581 40.20800781 10.91137695 C39.07274658 10.9094635 37.93748535 10.90755005 36.76782227 10.90557861 C34.37060321 10.90421927 31.97337673 10.90789817 29.57617188 10.91625977 C25.90901132 10.92696254 22.24234065 10.91635568 18.57519531 10.90356445 C16.24446507 10.90488609 13.91373512 10.90744858 11.58300781 10.91137695 C10.48706299 10.90732849 9.39111816 10.90328003 8.26196289 10.89910889 C7.2373999 10.90541321 6.21283691 10.91171753 5.15722656 10.91821289 C4.25963623 10.91980408 3.3620459 10.92139526 2.43725586 10.92303467 C-0.5026002 11.21678025 -2.52390093 11.72008601 -5.10449219 13.17700195 C-7.03192937 16.59101329 -7.35641257 19.56408741 -7.36328125 23.4387207 C-7.36958557 24.46328369 -7.37588989 25.48784668 -7.38238525 26.54345703 C-7.37833679 27.63940186 -7.37428833 28.73534668 -7.37011719 29.86450195 C-7.37298737 31.5673938 -7.37298737 31.5673938 -7.37591553 33.3046875 C-7.37727487 35.70190656 -7.37359597 38.09913303 -7.36523438 40.49633789 C-7.3545316 44.16349845 -7.36513846 47.83016912 -7.37792969 51.49731445 C-7.37660805 53.8280447 -7.37404557 56.15877464 -7.37011719 58.48950195 C-7.37416565 59.58544678 -7.37821411 60.6813916 -7.38238525 61.81054688 C-7.37608093 62.83510986 -7.36977661 63.85967285 -7.36328125 64.9152832 C-7.36169006 65.81287354 -7.36009888 66.71046387 -7.35845947 67.63525391 C-7.07328448 70.48933407 -6.37983998 72.61261686 -5.10449219 75.17700195 C-1.19490168 77.50630588 2.51909938 77.40450964 6.98925781 77.38012695 C8.36296525 77.39067103 9.73666382 77.40242666 11.11035156 77.4152832 C13.25678249 77.42560495 15.40196456 77.42694191 17.54833984 77.40698242 C29.46533635 77.3223873 29.46533635 77.3223873 32.97753906 79.42114258 C35.60653438 82.36487677 35.89550781 84.24209497 35.89550781 88.17700195 C30.06062468 88.30117279 24.22652098 88.39161019 18.390625 88.45166016 C16.40806673 88.47670878 14.42559992 88.51075779 12.44335938 88.55419922 C9.58342855 88.61527814 6.7247249 88.64330824 3.86425781 88.6652832 C2.54814514 88.70399284 2.54814514 88.70399284 1.20544434 88.7434845 C-5.08315261 88.74631088 -9.35796026 87.39190008 -14.10449219 83.17700195 C-19.4549297 76.86492603 -18.68944792 69.6763035 -18.63574219 61.73950195 C-18.63844116 60.33137749 -18.64232695 58.92325485 -18.64733887 57.51513672 C-18.65321502 54.57314193 -18.64473282 51.63163504 -18.62597656 48.68969727 C-18.60318712 44.93371233 -18.61632049 41.17887092 -18.64026642 37.42292786 C-18.6547761 34.51793934 -18.65009502 31.61321837 -18.63975525 28.70822144 C-18.63710218 27.32404441 -18.64030739 25.93984246 -18.64967346 24.55569458 C-18.72056561 11.13678086 -18.72056561 11.13678086 -14.10449219 5.17700195 C-9.48734347 0.89769338 -6.18956841 0.05493384 0 0 Z " fill="#0375BB" transform="translate(38.1044921875,19.822998046875)"/>
<path d="M0 0 C0.99 0 1.98 0 3 0 C3.268125 0.80824219 3.53625 1.61648437 3.8125 2.44921875 C6.11948792 8.7403141 7.82723452 13.0001404 13.9296875 16.109375 C14.61289063 16.40328125 15.29609375 16.6971875 16 17 C16.68320313 17.31453125 17.36640625 17.6290625 18.0703125 17.953125 C19.69566685 18.67696702 21.3456433 19.34515047 23 20 C23 20.99 23 21.98 23 23 C22.18015625 23.30292969 21.3603125 23.60585937 20.515625 23.91796875 C19.43796875 24.33691406 18.3603125 24.75585938 17.25 25.1875 C15.64898437 25.79658203 15.64898437 25.79658203 14.015625 26.41796875 C8.89550961 29.10403965 6.69063662 33.22784037 4.25 38.3125 C3.82203125 39.19550781 3.3940625 40.07851562 2.953125 40.98828125 C2.63859375 41.65214844 2.3240625 42.31601563 2 43 C0.515 42.505 0.515 42.505 -1 42 C-2.140625 39.41796875 -2.140625 39.41796875 -3.25 36.1875 C-5.20999139 30.96713719 -5.20999139 30.96713719 -9.3125 27.5 C-10.529375 27.005 -11.74625 26.51 -13 26 C-14.48439696 25.26040572 -15.96363615 24.51036792 -17.4375 23.75 C-18.613125 23.1725 -19.78875 22.595 -21 22 C-18.73179844 18.59769767 -17.84989667 18.35018683 -14.125 17.0625 C-9.05170991 15.10170254 -6.19903543 13.70540485 -3.91796875 8.55859375 C-3.19574082 6.76450812 -2.49914722 4.95983088 -1.83203125 3.14453125 C-1 1 -1 1 0 0 Z " fill="#0375BB" transform="translate(99,76)"/>
<path d="M0 0 C2.05078125 0.03255208 4.1015625 0.06510417 6.15234375 0.09765625 C7.87099806 5.12982427 9.57968058 10.16522736 11.27929688 15.20385742 C11.85861196 16.91669255 12.44061911 18.62861965 13.02539062 20.33959961 C13.86651327 22.80217213 14.69783139 25.26787106 15.52734375 27.734375 C15.7898291 28.49602463 16.05231445 29.25767426 16.32275391 30.04240417 C17.59156276 33.84683625 18.49000108 37.02818194 18.15234375 41.09765625 C15.84234375 41.09765625 13.53234375 41.09765625 11.15234375 41.09765625 C10.49234375 39.11765625 9.83234375 37.13765625 9.15234375 35.09765625 C4.20234375 34.76765625 -0.74765625 34.43765625 -5.84765625 34.09765625 C-6.50765625 36.40765625 -7.16765625 38.71765625 -7.84765625 41.09765625 C-10.15765625 41.09765625 -12.46765625 41.09765625 -14.84765625 41.09765625 C-13.32103658 33.28136355 -10.94319278 25.78813758 -8.47924805 18.22900391 C-7.77819551 16.07628191 -7.08498698 13.92114084 -6.39257812 11.765625 C-2.63011293 0.13901231 -2.63011293 0.13901231 0 0 Z M1.15234375 11.09765625 C-0.49765625 16.70765625 -2.14765625 22.31765625 -3.84765625 28.09765625 C-0.21765625 28.09765625 3.41234375 28.09765625 7.15234375 28.09765625 C5.94388085 22.14830041 4.40656708 16.73321458 2.15234375 11.09765625 C1.82234375 11.09765625 1.49234375 11.09765625 1.15234375 11.09765625 Z " fill="#0375BA" transform="translate(51.84765625,41.90234375)"/>
<path d="M0 0 C1.98 0 3.96 0 6 0 C6 13.53 6 27.06 6 41 C4.02 41 2.04 41 0 41 C0 27.47 0 13.94 0 0 Z " fill="#0375BB" transform="translate(79,42)"/>
</svg>
